<svg width="24" height="20" viewBox="0 0 24 20" fill="none" xmlns="http://www.w3.org/2000/svg">
<path d="M23.53 10.5298L14.53 19.5298C14.3878 19.6623 14.1998 19.7344 14.0055 19.731C13.8112 19.7276 13.6258 19.6489 13.4884 19.5115C13.351 19.3741 13.2723 19.1887 13.2688 18.9944C13.2654 18.8001 13.3375 18.612 13.47 18.4698L21.1887 10.7498H1C0.801088 10.7498 0.610322 10.6708 0.46967 10.5302C0.329018 10.3895 0.25 10.1988 0.25 9.99985C0.25 9.80093 0.329018 9.61017 0.46967 9.46952C0.610322 9.32886 0.801088 9.24985 1 9.24985H21.1887L13.47 1.52985C13.3375 1.38767 13.2654 1.19963 13.2688 1.00532C13.2723 0.811023 13.351 0.625638 13.4884 0.488225C13.6258 0.350812 13.8112 0.2721 14.0055 0.268672C14.1998 0.265243 14.3878 0.337366 14.53 0.469846L23.53 9.46985C23.6705 9.61047 23.7493 9.8011 23.7493 9.99985C23.7493 10.1986 23.6705 10.3892 23.53 10.5298Z" fill="white"/>
</svg>
