<svg width="25" height="24" viewBox="0 0 25 24" fill="none" xmlns="http://www.w3.org/2000/svg">
<g clip-path="url(#clip0_5252_81419)">
<path d="M10.7476 19.8016C10.6855 19.9383 10.5838 20.0533 10.4557 20.1315C10.3275 20.2098 10.1789 20.2478 10.0289 20.2406C9.87895 20.2334 9.73458 20.1814 9.61451 20.0913C9.49443 20.0012 9.40417 19.8771 9.3554 19.7351L4.45509 4.72852C4.41496 4.59821 4.41112 4.45943 4.44397 4.3271C4.47683 4.19477 4.54513 4.0739 4.64154 3.97748C4.73796 3.88107 4.85883 3.81276 4.99116 3.77991C5.12349 3.74706 5.26228 3.7509 5.39259 3.79102L20.402 8.68852C20.544 8.73729 20.6681 8.82755 20.7582 8.94763C20.8483 9.06771 20.9003 9.21207 20.9075 9.36204C20.9147 9.51201 20.8767 9.66067 20.7984 9.7888C20.7201 9.91693 20.6052 10.0186 20.4685 10.0807L16.2713 11.906C16.1592 11.9549 16.0608 12.0304 15.9846 12.126C15.9084 12.2217 15.8567 12.3345 15.834 12.4546C15.8114 12.5748 15.8185 12.6987 15.8547 12.8155C15.8908 12.9323 15.955 13.0385 16.0416 13.1248L20.6982 17.7813C20.8388 17.922 20.9177 18.1127 20.9177 18.3115C20.9177 18.5103 20.8388 18.701 20.6982 18.8416L19.5104 20.0304C19.3698 20.1709 19.1791 20.2499 18.9802 20.2499C18.7814 20.2499 18.5907 20.1709 18.4501 20.0304L13.7916 15.3748C13.7053 15.2882 13.599 15.224 13.4822 15.1879C13.3653 15.1518 13.2414 15.1448 13.1212 15.1676C13.0011 15.1903 12.8883 15.2421 12.7927 15.3184C12.6971 15.3947 12.6217 15.4932 12.5729 15.6054L10.7476 19.8016Z" stroke="#E98315" stroke-width="1.5" stroke-linecap="round" stroke-linejoin="round"/>
<path d="M9.6665 1.5V2.25" stroke="#E98315" stroke-width="1.5" stroke-linecap="round" stroke-linejoin="round"/>
<path d="M2.1665 9H2.9165" stroke="#E98315" stroke-width="1.5" stroke-linecap="round" stroke-linejoin="round"/>
<path d="M12.6665 3L13.4165 1.5" stroke="#E98315" stroke-width="1.5" stroke-linecap="round" stroke-linejoin="round"/>
<path d="M3.6665 12L2.1665 12.75" stroke="#E98315" stroke-width="1.5" stroke-linecap="round" stroke-linejoin="round"/>
</g>
<defs>
<clipPath id="clip0_5252_81419">
<rect width="24" height="24" fill="white" transform="translate(0.666504)"/>
</clipPath>
</defs>
</svg>
