<svg width="375" height="310" viewBox="0 0 375 310" fill="none" xmlns="http://www.w3.org/2000/svg">
<mask id="mask0_2041_73111" style="mask-type:alpha" maskUnits="userSpaceOnUse" x="0" y="0" width="375" height="310">
<rect width="375" height="310" fill="#D9D9D9"/>
</mask>
<g mask="url(#mask0_2041_73111)">
<g opacity="0.15">
<path d="M364.555 -32.1064C337.275 -94.3093 271.793 -117.73 220.127 -75.9653C199.952 -59.6717 187.365 -33.7401 162.661 -23.3346C139.482 -13.5759 110.118 -16.4487 85.0528 -11.1637C31.6764 0.0203476 -40.1865 42.4539 -34.7041 107.837C-32.3029 136.477 -12.983 168.285 -3.43269 195.083C7.53205 225.916 14.1109 264.49 43.1346 282.922C92.8926 314.566 152.914 288.7 197.737 263.185C221.86 249.468 235.138 241.036 261.114 245.74C285.159 250.126 306.815 265.477 330.312 247.264C347.954 233.591 349.413 205.883 364.226 189.612C380.914 171.279 397.833 169.952 406.506 142.398C417.021 108.966 401.528 88.0782 391.057 58.2102C380.586 28.3423 377.406 -2.84145 364.555 -32.1064Z" fill="#4040FF"/>
<g opacity="0.7">
<path d="M364.555 -32.1063C337.275 -94.3093 271.793 -117.73 220.127 -75.9653C199.952 -59.6717 187.365 -33.7401 162.661 -23.3345C139.482 -13.5759 110.118 -16.4487 85.0528 -11.1637C31.6764 0.0203629 -40.1865 42.4539 -34.7041 107.837C-32.3029 136.477 -10.0503 179.702 -0.5 206.5C10.4647 237.333 14.1109 264.49 43.1346 282.922C92.8926 314.566 152.914 288.7 197.737 263.185C221.86 249.468 235.138 241.036 261.114 245.74C285.159 250.126 306.815 265.477 330.312 247.264C347.954 233.591 349.413 205.883 364.226 189.612C380.914 171.279 397.833 169.952 406.506 142.398C417.021 108.966 401.528 88.0782 391.057 58.2103C380.586 28.3423 377.406 -2.84144 364.555 -32.1063Z" fill="white"/>
</g>
</g>
</g>
</svg>
