<svg width="24" height="24" viewBox="0 0 24 24" fill="none" xmlns="http://www.w3.org/2000/svg">
<mask id="path-1-inside-1_6216_22834" fill="white">
<path d="M16.5229 2.0731H18.4462C19.0618 2.0731 19.5627 1.57219 19.5627 0.956537C19.5627 0.456662 19.156 0.0499281 18.6561 0.0499281H17.1448C16.9075 0.0499281 16.687 0.156803 16.5399 0.343178L15.9832 1.04879C15.8318 1.24065 15.804 1.49649 15.9106 1.71647C15.9099 1.71516 15.9095 1.7138 15.9088 1.71249L15.335 2.43985L13.8999 2.16793C13.6378 0.9631 12.5636 0.0578031 11.2814 0.0578031C9.99914 0.0578031 8.9249 0.9631 8.66283 2.16797L7.22775 2.4399L6.61912 1.66852L6.62044 1.66599C6.67092 1.55972 6.69059 1.44141 6.6772 1.32452C6.66381 1.20762 6.6179 1.09683 6.54469 1.00472L5.98331 0.293209C5.83214 0.101631 5.5965 -0.00730622 5.35219 0.000381275L3.89986 0.049975C3.40308 0.0536313 3 0.458912 3 0.956537C3 1.57219 3.50091 2.0731 4.11656 2.0731L4.12458 2.07301L6.00591 2.03012L6.4567 2.60147L6.45769 2.60115C6.15942 2.71186 5.92987 2.95196 5.82886 3.24802L4.38361 3.24797C4.29007 3.24797 4.20036 3.28513 4.13422 3.35127C4.06808 3.41742 4.03092 3.50712 4.03092 3.60066C4.03092 3.6942 4.06808 3.78391 4.13422 3.85005C4.20036 3.91619 4.29007 3.95335 4.38361 3.95335H5.83809C5.98725 4.35291 6.37266 4.63824 6.82359 4.63824H8.97965C7.21612 4.99908 5.88539 6.56269 5.88539 8.43132V13.3382C5.88539 13.4317 5.92255 13.5214 5.98869 13.5876C6.05483 13.6537 6.14454 13.6909 6.23808 13.6909C6.33162 13.6909 6.42132 13.6537 6.48746 13.5876C6.55361 13.5214 6.59076 13.4317 6.59076 13.3382V12.1601H7.71801C8.12147 12.1601 8.44973 11.8318 8.44973 11.4284V10.0467C8.44973 9.64322 8.12147 9.31496 7.71801 9.31496H6.59076V8.43141C6.59076 6.81647 7.80642 5.48101 9.37055 5.28971L9.77836 9.59808C9.79875 9.82275 9.90264 10.0316 10.0695 10.1834C10.2364 10.3352 10.4541 10.419 10.6797 10.4181H11.8828C12.1084 10.419 12.3261 10.3352 12.4929 10.1834C12.6598 10.0316 12.7637 9.82275 12.7841 9.59808L13.1919 5.28971C14.756 5.48101 15.9717 6.81647 15.9717 8.43141V9.31505H14.8444C14.441 9.31505 14.1127 9.64332 14.1127 10.0468V11.4285C14.1127 11.8319 14.441 12.1602 14.8444 12.1602H15.9717V15.7452C15.9717 16.3735 15.5477 16.9256 14.9407 17.0878L14.3415 17.2479L14.6955 16.0763C14.8575 15.5405 14.8596 14.9819 14.7018 14.4606C14.4842 13.742 14.0325 13.0962 13.4299 12.6421C12.8066 12.1725 12.0636 11.9243 11.2812 11.9243C10.4988 11.9243 9.75586 12.1725 9.13256 12.6421C8.52998 13.0962 8.07825 13.742 7.86065 14.4606C7.70283 14.9819 7.70498 15.5405 7.86689 16.0763L8.22094 17.2479L7.62169 17.0878C7.01466 16.9256 6.59072 16.3735 6.59072 15.7452V14.9818C6.59072 14.8883 6.55356 14.7986 6.48742 14.7324C6.42128 14.6663 6.33157 14.6291 6.23803 14.6291C6.14449 14.6291 6.05478 14.6663 5.98864 14.7324C5.9225 14.7986 5.88534 14.8883 5.88534 14.9818V15.7452C5.88534 16.6924 6.52444 17.5247 7.43958 17.7693L8.38059 18.0208V20.6422C8.38059 21.0627 8.72269 21.4048 9.1432 21.4048H9.54098V22.2597C9.54112 23.2193 10.3218 24 11.2814 24C12.2409 24 13.0216 23.2193 13.0216 22.2597V21.4048H13.4194C13.8399 21.4048 14.182 21.0627 14.182 20.6422V18.0208L15.123 17.7693C16.0381 17.5247 16.6772 16.6924 16.6772 15.7452V8.43141C16.6772 6.56279 15.3465 4.99918 13.583 4.63833H15.739C16.19 4.63833 16.5754 4.35301 16.7245 3.95344H18.179C18.2726 3.95344 18.3623 3.91628 18.4284 3.85014C18.4945 3.784 18.5317 3.69429 18.5317 3.60076C18.5317 3.50722 18.4945 3.41751 18.4284 3.35137C18.3623 3.28523 18.2726 3.24807 18.179 3.24807H16.7338C16.6328 2.95219 16.4035 2.71224 16.1055 2.60143L16.106 2.60157L16.5229 2.0731ZM17.0938 0.780147C17.0998 0.772405 17.1076 0.766148 17.1164 0.761851C17.1253 0.757555 17.135 0.755331 17.1448 0.75535H18.6561C18.7094 0.755399 18.7606 0.776612 18.7983 0.814331C18.836 0.85205 18.8572 0.903194 18.8573 0.956537C18.8573 1.18327 18.6728 1.36772 18.4461 1.36772H16.6301L17.0938 0.780147ZM4.11319 1.36772C3.888 1.3659 3.70542 1.18215 3.70542 0.956537C3.70548 0.903198 3.7267 0.852061 3.76442 0.814345C3.80213 0.776628 3.85327 0.755412 3.90661 0.75535C3.91064 0.75535 3.91462 0.755303 3.91866 0.755162L5.37619 0.705428L5.37839 0.705381C5.39827 0.705381 5.41725 0.714522 5.42958 0.730131L5.90048 1.32699L4.11319 1.36772ZM6.82369 3.93291C6.63281 3.93291 6.47751 3.77761 6.47751 3.58674C6.47756 3.50612 6.50572 3.42805 6.55714 3.36596C6.60857 3.30387 6.68003 3.26167 6.75923 3.24662L8.60634 2.89665C8.62735 3.2573 8.72161 3.60989 8.88337 3.93291H6.82369ZM6.59086 10.0204H7.71811C7.73264 10.0204 7.7444 10.0322 7.7444 10.0467V11.4284C7.7444 11.4429 7.73259 11.4547 7.71811 11.4547H6.59086V10.0204ZM9.54112 20.6994H9.14334C9.1118 20.6994 9.08616 20.6738 9.08616 20.6422V20.1661C9.08616 20.1345 9.1118 20.1089 9.14334 20.1089H9.54112V20.6994ZM9.54117 19.4034H9.14334C9.12403 19.4034 9.10509 19.4049 9.08616 19.4063V18.4949C9.22711 18.5829 9.37941 18.6537 9.54117 18.7023V19.4034ZM12.3162 22.2597C12.3162 22.8303 11.8519 23.2946 11.2814 23.2946C10.7108 23.2946 10.2465 22.8303 10.2465 22.2597V18.7834H12.3162V22.2597ZM13.4766 20.6422C13.4766 20.6738 13.451 20.6994 13.4194 20.6994H13.0216V20.1089H13.4194C13.451 20.1089 13.4766 20.1346 13.4766 20.1661V20.6422ZM13.4767 19.4063C13.4577 19.4049 13.4387 19.4034 13.4194 19.4034H13.0216V18.7023C13.1819 18.6537 13.3349 18.5839 13.4767 18.4949V19.4063ZM14.0205 15.8723L13.61 17.2306C13.592 17.2901 13.5694 17.3481 13.5424 17.4041C13.5243 17.4295 13.5097 17.4571 13.4989 17.4863C13.4834 17.513 13.467 17.539 13.4497 17.5642C13.4447 17.5708 13.44 17.5776 13.4356 17.5845C13.2488 17.8447 12.9635 18.0195 12.6392 18.0653C12.6323 18.066 12.6254 18.0668 12.6186 18.0678C12.5693 18.0739 12.5194 18.078 12.4686 18.078H10.0942C10.0433 18.078 9.99347 18.0739 9.94415 18.0678C9.93732 18.0668 9.93046 18.066 9.92358 18.0653C9.59925 18.0195 9.31383 17.8446 9.12708 17.5844C9.12267 17.5775 9.11803 17.5708 9.11315 17.5643C9.09573 17.5389 9.07928 17.5129 9.06384 17.4862C9.05306 17.457 9.03845 17.4294 9.02039 17.4041C8.9934 17.3481 8.97078 17.29 8.95275 17.2305L8.54231 15.8722C8.42081 15.4701 8.41861 15.0526 8.53598 14.665C8.89889 13.4666 10.0279 12.6296 11.2814 12.6296C12.5349 12.6296 13.6639 13.4666 14.0268 14.665C14.1442 15.0527 14.142 15.4701 14.0205 15.8723ZM15.9719 11.4548H14.8446C14.8376 11.4548 14.8309 11.452 14.826 11.4471C14.8211 11.4421 14.8183 11.4354 14.8183 11.4285V10.0468C14.8183 10.0322 14.8301 10.0205 14.8446 10.0205H15.9719V11.4548ZM12.0819 9.53157C12.0774 9.58118 12.0545 9.62731 12.0176 9.66084C11.9808 9.69437 11.9327 9.71287 11.8829 9.71269H10.6798C10.6299 9.71287 10.5819 9.69437 10.545 9.66084C10.5082 9.62731 10.4852 9.58118 10.4807 9.53157L10.0769 5.26529H10.389C10.4071 5.27171 10.4255 5.27733 10.4438 5.28338C10.4604 5.28886 10.4768 5.29468 10.4936 5.29979C10.5313 5.31141 10.5691 5.32224 10.6072 5.33213C10.621 5.33574 10.635 5.33869 10.6489 5.34207C10.6754 5.34849 10.7019 5.35486 10.7285 5.36049C10.7447 5.36391 10.7611 5.36682 10.7775 5.36996C10.8024 5.37474 10.8274 5.37933 10.8525 5.38341C10.869 5.38608 10.8856 5.38847 10.9022 5.39082C10.911 5.39208 10.9198 5.39358 10.9286 5.39475V6.81718C10.9286 6.91072 10.9658 7.00042 11.0319 7.06656C11.0981 7.13271 11.1878 7.16986 11.2813 7.16986C11.3748 7.16986 11.4646 7.13271 11.5307 7.06656C11.5968 7.00042 11.634 6.91072 11.634 6.81718V5.39475C11.6428 5.39358 11.6516 5.39208 11.6604 5.39082C11.677 5.38847 11.6936 5.38608 11.7101 5.38341C11.7352 5.3793 11.7602 5.37482 11.7852 5.36996C11.8015 5.36682 11.8179 5.36391 11.8341 5.36049C11.8607 5.35474 11.8873 5.3486 11.9137 5.34207C11.9276 5.33869 11.9416 5.33574 11.9555 5.33213C11.9936 5.32221 12.0314 5.31142 12.069 5.29979C12.0858 5.29463 12.1022 5.28886 12.1188 5.28338C12.1371 5.27733 12.1555 5.27171 12.1737 5.26529H12.4857L12.0819 9.53157ZM11.9724 4.58762C11.9584 4.59286 11.9442 4.59779 11.9301 4.60271C11.9152 4.60791 11.9003 4.61307 11.8852 4.6179C11.8702 4.62272 11.8552 4.62722 11.8401 4.63168C11.8252 4.6361 11.8103 4.64035 11.7953 4.64443C11.7647 4.6526 11.7339 4.6601 11.7029 4.66693C11.6715 4.67386 11.64 4.67992 11.6083 4.68511C11.5945 4.68741 11.5808 4.68976 11.567 4.69177C11.5485 4.69444 11.5299 4.69669 11.5113 4.6989C11.4985 4.7004 11.4858 4.70204 11.473 4.70326C11.4521 4.70527 11.4309 4.70672 11.4097 4.70808C11.3991 4.70879 11.3884 4.70977 11.3777 4.71029C11.3458 4.71183 11.3137 4.71272 11.2814 4.71272C11.2491 4.71272 11.217 4.71183 11.1851 4.71029C11.1744 4.70977 11.1637 4.70879 11.1531 4.70808C11.1319 4.70681 11.1108 4.7052 11.0898 4.70326C11.077 4.70204 11.0643 4.7004 11.0515 4.6989C11.0329 4.69681 11.0144 4.69443 10.9958 4.69177C10.982 4.68972 10.9683 4.6875 10.9545 4.68511C10.9374 4.68228 10.9204 4.67924 10.9034 4.67597C10.8729 4.67001 10.8426 4.66334 10.8125 4.65596C10.7824 4.64863 10.7524 4.64054 10.7227 4.63168C10.7076 4.62725 10.6926 4.62265 10.6776 4.6179C10.6625 4.61307 10.6477 4.60786 10.6327 4.60271C10.6186 4.59779 10.6044 4.59286 10.5904 4.58762C9.8414 4.30683 9.30675 3.58379 9.30675 2.73797C9.30675 2.66124 9.31162 2.58568 9.32015 2.51124C9.32029 2.51012 9.32048 2.50899 9.32058 2.50782C9.435 1.52705 10.2705 0.763178 11.2815 0.763178C12.2924 0.763178 13.1279 1.52701 13.2423 2.50782L13.2427 2.51124C13.2516 2.5865 13.256 2.6622 13.2562 2.73797C13.2561 3.58379 12.7215 4.30683 11.9724 4.58762ZM15.739 3.93291H13.6793C13.8411 3.60989 13.9354 3.2573 13.9564 2.89665L15.8035 3.24662C15.8827 3.26166 15.9542 3.30386 16.0056 3.36595C16.057 3.42803 16.0852 3.50612 16.0852 3.58674C16.0852 3.77757 15.9299 3.93291 15.739 3.93291Z"/>
</mask>
<path d="M16.5229 2.0731H18.4462C19.0618 2.0731 19.5627 1.57219 19.5627 0.956537C19.5627 0.456662 19.156 0.0499281 18.6561 0.0499281H17.1448C16.9075 0.0499281 16.687 0.156803 16.5399 0.343178L15.9832 1.04879C15.8318 1.24065 15.804 1.49649 15.9106 1.71647C15.9099 1.71516 15.9095 1.7138 15.9088 1.71249L15.335 2.43985L13.8999 2.16793C13.6378 0.9631 12.5636 0.0578031 11.2814 0.0578031C9.99914 0.0578031 8.9249 0.9631 8.66283 2.16797L7.22775 2.4399L6.61912 1.66852L6.62044 1.66599C6.67092 1.55972 6.69059 1.44141 6.6772 1.32452C6.66381 1.20762 6.6179 1.09683 6.54469 1.00472L5.98331 0.293209C5.83214 0.101631 5.5965 -0.00730622 5.35219 0.000381275L3.89986 0.049975C3.40308 0.0536313 3 0.458912 3 0.956537C3 1.57219 3.50091 2.0731 4.11656 2.0731L4.12458 2.07301L6.00591 2.03012L6.4567 2.60147L6.45769 2.60115C6.15942 2.71186 5.92987 2.95196 5.82886 3.24802L4.38361 3.24797C4.29007 3.24797 4.20036 3.28513 4.13422 3.35127C4.06808 3.41742 4.03092 3.50712 4.03092 3.60066C4.03092 3.6942 4.06808 3.78391 4.13422 3.85005C4.20036 3.91619 4.29007 3.95335 4.38361 3.95335H5.83809C5.98725 4.35291 6.37266 4.63824 6.82359 4.63824H8.97965C7.21612 4.99908 5.88539 6.56269 5.88539 8.43132V13.3382C5.88539 13.4317 5.92255 13.5214 5.98869 13.5876C6.05483 13.6537 6.14454 13.6909 6.23808 13.6909C6.33162 13.6909 6.42132 13.6537 6.48746 13.5876C6.55361 13.5214 6.59076 13.4317 6.59076 13.3382V12.1601H7.71801C8.12147 12.1601 8.44973 11.8318 8.44973 11.4284V10.0467C8.44973 9.64322 8.12147 9.31496 7.71801 9.31496H6.59076V8.43141C6.59076 6.81647 7.80642 5.48101 9.37055 5.28971L9.77836 9.59808C9.79875 9.82275 9.90264 10.0316 10.0695 10.1834C10.2364 10.3352 10.4541 10.419 10.6797 10.4181H11.8828C12.1084 10.419 12.3261 10.3352 12.4929 10.1834C12.6598 10.0316 12.7637 9.82275 12.7841 9.59808L13.1919 5.28971C14.756 5.48101 15.9717 6.81647 15.9717 8.43141V9.31505H14.8444C14.441 9.31505 14.1127 9.64332 14.1127 10.0468V11.4285C14.1127 11.8319 14.441 12.1602 14.8444 12.1602H15.9717V15.7452C15.9717 16.3735 15.5477 16.9256 14.9407 17.0878L14.3415 17.2479L14.6955 16.0763C14.8575 15.5405 14.8596 14.9819 14.7018 14.4606C14.4842 13.742 14.0325 13.0962 13.4299 12.6421C12.8066 12.1725 12.0636 11.9243 11.2812 11.9243C10.4988 11.9243 9.75586 12.1725 9.13256 12.6421C8.52998 13.0962 8.07825 13.742 7.86065 14.4606C7.70283 14.9819 7.70498 15.5405 7.86689 16.0763L8.22094 17.2479L7.62169 17.0878C7.01466 16.9256 6.59072 16.3735 6.59072 15.7452V14.9818C6.59072 14.8883 6.55356 14.7986 6.48742 14.7324C6.42128 14.6663 6.33157 14.6291 6.23803 14.6291C6.14449 14.6291 6.05478 14.6663 5.98864 14.7324C5.9225 14.7986 5.88534 14.8883 5.88534 14.9818V15.7452C5.88534 16.6924 6.52444 17.5247 7.43958 17.7693L8.38059 18.0208V20.6422C8.38059 21.0627 8.72269 21.4048 9.1432 21.4048H9.54098V22.2597C9.54112 23.2193 10.3218 24 11.2814 24C12.2409 24 13.0216 23.2193 13.0216 22.2597V21.4048H13.4194C13.8399 21.4048 14.182 21.0627 14.182 20.6422V18.0208L15.123 17.7693C16.0381 17.5247 16.6772 16.6924 16.6772 15.7452V8.43141C16.6772 6.56279 15.3465 4.99918 13.583 4.63833H15.739C16.19 4.63833 16.5754 4.35301 16.7245 3.95344H18.179C18.2726 3.95344 18.3623 3.91628 18.4284 3.85014C18.4945 3.784 18.5317 3.69429 18.5317 3.60076C18.5317 3.50722 18.4945 3.41751 18.4284 3.35137C18.3623 3.28523 18.2726 3.24807 18.179 3.24807H16.7338C16.6328 2.95219 16.4035 2.71224 16.1055 2.60143L16.106 2.60157L16.5229 2.0731ZM17.0938 0.780147C17.0998 0.772405 17.1076 0.766148 17.1164 0.761851C17.1253 0.757555 17.135 0.755331 17.1448 0.75535H18.6561C18.7094 0.755399 18.7606 0.776612 18.7983 0.814331C18.836 0.85205 18.8572 0.903194 18.8573 0.956537C18.8573 1.18327 18.6728 1.36772 18.4461 1.36772H16.6301L17.0938 0.780147ZM4.11319 1.36772C3.888 1.3659 3.70542 1.18215 3.70542 0.956537C3.70548 0.903198 3.7267 0.852061 3.76442 0.814345C3.80213 0.776628 3.85327 0.755412 3.90661 0.75535C3.91064 0.75535 3.91462 0.755303 3.91866 0.755162L5.37619 0.705428L5.37839 0.705381C5.39827 0.705381 5.41725 0.714522 5.42958 0.730131L5.90048 1.32699L4.11319 1.36772ZM6.82369 3.93291C6.63281 3.93291 6.47751 3.77761 6.47751 3.58674C6.47756 3.50612 6.50572 3.42805 6.55714 3.36596C6.60857 3.30387 6.68003 3.26167 6.75923 3.24662L8.60634 2.89665C8.62735 3.2573 8.72161 3.60989 8.88337 3.93291H6.82369ZM6.59086 10.0204H7.71811C7.73264 10.0204 7.7444 10.0322 7.7444 10.0467V11.4284C7.7444 11.4429 7.73259 11.4547 7.71811 11.4547H6.59086V10.0204ZM9.54112 20.6994H9.14334C9.1118 20.6994 9.08616 20.6738 9.08616 20.6422V20.1661C9.08616 20.1345 9.1118 20.1089 9.14334 20.1089H9.54112V20.6994ZM9.54117 19.4034H9.14334C9.12403 19.4034 9.10509 19.4049 9.08616 19.4063V18.4949C9.22711 18.5829 9.37941 18.6537 9.54117 18.7023V19.4034ZM12.3162 22.2597C12.3162 22.8303 11.8519 23.2946 11.2814 23.2946C10.7108 23.2946 10.2465 22.8303 10.2465 22.2597V18.7834H12.3162V22.2597ZM13.4766 20.6422C13.4766 20.6738 13.451 20.6994 13.4194 20.6994H13.0216V20.1089H13.4194C13.451 20.1089 13.4766 20.1346 13.4766 20.1661V20.6422ZM13.4767 19.4063C13.4577 19.4049 13.4387 19.4034 13.4194 19.4034H13.0216V18.7023C13.1819 18.6537 13.3349 18.5839 13.4767 18.4949V19.4063ZM14.0205 15.8723L13.61 17.2306C13.592 17.2901 13.5694 17.3481 13.5424 17.4041C13.5243 17.4295 13.5097 17.4571 13.4989 17.4863C13.4834 17.513 13.467 17.539 13.4497 17.5642C13.4447 17.5708 13.44 17.5776 13.4356 17.5845C13.2488 17.8447 12.9635 18.0195 12.6392 18.0653C12.6323 18.066 12.6254 18.0668 12.6186 18.0678C12.5693 18.0739 12.5194 18.078 12.4686 18.078H10.0942C10.0433 18.078 9.99347 18.0739 9.94415 18.0678C9.93732 18.0668 9.93046 18.066 9.92358 18.0653C9.59925 18.0195 9.31383 17.8446 9.12708 17.5844C9.12267 17.5775 9.11803 17.5708 9.11315 17.5643C9.09573 17.5389 9.07928 17.5129 9.06384 17.4862C9.05306 17.457 9.03845 17.4294 9.02039 17.4041C8.9934 17.3481 8.97078 17.29 8.95275 17.2305L8.54231 15.8722C8.42081 15.4701 8.41861 15.0526 8.53598 14.665C8.89889 13.4666 10.0279 12.6296 11.2814 12.6296C12.5349 12.6296 13.6639 13.4666 14.0268 14.665C14.1442 15.0527 14.142 15.4701 14.0205 15.8723ZM15.9719 11.4548H14.8446C14.8376 11.4548 14.8309 11.452 14.826 11.4471C14.8211 11.4421 14.8183 11.4354 14.8183 11.4285V10.0468C14.8183 10.0322 14.8301 10.0205 14.8446 10.0205H15.9719V11.4548ZM12.0819 9.53157C12.0774 9.58118 12.0545 9.62731 12.0176 9.66084C11.9808 9.69437 11.9327 9.71287 11.8829 9.71269H10.6798C10.6299 9.71287 10.5819 9.69437 10.545 9.66084C10.5082 9.62731 10.4852 9.58118 10.4807 9.53157L10.0769 5.26529H10.389C10.4071 5.27171 10.4255 5.27733 10.4438 5.28338C10.4604 5.28886 10.4768 5.29468 10.4936 5.29979C10.5313 5.31141 10.5691 5.32224 10.6072 5.33213C10.621 5.33574 10.635 5.33869 10.6489 5.34207C10.6754 5.34849 10.7019 5.35486 10.7285 5.36049C10.7447 5.36391 10.7611 5.36682 10.7775 5.36996C10.8024 5.37474 10.8274 5.37933 10.8525 5.38341C10.869 5.38608 10.8856 5.38847 10.9022 5.39082C10.911 5.39208 10.9198 5.39358 10.9286 5.39475V6.81718C10.9286 6.91072 10.9658 7.00042 11.0319 7.06656C11.0981 7.13271 11.1878 7.16986 11.2813 7.16986C11.3748 7.16986 11.4646 7.13271 11.5307 7.06656C11.5968 7.00042 11.634 6.91072 11.634 6.81718V5.39475C11.6428 5.39358 11.6516 5.39208 11.6604 5.39082C11.677 5.38847 11.6936 5.38608 11.7101 5.38341C11.7352 5.3793 11.7602 5.37482 11.7852 5.36996C11.8015 5.36682 11.8179 5.36391 11.8341 5.36049C11.8607 5.35474 11.8873 5.3486 11.9137 5.34207C11.9276 5.33869 11.9416 5.33574 11.9555 5.33213C11.9936 5.32221 12.0314 5.31142 12.069 5.29979C12.0858 5.29463 12.1022 5.28886 12.1188 5.28338C12.1371 5.27733 12.1555 5.27171 12.1737 5.26529H12.4857L12.0819 9.53157ZM11.9724 4.58762C11.9584 4.59286 11.9442 4.59779 11.9301 4.60271C11.9152 4.60791 11.9003 4.61307 11.8852 4.6179C11.8702 4.62272 11.8552 4.62722 11.8401 4.63168C11.8252 4.6361 11.8103 4.64035 11.7953 4.64443C11.7647 4.6526 11.7339 4.6601 11.7029 4.66693C11.6715 4.67386 11.64 4.67992 11.6083 4.68511C11.5945 4.68741 11.5808 4.68976 11.567 4.69177C11.5485 4.69444 11.5299 4.69669 11.5113 4.6989C11.4985 4.7004 11.4858 4.70204 11.473 4.70326C11.4521 4.70527 11.4309 4.70672 11.4097 4.70808C11.3991 4.70879 11.3884 4.70977 11.3777 4.71029C11.3458 4.71183 11.3137 4.71272 11.2814 4.71272C11.2491 4.71272 11.217 4.71183 11.1851 4.71029C11.1744 4.70977 11.1637 4.70879 11.1531 4.70808C11.1319 4.70681 11.1108 4.7052 11.0898 4.70326C11.077 4.70204 11.0643 4.7004 11.0515 4.6989C11.0329 4.69681 11.0144 4.69443 10.9958 4.69177C10.982 4.68972 10.9683 4.6875 10.9545 4.68511C10.9374 4.68228 10.9204 4.67924 10.9034 4.67597C10.8729 4.67001 10.8426 4.66334 10.8125 4.65596C10.7824 4.64863 10.7524 4.64054 10.7227 4.63168C10.7076 4.62725 10.6926 4.62265 10.6776 4.6179C10.6625 4.61307 10.6477 4.60786 10.6327 4.60271C10.6186 4.59779 10.6044 4.59286 10.5904 4.58762C9.8414 4.30683 9.30675 3.58379 9.30675 2.73797C9.30675 2.66124 9.31162 2.58568 9.32015 2.51124C9.32029 2.51012 9.32048 2.50899 9.32058 2.50782C9.435 1.52705 10.2705 0.763178 11.2815 0.763178C12.2924 0.763178 13.1279 1.52701 13.2423 2.50782L13.2427 2.51124C13.2516 2.5865 13.256 2.6622 13.2562 2.73797C13.2561 3.58379 12.7215 4.30683 11.9724 4.58762ZM15.739 3.93291H13.6793C13.8411 3.60989 13.9354 3.2573 13.9564 2.89665L15.8035 3.24662C15.8827 3.26166 15.9542 3.30386 16.0056 3.36595C16.057 3.42803 16.0852 3.50612 16.0852 3.58674C16.0852 3.77757 15.9299 3.93291 15.739 3.93291Z" stroke="#C2C2C9" stroke-width="2" mask="url(#path-1-inside-1_6216_22834)"/>
<mask id="path-2-inside-2_6216_22834" fill="white">
<path d="M11.2967 1.24194C10.4718 1.24194 9.80078 1.91301 9.80078 2.73786C9.80078 3.56268 10.4718 4.23374 11.2967 4.23374C12.1215 4.23374 12.7925 3.56268 12.7925 2.73786C12.7925 1.91301 12.1215 1.24194 11.2967 1.24194ZM11.2967 3.52832C10.8608 3.52832 10.5062 3.17371 10.5062 2.73786C10.5062 2.30202 10.8608 1.94737 11.2967 1.94737C11.7325 1.94737 12.0872 2.30197 12.0872 2.73786C12.0872 3.17376 11.7325 3.52832 11.2967 3.52832Z"/>
</mask>
<path d="M11.2967 0.241943C9.91954 0.241943 8.80078 1.36074 8.80078 2.73786H10.8008C10.8008 2.46527 11.0241 2.24194 11.2967 2.24194V0.241943ZM8.80078 2.73786C8.80078 4.11496 9.91956 5.23374 11.2967 5.23374V3.23374C11.0241 3.23374 10.8008 3.01039 10.8008 2.73786H8.80078ZM11.2967 5.23374C12.6738 5.23374 13.7925 4.11496 13.7925 2.73786H11.7925C11.7925 3.01039 11.5692 3.23374 11.2967 3.23374V5.23374ZM13.7925 2.73786C13.7925 1.36074 12.6738 0.241943 11.2967 0.241943V2.24194C11.5692 2.24194 11.7925 2.46527 11.7925 2.73786H13.7925ZM11.2967 2.52832C11.413 2.52832 11.5062 2.62139 11.5062 2.73786H9.50616C9.50616 3.72603 10.3085 4.52832 11.2967 4.52832V2.52832ZM11.5062 2.73786C11.5062 2.85427 11.4131 2.94737 11.2967 2.94737V0.947365C10.3084 0.947365 9.50616 1.74977 9.50616 2.73786H11.5062ZM11.2967 2.94737C11.1803 2.94737 11.0872 2.85426 11.0872 2.73786H13.0872C13.0872 1.74969 12.2848 0.947365 11.2967 0.947365V2.94737ZM11.0872 2.73786C11.0872 2.62139 11.1803 2.52832 11.2967 2.52832V4.52832C12.2848 4.52832 13.0872 3.72612 13.0872 2.73786H11.0872Z" fill="#C2C2C9" mask="url(#path-2-inside-2_6216_22834)"/>
</svg>
