<svg width="1121" height="300" viewBox="0 0 1121 300" fill="none" xmlns="http://www.w3.org/2000/svg">
<g clip-path="url(#clip0_1100_47866)">
<path d="M27.9723 200.63C25.6833 192.756 23.0048 185.167 21.3046 177.369C14.143 144.477 7.19031 111.547 0.370616 78.5975C-1.69049 68.6434 5.11971 58.6799 15.7767 54.8616C33.3388 48.5738 51.0244 42.5709 68.4061 35.8082C93.4718 26.0441 117.873 14.7698 141.153 1.23487C143.964 -0.398815 146.149 -0.408313 149.008 1.20638C184.626 21.4185 222.353 36.834 260.934 50.293C265.275 51.8127 267.82 49.3431 270.746 47.32C291.737 32.8733 314.209 21.485 338.8 14.5133C343.483 13.1836 348.222 12.0248 350.701 11.3789C338.192 17.7522 323.356 24.3724 309.47 32.5884C281.954 48.8682 258.227 70.0302 235.555 92.4269C204.078 123.514 176.258 157.698 149.843 193.089C145.664 198.693 145.712 198.636 139.481 195.729C109.315 181.672 78.5216 178.623 47.0637 191.065C40.7949 193.545 34.944 197.087 27.9438 200.63H27.9723ZM154.773 141.817C154.84 129.479 144.895 119.288 132.68 119.193C120.456 119.098 110.075 129.147 109.932 141.219C109.78 153.871 119.506 163.777 132.291 163.996C144.449 164.205 154.707 154.08 154.773 141.827V141.817Z" fill="#FDC920"/>
<path d="M345.677 24.7047C333.823 36.8434 321.551 48.5071 310.363 61.1207C298.547 74.4277 288.517 89.0359 284.993 107.111C282.514 119.829 280.32 132.633 277.119 145.18C271.534 167.063 265.674 188.89 259.177 210.518C251.797 235.08 236.828 254.067 214.032 266.12C192.386 277.565 170.359 288.308 148.438 299.231C146.937 299.971 144.61 300.304 143.147 299.677C116.343 288.26 90.1377 275.694 65.8984 259.319C51.4801 249.574 41.7255 236.315 35.1148 220.5C32.6263 214.554 30.4512 208.475 27.5447 200.886C38.5626 200.886 48.4977 200.326 58.3473 201C81.2854 202.577 102.39 209.349 119.981 224.926C130.628 234.358 138.047 245.984 143.271 259.11C143.679 260.136 144.078 261.152 144.505 262.169C144.562 262.292 144.733 262.368 145.474 262.976C170.207 216.463 199.272 172.952 232.61 132.348C265.873 91.8378 301.567 53.8451 345.667 24.7142L345.677 24.7047Z" fill="#4040FF"/>
<path d="M116.863 162.667C120.898 165.021 125.354 166.198 130.23 166.198C134.937 166.198 139.225 165.021 143.092 162.667C147.127 160.313 150.322 157.203 152.676 153.335C155.03 149.468 156.207 145.181 156.207 140.473C156.207 135.765 155.03 131.562 152.676 127.863C150.322 123.995 147.127 120.885 143.092 118.531C139.225 116.177 134.937 115 130.23 115C125.354 115 120.898 116.177 116.863 118.531C112.995 120.885 109.885 123.995 107.531 127.863C105.177 131.562 104 135.765 104 140.473C104 145.181 105.177 149.468 107.531 153.335C109.885 157.203 112.995 160.313 116.863 162.667Z" fill="#4040FF"/>
</g>
<path d="M385 246.469C385 218.222 385 189.639 385 160.719C385 131.799 385 103.216 385 74.9685C395.425 74.9685 405.849 74.9685 416.274 74.9685C426.866 74.9685 437.291 74.9685 447.547 74.9685C459.149 74.9685 469.321 77.0702 478.064 81.2736C486.807 85.3089 493.617 91.0256 498.493 98.4237C503.369 105.654 505.807 114.229 505.807 124.149C505.807 131.211 504.462 137.6 501.772 143.317C499.082 149.033 495.046 153.825 489.666 157.692C496.728 161.896 502.108 167.36 505.807 174.086C509.506 180.643 511.356 187.957 511.356 196.028C511.356 206.116 508.749 214.943 503.537 222.509C498.493 230.076 491.347 235.96 482.1 240.164C473.02 244.367 462.343 246.469 450.069 246.469C439.309 246.469 428.464 246.469 417.535 246.469C406.606 246.469 395.761 246.469 385 246.469ZM461.671 128.436C461.671 124.065 460.326 120.534 457.636 117.844C454.945 114.985 451.414 113.556 447.043 113.556C444.016 113.556 440.906 113.556 437.711 113.556C434.685 113.556 431.658 113.556 428.632 113.556C428.632 118.264 428.632 123.14 428.632 128.184C428.632 133.06 428.632 137.936 428.632 142.812C431.658 142.812 434.685 142.812 437.711 142.812C440.906 142.812 444.016 142.812 447.043 142.812C451.414 142.812 454.945 141.551 457.636 139.029C460.326 136.339 461.671 132.808 461.671 128.436ZM467.219 191.992C467.219 187.285 465.622 183.586 462.427 180.895C459.401 178.037 455.198 176.608 449.817 176.608C446.286 176.608 442.755 176.608 439.224 176.608C435.694 176.608 432.163 176.608 428.632 176.608C428.632 181.82 428.632 187.032 428.632 192.245C428.632 197.457 428.632 202.669 428.632 207.881C432.163 207.881 435.694 207.881 439.224 207.881C442.755 207.881 446.286 207.881 449.817 207.881C455.198 207.881 459.401 206.452 462.427 203.594C465.622 200.736 467.219 196.868 467.219 191.992Z" fill="#0A0A26"/>
<path d="M533.979 246.469C533.979 224.947 533.979 203.258 533.979 181.4C533.979 159.374 533.979 137.6 533.979 116.078C540.873 116.078 547.851 116.078 554.913 116.078C561.974 116.078 568.868 116.078 575.593 116.078C575.593 137.6 575.593 159.374 575.593 181.4C575.593 203.258 575.593 224.947 575.593 246.469C568.868 246.469 561.974 246.469 554.913 246.469C547.851 246.469 540.873 246.469 533.979 246.469Z" fill="#0A0A26"/>
<path d="M604.637 246.469C604.637 224.947 604.637 203.258 604.637 181.4C604.637 159.374 604.637 137.6 604.637 116.078C611.53 116.078 618.508 116.078 625.57 116.078C632.632 116.078 639.525 116.078 646.251 116.078C646.251 117.255 646.251 118.348 646.251 119.357C646.251 120.366 646.251 121.459 646.251 122.636C650.622 119.441 655.498 117.003 660.879 115.322C666.259 113.472 671.808 112.547 677.524 112.547C683.746 112.547 689.462 113.64 694.675 115.826C699.887 117.844 704.342 120.87 708.042 124.905C713.422 121.038 719.475 118.012 726.2 115.826C733.094 113.64 740.156 112.547 747.386 112.547C757.642 112.547 766.469 114.649 773.867 118.852C781.434 123.056 787.234 129.025 791.27 136.759C795.473 144.493 797.575 153.825 797.575 164.754C797.575 178.205 797.575 191.824 797.575 205.612C797.575 219.399 797.575 233.018 797.575 246.469C790.849 246.469 783.956 246.469 776.894 246.469C769.832 246.469 762.854 246.469 755.961 246.469C755.961 233.859 755.961 221.08 755.961 208.134C755.961 195.187 755.961 182.409 755.961 169.798C755.961 164.082 754.616 159.458 751.925 155.927C749.403 152.228 745.284 150.378 739.567 150.378C734.019 150.378 729.647 152.144 726.453 155.675C723.426 159.037 721.913 163.745 721.913 169.798C721.913 182.409 721.913 195.187 721.913 208.134C721.913 221.08 721.913 233.859 721.913 246.469C715.187 246.469 708.294 246.469 701.232 246.469C694.17 246.469 687.192 246.469 680.299 246.469C680.299 233.859 680.299 221.08 680.299 208.134C680.299 195.187 680.299 182.409 680.299 169.798C680.299 164.082 678.954 159.458 676.263 155.927C673.741 152.228 669.622 150.378 663.905 150.378C658.357 150.378 653.985 152.144 650.791 155.675C647.764 159.037 646.251 163.745 646.251 169.798C646.251 182.409 646.251 195.187 646.251 208.134C646.251 221.08 646.251 233.859 646.251 246.469C639.525 246.469 632.632 246.469 625.57 246.469C618.508 246.469 611.53 246.469 604.637 246.469Z" fill="#0A0A26"/>
<path d="M910.359 246.469C910.359 245.124 910.359 243.863 910.359 242.686C910.359 241.341 910.359 240.08 910.359 238.903C906.155 242.434 901.363 245.124 895.983 246.974C890.771 248.991 885.138 250 879.085 250C870.51 250 862.439 248.403 854.873 245.208C847.307 241.845 840.581 237.137 834.697 231.084C828.98 224.863 824.44 217.549 821.077 209.143C817.883 200.736 816.285 191.404 816.285 181.148C816.285 170.723 817.883 161.307 821.077 152.9C824.44 144.493 828.98 137.348 834.697 131.463C840.581 125.41 847.307 120.786 854.873 117.591C862.439 114.229 870.426 112.547 878.833 112.547C884.886 112.547 890.602 113.556 895.983 115.574C901.363 117.423 906.155 120.029 910.359 123.392C910.359 122.047 910.359 120.786 910.359 119.609C910.359 118.432 910.359 117.255 910.359 116.078C917.252 116.078 924.23 116.078 931.292 116.078C938.354 116.078 945.247 116.078 951.973 116.078C951.973 137.6 951.973 159.374 951.973 181.4C951.973 203.258 951.973 224.947 951.973 246.469C945.247 246.469 938.354 246.469 931.292 246.469C924.23 246.469 917.252 246.469 910.359 246.469ZM884.634 213.178C892.704 213.178 899.177 210.235 904.053 204.351C908.929 198.466 911.367 190.731 911.367 181.148C911.367 171.564 908.929 163.913 904.053 158.197C899.177 152.312 892.704 149.369 884.634 149.369C876.395 149.369 869.837 152.228 864.961 157.945C860.254 163.661 857.9 171.396 857.9 181.148C857.9 190.9 860.254 198.718 864.961 204.603C869.837 210.319 876.395 213.178 884.634 213.178Z" fill="#0A0A26"/>
<path d="M1120.73 237.39C1103.24 244.451 1086.93 248.487 1071.8 249.496C1056.84 250.673 1043.3 249.327 1031.2 245.46C1019.09 241.425 1008.75 235.372 1000.17 227.301C991.599 219.231 985.041 209.647 980.502 198.55C975.962 187.453 973.692 175.347 973.692 162.232C973.692 149.285 975.794 137.348 979.997 126.419C984.201 115.322 990.338 105.738 998.408 97.6671C1006.65 89.5965 1016.57 83.2913 1028.17 78.7516C1039.77 74.2118 1052.97 72.0261 1067.77 72.1942C1082.56 72.1942 1098.79 74.8844 1116.44 80.2648C1116.44 87.3266 1116.44 94.4725 1116.44 101.702C1116.44 108.764 1116.44 115.826 1116.44 122.888C1102.49 117.339 1089.54 114.145 1077.6 113.304C1065.83 112.463 1055.49 113.724 1046.58 117.087C1037.84 120.45 1030.94 125.83 1025.9 133.228C1021.02 140.458 1018.58 149.538 1018.58 160.467C1018.58 170.05 1020.35 178.541 1023.88 185.939C1027.58 193.338 1032.71 199.138 1039.27 203.342C1045.82 207.545 1053.31 209.647 1061.71 209.647C1064.57 209.647 1067.43 209.563 1070.29 209.395C1073.15 209.058 1075.92 208.554 1078.61 207.881C1078.61 203.51 1078.61 199.054 1078.61 194.514C1078.61 189.975 1078.61 185.519 1078.61 181.148C1073.9 181.148 1069.19 181.148 1064.49 181.148C1059.78 181.148 1055.07 181.148 1050.36 181.148C1050.36 174.926 1050.36 168.705 1050.36 162.484C1050.36 156.095 1050.36 149.79 1050.36 143.569C1061.96 143.569 1073.65 143.569 1085.42 143.569C1097.36 143.569 1109.13 143.569 1120.73 143.569C1120.73 159.037 1120.73 174.674 1120.73 190.479C1120.73 206.284 1120.73 221.921 1120.73 237.39Z" fill="#0A0A26"/>
<path d="M541.546 97.6671C545.581 100.021 550.036 101.198 554.912 101.198C559.62 101.198 563.908 100.021 567.775 97.6671C571.81 95.3132 575.005 92.2026 577.359 88.3354C579.713 84.4683 580.89 80.1808 580.89 75.4729C580.89 70.765 579.713 66.5616 577.359 62.8625C575.005 58.9954 571.81 55.8848 567.775 53.5309C563.908 51.177 559.62 50 554.912 50C550.036 50 545.581 51.177 541.546 53.5309C537.678 55.8848 534.568 58.9954 532.214 62.8625C529.86 66.5616 528.683 70.765 528.683 75.4729C528.683 80.1808 529.86 84.4683 532.214 88.3354C534.568 92.2026 537.678 95.3132 541.546 97.6671Z" fill="#FDC920"/>
<defs>
<clipPath id="clip0_1100_47866">
<rect width="350.711" height="300" fill="white"/>
</clipPath>
</defs>
</svg>
