<svg width="32" height="32" viewBox="0 0 32 32" fill="none" xmlns="http://www.w3.org/2000/svg">
<circle cx="16" cy="16" r="15.5" fill="white" stroke="#F3F3F4"/>
<path d="M19.5898 25.2448C19.5381 25.3945 19.4404 25.5239 19.3106 25.6146C19.1809 25.7054 19.0258 25.7527 18.8675 25.7499C18.7092 25.7471 18.5559 25.6943 18.4295 25.599C18.303 25.5037 18.21 25.3709 18.1636 25.2195L15.9553 18.04C15.9194 17.9229 15.8553 17.8163 15.7686 17.7297C15.682 17.643 15.5755 17.5789 15.4584 17.543L8.28038 15.3389C8.12903 15.2926 7.99623 15.1995 7.90098 15.073C7.80573 14.9465 7.75293 14.7932 7.75012 14.6349C7.74731 14.4766 7.79464 14.3214 7.88534 14.1917C7.97604 14.0619 8.10546 13.9642 8.25507 13.9124L24.7583 7.78996C24.8907 7.74492 25.033 7.7378 25.1693 7.76938C25.3055 7.80097 25.4302 7.87001 25.5292 7.96871C25.6283 8.06742 25.6978 8.19185 25.7299 8.32798C25.7621 8.46411 25.7555 8.6065 25.711 8.73909L19.5898 25.2448Z" stroke="#4040FF" stroke-width="1.5" stroke-linecap="round" stroke-linejoin="round"/>
</svg>
