<svg width="32" height="32" viewBox="0 0 32 32" fill="none" xmlns="http://www.w3.org/2000/svg">
<circle cx="16" cy="16" r="15.5" fill="white" stroke="#F3F3F4"/>
<path d="M19.0507 17.3762C19.1546 17.3071 19.2741 17.265 19.3983 17.2537C19.5226 17.2424 19.6477 17.2623 19.7623 17.3115L24.1835 19.2925C24.3325 19.3561 24.4569 19.4664 24.538 19.6066C24.6191 19.7469 24.6527 19.9097 24.6335 20.0706C24.4879 21.1591 23.9519 22.1576 23.1252 22.8805C22.2985 23.6034 21.2373 24.0014 20.1392 24.0006C16.7577 24.0006 13.5146 22.6573 11.1236 20.2662C8.73246 17.8751 7.38916 14.6321 7.38916 11.2506C7.38832 10.1524 7.78636 9.09129 8.50925 8.26459C9.23214 7.43789 10.2307 6.90187 11.3192 6.75621C11.4801 6.7371 11.6428 6.77061 11.7831 6.85173C11.9234 6.93285 12.0336 7.05722 12.0973 7.20621L14.0782 11.6312C14.1269 11.7449 14.1467 11.8688 14.1359 11.992C14.1251 12.1151 14.084 12.2337 14.0163 12.3372L12.0129 14.7193C11.9418 14.8266 11.8998 14.9504 11.8909 15.0788C11.8821 15.2071 11.9067 15.3355 11.9623 15.4515C12.7376 17.0387 14.3782 18.6597 15.9701 19.4275C16.0867 19.4829 16.2157 19.5069 16.3445 19.4972C16.4732 19.4875 16.5972 19.4444 16.7042 19.3722L19.0507 17.3762Z" stroke="#4040FF" stroke-width="1.5" stroke-linecap="round" stroke-linejoin="round"/>
</svg>
