<svg width="24" height="24" viewBox="0 0 24 24" fill="none" xmlns="http://www.w3.org/2000/svg">
<path d="M9.40028 14.4937C9.4025 14.4432 9.40413 14.3925 9.40413 14.3414C9.40413 12.4446 7.86647 10.9069 5.96967 10.9069C4.0729 10.9069 2.53524 12.4446 2.53524 14.3414C2.53472 14.8854 2.66403 15.4217 2.91244 15.9056C2.65236 16.0931 2.48291 16.3984 2.48291 16.7435C2.48291 17.3136 2.94511 17.7759 3.5153 17.7759C3.85212 17.7759 4.1512 17.6145 4.33964 17.3649C4.82463 17.627 5.37976 17.7759 5.96967 17.7759C6.62844 17.7759 7.24366 17.5901 7.76644 17.2685C8.04943 17.4865 8.39672 17.6045 8.75394 17.604C9.64989 17.604 10.3762 16.8777 10.3762 15.9818C10.3762 15.3156 9.97454 14.7435 9.40028 14.4937Z" stroke="#C2C2C9" stroke-miterlimit="10" stroke-linecap="round" stroke-linejoin="round"/>
<path d="M20.6897 4.83825V18.708C18.5918 18.4142 16.6916 18.305 14.9834 18.3261V4.83825H20.6897Z" stroke="#C2C2C9" stroke-miterlimit="10" stroke-linecap="round" stroke-linejoin="round"/>
<path d="M20.6895 18.7081C8.52923 17.0038 3.00586 21.5171 3.00586 21.5171H13.0013" stroke="#C2C2C9" stroke-miterlimit="10" stroke-linecap="round" stroke-linejoin="round"/>
<path d="M16.2559 21.5171H20.6895" stroke="#C2C2C9" stroke-miterlimit="10" stroke-linecap="round" stroke-linejoin="round"/>
<path d="M4.51713 4.11955C4.6428 4.11955 4.76307 4.14268 4.87409 4.18464C5.08646 3.67141 5.59189 3.3102 6.18187 3.3102C6.96336 3.3102 7.59686 3.94373 7.59686 4.72518C7.59686 5.50664 6.96336 6.14014 6.18187 6.14014H4.51713C3.95916 6.14014 3.50684 5.68782 3.50684 5.12984C3.50684 4.57187 3.95916 4.11955 4.51713 4.11955Z" stroke="#C2C2C9" stroke-miterlimit="10" stroke-linecap="round" stroke-linejoin="round"/>
<path d="M6.18213 6.14038H8.93987" stroke="#C2C2C9" stroke-miterlimit="10" stroke-linecap="round" stroke-linejoin="round"/>
<path d="M13.3017 9.13429V18.3905C11.1735 18.53 9.39021 18.8712 7.93848 19.2798V17.3836C8.1779 17.5239 8.45656 17.6042 8.75408 17.6042C9.64999 17.6042 10.3764 16.8777 10.3764 15.9818C10.3764 15.3157 9.9749 14.7436 9.40057 14.4938C9.40279 14.4431 9.40427 14.3924 9.40427 14.3414C9.40427 13.1772 8.82476 12.148 7.93848 11.5271V9.13429H9.33211V7.97934H11.9081V9.13429H13.3017Z" stroke="#C2C2C9" stroke-miterlimit="10" stroke-linecap="round" stroke-linejoin="round"/>
<path d="M5.021 15.2247L5.78368 15.9874C6.04132 16.2451 6.18607 16.5945 6.18609 16.9589V20.3589" stroke="#C2C2C9" stroke-miterlimit="10" stroke-linecap="round" stroke-linejoin="round"/>
<path d="M6.18604 16.9587V15.1454C6.18603 14.9958 6.2155 14.8476 6.27276 14.7094C6.33002 14.5712 6.41395 14.4456 6.51975 14.3398L6.85025 14.0093" stroke="#C2C2C9" stroke-miterlimit="10" stroke-linecap="round" stroke-linejoin="round"/>
<path d="M9.41553 10.7703H11.7741" stroke="#C2C2C9" stroke-miterlimit="10" stroke-linecap="round" stroke-linejoin="round"/>
<path d="M9.41553 12.8118H11.7741" stroke="#C2C2C9" stroke-miterlimit="10" stroke-linecap="round" stroke-linejoin="round"/>
<path d="M9.91895 14.853H11.7741" stroke="#C2C2C9" stroke-miterlimit="10" stroke-linecap="round" stroke-linejoin="round"/>
<path d="M10.0952 16.8943H11.7737" stroke="#C2C2C9" stroke-miterlimit="10" stroke-linecap="round" stroke-linejoin="round"/>
<path d="M19.28 8.15006H16.4629V6.75143H19.28V8.15006ZM19.28 11.2551H16.4629V9.8564H19.28V11.2551ZM19.28 14.3601H16.4629V12.9614H19.28V14.3601Z" stroke="#C2C2C9" stroke-miterlimit="10" stroke-linecap="round" stroke-linejoin="round"/>
<path d="M20.6897 16.1783V18.708C18.5918 18.4142 16.6916 18.305 14.9834 18.3261V16.1783H20.6897Z" stroke="#C2C2C9" stroke-miterlimit="10" stroke-linecap="round" stroke-linejoin="round"/>
</svg>
