<svg width="25" height="24" viewBox="0 0 25 24" fill="none" xmlns="http://www.w3.org/2000/svg">
<path d="M9.5 11.25C13.6421 11.25 17 9.73896 17 7.875C17 6.01104 13.6421 4.5 9.5 4.5C5.35786 4.5 2 6.01104 2 7.875C2 9.73896 5.35786 11.25 9.5 11.25Z" stroke="#4040FF" stroke-width="1.5" stroke-linecap="round" stroke-linejoin="round"/>
<path d="M2 7.875V11.625C2 13.4906 5.35625 15 9.5 15C13.6438 15 17 13.4906 17 11.625V7.875" stroke="#4040FF" stroke-width="1.5" stroke-linecap="round" stroke-linejoin="round"/>
<path d="M6.5 10.9688V14.7188" stroke="#4040FF" stroke-width="1.5" stroke-linecap="round" stroke-linejoin="round"/>
<path d="M17 9.06641C20.4219 9.38516 23 10.7445 23 12.3758C23 14.2414 19.6438 15.7508 15.5 15.7508C13.6625 15.7508 11.975 15.4508 10.6719 14.9633" stroke="#4040FF" stroke-width="1.5" stroke-linecap="round" stroke-linejoin="round"/>
<path d="M8 14.9344V16.125C8 17.9906 11.3562 19.5 15.5 19.5C19.6438 19.5 23 17.9906 23 16.125V12.375" stroke="#4040FF" stroke-width="1.5" stroke-linecap="round" stroke-linejoin="round"/>
<path d="M18.5 15.4688V19.2188" stroke="#4040FF" stroke-width="1.5" stroke-linecap="round" stroke-linejoin="round"/>
<path d="M12.5 10.9688V19.2188" stroke="#4040FF" stroke-width="1.5" stroke-linecap="round" stroke-linejoin="round"/>
</svg>
