<svg width="56" height="56" viewBox="0 0 56 56" fill="none" xmlns="http://www.w3.org/2000/svg">
<circle opacity="0.1" cx="28" cy="28" r="28" fill="#0A0A26"/>
<path d="M26.6478 52.1651C26.6478 52.4047 26.5527 52.6344 26.3833 52.8038C26.2139 52.9732 25.9842 53.0684 25.7446 53.0684H21.6513C21.4117 53.0684 21.182 52.9732 21.0126 52.8038C20.8432 52.6344 20.7481 52.4047 20.7481 52.1651C20.7481 51.9256 20.8432 51.6958 21.0126 51.5265C21.182 51.3571 21.4117 51.2619 21.6513 51.2619H25.7446C25.9842 51.2619 26.2139 51.3571 26.3833 51.5265C26.5527 51.6958 26.6478 51.9256 26.6478 52.1651ZM50.7038 30.8979C50.813 31.3135 50.7542 31.7555 50.54 32.1281C50.3258 32.5007 49.9735 32.7739 49.5594 32.8887L48.6014 33.1435C48.1857 33.2547 47.7429 33.1964 47.3701 32.9814C46.9974 32.7664 46.7251 32.4123 46.6132 31.9968L46.4805 31.5016C44.5342 30.8848 42.4612 30.7829 40.4638 31.2059L41.7586 36.0413C41.7893 36.1559 41.7972 36.2754 41.7817 36.3931C41.7662 36.5107 41.7277 36.6241 41.6684 36.7269C41.6091 36.8296 41.5301 36.9197 41.4359 36.9919C41.3418 37.0641 41.2344 37.1171 41.1198 37.1478L39.4306 37.6V51.429C39.4292 52.6409 38.9472 53.8028 38.0902 54.6597C37.2332 55.5167 36.0713 55.9987 34.8594 56H12.5364C11.3245 55.9987 10.1626 55.5166 9.30565 54.6597C8.4487 53.8028 7.96665 52.6409 7.96528 51.429V26.6709H4.11912C3.22459 26.6699 2.36699 26.3141 1.73446 25.6816C1.10193 25.049 0.746133 24.1914 0.745117 23.2969V15.1001C0.746133 14.2056 1.10193 13.348 1.73446 12.7155C2.36699 12.0829 3.22459 11.7271 4.11912 11.7261H7.96528V7.93789C7.96665 6.72598 8.4487 5.56411 9.30565 4.70718C10.1626 3.85025 11.3245 3.36823 12.5364 3.36689H31.0218C31.0246 2.47361 31.3812 1.61784 32.0135 0.986839C32.6458 0.355841 33.5023 0.00101072 34.3956 0H44.6498C45.5443 0.000986123 46.402 0.356773 47.0345 0.989304C47.6671 1.62183 48.0229 2.47945 48.0239 3.374V11.5708C48.0233 12.4657 47.6678 13.3239 47.0353 13.9571C46.4027 14.5902 45.5449 14.9466 44.6499 14.948H39.4306V21.8189C40.8412 21.166 42.1072 20.238 43.1544 19.0893L43.0218 18.5949C42.9114 18.1785 42.9706 17.7353 43.1865 17.3624C43.4024 16.9896 43.7573 16.7176 44.1735 16.6061L45.1218 16.3508C45.5385 16.2399 45.9822 16.2989 46.3554 16.5148C46.7286 16.7308 47.001 17.0859 47.1127 17.5024L48.1447 21.3529C48.8038 21.3776 49.4377 21.6127 49.9534 22.0238C50.4691 22.4348 50.8397 23.0003 51.0107 23.6373C51.1811 24.2742 51.1429 24.9489 50.9018 25.5625C50.6608 26.1762 50.2294 26.6964 49.6711 27.047L50.7038 30.8979ZM48.6756 23.331L49.1413 25.0684C49.2249 24.9241 49.279 24.7647 49.3005 24.5993C49.322 24.434 49.3105 24.266 49.2666 24.1052C49.1798 23.7791 48.9673 23.5007 48.6756 23.331ZM38.2443 29.9008L36.8228 24.592L32.6674 25.7056C32.5647 25.7343 32.4774 25.8023 32.4245 25.8948C32.3715 25.9874 32.3571 26.097 32.3844 26.2001L33.5974 30.7283C33.6252 30.8316 33.6929 30.9197 33.7855 30.9733C33.8781 31.027 33.9882 31.0418 34.0916 31.0145L38.2443 29.9008ZM32.828 11.5703C32.8281 11.9864 32.9931 12.3854 33.287 12.6799C33.5809 12.9744 33.9796 13.1402 34.3956 13.1411H35.4456C35.6851 13.1411 35.9149 13.2363 36.0843 13.4057C36.2536 13.5751 36.3488 13.8048 36.3488 14.0444V14.6376L37.501 13.4227C37.5854 13.3338 37.687 13.2629 37.7997 13.2145C37.9124 13.1661 38.0338 13.1411 38.1564 13.1411H44.65C45.066 13.1402 45.4647 12.9743 45.7585 12.6798C46.0524 12.3853 46.2174 11.9863 46.2175 11.5703V3.37355C46.2169 2.95801 46.0515 2.55968 45.7576 2.2659C45.4637 1.97213 45.0653 1.8069 44.6498 1.80645H34.3956C33.98 1.80693 33.5816 1.97224 33.2877 2.2661C32.9938 2.55997 32.8285 2.95841 32.828 3.374V11.5703ZM20.4151 5.17334C20.6905 5.48145 20.9673 5.67768 21.2897 5.67768H26.3336C26.6057 5.67768 26.7818 5.54897 27.0522 5.17334H20.4151ZM4.11912 24.8645H10.6129C10.7356 24.8645 10.857 24.8895 10.9697 24.9381C11.0825 24.9866 11.1841 25.0576 11.2685 25.1467L12.4201 26.3626V25.7679C12.4201 25.5284 12.5153 25.2986 12.6846 25.1292C12.854 24.9598 13.0838 24.8647 13.3233 24.8647H14.3733C14.7889 24.8642 15.1874 24.6989 15.4812 24.405C15.7751 24.1112 15.9404 23.7127 15.9409 23.2971V15.1004C15.9404 14.6848 15.7751 14.2863 15.4812 13.9925C15.1874 13.6986 14.7889 13.5333 14.3733 13.5328H4.11912C3.70352 13.5333 3.30509 13.6986 3.01122 13.9925C2.71735 14.2863 2.55205 14.6848 2.55157 15.1004V23.2971C2.55211 23.7127 2.71744 24.1111 3.0113 24.4049C3.30516 24.6987 3.70356 24.864 4.11912 24.8645ZM9.77173 26.6709V48.3271H13.627V40.9094C13.627 37.916 16.2188 35.4806 19.4045 35.4806H20.1836C19.8643 35.1345 19.5796 34.758 19.3334 34.3566C18.4394 32.9056 17.9056 30.9469 17.9056 29.1156C17.9127 27.4301 18.5873 25.816 19.7816 24.6266C20.976 23.4372 22.5929 22.7695 24.2785 22.7695C25.9641 22.7695 27.581 23.4372 28.7753 24.6266C29.9697 25.816 30.6443 27.4301 30.6514 29.1156C30.6514 31.4577 29.8702 33.8861 28.3765 35.4806H29.1528C32.3385 35.4806 34.9303 37.916 34.9303 40.9094V48.3271H37.6238V36.9544L35.5336 32.4979L34.5587 32.7594C34.3714 32.8096 34.1784 32.8352 33.9845 32.8353C33.4981 32.8339 33.0257 32.6725 32.6403 32.3759C32.2548 32.0793 31.9777 31.664 31.8518 31.1943L30.6391 26.6668C30.4893 26.1016 30.5689 25.5002 30.8606 24.9934C31.1523 24.4867 31.6324 24.1157 32.1963 23.9613L37.2275 22.613C37.3613 22.5771 37.4929 22.5388 37.6238 22.5001V15.9179L36.1013 17.5239C35.977 17.655 35.8163 17.7458 35.6399 17.7846C35.4634 17.8234 35.2794 17.8084 35.1116 17.7415C34.9438 17.6747 34.7999 17.559 34.6985 17.4095C34.5971 17.2601 34.5428 17.0836 34.5427 16.903V14.9476H34.3959C33.501 14.9462 32.6431 14.5898 32.0106 13.9566C31.378 13.3235 31.0225 12.4653 31.0219 11.5703V5.17334H29.5692C29.4659 5.16948 29.3633 5.19241 29.2715 5.23989C29.1797 5.28737 29.1017 5.35779 29.0451 5.44431C28.9715 5.5484 28.8983 5.66097 28.8219 5.78008C28.3836 6.45885 27.7212 7.48492 26.3336 7.48492H21.2897C19.7812 7.48492 18.9199 6.25179 18.4053 5.5151L18.3543 5.44194C18.2968 5.35647 18.2185 5.28704 18.1267 5.24019C18.035 5.19334 17.9328 5.1706 17.8299 5.17413H12.5364C11.8037 5.17508 11.1012 5.46656 10.5831 5.98465C10.0649 6.50274 9.77334 7.20515 9.77229 7.93789V11.7265H14.3739C15.2684 11.7275 16.126 12.0833 16.7585 12.7158C17.3911 13.3483 17.7469 14.2059 17.7479 15.1005V23.2972C17.7469 24.1918 17.3911 25.0494 16.7585 25.6819C16.126 26.3144 15.2684 26.6702 14.3739 26.6712H14.2271V28.6289C14.2271 28.8096 14.1728 28.9861 14.0714 29.1356C13.9699 29.2851 13.826 29.4008 13.6581 29.4677C13.4903 29.5345 13.3062 29.5495 13.1298 29.5107C12.9533 29.4719 12.7925 29.381 12.6683 29.2498L10.2239 26.6709H9.77173ZM30.9269 43.7031V48.3271H33.1242V40.9094C33.1242 38.912 31.3428 37.2871 29.1532 37.2871H19.4045C17.2149 37.2871 15.4335 38.912 15.4335 40.9094V48.3271H17.6275V43.7031C17.6275 43.4636 17.7227 43.2339 17.8921 43.0645C18.0615 42.8951 18.2912 42.7999 18.5308 42.7999C18.7703 42.7999 19.0001 42.8951 19.1694 43.0645C19.3388 43.2339 19.434 43.4636 19.434 43.7031V48.3271H29.1204V43.7031C29.1204 43.4636 29.2156 43.2339 29.385 43.0645C29.5543 42.8951 29.7841 42.7999 30.0236 42.7999C30.2632 42.7999 30.4929 42.8951 30.6623 43.0645C30.8317 43.2339 30.9269 43.4636 30.9269 43.7031ZM24.2789 35.4804C26.9295 35.4804 28.2541 33.002 28.6835 30.7498C26.8523 30.5229 25.1443 30.0711 23.0128 28.5187L19.822 30.4507C20.188 32.7765 21.5102 35.4804 24.2789 35.4804ZM22.6013 26.6565C22.7583 26.5614 22.9406 26.5164 23.1238 26.5276C23.307 26.5387 23.4825 26.6054 23.6269 26.7188C25.6366 28.2965 27.1025 28.7303 28.8411 28.95C28.7999 27.8192 28.3402 26.7441 27.5513 25.933C26.7624 25.122 25.7003 24.6327 24.5712 24.5602C23.442 24.4877 22.3262 24.8371 21.44 25.5406C20.5538 26.2441 19.9605 27.2517 19.775 28.3678L22.6013 26.6565ZM37.6242 51.4295V50.1335H9.77229V51.429C9.77313 52.1619 10.0646 52.8645 10.5828 53.3827C11.101 53.901 11.8035 54.1926 12.5364 54.1935H34.8594C35.5924 54.1928 36.2951 53.9013 36.8134 53.383C37.3318 52.8647 37.6233 52.162 37.6242 51.429V51.4295ZM39.7799 35.6364L38.7116 31.6463L37.3065 32.0231L39.0881 35.8217L39.7799 35.6364ZM45.9408 29.4881L43.695 21.1068C42.2244 22.4695 40.4713 23.4911 38.5607 24.0987L39.9965 29.4598C41.9567 29.0396 43.9847 29.0491 45.9408 29.4876V29.4881ZM48.9123 31.1922L45.4147 18.1423L44.8142 18.3041L48.3106 31.3519L48.9123 31.1922ZM54.7395 22.6342C54.6774 22.4028 54.526 22.2056 54.3185 22.0859C54.111 21.9662 53.8644 21.9338 53.6331 21.9959L52.2376 22.3704C52.1225 22.4007 52.0145 22.4533 51.9198 22.5255C51.8251 22.5976 51.7456 22.6877 51.6859 22.7906C51.6261 22.8936 51.5873 23.0073 51.5717 23.1253C51.556 23.2433 51.5638 23.3632 51.5947 23.4781C51.6255 23.5931 51.6788 23.7008 51.7514 23.7951C51.824 23.8894 51.9146 23.9684 52.0178 24.0276C52.1211 24.0868 52.235 24.125 52.3531 24.14C52.4711 24.155 52.591 24.1466 52.7058 24.1151L54.1011 23.7406C54.2157 23.7099 54.3232 23.6569 54.4173 23.5846C54.5114 23.5124 54.5903 23.4223 54.6496 23.3195C54.7089 23.2167 54.7473 23.1033 54.7627 22.9857C54.7782 22.868 54.7703 22.7485 54.7395 22.6339V22.6342ZM53.716 26.6685L52.4646 25.9483C52.257 25.8288 52.0104 25.7967 51.7791 25.8591C51.5478 25.9214 51.3507 26.0731 51.2313 26.2807C51.1118 26.4883 51.0797 26.7349 51.142 26.9662C51.2044 27.1975 51.356 27.3946 51.5636 27.5141L52.8151 28.2342C53.0225 28.3508 53.2676 28.3808 53.4971 28.3177C53.7265 28.2547 53.9218 28.1036 54.0405 27.8973C54.1592 27.6911 54.1917 27.4463 54.131 27.2162C54.0702 26.9861 53.9211 26.7893 53.716 26.6685ZM49.8788 21.2371C50.0862 21.3569 50.3327 21.3895 50.5641 21.3276C50.7955 21.2657 50.9928 21.1145 51.1127 20.9071L51.8361 19.6558C51.8954 19.5531 51.934 19.4397 51.9495 19.3221C51.9651 19.2045 51.9573 19.085 51.9266 18.9704C51.896 18.8558 51.8431 18.7483 51.7709 18.6542C51.6987 18.56 51.6087 18.481 51.506 18.4217C51.2986 18.3018 51.052 18.2692 50.8206 18.3311C50.5892 18.393 50.3918 18.5443 50.2719 18.7518L49.5487 20.0031C49.4893 20.1058 49.4508 20.2192 49.4352 20.3368C49.4197 20.4544 49.4275 20.5739 49.4581 20.6885C49.4888 20.8031 49.5417 20.9105 49.6139 21.0046C49.6861 21.0988 49.7761 21.1778 49.8788 21.2371ZM11.2351 23.685L9.24594 22.7064L7.25376 23.6851C7.10618 23.7576 6.94161 23.7884 6.77778 23.7743C6.61396 23.7602 6.4571 23.7016 6.32412 23.6049C6.19114 23.5082 6.08708 23.377 6.02318 23.2255C5.95927 23.074 5.93793 22.9079 5.96147 22.7451L6.27884 20.5511L4.73207 18.9592C4.61747 18.8412 4.53725 18.6942 4.50006 18.534C4.46287 18.3738 4.47012 18.2065 4.52103 18.0501C4.57195 17.8938 4.66459 17.7542 4.78897 17.6467C4.91334 17.5391 5.06473 17.4675 5.22681 17.4396L7.41262 17.0637L8.44692 15.1017C8.52361 14.9562 8.63855 14.8345 8.77936 14.7495C8.92016 14.6646 9.08149 14.6197 9.24594 14.6197C9.41039 14.6197 9.57172 14.6646 9.71252 14.7495C9.85333 14.8345 9.96827 14.9562 10.045 15.1017L11.0791 17.0636L13.2652 17.4395C13.4273 17.4674 13.5786 17.5389 13.703 17.6465C13.8274 17.7541 13.92 17.8936 13.971 18.05C14.0219 18.2064 14.0291 18.3737 13.9919 18.5339C13.9547 18.6941 13.8745 18.8411 13.7599 18.959L12.2131 20.551L12.5278 22.7457C12.5511 22.9084 12.5296 23.0744 12.4656 23.2258C12.4016 23.3772 12.2974 23.5082 12.1644 23.6048C12.0314 23.7013 11.8746 23.7598 11.7108 23.7738C11.5471 23.7879 11.3826 23.7569 11.2351 23.6844V23.685ZM10.6078 19.6113L11.2701 18.9298L10.3346 18.7689C10.1981 18.7455 10.0689 18.691 9.95691 18.6097C9.84489 18.5283 9.75307 18.4224 9.68852 18.2999L9.24583 17.46L8.80302 18.2999C8.73847 18.4224 8.64665 18.5283 8.53463 18.6097C8.42262 18.691 8.29341 18.7455 8.15699 18.7689L7.22158 18.9297L7.88387 19.6113C7.98023 19.7105 8.05251 19.8305 8.09517 19.962C8.13782 20.0936 8.1497 20.2331 8.12989 20.37L7.99441 21.3087L8.84796 20.8895C8.97194 20.8285 9.10824 20.7968 9.24639 20.7968C9.38454 20.7968 9.52085 20.8285 9.64483 20.8895L10.4967 21.3085L10.362 20.3686C10.3424 20.232 10.3543 20.0927 10.3969 19.9614C10.4395 19.8301 10.5117 19.7104 10.6078 19.6113ZM35.7175 10.5727H43.3281C43.5677 10.5727 43.7974 10.4775 43.9668 10.3082C44.1362 10.1388 44.2314 9.90903 44.2314 9.66948C44.2314 9.42993 44.1362 9.20019 43.9668 9.03081C43.7974 8.86142 43.5677 8.76626 43.3281 8.76626H35.7175C35.4779 8.76626 35.2482 8.86142 35.0788 9.03081C34.9094 9.20019 34.8142 9.42993 34.8142 9.66948C34.8142 9.90903 34.9094 10.1388 35.0788 10.3082C35.2482 10.4775 35.4779 10.5727 35.7175 10.5727ZM35.7175 6.17852H43.3281C43.5677 6.17852 43.7974 6.08335 43.9668 5.91397C44.1362 5.74458 44.2314 5.51484 44.2314 5.27529C44.2314 5.03574 44.1362 4.806 43.9668 4.63661C43.7974 4.46723 43.5677 4.37206 43.3281 4.37206H35.7175C35.4779 4.37206 35.2482 4.46723 35.0788 4.63661C34.9094 4.806 34.8142 5.03574 34.8142 5.27529C34.8142 5.51484 34.9094 5.74458 35.0788 5.91397C35.2482 6.08335 35.4779 6.17852 35.7175 6.17852Z" fill="#0A0A26"/>
</svg>
