<svg width="25" height="24" viewBox="0 0 25 24" fill="none" xmlns="http://www.w3.org/2000/svg">
<g clip-path="url(#clip0_1129_50485)">
<path d="M23.3789 18.8842H1.62108C0.727523 18.8842 0 18.1858 0 17.3233V4.13265C0 3.27484 0.727523 2.57642 1.62108 2.57642H23.374C24.2724 2.57642 25 3.27484 25 4.13265V17.3233C25 18.1858 24.2725 18.8842 23.3789 18.8842Z" fill="#505278"/>
<path d="M23.3789 2.57642H12.5V18.8842H23.3789C24.2773 18.8842 25 18.1858 25 17.328V4.13265C25 3.27488 24.2725 2.57642 23.3789 2.57642Z" fill="#424566"/>
<path d="M6.8652 16.1655H2.01171C1.9287 16.1655 1.86523 16.1046 1.86523 16.0249C1.86523 15.9452 1.9287 15.8843 2.01171 15.8843H6.86036C6.94338 15.8843 7.00684 15.9452 7.00684 16.0249C7.00684 16.1046 6.94334 16.1655 6.8652 16.1655Z" fill="#E6EAFF"/>
<path d="M0 4.93896H25V8.20615H0V4.93896Z" fill="#424566"/>
<path d="M12.5 4.93896H25V8.20615H12.5V4.93896Z" fill="#2E324C"/>
<path d="M13.8623 13.7139H2.24121C2.03615 13.7139 1.86523 13.5545 1.86523 13.3529V11.2623C1.86523 11.0654 2.03127 10.9014 2.24121 10.9014H13.8623C14.0674 10.9014 14.2383 11.0608 14.2383 11.2623V13.3529C14.2383 13.5545 14.0723 13.7139 13.8623 13.7139Z" fill="white"/>
<path d="M15.5371 8.43579C13.291 8.43579 11.4746 10.1842 11.4746 12.3358C11.4746 14.4921 13.2959 16.2358 15.5371 16.2358C17.7832 16.2358 19.5996 14.4873 19.5996 12.3358C19.5996 10.1796 17.7832 8.43579 15.5371 8.43579Z" fill="#7A7DB8"/>
<path d="M15.5371 8.43579C14.331 8.43579 13.2471 8.94203 12.5 9.74361V14.928C13.2471 15.7296 14.3311 16.2358 15.5371 16.2358C17.7832 16.2358 19.5996 14.4873 19.5996 12.3358C19.5996 10.1796 17.7832 8.43579 15.5371 8.43579Z" fill="#646796"/>
<path d="M19.5996 12.3358C19.5996 13.1186 19.3604 13.8452 18.9502 14.4546H12.124C11.7139 13.8452 11.4746 13.1186 11.4746 12.3358C11.4746 11.553 11.7139 10.8264 12.124 10.217H18.9502C19.3604 10.8264 19.5996 11.553 19.5996 12.3358Z" fill="white"/>
<path d="M18.9502 10.217H12.5V14.4545H18.9502C19.3604 13.8452 19.5996 13.1186 19.5996 12.3358C19.5996 11.553 19.3604 10.8264 18.9502 10.217Z" fill="#E6EAFF"/>
<path d="M13.6768 13.5404H13.6377C13.252 13.5404 12.9346 13.2357 12.9346 12.8654V11.8107C12.9346 11.4404 13.252 11.1357 13.6377 11.1357H13.6768C14.0625 11.1357 14.3799 11.4404 14.3799 11.8107V12.8654C14.3799 13.2357 14.0674 13.5404 13.6768 13.5404ZM13.6377 11.5811C13.5743 11.5812 13.5135 11.6054 13.4687 11.6484C13.4238 11.6915 13.3986 11.7499 13.3985 11.8107V12.8654C13.3986 12.9263 13.4238 12.9847 13.4687 13.0277C13.5135 13.0708 13.5743 13.095 13.6377 13.0951H13.6768C13.7402 13.095 13.801 13.0708 13.8459 13.0277C13.8907 12.9847 13.916 12.9263 13.9161 12.8654V11.8107C13.916 11.7499 13.8907 11.6915 13.8459 11.6484C13.801 11.6054 13.7402 11.5812 13.6768 11.5811H13.6377ZM15.5567 13.5404H15.5176C15.1319 13.5404 14.8145 13.2357 14.8145 12.8654V11.8107C14.8145 11.4404 15.1319 11.1357 15.5176 11.1357H15.5567C15.9424 11.1357 16.2598 11.4404 16.2598 11.8107V12.8654C16.2598 13.2357 15.9473 13.5404 15.5567 13.5404ZM15.5176 11.5811C15.4542 11.5812 15.3934 11.6054 15.3485 11.6484C15.3037 11.6915 15.2784 11.7499 15.2783 11.8107V12.8654C15.2784 12.9263 15.3037 12.9847 15.3485 13.0277C15.3934 13.0708 15.4542 13.095 15.5176 13.0951H15.5567C15.6201 13.095 15.6809 13.0708 15.7257 13.0277C15.7706 12.9847 15.7958 12.9263 15.7959 12.8654V11.8107C15.7958 11.7499 15.7706 11.6915 15.7257 11.6484C15.6809 11.6054 15.6201 11.5812 15.5567 11.5811H15.5176ZM17.4366 13.5404H17.3975C17.0117 13.5404 16.6944 13.2357 16.6944 12.8654V11.8107C16.6944 11.4404 17.0117 11.1357 17.3975 11.1357H17.4366C17.8223 11.1357 18.1397 11.4404 18.1397 11.8107V12.8654C18.1397 13.2357 17.8272 13.5404 17.4366 13.5404ZM17.3975 11.5811C17.3341 11.5812 17.2733 11.6054 17.2284 11.6484C17.1836 11.6915 17.1583 11.7499 17.1582 11.8107V12.8654C17.1583 12.9263 17.1836 12.9847 17.2284 13.0277C17.2733 13.0708 17.3341 13.095 17.3975 13.0951H17.4366C17.5 13.095 17.5608 13.0708 17.6056 13.0277C17.6505 12.9847 17.6757 12.9263 17.6758 12.8654V11.8107C17.6757 11.7499 17.6505 11.6915 17.6056 11.6484C17.5608 11.6054 17.5 11.5812 17.4366 11.5811H17.3975Z" fill="#7A7DB8"/>
<path d="M19.9658 14.717C19.7559 15.078 19.8242 15.5327 20.1318 15.8233L20.9863 16.6436L20.0195 17.567L19.165 16.7467C18.8623 16.4561 18.3936 16.3904 18.0127 16.5873C18.4082 16.3717 18.7842 16.1045 19.1211 15.7811C19.4629 15.4577 19.7412 15.0967 19.9658 14.717Z" fill="#2E324C"/>
<path d="M24.5603 18.9499L22.1091 16.5968C21.8113 16.3108 21.3278 16.3108 21.03 16.5968L19.9753 17.6093C19.6775 17.8952 19.6775 18.3593 19.9753 18.6452L22.4265 20.9983C23.0173 21.5655 23.9695 21.5655 24.5603 20.9983C25.1462 20.4312 25.1462 19.5171 24.5603 18.9499Z" fill="#4040FF"/>
<path d="M15.5371 7.46558C12.7344 7.46558 10.4639 9.64526 10.4639 12.3359C10.4639 15.0265 12.7344 17.2062 15.5371 17.2062C18.3398 17.2062 20.6103 15.0265 20.6103 12.3359C20.6103 9.64526 18.3398 7.46558 15.5371 7.46558ZM15.5371 16.2359C13.291 16.2359 11.4746 14.4874 11.4746 12.3359C11.4746 10.1796 13.2959 8.43587 15.5371 8.43587C17.7832 8.43587 19.5996 10.1843 19.5996 12.3359C19.5996 14.4921 17.7832 16.2359 15.5371 16.2359Z" fill="#4040FF"/>
<path d="M15.5371 7.46558C14.3994 7.46558 13.3496 7.82652 12.5 8.43587V9.74369C13.2471 8.94212 14.3311 8.43587 15.5371 8.43587C17.7832 8.43587 19.5996 10.1843 19.5996 12.3359C19.5996 14.4921 17.7783 16.2359 15.5371 16.2359C14.331 16.2359 13.2471 15.7296 12.5 14.9281V16.2359C13.3447 16.8452 14.3994 17.2062 15.5371 17.2062C18.3398 17.2062 20.6103 15.0265 20.6103 12.3359C20.6103 9.64526 18.3398 7.46558 15.5371 7.46558Z" fill="#4040FF"/>
</g>
<defs>
<clipPath id="clip0_1129_50485">
<rect width="25" height="24" fill="white"/>
</clipPath>
</defs>
</svg>
