<svg width="56" height="57" viewBox="0 0 56 57" fill="none" xmlns="http://www.w3.org/2000/svg">
<circle opacity="0.1" cx="28" cy="29" r="28" fill="#0A0A26"/>
<path d="M27.9861 32.0865C20.7711 31.8513 19.0407 25.6738 18.6704 23.6795C17.9758 23.5186 17.3569 23.1254 16.916 22.5651C16.4127 21.8716 16.1792 21.0184 16.2592 20.1652C16.202 19.7055 16.242 19.2389 16.3765 18.7956C16.511 18.3522 16.737 17.9421 17.04 17.5917C17.211 17.4163 17.4077 17.268 17.6232 17.1517C16.2822 14.9867 15.6217 12.4691 15.7272 9.92465C16.5624 3.95681 21.3719 3.37602 22.8782 3.34242C23.5715 2.53606 24.4382 1.89694 25.4134 1.47287C27.2401 0.736032 29.2591 0.623535 31.1564 1.15288C34.8859 2.12646 37.3731 3.99361 38.553 6.70314C40.233 10.5542 38.7594 14.9869 37.9131 16.9773C38.2358 17.0822 38.5333 17.253 38.7866 17.4789C39.1313 17.8288 39.391 18.2532 39.5458 18.7194C39.7006 19.1855 39.7463 19.681 39.6794 20.1676C39.7602 21.0207 39.5269 21.8741 39.0234 22.5675C38.5821 23.1277 37.963 23.5208 37.2683 23.6819C36.8979 25.6738 35.1715 31.8513 27.9861 32.0865ZM18.96 18.4308C18.6762 18.4176 18.3987 18.5164 18.1872 18.706C18.0408 18.9111 17.9364 19.1432 17.8803 19.3888C17.8241 19.6345 17.8172 19.8888 17.86 20.1372C17.8633 20.1906 17.8615 20.2442 17.8544 20.2972C17.8109 20.7563 17.9295 21.2162 18.1896 21.5971C18.3518 21.7784 18.5486 21.9253 18.7684 22.0295C18.9882 22.1336 19.2266 22.1928 19.4695 22.2035C19.6525 22.2251 19.8223 22.3092 19.9504 22.4416C20.0785 22.5739 20.157 22.7464 20.1727 22.9299C20.1991 23.2275 20.9087 30.2553 27.9877 30.4873C35.0275 30.2553 35.7403 23.2275 35.7667 22.9283C35.7827 22.7451 35.8614 22.573 35.9895 22.4409C36.1176 22.3089 36.2872 22.2251 36.4699 22.2035C36.7129 22.1929 36.9513 22.1337 37.1711 22.0296C37.3909 21.9255 37.5877 21.7784 37.7499 21.5971C38.0111 21.2144 38.1297 20.752 38.085 20.2908C38.0784 20.2393 38.0765 20.1874 38.0794 20.1356C38.1227 19.8791 38.113 19.6165 38.0509 19.3639C37.9889 19.1113 37.8758 18.8741 37.7187 18.6668C37.4688 18.4828 37.1579 18.4015 36.8499 18.4396C36.7018 18.4659 36.5494 18.4499 36.41 18.3935C36.2706 18.3371 36.15 18.2425 36.0619 18.1207C35.9738 17.9989 35.9218 17.8547 35.9119 17.7046C35.902 17.5546 35.9346 17.4048 36.0059 17.2725C36.0355 17.2165 38.9658 11.655 37.0827 7.33272C36.1075 5.09918 33.9788 3.54002 30.754 2.69844C29.2041 2.25983 27.5529 2.34418 26.0558 2.93843C25.204 3.3054 24.4616 3.88631 23.9006 4.62479C23.8198 4.73465 23.7121 4.82181 23.5878 4.87787C23.4635 4.93392 23.3268 4.95697 23.191 4.94478C22.9838 4.92798 18.0856 4.61119 17.3176 10.087C16.5496 15.5629 17.096 14.4429 19.6191 17.0829C19.7291 17.1978 19.8023 17.3429 19.8293 17.4997C19.8564 17.6564 19.8362 17.8177 19.7711 17.9628C19.7112 18.1117 19.6056 18.2378 19.4694 18.3227C19.3333 18.4077 19.1736 18.4472 19.0136 18.4356L18.96 18.4308Z" fill="#0A0A26"/>
<path d="M36.7105 18.4505C36.504 18.4507 36.3055 18.3711 36.1564 18.2282C36.0073 18.0854 35.9192 17.8904 35.9105 17.6842C35.9009 17.477 35.6529 12.6443 32.045 12.1795C30.3948 12.3891 28.7192 12.2584 27.1214 11.7956C25.5236 11.3327 24.0376 10.5475 22.7549 9.48837C21.7349 10.2555 19.3846 12.5875 19.8366 17.561C19.8425 17.7645 19.7706 17.9627 19.6355 18.1151C19.5004 18.2675 19.3123 18.3626 19.1095 18.3811C18.9066 18.3996 18.7044 18.34 18.544 18.2145C18.3836 18.089 18.2771 17.9071 18.2462 17.7058C17.583 10.4091 22.2685 7.87641 22.4677 7.77241C22.616 7.69503 22.7848 7.66607 22.9504 7.6896C23.116 7.71313 23.27 7.78798 23.3909 7.90361C24.5311 8.93638 25.8809 9.71071 27.348 10.1737C28.8152 10.6366 30.365 10.7772 31.8914 10.5859C31.9647 10.5741 32.0391 10.5714 32.113 10.5779C36.1801 11.0011 37.4225 15.3706 37.5105 17.6178C37.5187 17.8294 37.4427 18.0357 37.299 18.1914C37.1553 18.3471 36.9558 18.4394 36.7441 18.4481L36.7105 18.4505ZM50.4765 56.8247H5.53533C5.32316 56.8247 5.11969 56.7404 4.96966 56.5904C4.81964 56.4404 4.73535 56.2369 4.73535 56.0247V47.1066C4.74107 44.2879 5.86436 41.5865 7.85889 39.5949C9.85342 37.6032 12.5564 36.4837 15.3751 36.4821H16.911C17.1232 36.4821 17.3267 36.5663 17.4767 36.7164C17.6267 36.8664 17.711 37.0699 17.711 37.282C17.711 37.4942 17.6267 37.6977 17.4767 37.8477C17.3267 37.9977 17.1232 38.082 16.911 38.082H15.3751C12.9806 38.0833 10.6843 39.034 8.98976 40.7257C7.29519 42.4174 6.3406 44.7121 6.33531 47.1066V55.2248H49.6766V47.1066C49.6738 44.714 48.7221 42.4201 47.0303 40.7283C45.3385 39.0365 43.0446 38.0848 40.652 38.082H39.0056C38.7935 38.082 38.59 37.9977 38.44 37.8477C38.29 37.6977 38.2057 37.4942 38.2057 37.282C38.2057 37.0699 38.29 36.8664 38.44 36.7164C38.59 36.5663 38.7935 36.4821 39.0056 36.4821H40.652C43.4686 36.4861 46.1686 37.6067 48.1602 39.5983C50.1519 41.59 51.2725 44.29 51.2765 47.1066V56.0247C51.2765 56.2369 51.1922 56.4404 51.0422 56.5904C50.8922 56.7404 50.6887 56.8247 50.4765 56.8247Z" fill="#0A0A26"/>
<path d="M30.6795 56.8242C30.5644 56.8242 30.4506 56.7994 30.3459 56.7514C30.2412 56.7034 30.1482 56.6333 30.0731 56.5461C29.998 56.4588 29.9426 56.3564 29.9107 56.2457C29.8788 56.1351 29.8712 56.0189 29.8883 55.905L33.1258 34.4792C33.143 34.3658 33.1843 34.2575 33.247 34.1615C33.3096 34.0655 33.3922 33.9841 33.4891 33.9228C33.586 33.8615 33.6949 33.8217 33.8085 33.8062C33.922 33.7907 34.0376 33.7997 34.1474 33.8328L39.7345 35.5167C39.8457 35.5503 39.9483 35.6077 40.0352 35.6849C40.122 35.7622 40.191 35.8574 40.2373 35.964C40.2836 36.0706 40.3061 36.186 40.3032 36.3022C40.3004 36.4183 40.2723 36.5325 40.2209 36.6367L38.0001 41.0926L39.2881 42.5382C39.4022 42.6672 39.4717 42.8296 39.4861 43.0013C39.5005 43.1729 39.4591 43.3447 39.3681 43.4909L31.3595 56.445C31.2878 56.5609 31.1877 56.6565 31.0687 56.7229C30.9497 56.7892 30.8158 56.8241 30.6795 56.8242ZM34.5706 35.6311L32.0547 52.2811L37.6969 43.1613L36.4466 41.7574C36.3402 41.6381 36.272 41.4897 36.2507 41.3313C36.2295 41.1728 36.2562 41.0117 36.3274 40.8686L38.3657 36.7775L34.5706 35.6311ZM25.2404 56.8242C25.1041 56.8242 24.9699 56.7894 24.8508 56.7231C24.7316 56.6567 24.6314 56.561 24.5597 56.445L16.5487 43.4933C16.4576 43.3471 16.4163 43.1753 16.4307 43.0037C16.4451 42.832 16.5145 42.6696 16.6287 42.5406L17.9166 41.095L15.6959 36.6391C15.6445 36.5349 15.6164 36.4207 15.6135 36.3046C15.6107 36.1884 15.6332 36.073 15.6795 35.9664C15.7258 35.8598 15.7947 35.7646 15.8816 35.6873C15.9684 35.6101 16.071 35.5527 16.1823 35.5191L21.7693 33.8352C21.8791 33.8023 21.9946 33.7933 22.1081 33.8089C22.2215 33.8245 22.3304 33.8643 22.4271 33.9256C22.5239 33.9869 22.6064 34.0682 22.669 34.1641C22.7317 34.2601 22.7729 34.3683 22.7901 34.4816L26.0292 55.9074C26.046 56.0209 26.0381 56.1366 26.0062 56.2468C25.9743 56.357 25.919 56.459 25.8442 56.546C25.7694 56.6329 25.6768 56.7028 25.5726 56.7508C25.4684 56.7988 25.3552 56.8238 25.2404 56.8242ZM18.223 43.1589L23.8653 52.2787L21.3494 35.6311L17.5543 36.7751L19.5918 40.8662C19.6631 41.0092 19.6899 41.1703 19.6688 41.3287C19.6477 41.4871 19.5797 41.6356 19.4734 41.755L18.223 43.1589Z" fill="#0A0A26"/>
<path d="M28.0197 41.9084C26.29 41.9071 24.5619 41.8024 22.8447 41.5948C22.7382 41.585 22.6347 41.554 22.5404 41.5036C22.4461 41.4532 22.3629 41.3844 22.2956 41.3012C22.2284 41.2181 22.1785 41.1223 22.1489 41.0195C22.1193 40.9167 22.1106 40.8091 22.1234 40.7029C22.1361 40.5967 22.17 40.4942 22.223 40.4013C22.2761 40.3085 22.3472 40.2272 22.4322 40.1623C22.5172 40.0974 22.6143 40.0502 22.7179 40.0235C22.8214 39.9968 22.9293 39.9911 23.0351 40.0068C26.3045 40.4089 29.6109 40.4089 32.8804 40.0068C33.0889 39.9843 33.2979 40.0445 33.4625 40.1746C33.627 40.3046 33.7339 40.4941 33.7601 40.7022C33.7863 40.9102 33.7298 41.1203 33.6027 41.2871C33.4755 41.4539 33.288 41.5641 33.0804 41.594C31.4018 41.8046 29.7115 41.9096 28.0197 41.9084ZM33.9188 35.3982C33.7942 35.3977 33.6715 35.3682 33.5604 35.3119C33.4493 35.2557 33.3529 35.1743 33.2788 35.0742C32.09 33.467 31.8748 30.2815 31.8548 29.9239C31.8426 29.7122 31.9149 29.5042 32.0559 29.3458C32.197 29.1874 32.3951 29.0915 32.6068 29.0791C32.818 29.0692 33.0246 29.1424 33.1825 29.2829C33.3404 29.4234 33.437 29.6202 33.4516 29.8311C33.5004 30.6727 33.7964 33.0846 34.5644 34.123C34.6521 34.2418 34.7053 34.3827 34.7179 34.5299C34.7305 34.6771 34.7021 34.825 34.6358 34.957C34.5695 35.0891 34.468 35.2002 34.3424 35.2781C34.2168 35.3559 34.0721 35.3975 33.9244 35.3982H33.9188ZM22.0015 35.3982C21.8537 35.3975 21.7091 35.3559 21.5835 35.2781C21.4579 35.2002 21.3564 35.0891 21.2901 34.957C21.2238 34.825 21.1954 34.6771 21.208 34.5299C21.2206 34.3827 21.2737 34.2418 21.3615 34.123C22.1311 33.083 22.4263 30.6719 22.4751 29.8311C22.4812 29.726 22.5079 29.6232 22.5537 29.5285C22.5996 29.4338 22.6636 29.349 22.7422 29.279C22.8208 29.209 22.9124 29.1552 23.0118 29.1207C23.1112 29.0861 23.2164 29.0714 23.3215 29.0775C23.4265 29.0836 23.5293 29.1103 23.6241 29.1562C23.7188 29.202 23.8036 29.266 23.8735 29.3446C23.9435 29.4232 23.9973 29.5148 24.0319 29.6142C24.0665 29.7136 24.0811 29.8188 24.075 29.9239C24.055 30.2815 23.835 33.467 22.6511 35.0742C22.576 35.1756 22.478 35.2578 22.3651 35.3141C22.2523 35.3704 22.1276 35.3992 22.0015 35.3982ZM44.1297 45.6115C43.9215 45.6116 43.7215 45.5305 43.5721 45.3854C43.4227 45.2404 43.3358 45.0428 43.3297 44.8347C43.1801 39.6252 41.1994 37.9861 41.1802 37.9701C41.0149 37.8388 40.9077 37.648 40.8817 37.4385C40.8557 37.2291 40.9129 37.0178 41.041 36.8501C41.1682 36.6838 41.356 36.5743 41.5634 36.5456C41.7709 36.5168 41.9813 36.5711 42.149 36.6965C42.2546 36.7765 44.7545 38.7181 44.9297 44.7883C44.9357 45.0002 44.8574 45.2059 44.7119 45.3601C44.5664 45.5143 44.3656 45.6044 44.1537 45.6107L44.1297 45.6115Z" fill="#0A0A26"/>
<path d="M44.1334 50.3346C43.5079 50.3347 42.8964 50.1494 42.3763 49.802C41.8561 49.4546 41.4507 48.9608 41.2112 48.383C40.9717 47.8051 40.909 47.1693 41.0309 46.5558C41.1529 45.9423 41.454 45.3788 41.8962 44.9364C42.3384 44.4941 42.9019 44.1928 43.5153 44.0707C44.1288 43.9487 44.7647 44.0112 45.3426 44.2506C45.9204 44.4899 46.4144 44.8952 46.7619 45.4153C47.1094 45.9353 47.2949 46.5468 47.2949 47.1722C47.294 48.0105 46.9607 48.8143 46.368 49.4071C45.7753 50 44.9717 50.3335 44.1334 50.3346ZM44.1334 45.6099C43.8243 45.6097 43.5222 45.7012 43.2652 45.8728C43.0081 46.0444 42.8078 46.2883 42.6894 46.5738C42.571 46.8593 42.54 47.1734 42.6001 47.4766C42.6603 47.7797 42.8091 48.0581 43.0275 48.2767C43.246 48.4953 43.5244 48.6442 43.8275 48.7045C44.1306 48.7649 44.4448 48.734 44.7303 48.6157C45.0158 48.4975 45.2599 48.2973 45.4316 48.0403C45.6033 47.7834 45.6949 47.4813 45.6949 47.1722C45.6945 46.7581 45.5299 46.3611 45.2371 46.0682C44.9444 45.7754 44.5475 45.6105 44.1334 45.6099ZM11.2718 45.6115C11.0692 45.612 10.8738 45.5355 10.7253 45.3976C10.5768 45.2596 10.4863 45.0705 10.4719 44.8683C10.0359 38.7285 13.419 36.7661 13.563 36.6853C13.7478 36.581 13.9664 36.5544 14.1708 36.6114C14.3753 36.6683 14.5487 36.8041 14.653 36.9889C14.7572 37.1737 14.7838 37.3924 14.7269 37.5968C14.67 37.8012 14.5342 37.9746 14.3494 38.0789C14.2278 38.1509 11.7094 39.7052 12.067 44.7555C12.082 44.9671 12.0122 45.176 11.8732 45.3363C11.7341 45.4965 11.5371 45.5949 11.3254 45.6099L11.2718 45.6115Z" fill="#0A0A26"/>
<path d="M9.65339 52.0165C9.5296 52.0171 9.40737 51.9889 9.29632 51.9342C9.18527 51.8795 9.08842 51.7998 9.01341 51.7013C8.62291 51.1885 8.33524 50.605 8.16623 49.983C7.79487 48.7714 7.9167 47.4622 8.50525 46.3399C9.09381 45.2176 10.1015 44.373 11.3093 43.9895C11.8823 43.8284 12.4815 43.7831 13.0721 43.8562C13.6628 43.9292 14.2329 44.1193 14.7493 44.4151C15.6542 44.938 16.378 45.7245 16.824 46.6697C17.27 47.6149 17.417 48.6737 17.2452 49.7046C17.2104 49.9139 17.0939 50.1008 16.9213 50.2242C16.7487 50.3476 16.5341 50.3974 16.3248 50.3626C16.1155 50.3278 15.9286 50.2113 15.8052 50.0387C15.6818 49.866 15.632 49.6515 15.6668 49.4422C15.7842 48.7358 15.6845 48.0104 15.3808 47.3619C15.0772 46.7135 14.5838 46.1724 13.9661 45.8103C13.633 45.6179 13.2649 45.4939 12.8833 45.4454C12.5018 45.3969 12.1144 45.425 11.7437 45.5279C10.9421 45.796 10.2786 46.3693 9.89697 47.1235C9.51538 47.8777 9.44654 48.752 9.70539 49.5566C9.82115 49.9824 10.0184 50.3818 10.2862 50.7326C10.3763 50.8511 10.4315 50.9925 10.4456 51.1407C10.4597 51.289 10.4322 51.4382 10.3661 51.5716C10.3 51.7051 10.1979 51.8174 10.0715 51.896C9.945 51.9746 9.7991 52.0163 9.65019 52.0165H9.65339Z" fill="#0A0A26"/>
<path d="M16.467 50.3763C16.4358 50.3763 16.4038 50.3763 16.3718 50.3715L15.4703 50.2651C15.3659 50.2527 15.265 50.2198 15.1733 50.1684C15.0816 50.1171 15.001 50.0481 14.9359 49.9655C14.8709 49.883 14.8227 49.7884 14.7943 49.6872C14.7658 49.5861 14.7575 49.4803 14.7699 49.3759C14.7823 49.2715 14.8151 49.1706 14.8665 49.0789C14.9179 48.9872 14.9868 48.9066 15.0694 48.8415C15.2362 48.7102 15.4483 48.6505 15.6591 48.6755L16.5606 48.7827C16.7631 48.8068 16.9487 48.9073 17.0796 49.0636C17.2105 49.22 17.2767 49.4204 17.2648 49.624C17.2528 49.8275 17.1636 50.0188 17.0153 50.1588C16.8671 50.2988 16.6709 50.376 16.467 50.3763ZM9.65361 52.025C9.46578 52.0253 9.28385 51.9594 9.13969 51.839C8.99553 51.7186 8.89833 51.5513 8.86513 51.3664C8.83194 51.1816 8.86485 50.9909 8.95811 50.8279C9.05137 50.6648 9.19903 50.5398 9.37522 50.4747L10.3352 50.1203C10.4337 50.0835 10.5385 50.0665 10.6435 50.0702C10.7486 50.0739 10.8519 50.0983 10.9475 50.142C11.0432 50.1856 11.1293 50.2476 11.2009 50.3246C11.2726 50.4015 11.3284 50.4918 11.3652 50.5903C11.4019 50.6887 11.4189 50.7935 11.4152 50.8986C11.4115 51.0036 11.3871 51.1069 11.3435 51.2026C11.2998 51.2982 11.2378 51.3843 11.1609 51.456C11.084 51.5277 10.9937 51.5835 10.8952 51.6202L9.93521 51.9754C9.84508 52.0087 9.74969 52.0255 9.65361 52.025Z" fill="#0A0A26"/>
</svg>
