<svg width="24" height="24" viewBox="0 0 24 24" fill="none" xmlns="http://www.w3.org/2000/svg">
<g clip-path="url(#clip0_130_11103)">
<path fill-rule="evenodd" clip-rule="evenodd" d="M12 22C6.52381 22 2 17.4762 2 12C2 6.52381 6.51613 2 11.9923 2C17.4685 2 22 6.52381 22 12C22 17.4762 17.4762 22 12 22ZM10.7711 17.023C11.0553 17.023 11.3011 16.8925 11.4854 16.6083L16.6467 8.52074C16.7619 8.35177 16.8618 8.14439 16.8618 7.96006C16.8618 7.553 16.5008 7.29954 16.1244 7.29954C15.9017 7.29954 15.679 7.43011 15.51 7.69124L10.7327 15.2872L8.19048 12.0998C7.99078 11.8464 7.78341 11.7542 7.53763 11.7542C7.16129 11.7542 6.84639 12.0538 6.84639 12.4608C6.84639 12.6528 6.9232 12.8602 7.05376 13.0215L10.0184 16.616C10.2565 16.9078 10.4869 17.023 10.7711 17.023Z" fill="#4040FF"/>
</g>
<defs>
<clipPath id="clip0_130_11103">
<rect width="20" height="20" fill="white" transform="translate(2 2)"/>
</clipPath>
</defs>
</svg>
