<svg width="104" height="48" viewBox="0 0 104 48" fill="none" xmlns="http://www.w3.org/2000/svg">
<rect x="0.5" y="0.5" width="103" height="47" rx="7.5" fill="#1877F2" fill-opacity="0.1" stroke="#1877F2"/>
<path d="M19.5824 30.7842H16.8568V23.9895H15V21.7773H16.8567V20.2032C16.8567 18.3378 17.6779 17 20.3962 17C20.9711 17 21.8737 17.1159 21.8737 17.1159V19.17H20.9257C19.9597 19.17 19.5825 19.4639 19.5825 20.2762V21.7773H21.8375L21.6367 23.9895H19.5825L19.5824 30.7842ZM25.8364 21.6006C25.7967 21.6006 25.7559 21.602 25.7154 21.603C23.1881 21.603 22.0317 23.5041 22.0317 26.2028C22.0317 29.6024 23.5316 30.963 25.7352 30.963C26.9959 30.963 27.8242 30.4323 28.3276 29.4421V30.7852H30.9201V21.7783H28.3276V23.1634C27.9166 22.2723 27.0651 21.6111 25.8364 21.6006ZM26.4956 23.7289C27.5571 23.7289 28.1943 24.4693 28.1943 25.7287L28.1967 27.015C28.1967 27.8639 27.6705 28.8569 26.4956 28.8569C24.6894 28.8569 24.7377 26.9067 24.7377 26.2571C24.7377 24.0721 25.7 23.7289 26.4956 23.7289ZM31.9671 26.2822C31.9671 25.1877 31.9147 21.6064 36.5806 21.6064C38.4536 21.6064 39.2356 22.2019 39.2356 22.2019L38.607 24.1516C38.607 24.1516 37.826 23.7215 36.8082 23.7215C35.5047 23.7215 34.6729 24.4772 34.6729 25.8067L34.6744 26.7601C34.6744 28.0377 35.4769 28.8905 36.8109 28.8905C37.7381 28.8905 38.5927 28.4564 38.5927 28.4564L39.2196 30.3653C39.2196 30.3653 38.5045 30.9646 36.5937 30.9646C32.151 30.9646 31.9671 27.7515 31.9671 26.2822ZM54.4362 21.603C56.9637 21.603 58.1383 23.5041 58.1383 26.2028C58.1383 29.6024 56.6383 30.963 54.4347 30.963C53.174 30.963 52.242 30.4324 51.7386 29.4421V30.7852L49.1787 30.7842V17.2739L51.8966 17.0368V23.0414C52.2889 21.9909 53.578 21.603 54.4362 21.603ZM53.6743 23.7289C52.6128 23.7289 51.8966 24.4693 51.8966 25.7287L51.8941 27.015C51.8925 27.8639 52.39 28.8569 53.6743 28.8569C55.4805 28.8569 55.4322 26.9067 55.4322 26.2571C55.4322 24.0721 54.47 23.7289 53.6743 23.7289ZM43.9514 21.6105C41.0848 21.6105 39.5714 23.1734 39.5714 25.9509V26.4669C39.5714 30.0719 41.6967 31 44.2304 31C46.6932 31 47.8079 30.3112 47.8079 30.3112L47.2994 28.4768C47.2994 28.4768 45.9881 29.0347 44.5563 29.0347C43.072 29.0347 42.4336 28.6564 42.27 27.2299H48.0252V25.7583C48.0252 22.7454 46.3267 21.6104 43.9513 21.6104L43.9514 21.6105ZM44.0205 23.4473C45.0128 23.4473 45.6558 24.0558 45.6205 25.467H42.275C42.333 23.9817 43.0264 23.4473 44.0205 23.4473ZM63.5576 21.5981C60.6138 21.5981 59.0641 23.257 59.0641 26.2299C59.0641 30.3088 61.7355 30.9654 63.5626 30.9654C66.2372 30.9654 68.0166 29.5255 68.0166 26.2669C68.0166 22.8754 66.0159 21.5981 63.5576 21.5981ZM63.5206 23.7362C64.815 23.7362 65.328 24.705 65.328 25.8077V26.7558C65.328 28.0917 64.6102 28.8644 63.5157 28.8644C62.492 28.8644 61.7726 28.1416 61.7726 26.7558V25.8077C61.7726 24.3298 62.6286 23.7362 63.5206 23.7362ZM73.4312 21.5981C70.4874 21.5981 68.9376 23.257 68.9376 26.2299C68.9376 30.3088 71.6091 30.9654 73.4361 30.9654C76.1106 30.9654 77.8902 29.5255 77.8902 26.2669C77.8902 22.8754 75.8893 21.5981 73.4312 21.5981ZM73.3941 23.7362C74.6886 23.7362 75.2014 24.705 75.2014 25.8077V26.7558C75.2014 28.0917 74.4837 28.8644 73.3892 28.8644C72.3655 28.8644 71.6461 28.1416 71.6461 26.7558V25.8077C71.6461 24.3298 72.5022 23.7362 73.3941 23.7362ZM78.9172 30.7842V17.2739L81.643 17.0369V26.0924L84.3473 21.7774H87.2259L84.4049 26.2465L87.3346 30.7842H84.4478L81.643 26.378V30.7842H78.9172Z" fill="#1877F2"/>
</svg>
