<svg width="32" height="32" viewBox="0 0 32 32" fill="none" xmlns="http://www.w3.org/2000/svg">
<circle opacity="0.1" cx="16" cy="16" r="16" fill="#DF3A4D"/>
<g clip-path="url(#clip0_4981_80023)">
<path d="M12.5 26C12.3674 26 12.2402 25.9473 12.1464 25.8536C12.0527 25.7598 12 25.6326 12 25.5V22H10.5C10.3674 22 10.2402 21.9473 10.1465 21.8535L8.6465 20.3535C8.55273 20.2597 8.50004 20.1326 8.5 20V15C8.5 14.8674 8.55275 14.7402 8.6465 14.6465L10.1465 13.1465C10.2402 13.0527 10.3674 13 10.5 13H15.5V14H10.707L9.5 15.2071V19.793L10.7071 21H12.5C12.6326 21 12.7598 21.0527 12.8536 21.1464C12.9473 21.2402 13 21.3674 13 21.5V24.937C13.8823 24.7075 14.4986 23.9116 14.5 23V20.5H15.5V23C15.4983 24.6562 14.1562 25.9983 12.5 26Z" fill="#DF3A4D"/>
<path d="M18 22H16C15.1716 22 14.5 21.3284 14.5 20.5C14.5 19.6716 15.1716 19 16 19H18C18.8284 19 19.5 19.6716 19.5 20.5C19.5 21.3284 18.8284 22 18 22ZM16 20C15.8674 20 15.7402 20.0527 15.6464 20.1464C15.5527 20.2402 15.5 20.3674 15.5 20.5C15.5 20.6326 15.5527 20.7598 15.6464 20.8536C15.7402 20.9473 15.8674 21 16 21H18C18.1326 21 18.2598 20.9473 18.3536 20.8536C18.4473 20.7598 18.5 20.6326 18.5 20.5C18.5 20.3674 18.4473 20.2402 18.3536 20.1464C18.2598 20.0527 18.1326 20 18 20H16Z" fill="#DF3A4D"/>
<path d="M19 20H17C16.1716 20 15.5 19.3284 15.5 18.5C15.5 17.6716 16.1716 17 17 17H19C19.8284 17 20.5 17.6716 20.5 18.5C20.5 19.3284 19.8284 20 19 20ZM17 18C16.8674 18 16.7402 18.0527 16.6464 18.1464C16.5527 18.2402 16.5 18.3674 16.5 18.5C16.5 18.6326 16.5527 18.7598 16.6464 18.8536C16.7402 18.9473 16.8674 19 17 19H19C19.1326 19 19.2598 18.9473 19.3536 18.8536C19.4473 18.7598 19.5 18.6326 19.5 18.5C19.5 18.3674 19.4473 18.2402 19.3536 18.1464C19.2598 18.0527 19.1326 18 19 18H17Z" fill="#DF3A4D"/>
<path d="M18 18H16C15.1716 18 14.5 17.3284 14.5 16.5C14.5 15.6716 15.1716 15 16 15H18C18.8284 15 19.5 15.6716 19.5 16.5C19.5 17.3284 18.8284 18 18 18ZM16 16C15.8674 16 15.7402 16.0527 15.6464 16.1464C15.5527 16.2402 15.5 16.3674 15.5 16.5C15.5 16.6326 15.5527 16.7598 15.6464 16.8536C15.7402 16.9473 15.8674 17 16 17H18C18.1326 17 18.2598 16.9473 18.3536 16.8536C18.4473 16.7598 18.5 16.6326 18.5 16.5C18.5 16.3674 18.4473 16.2402 18.3536 16.1464C18.2598 16.0527 18.1326 16 18 16H16Z" fill="#DF3A4D"/>
<path d="M17.5 16H15.5C14.6716 16 14 15.3284 14 14.5C14 13.6716 14.6716 13 15.5 13H17.5C18.3284 13 19 13.6716 19 14.5C19 15.3284 18.3284 16 17.5 16ZM15.5 14C15.3674 14 15.2402 14.0527 15.1464 14.1464C15.0527 14.2402 15 14.3674 15 14.5C15 14.6326 15.0527 14.7598 15.1464 14.8536C15.2402 14.9473 15.3674 15 15.5 15H17.5C17.6326 15 17.7598 14.9473 17.8536 14.8536C17.9473 14.7598 18 14.6326 18 14.5C18 14.3674 17.9473 14.2402 17.8536 14.1464C17.7598 14.0527 17.6326 14 17.5 14H15.5ZM9 22H5C4.86739 22 4.74021 21.9473 4.64645 21.8536C4.55268 21.7598 4.5 21.6326 4.5 21.5V13.5C4.5 13.3674 4.55268 13.2402 4.64645 13.1464C4.74021 13.0527 4.86739 13 5 13H9C9.13261 13 9.25979 13.0527 9.35355 13.1464C9.44732 13.2402 9.5 13.3674 9.5 13.5V21.5C9.5 21.6326 9.44732 21.7598 9.35355 21.8536C9.25979 21.9473 9.13261 22 9 22ZM5.5 21H8.5V14H5.5V21ZM14.5 20.5C14.5 20.2444 14.4121 18 12 18V17C14.7686 17 15.5 19.2896 15.5 20.5H14.5Z" fill="#DF3A4D"/>
<path d="M0 20H5V21H0V20ZM2 14H5V15H2V14ZM0 14H1V15H0V14ZM9 32C8.8674 32 8.74025 31.9473 8.6465 31.8535L2.6465 25.8535C2.5766 25.7836 2.52899 25.6945 2.50971 25.5975C2.49042 25.5005 2.50033 25.4 2.53816 25.3087C2.576 25.2173 2.64007 25.1392 2.72227 25.0843C2.80448 25.0294 2.90112 25 3 25H9C9.13261 25 9.25979 25.0527 9.35355 25.1464C9.44732 25.2402 9.5 25.3674 9.5 25.5V31.5C9.5 31.6326 9.44732 31.7598 9.35355 31.8536C9.25979 31.9473 9.13261 32 9 32ZM4.207 26L8.5 30.293V26H4.207ZM3.5 13H2.5V0.5C2.5 0.367392 2.55268 0.240215 2.64645 0.146447C2.74021 0.0526784 2.86739 0 3 0L20 0V1H3.5V13Z" fill="#DF3A4D"/>
<path d="M28 32.0004H9C8.8674 32.0003 8.74025 31.9476 8.6465 31.8539L2.6465 25.8539C2.55273 25.7601 2.50004 25.633 2.5 25.5004V22.0004H3.5V25.2934L9.20706 31.0004H27.5V13.5004H28.5V31.5004C28.5 31.633 28.4473 31.7602 28.3536 31.8539C28.2598 31.9477 28.1326 32.0004 28 32.0004ZM25 13.0004C24.8694 13.0004 24.7405 12.9943 24.6125 12.986C24.5756 12.9955 24.5381 13.0004 24.5 13.0004H19.5C19.2979 13.0004 19.1155 12.8785 19.0381 12.6917C18.9607 12.505 19.0037 12.2899 19.1465 12.1469L20.3059 10.9874C18.178 8.755 17.9134 5.33387 19.6731 2.80119C21.4329 0.268187 24.7312 -0.677563 27.5656 0.538C30.4004 1.75356 31.9888 4.79506 31.3669 7.81581C30.7449 10.8368 28.0842 13.0033 25 13.0004ZM24.4905 11.975H24.5286C24.6841 11.9879 24.8406 11.9989 25 11.9989C27.6633 12.0057 29.9514 10.1085 30.4377 7.48987C30.9238 4.87125 29.4695 2.27919 26.9812 1.3295C24.4927 0.37975 21.6812 1.34387 20.2991 3.6205C18.917 5.89737 19.3591 8.83656 21.3501 10.6059C21.401 10.6512 21.4421 10.7063 21.4709 10.768C21.4997 10.8297 21.5156 10.8967 21.5176 10.9647C21.5196 11.0328 21.5076 11.1006 21.4825 11.1639C21.4574 11.2272 21.4197 11.2847 21.3716 11.3329L20.7071 12.0004H24.3411C24.3891 11.9836 24.4396 11.975 24.4904 11.975H24.4905Z" fill="#DF3A4D"/>
<path d="M28 9.5H27C27 8.3955 26.1045 7.5 25 7.5C23.8955 7.5 23 8.3955 23 9.5H22C22 7.84325 23.3433 6.5 25 6.5C26.6567 6.5 28 7.84325 28 9.5ZM23 6C22.1716 6 21.5 5.32837 21.5 4.5H22.5C22.5 4.63261 22.5527 4.75979 22.6464 4.85355C22.7402 4.94732 22.8674 5 23 5C23.1326 5 23.2598 4.94732 23.3536 4.85355C23.4473 4.75979 23.5 4.63261 23.5 4.5H24.5C24.5 5.32837 23.8284 6 23 6ZM27 6C26.1716 6 25.5 5.32837 25.5 4.5H26.5C26.5 4.63261 26.5527 4.75979 26.6464 4.85355C26.7402 4.94732 26.8674 5 27 5C27.1326 5 27.2598 4.94732 27.3536 4.85355C27.4473 4.75979 27.5 4.63261 27.5 4.5H28.5C28.5 5.32837 27.8284 6 27 6ZM4.5 2H11.5V3H4.5V2ZM4.5 4H10.5V5H4.5V4ZM12.5 2H13.5V3H12.5V2ZM22.6465 29.1465L25.6465 26.1465L26.3535 26.8535L23.3535 29.8535L22.6465 29.1465Z" fill="#DF3A4D"/>
<path d="M22.6465 26.8535L23.3535 26.1465L26.3535 29.1462L25.6465 29.8532L22.6465 26.8535ZM17.5 27.5002H22V28.5002H17.5V27.5002ZM15.5 27.5002H16.5V28.5002H15.5V27.5002Z" fill="#DF3A4D"/>
</g>
<defs>
<clipPath id="clip0_4981_80023">
<rect width="32" height="32" fill="white"/>
</clipPath>
</defs>
</svg>
