<svg width="168" height="40" viewBox="0 0 168 40" fill="none" xmlns="http://www.w3.org/2000/svg">
<rect width="168" height="40" rx="8" fill="white"/>
<mask id="mask0_1255_50741" style="mask-type:alpha" maskUnits="userSpaceOnUse" x="0" y="0" width="64" height="40">
<rect width="64" height="40" rx="8" fill="white"/>
</mask>
<g mask="url(#mask0_1255_50741)">
<g filter="url(#filter0_d_1255_50741)">
<path d="M0 8C0 3.58172 3.58172 0 8 0H53.3333L36.6667 40H8C3.58173 40 0 36.4183 0 32V8Z" fill="white"/>
</g>
<path d="M11.822 12.5H27.9283C28.0738 12.5 28.2161 12.5424 28.3379 12.6219C28.4597 12.7014 28.5558 12.8146 28.6145 12.9478C28.6731 13.0809 28.6917 13.2282 28.6681 13.3718C28.6445 13.5153 28.5796 13.6489 28.4814 13.7563L22.322 20.5344C22.1938 20.6716 22.1233 20.8529 22.1252 21.0406V26.3469C22.1263 26.4715 22.096 26.5944 22.037 26.7042C21.978 26.814 21.8922 26.9072 21.7877 26.975L18.7877 28.9719C18.6751 29.046 18.5447 29.0884 18.4101 29.0947C18.2755 29.101 18.1417 29.0709 18.0227 29.0076C17.9038 28.9443 17.8041 28.8501 17.7341 28.7349C17.6642 28.6198 17.6265 28.4879 17.6252 28.3531V21.0406C17.627 20.8529 17.5565 20.6716 17.4283 20.5344L11.2689 13.7563C11.1707 13.6489 11.1058 13.5153 11.0822 13.3718C11.0586 13.2282 11.0772 13.0809 11.1359 12.9478C11.1945 12.8146 11.2906 12.7014 11.4124 12.6219C11.5342 12.5424 11.6765 12.5 11.822 12.5Z" stroke="#848493" stroke-width="1.5" stroke-linecap="round" stroke-linejoin="round"/>
</g>
<defs>
<filter id="filter0_d_1255_50741" x="-20" y="-12" width="93.3335" height="80" filterUnits="userSpaceOnUse" color-interpolation-filters="sRGB">
<feFlood flood-opacity="0" result="BackgroundImageFix"/>
<feColorMatrix in="SourceAlpha" type="matrix" values="0 0 0 0 0 0 0 0 0 0 0 0 0 0 0 0 0 0 127 0" result="hardAlpha"/>
<feOffset dy="8"/>
<feGaussianBlur stdDeviation="10"/>
<feComposite in2="hardAlpha" operator="out"/>
<feColorMatrix type="matrix" values="0 0 0 0 0.516667 0 0 0 0 0.516667 0 0 0 0 0.516667 0 0 0 0.2 0"/>
<feBlend mode="normal" in2="BackgroundImageFix" result="effect1_dropShadow_1255_50741"/>
<feBlend mode="normal" in="SourceGraphic" in2="effect1_dropShadow_1255_50741" result="shape"/>
</filter>
</defs>
</svg>
