<svg width="56" height="56" viewBox="0 0 56 56" fill="none" xmlns="http://www.w3.org/2000/svg">
<circle opacity="0.1" cx="28" cy="28" r="28" fill="#0A0A26"/>
<path d="M55.0634 29.184V26.9442C55.0579 25.4736 53.9175 24.257 52.4505 24.1557L40.4856 23.3546L31.8994 16.4849C31.402 16.085 30.783 15.8671 30.1448 15.8672H12.982C12.5825 15.8674 12.1877 15.9525 11.8236 16.1167C11.4595 16.2809 11.1344 16.5206 10.8698 16.8198L5.17577 23.3332H2.80006C1.76915 23.3332 0.933463 24.1688 0.933463 25.1998V29.1842C0.649821 29.3478 0.414239 29.5832 0.250386 29.8667C0.086532 30.1502 0.000178133 30.4719 0 30.7993L0 32.6662C0 33.6971 0.835578 34.5328 1.86649 34.5328H5.6839C6.13668 37.226 8.46843 39.1981 11.1994 39.1981C13.9305 39.1981 16.2623 37.226 16.7152 34.5328H18.6659V36.3993C18.6659 37.4302 19.5014 38.2658 20.5324 38.2658H23.332V50.3985H13.9992C12.9683 50.3985 12.1327 51.2341 12.1327 52.265V54.1316C12.1327 55.1625 12.9683 55.9981 13.9992 55.9981H41.9976C43.0285 55.9981 43.8641 55.1625 43.8641 54.1316V52.265C43.8641 51.2342 43.0285 50.3985 41.9976 50.3985H32.665V38.2659H35.4646C36.4954 38.2659 37.3311 37.4303 37.3311 36.3994V34.5329H39.2818C39.7346 37.2261 42.0663 39.1982 44.7977 39.1982C47.5284 39.1982 49.8603 37.2261 50.3132 34.5329H54.1303C55.1611 34.5329 55.9968 33.6973 55.9968 32.6663V30.7994C55.9967 30.4719 55.9104 30.1502 55.7465 29.8667C55.5826 29.5831 55.347 29.3477 55.0634 29.184ZM30.7284 17.9409L37.4695 23.3332H20.5322V17.7337H30.1448C30.3575 17.7327 30.5639 17.8059 30.7284 17.9408V17.9409ZM12.2715 18.0528C12.3607 17.9525 12.4701 17.8722 12.5926 17.8172C12.715 17.7622 12.8477 17.7337 12.982 17.7337H18.6658V23.3334H7.65286L12.2715 18.0528ZM11.1991 37.3325C9.13744 37.3325 7.46617 35.6612 7.46617 33.5994C7.46617 31.5376 9.13733 29.8664 11.1991 29.8664C13.261 29.8664 14.9327 31.5376 14.9327 33.5994C14.9327 35.6612 13.261 37.3325 11.1991 37.3325ZM41.9976 54.1318H13.9992V52.2652H41.9976V54.1318ZM30.7985 50.3988H25.1984V38.2659H27.065V47.5986C27.0687 47.8437 27.1687 48.0775 27.3434 48.2495C27.518 48.4215 27.7533 48.5179 27.9984 48.5179C28.2435 48.5179 28.4788 48.4215 28.6535 48.2495C28.8281 48.0775 28.9281 47.8437 28.9319 47.5986V38.2659H30.7985V50.3988ZM35.4646 36.3995H20.5322V34.5329H35.4646V36.3995ZM44.7977 37.3326C42.7359 37.3326 41.0642 35.6613 41.0642 33.5995C41.0642 31.5377 42.7359 29.8665 44.7977 29.8665C46.8594 29.8665 48.5307 31.5377 48.5307 33.5995C48.5307 35.6613 46.8595 37.3326 44.7977 37.3326ZM54.1303 32.6665H50.3129C49.8601 29.9732 47.5284 28.0008 44.7975 28.0008C42.0663 28.0008 39.7346 29.9732 39.2817 32.6665H16.7151C16.2623 29.9732 13.9305 28.0008 11.1991 28.0008C8.46843 28.0008 6.13657 29.9732 5.68368 32.6665H1.8666V30.7995H3.73319C3.85576 30.7995 3.97712 30.7754 4.09035 30.7285C4.20359 30.6816 4.30647 30.6128 4.39314 30.5262C4.4798 30.4395 4.54855 30.3366 4.59545 30.2234C4.64235 30.1102 4.66649 29.9888 4.66649 29.8662C4.66649 29.7437 4.64235 29.6223 4.59545 29.5091C4.54855 29.3958 4.4798 29.293 4.39314 29.2063C4.30647 29.1196 4.20359 29.0509 4.09035 29.004C3.97712 28.9571 3.85576 28.9329 3.73319 28.9329H2.80017V25.2H40.0966L52.3224 26.0193C52.5583 26.0343 52.7797 26.1381 52.942 26.31C53.1043 26.4818 53.1954 26.7088 53.1969 26.9452V28.9329H52.264C52.1405 28.9316 52.0181 28.9547 51.9037 29.0011C51.7893 29.0474 51.6852 29.1159 51.5975 29.2027C51.5097 29.2895 51.4401 29.3928 51.3925 29.5067C51.345 29.6206 51.3205 29.7428 51.3205 29.8662C51.3205 29.9896 51.345 30.1118 51.3925 30.2257C51.4401 30.3396 51.5097 30.443 51.5975 30.5298C51.6852 30.6166 51.7893 30.6851 51.9037 30.7314C52.0181 30.7777 52.1405 30.8009 52.264 30.7995H54.1305L54.1303 32.6665Z" fill="#0A0A26"/>
<path d="M54.597 6.53515C54.8391 6.53635 55.0773 6.47415 55.2879 6.35475C55.4985 6.23535 55.6741 6.0629 55.7974 5.85455C55.924 5.64573 55.9937 5.40744 55.9997 5.16334C56.0057 4.91924 55.9477 4.67782 55.8315 4.46305C55.1076 3.09807 54.021 1.95928 52.6916 1.17199C51.3621 0.384706 49.8412 -0.0205566 48.2962 0.000802735C46.7512 0.0219374 45.242 0.468876 43.9346 1.29244C42.6272 2.116 41.5723 3.28426 40.8861 4.66866H12.3463C12.2078 4.66782 12.0713 4.6359 11.9468 4.57525C11.8223 4.5146 11.713 4.42677 11.627 4.31825C9.80094 2.04502 6.68951 1.25679 4.00144 2.38679C1.31381 3.51679 -0.300254 6.29126 0.0466634 9.18647C0.416221 12.0651 2.62274 14.3648 5.48393 14.8522C6.62095 15.0408 7.78768 14.923 8.86407 14.511C9.94046 14.099 10.8876 13.4077 11.6081 12.5081C11.6959 12.3946 11.8079 12.3021 11.936 12.2375C12.0642 12.1729 12.2051 12.1378 12.3486 12.1347L40.8946 12.1672C41.6237 13.5626 42.7206 14.732 44.0666 15.5488C45.4126 16.3655 46.9563 16.7985 48.5307 16.8008C51.6085 16.803 54.4281 15.0805 55.8307 12.341C55.9457 12.1271 56.0035 11.887 55.9982 11.6442C55.993 11.4014 55.9249 11.164 55.8007 10.9553C55.6765 10.7466 55.5003 10.5736 55.2894 10.4531C55.0784 10.3327 54.8399 10.269 54.597 10.2681H48.5308V6.53515H54.597ZM34.5315 6.53515V10.2681H17.7324V6.53515H34.5315ZM10.1561 11.3367C9.64041 11.9798 8.96254 12.4738 8.19236 12.7676C7.42217 13.0615 6.58753 13.1446 5.77453 13.0084C3.73535 12.6598 2.16273 11.02 1.90046 8.96817C1.64782 6.89826 2.79969 4.91212 4.7213 4.10279C6.64291 3.29324 8.86835 3.85715 10.1727 5.48412C10.4327 5.81144 10.7631 6.07592 11.1395 6.25787C11.5158 6.43983 11.9284 6.53457 12.3464 6.53504H15.8659V10.268H12.3486C11.9263 10.2702 11.51 10.3674 11.1305 10.5523C10.7509 10.7373 10.4178 11.0053 10.156 11.3366L10.1561 11.3367ZM48.5308 12.1347H53.7758C53.1998 12.9972 52.4195 13.7041 51.5045 14.1924C50.5895 14.6808 49.568 14.9356 48.5308 14.9342C47.3006 14.9345 46.0937 14.5982 45.0408 13.9617C43.988 13.3253 43.1294 12.4129 42.5579 11.3234C42.4048 11.0096 42.1673 10.7446 41.872 10.5582C41.5767 10.3718 41.2354 10.2714 40.8862 10.2681H36.398V6.53515H40.886C41.2363 6.53267 41.5789 6.43163 41.8746 6.24357C42.1702 6.05552 42.4069 5.78805 42.5577 5.47176C43.0664 4.459 43.8296 3.5958 44.7724 2.96675C45.7151 2.3377 46.8052 1.9644 47.9356 1.88342C49.0661 1.80243 50.1982 2.01656 51.221 2.5048C52.2438 2.99304 53.1222 3.73865 53.7702 4.66855H48.5306C47.4998 4.66855 46.6641 5.50413 46.6641 6.53515V10.2681C46.6641 11.299 47.4997 12.1347 48.5306 12.1347H48.5308Z" fill="#0A0A26"/>
<path d="M6.53335 5.60156C4.98687 5.60156 3.7334 6.85504 3.7334 8.40162C3.7334 9.94777 4.98677 11.2012 6.53335 11.2012C8.0795 11.2012 9.33297 9.94777 9.33297 8.40162C9.33303 8.03393 9.26066 7.66984 9.11999 7.33012C8.97932 6.9904 8.77311 6.68172 8.51314 6.42171C8.25316 6.16169 7.94451 5.95543 7.60482 5.81471C7.26513 5.67399 6.90104 5.60156 6.53335 5.60156ZM6.53335 9.33465C6.28584 9.33465 6.04846 9.23632 5.87345 9.06131C5.69843 8.88629 5.60011 8.64892 5.60011 8.4014C5.60011 8.15389 5.69843 7.91652 5.87345 7.7415C6.04846 7.56648 6.28584 7.46816 6.53335 7.46816C7.04859 7.46816 7.46648 7.88595 7.46648 8.40162C7.46648 8.91675 7.0487 9.33465 6.53335 9.33465ZM25.1987 27.0669H23.3322C23.2096 27.067 23.0883 27.0911 22.9751 27.1381C22.8618 27.185 22.759 27.2538 22.6723 27.3404C22.5857 27.4271 22.517 27.53 22.4701 27.6432C22.4232 27.7565 22.3991 27.8778 22.3992 28.0004C22.3992 28.5156 22.8169 28.9334 23.3322 28.9334H25.1987C25.4462 28.9334 25.6836 28.8351 25.8586 28.6601C26.0336 28.4851 26.1319 28.2477 26.1319 28.0002C26.1319 27.7527 26.0336 27.5153 25.8586 27.3403C25.6836 27.1653 25.4462 27.0669 25.1987 27.0669Z" fill="#0A0A26"/>
</svg>
