<svg width="104" height="48" viewBox="0 0 104 48" fill="none" xmlns="http://www.w3.org/2000/svg">
<rect x="0.5" y="0.5" width="103" height="47" rx="7.5" fill="white" stroke="#C2C2C9"/>
<path d="M47.517 24.6481C47.517 27.42 45.3485 29.4627 42.6872 29.4627C40.0259 29.4627 37.8574 27.42 37.8574 24.6481C37.8574 21.8566 40.0259 19.8335 42.6872 19.8335C45.3485 19.8335 47.517 21.8566 47.517 24.6481ZM45.4027 24.6481C45.4027 22.9159 44.1459 21.7307 42.6872 21.7307C41.2285 21.7307 39.9717 22.9159 39.9717 24.6481C39.9717 26.3629 41.2285 27.5655 42.6872 27.5655C44.1459 27.5655 45.4027 26.3607 45.4027 24.6481Z" fill="#EA4335"/>
<path d="M57.9369 24.6481C57.9369 27.42 55.7684 29.4627 53.1071 29.4627C50.4459 29.4627 48.2773 27.42 48.2773 24.6481C48.2773 21.8587 50.4459 19.8335 53.1071 19.8335C55.7684 19.8335 57.9369 21.8566 57.9369 24.6481ZM55.8226 24.6481C55.8226 22.9159 54.5658 21.7307 53.1071 21.7307C51.6484 21.7307 50.3916 22.9159 50.3916 24.6481C50.3916 26.3629 51.6484 27.5655 53.1071 27.5655C54.5658 27.5655 55.8226 26.3607 55.8226 24.6481Z" fill="#FBBC05"/>
<path d="M67.9216 20.1244V28.768C67.9216 32.3236 65.8248 33.7758 63.3458 33.7758C61.0124 33.7758 59.6079 32.2151 59.0783 30.9387L60.919 30.1725C61.2468 30.9561 62.0499 31.8808 63.3437 31.8808C64.9304 31.8808 65.9138 30.9018 65.9138 29.0589V28.3665H65.84C65.3668 28.9504 64.4551 29.4605 63.3046 29.4605C60.8973 29.4605 58.6919 27.3636 58.6919 24.6654C58.6919 21.9477 60.8973 19.8335 63.3046 19.8335C64.4529 19.8335 65.3646 20.3436 65.84 20.9102H65.9138V20.1265H67.9216V20.1244ZM66.0635 24.6654C66.0635 22.9701 64.9326 21.7307 63.4935 21.7307C62.0348 21.7307 60.8127 22.9701 60.8127 24.6654C60.8127 26.3434 62.0348 27.5655 63.4935 27.5655C64.9326 27.5655 66.0635 26.3434 66.0635 24.6654Z" fill="#4285F4"/>
<path d="M71.2316 15.0576V29.1671H69.1694V15.0576H71.2316Z" fill="#34A853"/>
<path d="M79.2677 26.2334L80.9087 27.3274C80.3791 28.111 79.1027 29.4612 76.8973 29.4612C74.1622 29.4612 72.1196 27.3469 72.1196 24.6466C72.1196 21.7835 74.1796 19.832 76.6607 19.832C79.1592 19.832 80.3813 21.8204 80.7807 22.8949L80.9999 23.4419L74.5638 26.1075C75.0566 27.0734 75.8228 27.5662 76.8973 27.5662C77.974 27.5662 78.7207 27.0365 79.2677 26.2334ZM74.2165 24.5012L78.5188 22.7147C78.2822 22.1134 77.5702 21.6945 76.7323 21.6945C75.6578 21.6945 74.1622 22.6431 74.2165 24.5012Z" fill="#EA4335"/>
<path d="M30.0519 23.3956V21.353H36.9352C37.0025 21.709 37.0372 22.1301 37.0372 22.5859C37.0372 24.1184 36.6183 26.0134 35.2681 27.3636C33.9548 28.7311 32.2769 29.4605 30.0541 29.4605C25.9341 29.4605 22.4697 26.1046 22.4697 21.9846C22.4697 17.8647 25.9341 14.5088 30.0541 14.5088C32.3333 14.5088 33.957 15.4031 35.1769 16.5688L33.7356 18.0101C32.8608 17.1896 31.6756 16.5514 30.0519 16.5514C27.0434 16.5514 24.6903 18.9761 24.6903 21.9846C24.6903 24.9932 27.0434 27.4179 30.0519 27.4179C32.0034 27.4179 33.1148 26.6342 33.8268 25.9223C34.4042 25.3449 34.784 24.52 34.9338 23.3934L30.0519 23.3956Z" fill="#4285F4"/>
</svg>
