<svg width="16" height="16" viewBox="0 0 16 16" fill="none" xmlns="http://www.w3.org/2000/svg">
<path d="M9.7999 14.0011V10.4011C9.7999 10.2419 9.73669 10.0893 9.62417 9.9768C9.51165 9.86428 9.35903 9.80106 9.1999 9.80106H6.7999C6.64077 9.80106 6.48816 9.86428 6.37564 9.9768C6.26312 10.0893 6.1999 10.2419 6.1999 10.4011V14.0011C6.1999 14.1602 6.13669 14.3128 6.02417 14.4253C5.91164 14.5379 5.75903 14.6011 5.5999 14.6011H1.9999C1.84077 14.6011 1.68816 14.5379 1.57564 14.4253C1.46312 14.3128 1.3999 14.1602 1.3999 14.0011V7.06656C1.39991 6.98295 1.41739 6.90026 1.45123 6.8238C1.48507 6.74734 1.53452 6.67879 1.5964 6.62256L7.5964 0.957064C7.70688 0.856509 7.85089 0.800781 8.00028 0.800781C8.14966 0.800781 8.29368 0.856509 8.40415 0.957064L14.4042 6.62256C14.466 6.67879 14.5155 6.74734 14.5493 6.8238C14.5832 6.90026 14.6006 6.98295 14.6007 7.06656V14.0011C14.6007 14.1602 14.5374 14.3128 14.4249 14.4253C14.3124 14.5379 14.1598 14.6011 14.0007 14.6011H10.3999C10.2408 14.6011 10.0882 14.5379 9.97564 14.4253C9.86312 14.3128 9.7999 14.1602 9.7999 14.0011Z" stroke="#4040FF" stroke-width="1.5" stroke-linecap="round" stroke-linejoin="round"/>
</svg>
