<svg width="56" height="56" viewBox="0 0 56 56" fill="none" xmlns="http://www.w3.org/2000/svg">
<circle opacity="0.1" cx="28" cy="28" r="28" fill="#0A0A26"/>
<path d="M1.4 56H54.6C54.9713 56 55.3274 55.8525 55.59 55.59C55.8525 55.3274 56 54.9713 56 54.6V21C56 20.6287 55.8525 20.2726 55.59 20.01C55.3274 19.7475 54.9713 19.6 54.6 19.6H47.6V7C47.6 6.6287 47.4525 6.2726 47.1899 6.01005C46.9274 5.7475 46.5713 5.6 46.2 5.6H39.2V4.2C39.2 3.08609 38.7575 2.0178 37.9698 1.23015C37.1822 0.442499 36.1139 0 35 0H21C19.8861 0 18.8178 0.442499 18.0302 1.23015C17.2425 2.0178 16.8 3.08609 16.8 4.2V5.6H9.8C9.4287 5.6 9.0726 5.7475 8.81005 6.01005C8.5475 6.2726 8.4 6.6287 8.4 7V19.6H1.4C1.0287 19.6 0.672602 19.7475 0.410051 20.01C0.1475 20.2726 0 20.6287 0 21V54.6C0 54.9713 0.1475 55.3274 0.410051 55.59C0.672602 55.8525 1.0287 56 1.4 56ZM47.6 22.4H53.2V53.2H47.6V22.4ZM32.2 53.2H23.8V43.4H32.2V53.2ZM19.6 4.2C19.6 3.8287 19.7475 3.4726 20.01 3.21005C20.2726 2.9475 20.6287 2.8 21 2.8H35C35.3713 2.8 35.7274 2.9475 35.9899 3.21005C36.2525 3.4726 36.4 3.8287 36.4 4.2V18.2C36.4 18.5713 36.2525 18.9274 35.9899 19.19C35.7274 19.4525 35.3713 19.6 35 19.6H21C20.6287 19.6 20.2726 19.4525 20.01 19.19C19.7475 18.9274 19.6 18.5713 19.6 18.2V4.2ZM11.2 8.4H16.8V18.2C16.8 19.3139 17.2425 20.3822 18.0302 21.1698C18.8178 21.9575 19.8861 22.4 21 22.4H35C36.1139 22.4 37.1822 21.9575 37.9698 21.1698C38.7575 20.3822 39.2 19.3139 39.2 18.2V8.4H44.8V53.2H35V42C35 41.6287 34.8525 41.2726 34.59 41.01C34.3274 40.7475 33.9713 40.6 33.6 40.6H22.4C22.0287 40.6 21.6726 40.7475 21.41 41.01C21.1475 41.2726 21 41.6287 21 42V53.2H11.2V8.4ZM2.8 22.4H8.4V53.2H2.8V22.4Z" fill="#4040FF"/>
<path d="M23.7998 12.5996H26.5998V15.3996C26.5998 15.7709 26.7473 16.127 27.0099 16.3896C27.2724 16.6521 27.6285 16.7996 27.9998 16.7996C28.3711 16.7996 28.7272 16.6521 28.9898 16.3896C29.2523 16.127 29.3998 15.7709 29.3998 15.3996V12.5996H32.1998C32.5711 12.5996 32.9272 12.4521 33.1898 12.1896C33.4523 11.927 33.5998 11.5709 33.5998 11.1996C33.5998 10.8283 33.4523 10.4722 33.1898 10.2097C32.9272 9.94711 32.5711 9.79961 32.1998 9.79961H29.3998V6.99961C29.3998 6.62831 29.2523 6.27221 28.9898 6.00966C28.7272 5.74711 28.3711 5.59961 27.9998 5.59961C27.6285 5.59961 27.2724 5.74711 27.0099 6.00966C26.7473 6.27221 26.5998 6.62831 26.5998 6.99961V9.79961H23.7998C23.4285 9.79961 23.0724 9.94711 22.8099 10.2097C22.5473 10.4722 22.3998 10.8283 22.3998 11.1996C22.3998 11.5709 22.5473 11.927 22.8099 12.1896C23.0724 12.4521 23.4285 12.5996 23.7998 12.5996ZM18.1998 29.3996H20.9998C21.3711 29.3996 21.7272 29.2521 21.9898 28.9896C22.2523 28.727 22.3998 28.3709 22.3998 27.9996C22.3998 27.6283 22.2523 27.2722 21.9898 27.0097C21.7272 26.7471 21.3711 26.5996 20.9998 26.5996H18.1998C17.8285 26.5996 17.4724 26.7471 17.2099 27.0097C16.9473 27.2722 16.7998 27.6283 16.7998 27.9996C16.7998 28.3709 16.9473 28.727 17.2099 28.9896C17.4724 29.2521 17.8285 29.3996 18.1998 29.3996ZM22.3998 34.9996C22.3998 34.6283 22.2523 34.2722 21.9898 34.0097C21.7272 33.7471 21.3711 33.5996 20.9998 33.5996H18.1998C17.8285 33.5996 17.4724 33.7471 17.2099 34.0097C16.9473 34.2722 16.7998 34.6283 16.7998 34.9996C16.7998 35.3709 16.9473 35.727 17.2099 35.9896C17.4724 36.2521 17.8285 36.3996 18.1998 36.3996H20.9998C21.3711 36.3996 21.7272 36.2521 21.9898 35.9896C22.2523 35.727 22.3998 35.3709 22.3998 34.9996ZM26.5998 29.3996H29.3998C29.7711 29.3996 30.1272 29.2521 30.3898 28.9896C30.6523 28.727 30.7998 28.3709 30.7998 27.9996C30.7998 27.6283 30.6523 27.2722 30.3898 27.0097C30.1272 26.7471 29.7711 26.5996 29.3998 26.5996H26.5998C26.2285 26.5996 25.8724 26.7471 25.6099 27.0097C25.3473 27.2722 25.1998 27.6283 25.1998 27.9996C25.1998 28.3709 25.3473 28.727 25.6099 28.9896C25.8724 29.2521 26.2285 29.3996 26.5998 29.3996ZM26.5998 36.3996H29.3998C29.7711 36.3996 30.1272 36.2521 30.3898 35.9896C30.6523 35.727 30.7998 35.3709 30.7998 34.9996C30.7998 34.6283 30.6523 34.2722 30.3898 34.0097C30.1272 33.7471 29.7711 33.5996 29.3998 33.5996H26.5998C26.2285 33.5996 25.8724 33.7471 25.6099 34.0097C25.3473 34.2722 25.1998 34.6283 25.1998 34.9996C25.1998 35.3709 25.3473 35.727 25.6099 35.9896C25.8724 36.2521 26.2285 36.3996 26.5998 36.3996ZM34.9998 29.3996H37.7998C38.1711 29.3996 38.5272 29.2521 38.7898 28.9896C39.0523 28.727 39.1998 28.3709 39.1998 27.9996C39.1998 27.6283 39.0523 27.2722 38.7898 27.0097C38.5272 26.7471 38.1711 26.5996 37.7998 26.5996H34.9998C34.6285 26.5996 34.2724 26.7471 34.0099 27.0097C33.7473 27.2722 33.5998 27.6283 33.5998 27.9996C33.5998 28.3709 33.7473 28.727 34.0099 28.9896C34.2724 29.2521 34.6285 29.3996 34.9998 29.3996ZM34.9998 36.3996H37.7998C38.1711 36.3996 38.5272 36.2521 38.7898 35.9896C39.0523 35.727 39.1998 35.3709 39.1998 34.9996C39.1998 34.6283 39.0523 34.2722 38.7898 34.0097C38.5272 33.7471 38.1711 33.5996 37.7998 33.5996H34.9998C34.6285 33.5996 34.2724 33.7471 34.0099 34.0097C33.7473 34.2722 33.5998 34.6283 33.5998 34.9996C33.5998 35.3709 33.7473 35.727 34.0099 35.9896C34.2724 36.2521 34.6285 36.3996 34.9998 36.3996Z" fill="#4040FF"/>
</svg>
