<svg width="56" height="56" viewBox="0 0 56 56" fill="none" xmlns="http://www.w3.org/2000/svg">
<circle opacity="0.1" cx="28" cy="28" r="28" fill="#0A0A26"/>
<path fill-rule="evenodd" clip-rule="evenodd" d="M17.9355 2H19.6129V4.07122C20.6892 4.87458 21.0749 6.17981 21.2131 7.03237H22.129V8.70979H21.2903V12.0645H34.7097V8.70979H33.871V7.03237H34.7868C34.9251 6.17981 35.3107 4.87459 36.3871 4.07123V2H38.0645V4.07124C39.1409 4.8746 39.5265 6.17982 39.6647 7.03237H40.5806V8.70979H39.7419V16.2582H42.258V17.9356H40.5806V22.9676H52.3226V26.3226H54V28.0001H52.3226V31.3547H54V33.2838L52.3226 35.7999V52.3226H54V54H2V52.3226H3.67743V35.7999L2 33.2838V31.3547H3.67743V28.0001H2V26.3226H3.67743V22.9676H15.4193V17.9356H13.7419V16.2582H16.2581V8.70979H15.4193V7.03237H16.3352C16.4734 6.17982 16.8591 4.87461 17.9355 4.07125V2ZM34.7097 13.7419H21.2903V16.2582H34.7097V13.7419ZM5.35485 31.3547H7.03224V28.0001H5.35485V31.3547ZM8.70966 31.3547H15.4193V28.0001H8.70966V31.3547ZM15.4193 33.0322H3.84516L4.96355 34.7097H15.4193V33.0322ZM17.0968 33.0322H20.4516V44.7742H17.0968V33.0322ZM20.4516 31.3547H17.0968V28.0001H20.4516V31.3547ZM22.1291 33.0322V52.3226H23.8064V42.2581C23.8064 38.4 26.4064 36.7226 27.8323 36.3871H28L28.1677 36.471C29.5097 36.8065 32.1935 38.4839 32.1935 42.3419V52.3226H33.871V33.0322H22.1291ZM27.1613 31.3547H25.4839V28.0001H27.1613V31.3547ZM28.8387 31.3547H30.5161V28.0001H28.8387V31.3547ZM33.871 31.3547H32.1935V28.0001H33.871V31.3547ZM23.8064 28.0001V31.3547H22.1291V28.0001H23.8064ZM35.5484 33.0322V44.7742H38.9032V33.0322H35.5484ZM35.5484 31.3547V28.0001H38.9032V31.3547H35.5484ZM40.5806 33.0322V34.7097H51.0364L52.1548 33.0322H40.5806ZM40.5806 31.3547V28.0001H47.2903V31.3547H40.5806ZM48.9677 31.3547H50.6452V28.0001H48.9677V31.3547ZM37.2258 5.52256C37.6602 5.91349 37.8696 6.52939 37.9705 7.03237H36.4811C36.582 6.52939 36.7914 5.91349 37.2258 5.52256ZM36.3871 8.70979V16.2582H38.0645V8.70979H36.3871ZM38.9032 17.9356V22.9676H35.5484V17.9356H38.9032ZM35.5484 24.6451V26.3226H38.9032V24.6451H35.5484ZM33.871 17.9356V22.9676H22.1291V17.9356H33.871ZM33.871 24.6451H22.1291V26.3226H33.871V24.6451ZM20.4516 17.9356V22.9676H17.0968V17.9356H20.4516ZM20.4516 24.6451H17.0968V26.3226H20.4516V24.6451ZM5.35485 24.6451H15.4193V26.3226H5.35485V24.6451ZM50.6452 24.6451H40.5806V26.3226H50.6452V24.6451ZM48.9677 36.3872H50.6452V52.3226H48.9677V36.3872ZM47.2903 36.3872H40.5806V41.4148C40.5825 40.3228 41.255 38.0634 43.6839 37.3097L43.9355 37.2258L44.1871 37.3097C46.6193 38.1484 47.2903 40.4129 47.2903 41.4193H46.4516V52.3226H47.2903V36.3872ZM41.4193 52.3226V41.4193H40.5806L40.5806 52.3226H41.4193ZM45.5987 41.2515C45.5409 40.7949 45.2585 39.5441 43.9355 38.9871C42.6125 39.5441 42.3301 40.7949 42.2723 41.2515H45.5987ZM38.9032 52.3226V46.4516H35.5484V52.3226H38.9032ZM30.5161 52.3226V42.2581C30.5161 39.3226 28.671 38.3161 28 38.1484C27.329 38.4 25.4839 39.4065 25.4839 42.2581V52.3226H30.5161ZM13.7277 41.2515C13.6699 40.7949 13.3875 39.5441 12.0645 38.9871C10.7415 39.5441 10.4591 40.7949 10.4013 41.2515H13.7277ZM14.5806 41.4193V52.3226H15.4193L15.4193 41.4193H14.5806ZM9.54836 52.3226H8.70966V36.3872H15.4193V41.4138C15.4169 40.4046 14.744 38.1468 12.3161 37.3097L12.0645 37.2258L11.8129 37.3097C9.38064 38.0645 8.70967 40.329 8.70967 41.4193H9.54836V52.3226ZM18.7742 5.52256C19.2086 5.91349 19.418 6.52939 19.5189 7.03237H18.0295C18.1304 6.52939 18.3398 5.91349 18.7742 5.52256ZM17.9355 8.70979V16.2582H19.6129V8.70979H17.9355ZM17.0968 52.3226V46.4516H20.4516V52.3226H17.0968ZM5.35485 36.3872V52.3226H7.03224V36.3872H5.35485ZM25.4839 34.7097H23.8064V36.3872H25.4839V34.7097ZM12.9032 52.3225H11.2258V42.9289H12.9032V52.3225ZM32.1935 34.7097H30.5161V36.3872H32.1935V34.7097ZM44.7742 52.3225H43.0968V42.9289H44.7742V52.3225Z" fill="#0A0A26"/>
</svg>
