<svg width="56" height="56" viewBox="0 0 56 56" fill="none" xmlns="http://www.w3.org/2000/svg">
<circle opacity="0.1" cx="28" cy="28" r="28" fill="#0A0A26"/>
<path fill-rule="evenodd" clip-rule="evenodd" d="M49.5711 35.7207C49.8285 35.7207 50 35.5491 50 35.2917V24.9976C50 24.7403 49.8285 24.5687 49.5711 24.5687H47.4265V18.5638H48.7133C48.9706 18.5638 49.1422 18.3922 49.1422 18.1349V14.7035C49.1422 14.4461 48.9706 14.2746 48.7133 14.2746H47.4265V11.2721H47.8554C48.1128 11.2721 48.2843 11.1005 48.2843 10.8432V8.26966C48.2843 8.01231 48.1128 7.84074 47.8554 7.84074H47.4265V5.00986C47.4265 4.06623 46.9976 3.20839 46.1397 2.69368L45.7108 2.43633V0.977994C45.7108 0.720641 45.5392 0.549072 45.2819 0.549072C45.0245 0.549072 44.853 0.720641 44.853 0.977994V2.43633L44.424 2.69368C43.652 3.20839 43.1373 4.06623 43.1373 5.00986V7.84074H42.7084C42.451 7.84074 42.2794 8.01231 42.2794 8.26966V10.8432C42.2794 11.1005 42.451 11.2721 42.7084 11.2721H43.1373V14.2746H41.8505C41.5932 14.2746 41.4216 14.4461 41.4216 14.7035V18.1349C41.4216 18.3922 41.5932 18.5638 41.8505 18.5638H43.1373V19.4216H13.1127V18.5638H14.3995C14.6569 18.5638 14.8284 18.3922 14.8284 18.1349V14.7035C14.8284 14.4461 14.6569 14.2746 14.3995 14.2746H13.1127V11.2721H13.5417C13.799 11.2721 13.9706 11.1005 13.9706 10.8432V8.26966C13.9706 8.01231 13.799 7.84074 13.5417 7.84074H13.1127V5.00986C13.1127 4.06623 12.6838 3.20839 11.826 2.69368L11.3971 2.43633V0.977994C11.3971 0.720641 11.2255 0.549072 10.9681 0.549072C10.7108 0.549072 10.5392 0.720641 10.5392 0.977994V2.43633L10.1103 2.69368C9.33824 3.20839 8.82353 4.06623 8.82353 5.00986V7.84074H8.39461C8.13726 7.84074 7.96569 8.01231 7.96569 8.26966V10.8432C7.96569 11.1005 8.13726 11.2721 8.39461 11.2721H8.82353V14.2746H7.53677C7.27941 14.2746 7.10784 14.4461 7.10784 14.7035V18.1349C7.10784 18.3922 7.27941 18.5638 7.53677 18.5638H8.82353V24.5687H6.67892C6.42157 24.5687 6.25 24.7403 6.25 24.9976V35.2917C6.25 35.5491 6.42157 35.7207 6.67892 35.7207H7.96569V54.5932H6.67892C6.42157 54.5932 6.25 54.7648 6.25 55.0221C6.25 55.2795 6.42157 55.4511 6.67892 55.4511H49.5711C49.8285 55.4511 50 55.2795 50 55.0221C50 54.7648 49.8285 54.5932 49.5711 54.5932H48.2843V35.7207H49.5711ZM41.4216 34.8628V25.4265H49.1422V34.8628H41.4216ZM37.5613 34.8628H36.2745V31.0025C36.2745 29.7998 37.0989 29.1967 37.4868 28.9128C37.5009 28.9025 37.5145 28.8926 37.5274 28.8831C37.5392 28.8744 37.5506 28.866 37.5613 28.8579C37.9044 29.0295 38.8481 29.63 38.8481 31.0025V34.8628H37.5613ZM37.7329 28.0001H37.4755C37.3897 28.0001 35.4167 28.7721 35.4167 31.0025V34.8628H34.5588V31.0025C34.5588 29.038 33.0948 28.2714 32.687 28.058L32.687 28.0579C32.6319 28.0291 32.596 28.0103 32.5858 28.0001H32.3284C32.2427 28.0001 30.2696 28.7721 30.2696 31.0025V34.8628H25.9804V31.0025C25.9804 29.038 24.5163 28.2714 24.1086 28.058L24.1086 28.0579C24.0534 28.0291 24.0176 28.0103 24.0074 28.0001H23.75C23.6642 28.0001 21.6912 28.7721 21.6912 31.0025V34.8628H20.8333V31.0025C20.8333 29.038 19.3693 28.2714 18.9616 28.058L18.9615 28.0579C18.9063 28.0291 18.8705 28.0103 18.8603 28.0001H18.6029C18.5172 28.0001 16.5441 28.7721 16.5441 31.0025V34.8628H15.6863V25.4265H16.5441V25.8555C16.5441 26.1128 16.7157 26.2844 16.973 26.2844C17.2304 26.2844 17.402 26.1128 17.402 25.8555V25.4265H18.2598V25.8555C18.2598 26.1128 18.4314 26.2844 18.6887 26.2844C18.9461 26.2844 19.1177 26.1128 19.1177 25.8555V25.4265H19.9755V25.8555C19.9755 26.1128 20.1471 26.2844 20.4044 26.2844C20.6618 26.2844 20.8333 26.1128 20.8333 25.8555V25.4265H21.6912V25.8555C21.6912 26.1128 21.8628 26.2844 22.1201 26.2844C22.3775 26.2844 22.549 26.1128 22.549 25.8555V25.4265H23.4069V25.8555C23.4069 26.1128 23.5784 26.2844 23.8358 26.2844C24.0931 26.2844 24.2647 26.1128 24.2647 25.8555V25.4265H25.1226V25.8555C25.1226 26.1128 25.2941 26.2844 25.5515 26.2844C25.8088 26.2844 25.9804 26.1128 25.9804 25.8555V25.4265H26.8382V25.8555C26.8382 26.1128 27.0098 26.2844 27.2672 26.2844C27.5245 26.2844 27.6961 26.1128 27.6961 25.8555V25.4265H28.5539V25.8555C28.5539 26.1128 28.7255 26.2844 28.9829 26.2844C29.2402 26.2844 29.4118 26.1128 29.4118 25.8555V25.4265H30.2696V25.8555C30.2696 26.1128 30.4412 26.2844 30.6985 26.2844C30.9559 26.2844 31.1275 26.1128 31.1275 25.8555V25.4265H31.9853V25.8555C31.9853 26.1128 32.1569 26.2844 32.4142 26.2844C32.6716 26.2844 32.8432 26.1128 32.8432 25.8555V25.4265H33.701V25.8555C33.701 26.1128 33.8726 26.2844 34.1299 26.2844C34.3873 26.2844 34.5588 26.1128 34.5588 25.8555V25.4265H35.4167V25.8555C35.4167 26.1128 35.5883 26.2844 35.8456 26.2844C36.103 26.2844 36.2745 26.1128 36.2745 25.8555V25.4265H37.1324V25.8555C37.1324 26.1128 37.3039 26.2844 37.5613 26.2844C37.8186 26.2844 37.9902 26.1128 37.9902 25.8555V25.4265H38.8481V25.8555C38.8481 26.1128 39.0196 26.2844 39.277 26.2844C39.5343 26.2844 39.7059 26.1128 39.7059 25.8555V25.4265H40.5637V34.8628H39.7059V31.0025C39.7059 29.038 38.2418 28.2714 37.8341 28.058L37.8341 28.0579C37.7789 28.0291 37.7431 28.0103 37.7329 28.0001ZM31.1275 34.8628V31.0025C31.1275 29.7998 31.9518 29.1967 32.3397 28.9128C32.3512 28.9044 32.3623 28.8963 32.373 28.8884C32.3876 28.8778 32.4013 28.8676 32.4142 28.8579C32.7574 29.0295 33.701 29.63 33.701 31.0025V34.8628H31.1275ZM22.549 34.8628V31.0025C22.549 29.7998 23.3734 29.1967 23.7613 28.9128C23.7884 28.893 23.8134 28.8747 23.8358 28.8579C24.1789 29.0295 25.1226 29.63 25.1226 31.0025V34.8628H22.549ZM18.6887 34.8628H17.402V31.0025C17.402 29.7998 18.2263 29.1967 18.6142 28.9128C18.6413 28.893 18.6663 28.8747 18.6887 28.8579C19.0319 29.0295 19.9755 29.63 19.9755 31.0025V34.8628H18.6887ZM13.1127 21.9952H43.1373V24.5687H41.4216V24.1398C41.4216 23.4535 40.8211 22.853 40.1348 22.853C39.4485 22.853 38.8481 23.4535 38.8481 24.1398V24.5687H37.9902V24.1398C37.9902 23.4535 37.3897 22.853 36.7034 22.853C36.0172 22.853 35.4167 23.4535 35.4167 24.1398V24.5687H34.5588V24.1398C34.5588 23.4535 33.9583 22.853 33.2721 22.853C32.5858 22.853 31.9853 23.4535 31.9853 24.1398V24.5687H31.1275V24.1398C31.1275 23.4535 30.527 22.853 29.8407 22.853C29.1544 22.853 28.5539 23.4535 28.5539 24.1398V24.5687H27.6961V24.1398C27.6961 23.4535 27.0956 22.853 26.4093 22.853C25.723 22.853 25.1226 23.4535 25.1226 24.1398V24.5687H24.2647V24.1398C24.2647 23.4535 23.6642 22.853 22.9779 22.853C22.2917 22.853 21.6912 23.4535 21.6912 24.1398V24.5687H20.8333V24.1398C20.8333 23.4535 20.2329 22.853 19.5466 22.853C18.8603 22.853 18.2598 23.4535 18.2598 24.1398V24.5687H17.402V24.1398C17.402 23.4535 16.8015 22.853 16.1152 22.853C15.4289 22.853 14.8284 23.4535 14.8284 24.1398V24.5687H13.1127V21.9952ZM40.5637 24.5687H39.7059V24.1398C39.7059 23.8824 39.8775 23.7108 40.1348 23.7108C40.3922 23.7108 40.5637 23.8824 40.5637 24.1398V24.5687ZM37.1324 24.5687H36.2745V24.1398C36.2745 23.8824 36.4461 23.7108 36.7034 23.7108C36.9608 23.7108 37.1324 23.8824 37.1324 24.1398V24.5687ZM32.8432 24.5687V24.1398C32.8432 23.8824 33.0147 23.7108 33.2721 23.7108C33.5294 23.7108 33.701 23.8824 33.701 24.1398V24.5687H32.8432ZM30.2696 24.5687H29.4118V24.1398C29.4118 23.8824 29.5833 23.7108 29.8407 23.7108C30.0981 23.7108 30.2696 23.8824 30.2696 24.1398V24.5687ZM26.8382 24.5687H25.9804V24.1398C25.9804 23.8824 26.152 23.7108 26.4093 23.7108C26.6667 23.7108 26.8382 23.8824 26.8382 24.1398V24.5687ZM23.4069 24.5687H22.549V24.1398C22.549 23.8824 22.7206 23.7108 22.9779 23.7108C23.2353 23.7108 23.4069 23.8824 23.4069 24.1398V24.5687ZM19.9755 24.5687H19.1177V24.1398C19.1177 23.8824 19.2892 23.7108 19.5466 23.7108C19.8039 23.7108 19.9755 23.8824 19.9755 24.1398V24.5687ZM16.5441 24.5687H15.6863V24.1398C15.6863 23.8824 15.8578 23.7108 16.1152 23.7108C16.3726 23.7108 16.5441 23.8824 16.5441 24.1398V24.5687ZM47.4265 10.4143H46.5686V9.98535C46.5686 9.728 46.3971 9.55643 46.1397 9.55643C45.8824 9.55643 45.7108 9.728 45.7108 9.98535V10.4143H44.853V9.98535C44.853 9.728 44.6814 9.55643 44.424 9.55643C44.1667 9.55643 43.9951 9.728 43.9951 9.98535V10.4143H43.1373V8.69859H47.4265V10.4143ZM44.853 3.46574L45.2819 3.20839L45.7108 3.46574C46.2255 3.80888 46.4829 4.32358 46.5686 4.83829H43.9951C44.0809 4.2378 44.3383 3.72309 44.853 3.46574ZM46.5686 5.69613V7.84074H45.7108V6.9829C45.7108 6.72555 45.5392 6.55398 45.2819 6.55398C45.0245 6.55398 44.853 6.72555 44.853 6.9829V7.84074H43.9951V5.69613H46.5686ZM46.5686 11.2721V14.2746H43.9951V11.2721H46.5686ZM42.2794 17.7059V15.1324H48.2843V17.7059H47.4265V16.4192C47.4265 16.1618 47.2549 15.9903 46.9976 15.9903C46.7402 15.9903 46.5686 16.1618 46.5686 16.4192V17.7059H45.7108V16.4192C45.7108 16.1618 45.5392 15.9903 45.2819 15.9903C45.0245 15.9903 44.853 16.1618 44.853 16.4192V17.7059H43.9951V16.4192C43.9951 16.1618 43.8235 15.9903 43.5662 15.9903C43.3088 15.9903 43.1373 16.1618 43.1373 16.4192V17.7059H42.2794ZM46.5686 18.5638V24.5687H43.9951V18.5638H46.5686ZM43.1373 20.2795V21.1373H13.1127V20.2795H43.1373ZM13.1127 10.4143H12.2549V9.98535C12.2549 9.728 12.0833 9.55643 11.826 9.55643C11.5686 9.55643 11.3971 9.728 11.3971 9.98535V10.4143H10.5392V9.98535C10.5392 9.728 10.3676 9.55643 10.1103 9.55643C9.85294 9.55643 9.68137 9.728 9.68137 9.98535V10.4143H8.82353V8.69859H13.1127V10.4143ZM10.5392 3.46574L10.9681 3.20839L11.3971 3.46574C11.9118 3.80888 12.1691 4.32358 12.2549 4.83829H9.68137C9.76716 4.2378 10.0245 3.72309 10.5392 3.46574ZM9.68137 5.69613H12.2549V7.84074H11.3971V6.9829C11.3971 6.72555 11.2255 6.55398 10.9681 6.55398C10.7108 6.55398 10.5392 6.72555 10.5392 6.9829V7.84074H9.68137V5.69613ZM9.68137 11.2721H12.2549V14.2746H9.68137V11.2721ZM7.96569 17.7059V15.1324H13.9706V17.7059H13.1127V16.4192C13.1127 16.1618 12.9412 15.9903 12.6838 15.9903C12.4265 15.9903 12.2549 16.1618 12.2549 16.4192V17.7059H11.3971V16.4192C11.3971 16.1618 11.2255 15.9903 10.9681 15.9903C10.7108 15.9903 10.5392 16.1618 10.5392 16.4192V17.7059H9.68137V16.4192C9.68137 16.1618 9.50981 15.9903 9.25245 15.9903C8.9951 15.9903 8.82353 16.1618 8.82353 16.4192V17.7059H7.96569ZM9.68137 18.5638H12.2549V24.5687H9.68137V18.5638ZM7.10784 25.4265H14.8284V34.8628H7.10784V25.4265ZM13.1127 35.7207V54.5932H8.82353V35.7207H13.1127ZM14.8284 35.7207V36.1496C14.8284 36.4069 15 36.5785 15.2574 36.5785C15.5147 36.5785 15.6863 36.4069 15.6863 36.1496V35.7207H16.5441V36.1496C16.5441 36.4069 16.7157 36.5785 16.973 36.5785C17.2304 36.5785 17.402 36.4069 17.402 36.1496V35.7207H18.2598V54.5932H13.9706V35.7207H14.8284ZM19.9755 35.7207V36.1496C19.9755 36.4069 20.1471 36.5785 20.4044 36.5785C20.6618 36.5785 20.8333 36.4069 20.8333 36.1496V35.7207H21.6912V36.1496C21.6912 36.4069 21.8628 36.5785 22.1201 36.5785C22.3775 36.5785 22.549 36.4069 22.549 36.1496V35.7207H23.4069V36.1496C23.4069 36.4069 23.5784 36.5785 23.8358 36.5785C24.0931 36.5785 24.2647 36.4069 24.2647 36.1496V35.7207H25.1226V36.1496C25.1226 36.4069 25.2941 36.5785 25.5515 36.5785C25.8088 36.5785 25.9804 36.4069 25.9804 36.1496V35.7207H26.8382V36.1496C26.8382 36.4069 27.0098 36.5785 27.2672 36.5785C27.5245 36.5785 27.6961 36.4069 27.6961 36.1496V35.7207H28.5539V36.1496C28.5539 36.4069 28.7255 36.5785 28.9829 36.5785C29.2402 36.5785 29.4118 36.4069 29.4118 36.1496V35.7207H30.2696V36.1496C30.2696 36.4069 30.4412 36.5785 30.6985 36.5785C30.9559 36.5785 31.1275 36.4069 31.1275 36.1496V35.7207H31.9853V36.1496C31.9853 36.4069 32.1569 36.5785 32.4142 36.5785C32.6716 36.5785 32.8432 36.4069 32.8432 36.1496V35.7207H33.701V36.1496C33.701 36.4069 33.8726 36.5785 34.1299 36.5785C34.3873 36.5785 34.5588 36.4069 34.5588 36.1496V35.7207H35.4167V36.1496C35.4167 36.4069 35.5883 36.5785 35.8456 36.5785C36.103 36.5785 36.2745 36.4069 36.2745 36.1496V35.7207H37.1324V54.5932H35.4167V46.1006C35.4167 43.1839 33.7868 40.5246 30.9559 38.9805L28.2966 37.5221C28.125 37.4363 28.0392 37.4363 27.8677 37.5221L25.2083 38.9805C22.4632 40.5246 20.7476 43.1839 20.7476 46.1006V54.5932H19.0319V35.7207H19.1177H19.9755ZM21.6912 54.5932V46.1006C21.6912 43.527 23.1495 41.1251 25.6373 39.7525L28.125 38.38L30.527 39.7525C33.0147 41.1251 34.5588 43.527 34.5588 46.1006V54.5932H21.6912ZM37.9902 35.7207H38.8481V36.1496C38.8481 36.4069 39.0196 36.5785 39.277 36.5785C39.5343 36.5785 39.7059 36.4069 39.7059 36.1496V35.7207H40.5637V36.1496C40.5637 36.4069 40.7353 36.5785 40.9927 36.5785C41.25 36.5785 41.4216 36.4069 41.4216 36.1496V35.7207H42.2794V54.5932H37.9902V35.7207ZM43.1373 54.5932V35.7207H47.4265V54.5932H43.1373ZM16.1152 41.7256C15.4289 41.7256 14.8284 42.3261 14.8284 43.0123V44.728C14.8284 44.9854 15 45.157 15.2574 45.157H16.973C17.2304 45.157 17.402 44.9854 17.402 44.728V43.0123C17.402 42.3261 16.8015 41.7256 16.1152 41.7256ZM15.6863 44.2991V43.0123C15.6863 42.755 15.8578 42.5834 16.1152 42.5834C16.3726 42.5834 16.5441 42.755 16.5441 43.0123V44.2991H15.6863ZM16.1152 37.4364C15.4289 37.4364 14.8284 38.0369 14.8284 38.7231V40.4388C14.8284 40.6962 15 40.8677 15.2574 40.8677H16.973C17.2304 40.8677 17.402 40.6962 17.402 40.4388V38.7231C17.402 38.0369 16.8015 37.4364 16.1152 37.4364ZM15.6863 40.0099V38.7231C15.6863 38.4658 15.8578 38.2942 16.1152 38.2942C16.3726 38.2942 16.5441 38.4658 16.5441 38.7231V40.0099H15.6863ZM10.1103 34.005C10.3677 34.005 10.5392 33.8334 10.5392 33.5761V31.8604C10.5392 31.1741 9.93873 30.5736 9.25245 30.5736C8.56618 30.5736 7.96569 31.1741 7.96569 31.8604V33.5761C7.96569 33.8334 8.13726 34.005 8.39461 34.005H10.1103ZM8.82353 31.8604C8.82353 31.603 8.9951 31.4315 9.25245 31.4315C9.50981 31.4315 9.68138 31.603 9.68138 31.8604V33.1471H8.82353V31.8604ZM8.39461 29.7158H10.1103C10.3677 29.7158 10.5392 29.5442 10.5392 29.2868V27.5712C10.5392 26.8849 9.93873 26.2844 9.25245 26.2844C8.56618 26.2844 7.96569 26.8849 7.96569 27.5712V29.2868C7.96569 29.5442 8.13726 29.7158 8.39461 29.7158ZM8.82353 27.5712C8.82353 27.3138 8.9951 27.1422 9.25245 27.1422C9.50981 27.1422 9.68138 27.3138 9.68138 27.5712V28.8579H8.82353V27.5712ZM13.5417 34.005C13.799 34.005 13.9706 33.8334 13.9706 33.5761V31.8604C13.9706 31.1741 13.3701 30.5736 12.6838 30.5736C11.9976 30.5736 11.3971 31.1741 11.3971 31.8604V33.5761C11.3971 33.8334 11.5686 34.005 11.826 34.005H13.5417ZM12.2549 31.8604C12.2549 31.603 12.4265 31.4315 12.6838 31.4315C12.9412 31.4315 13.1127 31.603 13.1127 31.8604V33.1471H12.2549V31.8604ZM11.826 29.7158H13.5417C13.799 29.7158 13.9706 29.5442 13.9706 29.2868V27.5712C13.9706 26.8849 13.3701 26.2844 12.6838 26.2844C11.9976 26.2844 11.3971 26.8849 11.3971 27.5712V29.2868C11.3971 29.5442 11.5686 29.7158 11.826 29.7158ZM12.2549 27.5712C12.2549 27.3138 12.4265 27.1422 12.6838 27.1422C12.9412 27.1422 13.1127 27.3138 13.1127 27.5712V28.8579H12.2549V27.5712ZM43.5662 30.5736C42.8799 30.5736 42.2794 31.1741 42.2794 31.8604V33.5761C42.2794 33.8334 42.451 34.005 42.7084 34.005H44.424C44.6814 34.005 44.853 33.8334 44.853 33.5761V31.8604C44.853 31.1741 44.2525 30.5736 43.5662 30.5736ZM43.1373 33.1471V31.8604C43.1373 31.603 43.3088 31.4315 43.5662 31.4315C43.8236 31.4315 43.9951 31.603 43.9951 31.8604V33.1471H43.1373ZM43.5662 26.2844C42.8799 26.2844 42.2794 26.8849 42.2794 27.5712V29.2868C42.2794 29.5442 42.451 29.7158 42.7084 29.7158H44.424C44.6814 29.7158 44.853 29.5442 44.853 29.2868V27.5712C44.853 26.8849 44.2525 26.2844 43.5662 26.2844ZM43.1373 28.8579V27.5712C43.1373 27.3138 43.3088 27.1422 43.5662 27.1422C43.8236 27.1422 43.9951 27.3138 43.9951 27.5712V28.8579H43.1373ZM46.9976 30.5736C46.3113 30.5736 45.7108 31.1741 45.7108 31.8604V33.5761C45.7108 33.8334 45.8824 34.005 46.1397 34.005H47.8554C48.1128 34.005 48.2843 33.8334 48.2843 33.5761V31.8604C48.2843 31.1741 47.6838 30.5736 46.9976 30.5736ZM47.4265 33.1471H46.5686V31.8604C46.5686 31.603 46.7402 31.4315 46.9976 31.4315C47.2549 31.4315 47.4265 31.603 47.4265 31.8604V33.1471ZM45.7108 27.5712V29.2868C45.7108 29.5442 45.8824 29.7158 46.1397 29.7158H47.8554C48.1128 29.7158 48.2843 29.5442 48.2843 29.2868V27.5712C48.2843 26.8849 47.6838 26.2844 46.9976 26.2844C46.3113 26.2844 45.7108 26.8849 45.7108 27.5712ZM47.4265 27.5712V28.8579H46.5686V27.5712C46.5686 27.3138 46.7402 27.1422 46.9976 27.1422C47.2549 27.1422 47.4265 27.3138 47.4265 27.5712ZM22.549 38.7231C22.549 39.4094 21.9485 40.0099 21.2623 40.0099C20.576 40.0099 19.9755 39.4094 19.9755 38.7231C19.9755 38.0369 20.576 37.4364 21.2623 37.4364C21.9485 37.4364 22.549 38.0369 22.549 38.7231ZM21.6912 38.7231C21.6912 38.4658 21.5196 38.2942 21.2623 38.2942C21.0049 38.2942 20.8333 38.4658 20.8333 38.7231C20.8333 38.9805 21.0049 39.1521 21.2623 39.1521C21.5196 39.1521 21.6912 38.9805 21.6912 38.7231ZM36.2745 38.7231C36.2745 39.4094 35.674 40.0099 34.9878 40.0099C34.3015 40.0099 33.701 39.4094 33.701 38.7231C33.701 38.0369 34.3015 37.4364 34.9878 37.4364C35.674 37.4364 36.2745 38.0369 36.2745 38.7231ZM35.4167 38.7231C35.4167 38.4658 35.2451 38.2942 34.9878 38.2942C34.7304 38.2942 34.5588 38.4658 34.5588 38.7231C34.5588 38.9805 34.7304 39.1521 34.9878 39.1521C35.2451 39.1521 35.4167 38.9805 35.4167 38.7231ZM26.8383 30.1447C26.8383 29.4584 27.4387 28.8579 28.125 28.8579C28.8113 28.8579 29.4118 29.4584 29.4118 30.1447C29.4118 30.831 28.8113 31.4315 28.125 31.4315C27.4387 31.4315 26.8383 30.831 26.8383 30.1447ZM27.6961 30.1447C27.6961 30.402 27.8677 30.5736 28.125 30.5736C28.3824 30.5736 28.5539 30.402 28.5539 30.1447C28.5539 29.8873 28.3824 29.7158 28.125 29.7158C27.8677 29.7158 27.6961 29.8873 27.6961 30.1447ZM14.8284 47.3016C14.8284 46.6153 15.4289 46.0148 16.1152 46.0148C16.8015 46.0148 17.402 46.6153 17.402 47.3016V49.0173C17.402 49.2746 17.2304 49.4462 16.9731 49.4462H15.2574C15 49.4462 14.8284 49.2746 14.8284 49.0173V47.3016ZM15.6863 47.3016V48.5883H16.5441V47.3016C16.5441 47.0442 16.3726 46.8726 16.1152 46.8726C15.8579 46.8726 15.6863 47.0442 15.6863 47.3016ZM14.8284 51.5908C14.8284 50.9045 15.4289 50.304 16.1152 50.304C16.8015 50.304 17.402 50.9045 17.402 51.5908V53.3065C17.402 53.5638 17.2304 53.7354 16.9731 53.7354H15.2574C15 53.7354 14.8284 53.5638 14.8284 53.3065V51.5908ZM15.6863 51.5908V52.8775H16.5441V51.5908C16.5441 51.3334 16.3726 51.1619 16.1152 51.1619C15.8579 51.1619 15.6863 51.3334 15.6863 51.5908ZM38.8481 38.7231C38.8481 38.0369 39.4486 37.4364 40.1348 37.4364C40.8211 37.4364 41.4216 38.0369 41.4216 38.7231V40.4388C41.4216 40.6962 41.25 40.8677 40.9927 40.8677H39.277C39.0196 40.8677 38.8481 40.6962 38.8481 40.4388V38.7231ZM39.7059 38.7231V40.0099H40.5638V38.7231C40.5638 38.4658 40.3922 38.2942 40.1348 38.2942C39.8775 38.2942 39.7059 38.4658 39.7059 38.7231ZM38.8481 43.0123C38.8481 42.3261 39.4486 41.7256 40.1348 41.7256C40.8211 41.7256 41.4216 42.3261 41.4216 43.0123V44.728C41.4216 44.9854 41.25 45.157 40.9927 45.157H39.277C39.0196 45.157 38.8481 44.9854 38.8481 44.728V43.0123ZM39.7059 43.0123V44.2991H40.5638V43.0123C40.5638 42.755 40.3922 42.5834 40.1348 42.5834C39.8775 42.5834 39.7059 42.755 39.7059 43.0123ZM38.8481 51.5908C38.8481 50.9045 39.4486 50.304 40.1348 50.304C40.8211 50.304 41.4216 50.9045 41.4216 51.5908V53.3065C41.4216 53.5638 41.25 53.7354 40.9927 53.7354H39.277C39.0196 53.7354 38.8481 53.5638 38.8481 53.3065V51.5908ZM39.7059 51.5908V52.8775H40.5638V51.5908C40.5638 51.3334 40.3922 51.1619 40.1348 51.1619C39.8775 51.1619 39.7059 51.3334 39.7059 51.5908ZM38.8481 47.3016C38.8481 46.6153 39.4486 46.0148 40.1348 46.0148C40.8211 46.0148 41.4216 46.6153 41.4216 47.3016V49.0173C41.4216 49.2746 41.25 49.4462 40.9927 49.4462H39.277C39.0196 49.4462 38.8481 49.2746 38.8481 49.0173V47.3016ZM39.7059 47.3016V48.5883H40.5638V47.3016C40.5638 47.0442 40.3922 46.8726 40.1348 46.8726C39.8775 46.8726 39.7059 47.0442 39.7059 47.3016Z" fill="#0A0A26"/>
</svg>
