<svg width="56" height="56" viewBox="0 0 56 56" fill="none" xmlns="http://www.w3.org/2000/svg">
<circle opacity="0.1" cx="28" cy="28" r="28" fill="#0A0A26"/>
<path d="M30.729 13.09H36.5008C37.0707 13.09 37.5658 12.7003 37.7013 12.1469C37.8917 11.3692 38.1253 10.3209 38.1253 9.8546C38.1253 9.8546 39.6199 9.61267 39.6199 8.83676C39.6199 7.71107 38.198 7.38218 38.198 6.16987C38.198 3.26017 36.9614 0.820557 32.1603 0.820557C27.6017 0.820557 27.2385 5.00568 27.2385 6.12109C27.2385 7.04246 27.966 7.72146 27.966 7.72146L27.2622 9.67468M36.1744 7.71534L37.9614 6.35023M35.3382 6.16965H37.9614M20.4093 17.9027C20.8613 16.0952 21.8497 14.4667 23.2447 13.2316L27.262 9.67446C31.7964 12.1113 34.3528 20.7314 34.9541 28H17.6114L19.557 20.9785M26.2741 15.1277C27.3823 16.8845 29.488 20.9169 29.9851 27.9149M38.5323 31.2813C38.6719 33.1555 38.7415 35.0343 38.741 36.9138L39.7665 40.0596H20.338L22.0362 28.1455M34.0496 13.1672C35.7931 16.0998 37.4087 21.3956 38.2112 27.9984M36.5361 13.1229C38.7317 15.1932 39.7704 21.2796 39.7704 21.2796L41.5944 24.7471H37.7339M32.107 40.1296C30.9546 45.3899 28.7772 47.3643 24.7008 48.6172M28.8763 40.1643C28.5695 41.5786 27.214 43.5784 24.4055 44.2422M28.0124 47.1399L32.6719 49.7709C33.6901 50.3459 33.2821 51.8985 32.1128 51.8985H26.1322C25.804 51.8985 25.488 51.7738 25.2482 51.5496C25.0085 51.3255 24.8628 51.0187 24.8407 50.6912L24.0492 40.1643M35.9973 40.1296C35.678 44.37 33.6537 47.2373 33.6537 47.2373L38.1406 49.7709C39.1587 50.3459 38.7508 51.8985 37.5814 51.8985H32.0716M28.1325 28.1094V31.2813M28.1325 31.2813H21.7375M28.1325 31.2813C28.1325 31.2813 29.505 31.7141 29.505 32.8775V34.9386C29.505 36.0295 28.6207 36.9138 27.5298 36.9138C25.0332 36.9138 24.0648 33.0114 24.0495 31.3216M32.2757 9.4509C31.3696 9.4509 30.635 8.71634 30.635 7.81028C30.635 6.90421 31.3696 6.16965 32.2757 6.16965M19.1702 55.1797H8.35677L22.6095 51.8985H41.4791L47.6431 55.1797H22.4515M27.2264 55.1797L41.3373 51.9311" stroke="black" stroke-width="1.5" stroke-miterlimit="10" stroke-linecap="round" stroke-linejoin="round"/>
</svg>
