<svg width="56" height="56" viewBox="0 0 56 56" fill="none" xmlns="http://www.w3.org/2000/svg">
<circle opacity="0.1" cx="28" cy="28" r="28" fill="#0A0A26"/>
<path d="M53.9972 40.535C53.9784 40.3176 53.8161 40.148 53.5918 40.1191C53.5111 40.1092 53.4277 40.1128 53.3452 40.1128C51.5145 40.1128 49.6839 40.1101 47.8533 40.1164C47.6497 40.1164 47.5788 40.0623 47.5824 39.8512C47.5941 39.1601 47.5941 38.4681 47.5824 37.7762C47.5788 37.5615 47.6228 37.4676 47.8605 37.4667C48.1143 37.4667 48.2973 37.2466 48.2964 37.0102C48.2964 36.773 48.108 36.5537 47.8578 36.5591C47.6111 36.5646 47.5824 36.4536 47.5833 36.2461C47.5896 34.1783 47.5896 32.1115 47.5833 30.0437C47.5833 29.8299 47.6075 29.7063 47.8694 29.7189C48.0991 29.7306 48.2758 29.5322 48.2955 29.3075C48.3134 29.0964 48.1744 28.8889 47.9591 28.833C47.8596 28.8068 47.7519 28.8068 47.6488 28.8068C43.6727 28.8059 39.6967 28.8059 35.7206 28.8059C35.4147 28.8059 35.4138 28.8059 35.4138 28.4947C35.4138 26.4422 35.4138 24.3898 35.4138 22.3373C35.4138 21.9124 35.2506 21.7473 34.8326 21.7464C34.1375 21.7446 33.4424 21.7419 32.7473 21.7491C32.584 21.7509 32.5195 21.7013 32.524 21.5317C32.5329 21.179 32.5302 20.8253 32.5249 20.4717C32.5195 20.1081 32.3446 19.934 31.9822 19.9304C31.5786 19.9268 31.175 19.9295 30.7714 19.9295C30.4987 19.9295 30.3567 19.7899 30.3453 19.5109C30.3328 19.1924 30.1704 19.0065 29.8646 19.0047C28.6385 18.9984 27.4133 18.9984 26.1872 19.0047C25.902 19.0065 25.7378 19.1906 25.7226 19.4793C25.7208 19.5172 25.7217 19.5542 25.7208 19.592C25.719 19.8164 25.6033 19.9286 25.3737 19.9286C24.918 19.9286 24.4615 19.9249 24.0059 19.9304C23.6596 19.934 23.4838 20.1126 23.4785 20.4626C23.474 20.801 23.4668 21.1393 23.4812 21.4776C23.4892 21.6806 23.4318 21.7545 23.2184 21.75C22.5537 21.7374 21.8882 21.7446 21.2227 21.7455C20.7312 21.7455 20.5877 21.8935 20.5877 22.3951C20.5877 24.4403 20.5841 26.4846 20.5922 28.5298C20.5922 28.7482 20.5267 28.8104 20.3132 28.8095C17.7722 28.8023 15.2312 28.8032 12.6894 28.8023C12.4723 28.8023 12.2552 28.8023 11.9987 28.8023C12.0732 28.9268 12.1144 28.9954 12.1575 29.0675C12.0463 29.1686 11.9467 29.2678 11.8373 29.3535C11.7305 29.4365 11.6014 29.4537 11.5234 29.3274C11.4363 29.1866 11.3834 29.0251 11.3153 28.8727C11.3063 28.8185 11.2426 28.8059 11.1789 28.8059C10.1995 28.8041 9.22094 28.8032 8.2415 28.8059C7.92309 28.8059 7.71321 28.9899 7.70335 29.2597C7.69617 29.4681 7.88273 29.7667 8.21818 29.7279C8.36438 29.7108 8.4173 29.7848 8.41461 29.9282C8.40923 30.1989 8.40115 30.4704 8.41999 30.7393C8.42627 30.8313 8.49085 30.9458 8.56529 31.0018C8.80657 31.184 8.83616 31.3482 8.65498 31.5765C8.61462 31.627 8.61642 31.7181 8.61552 31.7912C8.61552 31.8408 8.64243 31.8913 8.67113 31.9842C8.5626 31.9301 8.50251 31.9003 8.41282 31.8561C8.41282 31.9987 8.41282 32.1096 8.41282 32.2215C8.41282 33.5748 8.41102 34.928 8.4164 36.2813C8.4164 36.4626 8.38501 36.5564 8.17334 36.5555C7.90157 36.5546 7.70963 36.7558 7.70245 37.0003C7.69528 37.2502 7.8926 37.4676 8.17423 37.4694C8.38501 37.4712 8.4182 37.5606 8.41551 37.7428C8.40743 38.4348 8.41282 39.1258 8.41192 39.8178C8.41192 40.1092 8.41192 40.1101 8.10965 40.1101C6.29338 40.1101 4.47711 40.1101 2.66083 40.1101C2.57114 40.1101 2.48055 40.1074 2.39265 40.12C2.17111 40.1525 2.01236 40.3302 2.0007 40.5476C1.98904 40.7651 2.12447 40.9861 2.34063 41.0141C2.55141 41.0411 2.56576 41.1485 2.56486 41.3172C2.56038 42.6551 2.56217 43.9939 2.56307 45.3318C2.56307 45.8416 2.70837 45.9841 3.22052 45.9841C4.64842 45.9841 6.07543 45.9841 7.50333 45.9841C7.75447 45.9841 8.00741 46.004 8.25585 45.9787C8.49892 45.9543 8.7366 45.8831 8.97429 45.8334C9.01286 45.8677 9.07923 45.9751 9.14202 45.9733C9.32768 45.9661 9.51155 45.911 9.69721 45.8822C9.77076 45.8704 9.86225 45.8524 9.92055 45.884C10.23 46.0518 10.4695 46.0328 10.6444 45.8578C10.8157 45.9074 10.9484 45.9796 11.0821 45.9796C21.2989 45.985 31.5158 45.9841 41.7336 45.985C41.9103 45.985 42.0879 45.9931 42.2646 45.985C42.5031 45.9751 42.7659 46.0527 42.9417 45.7919C42.9561 45.7703 43.0879 45.8163 43.157 45.8497C43.2261 45.8822 43.2888 45.9823 43.3463 45.976C43.5795 45.9516 43.8414 46.0897 44.0467 45.865C44.0647 45.8461 44.1382 45.8713 44.1831 45.8858C44.2665 45.9128 44.3508 45.9787 44.4306 45.9715C44.5984 45.9579 44.7625 45.9074 44.9284 45.8722C45.0262 45.939 45.1311 45.9814 45.237 45.9814C47.7555 45.985 50.2741 45.9841 52.7936 45.9841C53.2878 45.9841 53.4367 45.8353 53.4367 45.34C53.4367 43.9939 53.4385 42.6488 53.4349 41.3028C53.4349 41.1395 53.4537 41.0429 53.6519 41.0168C53.8797 40.9861 54.0179 40.7615 53.9981 40.5341L53.9972 40.535ZM44.4791 29.7424C44.6154 29.7541 44.6818 29.6909 44.7069 29.5556C44.7446 29.349 44.8934 29.2759 45.0854 29.2868C45.1222 29.2886 45.1553 29.3445 45.1903 29.3752C45.1589 29.4086 45.1284 29.4437 45.0953 29.4744C45.0863 29.4825 45.0621 29.4717 45.0522 29.4789C44.9867 29.5249 44.923 29.5736 44.8594 29.6206C44.9266 29.6612 44.993 29.7351 45.0612 29.7369C45.419 29.7469 45.7778 29.7396 46.1366 29.7369C46.2415 29.7369 46.3465 29.7387 46.4496 29.7288C46.6021 29.7144 46.664 29.7703 46.6649 29.93C46.6649 30.0951 46.5931 30.1366 46.446 30.1294C46.237 30.1195 46.0281 30.1258 45.8191 30.1159C45.6765 30.1086 45.5984 30.1601 45.5186 30.2891C45.4603 30.3838 45.3114 30.428 45.1957 30.4767C45.1715 30.4866 45.1141 30.4181 45.0719 30.3856C45.1078 30.3567 45.141 30.3188 45.1814 30.2999C45.2424 30.271 45.3087 30.2548 45.3724 30.2331L45.3652 30.1492C45.289 30.1384 45.2128 30.1204 45.1365 30.1186C44.9204 30.114 44.7033 30.114 44.4862 30.1177C44.3652 30.1195 44.2862 30.0933 44.2853 29.9453C44.2853 29.8046 44.3302 29.7288 44.4782 29.7424H44.4791ZM44.5221 31.0496C45.1571 31.0604 45.7922 31.0586 46.4272 31.0505C46.5994 31.0487 46.6649 31.0992 46.6649 31.2788C46.6595 32.5111 46.6604 33.7435 46.6649 34.9758C46.6649 35.1355 46.6254 35.2032 46.4514 35.2014C45.8011 35.1924 45.1518 35.1924 44.5015 35.2014C44.3212 35.2041 44.271 35.1382 44.2728 34.965C44.2808 34.3488 44.2755 33.7326 44.2755 33.1165C44.2755 32.5156 44.2817 31.9139 44.2719 31.313C44.2692 31.1218 44.3185 31.0451 44.5221 31.0487V31.0496ZM46.6622 39.936C46.6622 40.0541 46.6272 40.1146 46.4954 40.1137C45.8164 40.1092 45.1383 40.1092 44.4593 40.1137C44.3033 40.1146 44.2728 40.0388 44.2746 39.9044C44.2791 39.5372 44.2764 39.1691 44.2764 38.8019C44.2764 38.4266 44.28 38.0513 44.2746 37.6769C44.2728 37.5344 44.3203 37.4757 44.4683 37.4767C45.1392 37.4821 45.811 37.4812 46.4819 37.4767C46.62 37.4757 46.6649 37.5308 46.664 37.6634C46.6604 38.4212 46.6613 39.179 46.6631 39.9369L46.6622 39.936ZM46.4702 36.5537C45.8056 36.5456 45.1401 36.5465 44.4755 36.5537C44.3122 36.5555 44.2746 36.4834 44.2728 36.3354C44.271 36.1793 44.3257 36.1207 44.4818 36.1243C44.8181 36.1324 45.1545 36.127 45.4899 36.127C45.8191 36.127 46.1474 36.1342 46.4756 36.1243C46.6344 36.1198 46.6622 36.1974 46.6631 36.3309C46.664 36.4698 46.6425 36.5564 46.4693 36.5537H46.4702ZM35.4112 29.8984C35.4219 29.773 35.4704 29.7261 35.5914 29.7279C35.8453 29.7324 36.0991 29.7288 36.3538 29.7288C38.6024 29.7288 40.8519 29.7288 43.1005 29.7288C43.2144 29.7288 43.3436 29.6936 43.3552 29.8885C43.366 30.0807 43.2915 30.1303 43.1104 30.1294C41.8627 30.1231 40.6151 30.1258 39.3675 30.1258C38.1351 30.1258 36.9018 30.124 35.6695 30.1285C35.5008 30.1285 35.395 30.1032 35.413 29.8966L35.4112 29.8984ZM35.4013 38.1722C35.4067 38.082 35.4138 38.0098 35.4138 37.9377C35.4138 35.7436 35.4138 33.5495 35.4138 31.3554C35.4138 31.0541 35.4138 31.0532 35.708 31.0532C38.1656 31.0532 40.6232 31.0559 43.0808 31.0487C43.3005 31.0487 43.3561 31.1182 43.3561 31.3311C43.3498 33.6758 43.3489 36.0196 43.357 38.3644C43.357 38.5953 43.2915 38.6522 43.0664 38.6513C40.6833 38.6432 38.3002 38.6441 35.9179 38.6531C35.7699 38.6531 35.6228 38.7532 35.473 38.7974C35.3986 38.82 35.273 38.8579 35.2488 38.8263C35.1995 38.7631 35.1941 38.6594 35.1905 38.571C35.1887 38.5376 35.2533 38.5051 35.2677 38.4654C35.2847 38.4185 35.2802 38.3635 35.2856 38.3112C35.2291 38.322 35.1672 38.3229 35.1188 38.3491C35.0874 38.3653 35.0739 38.4176 35.0533 38.4546C35.0344 38.4402 35.0147 38.4266 34.9959 38.4122C35.0246 38.2002 35.1771 38.1443 35.4031 38.1722H35.4013ZM43.3229 40.0542C43.3176 40.0857 43.1821 40.1092 43.1068 40.1092C41.7174 40.1128 40.329 40.1119 38.9397 40.1119C37.849 40.1119 36.7592 40.1056 35.6686 40.1164C35.4515 40.1182 35.4076 40.0415 35.4067 39.843C35.4058 39.6419 35.4569 39.5706 35.6704 39.5715C36.9099 39.5814 38.1495 39.576 39.389 39.576C40.6214 39.576 41.8529 39.5751 43.0852 39.5778C43.1687 39.5778 43.3167 39.5995 43.3229 39.6328C43.3498 39.7682 43.3463 39.9152 43.322 40.0523L43.3229 40.0542ZM34.4254 39.5183C34.4326 39.5868 34.4864 39.6536 34.4855 39.7203C34.4828 40.1128 34.4793 40.1119 34.0828 40.1119C33.7698 40.1119 33.4568 40.1119 33.1437 40.1119C32.8352 40.1119 32.8531 40.1101 32.8316 39.8277C32.8101 39.5489 32.9769 39.5751 33.1545 39.5769C33.5034 39.5805 33.8514 39.5778 34.2703 39.5778C34.1366 39.4091 34.0407 39.2963 33.9554 39.1763C33.8989 39.096 33.7465 39.0212 33.8909 38.9021C34.0218 38.7947 34.142 38.6206 34.3555 38.7568C34.5833 38.9021 34.6075 39.0789 34.4461 39.2936C34.4075 39.345 34.4174 39.4443 34.4254 39.5192V39.5183ZM24.0803 26.5189C24.0794 26.3186 24.1799 26.3069 24.3323 26.3069C25.5575 26.3096 26.7827 26.3087 28.0079 26.3087C29.2107 26.3087 30.4135 26.3087 31.6163 26.3087C31.9158 26.3087 31.9176 26.3087 31.9176 26.6001C31.9176 27.9525 31.9194 29.3048 31.9149 30.6581C31.9149 30.7456 31.8862 30.8989 31.8441 30.9089C31.7104 30.9404 31.5625 30.9323 31.4261 30.9071C31.3938 30.9007 31.3705 30.7654 31.3696 30.6887C31.3535 29.8245 31.1104 29.0387 30.5346 28.3882C29.6045 27.339 28.4358 26.951 27.0931 27.3399C25.7459 27.7296 24.9521 28.6805 24.6956 30.0698C24.6552 30.29 24.64 30.5173 24.6409 30.742C24.6409 30.9846 24.4767 30.9224 24.3458 30.9287C24.2077 30.9359 24.0803 30.9495 24.0812 30.7338C24.0875 29.3283 24.0875 27.9236 24.0812 26.518L24.0803 26.5189ZM24.2615 39.5525C24.4812 39.5065 24.6005 39.3387 24.6077 39.1096C24.6149 38.8958 24.4732 38.7099 24.2409 38.6612C24.1 38.6314 24.0821 38.5593 24.0821 38.442C24.0839 36.3147 24.0848 34.1873 24.0803 32.0609C24.0803 31.8931 24.153 31.8597 24.2974 31.8625C24.6786 31.8679 25.0597 31.8643 25.4409 31.8606C25.719 31.8579 25.8948 31.7371 25.9567 31.5151C26.0177 31.2959 25.9217 31.12 25.6786 30.9612C25.6221 30.9242 25.5665 30.8412 25.5629 30.7762C25.4822 29.5276 26.4132 28.3422 27.6043 28.1681C28.8941 27.9786 30.0646 28.7734 30.3677 30.0491C30.4072 30.216 30.4225 30.3901 30.4386 30.5615C30.4565 30.7564 30.4664 30.9305 30.226 31.037C30.044 31.1173 29.9866 31.3202 30.0484 31.5241C30.1157 31.7452 30.2772 31.857 30.5005 31.8616C30.8889 31.8688 31.2781 31.8733 31.6665 31.8616C31.8593 31.8552 31.9239 31.9112 31.923 32.1133C31.9158 34.2099 31.9176 36.3074 31.9203 38.4041C31.9203 38.5439 31.9051 38.6341 31.7418 38.6838C31.549 38.7424 31.4423 38.9057 31.4459 39.1168C31.4494 39.3261 31.5553 39.4849 31.7526 39.5426C32.0253 39.622 31.9051 39.834 31.9096 39.9901C31.914 40.1696 31.7499 40.1101 31.6521 40.1101C30.4341 40.1137 29.2161 40.1128 27.9981 40.1128C26.78 40.1128 25.562 40.1137 24.344 40.111C24.2444 40.111 24.0821 40.1651 24.092 39.9847C24.1 39.8331 23.9682 39.6166 24.2615 39.5543V39.5525ZM34.1501 41.042C34.2586 41.042 34.4532 41.0772 34.4604 41.1214C34.4918 41.3091 34.4775 41.5075 34.455 41.6988C34.4523 41.725 34.3115 41.7511 34.2353 41.7511C33.2944 41.7547 32.3535 41.7529 31.4127 41.7529C30.27 41.7529 29.1273 41.7529 27.9846 41.7529C25.9307 41.7529 23.8767 41.7529 21.8236 41.7529C21.6144 41.7529 21.5097 41.6525 21.5097 41.4516C21.5097 40.9951 21.4747 41.0384 21.9178 41.0384C25.9952 41.0384 30.0736 41.0375 34.151 41.0411L34.1501 41.042ZM30.5947 20.8569C30.8548 20.8713 31.1176 20.8686 31.3786 20.8569C31.558 20.8488 31.6199 20.92 31.6055 21.0942C31.5938 21.2358 31.5929 21.3801 31.6055 21.5218C31.6225 21.7085 31.5364 21.76 31.3696 21.7482C31.236 21.7392 31.1005 21.7464 30.9669 21.7464C30.3399 21.7464 30.3462 21.7464 30.3426 21.1194C30.3417 20.9282 30.392 20.8452 30.5947 20.8569ZM26.6392 20.1505C26.6365 19.9881 26.6886 19.9249 26.8581 19.9259C27.6411 19.9331 28.4241 19.9331 29.2071 19.9259C29.3802 19.924 29.4242 19.9971 29.4224 20.1541C29.417 20.6115 29.4161 21.0689 29.4224 21.5272C29.4251 21.6914 29.3704 21.7536 29.2026 21.7491C28.8152 21.7401 28.4268 21.7464 28.0393 21.7464C27.6519 21.7464 27.2635 21.7401 26.876 21.7491C26.7074 21.7536 26.6329 21.7067 26.6365 21.5227C26.6464 21.0653 26.6446 20.6079 26.6374 20.1505H26.6392ZM24.4059 21.0247C24.4122 20.9652 24.501 20.8758 24.5602 20.8686C24.7288 20.847 24.9028 20.8614 25.0741 20.8614C25.7889 20.8605 25.8078 20.8785 25.7127 21.5958C25.7055 21.6517 25.6203 21.7374 25.5692 21.7401C25.2337 21.7536 24.8974 21.7545 24.562 21.7401C24.5054 21.7374 24.4122 21.6463 24.405 21.5876C24.3844 21.4018 24.3844 21.2114 24.405 21.0265L24.4059 21.0247ZM21.8326 22.6766C25.9432 22.6766 30.0538 22.6766 34.1644 22.6766C34.3791 22.6766 34.4864 22.7821 34.4864 22.9932C34.4864 28.113 34.4864 33.2319 34.4864 38.3518C34.4864 38.6441 34.4685 38.6603 34.186 38.6567C33.82 38.6522 33.4532 38.6377 33.0881 38.6495C32.8908 38.6558 32.8316 38.5926 32.8325 38.3942C32.8397 36.8605 32.8361 35.3268 32.8361 33.7931C32.8361 31.2066 32.8361 28.621 32.8361 26.0344C32.8361 25.5148 32.7015 25.3786 32.1894 25.3786C29.3865 25.3786 26.5836 25.3786 23.7816 25.3786C23.3116 25.3786 23.1645 25.5247 23.1636 25.9938C23.1636 30.0455 23.1636 34.098 23.1636 38.1497C23.1636 38.4793 23.0037 38.6441 22.6838 38.6441C22.3995 38.6441 22.116 38.6441 21.8317 38.6441C21.6159 38.6441 21.5079 38.5385 21.5079 38.3274C21.5079 36.6809 21.5079 35.0345 21.5079 33.388V30.659C21.5079 28.1103 21.5079 25.5617 21.5079 23.0131C21.5079 22.7875 21.6162 22.6748 21.8326 22.6748V22.6766ZM21.6963 39.5742C22.1214 39.5823 22.5466 39.5841 22.9708 39.5724C23.2085 39.5661 23.1574 39.7231 23.1654 39.8593C23.1735 40.0099 23.1627 40.1263 22.9591 40.1128C22.7511 40.0993 22.5421 40.1101 22.3331 40.1101C22.1241 40.1101 21.9151 40.102 21.707 40.1128C21.4981 40.1236 21.5043 39.9901 21.5079 39.8485C21.5115 39.7158 21.4774 39.5706 21.6963 39.5742ZM21.1492 42.6786C25.7728 42.6768 30.3956 42.6786 35.0192 42.6722C35.2452 42.6722 35.3188 42.73 35.3098 42.9609C35.2892 43.4959 35.3627 43.412 34.8533 43.4129C32.5679 43.4156 30.2825 43.4138 27.9963 43.4138C25.6589 43.4138 23.3206 43.4102 20.9832 43.4183C20.759 43.4183 20.6828 43.3633 20.6917 43.1305C20.7123 42.5956 20.6433 42.6786 21.1492 42.6777V42.6786ZM20.5949 39.8485C20.5931 40.0569 20.5312 40.1155 20.3249 40.1146C18.9508 40.1056 17.5767 40.1101 16.2026 40.1101C15.1057 40.1101 14.0087 40.1119 12.9109 40.1083C12.8293 40.1083 12.684 40.083 12.6768 40.0478C12.6508 39.9125 12.6553 39.7655 12.6804 39.6292C12.6858 39.5986 12.823 39.5778 12.8992 39.5778C14.1388 39.5751 15.3783 39.576 16.6179 39.576C17.8503 39.576 19.0826 39.5814 20.3141 39.5715C20.5294 39.5697 20.5957 39.631 20.594 39.8494L20.5949 39.8485ZM12.8858 29.7234C14.0733 29.7315 15.2617 29.727 16.4493 29.727H16.6062C17.8538 29.727 19.1015 29.7315 20.3491 29.7234C20.5401 29.7225 20.6218 29.7875 20.5805 29.9688C20.567 30.0283 20.4944 30.0816 20.437 30.1204C20.4056 30.1411 20.35 30.1258 20.3051 30.1258C17.8395 30.1258 15.3747 30.1258 12.9091 30.1258C12.7988 30.1258 12.6607 30.1691 12.6481 29.9724C12.6364 29.7893 12.6938 29.7225 12.8858 29.7243V29.7234ZM12.6463 31.3302C12.6463 31.1182 12.7001 31.046 12.9208 31.0469C15.3864 31.0541 17.853 31.0532 20.3186 31.0478C20.5177 31.0478 20.5931 31.0956 20.5922 31.3112C20.585 33.6641 20.5859 36.016 20.5922 38.3689C20.5922 38.5836 20.533 38.6504 20.315 38.6486C19.0817 38.6386 17.8494 38.6441 16.6161 38.6441C15.3909 38.6441 14.1648 38.6386 12.9396 38.6486C12.7198 38.6504 12.6436 38.6026 12.6445 38.3653C12.6535 36.0206 12.6526 33.6749 12.6463 31.3302ZM9.50079 29.7261C9.85866 29.727 10.2156 29.7261 10.5735 29.7135C10.6336 29.7117 10.7376 29.6512 10.7412 29.6097C10.7628 29.3824 10.8937 29.2471 11.0973 29.2498C11.2955 29.2525 11.3906 29.4284 11.4399 29.6124C11.4471 29.6404 11.4543 29.6693 11.4677 29.7207C11.6382 29.7108 11.7449 29.7478 11.7305 29.9426C11.7207 30.0789 11.6687 30.1303 11.5386 30.1249C11.4193 30.1204 11.2991 30.1159 11.1807 30.1267C11.0552 30.1384 10.9314 30.1682 10.7726 30.1961C10.7036 30.1763 10.5923 30.1447 10.4192 30.0951C10.4973 30.2503 10.5412 30.3387 10.5852 30.4262C10.5672 30.4451 10.5493 30.4632 10.5314 30.4821C10.4677 30.4226 10.4112 30.3531 10.3394 30.3071C10.2632 30.2575 10.1726 30.2304 10.0883 30.1934C10.0963 30.2873 10.0883 30.3856 10.117 30.4731C10.143 30.5561 10.2067 30.6274 10.2703 30.7302C10.0075 30.6797 9.79229 30.336 9.88646 30.1222C9.74834 30.1222 9.62456 30.1195 9.50168 30.1222C9.36714 30.1267 9.34203 30.0473 9.34293 29.9345C9.34472 29.8226 9.34562 29.7225 9.50168 29.7234L9.50079 29.7261ZM9.64878 30.5399C9.7896 30.6626 9.88557 30.8385 10.0479 31.0514C10.4524 31.0514 10.952 31.0604 11.4507 31.0469C11.6669 31.0406 11.7323 31.1109 11.7314 31.3284C11.7225 32.5301 11.7225 33.7327 11.7314 34.9352C11.7332 35.1463 11.666 35.205 11.4624 35.2014C10.8354 35.1897 10.2076 35.1906 9.57971 35.2014C9.39136 35.2041 9.33754 35.14 9.33934 34.9551C9.34651 33.7227 9.33844 32.4904 9.351 31.2589C9.35279 31.1155 9.45235 30.9729 9.50168 30.8286C9.52321 30.7654 9.53038 30.6987 9.54473 30.6328C9.48285 30.6662 9.42096 30.6978 9.36087 30.7329C9.34382 30.7429 9.33216 30.7618 9.2927 30.8042C9.29987 30.5417 9.4963 30.4054 9.65057 30.5408L9.64878 30.5399ZM9.34024 37.6715C9.34024 37.5263 9.38867 37.4721 9.53487 37.473C10.1995 37.4785 10.865 37.4785 11.5296 37.473C11.6947 37.4712 11.7305 37.5461 11.7287 37.6932C11.7225 38.0613 11.727 38.4293 11.727 38.7974C11.727 39.1655 11.7216 39.5336 11.7287 39.9017C11.7314 40.0578 11.6758 40.1128 11.5198 40.111C10.8623 40.1047 10.2049 40.1047 9.54743 40.111C9.39136 40.1128 9.33844 40.0587 9.33934 39.9026C9.34472 39.1583 9.34382 38.4149 9.33934 37.6706L9.34024 37.6715ZM11.5368 36.5501C11.2014 36.5429 10.8659 36.5483 10.5296 36.5483C10.2013 36.5483 9.87301 36.5429 9.54473 36.551C9.38598 36.5546 9.33665 36.4906 9.33844 36.3381C9.33934 36.1911 9.37611 36.1198 9.54025 36.1207C10.204 36.1279 10.8677 36.1261 11.5314 36.1216C11.6767 36.1207 11.7305 36.1766 11.7279 36.321C11.7261 36.459 11.7081 36.5528 11.5359 36.5492L11.5368 36.5501ZM19.7706 43.1865C19.7751 43.3444 19.7293 43.4147 19.5562 43.4174C19.2288 43.4219 19.0647 43.5952 19.0566 43.9245C19.0486 44.2249 19.0468 44.5262 19.0566 44.8266C19.0629 45.0071 18.9938 45.0567 18.8207 45.0567C16.5784 45.0513 14.3361 45.0531 12.0947 45.0531C11.7817 45.0531 11.4659 45.026 11.1583 45.063C10.9161 45.0919 10.691 45.1135 10.4444 45.0639C10.2695 45.0287 10.0658 45.155 9.88198 45.1379C7.8334 44.9457 5.78124 45.1072 3.73176 45.0585C3.547 45.054 3.48511 44.998 3.4869 44.8122C3.49318 43.6322 3.49228 42.4521 3.4869 41.2712C3.4869 41.098 3.53713 41.0348 3.71652 41.0348C7.21452 41.0393 10.7116 41.0411 14.2096 41.0366C14.4195 41.0366 14.6285 40.9807 14.8384 40.9545C14.8886 40.9482 14.9505 40.941 14.9909 40.9635C15.199 41.0835 15.3003 41.0177 15.3218 40.7615C15.4214 41.0195 15.599 41.0447 15.8107 41.0438C17.313 41.0375 18.8154 41.0438 20.3177 41.033C20.5392 41.0312 20.6173 41.1043 20.5877 41.3163C20.5805 41.3677 20.5805 41.4218 20.5877 41.4742C20.6173 41.6862 20.5401 41.7656 20.3177 41.7583C19.9419 41.7475 19.7724 41.9307 19.7688 42.3078C19.7661 42.601 19.7625 42.8942 19.7706 43.1874V43.1865ZM35.7421 45.0576C33.1644 45.0513 30.5875 45.054 28.0097 45.054C25.449 45.054 22.8874 45.054 20.3267 45.054C20.0947 45.054 19.979 44.9403 19.9796 44.7129C19.9796 44.6525 19.984 44.5921 19.9796 44.5325C19.9679 44.399 20.0217 44.3349 20.158 44.3422C20.2253 44.3458 20.2926 44.3422 20.3599 44.3422C22.9071 44.3422 25.4544 44.3422 28.0026 44.3422C30.5651 44.3422 33.1276 44.3422 35.6901 44.3422C35.9119 44.3422 36.0226 44.4504 36.022 44.6669C36.022 44.7048 36.0175 44.7427 36.022 44.7797C36.0525 44.9998 35.9547 45.0594 35.7421 45.0585V45.0576ZM52.5137 44.7788C52.5155 44.9971 52.4473 45.0594 52.233 45.0585C50.275 45.0504 48.3179 45.0522 46.3599 45.0513C46.063 45.0513 45.7617 45.0224 45.4711 45.0639C45.2334 45.0982 45.0217 45.1198 44.7742 45.0702C44.5006 45.0152 44.1992 45.1081 43.9095 45.1307C43.8449 45.1361 43.7777 45.1225 43.7131 45.1126C43.6055 45.0955 43.4978 45.0567 43.3911 45.0567C41.3515 45.0531 39.311 45.054 37.2714 45.054C37.0549 45.054 36.9467 44.9415 36.9467 44.7166C36.9467 44.4531 36.9512 44.1906 36.944 43.9272C36.935 43.597 36.7718 43.4228 36.4471 43.4183C36.2776 43.4156 36.2256 43.3525 36.23 43.191C36.2381 42.8906 36.2354 42.5901 36.2318 42.2888C36.2274 41.9379 36.0534 41.7638 35.7098 41.7529C35.4147 41.7439 35.4138 41.7439 35.4138 41.4336C35.4138 40.9789 35.3816 41.0384 35.8121 41.0384C37.919 41.0366 40.0267 41.0384 42.1336 41.0384C44.2629 41.0384 46.3922 41.0393 48.5224 41.0357C48.6291 41.0357 48.7341 40.9852 48.8417 40.9735C48.9269 40.9635 49.0148 40.9708 49.1 40.9825C49.1727 40.9924 49.248 41.0483 49.3126 41.0357C49.7934 40.9455 50.2705 41.0727 50.7513 41.0447C51.2428 41.0159 51.737 41.0474 52.2303 41.0339C52.4384 41.0285 52.5173 41.0817 52.5155 41.3073C52.5057 42.4647 52.5057 43.6222 52.5155 44.7797L52.5137 44.7788ZM11.4893 28.9972C11.5529 28.9394 11.6364 28.8212 11.6776 28.8339C11.7888 28.8691 11.8812 28.9611 12.0346 29.0675C11.9019 29.1713 11.7853 29.2922 11.7601 29.2759C11.6552 29.2056 11.5772 29.0937 11.4893 28.9972ZM8.44241 31.4944V31.1164C8.68548 31.3148 8.6783 31.3888 8.44241 31.4944ZM22.4407 24.1814C22.4488 23.8187 22.7421 23.5318 23.1036 23.5336C23.4605 23.5354 23.7574 23.8331 23.7583 24.1913C23.7583 24.5495 23.4623 24.8481 23.1044 24.8499C22.7322 24.8517 22.4327 24.5504 22.4407 24.1805V24.1814ZM32.2845 24.1841C32.289 23.8151 32.5769 23.5318 32.9455 23.5345C33.3088 23.5372 33.594 23.8313 33.5913 24.2003C33.5886 24.5657 33.2953 24.8526 32.9294 24.8499C32.5652 24.8472 32.28 24.5531 32.2845 24.1832V24.1841ZM38.6141 37.2186C38.6051 36.8542 38.9119 36.5447 39.2796 36.5483C39.6411 36.5519 39.9326 36.8469 39.9308 37.2087C39.929 37.5687 39.633 37.8709 39.2796 37.8727C38.9289 37.8754 38.623 37.5741 38.615 37.2195L38.6141 37.2186ZM38.615 32.5292C38.615 32.1665 38.911 31.8706 39.2724 31.8697C39.6375 31.8697 39.9299 32.1611 39.9308 32.5265C39.9308 32.8918 39.6393 33.1859 39.2751 33.1859C38.9137 33.1859 38.615 32.8891 38.615 32.5292ZM36.2184 34.873C36.2157 34.5103 36.5099 34.2108 36.8705 34.2081C37.2346 34.2054 37.527 34.4959 37.5297 34.8631C37.5315 35.2339 37.2481 35.5244 36.8812 35.5262C36.5162 35.528 36.222 35.2375 36.2193 34.873H36.2184ZM38.6141 34.8694C38.6123 34.513 38.911 34.2108 39.267 34.2072C39.6258 34.2027 39.9227 34.4932 39.9308 34.8559C39.9388 35.2176 39.6518 35.518 39.2904 35.5262C38.9172 35.5352 38.6159 35.242 38.6141 34.8703V34.8694ZM42.3291 37.2006C42.3327 37.5606 42.0358 37.8682 41.6807 37.8727C41.3237 37.8772 41.0241 37.5804 41.0196 37.2168C41.0142 36.8469 41.2968 36.5546 41.6645 36.5501C42.0278 36.5456 42.3256 36.837 42.3291 37.2006ZM41.0187 34.8613C41.0241 34.4923 41.3165 34.2036 41.6798 34.2081C42.0421 34.2126 42.3327 34.5112 42.3291 34.8757C42.3256 35.242 42.0314 35.5298 41.6654 35.5262C41.2995 35.5226 41.0134 35.2284 41.0187 34.8604V34.8613ZM41.0187 32.5328C41.0169 32.1656 41.3049 31.8724 41.669 31.8706C42.0332 31.8688 42.3273 32.1602 42.3291 32.5246C42.3309 32.8909 42.0412 33.1841 41.6762 33.1859C41.3102 33.1886 41.0196 32.8999 41.0187 32.5328ZM36.2193 32.54C36.2139 32.1764 36.5045 31.8751 36.8651 31.8715C37.2337 31.867 37.5243 32.1493 37.5297 32.5174C37.5351 32.8882 37.2534 33.1814 36.8875 33.1859C36.5224 33.1913 36.2247 32.9036 36.2193 32.5391V32.54ZM36.3834 37.6129C36.178 37.3549 36.1637 37.0851 36.3404 36.8298C36.5054 36.5916 36.7592 36.505 37.0149 36.5988C36.9279 36.9254 37.1377 37.2322 37.4947 37.2222C37.5306 37.4758 37.3943 37.6995 37.1342 37.815C36.8516 37.9404 36.5879 37.87 36.3834 37.6129ZM37.2095 36.6647C37.3117 36.7594 37.414 36.8551 37.5503 36.9805C37.4597 37.0319 37.3969 37.0788 37.3889 37.0707C37.2965 36.9759 37.2095 36.8749 37.1306 36.7684C37.1234 36.7585 37.1817 36.6999 37.2104 36.6638L37.2095 36.6647ZM16.0743 32.5364C16.0699 32.1701 16.3578 31.8742 16.7219 31.8715C17.0852 31.8688 17.3812 32.1584 17.3874 32.5219C17.3937 32.881 17.0977 33.1832 16.7363 33.1868C16.3703 33.1904 16.0788 32.9045 16.0735 32.5364H16.0743ZM14.9837 37.2177C14.9783 37.5822 14.6796 37.8781 14.3218 37.8727C13.9657 37.8673 13.6697 37.5615 13.6733 37.2015C13.6769 36.8379 13.9738 36.5483 14.3379 36.551C14.703 36.5546 14.9891 36.8487 14.9837 37.2177ZM16.0743 34.8595C16.0806 34.4932 16.3775 34.2027 16.739 34.209C17.0977 34.2144 17.3928 34.5202 17.3883 34.8793C17.383 35.2411 17.0834 35.5316 16.7201 35.528C16.356 35.5235 16.0681 35.2257 16.0743 34.8604V34.8595ZM19.7849 37.206C19.7858 37.5624 19.4889 37.8682 19.1365 37.8736C18.7813 37.879 18.4799 37.5849 18.4718 37.2249C18.4638 36.8587 18.7418 36.5628 19.106 36.5519C19.4764 36.5402 19.7831 36.8361 19.7849 37.206ZM13.6724 34.8712C13.6715 34.5094 13.9666 34.2108 14.328 34.209C14.6913 34.2072 14.9828 34.5004 14.9837 34.8676C14.9837 35.2366 14.6976 35.5271 14.3316 35.528C13.9684 35.5289 13.6733 35.2357 13.6724 34.8721V34.8712ZM16.0735 37.2177C16.0663 36.8533 16.356 36.5546 16.721 36.551C17.0852 36.5474 17.3848 36.8388 17.3883 37.2006C17.3919 37.5578 17.0933 37.8664 16.7381 37.8727C16.382 37.879 16.0815 37.5822 16.0743 37.2168L16.0735 37.2177ZM18.4709 34.8739C18.47 34.5058 18.7579 34.2117 19.1212 34.209C19.4791 34.2063 19.7813 34.504 19.7849 34.864C19.7885 35.2248 19.4916 35.5253 19.1311 35.5262C18.7624 35.5271 18.4718 35.2402 18.4709 34.8739ZM13.6724 32.5328C13.6697 32.1692 13.9603 31.8742 14.3253 31.8715C14.6904 31.8688 14.981 32.1584 14.9828 32.5255C14.9846 32.8936 14.6985 33.1859 14.3325 33.1868C13.9675 33.1877 13.6751 32.8981 13.6724 32.5328ZM18.4709 32.5237C18.4754 32.1557 18.7651 31.8697 19.132 31.8724C19.4934 31.8751 19.7867 32.1737 19.784 32.5364C19.7813 32.8981 19.4827 33.1913 19.1194 33.1886C18.7535 33.185 18.4664 32.8918 18.47 32.5246L18.4709 32.5237ZM5.23591 43.0665C5.23591 43.366 5.23949 43.6664 5.23501 43.966C5.23052 44.2637 5.03948 44.464 4.7722 44.4612C4.5076 44.4585 4.31476 44.2537 4.31297 43.9569C4.30938 43.357 4.30938 42.757 4.31297 42.1571C4.31476 41.8468 4.5085 41.6384 4.78117 41.6402C5.05383 41.642 5.23142 41.8477 5.23591 42.1661C5.23591 42.1733 5.23591 42.1815 5.23591 42.1887C5.23591 42.481 5.23591 42.7733 5.23591 43.0665ZM16.5811 42.1382C16.5856 42.7453 16.5856 43.3534 16.5811 43.9614C16.5793 44.2601 16.3874 44.4621 16.121 44.4612C15.8546 44.4612 15.6636 44.2583 15.6591 43.9614C15.6546 43.6538 15.6582 43.3462 15.6573 43.0385C15.6573 42.7381 15.6546 42.4386 15.6573 42.1382C15.6609 41.8459 15.8528 41.6411 16.1192 41.6375C16.382 41.6338 16.5775 41.8395 16.5793 42.1373L16.5811 42.1382ZM18.4736 43.0629C18.4736 43.3561 18.4772 43.6493 18.4736 43.9425C18.4691 44.2519 18.2924 44.454 18.0287 44.4612C17.7525 44.4694 17.5579 44.2682 17.5543 43.9506C17.548 43.3498 17.5489 42.748 17.5543 42.1463C17.557 41.8386 17.7426 41.642 18.0081 41.6393C18.2835 41.6366 18.4682 41.8404 18.4727 42.1598C18.4772 42.4602 18.4727 42.7616 18.4736 43.062V43.0629ZM7.1329 43.0557C7.1329 43.3408 7.13559 43.6249 7.1329 43.91C7.12932 44.2474 6.95172 44.4576 6.67457 44.4612C6.39204 44.464 6.21266 44.2592 6.21176 43.9217C6.20907 43.3371 6.20907 42.7525 6.21176 42.1679C6.21355 41.8459 6.39025 41.6438 6.66381 41.6402C6.93737 41.6366 7.12573 41.8386 7.13201 42.1571C7.13828 42.4566 7.1329 42.757 7.1338 43.0566L7.1329 43.0557ZM9.02183 43.0656C9.02183 43.3588 9.02721 43.652 9.02003 43.9452C9.01286 44.2664 8.82361 44.4676 8.54915 44.4612C8.28276 44.4549 8.10338 44.2583 8.10069 43.9479C8.0962 43.3471 8.0953 42.7453 8.10069 42.1445C8.10338 41.835 8.28725 41.6411 8.55632 41.6402C8.82361 41.6393 9.01017 41.8341 9.01824 42.1418C9.02631 42.4494 9.02003 42.7579 9.02093 43.0665L9.02183 43.0656ZM10.9116 43.0466C10.9116 43.3543 10.9134 43.6619 10.9116 43.9687C10.9099 44.1879 10.6336 44.4216 10.3582 44.4405C10.186 44.4522 9.99409 44.2402 9.9914 44.0011C9.98423 43.3633 9.98243 42.7264 9.9932 42.0885C9.99768 41.8197 10.204 41.6357 10.456 41.6384C10.708 41.642 10.8973 41.8278 10.9045 42.1003C10.9125 42.4151 10.9063 42.73 10.9063 43.0448C10.9081 43.0448 10.9108 43.0448 10.9125 43.0448L10.9116 43.0466ZM12.7997 43.154C12.8185 43.2397 12.8006 43.3335 12.8006 43.4238C12.8006 43.627 12.707 43.7299 12.5198 43.7323C12.4974 43.7567 12.475 43.781 12.4535 43.8054C12.4956 43.8198 12.536 43.8378 12.579 43.8496C12.7728 43.901 12.8275 44.0255 12.7494 44.2014C12.658 44.408 12.4777 44.4721 12.3109 44.3891C12.2212 44.344 12.1171 44.3277 12.0759 44.316C12.0059 44.1744 11.927 44.0769 11.9135 43.9705C11.8884 43.781 11.8983 43.587 11.901 43.394C11.9036 43.2153 11.9279 43.0367 11.9243 42.859C11.918 42.6127 11.8803 42.3673 11.8821 42.121C11.8839 41.8242 12.0902 41.6293 12.3611 41.6411C12.6203 41.6519 12.8472 41.8666 12.7916 42.1382C12.7198 42.4855 12.727 42.8157 12.8015 43.1549L12.7997 43.154ZM14.6931 42.887C14.6814 43.2388 14.6931 43.5916 14.6886 43.9443C14.685 44.2637 14.4985 44.4649 14.2231 44.4612C13.9585 44.4576 13.7639 44.2565 13.7684 43.9551C13.7719 43.7124 13.8033 43.4689 13.8437 43.2298C13.8554 43.1603 13.9729 43.1107 13.9872 43.0403C14.0195 42.8834 14.1334 42.7291 13.9092 42.5721C13.6805 42.4124 13.7307 42.1048 13.9316 41.8477C14.0536 41.6925 14.172 41.5824 14.3783 41.6645C14.5899 41.7493 14.6823 41.9108 14.6922 42.1364C14.6994 42.2996 14.6393 42.3926 14.4635 42.4178C14.6554 42.5324 14.6994 42.6903 14.6922 42.887H14.6931ZM51.7343 42.1409C51.7406 42.748 51.7415 43.3552 51.7343 43.9623C51.7307 44.2637 51.5361 44.4621 51.2715 44.4612C51.006 44.4612 50.8203 44.2628 50.8149 43.9587C50.8087 43.652 50.8141 43.3444 50.8132 43.0367C50.8132 42.7372 50.8087 42.4368 50.814 42.1373C50.8203 41.8341 51.006 41.6384 51.2742 41.6393C51.5415 41.6402 51.7298 41.8359 51.7334 42.1409H51.7343ZM38.5002 43.0557C38.5002 43.3561 38.5029 43.6556 38.5002 43.9551C38.4966 44.2546 38.3127 44.4558 38.0445 44.4594C37.7763 44.463 37.5808 44.2646 37.579 43.966C37.5736 43.3588 37.5745 42.7507 37.579 42.1436C37.5808 41.8413 37.7683 41.642 38.0347 41.6393C38.3091 41.6366 38.4984 41.8441 38.5011 42.1562C38.5038 42.4557 38.5011 42.7561 38.5011 43.0557H38.5002ZM42.278 43.0656C42.278 43.3651 42.2825 43.6655 42.2771 43.9651C42.2717 44.2664 42.0816 44.4649 41.8143 44.4603C41.5479 44.4567 41.3623 44.2565 41.3605 43.9551C41.3569 43.3552 41.3569 42.7561 41.3605 42.1562C41.3623 41.8413 41.5506 41.6357 41.8242 41.6393C42.0995 41.642 42.2726 41.8422 42.278 42.1661C42.2807 42.3159 42.2789 42.4656 42.2789 42.6154C42.2789 42.7652 42.2789 42.9149 42.2789 43.0647L42.278 43.0656ZM40.3909 43.0512C40.3909 43.3507 40.3945 43.6511 40.39 43.9506C40.3846 44.2547 40.2016 44.4567 39.9379 44.4603C39.6626 44.464 39.4715 44.2646 39.4688 43.947C39.4635 43.3471 39.4635 42.748 39.4688 42.1481C39.4715 41.8314 39.6662 41.632 39.9415 41.6393C40.2061 41.6465 40.3846 41.845 40.3891 42.1517C40.3945 42.4512 40.39 42.7516 40.39 43.0512H40.3909ZM49.8481 43.1324C49.8481 43.4093 49.8517 43.6872 49.8472 43.9642C49.8418 44.2565 49.6445 44.4603 49.379 44.4594C49.1126 44.4594 48.9278 44.2574 48.9242 43.956C48.9206 43.6565 48.8839 43.3498 48.9341 43.0584C48.9879 42.7435 48.9224 42.444 48.9224 42.1373C48.9224 41.9189 49.0085 41.7006 49.2086 41.6898C49.3745 41.6808 49.5826 41.8098 49.7099 41.9406C49.8068 42.0398 49.8301 42.2347 49.8427 42.3908C49.8633 42.6362 49.8481 42.8852 49.8481 43.1324ZM44.1696 42.121C44.1768 42.7426 44.1777 43.3651 44.1696 43.9867C44.166 44.2718 43.9651 44.4631 43.7059 44.4603C43.4458 44.4576 43.261 44.2637 43.2557 43.9777C43.2503 43.6709 43.2548 43.3633 43.2539 43.0557C43.2539 42.748 43.2503 42.4413 43.2548 42.1336C43.2593 41.8323 43.4458 41.6366 43.7149 41.6384C43.9732 41.6402 44.166 41.8323 44.1696 42.121ZM47.9645 42.3457C47.9412 42.6912 47.9071 43.0367 47.899 43.3822C47.8946 43.597 47.9663 43.818 47.9349 44.0255C47.9134 44.1653 47.7995 44.3449 47.6775 44.4017C47.5564 44.4585 47.3725 44.3927 47.2201 44.3647C47.1806 44.3575 47.1187 44.2898 47.1214 44.2537C47.1501 43.8676 46.9062 43.4995 47.0954 43.0899C47.1761 42.9149 47.0712 42.6578 47.0694 42.4386C47.0676 42.2437 47.0506 42.0335 47.1142 41.8576C47.1833 41.6672 47.3842 41.605 47.586 41.6501C47.7842 41.6943 47.917 41.8206 47.943 42.0317C47.9556 42.1346 47.9448 42.241 47.9448 42.3457C47.9511 42.3457 47.9573 42.3457 47.9636 42.3457H47.9645ZM46.037 43.4093C46.0603 43.6529 46.1303 43.9064 45.9689 44.1238C45.9177 44.1924 45.8083 44.2249 45.7186 44.2556C45.6585 44.2763 45.585 44.2556 45.5213 44.27C45.2827 44.3259 45.176 44.2754 45.1598 44.0309C45.1383 43.6953 45.1545 43.357 45.1545 43.0205C45.1491 43.0205 45.1437 43.0205 45.1383 43.0205C45.1383 42.7282 45.1338 42.4359 45.1392 42.1436C45.1455 41.8377 45.3294 41.6402 45.5957 41.6393C45.8648 41.6393 46.0586 41.8305 46.0541 42.1364C46.0514 42.3475 45.9823 42.5577 45.9787 42.7688C45.9751 42.9817 46.0164 43.1955 46.0361 43.4093H46.037ZM10.8847 29.5186C10.8901 29.4645 11.0193 29.3689 11.0291 29.3761C11.1242 29.4473 11.2058 29.5376 11.291 29.6215C11.2381 29.6675 11.1861 29.7135 11.1718 29.727C10.9619 29.7342 10.8713 29.6603 10.8847 29.5186ZM34.3582 38.9643C34.49 39.1132 34.3384 39.1763 34.2156 39.272C34.1519 39.1448 33.9402 39.0897 34.1034 38.9337C34.1447 38.894 34.3133 38.9138 34.3591 38.9652L34.3582 38.9643Z" fill="#0A0A26"/>
</svg>
