<svg width="56" height="56" viewBox="0 0 56 56" fill="none" xmlns="http://www.w3.org/2000/svg">
<circle opacity="0.1" cx="28" cy="28" r="28" fill="#0A0A26"/>
<path fill-rule="evenodd" clip-rule="evenodd" d="M54.8553 51.8947H53.5724V44.1974H54C54.2566 44.1974 54.4276 44.0263 54.4276 43.7697C54.4276 43.5132 54.2566 43.3421 54 43.3421H53.5724V36.5H54C54.2566 36.5 54.4276 36.3289 54.4276 36.0724C54.4276 35.8158 54.2566 35.6447 54 35.6447H53.5724V33.0789H54C54.2566 33.0789 54.4276 32.9079 54.4276 32.6513C54.4276 32.3947 54.2566 32.2237 54 32.2237H53.5724V29.2303C53.5724 28.9737 53.4013 28.8026 53.1447 28.8026C52.8882 28.8026 52.7171 28.9737 52.7171 29.2303V29.6579H51.8619V27.0921H52.2895C52.5461 27.0921 52.7171 26.9211 52.7171 26.6645C52.7171 26.4079 52.5461 26.2368 52.2895 26.2368H51.8619C51.8619 25.4671 51.3487 24.7829 50.579 24.6118V23.2434C50.579 22.9868 50.4079 22.8158 50.1513 22.8158C49.8947 22.8158 49.7237 22.9868 49.7237 23.2434V24.6118C48.954 24.7829 48.4408 25.4671 48.4408 26.2368H48.0132C47.7566 26.2368 47.5855 26.4079 47.5855 26.6645C47.5855 26.9211 47.7566 27.0921 48.0132 27.0921H48.4408V29.6579H47.5855V29.2303C47.5855 28.9737 47.4145 28.8026 47.1579 28.8026C46.9013 28.8026 46.7303 28.9737 46.7303 29.2303V32.2237H46.3026C46.0461 32.2237 45.875 32.3947 45.875 32.6513C45.875 32.9079 46.0461 33.0789 46.3026 33.0789H46.7303V33.9342H39.8882V33.0789H40.3158C40.5724 33.0789 40.7434 32.9079 40.7434 32.6513C40.7434 32.3947 40.5724 32.2237 40.3158 32.2237H39.8882V27.9474H40.3158C40.5724 27.9474 40.7434 27.7763 40.7434 27.5197C40.7434 27.2632 40.5724 27.0921 40.3158 27.0921H39.8882C39.7171 26.2368 39.0329 25.5526 38.1776 25.3816V24.0987C38.1776 23.8421 38.0066 23.6711 37.75 23.6711C37.4934 23.6711 37.3224 23.8421 37.3224 24.0987V25.3816H36.8947C35.8684 25.3816 35.0132 24.6118 34.8421 23.6711H36.0395C36.2961 23.6711 36.4671 23.5 36.4671 23.2434V21.5329C36.4671 21.2763 36.2961 21.1053 36.0395 21.1053H34.7566V19.3947H35.1842C35.4408 19.3947 35.6119 19.2237 35.6119 18.9671C35.6119 18.7105 35.4408 18.5395 35.1842 18.5395H34.7566C34.4145 15.8882 32.6184 13.75 30.1382 12.8947V9.98684H30.5658C30.8224 9.98684 30.9934 9.81579 30.9934 9.55921C30.9934 9.30263 30.8224 9.13158 30.5658 9.13158H30.1382C29.9671 8.27632 29.2829 7.59211 28.4276 7.42105V4.42763C28.4276 4.17105 28.2566 4 28 4C27.7434 4 27.5724 4.17105 27.5724 4.42763V7.42105C26.7171 7.59211 26.0329 8.27632 25.8619 9.13158H25.4342C25.1776 9.13158 25.0066 9.30263 25.0066 9.55921C25.0066 9.81579 25.1776 9.98684 25.4342 9.98684H25.8619V12.8947C23.3816 13.75 21.5855 15.8882 21.2434 18.5395H20.7303C20.4737 18.5395 20.3026 18.7105 20.3026 18.9671C20.3026 19.2237 20.4737 19.3947 20.7303 19.3947H21.1579V21.1053H19.875C19.6184 21.1053 19.4474 21.2763 19.4474 21.5329V23.2434C19.4474 23.5 19.6184 23.6711 19.875 23.6711H21.0724C20.9013 24.6118 20.0461 25.3816 19.0197 25.3816H18.5921V24.0987C18.5921 23.8421 18.4211 23.6711 18.1645 23.6711C17.9079 23.6711 17.7369 23.8421 17.7369 24.0987V25.3816C16.8816 25.5526 16.1974 26.2368 16.0263 27.0921H15.5987C15.3421 27.0921 15.1711 27.2632 15.1711 27.5197C15.1711 27.7763 15.3421 27.9474 15.5987 27.9474H16.0263V32.2237H15.5987C15.3421 32.2237 15.1711 32.3947 15.1711 32.6513C15.1711 32.9079 15.3421 33.0789 15.5987 33.0789H16.0263V33.9342H9.18422V33.0789H9.61185C9.86843 33.0789 10.0395 32.9079 10.0395 32.6513C10.0395 32.3947 9.86843 32.2237 9.61185 32.2237H9.18422V29.2303C9.18422 28.9737 9.01317 28.8026 8.75659 28.8026C8.50001 28.8026 8.32896 28.9737 8.32896 29.2303V29.6579H7.4737V27.0921H7.90133C8.15791 27.0921 8.32896 26.9211 8.32896 26.6645C8.32896 26.4079 8.15791 26.2368 7.90133 26.2368H7.4737C7.4737 25.4671 6.96054 24.7829 6.1908 24.6118V23.2434C6.1908 22.9868 6.01975 22.8158 5.76317 22.8158C5.50659 22.8158 5.33554 22.9868 5.33554 23.2434V24.6118C4.5658 24.7829 4.05264 25.4671 4.05264 26.2368H3.62501C3.36843 26.2368 3.19738 26.4079 3.19738 26.6645C3.19738 26.9211 3.36843 27.0921 3.62501 27.0921H4.05264V29.6579H3.19738V29.2303C3.19738 28.9737 3.02633 28.8026 2.76975 28.8026C2.51317 28.8026 2.34212 28.9737 2.34212 29.2303V32.2237H1.91449C1.65791 32.2237 1.48685 32.3947 1.48685 32.6513C1.48685 32.9079 1.65791 33.0789 1.91449 33.0789H2.34212V35.6447H1.91449C1.65791 35.6447 1.48685 35.8158 1.48685 36.0724C1.48685 36.3289 1.65791 36.5 1.91449 36.5H2.34212V43.3421H1.91449C1.65791 43.3421 1.48685 43.5132 1.48685 43.7697C1.48685 44.0263 1.65791 44.1974 1.91449 44.1974H2.34212V51.8947H1.05922C0.802644 51.8947 0.631592 52.0658 0.631592 52.3224C0.631592 52.5789 0.802644 52.75 1.05922 52.75H54.9408C55.1974 52.75 55.3684 52.5789 55.3684 52.3224C55.3684 52.0658 55.1119 51.8947 54.8553 51.8947ZM52.7171 43.3421H47.5855V36.5H52.7171V43.3421ZM50.1513 25.3816C50.6645 25.3816 51.0066 25.7237 51.0066 26.2368H49.2961C49.2961 25.7237 49.7237 25.3816 50.1513 25.3816ZM49.2961 27.0921H51.0066V29.6579H49.2961V27.0921ZM47.5855 30.5987L48.8684 30.5132H52.6316V32.2237H47.5V30.5987H47.5855ZM52.7171 33.0789V35.6447H47.5855V33.0789H52.7171ZM46.7303 34.7895V35.6447H46.3026C46.0461 35.6447 45.875 35.8158 45.875 36.0724C45.875 36.3289 46.0461 36.5 46.3026 36.5H46.7303V37.3553H39.8882V36.5H40.3158C40.5724 36.5 40.7434 36.3289 40.7434 36.0724C40.7434 35.8158 40.5724 35.6447 40.3158 35.6447H39.8882V34.7895H46.7303ZM24.4934 49.3289V41.6316C24.4934 39.75 26.0329 38.2105 27.9145 38.2105C29.7961 38.2105 31.3355 39.75 31.3355 41.6316V51.8947H24.4934V49.3289ZM27.9145 37.3553C26.5461 37.3553 25.2632 38.0395 24.4934 39.0658V36.5H31.3355V39.0658C30.5658 38.0395 29.3684 37.3553 27.9145 37.3553ZM30.0526 35.6447H24.4934V33.9342H31.3355V35.6447H30.0526ZM25.7763 29.6579H31.3355V31.3684H24.4934V29.6579H25.7763ZM23.6382 23.6711H24.4934V27.0921H23.6382V23.6711ZM25.3487 23.6711H30.4803V27.0921H29.625V26.1513C29.625 25.2105 28.8553 24.4408 27.9145 24.4408C26.9737 24.4408 26.204 25.2105 26.204 26.1513V27.0921H25.3487V23.6711ZM32.1908 27.0921H31.3355V23.6711H32.1908V27.0921ZM27.0592 27.0921V26.1513C27.0592 25.6382 27.4013 25.2961 27.9145 25.2961C28.4276 25.2961 28.7697 25.6382 28.7697 26.1513V27.0921H27.0592ZM29.625 27.9474V28.8026H26.204V27.9474H29.625ZM21.5 32.2237H35.6119V33.0789H20.2171V32.2237H21.5ZM16.7961 34.3618V33.0789H19.3619V33.5066C19.3619 33.7632 19.5329 33.9342 19.7895 33.9342H21.0724V35.6447H16.7961V34.3618ZM21.0724 36.5V38.4671C20.8158 38.2961 20.5592 38.2105 20.2171 38.2105C19.875 38.2105 19.6184 38.2961 19.3619 38.4671V36.5H21.0724ZM21.0724 47.6184H19.3619V45.9079C19.3619 45.3947 19.704 45.0526 20.2171 45.0526C20.7303 45.0526 21.0724 45.3947 21.0724 45.9079V47.6184ZM20.2171 44.1974C19.875 44.1974 19.6184 44.2829 19.3619 44.4539V42.4868H21.0724V44.4539C20.8158 44.2829 20.5592 44.1974 20.2171 44.1974ZM21.0724 41.6316H19.3619V39.9211C19.3619 39.4079 19.704 39.0658 20.2171 39.0658C20.7303 39.0658 21.0724 39.4079 21.0724 39.9211V41.6316ZM21.9276 29.6579H23.6382V31.3684H21.9276V29.6579ZM19.3619 48.4737H21.0724V51.8947H19.3619V48.4737ZM21.9276 33.9342H23.6382V35.6447H21.9276V33.9342ZM32.1908 33.9342H33.9013V35.6447H32.1908V33.9342ZM34.7566 47.6184V45.9079C34.7566 45.3947 35.0987 45.0526 35.6119 45.0526C36.125 45.0526 36.4671 45.3947 36.4671 45.9079V47.6184H34.7566ZM35.6119 44.1974C35.2697 44.1974 35.0132 44.2829 34.7566 44.4539V42.4868H36.4671V44.4539C36.2105 44.2829 35.954 44.1974 35.6119 44.1974ZM36.4671 41.6316H34.7566V39.9211C34.7566 39.4079 35.0987 39.0658 35.6119 39.0658C36.125 39.0658 36.4671 39.4079 36.4671 39.9211V41.6316ZM33.9013 31.3684H32.1908V29.6579H33.9013V31.3684ZM36.4671 48.4737V51.8947H34.7566V48.4737H36.4671ZM36.4671 38.4671C36.2105 38.2961 35.954 38.2105 35.6119 38.2105C35.2697 38.2105 35.0132 38.2961 34.7566 38.4671V36.5H36.4671V38.4671ZM34.7566 35.6447V33.9342H36.0395C36.2961 33.9342 36.4671 33.7632 36.4671 33.5066V33.0789H39.0329V35.6447H34.7566ZM39.0329 32.2237H38.1776V30.0855C38.1776 29.8289 38.0066 29.6579 37.75 29.6579C37.4934 29.6579 37.3224 29.8289 37.3224 30.0855V32.2237H36.4671V27.9474H39.0329V32.2237ZM36.5526 27.0921C36.7237 26.5789 37.2369 26.2368 37.75 26.2368C38.2632 26.2368 38.7763 26.5789 38.9474 27.0921H36.5526ZM36.125 26.1513C35.8684 26.4079 35.6974 26.75 35.6119 27.0921H35.1842C34.9276 27.0921 34.7566 27.2632 34.7566 27.5197C34.7566 27.7763 34.9276 27.9474 35.1842 27.9474H35.6119V31.3684H34.7566V29.2303C34.7566 28.9737 34.5855 28.8026 34.329 28.8026H30.4803V27.9474H33.4737C33.7303 27.9474 33.9013 27.7763 33.9013 27.5197C33.9013 27.2632 33.7303 27.0921 33.4737 27.0921H33.0461V23.6711H33.9869C34.1579 24.8684 35.0132 25.8092 36.125 26.1513ZM33.9013 21.1053H33.0461V19.3947H33.9013V21.1053ZM23.6382 19.3947H25.3487V21.1053H23.6382V19.3947ZM29.625 19.3947V21.1053H26.204V19.3947H29.625ZM30.4803 19.3947H32.1908V21.1053H30.4803V19.3947ZM27.9145 8.27632C28.5132 8.27632 28.9408 8.61842 29.1119 9.13158H26.7171C26.8882 8.61842 27.3158 8.27632 27.9145 8.27632ZM29.1974 9.98684V12.6382C28.9408 12.5526 28.5987 12.5526 28.3421 12.5526H28.3421V11.2697C28.3421 11.0132 28.1711 10.8421 27.9145 10.8421C27.6579 10.8421 27.4869 11.0132 27.4869 11.2697V12.5526C27.3586 12.5526 27.2089 12.574 27.0592 12.5954C26.9096 12.6168 26.7599 12.6382 26.6316 12.6382V9.98684H29.1974ZM27.9145 13.4079C30.9079 13.4079 33.3882 15.6316 33.8158 18.5395H22.0132C22.4408 15.6316 24.9211 13.4079 27.9145 13.4079ZM21.9276 19.3947H22.7829V21.1053H21.9276V19.3947ZM20.2171 21.9605H35.6119V22.8158H20.2171V21.9605ZM21.9276 23.6711H22.8684V27.0921H22.4408C22.1842 27.0921 22.0132 27.2632 22.0132 27.5197C22.0132 27.7763 22.1842 27.9474 22.4408 27.9474H25.4342V28.8026H21.5855C21.329 28.8026 21.1579 28.9737 21.1579 29.2303V31.3684H20.3026V27.9474H20.7303C20.9869 27.9474 21.1579 27.7763 21.1579 27.5197C21.1579 27.2632 20.9869 27.0921 20.7303 27.0921H20.3026C20.2171 26.75 20.0461 26.4079 19.7895 26.1513C20.8158 25.8092 21.7566 24.8684 21.9276 23.6711ZM18.079 26.2368C18.6776 26.2368 19.1053 26.5789 19.2763 27.0921H16.8816C17.0526 26.5789 17.5658 26.2368 18.079 26.2368ZM19.3619 27.9474V32.2237H18.5066V30.0855C18.5066 29.8289 18.3355 29.6579 18.079 29.6579C17.8224 29.6579 17.6513 29.8289 17.6513 30.0855V32.2237H16.7961V27.9474H19.3619ZM15.9408 34.7895V35.6447H15.5132C15.2566 35.6447 15.0855 35.8158 15.0855 36.0724C15.0855 36.3289 15.2566 36.5 15.5132 36.5H15.9408V37.3553H9.0987V36.5H9.52633C9.78291 36.5 9.95396 36.3289 9.95396 36.0724C9.95396 35.8158 9.78291 35.6447 9.52633 35.6447H9.0987V34.7895H15.9408ZM5.67765 25.3816C6.1908 25.3816 6.53291 25.7237 6.53291 26.2368H4.82238C4.82238 25.7237 5.16449 25.3816 5.67765 25.3816ZM4.82238 27.0921H6.53291V29.6579H4.82238V27.0921ZM3.11186 30.5987L4.30922 30.5132H8.15791V32.2237H3.02633V30.5987H3.11186ZM3.11186 33.0789H8.24343V35.6447H3.11186V33.0789ZM3.11186 36.5H8.24343V43.3421H3.11186V36.5ZM3.11186 44.1974H8.24343V51.8947H3.11186V44.1974ZM9.0987 44.1974H9.52633C9.78291 44.1974 9.95396 44.0263 9.95396 43.7697C9.95396 43.5132 9.78291 43.3421 9.52633 43.3421H9.0987V38.2105H15.9408V51.8947H9.0987V44.1974ZM16.7961 51.8947V36.5H18.5066V51.8947H16.7961ZM21.9276 51.8947V36.5H23.6382V51.8947H21.9276ZM32.1908 51.8947V36.5H33.9013V51.8947H32.1908ZM37.3224 48.0461V36.5H39.0329V51.8947H37.3224V48.0461ZM39.8882 38.2105H46.7303V43.3421H46.3026C46.0461 43.3421 45.875 43.5132 45.875 43.7697C45.875 44.0263 46.0461 44.1974 46.3026 44.1974H46.7303V51.8947H39.8882V38.2105ZM47.5855 44.1974H52.7171V51.8947H47.5855V44.1974ZM6.96053 37.3553H4.39474C4.13816 37.3553 3.9671 37.5263 3.9671 37.7829V41.2039C3.9671 41.4605 4.13816 41.6316 4.39474 41.6316H6.96053C7.2171 41.6316 7.38816 41.4605 7.38816 41.2039V37.7829C7.38816 37.5263 7.2171 37.3553 6.96053 37.3553ZM6.53289 38.2105V39.0658H4.82237V38.2105H6.53289ZM4.82237 40.7763V39.9211H6.53289V40.7763H4.82237ZM11.2368 45.0526H13.8026C14.0592 45.0526 14.2303 45.2237 14.2303 45.4803V48.9013C14.2303 49.1579 14.0592 49.3289 13.8026 49.3289H11.2368C10.9803 49.3289 10.8092 49.1579 10.8092 48.9013V45.4803C10.8092 45.2237 10.9803 45.0526 11.2368 45.0526ZM13.375 46.7632V45.9079H11.6645V46.7632H13.375ZM11.6645 48.4737H13.375V47.6184H11.6645V48.4737ZM11.2368 39.0658H13.8026C14.0592 39.0658 14.2303 39.2368 14.2303 39.4934V42.9145C14.2303 43.1711 14.0592 43.3421 13.8026 43.3421H11.2368C10.9803 43.3421 10.8092 43.1711 10.8092 42.9145V39.4934C10.8092 39.2368 10.9803 39.0658 11.2368 39.0658ZM13.375 40.7763V39.9211H11.6645V40.7763H13.375ZM11.6645 42.4868H13.375V41.6316H11.6645V42.4868ZM4.39474 45.0526H6.96053C7.2171 45.0526 7.38816 45.2237 7.38816 45.4803V48.9013C7.38816 49.1579 7.2171 49.3289 6.96053 49.3289H4.39474C4.13816 49.3289 3.9671 49.1579 3.9671 48.9013V45.4803C3.9671 45.2237 4.13816 45.0526 4.39474 45.0526ZM4.82237 48.4737H6.53289V45.9079H4.82237V48.4737ZM27.9145 20.6776C28.1507 20.6776 28.3421 20.4862 28.3421 20.25C28.3421 20.0138 28.1507 19.8224 27.9145 19.8224C27.6783 19.8224 27.4869 20.0138 27.4869 20.25C27.4869 20.4862 27.6783 20.6776 27.9145 20.6776ZM6.1053 34.3618C6.1053 34.598 5.91384 34.7895 5.67767 34.7895C5.44149 34.7895 5.25003 34.598 5.25003 34.3618C5.25003 34.1257 5.44149 33.9342 5.67767 33.9342C5.91384 33.9342 6.1053 34.1257 6.1053 34.3618ZM48.8684 41.6316H51.4342C51.6908 41.6316 51.8618 41.4605 51.8618 41.2039V37.7829C51.8618 37.5263 51.6908 37.3553 51.4342 37.3553H48.8684C48.6118 37.3553 48.4408 37.5263 48.4408 37.7829V41.2039C48.4408 41.4605 48.6118 41.6316 48.8684 41.6316ZM49.2961 40.7763V39.9211H51.0066V40.7763H49.2961ZM51.0066 38.2105V39.0658H49.2961V38.2105H51.0066ZM44.5921 45.0526H42.0263C41.7697 45.0526 41.5987 45.2237 41.5987 45.4803V48.9013C41.5987 49.1579 41.7697 49.3289 42.0263 49.3289H44.5921C44.8487 49.3289 45.0197 49.1579 45.0197 48.9013V45.4803C45.0197 45.2237 44.8487 45.0526 44.5921 45.0526ZM42.4539 45.9079H44.1645V46.7632H42.4539V45.9079ZM42.4539 48.4737V47.6184H44.1645V48.4737H42.4539ZM44.5921 39.0658H42.0263C41.7697 39.0658 41.5987 39.2368 41.5987 39.4934V42.9145C41.5987 43.1711 41.7697 43.3421 42.0263 43.3421H44.5921C44.8487 43.3421 45.0197 43.1711 45.0197 42.9145V39.4934C45.0197 39.2368 44.8487 39.0658 44.5921 39.0658ZM42.4539 39.9211H44.1645V40.7763H42.4539V39.9211ZM42.4539 42.4868V41.6316H44.1645V42.4868H42.4539ZM51.8618 45.4803C51.8618 45.2237 51.6908 45.0526 51.4342 45.0526H48.8684C48.6118 45.0526 48.4408 45.2237 48.4408 45.4803V48.9013C48.4408 49.1579 48.6118 49.3289 48.8684 49.3289H51.4342C51.6908 49.3289 51.8618 49.1579 51.8618 48.9013V45.4803ZM51.0066 45.9079V48.4737H49.2961V45.9079H51.0066ZM50.5789 34.3618C50.5789 34.598 50.3875 34.7895 50.1513 34.7895C49.9151 34.7895 49.7237 34.598 49.7237 34.3618C49.7237 34.1257 49.9151 33.9342 50.1513 33.9342C50.3875 33.9342 50.5789 34.1257 50.5789 34.3618Z" fill="#0A0A26"/>
</svg>
