<svg width="56" height="56" viewBox="0 0 56 56" fill="none" xmlns="http://www.w3.org/2000/svg">
<circle opacity="0.1" cx="28" cy="28" r="28" fill="#0A0A26"/>
<path fill-rule="evenodd" clip-rule="evenodd" d="M54.2783 52.89H55.5469C55.8188 52.89 56 53.1619 56 53.4337C56 53.7055 55.8188 53.8868 55.5469 53.8868H0.453075C0.18123 53.8868 0 53.7055 0 53.4337C0 53.1619 0.18123 52.9806 0.453075 52.9806H1.8123V25.3431C1.8123 25.0712 1.99353 24.89 2.26537 24.89H2.71845V21.7185C2.17476 21.0842 1.99353 20.2686 2.08414 19.4531C2.17476 18.6376 2.62783 17.9126 3.26214 17.369L7.24919 14.1068V13.835C6.88673 13.7444 6.7055 13.3819 6.7055 13.0194C6.7055 12.4758 7.15858 12.0227 7.70227 12.0227C8.24596 12.0227 8.69903 12.4758 8.69903 13.0194C8.69903 13.3819 8.42719 13.6537 8.15534 13.835V14.1068L12.1424 17.2783C12.7767 17.7314 13.2298 18.547 13.3204 19.3625C13.411 20.178 13.2298 21.0842 12.6861 21.7185L12.5955 21.8091V23.8026H13.0485C13.3204 23.8026 13.5016 23.9838 13.5016 24.2557V24.7088H19.2104L20.7508 22.3528V18.9094L19.1197 16.4628C19.0291 16.3722 19.0291 16.191 19.1197 16.0097C19.1197 15.8285 19.301 15.7379 19.4822 15.7379H20.7508V14.3787C20.0259 13.3819 19.7541 12.2945 19.9353 11.1165C20.2071 9.84792 21.0227 8.57931 22.2913 7.85439L25.4628 6.31394V4.41102C25.4628 4.13918 25.644 3.95795 25.9159 3.95795H26.3689V3.0518C26.3689 2.05504 27.1845 1.2395 28.1812 1.2395C29.178 1.2395 29.9935 2.05504 29.9935 3.0518V3.95795H30.4466C30.7185 3.95795 30.8997 4.13918 30.8997 4.41102V6.22332L33.9806 7.85439C35.1586 8.4887 35.9741 9.57608 36.246 10.8447C36.5178 12.1133 36.246 13.4725 35.4304 14.5599L35.3398 14.6505V15.7379H36.7896C36.8803 15.7379 37.0615 15.8285 37.1521 16.0097C37.2427 16.1003 37.2427 16.2816 37.1521 16.4628L35.3398 19.1813V22.4434L36.9709 24.89H42.589V24.4369C42.589 24.1651 42.7702 23.9838 43.0421 23.9838H43.4952V21.7185C42.9515 21.0842 42.7702 20.2686 42.8608 19.4531C42.9515 18.6376 43.4045 17.9126 44.0388 17.369L48.0259 14.1974V13.9256C47.6634 13.835 47.4822 13.4725 47.4822 13.1101C47.4822 12.5664 47.9353 12.1133 48.479 12.1133C49.0227 12.1133 49.4757 12.5664 49.4757 13.1101C49.4757 13.4725 49.2039 13.7444 48.932 13.9256V14.1974L52.9191 17.369C53.5534 17.822 54.0065 18.6376 54.0971 19.4531C54.1877 20.2686 54.0065 21.1748 53.4628 21.8091L53.3722 21.8997V24.7994H53.8253C54.0971 24.7994 54.2783 24.9806 54.2783 25.2525V52.89ZM44.4919 18.0033C44.0388 18.3657 43.767 18.9094 43.6764 19.5437C43.6764 20.178 43.767 20.7217 44.0388 21.1748H52.6473C53.0097 20.7217 53.1909 20.178 53.1003 19.5437C53.1003 18.9094 52.7379 18.3657 52.2848 18.0033L48.3884 14.9224L44.4919 18.0033ZM52.466 24.7994V22.0809H44.3107V23.8932H45.6699C45.9418 23.8932 46.123 24.0745 46.123 24.3463V24.7994H52.466ZM40.3236 41.1101H42.4984V37.4855H40.3236V41.1101ZM42.4984 42.0162H40.3236V44.7347H42.4984V42.0162ZM40.3236 36.5793H42.4984V33.8609H40.3236V36.5793ZM9.06149 32.9547H42.9515H47.1198V31.1424H9.06149V32.9547ZM36.6084 37.4855H34.4337V41.1101H36.6084V37.4855ZM34.4337 36.5793H36.6084V33.8609H34.4337V36.5793ZM36.6084 42.0162H34.4337V44.7347H36.6084V42.0162ZM30.7185 37.4855H25.2816V41.1101H30.7185V37.4855ZM25.2816 36.5793H30.7185V33.8609H25.2816V36.5793ZM30.7185 42.0162H25.2816V44.7347H30.7185V42.0162ZM21.4757 37.4855H19.3916V41.1101H21.4757V37.4855ZM19.4822 36.5793H21.5663V33.8609H19.4822V36.5793ZM21.4757 42.0162H19.3916V44.7347H21.4757V42.0162ZM13.5922 36.5793H15.6764V33.8609H13.5922V36.5793ZM15.6764 37.4855H13.5922V41.1101H15.6764V37.4855ZM15.6764 42.0162H13.5922V44.7347H15.6764V42.0162ZM7.8835 30.2363H47.4822H48.2977L46.4854 28.424H9.6958L7.8835 30.2363ZM12.5955 27.5178V24.7994H10.7832V27.5178H12.5955ZM23.5599 19.3625H21.657V22.0809H23.4693L23.5599 19.3625ZM24.3754 22.1716H26.2783L27.7282 21.2654C27.9094 21.1748 28 21.1748 28.1812 21.2654L29.7217 22.1716H31.7152L31.8058 19.4531H24.466L24.3754 22.1716ZM31.6246 23.4402V24.7994H33.0744L31.8964 22.9871H31.2621L31.3528 23.0777C31.534 23.1683 31.6246 23.2589 31.6246 23.4402ZM34.343 19.3625H32.712L32.6214 22.0809H34.343V19.3625ZM23.1068 16.644L24.2848 18.4563H31.9871L33.1651 16.644H23.1068ZM24.6473 23.0777L24.7379 22.9871H24.1942L23.0162 24.7994H24.3754V23.4402C24.3754 23.3495 24.466 23.1683 24.6473 23.0777ZM28 22.1716L25.2816 23.712V27.5178H30.7185V23.712L28 22.1716ZM45.2168 24.7994H43.4045V27.5178H45.2168V24.7994ZM31.6246 27.5178H42.4984V25.7055H31.6246V27.5178ZM33.0744 22.9871L34.2524 24.7994H35.8835L34.6149 22.9871H33.0744ZM33.0744 18.4563H34.6149L35.8835 16.644H34.2524L33.0744 18.4563ZM28 2.14565C27.5469 2.14565 27.0939 2.59873 27.0939 3.0518V3.95795H28.9062V3.0518C28.9062 2.50811 28.4531 2.14565 28 2.14565ZM29.8123 4.8641H26.1877V5.77025H29.8123V4.8641ZM22.7443 8.66993C21.7476 9.21362 21.0227 10.2104 20.8414 11.2978C20.6602 12.2039 20.932 13.1101 21.3851 13.9256H26.0971V12.9288C26.0971 12.1133 26.4596 11.479 27.0939 11.0259L27.6375 10.6635C27.7282 10.5728 27.9094 10.5728 28.0906 10.6635L28.6343 11.0259C29.3592 11.479 29.7217 12.1133 29.7217 12.9288V13.9256H34.5243C35.1586 13.0194 35.3398 12.0227 35.1586 11.0259C34.9774 10.0291 34.2524 9.21362 33.3463 8.66993L29.6311 6.6764H26.4596L22.7443 8.66993ZM27.0939 13.9256H28.9062V12.9288C28.9062 12.3851 28.6343 12.0227 28.2718 11.7508L28 11.5696L27.7282 11.7508C27.3657 12.0227 27.0939 12.4758 27.0939 12.9288V13.9256ZM34.343 14.8317H21.657V15.7379H34.343V14.8317ZM21.9288 16.644H21.2039H20.2977L21.4757 18.4563H23.1068L21.9288 16.644ZM23.1068 22.9871H21.4757L20.2977 24.7994H21.9288L23.1068 22.9871ZM24.3754 25.7055H13.5922V27.5178H24.3754V25.7055ZM3.71521 18.0033C3.26214 18.3657 2.99029 18.9094 2.89968 19.5437C2.89968 20.178 2.99029 20.7217 3.26214 21.1748H11.8706C12.233 20.7217 12.4142 20.178 12.3236 19.5437C12.3236 18.9094 11.9612 18.3657 11.5081 18.0033L7.61165 14.9224L3.71521 18.0033ZM11.6893 22.0809H3.53398V24.7994H9.87702V24.3463C9.87702 24.0745 10.0583 23.8932 10.3301 23.8932H11.6893V22.0809ZM2.62783 52.89H9.42395V52.7994H9.87702V33.7703H8.5178C8.24596 33.7703 8.06473 33.589 8.06473 33.3172V31.0518H6.79612C6.61489 31.0518 6.43366 30.8706 6.34304 30.78C6.25243 30.6894 6.34304 30.4175 6.43366 30.3269L9.15211 27.6084C9.19741 27.6084 9.26538 27.5858 9.33334 27.5631C9.4013 27.5405 9.46926 27.5178 9.51456 27.5178H9.87702V25.7055H2.62783V52.89ZM10.7832 33.8609V52.89H12.6861V33.8609H10.7832ZM13.5922 45.6408V52.89H15.6764V45.6408H13.5922ZM16.5825 33.8609V52.89H18.4854V33.8609H16.5825ZM19.3916 45.6408V52.89H21.4757V45.6408H19.3916ZM22.4725 33.8609V52.89H24.3754V33.8609H22.4725ZM25.2816 45.6408V52.89H30.7185V45.6408H25.2816ZM31.6246 33.8609V52.89H33.5275V33.8609H31.6246ZM34.4337 45.6408V52.89H36.6084V45.6408H34.4337ZM37.5146 33.8609V52.89H39.4175V33.8609H37.5146ZM40.3236 45.6408V52.89H42.4984V45.6408H40.3236ZM43.4045 52.89H44.3107H45.3075V33.8609H43.4045V52.89ZM46.2136 33.8609V52.89V52.9806H53.3722V25.7961H46.123V27.6084H46.6667C46.8479 27.6084 46.9385 27.6084 47.0291 27.6991L49.7476 30.4175C49.8382 30.5081 49.9288 30.6894 49.8382 30.8706C49.7476 31.0518 49.5664 31.1424 49.3851 31.1424H47.9353V33.4078C47.9353 33.6796 47.7541 33.8609 47.4822 33.8609H46.2136ZM51.6505 36.5795C51.6505 37.5763 50.835 38.3918 49.8382 38.3918C48.8414 38.3918 48.0259 37.5763 48.0259 36.5795C48.0259 35.5827 48.8414 34.7672 49.8382 34.7672C50.835 34.7672 51.6505 35.5827 51.6505 36.5795ZM50.7443 36.5795C50.7443 36.0358 50.3819 35.6734 49.8382 35.6734C49.2945 35.6734 48.932 36.0358 48.932 36.5795C48.932 37.1232 49.2945 37.4857 49.8382 37.4857C50.3819 37.4857 50.7443 37.1232 50.7443 36.5795ZM8.15533 36.5795C8.15533 37.5763 7.33979 38.3918 6.34303 38.3918C5.34626 38.3918 4.53073 37.5763 4.53073 36.5795C4.53073 35.5827 5.34626 34.7672 6.34303 34.7672C7.33979 34.7672 8.15533 35.5827 8.15533 36.5795ZM7.24918 36.5795C7.24918 36.0358 6.88672 35.6734 6.34303 35.6734C5.79934 35.6734 5.43688 36.0358 5.43688 36.5795C5.43688 37.1232 5.79934 37.4857 6.34303 37.4857C6.88672 37.4857 7.24918 37.1232 7.24918 36.5795ZM4.89319 48.3595H7.61164C7.88348 48.3595 8.06471 48.6313 8.06471 48.8125V50.6248C8.06471 50.8967 7.88348 51.0779 7.61164 51.0779H4.89319C4.62135 51.0779 4.44012 50.8967 4.44012 50.6248V48.8125C4.44012 48.5407 4.62135 48.3595 4.89319 48.3595ZM5.34626 50.1717H7.15856V49.2656H5.34626V50.1717ZM3.98704 40.2041H8.51779C8.78963 40.2041 8.97086 40.3853 8.97086 40.6572C8.97086 40.929 8.78963 41.1103 8.51779 41.1103H8.06471V46.0941C8.06471 46.3659 7.88348 46.5472 7.61164 46.5472H4.89319C4.62135 46.5472 4.44012 46.3659 4.44012 46.0941V41.1103H3.98704C3.7152 41.1103 3.53397 40.929 3.53397 40.6572C3.53397 40.3853 3.7152 40.2041 3.98704 40.2041ZM5.34626 45.641H7.15856V41.1103H5.34626V45.641ZM47.9353 48.8125C47.9353 48.5407 48.1165 48.3595 48.3884 48.3595H51.1068C51.3786 48.3595 51.5599 48.6313 51.5599 48.8125V50.6248C51.5599 50.8967 51.3786 51.0779 51.1068 51.0779H48.3884C48.1165 51.0779 47.9353 50.8967 47.9353 50.6248V48.8125ZM48.8414 49.2656V50.1717H50.6537V49.2656H48.8414ZM47.4822 40.2041H52.013C52.2848 40.2041 52.466 40.3853 52.466 40.6572C52.466 40.929 52.2848 41.1103 52.013 41.1103H51.5599V46.0941C51.5599 46.3659 51.3786 46.5472 51.1068 46.5472H48.3884C48.1165 46.5472 47.9353 46.3659 47.9353 46.0941V41.1103H47.4822C47.2104 41.1103 47.0291 40.929 47.0291 40.6572C47.0291 40.3853 47.2104 40.2041 47.4822 40.2041ZM48.8414 41.1103V45.641H50.6537V41.1103H48.8414Z" fill="#0A0A26"/>
</svg>
