<svg width="56" height="56" viewBox="0 0 56 56" fill="none" xmlns="http://www.w3.org/2000/svg">
<circle opacity="0.1" cx="28" cy="28" r="28" fill="#0A0A26"/>
<g clip-path="url(#clip0_2140_17459)">
<path d="M45.0323 14.6838C45.0323 12.7174 45.1639 12.8103 43.809 11.4322C43.6651 11.2871 43.4938 11.1719 43.3052 11.0933C43.1165 11.0147 42.9141 10.9742 42.7097 10.9742C42.5053 10.9742 42.3029 11.0147 42.1142 11.0933C41.9255 11.1719 41.7543 11.2871 41.6103 11.4322L41.0374 12.0206C40.3006 11.4245 39.4012 11.0642 38.4566 10.9869C37.5119 10.9096 36.5659 11.1187 35.7419 11.5871C35.7419 7.80901 35.9974 8.19611 34.1936 6.72514C33.859 6.47267 33.4514 6.33609 33.0323 6.33609C32.6132 6.33609 32.2055 6.47267 31.871 6.72514L31.0348 7.42191C30.3887 6.87983 29.6073 6.52387 28.7742 6.39223V5.54836C28.7742 5.34303 28.6926 5.14612 28.5475 5.00093C28.4023 4.85574 28.2053 4.77417 28 4.77417C27.7947 4.77417 27.5978 4.85574 27.4526 5.00093C27.3074 5.14612 27.2258 5.34303 27.2258 5.54836V6.39223C26.3982 6.52655 25.6224 6.88236 24.9807 7.42191L24.129 6.72514C23.7945 6.47267 23.3869 6.33609 22.9678 6.33609C22.5487 6.33609 22.141 6.47267 21.8065 6.72514C19.9716 8.21159 20.2581 7.87094 20.2581 11.5871C19.4347 11.1166 18.4883 10.9062 17.5432 10.9836C16.5981 11.061 15.6985 11.4225 14.9626 12.0206L14.3897 11.4322C14.2457 11.2871 14.0745 11.1719 13.8858 11.0933C13.6971 11.0147 13.4947 10.9742 13.2903 10.9742C13.0859 10.9742 12.8835 11.0147 12.6949 11.0933C12.5062 11.1719 12.3349 11.2871 12.191 11.4322C10.9678 12.7019 10.9678 12.5161 10.9678 14.6838C9.98986 14.1263 8.84454 13.9377 7.7395 14.1522C6.63446 14.3666 5.64286 14.97 4.94453 15.8529C4.6813 16.178 4.77421 13.5613 4.77421 50.4516C4.77421 50.6569 4.85577 50.8538 5.00096 50.999C5.14615 51.1442 5.34307 51.2258 5.5484 51.2258H50.4516C50.657 51.2258 50.8539 51.1442 50.9991 50.999C51.1442 50.8538 51.2258 50.6569 51.2258 50.4516C51.2258 13.778 51.3187 16.178 51.0555 15.8529C50.3572 14.97 49.3656 14.3666 48.2605 14.1522C47.1555 13.9377 46.0102 14.1263 45.0323 14.6838ZM21.8065 11.7419H24.129V16.3871H21.8065V11.7419ZM49.6774 31.7161C48.9713 31.3084 48.1702 31.0938 47.3548 31.0938C46.5395 31.0938 45.7384 31.3084 45.0323 31.7161V25.1355C45.3305 24.8186 45.6904 24.5662 46.0898 24.3936C46.4892 24.221 46.9197 24.132 47.3548 24.132C47.79 24.132 48.2205 24.221 48.6199 24.3936C49.0193 24.5662 49.3792 24.8186 49.6774 25.1355V31.7161ZM43.4839 24.849C43.4839 24.9264 43.6542 24.9032 41.9355 24.9032V23.3548H43.4839V24.849ZM41.9355 26.4516H43.4839V31.0968H41.9355V26.4516ZM43.4839 21.8064H41.9355V15.6129H43.4839V21.8064ZM40.3871 30.1677C39.681 29.76 38.8799 29.5454 38.0645 29.5454C37.2491 29.5454 36.4481 29.76 35.7419 30.1677V22.8129C36.0402 22.4961 36.4001 22.2436 36.7995 22.071C37.1989 21.8985 37.6294 21.8094 38.0645 21.8094C38.4996 21.8094 38.9301 21.8985 39.3296 22.071C39.729 22.2436 40.0889 22.4961 40.3871 22.8129V30.1677ZM24.129 19.4838H21.8065V17.9355H24.129V19.4838ZM24.129 21.0322V24.9032H21.8065V21.0322H24.129ZM21.8065 26.4516H24.129V33.4193H21.8065V26.4516ZM25.6774 25.9097C25.9757 25.5928 26.3356 25.3404 26.735 25.1678C27.1344 24.9952 27.5649 24.9062 28 24.9062C28.4351 24.9062 28.8656 24.9952 29.265 25.1678C29.6645 25.3404 30.0244 25.5928 30.3226 25.9097V32.4903C29.6164 32.0826 28.8154 31.868 28 31.868C27.1846 31.868 26.3836 32.0826 25.6774 32.4903V25.9097ZM34.1936 24.9032H31.871V21.0322H34.1936V24.9032ZM34.1936 19.4838H31.871V17.9355H34.1936V19.4838ZM31.871 26.4516H34.1936V33.4193H31.871V26.4516ZM34.1936 16.3871H31.871V11.7419H34.1936V16.3871ZM30.3226 23.9742C29.6164 23.5665 28.8154 23.3518 28 23.3518C27.1846 23.3518 26.3836 23.5665 25.6774 23.9742V17.3935C25.9757 17.0767 26.3356 16.8242 26.735 16.6517C27.1344 16.4791 27.5649 16.3901 28 16.3901C28.4351 16.3901 28.8656 16.4791 29.265 16.6517C29.6645 16.8242 30.0244 17.0767 30.3226 17.3935V23.9742ZM20.2581 30.1677C19.5519 29.76 18.7509 29.5454 17.9355 29.5454C17.1201 29.5454 16.3191 29.76 15.6129 30.1677V22.8129C15.9111 22.4961 16.271 22.2436 16.6705 22.071C17.0699 21.8985 17.5004 21.8094 17.9355 21.8094C18.3706 21.8094 18.8011 21.8985 19.2005 22.071C19.6 22.2436 19.9599 22.4961 20.2581 22.8129V30.1677ZM14.0645 24.9032C12.2994 24.9032 12.5161 24.9032 12.5161 24.849V23.3548H14.0645V24.9032ZM12.5161 26.4516H14.0645V31.0968H12.5161V26.4516ZM14.0645 21.8064H12.5161V15.6129H14.0645V21.8064ZM10.9678 31.7006C10.2541 31.3157 9.456 31.1142 8.64518 31.1142C7.83436 31.1142 7.03624 31.3157 6.3226 31.7006V25.1664C6.6132 24.8369 6.9706 24.573 7.37105 24.3922C7.77149 24.2115 8.20582 24.118 8.64518 24.118C9.08453 24.118 9.51886 24.2115 9.91931 24.3922C10.3198 24.573 10.6771 24.8369 10.9678 25.1664V31.7006ZM6.3226 33.6826C6.6132 33.353 6.9706 33.0891 7.37105 32.9084C7.77149 32.7276 8.20582 32.6341 8.64518 32.6341C9.08453 32.6341 9.51886 32.7276 9.91931 32.9084C10.3198 33.0891 10.6771 33.353 10.9678 33.6826V40.2322C10.2616 39.8245 9.46057 39.6099 8.64518 39.6099C7.82978 39.6099 7.02875 39.8245 6.3226 40.2322V33.6826ZM12.5161 32.6451H14.0645V40.3871H12.5161V32.6451ZM15.6129 32.1032C15.9111 31.7864 16.271 31.5339 16.6705 31.3614C17.0699 31.1888 17.5004 31.0998 17.9355 31.0998C18.3706 31.0998 18.8011 31.1888 19.2005 31.3614C19.6 31.5339 19.9599 31.7864 20.2581 32.1032V39.458C19.5519 39.0503 18.7509 38.8357 17.9355 38.8357C17.1201 38.8357 16.3191 39.0503 15.6129 39.458V32.1032ZM21.8065 34.9677H24.129V41.9355H21.8065V34.9677ZM25.6774 34.4258C25.9757 34.109 26.3356 33.8565 26.735 33.6839C27.1344 33.5114 27.5649 33.4223 28 33.4223C28.4351 33.4223 28.8656 33.5114 29.265 33.6839C29.6645 33.8565 30.0244 34.109 30.3226 34.4258V40.96C29.6061 40.5843 28.8091 40.388 28 40.388C27.1909 40.388 26.394 40.5843 25.6774 40.96V34.4258ZM31.871 34.9677H34.1936V41.9355H31.871V34.9677ZM35.7419 32.1032C36.0402 31.7864 36.4001 31.5339 36.7995 31.3614C37.1989 31.1888 37.6294 31.0998 38.0645 31.0998C38.4996 31.0998 38.9301 31.1888 39.3296 31.3614C39.729 31.5339 40.0889 31.7864 40.3871 32.1032V39.458C39.681 39.0503 38.8799 38.8357 38.0645 38.8357C37.2491 38.8357 36.4481 39.0503 35.7419 39.458V32.1032ZM41.9355 32.6451H43.4839V40.3871H41.9355V32.6451ZM45.0323 33.6516C45.3305 33.3348 45.6904 33.0823 46.0898 32.9097C46.4892 32.7372 46.9197 32.6482 47.3548 32.6482C47.79 32.6482 48.2205 32.7372 48.6199 32.9097C49.0193 33.0823 49.3792 33.3348 49.6774 33.6516V40.2322C48.9713 39.8245 48.1702 39.6099 47.3548 39.6099C46.5395 39.6099 45.7384 39.8245 45.0323 40.2322V33.6516ZM49.6774 16.6193V23.2C48.9713 22.7923 48.1702 22.5776 47.3548 22.5776C46.5395 22.5776 45.7384 22.7923 45.0323 23.2V16.6193C45.3305 16.3025 45.6904 16.05 46.0898 15.8775C46.4892 15.7049 46.9197 15.6159 47.3548 15.6159C47.79 15.6159 48.2205 15.7049 48.6199 15.8775C49.0193 16.05 49.3792 16.3025 49.6774 16.6193ZM42.7097 12.5161C43.6077 13.4297 43.4839 13.1587 43.4839 14.0645H41.9355C41.9355 13.1587 41.8271 13.4297 42.7097 12.5161ZM40.3871 13.5226V20.8774C39.681 20.4697 38.8799 20.2551 38.0645 20.2551C37.2491 20.2551 36.4481 20.4697 35.7419 20.8774V13.5226C36.0402 13.2057 36.4001 12.9533 36.7995 12.7807C37.1989 12.6081 37.6294 12.5191 38.0645 12.5191C38.4996 12.5191 38.9301 12.6081 39.3296 12.7807C39.729 12.9533 40.0889 13.2057 40.3871 13.5226ZM32.8387 7.92514C32.8976 7.89116 32.9643 7.87328 33.0323 7.87328C33.1002 7.87328 33.167 7.89116 33.2258 7.92514C34.0465 8.59869 34.1936 8.64514 34.1936 8.86965V10.1935H31.871V8.86965C31.871 8.64514 32.0103 8.64514 32.8387 7.92514ZM30.3226 15.458C29.6164 15.0503 28.8154 14.8357 28 14.8357C27.1846 14.8357 26.3836 15.0503 25.6774 15.458V8.8774C25.9757 8.56057 26.3356 8.30811 26.735 8.13555C27.1344 7.96298 27.5649 7.87396 28 7.87396C28.4351 7.87396 28.8656 7.96298 29.265 8.13555C29.6645 8.30811 30.0244 8.56057 30.3226 8.8774V15.458ZM21.969 8.5832L22.7432 7.92514C22.8021 7.89116 22.8688 7.87328 22.9368 7.87328C23.0047 7.87328 23.0715 7.89116 23.1303 7.92514C23.9819 8.59869 24.129 8.64514 24.129 8.86965V10.1935H21.8065C21.8065 8.74578 21.76 8.76127 21.969 8.5832ZM20.2581 13.5226V20.8774C19.5519 20.4697 18.7509 20.2551 17.9355 20.2551C17.1201 20.2551 16.3191 20.4697 15.6129 20.8774V13.5226C15.9111 13.2057 16.271 12.9533 16.6705 12.7807C17.0699 12.6081 17.5004 12.5191 17.9355 12.5191C18.3706 12.5191 18.8011 12.6081 19.2005 12.7807C19.6 12.9533 19.9599 13.2057 20.2581 13.5226ZM13.2903 12.5161C14.1884 13.4297 14.0645 13.1587 14.0645 14.0645H12.5161C12.5161 13.1587 12.4078 13.4297 13.2903 12.5161ZM6.3226 16.6193C6.62082 16.3025 6.98072 16.05 7.38014 15.8775C7.77956 15.7049 8.21007 15.6159 8.64518 15.6159C9.08028 15.6159 9.51079 15.7049 9.91021 15.8775C10.3096 16.05 10.6695 16.3025 10.9678 16.6193V23.1845C10.2577 22.7885 9.45818 22.5807 8.64518 22.5807C7.83217 22.5807 7.03267 22.7885 6.3226 23.1845V16.6193ZM6.3226 42.1677C6.62082 41.8509 6.98072 41.5984 7.38014 41.4259C7.77956 41.2533 8.21007 41.1643 8.64518 41.1643C9.08028 41.1643 9.51079 41.2533 9.91021 41.4259C10.3096 41.5984 10.6695 41.8509 10.9678 42.1677V49.6774H6.3226V42.1677ZM12.5161 41.9355H14.0645V49.6774H12.5161V41.9355ZM15.6129 41.3935C15.9111 41.0767 16.271 40.8242 16.6705 40.6517C17.0699 40.4791 17.5004 40.3901 17.9355 40.3901C18.3706 40.3901 18.8011 40.4791 19.2005 40.6517C19.6 40.8242 19.9599 41.0767 20.2581 41.3935V49.6774H15.6129V41.3935ZM21.8065 43.4838H24.129V49.6774H21.8065V43.4838ZM25.6774 42.849C26.3089 42.263 27.1385 41.9373 28 41.9373C28.8615 41.9373 29.6912 42.263 30.3226 42.849V49.6774H25.6774V42.849ZM31.871 43.4838H34.1936V49.6774H31.871V43.4838ZM35.7419 41.3935C36.0402 41.0767 36.4001 40.8242 36.7995 40.6517C37.1989 40.4791 37.6294 40.3901 38.0645 40.3901C38.4996 40.3901 38.9301 40.4791 39.3296 40.6517C39.729 40.8242 40.0889 41.0767 40.3871 41.3935V49.6774H35.7419V41.3935ZM41.9355 41.9355H43.4839V49.6774H41.9355V41.9355ZM49.6774 49.6774H45.0323V42.1677C45.3305 41.8509 45.6904 41.5984 46.0898 41.4259C46.4892 41.2533 46.9197 41.1643 47.3548 41.1643C47.79 41.1643 48.2205 41.2533 48.6199 41.4259C49.0193 41.5984 49.3792 41.8509 49.6774 42.1677V49.6774Z" fill="black"/>
<path d="M27.2258 10.9678V12.5162C27.2258 12.7215 27.3074 12.9184 27.4526 13.0636C27.5978 13.2088 27.7947 13.2904 28 13.2904C28.2053 13.2904 28.4023 13.2088 28.5474 13.0636C28.6926 12.9184 28.7742 12.7215 28.7742 12.5162V10.9678C28.7742 10.7625 28.6926 10.5655 28.5474 10.4204C28.4023 10.2752 28.2053 10.1936 28 10.1936C27.7947 10.1936 27.5978 10.2752 27.4526 10.4204C27.3074 10.5655 27.2258 10.7625 27.2258 10.9678ZM28.7742 29.5484V28.0001C28.7742 27.7947 28.6926 27.5978 28.5474 27.4526C28.4023 27.3074 28.2053 27.2259 28 27.2259C27.7947 27.2259 27.5978 27.3074 27.4526 27.4526C27.3074 27.5978 27.2258 27.7947 27.2258 28.0001V29.5484C27.2258 29.7538 27.3074 29.9507 27.4526 30.0959C27.5978 30.2411 27.7947 30.3226 28 30.3226C28.2053 30.3226 28.4023 30.2411 28.5474 30.0959C28.6926 29.9507 28.7742 29.7538 28.7742 29.5484ZM28 44.2581C27.7947 44.2581 27.5978 44.3397 27.4526 44.4849C27.3074 44.6301 27.2258 44.827 27.2258 45.0323V46.5807C27.2258 46.786 27.3074 46.9829 27.4526 47.1281C27.5978 47.2733 27.7947 47.3549 28 47.3549C28.2053 47.3549 28.4023 47.2733 28.5474 47.1281C28.6926 46.9829 28.7742 46.786 28.7742 46.5807V45.0323C28.7742 44.827 28.6926 44.6301 28.5474 44.4849C28.4023 44.3397 28.2053 44.2581 28 44.2581ZM46.5806 27.2259V28.7742C46.5806 28.9796 46.6622 29.1765 46.8074 29.3217C46.9526 29.4669 47.1495 29.5484 47.3548 29.5484C47.5602 29.5484 47.7571 29.4669 47.9023 29.3217C48.0475 29.1765 48.129 28.9796 48.129 28.7742V27.2259C48.129 27.0205 48.0475 26.8236 47.9023 26.6784C47.7571 26.5332 47.5602 26.4517 47.3548 26.4517C47.1495 26.4517 46.9526 26.5332 46.8074 26.6784C46.6622 26.8236 46.5806 27.0205 46.5806 27.2259ZM46.5806 45.0323V46.5807C46.5806 46.786 46.6622 46.9829 46.8074 47.1281C46.9526 47.2733 47.1495 47.3549 47.3548 47.3549C47.5602 47.3549 47.7571 47.2733 47.9023 47.1281C48.0475 46.9829 48.129 46.786 48.129 46.5807V45.0323C48.129 44.827 48.0475 44.6301 47.9023 44.4849C47.7571 44.3397 47.5602 44.2581 47.3548 44.2581C47.1495 44.2581 46.9526 44.3397 46.8074 44.4849C46.6622 44.6301 46.5806 44.827 46.5806 45.0323ZM38.0645 18.7097C38.2698 18.7097 38.4668 18.6282 38.612 18.483C38.7571 18.3378 38.8387 18.1409 38.8387 17.9355V15.613C38.8387 15.4076 38.7571 15.2107 38.612 15.0655C38.4668 14.9203 38.2698 14.8388 38.0645 14.8388C37.8592 14.8388 37.6623 14.9203 37.5171 15.0655C37.3719 15.2107 37.2903 15.4076 37.2903 15.613V17.9355C37.2903 18.1409 37.3719 18.3378 37.5171 18.483C37.6623 18.6282 37.8592 18.7097 38.0645 18.7097ZM38.8387 36.5162V34.1936C38.8387 33.9883 38.7571 33.7914 38.612 33.6462C38.4668 33.501 38.2698 33.4194 38.0645 33.4194C37.8592 33.4194 37.6623 33.501 37.5171 33.6462C37.3719 33.7914 37.2903 33.9883 37.2903 34.1936V36.5162C37.2903 36.7215 37.3719 36.9184 37.5171 37.0636C37.6623 37.2088 37.8592 37.2904 38.0645 37.2904C38.2698 37.2904 38.4668 37.2088 38.612 37.0636C38.7571 36.9184 38.8387 36.7215 38.8387 36.5162ZM8.64517 26.4517C8.43984 26.4517 8.24292 26.5332 8.09773 26.6784C7.95254 26.8236 7.87097 27.0205 7.87097 27.2259V28.7742C7.87097 28.9796 7.95254 29.1765 8.09773 29.3217C8.24292 29.4669 8.43984 29.5484 8.64517 29.5484C8.85049 29.5484 9.04741 29.4669 9.1926 29.3217C9.33779 29.1765 9.41936 28.9796 9.41936 28.7742V27.2259C9.41936 27.0205 9.33779 26.8236 9.1926 26.6784C9.04741 26.5332 8.85049 26.4517 8.64517 26.4517ZM8.64517 44.2581C8.43984 44.2581 8.24292 44.3397 8.09773 44.4849C7.95254 44.6301 7.87097 44.827 7.87097 45.0323V46.5807C7.87097 46.786 7.95254 46.9829 8.09773 47.1281C8.24292 47.2733 8.43984 47.3549 8.64517 47.3549C8.85049 47.3549 9.04741 47.2733 9.1926 47.1281C9.33779 46.9829 9.41936 46.786 9.41936 46.5807V45.0323C9.41936 44.827 9.33779 44.6301 9.1926 44.4849C9.04741 44.3397 8.85049 44.2581 8.64517 44.2581ZM17.9355 18.7097C18.1408 18.7097 18.3377 18.6282 18.4829 18.483C18.6281 18.3378 18.7097 18.1409 18.7097 17.9355V15.613C18.7097 15.4076 18.6281 15.2107 18.4829 15.0655C18.3377 14.9203 18.1408 14.8388 17.9355 14.8388C17.7302 14.8388 17.5332 14.9203 17.388 15.0655C17.2429 15.2107 17.1613 15.4076 17.1613 15.613V17.9355C17.1613 18.1409 17.2429 18.3378 17.388 18.483C17.5332 18.6282 17.7302 18.7097 17.9355 18.7097ZM18.7097 36.5162V34.1936C18.7097 33.9883 18.6281 33.7914 18.4829 33.6462C18.3377 33.501 18.1408 33.4194 17.9355 33.4194C17.7302 33.4194 17.5332 33.501 17.388 33.6462C17.2429 33.7914 17.1613 33.9883 17.1613 34.1936V36.5162C17.1613 36.7215 17.2429 36.9184 17.388 37.0636C17.5332 37.2088 17.7302 37.2904 17.9355 37.2904C18.1408 37.2904 18.3377 37.2088 18.4829 37.0636C18.6281 36.9184 18.7097 36.7215 18.7097 36.5162Z" fill="black"/>
</g>
<defs>
<clipPath id="clip0_2140_17459">
<rect width="48" height="48" fill="white" transform="translate(4 4)"/>
</clipPath>
</defs>
</svg>
