<svg width="56" height="56" viewBox="0 0 56 56" fill="none" xmlns="http://www.w3.org/2000/svg">
<circle opacity="0.1" cx="28" cy="28" r="28" fill="#0A0A26"/>
<path fill-rule="evenodd" clip-rule="evenodd" d="M54.3251 49.4803C54.5838 49.4803 54.6963 49.5253 54.7301 49.8065L54.7076 49.8177C54.7221 49.9414 54.7884 50.0557 54.8669 50.1909C54.9098 50.2648 54.9563 50.345 55 50.4364C54.8383 50.4073 54.6826 50.4196 54.5325 50.4314C54.2756 50.4517 54.035 50.4706 53.8077 50.2789C53.7639 50.2351 53.6561 50.2659 53.5778 50.2884L53.5715 50.2901C53.5082 50.306 53.4462 50.3274 53.3852 50.3485C53.2728 50.3873 53.1635 50.4251 53.0542 50.4251H11.0329H1.52864C1.21371 50.4251 1 50.2339 1 49.9752C1 49.7165 1.22495 49.5028 1.55114 49.5028H6.24141H9.01958C9.23329 49.5028 9.30077 49.4353 9.30077 49.2216C9.28952 48.648 9.28952 48.0744 9.30077 47.5007C9.31202 47.2758 9.23329 47.197 9.00833 47.197C8.62591 47.197 8.4347 47.0508 8.41221 46.7809C8.38971 46.4772 8.54718 46.2972 8.85086 46.2747H9.09831C9.26703 46.286 9.31202 46.2072 9.31202 46.061V45.8923C9.31202 45.6524 9.19579 45.5324 8.96334 45.5324C8.60342 45.5324 8.42345 45.3749 8.42345 45.0712C8.42345 44.7675 8.60342 44.6101 8.96334 44.6101C9.13584 44.6101 9.223 44.6101 9.26704 44.5665C9.31202 44.522 9.31202 44.432 9.31202 44.2502V39.1212C9.31202 38.8738 9.19579 38.7501 8.96334 38.7501C8.60342 38.7388 8.42345 38.5813 8.42345 38.2777C8.42345 37.9852 8.61466 37.8052 8.97459 37.8277C9.26703 37.8502 9.32327 37.7378 9.32327 37.4678C9.31576 37.0775 9.31827 36.6821 9.32078 36.2885C9.32202 36.0923 9.32327 35.8965 9.32327 35.7019C9.32327 35.6738 9.32889 35.6429 9.33451 35.612C9.34014 35.581 9.34576 35.5501 9.34576 35.522C9.36263 35.5107 9.37669 35.5023 9.39075 35.4939C9.40481 35.4854 9.41887 35.477 9.43574 35.4657C9.50322 35.567 9.55946 35.6682 9.61569 35.7694L9.61571 35.7694C9.63258 35.7582 9.64945 35.7497 9.66632 35.7413C9.68319 35.7329 9.70006 35.7244 9.71693 35.7132C9.71456 35.6966 9.71269 35.6789 9.71079 35.6611C9.70368 35.5942 9.69619 35.5237 9.6607 35.4882C9.31202 35.1733 9.26703 34.7796 9.33451 34.3635C9.43574 33.7561 9.15455 33.3062 8.79463 32.8675C8.63716 32.6876 8.47969 32.4964 8.37846 32.2939C8.29973 32.1364 8.24349 31.9227 8.29973 31.7878C8.35597 31.664 8.56967 31.5403 8.72714 31.5291C9.01676 31.5049 9.31213 31.5096 9.60502 31.5142C9.72163 31.516 9.83784 31.5178 9.95314 31.5178C10.0046 31.5178 10.0596 31.5105 10.1226 31.5021C10.1698 31.4958 10.2215 31.4889 10.2793 31.4841C10.2504 31.4378 10.2225 31.3932 10.1954 31.3499C10.0643 31.1405 9.9525 30.9619 9.84066 30.7755C9.83457 30.7653 9.8284 30.7551 9.82217 30.7448C9.75934 30.6407 9.6914 30.5281 9.6607 30.4155C9.59321 30.1456 9.79567 29.8869 10.0881 29.8869H11.5391H11.8765C11.8242 29.7981 11.7793 29.7166 11.7371 29.6401C11.6884 29.5518 11.6435 29.4703 11.5953 29.392C11.5053 29.2458 11.4153 29.1108 11.3253 28.9758C11.1229 28.6722 11.2691 28.1997 11.7303 28.211C12.0469 28.2184 12.3588 28.2161 12.6942 28.2136C12.8711 28.2123 13.0545 28.211 13.2487 28.211C13.1739 28.0844 13.108 27.9755 13.0463 27.8738C12.9874 27.7765 12.9325 27.6858 12.8775 27.5924C12.8516 27.5491 12.824 27.5076 12.7966 27.4664C12.7528 27.4004 12.7097 27.3354 12.6751 27.2662C12.4839 26.9063 12.6751 26.5351 13.0912 26.5351C13.7886 26.5238 14.4972 26.5126 15.1945 26.5351C15.4532 26.5463 15.5095 26.4564 15.5095 26.2089C15.502 25.8936 15.5045 25.5832 15.507 25.2745C15.5082 25.1208 15.5095 24.9675 15.5095 24.8142C15.5207 24.6005 15.4532 24.4993 15.217 24.5105C15.0591 24.518 14.9063 24.5155 14.7551 24.513C14.6801 24.5118 14.6055 24.5105 14.5309 24.5105C14.1823 24.4993 14.036 24.3418 14.036 24.0381C14.0473 23.7457 14.216 23.5882 14.5422 23.5882H15.3858C15.4327 23.5882 15.4797 23.5834 15.5301 23.5782C15.5882 23.5722 15.6509 23.5657 15.7232 23.5657C15.6817 23.4828 15.6403 23.4031 15.5998 23.3253C15.5085 23.1496 15.4222 22.9836 15.352 22.8121C15.1945 22.4409 15.3633 22.1598 15.7682 22.126C15.9142 22.1187 16.0651 22.1209 16.2329 22.1233C16.3236 22.1246 16.4192 22.126 16.5218 22.126C16.398 21.8786 16.3081 21.6986 16.2068 21.5186C15.9144 21.0125 16.1056 20.6638 16.7017 20.6638H18.94C19.1762 20.6638 19.2437 20.5851 19.2437 20.3601C19.2381 20.0156 19.2579 19.8668 19.1937 19.804C19.13 19.7417 18.9836 19.764 18.6476 19.764C18.4114 19.764 18.1752 19.7303 18.1077 19.4828C18.0627 19.3366 18.0852 19.1229 18.1752 19.0104C18.2652 18.8979 18.4676 18.8529 18.6251 18.8305C18.7855 18.8159 18.9506 18.8202 19.1357 18.825C19.2362 18.8277 19.3426 18.8305 19.4574 18.8305C19.3212 18.5902 19.2079 18.3784 19.1011 18.1789C19.058 18.0983 19.0159 18.0196 18.9738 17.9419C18.7825 17.5932 18.8163 17.3008 19.075 17.1658C19.1537 17.1321 19.2549 17.1096 19.3562 17.1096C20.1885 17.0983 21.0096 17.0983 21.8419 17.0983C22.0444 17.0983 22.1456 17.0308 22.1231 16.8171V16.5472C22.1234 16.5379 22.1237 16.5287 22.124 16.5195C22.1352 16.1944 22.1445 15.9249 21.7069 15.7936C21.2683 15.6586 21.0883 15.2424 21.0883 14.7925C21.0883 14.3539 21.2795 13.994 21.6957 13.814C22.1159 13.6383 22.4531 13.3483 22.7919 13.057C22.9518 12.9195 23.1121 12.7817 23.2816 12.6555C23.436 12.5481 23.5823 12.4247 23.7279 12.302C23.8262 12.2191 23.9242 12.1365 24.024 12.0594C24.1702 11.9469 24.1814 11.8906 24.024 11.7557C23.1129 10.9683 23.3154 9.60737 24.4064 9.11248C24.5863 9.03374 24.8113 9 25.0138 9H33.337C34.0231 9 34.5743 9.39367 34.7992 10.0123C35.0242 10.6534 34.8667 11.3058 34.3268 11.7557C34.1581 11.8906 34.1806 11.9469 34.3268 12.0706C34.5723 12.2687 34.8146 12.4669 35.056 12.6644C35.445 12.9826 35.8321 13.2992 36.2277 13.6115C36.2946 13.6701 36.3801 13.7037 36.4612 13.7357C36.4892 13.7467 36.5166 13.7575 36.5426 13.769C37.0487 13.994 37.3299 14.4326 37.2737 14.9275C37.2175 15.4562 36.8575 15.8386 36.2502 15.9511C36.2502 16.0586 36.2477 16.1685 36.2452 16.2797C36.2402 16.5059 36.2351 16.7371 36.2502 16.9633C36.2502 17.0196 36.4076 17.0983 36.4864 17.0983H38.5897C38.6909 17.0983 38.7921 17.0983 38.8934 17.1096C39.2195 17.1546 39.3883 17.4132 39.2645 17.7169C39.168 17.947 39.0471 18.1771 38.921 18.4169C38.856 18.5405 38.7897 18.6666 38.7246 18.7967C38.769 18.8011 38.8099 18.8073 38.8486 18.8132C38.9081 18.8222 38.9626 18.8305 39.0171 18.8305C39.1067 18.8305 39.1975 18.8292 39.2887 18.828C39.4724 18.8255 39.6578 18.8229 39.8382 18.8305C40.1194 18.8529 40.3106 19.0442 40.3106 19.2916C40.3106 19.5391 40.1194 19.7415 39.8382 19.764H39.7257C39.391 19.7696 39.2444 19.7447 39.1803 19.8061C39.1152 19.8684 39.1352 20.0198 39.1296 20.3826C39.1183 20.6076 39.2195 20.6526 39.422 20.6526H41.4691H41.6828C42.2339 20.6638 42.4251 20.99 42.1552 21.4849C42.1142 21.5622 42.0751 21.6396 42.0341 21.7206C41.9738 21.84 41.9094 21.9674 41.829 22.1148H42.5039C43.01 22.1373 43.19 22.4185 42.9875 22.8796C42.9211 23.0198 42.8499 23.16 42.7738 23.3097C42.7339 23.3882 42.6926 23.4693 42.6501 23.5545C42.7018 23.5592 42.7476 23.5658 42.79 23.572C42.849 23.5806 42.9014 23.5882 42.9538 23.5882H43.8536C44.1573 23.5995 44.3485 23.7907 44.3485 24.0606C44.3485 24.3306 44.1798 24.4993 43.8761 24.5105C43.7982 24.5105 43.719 24.5117 43.6391 24.513C43.4766 24.5155 43.3108 24.5181 43.145 24.5105C42.9313 24.4993 42.875 24.5893 42.875 24.7805V26.2764C42.875 26.4676 42.9425 26.5238 43.1337 26.5238H45.2033C45.4395 26.5238 45.6195 26.5913 45.7319 26.7938C45.8332 26.9738 45.7657 27.1537 45.6532 27.3224C45.5349 27.5118 45.422 27.7011 45.2954 27.9138C45.2414 28.0043 45.185 28.099 45.1246 28.1998H45.642H46.598C46.8005 28.1885 46.9804 28.2335 47.0816 28.4247C47.1829 28.6272 47.1491 28.8296 47.0142 29.0208C46.9167 29.1558 46.8292 29.3008 46.7417 29.4458C46.698 29.5182 46.6542 29.5907 46.6092 29.6619C46.5905 29.687 46.5787 29.7155 46.5622 29.7552C46.5491 29.7869 46.533 29.8257 46.508 29.8757H47.3516H48.2289C48.6676 29.8869 48.8588 30.2131 48.6451 30.6067C48.5926 30.7042 48.5301 30.8017 48.4676 30.8992C48.4364 30.9479 48.4051 30.9967 48.3751 31.0454C48.317 31.1326 48.2636 31.2197 48.2028 31.319C48.1694 31.3735 48.1338 31.4316 48.0939 31.4953C48.1349 31.4987 48.1706 31.5021 48.2031 31.5052C48.2777 31.5123 48.3349 31.5178 48.3976 31.5178H49.5674C49.7811 31.5178 50.006 31.574 50.0623 31.7765C50.096 31.9452 50.051 32.1814 49.9611 32.3276C49.8283 32.5534 49.672 32.7634 49.5153 32.974C49.4066 33.1201 49.2976 33.2666 49.1962 33.4187C49.1062 33.5424 49.05 33.7223 49.05 33.8686V37.4678C49.05 37.8277 49.0612 37.8277 49.4099 37.8277C49.6574 37.8277 49.8598 37.8952 49.9273 38.1652C50.006 38.4801 49.8148 38.7276 49.4662 38.7501C49.1887 38.765 49.05 38.9113 49.05 39.1887V44.1489C49.05 44.4414 49.1962 44.5951 49.4887 44.6101C49.7698 44.6213 49.9386 44.8125 49.9386 45.0825C49.9386 45.3412 49.7698 45.5211 49.4999 45.5324H49.0612C49.0612 45.6058 49.0586 45.6753 49.056 45.7426C49.0511 45.8711 49.0465 45.9918 49.0612 46.1173C49.0725 46.1623 49.1512 46.2297 49.2187 46.2522C49.2712 46.2597 49.3337 46.2572 49.3962 46.2547C49.4274 46.2535 49.4587 46.2522 49.4887 46.2522C49.7698 46.2747 49.9161 46.4097 49.9386 46.6684C49.9611 46.9383 49.8148 47.1296 49.5449 47.1745C49.4898 47.1863 49.4252 47.1899 49.3619 47.1934C49.2443 47.1998 49.1316 47.206 49.095 47.2645C49.0273 47.366 49.036 47.512 49.0444 47.6547C49.0472 47.7018 49.05 47.7485 49.05 47.7932C49.05 47.9427 49.0525 48.0935 49.055 48.2447C49.06 48.5484 49.065 48.8538 49.05 49.1541C49.0387 49.4016 49.1062 49.4803 49.3649 49.4803H54.3251ZM47.3179 30.8092C47.3066 30.798 47.2729 30.7867 47.2729 30.7867L47.2841 30.7642H43.5499C43.4824 30.7642 43.4037 30.8092 43.3699 30.8542C43.2581 31.0033 43.1618 31.16 43.0489 31.3437C43.0255 31.3818 43.0014 31.421 42.9763 31.4616C43.1225 31.4841 43.2237 31.4953 43.3249 31.4953H46.508C46.9804 31.4953 47.2054 31.3154 47.3179 30.8092ZM45.6379 29.4004C45.6945 29.3101 45.7546 29.214 45.8219 29.1108H45.8107H42.6388C42.2564 29.1108 41.9527 29.4032 41.9077 29.8194C41.919 29.8307 41.9415 29.8419 41.9527 29.8419H45.2258C45.282 29.8419 45.3608 29.8194 45.3945 29.7744C45.4756 29.6595 45.5527 29.5364 45.6379 29.4004ZM21.167 26.4676C21.2345 26.4901 21.2908 26.5014 21.2908 26.5014V26.5238H25.3737C25.5536 26.5238 25.5874 26.4339 25.5874 26.2876C25.5874 26.1223 25.5861 25.9581 25.5849 25.7944C25.5824 25.4682 25.5799 25.1437 25.5874 24.8142C25.5986 24.578 25.5086 24.4993 25.2724 24.4993H22.9329C22.7596 24.4993 22.5876 24.498 22.4164 24.4968C22.0765 24.4943 21.7399 24.4918 21.4033 24.4993C21.3133 24.4993 21.167 24.6117 21.167 24.668V26.4676ZM23.4728 28.1773V27.4574H18.1189C18.1792 27.5645 18.2354 27.6556 18.2877 27.7403C18.3232 27.798 18.357 27.8526 18.3889 27.9073C18.5014 28.0985 18.6476 28.1773 18.895 28.1773H23.1804H23.4728ZM30.6938 19.7303H28.0169C27.6548 19.7358 27.4996 19.7 27.4338 19.7608C27.3668 19.8228 27.3927 19.9852 27.387 20.3939C27.387 20.5851 27.4657 20.6301 27.6345 20.6301H29.1866H30.3564C30.975 20.6301 30.975 20.6301 30.975 20.0115C30.975 19.7865 30.9075 19.7303 30.6938 19.7303ZM32.6203 21.5488C32.596 21.5506 32.5719 21.5524 32.5497 21.5524H32.5384H25.8123C25.7889 21.5524 25.7635 21.5494 25.7379 21.5464C25.6774 21.5393 25.6156 21.532 25.5761 21.5636C25.4862 21.6311 25.3849 21.7323 25.3849 21.8223C25.3849 21.9123 25.4862 22.0135 25.5761 22.0698C25.6165 22.094 25.68 22.0892 25.7418 22.0846C25.7661 22.0828 25.7901 22.081 25.8123 22.081H29.1641H32.5159C32.5381 22.081 32.5616 22.0824 32.5855 22.0838C32.6586 22.088 32.735 22.0924 32.7859 22.0585C32.8759 22.0023 32.9771 21.8898 32.9771 21.8111C32.9771 21.7323 32.8759 21.6199 32.7859 21.5636C32.7455 21.5394 32.682 21.5442 32.6203 21.5488ZM31.9086 20.3472C31.9199 19.989 31.8968 19.8383 31.9604 19.7753C32.0224 19.714 32.1666 19.7358 32.5047 19.7303H33.2133H33.3483H34.5518C34.7317 19.7303 34.8105 19.7865 34.8105 19.9777C34.7991 20.3749 34.8221 20.5316 34.7567 20.5909C34.6925 20.6491 34.543 20.6133 34.1918 20.6188H32.201C31.9905 20.6188 31.911 20.5533 31.9086 20.3472ZM23.844 20.6188H25.8573L25.8686 20.6076C26.2114 20.6076 26.3585 20.6348 26.4221 20.5742C26.488 20.5116 26.4645 20.3551 26.4759 19.9777C26.4759 19.764 26.386 19.719 26.1948 19.719H25.025H24.1814C23.8178 19.7246 23.6684 19.6996 23.6074 19.7616C23.5456 19.8243 23.5741 19.9758 23.5628 20.3376C23.5516 20.5626 23.6303 20.6188 23.844 20.6188ZM25.2366 23.0118C25.1635 23.0076 25.0871 23.0032 25.0362 23.0371L25.0475 23.0033C24.9463 23.0708 24.8338 23.172 24.8338 23.2733C24.8225 23.352 24.9463 23.4532 25.0362 23.5095C25.0871 23.5434 25.1635 23.539 25.2366 23.5347C25.2605 23.5333 25.284 23.532 25.3062 23.532H29.1754H32.7409C32.7982 23.532 32.8564 23.535 32.9148 23.538C33.0513 23.5451 33.1885 23.5522 33.3145 23.5207C33.4158 23.4982 33.562 23.3633 33.562 23.2733C33.562 23.1833 33.4158 23.0821 33.3145 23.0146C33.2843 22.9994 33.2286 23.0047 33.1748 23.0097C33.1486 23.0122 33.1229 23.0146 33.1008 23.0146H25.3062C25.284 23.0146 25.2605 23.0132 25.2366 23.0118ZM26.7459 24.4768C26.5772 24.4768 26.5097 24.5555 26.5097 24.7242V26.2539C26.4984 26.4339 26.5659 26.5014 26.7571 26.5014H29.1866H31.6386C31.8073 26.5014 31.8748 26.4451 31.8748 26.2652V24.713C31.8748 24.533 31.7961 24.4768 31.6274 24.4768H26.7459ZM33.4495 27.4237H29.1979L29.1866 27.4124H26.1048H24.7663C24.5413 27.4237 24.3951 27.5586 24.3951 27.7723C24.3839 27.9973 24.5301 28.121 24.7438 28.1548H24.9125H33.4495C33.4724 28.1548 33.4962 28.1567 33.5197 28.1585C33.5768 28.1631 33.6313 28.1674 33.6632 28.1435C33.6764 28.1316 33.6903 28.1194 33.7044 28.1069C33.8107 28.0132 33.9345 27.904 33.9444 27.7948C33.9548 27.6908 33.8305 27.5676 33.7317 27.4696C33.7237 27.4616 33.7158 27.4538 33.7082 27.4462C33.6743 27.4122 33.5956 27.4167 33.5204 27.4209C33.4958 27.4223 33.4716 27.4237 33.4495 27.4237ZM25.7673 29.0996H24.0802L24.0689 29.1108C23.8552 29.1108 23.7203 29.2233 23.7203 29.4145C23.7315 29.5382 23.844 29.6844 23.9452 29.7969C23.9902 29.8419 24.1139 29.8419 24.2039 29.8419H34.1581C34.473 29.8419 34.6642 29.6844 34.6642 29.4595C34.6642 29.2233 34.4955 29.0996 34.1581 29.0996H29.1754H25.7673ZM32.8079 26.3189C32.8137 26.3693 32.8196 26.4211 32.8196 26.4789H37.2062V24.7242C37.2175 24.533 37.15 24.4768 36.9588 24.4768H33.0558C32.8534 24.4768 32.7971 24.5668 32.7971 24.758V26.1752C32.7971 26.2245 32.8025 26.2711 32.8079 26.3189ZM40.1868 27.4462H34.9117V28.166H35.2154H39.467C39.8382 28.166 40.1643 27.8398 40.1868 27.4462ZM35.6028 29.2916C35.6078 29.4028 35.6127 29.5124 35.5978 29.617L35.5865 29.6057C35.5528 29.7969 35.6315 29.8307 35.789 29.8307H40.513C40.5805 29.8307 40.693 29.8194 40.7267 29.7632C40.8509 29.6008 40.9588 29.4303 41.085 29.231C41.1074 29.1957 41.1304 29.1594 41.1541 29.1221H35.5978C35.5978 29.1787 35.6003 29.2354 35.6028 29.2916ZM36.6407 30.9649C36.648 31.068 36.6545 31.1603 36.6326 31.2479H36.6213C36.5763 31.4391 36.6438 31.4841 36.8238 31.4841H41.6153C41.7053 31.4841 41.8177 31.4616 41.8627 31.4053C41.9608 31.2847 42.0436 31.1539 42.135 31.0097C42.18 30.9388 42.227 30.8646 42.2789 30.7867H36.6326C36.6326 30.8499 36.6367 30.909 36.6407 30.9649ZM44.4385 27.4574C44.3597 27.4349 44.2922 27.4237 44.2922 27.4237L44.281 27.4124H41.5366C41.4803 27.4124 41.3903 27.4349 41.3678 27.4687C41.2718 27.6016 41.1855 27.7394 41.0962 27.882C41.0495 27.9566 41.0019 28.0325 40.9517 28.1098C40.9856 28.1195 41.0112 28.1292 41.0321 28.1371C41.0595 28.1475 41.0787 28.1548 41.0979 28.1548H43.8423C43.8986 28.1548 43.9773 28.1435 44.011 28.0985C44.1573 27.8961 44.2922 27.6936 44.4385 27.4574ZM41.9527 26.2652V24.7467C41.9527 24.5443 41.8627 24.488 41.6715 24.488H40.3331C40.1198 24.488 39.9052 24.4868 39.6903 24.4855C39.2591 24.483 38.8263 24.4805 38.3985 24.488C38.3085 24.488 38.151 24.578 38.151 24.6342V26.4901H41.7615C41.9415 26.4901 41.9527 26.3889 41.9527 26.2652ZM41.1879 23.5432C41.6153 23.5432 41.649 23.5207 41.7953 23.0371H34.5405C34.4943 23.2969 34.4718 23.4233 34.5248 23.4849C34.575 23.5432 34.693 23.5432 34.9229 23.5432H41.1879ZM40.3443 22.0698C40.6742 22.0698 40.8992 21.9011 41.0192 21.5636H33.9781C33.8882 22.0585 33.8994 22.0698 34.3718 22.0698H40.3443ZM38.1732 20.5727C38.2382 20.5124 38.2185 20.3607 38.2297 19.989H38.2185C38.2185 19.764 38.1285 19.719 37.9261 19.719H36.3739C36.0066 19.7246 35.8485 19.6916 35.7812 19.755C35.7126 19.8196 35.7384 19.9848 35.7328 20.3939C35.7328 20.5626 35.8115 20.6076 35.969 20.6076H36.9813H37.6111C37.9593 20.602 38.1084 20.6328 38.1732 20.5727ZM34.8217 13.6115C34.698 13.5103 34.5968 13.4203 34.5968 13.4203H34.608C34.4468 13.2891 34.2843 13.1591 34.1219 13.0292C33.7969 12.7692 33.472 12.5093 33.1571 12.2393C32.9135 12.0294 32.6637 12.0514 32.3843 12.0761C32.2894 12.0844 32.1911 12.0931 32.0885 12.0931C32.1852 12.2554 32.2776 12.4113 32.3675 12.5628C32.5702 12.9049 32.7597 13.2245 32.9546 13.5441C32.9771 13.589 33.0558 13.6115 33.1121 13.6115H34.8217ZM25.0138 9.87732C24.7438 9.86607 24.5751 10.001 24.4626 10.2372V10.2485C24.3501 10.4847 24.3726 10.7434 24.5638 10.9009C24.7213 11.0246 24.9688 11.1258 25.1712 11.1258H29.1754H33.1571C33.2695 11.1258 33.3933 11.1258 33.5057 11.0921C33.7532 11.0358 33.8994 10.8671 33.9556 10.6309C34.0119 10.3835 33.9444 10.1585 33.7419 10.0235C33.5845 9.93356 33.3933 9.87732 33.2133 9.87732H25.8011H25.0138ZM29.8615 12.0594C29.7153 12.0594 29.6478 12.1268 29.6478 12.2731V13.3978C29.6478 13.5328 29.6928 13.6003 29.839 13.6003H31.8298C31.8194 13.5689 31.8162 13.5448 31.8136 13.5247C31.8105 13.5014 31.8081 13.4834 31.7961 13.4653C31.7239 13.3429 31.6526 13.2205 31.5814 13.0983C31.3975 12.7827 31.2146 12.4687 31.02 12.1606C30.975 12.1044 30.8625 12.0594 30.7838 12.0594H29.8615ZM26.8021 13.6003H28.7142V12.2393C28.7142 12.1943 28.6692 12.1044 28.6467 12.1044C28.4612 12.1044 28.2784 12.1072 28.0956 12.11C27.9128 12.1128 27.7301 12.1156 27.5445 12.1156C27.5332 12.1156 27.5107 12.1381 27.5107 12.1493C27.358 12.4549 27.2099 12.7604 27.0574 13.0751C26.9741 13.2469 26.8895 13.4215 26.8021 13.6003ZM26.1158 12.0648C25.7502 12.048 25.4144 12.0325 25.1037 12.3181C24.7709 12.6192 24.4158 12.9036 24.0619 13.1869C23.9135 13.3058 23.7653 13.4244 23.619 13.5441L23.6415 13.6115H25.6549C25.6886 13.6115 25.7561 13.589 25.7673 13.5553C25.9845 13.1209 26.2017 12.677 26.4364 12.1974L26.4984 12.0706C26.3673 12.0763 26.2398 12.0705 26.1158 12.0648ZM22.0834 14.6959C22.0665 14.7135 22.0498 14.7309 22.0331 14.7476H22.0219C22.0533 14.77 22.0829 14.7978 22.1121 14.8252C22.1562 14.8666 22.1995 14.9072 22.2468 14.9275C22.2997 14.9426 22.3577 14.9374 22.4139 14.9324C22.4414 14.9299 22.4684 14.9275 22.4943 14.9275H29.1754H35.8565C35.8874 14.9275 35.9182 14.9315 35.9482 14.9353C36.0056 14.9427 36.0596 14.9497 36.1039 14.9275C36.1639 14.905 36.2139 14.8625 36.2639 14.82C36.2889 14.7988 36.3139 14.7775 36.3401 14.7588C36.3242 14.7429 36.3087 14.7269 36.2934 14.7112C36.2332 14.6491 36.1757 14.59 36.1039 14.5451C36.0742 14.5302 36.0298 14.535 35.9836 14.54C35.9599 14.5425 35.9357 14.5451 35.9127 14.5451H22.438C22.4151 14.5451 22.3909 14.5412 22.3671 14.5374C22.3209 14.53 22.2765 14.5228 22.2468 14.5451C22.1876 14.5874 22.1347 14.6425 22.0834 14.6959ZM32.9771 16.8171C32.9771 16.9746 33.0446 17.0308 33.1908 17.0308H34.1356H35.0917C35.2491 17.0308 35.3166 16.9746 35.3166 16.8059V16.0973C35.3279 15.9398 35.2491 15.8723 35.0917 15.8723H33.1908C33.0333 15.8723 32.9771 15.9398 32.9771 16.086V16.8171ZM31.6949 17.0308C31.9536 17.0646 32.066 16.9746 32.0435 16.7046H32.0323C32.0248 16.5772 32.0273 16.4497 32.0298 16.3222C32.031 16.2585 32.0323 16.1948 32.0323 16.131C32.0323 15.9511 31.9648 15.8723 31.7736 15.8723C31.3683 15.8798 30.9679 15.8773 30.5693 15.8748C30.3706 15.8736 30.1723 15.8723 29.974 15.8723C29.6478 15.8723 29.5578 15.9511 29.5353 16.2772C29.5241 16.3672 29.5128 16.4797 29.5466 16.5697C29.5635 16.6133 29.5753 16.6621 29.5871 16.7112C29.6301 16.8901 29.6739 17.0725 29.974 17.0196C30.019 17.0083 30.1089 17.0758 30.1314 17.1321C30.2327 17.3458 30.4351 17.4245 30.5926 17.2445C30.8273 16.9874 31.0954 17.0081 31.3858 17.0304L31.3912 17.0308C31.4249 17.0308 31.4587 17.0296 31.4924 17.0283C31.5599 17.0258 31.6274 17.0233 31.6949 17.0308ZM26.5434 15.8836C26.3747 15.8836 26.3185 15.9511 26.3185 16.1085H26.3297V16.7946C26.3185 16.9858 26.3972 17.0421 26.5884 17.0421H27.5107H28.4893C28.6467 17.0421 28.7142 16.9858 28.7142 16.8171V16.1085C28.7142 15.9398 28.6355 15.8836 28.478 15.8836H26.5434ZM23.2816 15.8836C23.1241 15.8836 23.0454 15.9511 23.0454 16.1085V16.7946C23.0342 16.9746 23.1241 17.0308 23.2929 17.0308H24.2152H25.1375C25.2949 17.0421 25.3737 16.9858 25.3737 16.8171V16.086C25.3737 15.9511 25.3174 15.8836 25.16 15.8836H23.2816ZM37.9093 18.2631C37.9535 18.1767 37.9989 18.0881 38.0498 17.9981H20.0985C20.117 18.0304 20.1345 18.0603 20.1509 18.0885C20.2148 18.1976 20.2629 18.2799 20.2897 18.3693C20.4022 18.7292 20.6609 18.7967 21.0208 18.7967H27.5895H37.3187C37.4312 18.7967 37.5999 18.7855 37.6449 18.718C37.7476 18.5786 37.8263 18.4249 37.9093 18.2631ZM22.3706 19.7303H20.7846L20.7959 19.7415C20.438 19.7471 20.2803 19.7138 20.2121 19.777C20.1433 19.8409 20.166 20.0036 20.166 20.4051C20.166 20.5626 20.2222 20.6301 20.391 20.6301H21.4033H22.0331C22.3775 20.6245 22.5244 20.6519 22.5876 20.5916C22.6523 20.5298 22.6291 20.3759 22.6405 20.0002C22.6405 19.7977 22.573 19.7303 22.3706 19.7303ZM24.1252 21.5524H17.6465H17.6353C17.5948 21.5524 17.5544 21.5569 17.5099 21.5619C17.4553 21.5681 17.3947 21.5749 17.3204 21.5749C17.3653 21.6423 17.3965 21.7133 17.4259 21.7805C17.4998 21.9486 17.5628 22.0923 17.804 22.0923H24.2039C24.3614 22.0923 24.4401 22.0585 24.4401 21.8786C24.4626 21.6311 24.3839 21.5524 24.1252 21.5524ZM23.5628 23.0258H16.8817V23.0146C16.838 23.0146 16.7917 23.0199 16.744 23.0253C16.6935 23.0311 16.6414 23.0371 16.5893 23.0371C16.7467 23.5545 16.758 23.5545 17.2304 23.5545H21.482H23.6303C23.7203 23.5545 23.844 23.4982 23.8665 23.442C23.9677 23.1496 23.8665 23.0258 23.5628 23.0258ZM19.986 24.488H16.7242L16.713 24.4655C16.5218 24.4655 16.4318 24.5105 16.4318 24.7242V26.2539C16.4318 26.4339 16.488 26.4901 16.668 26.4901H18.2764H20.211C20.211 26.2743 20.2123 26.0623 20.2135 25.8524C20.216 25.4388 20.2185 25.0334 20.211 24.623C20.211 24.578 20.0648 24.488 19.986 24.488ZM16.6792 27.4349H14.261C14.2214 27.4349 14.1819 27.4371 14.1375 27.4395C14.081 27.4426 14.0167 27.4462 13.9348 27.4462C13.9697 27.5042 14.0032 27.5557 14.0344 27.6036C14.094 27.695 14.1454 27.7738 14.1823 27.8623C14.2947 28.1323 14.4972 28.1773 14.7671 28.1773H17.0842H17.4328C17.402 28.1249 17.3729 28.0759 17.3452 28.0294C17.2719 27.906 17.2088 27.7998 17.1516 27.6936C17.0504 27.5024 16.9154 27.4349 16.6792 27.4349ZM13.8657 29.1133C13.5445 29.1121 13.2229 29.1108 12.9 29.1108L12.8888 29.0996H12.5513C12.5891 29.1613 12.6247 29.2177 12.6582 29.2709C12.7347 29.3922 12.8003 29.4962 12.855 29.6057C12.9563 29.7857 13.08 29.8532 13.2937 29.8532H16.2068C16.2538 29.8532 16.2984 29.8483 16.3461 29.8431C16.4013 29.8371 16.4607 29.8307 16.533 29.8307C16.5006 29.773 16.4716 29.7211 16.4446 29.6727C16.3874 29.5702 16.3391 29.4837 16.2856 29.392C16.1731 29.2008 16.0381 29.1108 15.7907 29.1108C15.1462 29.1183 14.5068 29.1158 13.8657 29.1133ZM21.7574 30.9385C21.7634 30.8949 21.7699 30.8483 21.7744 30.798V30.7867H16.1169C16.1521 30.8573 16.1874 30.9186 16.2211 30.9771C16.2518 31.0306 16.2812 31.0817 16.3081 31.1354C16.4318 31.3941 16.6117 31.4953 16.9267 31.4953C17.9011 31.4878 18.8804 31.4903 19.8615 31.4928C20.3526 31.4941 20.8442 31.4953 21.3358 31.4953C21.5421 31.4953 21.6433 31.4953 21.6929 31.4447C21.7407 31.396 21.7407 31.3005 21.7407 31.1129C21.7407 31.0595 21.7486 31.0022 21.7574 30.9385ZM14.5872 30.7755H11.3703V30.798C11.3141 30.798 11.2607 30.8008 11.2072 30.8036C11.1538 30.8064 11.1004 30.8092 11.0442 30.8092C11.1904 31.3378 11.4041 31.5178 11.8877 31.5178H15.0483C15.0943 31.5178 15.1426 31.5132 15.1953 31.5081C15.2587 31.502 15.3284 31.4953 15.4082 31.4953C15.3961 31.4764 15.3845 31.4584 15.3733 31.441C15.291 31.3134 15.2328 31.2231 15.1833 31.1241C15.0596 30.8654 14.8796 30.7755 14.5872 30.7755ZM10.2793 39.0425V41.6857L10.2681 41.6744V44.3514C10.2681 44.5313 10.3131 44.6101 10.5155 44.6101C10.815 44.6026 11.1096 44.6051 11.4058 44.6076C11.5545 44.6088 11.7036 44.6101 11.854 44.6101C12.034 44.6101 12.0902 44.5538 12.0902 44.3739V38.975C12.0902 38.8063 12.0227 38.7388 11.854 38.7388C11.7115 38.7388 11.569 38.7401 11.4266 38.7413C11.1416 38.7438 10.8567 38.7463 10.5718 38.7388C10.3356 38.7276 10.2793 38.8288 10.2793 39.0425ZM13.0188 46.3007C13.0297 47.1028 13.0406 47.8996 13.0125 48.7042L13.0013 48.693C12.99 48.9629 13.0013 49.2216 13.0575 49.4691H14.1823V45.7911C14.1935 45.5999 14.1373 45.5211 13.9236 45.5324C13.7099 45.5549 13.4961 45.5549 13.2937 45.5324C13.08 45.5211 13.0125 45.5999 13.0125 45.8136C13.0144 45.9762 13.0166 46.1386 13.0188 46.3007ZM13.0125 38.9525V39.4137H13.0013V44.3176C13.0013 44.5313 13.0575 44.6326 13.2937 44.6101C13.4066 44.6026 13.5245 44.6051 13.6407 44.6076C13.6982 44.6088 13.7553 44.6101 13.8111 44.6101C14.051 44.6026 14.171 44.4751 14.171 44.2277V41.6969V39.1325C14.171 38.87 14.036 38.7388 13.7661 38.7388H13.2262C13.08 38.7388 13.0125 38.8063 13.0125 38.9525ZM10.6167 45.5324C10.3843 45.5324 10.2681 45.6524 10.2681 45.8923H10.2793V46.0273C10.2681 46.196 10.3356 46.2635 10.5155 46.2635H11.5166C12.1352 46.2635 12.1464 46.2522 12.0677 45.6224C12.0564 45.6111 12.0452 45.5886 12.0227 45.5324H10.6167ZM10.2681 47.3995V49.2779H10.2568C10.2568 49.4241 10.3243 49.4803 10.4705 49.4803H11.4716H11.9215C12.0452 49.4691 12.0789 49.3903 12.0789 49.2554V48.3556V47.4332C12.0902 47.2533 12.0115 47.197 11.8427 47.197H10.4818C10.3356 47.197 10.2681 47.242 10.2681 47.3995ZM15.1383 49.4916H17.8152H17.8265C18.0964 49.5028 18.1527 49.4128 18.1527 49.1541C18.1302 48.603 18.1414 48.0406 18.1527 47.4895C18.1527 47.2533 18.0627 47.197 17.849 47.197H17.8487C17.0502 47.2083 16.2517 47.2195 15.4532 47.197C15.1833 47.197 15.1271 47.2983 15.1271 47.5345C15.1383 47.7707 15.1383 48.7942 15.1383 49.4916ZM18.1414 45.9935V45.8023H18.1527C18.1864 45.5774 18.0739 45.5324 17.8715 45.5324C17.0617 45.5436 16.2518 45.5436 15.442 45.5324C15.1945 45.5211 15.1158 45.5999 15.1496 45.8361V46.0048C15.1271 46.196 15.2058 46.2747 15.4082 46.2747H16.6342H17.8602C18.0627 46.2747 18.1752 46.2185 18.1414 45.9935ZM15.7344 44.6101C16.0269 44.6213 16.0719 44.5089 16.0719 44.2502V39.3687C16.0719 38.9992 16.0969 38.8442 16.032 38.779C15.9664 38.7133 15.8092 38.7389 15.442 38.7276C15.217 38.7163 15.1496 38.795 15.1496 39.02V41.6632V44.014C15.1496 44.3101 15.1496 44.4536 15.2213 44.5258C15.2939 44.5988 15.4401 44.5988 15.7344 44.6101ZM17.8715 44.5988C18.0739 44.6213 18.1414 44.5426 18.1414 44.3401H18.1302V41.6744V39.5711C18.1302 39.1475 18.1302 38.9366 18.0247 38.8316C17.9202 38.7276 17.7122 38.7276 17.2979 38.7276C17.0504 38.7276 16.9942 38.8175 16.9942 39.0425V41.7082V44.3289C16.9942 44.5426 17.0617 44.6213 17.2754 44.5988C17.4666 44.5763 17.669 44.5876 17.8715 44.5988ZM19.947 49.4705C20.0307 49.4698 20.1149 49.4691 20.1998 49.4691V45.5211H19.8173C19.7488 45.5244 19.6718 45.521 19.5939 45.5176C19.4034 45.5093 19.2078 45.5008 19.12 45.5886C19.0282 45.6887 19.0416 45.8939 19.0547 46.0941C19.0592 46.164 19.0637 46.2332 19.0637 46.2972V49.2104C19.0637 49.3004 19.1537 49.4578 19.21 49.4578C19.4541 49.4747 19.6982 49.4726 19.947 49.4705ZM19.3995 44.605C19.5993 44.6 19.7927 44.5952 19.986 44.6101H19.9748C20.166 44.6213 20.2222 44.5538 20.2222 44.3626C20.211 42.5855 20.211 40.7971 20.211 39.02V38.7276C20.1062 38.7276 20.0068 38.7302 19.9108 38.7328C19.7288 38.7377 19.5593 38.7423 19.3899 38.7276C19.1312 38.7051 19.0525 38.8063 19.0525 39.065C19.06 40.2202 19.0575 41.3803 19.055 42.5388C19.0537 43.1175 19.0525 43.6957 19.0525 44.2727C19.0525 44.3358 19.0612 44.4033 19.0705 44.4751C19.0762 44.5185 19.082 44.5635 19.0862 44.6101C19.1929 44.6101 19.2971 44.6075 19.3995 44.605ZM18.9529 37.7915C19.2291 37.7927 19.5057 37.794 19.7836 37.794L19.7723 37.7828C20.0494 37.7828 20.3276 37.7815 20.6063 37.7803C21.165 37.7778 21.7253 37.7752 22.2806 37.7828C22.5564 37.793 22.5539 37.6362 22.5511 37.464C22.5508 37.4467 22.5505 37.4291 22.5505 37.4116C22.5505 37.2091 22.5505 37.0517 22.2693 37.0742C21.9656 37.1079 21.6507 37.0966 21.347 37.0742C21.0658 37.0517 20.8859 36.8267 20.8859 36.5905C20.8971 36.3318 21.0771 36.1631 21.3808 36.1518H22.3368C22.5732 36.1518 22.5681 36.0053 22.5632 35.8631C22.5625 35.8429 22.5618 35.8228 22.5618 35.8032C22.573 35.6457 22.5505 35.522 22.3368 35.522H21.4145C21.1108 35.5107 20.9084 35.3195 20.9084 35.0608C20.9084 34.7909 21.1221 34.5884 21.437 34.5884H22.3368C22.4043 34.5884 22.528 34.5659 22.528 34.5434C22.5309 34.4951 22.5351 34.4468 22.5394 34.3986C22.552 34.2563 22.5645 34.1155 22.5393 33.981C22.528 33.9361 22.3368 33.8911 22.2356 33.8911H17.984H17.2191C17.0617 33.8911 17.0054 33.9586 17.0054 34.1048V34.3522C16.9829 34.5322 17.0617 34.5997 17.2529 34.5997C17.4257 34.5921 17.6036 34.5947 17.7799 34.5972C17.8673 34.5984 17.9544 34.5997 18.0402 34.5997C18.3664 34.6109 18.5463 34.7796 18.5463 35.0721C18.5463 35.3645 18.3776 35.5332 18.029 35.5332H17.2079C16.9824 35.5234 16.9876 35.6588 16.9927 35.7906C16.9934 35.81 16.9942 35.8294 16.9942 35.8482C16.9942 35.8603 16.994 35.8725 16.9939 35.8846C16.9923 36.0291 16.9908 36.1631 17.2191 36.1631C17.4891 36.1518 17.7703 36.1518 18.0402 36.1631C18.1639 36.1743 18.2989 36.1968 18.4001 36.2643C18.5913 36.388 18.6251 36.613 18.5238 36.7705C18.4339 36.9167 18.2314 37.0517 18.0627 37.0854C17.8152 37.1304 17.5453 37.1079 17.2979 37.0854C17.0617 37.0629 16.9717 37.1416 16.9942 37.3891C16.9981 37.4246 16.9993 37.4601 17.0004 37.4946C17.0058 37.6564 17.0104 37.794 17.2979 37.794C17.8523 37.7865 18.4018 37.789 18.9529 37.7915ZM21.5045 49.4691C21.7407 49.4466 21.9881 49.4466 22.2356 49.4691V49.4803C22.5055 49.5028 22.5618 49.4016 22.5618 49.1429V44.1264V42.3043C22.5618 41.9444 22.5605 41.5845 22.5593 41.2245C22.5568 40.5047 22.5543 39.7848 22.5618 39.065C22.5618 38.8063 22.483 38.7163 22.2356 38.7388C22.0552 38.7538 21.8698 38.7488 21.6861 38.7438C21.5949 38.7413 21.5041 38.7388 21.4145 38.7388C21.2233 38.7276 21.1221 38.7838 21.1446 38.9975C21.1521 39.1175 21.1496 39.2374 21.1471 39.3574C21.1458 39.4174 21.1446 39.4774 21.1446 39.5374C21.1446 40.6017 21.1458 41.6674 21.1471 42.7334C21.1496 44.8667 21.1521 47.0017 21.1446 49.1316C21.1446 49.4128 21.2345 49.4916 21.5045 49.4691ZM13.2037 32.9575H22.2356L22.2131 32.9688C22.4155 32.9688 22.5505 32.9575 22.5505 32.6876C22.5505 32.4289 22.4155 32.4289 22.2243 32.4289H12.8663C12.5738 32.4289 12.3489 32.3839 12.2477 32.0802C12.2364 32.0521 12.228 32.0268 12.2195 32.0015C12.2111 31.9762 12.2027 31.9508 12.1914 31.9227C12.1626 31.9371 12.1384 31.9562 12.1158 31.9739C12.1032 31.9839 12.0911 31.9934 12.0789 32.0015L12.079 32.0015C12.1127 32.1252 12.1464 32.249 12.1914 32.4289H9.68319C9.8744 32.89 9.97563 32.9688 10.3805 32.9575C10.6955 32.9463 10.9654 32.9575 11.1341 33.2837C11.1688 33.3529 11.2247 33.4094 11.2809 33.4661C11.316 33.5016 11.3513 33.5372 11.3816 33.5761C11.4241 33.6257 11.4622 33.6798 11.5014 33.7356C11.5244 33.7683 11.5478 33.8015 11.5728 33.8348C11.2197 34.0232 11.0144 33.8283 10.8117 33.6359C10.7239 33.5526 10.6366 33.4697 10.538 33.4187C10.5324 33.4299 10.524 33.444 10.5155 33.458C10.5071 33.4721 10.4986 33.4861 10.493 33.4974L10.6505 33.8123C10.2456 33.8236 10.2118 34.0935 10.2456 34.4085C9.82941 34.4422 9.58196 34.6334 9.58196 34.8809C9.58196 35.0608 9.80692 35.3195 9.96438 35.3195C10.2343 35.3308 10.403 35.0721 10.4368 34.6447C10.5456 34.6401 10.6525 34.6319 10.7591 34.6238C10.917 34.6117 11.0742 34.5997 11.2354 34.5997C11.6065 34.5997 11.809 34.7684 11.809 35.0721C11.809 35.3645 11.6178 35.5332 11.2579 35.5332H10.4705C10.2421 35.5228 10.2437 35.6658 10.2453 35.8116C10.2454 35.8238 10.2456 35.836 10.2456 35.8482C10.2456 35.8603 10.2454 35.8725 10.2453 35.8846C10.2437 36.0291 10.2422 36.1631 10.4705 36.1631C10.7405 36.1518 11.0217 36.1518 11.2916 36.1631C11.4153 36.1743 11.5503 36.1968 11.6515 36.2643C11.8427 36.388 11.8877 36.613 11.7865 36.7705C11.6965 36.9167 11.5053 37.0517 11.3366 37.0854C11.0779 37.1416 10.7967 37.1191 10.5268 37.0966C10.2681 37.0854 10.2456 37.2204 10.2681 37.4003C10.2731 37.4409 10.2719 37.4837 10.2707 37.5257C10.2666 37.6702 10.2628 37.8052 10.5155 37.8052H15.8019C16.0714 37.8052 16.0654 37.6642 16.0592 37.517C16.0574 37.4737 16.0555 37.43 16.0606 37.3891C16.0831 37.1866 16.0156 37.0966 15.7907 37.1079C15.5095 37.1304 15.217 37.1304 14.9246 37.0966C14.6434 37.0742 14.4522 36.8379 14.4747 36.6017C14.4972 36.3655 14.6772 36.1968 14.9583 36.1856C15.0479 36.1856 15.1387 36.1843 15.2299 36.1831C15.4136 36.1806 15.599 36.1781 15.7794 36.1856C16.0269 36.2081 16.0719 36.0956 16.0719 35.8819C16.0719 35.6794 16.0606 35.5332 15.8019 35.5557C15.6445 35.5632 15.487 35.5607 15.3295 35.5582C15.2508 35.557 15.172 35.5557 15.0933 35.5557C14.7109 35.5557 14.4859 35.3758 14.4859 35.0833C14.4972 34.7909 14.7109 34.6222 15.0821 34.6222H15.8469C16.0044 34.6222 16.0831 34.5659 16.0719 34.3972V34.1498C16.0944 33.981 16.0156 33.9136 15.8357 33.9136H15.1046H12.1577C11.854 33.9023 11.6515 33.6886 11.6853 33.3737C11.7106 33.3838 11.7353 33.3939 11.7598 33.4039C11.8439 33.4383 11.9243 33.4712 12.0115 33.4974C12.0564 33.5086 12.1042 33.5199 12.1521 33.5311C12.1999 33.5424 12.2477 33.5536 12.2926 33.5649C12.2964 33.5536 12.3014 33.5424 12.3064 33.5311C12.3164 33.5086 12.3264 33.4861 12.3264 33.4637C12.0789 33.3399 11.8427 33.2162 11.6065 33.0925C11.6178 33.0475 11.629 33.0137 11.6403 32.98C11.9215 32.935 12.2027 32.9125 12.4726 33.0925C12.5401 33.1487 12.7426 33.1487 12.7426 33.1487C12.7978 32.9276 12.9587 32.9404 13.1079 32.9523C13.1408 32.9549 13.1732 32.9575 13.2037 32.9575ZM20.9871 29.8194H22.5618V29.8082C22.5724 29.8082 22.5833 29.8084 22.5942 29.8086C22.6985 29.8105 22.8081 29.8125 22.798 29.6395V29.0996H17.2416C17.2701 29.1439 17.2978 29.1848 17.324 29.2235C17.3909 29.3222 17.4487 29.4075 17.4891 29.5045C17.6015 29.7519 17.7815 29.8194 18.0514 29.8194H20.9871ZM23.5178 48.783C23.5853 48.7492 23.664 48.7155 23.664 48.7155C24.0352 48.378 24.3951 48.0406 24.7551 47.6919C24.8225 47.6357 24.8563 47.512 24.8563 47.422V39.1325C24.8563 38.93 24.7775 38.885 24.5976 38.885H23.8665C23.6865 38.885 23.5965 38.885 23.5516 38.93C23.5066 38.975 23.5066 39.065 23.5066 39.2449V48.4905C23.5066 48.5319 23.5089 48.571 23.5115 48.6131C23.5145 48.6625 23.5178 48.7162 23.5178 48.783ZM23.6415 37.2541C23.5965 37.2541 23.5178 37.4003 23.5178 37.4003C23.4953 37.5241 23.4841 37.659 23.5178 37.7828C23.5291 37.8502 23.6303 37.9515 23.6978 37.9515C23.9673 37.959 24.2318 37.9565 24.498 37.954C24.6317 37.9527 24.7659 37.9515 24.9013 37.9515C24.9688 37.9515 25.0475 37.9065 25.0812 37.8615C25.1587 37.7453 25.2255 37.6238 25.3073 37.4749C25.3443 37.4076 25.3844 37.3347 25.4299 37.2541H23.6415ZM24.2833 49.4353H34.0231C34.0188 49.4181 34.0162 49.4026 34.0139 49.3893C34.0102 49.3678 34.0076 49.3523 34.0006 49.3453L33.9374 49.2863C33.6197 48.9898 33.2928 48.6846 32.9658 48.3893C32.9096 48.3331 32.7859 48.3106 32.6959 48.3106H25.6886C25.6099 48.3106 25.4974 48.3106 25.4524 48.3556C25.0735 48.6899 24.7057 49.0352 24.2833 49.4353ZM26.1048 38.8963C25.8573 38.8963 25.7786 38.9638 25.7786 39.2225V47.0733C25.7786 47.3095 25.8348 47.3883 26.0823 47.3883C26.7726 47.3883 27.4616 47.387 28.1502 47.3857C29.5261 47.3833 30.9004 47.3808 32.2797 47.3883C32.5722 47.3883 32.6172 47.287 32.6172 47.0283V43.1591V39.2C32.6172 38.975 32.5609 38.8963 32.3247 38.8963H26.1048ZM26.2363 37.7395C26.2051 37.8044 26.1731 37.871 26.1385 37.9402L26.1498 37.9177H32.2347C32.2213 37.8819 32.2114 37.8478 32.2023 37.8162C32.1885 37.7685 32.1763 37.7266 32.156 37.6928C32.0154 37.4397 31.872 37.1894 31.7286 36.9391C31.5852 36.6889 31.4418 36.4386 31.3012 36.1856C31.2686 36.125 31.235 36.064 31.2011 36.0024C31.0716 35.7669 30.9381 35.5242 30.84 35.2745C30.7163 34.9708 30.5251 34.7684 30.1989 34.7459C30.1539 34.7459 30.1089 34.7359 30.064 34.7259C30.0415 34.7209 30.019 34.7159 29.9965 34.7121L29.3666 34.7571C29.2136 34.7526 29.0607 34.7517 28.9077 34.7508C28.6782 34.7495 28.4488 34.7481 28.2193 34.7346C27.9831 34.7121 27.8594 34.8134 27.7469 35.0046C27.4794 35.4916 27.2078 35.9743 26.937 36.4555C26.7638 36.7634 26.5909 37.0706 26.4197 37.3778C26.3531 37.4963 26.2962 37.6147 26.2363 37.7395ZM34.8779 48.4455V41.2808V41.2695V39.1437C34.8779 38.9525 34.8217 38.885 34.6305 38.885C34.3493 38.8963 34.0681 38.8963 33.7869 38.885C33.5957 38.8738 33.5395 38.9638 33.5395 39.1437V47.3995C33.5395 47.4895 33.5395 47.602 33.5957 47.6582C33.9894 48.0406 34.3943 48.423 34.788 48.7942C34.8048 48.7886 34.8189 48.783 34.833 48.7773C34.847 48.7717 34.8611 48.7661 34.8779 48.7605V48.4455ZM33.6744 37.9627C33.9894 37.9515 34.3043 37.9515 34.6193 37.9627L34.5968 37.9402C34.7992 37.9515 34.8779 37.8615 34.8554 37.6703C34.8554 37.6411 34.8578 37.6095 34.8603 37.5771C34.8653 37.5097 34.8706 37.4386 34.8554 37.3778C34.8442 37.3216 34.7767 37.2429 34.7317 37.2429H32.9658C33.0079 37.3271 33.0481 37.3957 33.0839 37.4568C33.1341 37.5428 33.1758 37.6139 33.202 37.6928C33.292 37.9177 33.4495 37.974 33.6744 37.9627ZM33.3153 36.3068C33.7327 36.3043 34.1535 36.3018 34.5743 36.3093C34.8105 36.3206 34.8892 36.2531 34.8892 36.0056V32.7888C34.8892 32.6051 34.8892 32.5123 34.8428 32.4654C34.7955 32.4176 34.6999 32.4176 34.5068 32.4176H29.2091H23.8327C23.5853 32.4176 23.5066 32.4851 23.5066 32.7438V36.0394C23.5066 36.2418 23.574 36.3093 23.7765 36.3093C24.1083 36.3037 24.4373 36.3037 24.7649 36.3037C25.0925 36.3037 25.4187 36.3037 25.7448 36.2981C25.8573 36.2981 26.0035 36.2081 26.0598 36.1181C26.431 35.4882 26.7909 34.8471 27.1396 34.206C27.2858 33.9473 27.4657 33.8236 27.7694 33.8236C28.3494 33.8303 28.9254 33.8249 29.5022 33.8195C29.8873 33.8159 30.2728 33.8123 30.6601 33.8123C30.9525 33.8123 31.1325 33.9361 31.2674 34.1835C31.4218 34.4715 31.5831 34.7596 31.7451 35.0487C31.9373 35.3918 32.1304 35.7364 32.3135 36.0844C32.4035 36.2531 32.5159 36.3093 32.6959 36.3093C32.9013 36.3093 33.1079 36.3081 33.3153 36.3068ZM33.7982 31.4728H35.2154C35.5078 31.4728 35.7103 31.3266 35.7103 31.1129C35.7103 30.8992 35.5191 30.753 35.2266 30.753H35.1141H29.1979H23.3041C23.2735 30.753 23.2419 30.7499 23.2105 30.7468C23.138 30.7398 23.0666 30.7328 23.0117 30.7642C22.8879 30.8317 22.708 30.9554 22.708 31.0679C22.6967 31.1804 22.843 31.3491 22.9554 31.4278C23.0278 31.4821 23.1438 31.4782 23.2508 31.4746C23.2769 31.4737 23.3024 31.4728 23.3266 31.4728H33.7982ZM35.9465 49.4578H37.2287H37.2399V49.4568C37.2399 48.4786 37.2399 47.5454 37.2287 46.5559V45.8361V45.5099V39.02C37.2287 38.7725 37.15 38.6938 36.9138 38.7163C36.7563 38.7238 36.5988 38.7213 36.4414 38.7188C36.3626 38.7176 36.2839 38.7163 36.2052 38.7163C35.9502 38.7163 35.8228 38.8475 35.8228 39.11V49.0979C35.8228 49.12 35.8203 49.1433 35.8179 49.167C35.8128 49.2157 35.8076 49.2662 35.8228 49.3116C35.8452 49.3678 35.9015 49.4578 35.9465 49.4578ZM39.0396 49.4691C39.2645 49.4803 39.332 49.4016 39.332 49.1766H39.3433C39.3208 48.1531 39.3095 47.1183 39.3433 46.0948C39.3545 45.7011 39.2195 45.4537 38.9496 45.2175C38.7696 45.0712 38.6234 45.105 38.4772 45.2512C38.3842 45.3441 38.294 45.4371 38.2012 45.5326C38.1031 45.6336 38.0021 45.7375 37.8923 45.8473C38.176 46.0459 38.1655 46.3399 38.155 46.6357C38.153 46.6917 38.151 46.7478 38.151 46.8034V47.9506V49.4691C38.2633 49.4691 38.3702 49.4677 38.4737 49.4664C38.6708 49.464 38.8552 49.4617 39.0396 49.4691ZM39.332 44.5876V40.1448L39.3545 40.1335V38.9638C39.3545 38.7725 39.287 38.7051 39.0958 38.7051C38.8821 38.7163 38.6684 38.7276 38.4659 38.7051C38.2185 38.6826 38.1623 38.7838 38.1623 39.02V44.2839C38.1623 44.3253 38.1646 44.3667 38.1672 44.4114C38.1702 44.4639 38.1735 44.5208 38.1735 44.5876H39.332ZM37.7782 37.7915C38.0569 37.7928 38.3351 37.794 38.6122 37.794V37.7715C38.8863 37.7715 39.1591 37.769 39.4316 37.7665C39.9752 37.7615 40.5172 37.7565 41.0642 37.7715C41.3791 37.7715 41.4016 37.6365 41.4016 37.3891C41.4016 37.1529 41.3566 37.0404 41.0867 37.0629C40.828 37.0854 40.558 37.0854 40.2993 37.0629C39.9956 37.0292 39.8382 36.8267 39.8382 36.5568C39.8494 36.2756 40.0069 36.1406 40.3331 36.1293H41.1766C41.4025 36.1293 41.4021 35.9853 41.4016 35.835C41.4016 35.8281 41.4016 35.8213 41.4016 35.8144C41.4016 35.7988 41.402 35.7829 41.4024 35.7669C41.4056 35.634 41.4089 35.4995 41.1879 35.4995H40.3668C40.0294 35.4995 39.8382 35.3308 39.8382 35.0496C39.8382 34.7571 40.0294 34.5772 40.378 34.5772H41.1654C41.3453 34.5884 41.4128 34.5097 41.4016 34.341V34.1273C41.4128 33.9361 41.3341 33.8798 41.1429 33.8798H40.4905H36.1602C35.924 33.8798 35.789 33.9248 35.834 34.1948V34.3635C35.8115 34.5547 35.9015 34.5997 36.0702 34.5997H36.97C37.2849 34.6109 37.4986 34.8021 37.4986 35.0721C37.4874 35.342 37.2737 35.5332 36.9588 35.5332C36.8613 35.5332 36.7638 35.5345 36.6663 35.5357C36.4714 35.5382 36.2764 35.5407 36.0814 35.5332C35.8452 35.522 35.8115 35.6457 35.8115 35.8369C35.8115 36.0281 35.8228 36.1631 36.0814 36.1631C36.3964 36.1518 36.7226 36.1406 37.0375 36.1743C37.1612 36.1856 37.3187 36.2643 37.3974 36.3655C37.6224 36.6692 37.4087 37.0517 36.9813 37.0854C36.7001 37.1079 36.4076 37.1079 36.1152 37.0854C35.8565 37.0629 35.8003 37.1754 35.8228 37.4003C35.8246 37.4334 35.8243 37.4662 35.8241 37.4979C35.8228 37.6602 35.8217 37.794 36.1039 37.794C36.6592 37.7865 37.2195 37.789 37.7782 37.7915ZM40.2656 39.0537V43.4178L40.2768 43.4291V44.3851L40.2318 44.6213C40.2629 44.6191 40.2933 44.6169 40.3231 44.6147C40.5956 44.5948 40.8186 44.5786 41.0417 44.5988C41.3116 44.6213 41.4353 44.5538 41.3903 44.2614V42.0681V39.5036C41.3903 39.11 41.3903 38.9131 41.2919 38.8147C41.1935 38.7163 40.9967 38.7163 40.603 38.7163C40.3443 38.7051 40.2656 38.795 40.2656 39.0537ZM41.7503 49.4691H42.9988L43.01 49.4578C43.2012 49.4691 43.2799 49.4128 43.2799 49.1991V47.4332C43.2799 47.2533 43.2237 47.1745 43.0325 47.1745H40.5018C40.3556 47.1633 40.2768 47.2195 40.2768 47.3883V49.2441C40.2768 49.4128 40.3443 49.4691 40.5018 49.4691H41.7503ZM40.5805 46.2522H42.8075H42.83C43.0626 46.2522 43.1779 46.2522 43.2351 46.1946C43.2941 46.1351 43.2912 46.0142 43.2912 45.7686C43.2799 45.5661 43.2012 45.5211 43.01 45.5211H41.784H40.693C40.4811 45.5211 40.3771 45.5211 40.3246 45.5732C40.2712 45.6261 40.2712 45.733 40.2656 45.9486C40.2543 46.1848 40.3443 46.2522 40.5805 46.2522ZM47.3308 35.5357C47.2433 35.5345 47.1562 35.5332 47.0704 35.5332L47.0592 35.5107C46.7217 35.5107 46.5305 35.3308 46.5305 35.0496C46.5305 34.7796 46.733 34.5884 47.0592 34.5884C47.1458 34.5884 47.2325 34.5859 47.3187 34.5834C47.4899 34.5784 47.6594 34.5735 47.824 34.5884C48.0939 34.6109 48.1164 34.4759 48.1164 34.2622C48.1164 34.2446 48.1167 34.2272 48.1169 34.21C48.1196 34.0298 48.1218 33.8798 47.824 33.8798C47.2545 33.8873 46.6801 33.8848 46.1039 33.8823C45.8153 33.8811 45.5261 33.8798 45.237 33.8798H42.6163C42.3914 33.8798 42.3014 33.9586 42.3239 34.1835V34.3747C42.3126 34.5434 42.3914 34.5997 42.5488 34.5997H43.2799C43.6624 34.5997 43.9098 34.7796 43.9098 35.0608C43.9098 35.342 43.6624 35.5332 43.2687 35.5332C43.19 35.5332 43.1112 35.5345 43.0325 35.5357C42.875 35.5382 42.7176 35.5407 42.5601 35.5332C42.3118 35.5116 42.3122 35.6662 42.3126 35.8279C42.3126 35.8346 42.3126 35.8414 42.3126 35.8482C42.3126 36.0281 42.3239 36.1743 42.5713 36.1631C42.8638 36.1406 43.1562 36.1406 43.4487 36.1631C43.5499 36.1631 43.6961 36.2081 43.7523 36.2868C43.8311 36.4105 43.8986 36.5905 43.8761 36.7255C43.8311 36.9617 43.6174 37.0854 43.3812 37.0854C43.1225 37.0966 42.8525 37.1079 42.5938 37.0854C42.3126 37.0629 42.3126 37.2316 42.3126 37.4228C42.3126 37.4361 42.3125 37.4492 42.3125 37.4621C42.3111 37.6466 42.31 37.794 42.5938 37.794H47.8352C48.1176 37.8034 48.1164 37.6553 48.1151 37.4946C48.1149 37.4633 48.1146 37.4315 48.1164 37.4003C48.1277 37.1979 48.0827 37.0854 47.8352 37.0966C47.5653 37.1191 47.2841 37.1191 47.0142 37.0966C46.7217 37.0742 46.5418 36.8717 46.5418 36.6017C46.553 36.3206 46.7105 36.1743 47.0254 36.1631C47.12 36.1631 47.2133 36.1618 47.3058 36.1606C47.4882 36.1581 47.6673 36.1556 47.8465 36.1631C48.1052 36.1743 48.1164 36.0281 48.1164 35.8369C48.1164 35.6569 48.0939 35.522 47.8577 35.5332C47.6849 35.5407 47.507 35.5382 47.3308 35.5357ZM48.1164 44.2951V41.6744V39.0087C48.1164 38.8063 48.049 38.7276 47.8352 38.7276H46.553C46.3843 38.7276 46.2943 38.7613 46.2943 38.9525V44.3739C46.2943 44.5426 46.3506 44.5988 46.5193 44.5988C46.6617 44.5988 46.8042 44.5963 46.9467 44.5938C47.2316 44.5888 47.5166 44.5838 47.8015 44.5988C48.0377 44.6101 48.1164 44.5426 48.1164 44.2951ZM42.4012 44.5131C42.4804 44.5932 42.6407 44.5931 42.965 44.5988C43.2125 44.6101 43.2799 44.5313 43.2687 44.2951V40.5609V39.3574C43.2687 38.9879 43.2938 38.833 43.2288 38.7678C43.1633 38.702 43.006 38.7276 42.6388 38.7163C42.3914 38.7163 42.3239 38.795 42.3239 39.0312V41.4832V43.969C42.3239 44.2802 42.3239 44.4349 42.4012 44.5131ZM44.6522 49.4666C44.8096 49.4641 44.9671 49.4616 45.1246 49.4691V49.4916C45.327 49.5028 45.3945 49.4241 45.3945 49.2216V47.2308V45.7573C45.3945 45.6336 45.372 45.5324 45.2033 45.5324H44.2135V49.3228C44.2247 49.3791 44.3485 49.4691 44.416 49.4691C44.4947 49.4691 44.5734 49.4678 44.6522 49.4666ZM45.3945 44.3514V42.8892C45.3945 42.4655 45.3932 42.0419 45.392 41.6182C45.3895 40.7709 45.387 39.9236 45.3945 39.0762C45.3945 38.8063 45.3045 38.7163 45.0458 38.7388C44.9483 38.7463 44.8509 38.7438 44.7534 38.7413C44.7047 38.7401 44.6559 38.7388 44.6072 38.7388C44.3372 38.7388 44.2023 38.8775 44.2023 39.155V41.6857V44.3289C44.2023 44.5426 44.2697 44.6213 44.4834 44.5988C44.6972 44.5876 44.9221 44.5876 45.1358 44.5988C45.327 44.6101 45.3945 44.5426 45.3945 44.3514ZM48.1277 49.2329V48.3106V48.2993V47.4332C48.1277 47.2533 48.0714 47.1745 47.8802 47.1745H46.553C46.3843 47.1745 46.3168 47.2308 46.3168 47.4107V49.2329C46.3168 49.4241 46.3955 49.4691 46.5643 49.4691H47.8915C48.0602 49.4691 48.1277 49.4128 48.1277 49.2329ZM46.553 46.2522H47.5541C48.1727 46.2522 48.2064 46.2185 48.1052 45.5886C48.1052 45.5835 48.1028 45.5807 48.0971 45.5739C48.0902 45.5657 48.0786 45.5517 48.0602 45.5211H46.6655C46.433 45.5211 46.3168 45.6411 46.3168 45.8811V46.016C46.3056 46.1848 46.3731 46.2522 46.553 46.2522ZM36.1714 32.9575H47.9702H47.9815C48.4089 32.9575 48.5101 32.89 48.7013 32.4176H48.3976H36.1602C35.9015 32.4176 35.834 32.4964 35.834 32.7438C35.834 32.9738 35.9646 32.967 36.1007 32.96C36.1243 32.9587 36.1481 32.9575 36.1714 32.9575ZM30.6264 46.2746H27.7357V46.2634C27.3308 46.2634 27.1508 46.0834 27.1508 45.6785V40.9545C27.1508 40.5608 27.3195 40.3809 27.7132 40.3809H30.6601C31.0538 40.3921 31.2225 40.5721 31.2225 40.9545V43.3278V45.6785C31.2225 46.0947 31.0538 46.2746 30.6264 46.2746ZM30.0415 41.3369H28.3206V41.3257C28.1294 41.3257 28.0731 41.3932 28.0731 41.5844V43.3053V45.0824C28.0731 45.2623 28.1181 45.3523 28.3206 45.3523H30.064C30.2552 45.3523 30.3002 45.2736 30.3002 45.1049V41.5844C30.3002 41.3819 30.2214 41.3369 30.0415 41.3369Z" fill="#0A0A26"/>
</svg>
