<svg width="56" height="56" viewBox="0 0 56 56" fill="none" xmlns="http://www.w3.org/2000/svg">
<circle opacity="0.1" cx="28" cy="28" r="28" fill="#0A0A26"/>
<path d="M10.4946 31.8426C11.063 30.3672 11.6012 28.8804 12.1511 27.3981C12.518 26.4095 12.8815 25.4187 13.2496 24.4301C13.6038 23.4785 13.965 22.5291 14.3157 21.5752C14.3574 21.461 14.3609 21.3295 14.3655 21.2061C14.3736 20.9857 14.3447 20.7608 14.3713 20.5428C14.4755 19.688 14.1965 18.9233 13.8678 18.1596C13.5564 17.4387 13.2786 16.7027 12.9915 15.9714C12.8873 15.7061 12.9753 15.4177 13.2022 15.2182C13.4372 15.0117 13.8365 14.9898 14.1525 15.1328C14.9559 15.495 15.765 15.8457 16.5753 16.194C16.6957 16.2459 16.8323 16.2586 17.0152 16.3013C17.0152 16.0556 17.0117 15.848 17.0152 15.6404C17.0221 15.2539 17.2062 15.0532 17.5396 15.0601C17.8544 15.0671 18.0165 15.2643 18.0211 15.6496C18.0246 15.8999 18.013 16.1502 18.0292 16.3994C18.035 16.479 18.1021 16.6128 18.1566 16.622C18.9148 16.7408 19.6764 16.8423 20.4914 16.9554C20.4914 16.4767 20.4867 16.0568 20.4925 15.638C20.4972 15.3162 20.6812 15.089 20.9451 15.0636C21.2866 15.0313 21.4903 15.2032 21.5031 15.5631C21.5158 15.9276 21.5147 16.2944 21.5042 16.6589C21.4984 16.8654 21.5667 16.9519 21.7855 16.9484C22.4419 16.9381 23.097 16.9404 23.7534 16.9484C23.9409 16.9507 24.0127 16.8792 24.0081 16.6935C23.9999 16.3475 24.0023 16.0014 24.0081 15.6554C24.015 15.2378 24.1701 15.0613 24.5139 15.0636C24.8461 15.0648 25.0209 15.2666 25.0244 15.6588C25.0279 16.0141 25.0302 16.3705 25.0244 16.7258C25.0209 16.8861 25.08 16.9484 25.242 16.9473C25.9169 16.9427 26.5929 16.9415 27.2678 16.9473C27.4437 16.9484 27.5062 16.8769 27.5051 16.7074C27.5004 16.3325 27.5004 15.9576 27.5109 15.5827C27.5201 15.2412 27.6937 15.059 27.9924 15.0521C28.3767 15.044 28.5156 15.2701 28.3593 15.615C28.291 15.7661 28.2702 15.9391 28.2204 16.1329C28.5214 16.1352 28.5341 16.3013 28.5307 16.502C28.5237 16.9554 28.5307 16.9484 28.9972 16.9438C29.5759 16.9381 30.1547 16.9369 30.7335 16.9496C30.9396 16.9542 31.0044 16.8781 30.9986 16.6808C30.9882 16.3544 30.994 16.0268 30.9963 15.7003C30.9986 15.2678 31.1549 15.0682 31.4929 15.0624C31.8517 15.0567 31.9999 15.2412 32.0022 15.7084C32.0045 16.0349 32.008 16.3625 32.0011 16.6889C31.9964 16.87 32.0612 16.9496 32.2522 16.9473C32.9178 16.9404 33.5834 16.9404 34.2491 16.9473C34.4458 16.9496 34.5269 16.8815 34.5211 16.6785C34.5107 16.3036 34.513 15.9287 34.5211 15.5538C34.528 15.2205 34.6831 15.0659 34.9922 15.0624C35.2851 15.059 35.5015 15.2562 35.512 15.5608C35.5235 15.8964 35.5154 16.2333 35.5154 16.5701C35.5154 16.6727 35.5154 16.7754 35.5154 16.9427C36.1475 16.8619 36.739 16.8054 37.3224 16.705C37.9984 16.5885 37.9949 16.5712 37.9949 15.8722C37.9949 15.7569 37.9891 15.6404 37.9996 15.5262C38.0262 15.2366 38.2114 15.0636 38.4881 15.0613C38.7856 15.059 38.9696 15.2262 38.9962 15.5342C39.0066 15.6588 38.9997 15.7845 38.9997 15.9091C38.9997 16.021 38.9997 16.1329 38.9997 16.3129C39.3342 16.2056 39.6213 16.1364 39.8899 16.0222C40.5416 15.743 41.1898 15.4512 41.83 15.1455C42.2513 14.9448 42.5581 14.9436 42.8162 15.1928C43.0894 15.4558 43.1206 15.7488 42.9354 16.1664C42.4666 17.2276 42.0024 18.29 41.5406 19.3535C41.5035 19.4389 41.4838 19.5358 41.4792 19.6292C41.47 19.8311 41.4954 20.0352 41.4723 20.2348C41.382 21.0342 41.6135 21.7632 41.8983 22.4945C42.5673 24.2086 43.2063 25.9343 43.8603 27.6542C44.5595 29.4906 45.2633 31.3247 45.9613 33.1611C46.6107 34.8717 47.2589 36.5835 47.9002 38.2976C48.126 38.9021 47.7335 39.5146 47.0899 39.5746C46.8411 39.5976 46.5887 39.5919 46.3387 39.585C46.1454 39.5803 46.0574 39.6496 46.0574 39.8514C46.0609 41.6301 46.0609 43.4089 46.0574 45.1876C46.0574 45.394 46.1465 45.4506 46.3398 45.4425C46.6674 45.4298 46.9962 45.4379 47.3238 45.4402C47.7995 45.4425 47.9743 45.6132 47.9766 46.0804C47.979 46.5995 47.9894 47.1197 47.972 47.6376C47.9639 47.8926 48.0472 47.9664 48.3008 47.9652C50.3068 47.956 52.314 47.956 54.3201 47.9675C54.5099 47.9675 54.7426 48.016 54.8746 48.1336C54.9799 48.2271 55.0343 48.4924 54.9764 48.6204C54.9058 48.775 54.6998 48.8777 54.5366 48.9769C54.4729 49.0161 54.3664 48.9861 54.2796 48.9861C40.5809 48.9861 26.8823 48.9861 13.1825 48.9815C13.0482 48.9815 12.9139 48.9146 12.7797 48.8846C12.7171 48.8707 12.6338 48.8407 12.5898 48.8673C12.2622 49.0622 11.9346 49.0161 11.5989 48.8973C11.548 48.8788 11.4866 48.8777 11.4322 48.8834C11.1301 48.9146 10.828 48.9815 10.5259 48.9815C7.57407 48.9895 4.62228 48.9849 1.66932 48.9872C1.40308 48.9872 1.17041 48.9388 1.05002 48.6677C0.918061 48.3713 1.05465 48.0748 1.37183 47.9987C1.50032 47.9675 1.63922 47.9629 1.77235 47.9629C3.74021 47.9606 5.70807 47.956 7.67594 47.9675C7.96533 47.9687 8.06951 47.8914 8.05446 47.5949C8.03131 47.1347 8.04867 46.6721 8.04867 46.2107C8.04867 45.5775 8.18064 45.4425 8.80341 45.4425C9.15068 45.4425 9.49795 45.4333 9.84522 45.446C10.0397 45.4529 10.1253 45.3952 10.1253 45.1899C10.1207 43.4112 10.1207 41.6324 10.1253 39.8537C10.1253 39.6507 10.0385 39.5838 9.84522 39.5873C9.54657 39.5942 9.2456 39.6011 8.9481 39.578C8.26167 39.5238 7.89124 38.9598 8.11466 38.3057C8.29755 37.7705 8.5036 37.2445 8.69923 36.7139C9.00019 35.896 9.29422 35.077 9.60676 34.2638L10.4935 31.846L10.4946 31.8426ZM45.0399 45.4402C45.0399 45.2902 45.0399 45.1864 45.0399 45.0814C45.0399 43.38 45.0399 41.6786 45.0399 39.976C45.0399 39.7161 44.9075 39.5861 44.6428 39.5861C41.9897 39.5861 39.3377 39.5861 36.6846 39.5861C36.5364 39.5861 36.3882 39.5861 36.1521 39.5861C36.2667 39.6669 36.3037 39.7072 36.3489 39.7211C37.1013 39.9552 37.856 40.1825 38.6073 40.4213C39.0032 40.547 39.0865 40.6762 39.0888 41.0984C39.09 41.3648 39.0888 41.6301 39.0888 41.9058C39.1826 41.9162 39.2382 41.9254 39.2949 41.9289C39.3528 41.9324 39.4106 41.9277 39.4685 41.9324C39.7695 41.9577 39.986 42.1781 39.9813 42.4514C39.9767 42.7421 39.7799 42.9382 39.4187 42.9359C39.1421 42.9336 39.0773 43.0363 39.0842 43.2912C39.0993 43.8968 39.0935 44.5024 39.0842 45.108C39.083 45.2014 39.046 45.3133 38.9847 45.3814C38.8562 45.5279 38.7022 45.6513 38.5135 45.8255C39.2509 46.2696 39.0796 46.979 39.0888 47.6388C39.0888 47.648 39.09 47.6584 39.0888 47.6676C39.0553 47.8983 39.1652 47.9687 39.3863 47.9629C39.8679 47.9514 40.3506 47.9595 40.8333 47.9595C42.763 47.9595 44.6915 47.9548 46.6211 47.9641C46.8862 47.9652 46.9892 47.8868 46.9696 47.618C46.9499 47.3504 46.9476 47.0782 46.9696 46.8117C46.9939 46.5245 46.9001 46.4334 46.6014 46.4345C44.3349 46.4472 42.0673 46.4195 39.8019 46.4587C39.3215 46.4668 38.6409 46.2511 38.4302 45.9443C38.3885 45.8831 38.3665 45.5671 38.3758 45.4713C38.4591 45.4979 38.2438 45.0491 38.3063 45.1011C38.4313 45.2049 38.5367 45.3341 38.6501 45.4529C38.6837 45.4275 38.7184 45.4033 38.752 45.3779C38.6478 45.2118 38.5448 45.0457 38.4406 44.8784C38.458 44.8484 38.5876 44.8634 38.605 44.8334C38.8099 44.913 39.7776 45.559 39.8829 45.5994C40.0751 45.5267 40.1932 45.4448 40.3112 45.4436C41.7582 45.4344 43.2051 45.4379 44.6521 45.439C44.7655 45.439 44.8801 45.439 45.041 45.439L45.0399 45.4402ZM19.8339 39.6669C19.8292 39.6426 19.8246 39.6184 19.8211 39.5953C19.7864 39.5896 19.7517 39.5803 19.717 39.5803C18.3001 39.5815 16.8821 39.585 15.4652 39.5873C14.1247 39.5884 12.7854 39.5896 11.445 39.5873C11.276 39.5873 11.1452 39.5942 11.1463 39.8237C11.1521 41.6209 11.151 43.4181 11.1463 45.2141C11.1463 45.3906 11.2146 45.4425 11.3871 45.4425C13.1709 45.4379 14.9547 45.4379 16.7385 45.4425C16.9411 45.4425 17.0082 45.3733 17.0048 45.1737C16.9955 44.5589 16.9897 43.9429 17.0071 43.3293C17.0152 43.0559 16.9585 42.9313 16.6482 42.9336C16.2639 42.9371 16.0857 42.7179 16.1181 42.3765C16.1447 42.095 16.3496 41.9312 16.7212 41.9347C16.9318 41.937 17.0221 41.877 17.0048 41.6567C16.9886 41.456 16.999 41.2529 17.0025 41.0511C17.0094 40.6693 17.0927 40.5458 17.4655 40.4247C17.9956 40.2517 18.5304 40.0937 19.0618 39.9252C19.3211 39.8433 19.578 39.7522 19.835 39.6657L19.8339 39.6669ZM14.2787 16.3671C14.3204 16.5193 14.3424 16.6405 14.3864 16.7512C14.6237 17.3476 14.8864 17.9347 15.0971 18.5403C15.1862 18.7952 15.3113 18.8517 15.5555 18.8506C19.1914 18.8448 22.8273 18.8448 26.4621 18.8506C26.6681 18.8506 26.8128 18.7802 26.9772 18.6568C27.9669 17.9059 28.2158 17.9658 28.9624 18.4319C29.084 18.508 29.1766 18.628 29.2981 18.7029C29.4046 18.7687 29.532 18.8414 29.6512 18.8414C33.2385 18.8483 36.8258 18.846 40.4131 18.8494C40.5613 18.8494 40.6585 18.8194 40.7256 18.6672C41.0278 17.9728 41.3426 17.2841 41.6482 16.592C41.6725 16.5366 41.6644 16.4674 41.6725 16.3982C41.0625 16.6301 40.4756 16.8631 39.8818 17.0788C38.2253 17.6786 36.5063 17.9405 34.7514 17.9451C30.2381 17.9566 25.7247 17.9566 21.2114 17.9451C19.2493 17.9393 17.3428 17.5979 15.5138 16.8688C15.1145 16.7097 14.7186 16.5459 14.2787 16.3682V16.3671ZM32.5104 33.5336C32.618 34.1704 32.7268 34.7517 32.8113 35.3377C32.8438 35.5615 32.9491 35.61 33.1563 35.61C37.2541 35.6053 41.353 35.6065 45.4508 35.6053C45.5515 35.6053 45.6511 35.5857 45.783 35.5719C45.5562 34.9686 45.3362 34.4068 45.136 33.8382C45.0538 33.604 44.9264 33.5267 44.6729 33.5279C40.758 33.5371 36.8432 33.5336 32.9271 33.5348C32.8125 33.5348 32.6991 33.5348 32.5081 33.5348L32.5104 33.5336ZM10.196 35.5846C10.3221 35.595 10.3974 35.6053 10.4738 35.6053C14.5797 35.6053 18.6856 35.6053 22.7914 35.6111C23.0183 35.6111 23.0936 35.5223 23.126 35.3216C23.2035 34.8486 23.2904 34.3769 23.383 33.9062C23.4559 33.5382 23.4594 33.5336 23.082 33.5336C19.1497 33.5336 15.2175 33.5336 11.2841 33.5336C11.2355 33.5336 11.1799 33.5186 11.1405 33.5371C11.0537 33.5798 10.9287 33.6213 10.8998 33.694C10.659 34.3065 10.4367 34.9259 10.1948 35.5834L10.196 35.5846ZM22.8574 38.5595V36.6043C22.7347 36.6043 22.6305 36.6043 22.5275 36.6043C19.7413 36.6043 16.955 36.6043 14.1687 36.6043C12.819 36.6043 11.4693 36.6089 10.1196 36.5997C9.90425 36.5985 9.78155 36.6562 9.71441 36.865C9.60907 37.1926 9.48174 37.5133 9.36367 37.8374C9.28033 38.0681 9.19814 38.2988 9.10553 38.5595H22.8574ZM46.9175 38.5595C46.6987 37.977 46.488 37.4544 46.3074 36.9215C46.2218 36.6689 46.0863 36.5974 45.8224 36.5985C41.7258 36.6077 37.6291 36.6043 33.5314 36.6043C33.4735 36.6043 33.4156 36.6089 33.3577 36.6043C33.1829 36.5893 33.1216 36.6585 33.132 36.8384C33.1494 37.1545 33.1413 37.4717 33.1424 37.7889C33.1424 38.0439 33.1424 38.2988 33.1424 38.5583H46.9175V38.5595ZM11.3269 32.5335H11.7494C15.5786 32.5335 19.4079 32.5335 23.2371 32.5335C23.2857 32.5335 23.3332 32.5312 23.3818 32.5335C23.5531 32.5439 23.6353 32.4874 23.6631 32.2971C23.7337 31.8137 23.8344 31.3339 23.9247 30.8529C23.9965 30.4757 23.9907 30.4676 23.5994 30.4676C20.0214 30.4676 16.4422 30.4676 12.8642 30.4676C12.1106 30.4676 12.1059 30.4664 11.8362 31.1539C11.6661 31.5877 11.5121 32.0271 11.3257 32.5335H11.3269ZM44.6243 32.5128C44.3905 31.891 44.1636 31.3039 43.9506 30.7121C43.88 30.5172 43.7642 30.4618 43.5617 30.4618C39.8123 30.4676 36.0641 30.4664 32.3148 30.4676C32.2129 30.4676 32.1099 30.4814 31.9814 30.4907C32.0798 31.0697 32.1863 31.6153 32.2603 32.1644C32.2985 32.4493 32.412 32.5405 32.706 32.5393C36.5514 32.5289 40.3969 32.5324 44.2423 32.5324C44.3558 32.5324 44.4692 32.5209 44.6255 32.5128H44.6243ZM12.4694 29.4652C12.6222 29.4652 12.716 29.4652 12.8097 29.4652C15.8368 29.4652 18.865 29.4652 21.892 29.4652C22.5669 29.4652 23.2417 29.4594 23.9166 29.4698C24.1389 29.4733 24.2118 29.3902 24.2396 29.1734C24.2998 28.6981 24.3889 28.2252 24.4769 27.7534C24.5428 27.4004 24.5498 27.4004 24.1886 27.4004C22.4534 27.4004 20.7171 27.4004 18.9819 27.4004C17.1599 27.4004 15.3379 27.405 13.5147 27.3958C13.2948 27.3958 13.1836 27.4558 13.1234 27.6749C13.0494 27.9414 12.929 28.1952 12.8329 28.4559C12.7148 28.7754 12.6014 29.0961 12.4683 29.4664L12.4694 29.4652ZM43.4691 29.4652C43.2132 28.7881 42.9887 28.1675 42.7363 27.5596C42.7016 27.4765 42.5245 27.4073 42.4122 27.4062C38.862 27.3981 35.3117 27.4027 31.7614 27.3946C31.479 27.3946 31.4385 27.4962 31.4894 27.7395C31.5866 28.1998 31.6908 28.6612 31.7383 29.1284C31.7672 29.4075 31.8645 29.471 32.1295 29.471C35.7863 29.4629 39.4419 29.4652 43.0986 29.4652H43.4679H43.4691ZM13.6143 26.3899H14.0206C15.6782 26.3899 17.337 26.3888 18.9946 26.3899C20.7981 26.3922 22.6028 26.3922 24.4063 26.4061C24.6493 26.4084 24.7512 26.3311 24.7871 26.0958C24.8519 25.669 24.9445 25.2468 25.0186 24.8212C25.0441 24.6735 25.051 24.5224 25.0719 24.3263C24.9191 24.3263 24.8068 24.3263 24.6933 24.3263C23.0924 24.3263 21.4903 24.3263 19.8894 24.3263C18.1438 24.3263 16.397 24.3298 14.6514 24.3228C14.4535 24.3228 14.3343 24.3667 14.2706 24.5708C14.1849 24.8454 14.0634 25.1084 13.965 25.3795C13.8516 25.6921 13.7474 26.007 13.6143 26.3911V26.3899ZM42.249 26.3899C42.2432 26.2942 42.2513 26.2434 42.2363 26.2019C42.0291 25.6459 41.8126 25.0922 41.6135 24.5339C41.5417 24.3309 41.4005 24.3251 41.228 24.3251C37.9197 24.3275 34.6114 24.3263 31.303 24.3275C31.1908 24.3275 31.0796 24.3378 30.9569 24.3436C30.9569 24.444 30.9477 24.5109 30.9581 24.5743C31.0414 25.0957 31.1352 25.6159 31.2116 26.1385C31.2486 26.3899 31.4072 26.3945 31.6063 26.3934C35.0385 26.3899 38.4707 26.3911 41.9017 26.3911H42.249V26.3899ZM32.0763 42.1815C32.096 42.1608 32.1168 42.14 32.1365 42.1192C32.14 42.0546 32.1469 41.99 32.1469 41.9243C32.1469 40.7615 32.1411 39.6 32.1527 38.4372C32.155 38.1904 32.0694 38.1327 31.8367 38.1327C29.2831 38.1396 26.7283 38.1385 24.1747 38.1327C23.9571 38.1327 23.8657 38.1857 23.868 38.4211C23.8772 39.593 23.8715 40.765 23.8749 41.937C23.8749 42.02 23.8992 42.1042 23.9235 42.2542C25.0348 40.9473 26.3811 40.2771 28.0248 40.2644C29.6674 40.2528 31.0125 40.9207 32.0775 42.1792L32.0763 42.1815ZM27.9959 37.1314C29.2785 37.1314 30.5599 37.1314 31.8425 37.1314C32.1492 37.1314 32.2221 37.0599 32.0867 36.7935C31.9073 36.4416 31.7105 36.076 31.4385 35.7968C30.5471 34.8844 29.4197 34.318 28.2748 33.792C28.1614 33.7401 27.9889 33.739 27.8732 33.7851C26.8464 34.1992 25.8659 34.701 24.9989 35.3977C24.5475 35.7599 24.1319 36.1567 23.9386 36.7254C23.8228 37.0657 23.8726 37.1326 24.2361 37.1337C25.4897 37.1349 26.7434 37.1337 27.9959 37.1337V37.1314ZM27.9484 47.9606C28.5654 47.9606 29.1835 47.9537 29.8005 47.9641C30.0274 47.9675 30.105 47.8879 30.1026 47.6618C30.0934 46.874 30.1119 46.085 30.0911 45.2971C30.0841 45.0341 30.0309 44.7573 29.9325 44.5139C29.5794 43.6315 28.5608 43.0616 27.6752 43.2243C26.5871 43.4227 25.8416 44.2544 25.8277 45.3041C25.8173 46.0919 25.8335 46.8809 25.8196 47.6688C25.815 47.9064 25.9088 47.9664 26.1241 47.9641C26.7318 47.956 27.3395 47.9618 27.9473 47.9606H27.9484ZM24.2766 34.6514C24.5371 34.468 24.7176 34.3134 24.9202 34.2015C25.6668 33.7886 26.4158 33.3814 27.174 32.9892C27.3928 32.8761 27.5328 32.7654 27.5027 32.492C27.4784 32.274 27.4889 32.0491 27.5109 31.8299C27.5375 31.56 27.769 31.3673 28.0202 31.3777C28.2806 31.3893 28.4832 31.5865 28.4971 31.8622C28.5087 32.0825 28.5087 32.3051 28.4994 32.5255C28.4925 32.702 28.5573 32.7919 28.724 32.875C29.3421 33.1818 29.9568 33.5002 30.5564 33.8405C30.9187 34.0469 31.2533 34.303 31.6121 34.5453C31.626 34.4887 31.6411 34.4599 31.6364 34.4345C31.4281 33.243 31.2116 32.0525 31.0136 30.8586C30.9731 30.6164 30.8782 30.5507 30.6386 30.5518C28.8826 30.5622 27.1277 30.5668 25.3717 30.5483C25.0603 30.5449 24.9781 30.6672 24.9329 30.9302C24.7836 31.8011 24.6181 32.6685 24.4618 33.5371C24.4005 33.8808 24.3461 34.2246 24.2754 34.6502L24.2766 34.6514ZM24.8114 47.9571C24.8172 47.8268 24.8241 47.7414 24.8253 47.6572C24.8253 46.889 24.816 46.1196 24.8299 45.3514C24.8346 45.0757 24.8647 44.7942 24.9341 44.5278C25.4168 42.6752 27.468 41.6959 29.2044 42.4641C30.48 43.0293 31.0785 44.0525 31.1167 45.4183C31.134 46.0331 31.1132 46.6479 31.1213 47.2627C31.1329 48.0713 30.9789 47.9479 31.8517 47.9641C32.0751 47.9687 32.1562 47.8914 32.1527 47.663C32.1411 46.8659 32.1701 46.0677 32.1423 45.2706C32.111 44.3686 31.8367 43.5404 31.2706 42.8194C30.0181 41.2253 27.8512 40.8365 26.0917 41.7536C25.0105 42.3165 24.2905 43.2035 24.0138 44.4032C23.7569 45.5221 23.9247 46.6629 23.8969 47.7922C23.8958 47.8453 23.9976 47.9456 24.0567 47.9491C24.3021 47.9675 24.551 47.9571 24.8126 47.9571H24.8114ZM14.7417 23.3124C14.8957 23.3204 14.9976 23.3297 15.1006 23.3297C18.3672 23.3297 21.6339 23.3297 24.9005 23.3297C24.9677 23.3297 25.0418 23.3458 25.1008 23.3239C25.1726 23.2974 25.2791 23.2478 25.2906 23.1912C25.374 22.8014 25.4365 22.4069 25.5117 21.9812C25.3612 21.9743 25.2582 21.9651 25.1552 21.9651C24.037 21.9651 22.9199 21.9651 21.8017 21.9651C19.7112 21.9651 17.6194 21.9628 15.5289 21.9708C15.4143 21.9708 15.2325 22.0262 15.1967 22.1069C15.03 22.4795 14.9038 22.8706 14.7417 23.3112V23.3124ZM30.5101 21.9812C30.5691 22.3469 30.6363 22.6652 30.6687 22.9882C30.6953 23.2501 30.7995 23.3377 31.0727 23.3366C34.2919 23.3274 37.5122 23.3308 40.7314 23.3308C40.8426 23.3308 40.9525 23.3308 41.1366 23.3308C40.9907 22.9386 40.8553 22.6145 40.7523 22.28C40.6747 22.0274 40.5358 21.9581 40.2742 21.9593C37.1314 21.9697 33.9898 21.9651 30.847 21.9662C30.7532 21.9662 30.6583 21.9743 30.5113 21.9812H30.5101ZM38.0991 46.1046C38.0933 45.9743 38.0841 45.8612 38.0841 45.7482C38.0829 44.9211 38.0737 44.094 38.0887 43.2681C38.0933 43.0097 38.0042 42.9359 37.7553 42.9417C37.158 42.9555 36.5596 42.9555 35.9611 42.9417C35.7145 42.9359 35.6219 43.0074 35.6242 43.267C35.6347 44.7285 35.6347 46.19 35.6242 47.6515C35.6231 47.8949 35.7076 47.956 35.9403 47.9664C36.357 47.986 36.8119 47.8153 37.0816 48.1083C37.3016 48.0437 37.4439 47.9975 37.5898 47.9618C37.6442 47.9479 37.7055 47.9525 37.7623 47.9606C38.0216 47.9941 38.1061 47.8776 38.0852 47.6296C38.0667 47.4173 38.0818 47.2016 38.0818 46.9351L38.098 46.1058L38.0991 46.1046ZM20.5377 45.469C20.5377 44.74 20.5296 44.0098 20.5423 43.2808C20.5458 43.0374 20.4775 42.9359 20.217 42.9417C19.5815 42.9555 18.946 42.9521 18.3105 42.9417C18.0859 42.9382 18.0049 43.0144 18.0084 43.2404C18.0188 43.9302 18.0119 44.62 18.013 45.3098C18.013 46.0954 18.02 46.8821 18.0095 47.6676C18.0061 47.8972 18.0883 47.9675 18.3117 47.9641C18.9564 47.9537 19.6024 47.9525 20.2471 47.9641C20.4798 47.9687 20.5435 47.8776 20.5411 47.6572C20.5307 46.9282 20.5377 46.198 20.5377 45.469ZM20.8143 20.9719C22.3851 20.9719 23.956 20.9719 25.5268 20.9719C26.0122 20.9719 26.2541 20.7312 26.2526 20.2498C26.2526 19.9883 26.1183 19.8572 25.8497 19.8564C22.6213 19.8564 19.3928 19.853 16.1644 19.8587C15.2511 19.8599 15.4085 19.7284 15.383 20.6328C15.3761 20.8923 15.4536 20.98 15.7257 20.9777C17.4215 20.9661 19.1185 20.9719 20.8143 20.9719ZM13.054 46.4426C11.82 46.4426 10.5849 46.4472 9.35094 46.438C9.13795 46.4368 9.05576 46.4991 9.06502 46.716C9.07891 47.0136 9.0847 47.3135 9.06386 47.6099C9.04303 47.8937 9.15415 47.9675 9.42734 47.9664C11.2308 47.956 13.0343 47.9606 14.8378 47.9606C15.4652 47.9606 16.0914 47.956 16.7189 47.9641C16.9272 47.9664 17.0152 47.8995 17.0048 47.6815C16.9897 47.3746 16.9862 47.0655 17.0048 46.7586C17.0221 46.4968 16.9168 46.4357 16.6702 46.438C15.4652 46.4484 14.259 46.4426 13.054 46.4426ZM35.1971 20.9719C36.7112 20.9719 38.2253 20.9719 39.7405 20.9719C40.229 20.9719 40.4729 20.7312 40.4721 20.2498C40.4721 19.8576 40.4721 19.8564 40.0681 19.8564C36.9427 19.8564 33.8184 19.8564 30.693 19.8564C29.9116 19.8564 29.9209 19.8564 29.9116 20.6316C29.9082 20.8888 29.973 20.9811 30.2497 20.9788C31.8992 20.9661 33.5487 20.9719 35.1983 20.9719H35.1971ZM30.7902 29.5552C30.6652 28.8481 30.5576 28.1963 30.4256 27.5492C30.4129 27.4846 30.2543 27.4073 30.1617 27.4073C28.7159 27.3981 27.2701 27.405 25.8243 27.3969C25.6275 27.3969 25.5557 27.4662 25.5245 27.653C25.44 28.1548 25.3346 28.6531 25.2443 29.1526C25.2223 29.2714 25.2258 29.3948 25.2154 29.5563C25.94 29.5563 26.6311 29.5621 27.3222 29.5471C27.3812 29.5459 27.4808 29.4179 27.4889 29.3418C27.5132 29.1238 27.4889 28.9 27.5027 28.6797C27.5213 28.3717 27.7389 28.1606 28.0132 28.1663C28.2934 28.1721 28.4902 28.3832 28.5006 28.6981C28.5075 28.9092 28.4878 29.1226 28.511 29.3314C28.5191 29.4098 28.6105 29.5436 28.6661 29.5448C29.3572 29.5598 30.0494 29.554 30.7914 29.554L30.7902 29.5552ZM28.0294 24.3263C27.4796 24.3263 26.9298 24.3286 26.3811 24.3251C26.2352 24.3251 26.1206 24.3321 26.0905 24.5178C26.0025 25.0669 25.9018 25.6148 25.8034 26.1627C25.7699 26.3507 25.8625 26.3957 26.0303 26.3922C26.3869 26.3853 26.7445 26.3749 27.0999 26.3957C27.3858 26.4119 27.5294 26.3461 27.5074 26.0208C27.4912 25.7786 27.5977 25.5686 27.8778 25.5121C28.2575 25.4348 28.5064 25.6355 28.4959 26.0543C28.4902 26.3242 28.5816 26.4095 28.8455 26.3957C29.2113 26.3761 29.5783 26.3796 29.9441 26.3945C30.1744 26.4038 30.2311 26.3173 30.1918 26.105C30.0969 25.5952 30.0077 25.0853 29.9278 24.5732C29.8989 24.384 29.8132 24.3194 29.6223 24.3228C29.0921 24.3332 28.5619 24.3263 28.0318 24.3263H28.0294ZM33.1598 47.9571C33.602 47.9571 34.0152 47.9675 34.4262 47.9468C34.4956 47.9433 34.6137 47.8095 34.6148 47.7345C34.6264 46.2177 34.6218 44.6996 34.6253 43.1828C34.6253 43.0097 34.55 42.9417 34.3822 42.944C34.0638 42.9486 33.7455 42.9567 33.4283 42.9405C33.1945 42.929 33.1389 43.0224 33.1401 43.2427C33.1482 44.7215 33.1447 46.2003 33.1447 47.6791C33.1447 47.7553 33.1528 47.8314 33.1609 47.9571H33.1598ZM33.1621 39.7903V41.93C33.7768 41.93 34.3729 41.93 34.9679 41.93C35.9136 41.93 36.8582 41.9324 37.8039 41.9254C37.8942 41.9254 38.0343 41.8874 38.0644 41.8251C38.1906 41.5644 38.0574 41.306 37.7681 41.2149C36.8513 40.9265 35.9345 40.6393 35.0165 40.3544C34.4123 40.1675 33.8057 39.9852 33.1621 39.7891V39.7903ZM22.8667 45.4506C22.8667 45.4506 22.8621 45.4506 22.8609 45.4506C22.8609 44.7112 22.8516 43.9718 22.8655 43.2324C22.8702 42.9982 22.7891 42.929 22.5657 42.9417C22.3064 42.9567 22.046 42.9498 21.7855 42.9451C21.6165 42.9417 21.5413 43.0109 21.5413 43.1839C21.5436 44.7008 21.5436 46.2188 21.5413 47.7357C21.5413 47.896 21.6096 47.9618 21.7658 47.9595C22.0448 47.956 22.3249 47.9502 22.6039 47.9629C22.8053 47.9721 22.8713 47.8972 22.869 47.6976C22.8597 46.949 22.8655 46.1992 22.8655 45.4506H22.8667ZM22.8239 41.93V39.7961C22.215 39.9852 21.6455 40.1594 21.0782 40.3382C20.1348 40.6347 19.1937 40.9426 18.2468 41.2276C17.925 41.3245 18.0188 41.5598 18.0176 41.7628C18.0176 42.0027 18.2133 41.9277 18.3406 41.9277C19.5167 41.9324 20.6928 41.93 21.8689 41.93C22.1849 41.93 22.5021 41.93 22.825 41.93H22.8239ZM28.0341 21.9662C27.6775 21.9662 27.3199 21.9881 26.9656 21.9604C26.645 21.9351 26.476 22.0297 26.4702 22.3676C26.4679 22.4911 26.432 22.6133 26.4146 22.7368C26.3598 23.1343 26.5354 23.3331 26.9413 23.3331C27.2685 23.3331 27.4564 23.1766 27.5051 22.8636C27.5456 22.5995 27.7701 22.3942 28.0121 22.3988C28.2436 22.4034 28.4635 22.6099 28.4971 22.8533C28.5411 23.1732 28.7236 23.3331 29.0446 23.3331C29.1893 23.3331 29.334 23.3285 29.4776 23.3331C29.65 23.3389 29.6975 23.2535 29.6697 23.099C29.6141 22.7979 29.5516 22.4968 29.5111 22.1935C29.4857 22.0054 29.3884 21.9616 29.2183 21.9651C28.8235 21.9731 28.4288 21.9674 28.0341 21.9674V21.9662ZM28.0607 20.9719C28.2725 20.9719 28.4855 20.9811 28.6962 20.9661C28.7657 20.9615 28.8907 20.8923 28.8895 20.8565C28.8721 20.4793 28.9208 20.0687 28.7865 19.7319C28.511 19.0421 27.9322 19.0017 27.4738 19.5842C27.1601 19.981 27.2678 20.439 27.2874 20.8842C27.5456 20.9131 27.8037 20.9419 28.0607 20.9707V20.9719Z" fill="#0A0A26"/>
</svg>
