<svg width="56" height="56" viewBox="0 0 56 56" fill="none" xmlns="http://www.w3.org/2000/svg">
<circle opacity="0.1" cx="28" cy="28" r="28" fill="#4040FF"/>
<g clip-path="url(#clip0_1092_1775)">
<path d="M35.4668 56H20.5334C20.2859 56 20.0485 55.9017 19.8735 55.7267C19.6984 55.5516 19.6001 55.3142 19.6001 55.0667V43.8667C19.6001 43.6191 19.6984 43.3817 19.8735 43.2067C20.0485 43.0317 20.2859 42.9333 20.5334 42.9333H35.4668C35.7143 42.9333 35.9517 43.0317 36.1267 43.2067C36.3018 43.3817 36.4001 43.6191 36.4001 43.8667V55.0667C36.4001 55.3142 36.3018 55.5516 36.1267 55.7267C35.9517 55.9017 35.7143 56 35.4668 56ZM21.4668 54.1334H34.5334V44.8H21.4668V54.1334Z" fill="#4040FF"/>
<path d="M35.4668 44.8001H20.5334C20.2859 44.8001 20.0485 44.7017 19.8735 44.5267C19.6984 44.3517 19.6001 44.1143 19.6001 43.8667V32.6667C19.6001 32.4192 19.6984 32.1818 19.8735 32.0068C20.0485 31.8317 20.2859 31.7334 20.5334 31.7334H35.4668C35.7143 31.7334 35.9517 31.8317 36.1267 32.0068C36.3018 32.1818 36.4001 32.4192 36.4001 32.6667V43.8667C36.4001 44.1143 36.3018 44.3517 36.1267 44.5267C35.9517 44.7017 35.7143 44.8001 35.4668 44.8001ZM21.4668 42.9334H34.5334V33.6001H21.4668V42.9334Z" fill="#4040FF"/>
<path d="M37.3334 33.6H18.6667C18.4192 33.6 18.1818 33.5017 18.0068 33.3267C17.8317 33.1516 17.7334 32.9142 17.7334 32.6667V15.8667C17.7334 15.6191 17.8317 15.3817 18.0068 15.2067C18.1818 15.0317 18.4192 14.9333 18.6667 14.9333H37.3334C37.5809 14.9333 37.8183 15.0317 37.9934 15.2067C38.1684 15.3817 38.2667 15.6191 38.2667 15.8667V32.6667C38.2667 32.9142 38.1684 33.1516 37.9934 33.3267C37.8183 33.5017 37.5809 33.6 37.3334 33.6ZM19.6001 31.7334H36.4001V16.8H19.6001V31.7334Z" fill="#4040FF"/>
<path d="M35.4668 16.7999H20.5334C20.2859 16.7999 20.0485 16.7016 19.8735 16.5266C19.6984 16.3515 19.6001 16.1141 19.6001 15.8666V13.0666C19.6001 12.8193 19.6981 12.5813 19.8736 12.4067L21.7402 10.5401C21.8268 10.4533 21.9296 10.3844 22.0429 10.3375C22.1561 10.2906 22.2775 10.2665 22.4001 10.2666H33.6001C33.8474 10.2666 34.0854 10.3646 34.26 10.5401L36.1266 12.4067C36.2134 12.4933 36.2823 12.5961 36.3292 12.7094C36.3761 12.8226 36.4002 12.944 36.4001 13.0666V15.8666C36.4001 16.1141 36.3018 16.3515 36.1267 16.5266C35.9517 16.7016 35.7143 16.7999 35.4668 16.7999ZM21.4668 14.9333H34.5334V13.453L33.2137 12.1333H22.7865L21.4668 13.453V14.9333Z" fill="#4040FF"/>
<path d="M31.7335 12.1334H24.2668C24.0193 12.1334 23.7819 12.0351 23.6069 11.8601C23.4318 11.685 23.3335 11.4476 23.3335 11.2001V6.53343C23.3335 6.2859 23.4318 6.0485 23.6069 5.87346C23.7819 5.69843 24.0193 5.6001 24.2668 5.6001H31.7335C31.981 5.6001 32.2184 5.69843 32.3935 5.87346C32.5685 6.0485 32.6668 6.2859 32.6668 6.53343V11.2001C32.6668 11.4476 32.5685 11.685 32.3935 11.8601C32.2184 12.0351 31.981 12.1334 31.7335 12.1334ZM25.2002 10.2668H30.8002V7.46676H25.2002V10.2668Z" fill="#4040FF"/>
<path d="M31.7335 7.46667H24.2668C24.098 7.46658 23.9323 7.4207 23.7875 7.33392C23.6427 7.24714 23.5241 7.1227 23.4445 6.97387C23.3648 6.82503 23.3269 6.65737 23.335 6.48874C23.3431 6.3201 23.3967 6.15682 23.4903 6.01627L27.2236 0.416267C27.5699 -0.103599 28.4304 -0.103599 28.7767 0.416267L32.51 6.01627C32.6042 6.15668 32.6584 6.32008 32.6668 6.48895C32.6752 6.65782 32.6375 6.8258 32.5577 6.97486C32.4779 7.12392 32.359 7.24845 32.2138 7.33509C32.0686 7.42173 31.9025 7.46722 31.7335 7.46667ZM26.0103 5.6H29.9891L28.0001 2.61613L26.0103 5.6ZM28.0001 30.8C24.3975 30.8 21.4668 27.8693 21.4668 24.2667C21.4668 20.664 24.3975 17.7333 28.0001 17.7333C31.6028 17.7333 34.5335 20.664 34.5335 24.2667C34.5335 27.8693 31.6028 30.8 28.0001 30.8ZM28.0001 19.6C25.4269 19.6 23.3335 21.6935 23.3335 24.2667C23.3335 26.8399 25.4269 28.9333 28.0001 28.9333C30.5733 28.9333 32.6668 26.8399 32.6668 24.2667C32.6668 21.6935 30.5733 19.6 28.0001 19.6Z" fill="#4040FF"/>
<path d="M28.0002 25.1999C27.7527 25.1999 27.5153 25.1016 27.3403 24.9265C27.1652 24.7515 27.0669 24.5141 27.0669 24.2666V22.3999C27.0669 22.1524 27.1652 21.915 27.3403 21.7399C27.5153 21.5649 27.7527 21.4666 28.0002 21.4666C28.2478 21.4666 28.4852 21.5649 28.6602 21.7399C28.8352 21.915 28.9336 22.1524 28.9336 22.3999V24.2666C28.9336 24.5141 28.8352 24.7515 28.6602 24.9265C28.4852 25.1016 28.2478 25.1999 28.0002 25.1999Z" fill="#4040FF"/>
<path d="M29.8667 25.2H28C27.7525 25.2 27.5151 25.1017 27.34 24.9266C27.165 24.7516 27.0667 24.5142 27.0667 24.2667C27.0667 24.0191 27.165 23.7817 27.34 23.6067C27.5151 23.4317 27.7525 23.3333 28 23.3333H29.8667C30.1142 23.3333 30.3516 23.4317 30.5266 23.6067C30.7017 23.7817 30.8 24.0191 30.8 24.2667C30.8 24.5142 30.7017 24.7516 30.5266 24.9266C30.3516 25.1017 30.1142 25.2 29.8667 25.2ZM28 52.2667C27.7525 52.2667 27.5151 52.1683 27.34 51.9933C27.165 51.8183 27.0667 51.5809 27.0667 51.3333V47.6C27.0667 47.3525 27.165 47.1151 27.34 46.94C27.5151 46.765 27.7525 46.6667 28 46.6667C28.2475 46.6667 28.4849 46.765 28.66 46.94C28.835 47.1151 28.9333 47.3525 28.9333 47.6V51.3333C28.9333 51.5809 28.835 51.8183 28.66 51.9933C28.4849 52.1683 28.2475 52.2667 28 52.2667ZM31.7333 52.2667C31.4858 52.2667 31.2484 52.1683 31.0734 51.9933C30.8983 51.8183 30.8 51.5809 30.8 51.3333V47.6C30.8 47.3525 30.8983 47.1151 31.0734 46.94C31.2484 46.765 31.4858 46.6667 31.7333 46.6667C31.9809 46.6667 32.2183 46.765 32.3933 46.94C32.5683 47.1151 32.6667 47.3525 32.6667 47.6V51.3333C32.6667 51.5809 32.5683 51.8183 32.3933 51.9933C32.2183 52.1683 31.9809 52.2667 31.7333 52.2667ZM24.2667 52.2667C24.0191 52.2667 23.7817 52.1683 23.6067 51.9933C23.4317 51.8183 23.3333 51.5809 23.3333 51.3333V47.6C23.3333 47.3525 23.4317 47.1151 23.6067 46.94C23.7817 46.765 24.0191 46.6667 24.2667 46.6667C24.5142 46.6667 24.7516 46.765 24.9266 46.94C25.1017 47.1151 25.2 47.3525 25.2 47.6V51.3333C25.2 51.5809 25.1017 51.8183 24.9266 51.9933C24.7516 52.1683 24.5142 52.2667 24.2667 52.2667ZM28 41.0667C27.7525 41.0667 27.5151 40.9683 27.34 40.7933C27.165 40.6183 27.0667 40.3809 27.0667 40.1333V36.4C27.0667 36.1525 27.165 35.9151 27.34 35.74C27.5151 35.565 27.7525 35.4667 28 35.4667C28.2475 35.4667 28.4849 35.565 28.66 35.74C28.835 35.9151 28.9333 36.1525 28.9333 36.4V40.1333C28.9333 40.3809 28.835 40.6183 28.66 40.7933C28.4849 40.9683 28.2475 41.0667 28 41.0667ZM31.7333 41.0667C31.4858 41.0667 31.2484 40.9683 31.0734 40.7933C30.8983 40.6183 30.8 40.3809 30.8 40.1333V36.4C30.8 36.1525 30.8983 35.9151 31.0734 35.74C31.2484 35.565 31.4858 35.4667 31.7333 35.4667C31.9809 35.4667 32.2183 35.565 32.3933 35.74C32.5683 35.9151 32.6667 36.1525 32.6667 36.4V40.1333C32.6667 40.3809 32.5683 40.6183 32.3933 40.7933C32.2183 40.9683 31.9809 41.0667 31.7333 41.0667ZM24.2667 41.0667C24.0191 41.0667 23.7817 40.9683 23.6067 40.7933C23.4317 40.6183 23.3333 40.3809 23.3333 40.1333V36.4C23.3333 36.1525 23.4317 35.9151 23.6067 35.74C23.7817 35.565 24.0191 35.4667 24.2667 35.4667C24.5142 35.4667 24.7516 35.565 24.9266 35.74C25.1017 35.9151 25.2 36.1525 25.2 36.4V40.1333C25.2 40.3809 25.1017 40.6183 24.9266 40.7933C24.7516 40.9683 24.5142 41.0667 24.2667 41.0667ZM13.0667 16.8H3.73333C1.6744 16.8 0 15.1256 0 13.0667C0 10.8817 1.92453 9.12053 4.11413 9.35387C4.83933 7.67573 6.51373 6.53333 8.4 6.53333C10.2863 6.53333 11.9607 7.67573 12.6859 9.35387C14.8764 9.12147 16.8 10.8817 16.8 13.0667C16.8 15.1256 15.1256 16.8 13.0667 16.8ZM3.73333 11.2C2.70387 11.2 1.86667 12.0372 1.86667 13.0667C1.86667 14.0961 2.70387 14.9333 3.73333 14.9333H13.0667C14.0961 14.9333 14.9333 14.0961 14.9333 13.0667C14.9333 11.8188 13.6845 10.8332 12.3956 11.3316C12.2687 11.3803 12.1327 11.4008 11.997 11.3916C11.8614 11.3824 11.7294 11.3437 11.6102 11.2784C11.491 11.213 11.3874 11.1224 11.3068 11.013C11.2261 10.9036 11.1702 10.7779 11.1431 10.6447C10.8827 9.34453 9.72907 8.4 8.4 8.4C7.07093 8.4 5.91733 9.34453 5.656 10.6447C5.62927 10.7781 5.57368 10.9041 5.49312 11.0138C5.41256 11.1235 5.30898 11.2143 5.18965 11.2797C5.07031 11.3452 4.93811 11.3837 4.8023 11.3927C4.66649 11.4016 4.53037 11.3808 4.40347 11.3316C4.19024 11.2464 3.96296 11.2017 3.73333 11.2ZM52.2667 10.2667H42.9333C40.8744 10.2667 39.2 8.59227 39.2 6.53333C39.2 4.3484 41.1255 2.59187 43.3141 2.82053C44.0393 1.1424 45.7137 0 47.6 0C49.4863 0 51.1607 1.1424 51.8859 2.82053C54.0773 2.5928 56 4.3484 56 6.53333C56 8.59227 54.3256 10.2667 52.2667 10.2667ZM42.9333 4.66667C41.9039 4.66667 41.0667 5.50387 41.0667 6.53333C41.0667 7.5628 41.9039 8.4 42.9333 8.4H52.2667C53.2961 8.4 54.1333 7.5628 54.1333 6.53333C54.1333 5.28453 52.8845 4.3008 51.5956 4.79827C51.4687 4.84713 51.3326 4.86772 51.1969 4.8586C51.0612 4.84948 50.9292 4.81088 50.8099 4.74548C50.6907 4.68008 50.5871 4.58946 50.5065 4.47994C50.4259 4.37042 50.3701 4.24462 50.3431 4.11133C50.0827 2.8112 48.9291 1.86667 47.6 1.86667C46.2709 1.86667 45.1173 2.8112 44.856 4.11133C44.8293 4.24479 44.7737 4.37078 44.6931 4.48048C44.6126 4.59018 44.509 4.68094 44.3896 4.74638C44.2703 4.81183 44.1381 4.85039 44.0023 4.85935C43.8665 4.86831 43.7304 4.84746 43.6035 4.79827C43.3902 4.71304 43.163 4.66841 42.9333 4.66667ZM45.7333 25.2C45.4858 25.2 45.2484 25.1017 45.0734 24.9266C44.8983 24.7516 44.8 24.5142 44.8 24.2667C44.8 23.2372 43.9628 22.4 42.9333 22.4C42.6858 22.4 42.4484 22.3017 42.2734 22.1266C42.0983 21.9516 42 21.7142 42 21.4667C42 21.2191 42.0983 20.9817 42.2734 20.8067C42.4484 20.6317 42.6858 20.5333 42.9333 20.5333C43.9264 20.5333 44.8299 20.9235 45.5 21.5581C45.9843 20.6826 46.6941 19.9527 47.5557 19.4443C48.4174 18.9358 49.3995 18.6673 50.4 18.6667C50.6475 18.6667 50.8849 18.765 51.06 18.94C51.235 19.1151 51.3333 19.3525 51.3333 19.6C51.3333 19.8475 51.235 20.0849 51.06 20.26C50.8849 20.435 50.6475 20.5333 50.4 20.5333C48.3411 20.5333 46.6667 22.2077 46.6667 24.2667C46.6667 24.5142 46.5683 24.7516 46.3933 24.9266C46.2183 25.1017 45.9809 25.2 45.7333 25.2ZM4.66667 56H0.933333C0.685798 56 0.448401 55.9017 0.273367 55.7266C0.0983331 55.5516 0 55.3142 0 55.0667C0 54.8191 0.0983331 54.5817 0.273367 54.4067C0.448401 54.2317 0.685798 54.1333 0.933333 54.1333H4.66667C4.9142 54.1333 5.1516 54.2317 5.32663 54.4067C5.50167 54.5817 5.6 54.8191 5.6 55.0667C5.6 55.3142 5.50167 55.5516 5.32663 55.7266C5.1516 55.9017 4.9142 56 4.66667 56ZM55.0667 56H40.1333C39.8858 56 39.6484 55.9017 39.4734 55.7266C39.2983 55.5516 39.2 55.3142 39.2 55.0667C39.2 54.8191 39.2983 54.5817 39.4734 54.4067C39.6484 54.2317 39.8858 54.1333 40.1333 54.1333H55.0667C55.3142 54.1333 55.5516 54.2317 55.7266 54.4067C55.9017 54.5817 56 54.8191 56 55.0667C56 55.3142 55.9017 55.5516 55.7266 55.7266C55.5516 55.9017 55.3142 56 55.0667 56ZM15.8667 56H10.2667C10.0191 56 9.78173 55.9017 9.6067 55.7266C9.43167 55.5516 9.33333 55.3142 9.33333 55.0667C9.33333 54.8191 9.43167 54.5817 9.6067 54.4067C9.78173 54.2317 10.0191 54.1333 10.2667 54.1333H15.8667C16.1142 54.1333 16.3516 54.2317 16.5266 54.4067C16.7017 54.5817 16.8 54.8191 16.8 55.0667C16.8 55.3142 16.7017 55.5516 16.5266 55.7266C16.3516 55.9017 16.1142 56 15.8667 56Z" fill="#4040FF"/>
</g>
<defs>
<clipPath id="clip0_1092_1775">
<rect width="56" height="56" fill="white"/>
</clipPath>
</defs>
</svg>
