<svg width="56" height="56" viewBox="0 0 56 56" fill="none" xmlns="http://www.w3.org/2000/svg">
<circle opacity="0.1" cx="28" cy="28" r="28" fill="#0A0A26"/>
<path fill-rule="evenodd" clip-rule="evenodd" d="M50.48 55.9998C50.9632 55.9998 51.355 55.608 51.355 55.1248V22.7094C51.355 22.2262 50.9632 21.8344 50.48 21.8344C49.9967 21.8344 49.605 22.2262 49.605 22.7094V55.1248C49.605 55.608 49.9967 55.9998 50.48 55.9998Z" fill="#0A0A26"/>
<path fill-rule="evenodd" clip-rule="evenodd" d="M5.52002 55.9998C6.00327 55.9998 6.39502 55.608 6.39502 55.1248V22.7094C6.39502 22.2262 6.00327 21.8344 5.52002 21.8344C5.03677 21.8344 4.64502 22.2262 4.64502 22.7094V55.1248C4.64502 55.608 5.03677 55.9998 5.52002 55.9998Z" fill="#0A0A26"/>
<path fill-rule="evenodd" clip-rule="evenodd" d="M36.0928 55.9995C36.576 55.9995 36.9678 55.6078 36.9678 55.1245V46.3529C36.9678 45.8697 36.576 45.4779 36.0928 45.4779C35.6095 45.4779 35.2178 45.8697 35.2178 46.3529V55.1245C35.2178 55.6078 35.6095 55.9995 36.0928 55.9995Z" fill="#0A0A26"/>
<path fill-rule="evenodd" clip-rule="evenodd" d="M19.9072 55.9998C20.3905 55.9998 20.7822 55.608 20.7822 55.1248V38.5582C20.7822 34.7328 23.9881 31.5859 28 31.5859C32.0118 31.5859 35.2176 34.7328 35.2176 38.5582V43.0785C35.2176 43.5618 35.6094 43.9535 36.0926 43.9535C36.5759 43.9535 36.9676 43.5618 36.9676 43.0785V38.5582C36.9676 33.7159 32.9271 29.8359 28 29.8359C23.0728 29.8359 19.0322 33.7159 19.0322 38.5582V55.1248C19.0322 55.608 19.424 55.9998 19.9072 55.9998Z" fill="#0A0A26"/>
<path fill-rule="evenodd" clip-rule="evenodd" d="M16.3105 55.9998C16.7938 55.9998 17.1855 55.608 17.1855 55.1248V28.6476C17.1855 28.2265 17.5268 27.8853 17.9479 27.8853H38.0522C38.4733 27.8853 38.8146 28.2265 38.8146 28.6476V55.1248C38.8146 55.608 39.2063 55.9998 39.6896 55.9998C40.1728 55.9998 40.5646 55.608 40.5646 55.1248V28.6476C40.5646 27.26 39.4397 26.1353 38.0522 26.1353H17.9479C16.5604 26.1353 15.4355 27.26 15.4355 28.6476V55.1248C15.4355 55.608 15.8273 55.9998 16.3105 55.9998Z" fill="#0A0A26"/>
<path fill-rule="evenodd" clip-rule="evenodd" d="M28 31.5859C28.4832 31.5859 28.875 31.1942 28.875 30.7109V27.0103C28.875 26.527 28.4832 26.1353 28 26.1353C27.5168 26.1353 27.125 26.527 27.125 27.0103V30.7109C27.125 31.1942 27.5168 31.5859 28 31.5859Z" fill="#0A0A26"/>
<path fill-rule="evenodd" clip-rule="evenodd" d="M38.8145 41.0784C38.8145 41.5616 39.2062 41.9534 39.6895 41.9534H50.4799C50.9631 41.9534 51.3549 41.5616 51.3549 41.0784C51.3549 40.5951 50.9631 40.2034 50.4799 40.2034H39.6895C39.2062 40.2034 38.8145 40.5951 38.8145 41.0784Z" fill="#0A0A26"/>
<path fill-rule="evenodd" clip-rule="evenodd" d="M38.8145 51.5417C38.8145 52.025 39.2062 52.4167 39.6895 52.4167H50.4799C50.9631 52.4167 51.3549 52.025 51.3549 51.5417C51.3549 51.0585 50.9631 50.6667 50.4799 50.6667H39.6895C39.2062 50.6667 38.8145 51.0585 38.8145 51.5417Z" fill="#0A0A26"/>
<path fill-rule="evenodd" clip-rule="evenodd" d="M4.64502 51.5417C4.64502 52.025 5.03677 52.4167 5.52002 52.4167H16.3104C16.7937 52.4167 17.1854 52.025 17.1854 51.5417C17.1854 51.0585 16.7937 50.6667 16.3104 50.6667H5.52002C5.03677 50.6667 4.64502 51.0585 4.64502 51.5417Z" fill="#0A0A26"/>
<path fill-rule="evenodd" clip-rule="evenodd" d="M4.64502 41.0784C4.64502 41.5616 5.03677 41.9534 5.52002 41.9534H16.3104C16.7937 41.9534 17.1854 41.5616 17.1854 41.0784C17.1854 40.5951 16.7937 40.2034 16.3104 40.2034H5.52002C5.03677 40.2034 4.64502 40.5951 4.64502 41.0784Z" fill="#0A0A26"/>
<path fill-rule="evenodd" clip-rule="evenodd" d="M4.64502 34.1033C4.64502 34.5865 5.03677 34.9783 5.52002 34.9783H16.3104C16.7937 34.9783 17.1854 34.5865 17.1854 34.1033C17.1854 33.62 16.7937 33.2283 16.3104 33.2283H5.52002C5.03677 33.2283 4.64502 33.62 4.64502 34.1033Z" fill="#0A0A26"/>
<path fill-rule="evenodd" clip-rule="evenodd" d="M38.8145 34.1033C38.8145 34.5865 39.2062 34.9783 39.6895 34.9783H50.4799C50.9631 34.9783 51.3549 34.5865 51.3549 34.1033C51.3549 33.62 50.9631 33.2283 50.4799 33.2283H39.6895C39.2062 33.2283 38.8145 33.62 38.8145 34.1033Z" fill="#0A0A26"/>
<path fill-rule="evenodd" clip-rule="evenodd" d="M35.2178 22.7095C35.2178 23.1927 35.6095 23.5845 36.0928 23.5845H52.0235C52.5067 23.5845 52.8985 23.1927 52.8985 22.7095C52.8985 22.2262 52.5067 21.8345 52.0235 21.8345H36.0928C35.6095 21.8345 35.2178 22.2262 35.2178 22.7095Z" fill="#0A0A26"/>
<path fill-rule="evenodd" clip-rule="evenodd" d="M3.10156 22.7095C3.10156 23.1927 3.49331 23.5845 3.97656 23.5845H32.3274C32.8106 23.5845 33.2024 23.1927 33.2024 22.7095C33.2024 22.2262 32.8106 21.8345 32.3274 21.8345H3.97656C3.49331 21.8345 3.10156 22.2262 3.10156 22.7095Z" fill="#0A0A26"/>
<path fill-rule="evenodd" clip-rule="evenodd" d="M0 55.1248C0 55.608 0.391751 55.9998 0.875 55.9998H55.125C55.6082 55.9998 56 55.608 56 55.1248C56 54.6415 55.6082 54.2498 55.125 54.2498H0.875C0.391751 54.2498 0 54.6415 0 55.1248Z" fill="#0A0A26"/>
<path fill-rule="evenodd" clip-rule="evenodd" d="M5.52002 23.5845C6.00327 23.5845 6.39502 23.1927 6.39502 22.7095V20.046C6.39502 19.625 6.73635 19.2837 7.15734 19.2837H48.8424C49.2634 19.2837 49.6047 19.625 49.6047 20.046V22.7095C49.6047 23.1927 49.9965 23.5845 50.4797 23.5845C50.963 23.5845 51.3547 23.1927 51.3547 22.7095V20.046C51.3547 18.6585 50.2299 17.5337 48.8424 17.5337H7.15734C5.76985 17.5337 4.64502 18.6585 4.64502 20.046V22.7095C4.64502 23.1927 5.03677 23.5845 5.52002 23.5845Z" fill="#0A0A26"/>
<path fill-rule="evenodd" clip-rule="evenodd" d="M9.11719 19.2834C9.60044 19.2834 9.99219 18.8917 9.99219 18.4084V14.8142C9.99219 14.3932 10.3335 14.0519 10.7545 14.0519H45.2459C45.667 14.0519 46.0083 14.3932 46.0083 14.8142V18.4084C46.0083 18.8917 46.4 19.2834 46.8833 19.2834C47.3665 19.2834 47.7583 18.8917 47.7583 18.4084V14.8142C47.7583 13.4267 46.6336 12.3019 45.2459 12.3019H10.7545C9.36702 12.3019 8.24219 13.4267 8.24219 14.8142V18.4084C8.24219 18.8917 8.63394 19.2834 9.11719 19.2834Z" fill="#0A0A26"/>
<path fill-rule="evenodd" clip-rule="evenodd" d="M10.915 14.052C11.3983 14.052 11.79 13.6603 11.79 13.177V9.58286C11.79 9.16187 12.1314 8.82053 12.5524 8.82053H43.447C43.868 8.82053 44.2094 9.16187 44.2094 9.58286V13.177C44.2094 13.6603 44.6011 14.052 45.0844 14.052C45.5676 14.052 45.9594 13.6603 45.9594 13.177V9.58286C45.9594 8.19537 44.8345 7.07053 43.447 7.07053H12.5524C11.1649 7.07053 10.04 8.19537 10.04 9.58286V13.177C10.04 13.6603 10.4318 14.052 10.915 14.052Z" fill="#0A0A26"/>
<path fill-rule="evenodd" clip-rule="evenodd" d="M16.3105 8.8208C16.7938 8.8208 17.1855 8.42905 17.1855 7.9458V6.00001C17.1855 5.57902 17.5269 5.23768 17.9479 5.23768H19.9074C20.1348 5.23768 20.3533 5.14915 20.5165 4.99085L20.9342 4.58588L20.9342 4.58588C22.8037 2.77302 25.3448 1.74996 28.0001 1.74996C30.6553 1.74996 33.1964 2.77301 35.0661 4.58589C35.0661 4.58589 35.0661 4.58589 35.0661 4.58589L35.4837 4.99085C35.6469 5.14915 35.8654 5.23768 36.0928 5.23768H38.0522C38.4732 5.23768 38.8146 5.57902 38.8146 6.00001V7.9458C38.8146 8.42905 39.2063 8.8208 39.6896 8.8208C40.1728 8.8208 40.5646 8.42905 40.5646 7.9458V6.00001C40.5646 4.61252 39.4397 3.48768 38.0522 3.48768H36.4474L36.2843 3.32955L36.131 3.48768H36.1309L36.2843 3.32954C34.0827 1.19472 31.1023 -3.71933e-05 28.0001 -3.71933e-05C24.8978 -3.71933e-05 21.9175 1.19472 19.7159 3.32955C19.7159 3.32955 19.7159 3.32955 19.7159 3.32956L19.5528 3.48768H17.9479C16.5604 3.48768 15.4355 4.61252 15.4355 6.00001V7.9458C15.4355 8.42905 15.8273 8.8208 16.3105 8.8208Z" fill="#0A0A26"/>
<path fill-rule="evenodd" clip-rule="evenodd" d="M19.0322 18.4084C19.0322 18.8917 19.424 19.2834 19.9072 19.2834H36.0926C36.5759 19.2834 36.9676 18.8917 36.9676 18.4084V13.1769C36.9676 12.6936 36.5759 12.3019 36.0926 12.3019H19.9072C19.424 12.3019 19.0322 12.6936 19.0322 13.1769V18.4084ZM20.7822 17.5334V14.0519H35.2176V17.5334H20.7822Z" fill="#0A0A26"/>
<path fill-rule="evenodd" clip-rule="evenodd" d="M42.4111 28.8716C42.4111 30.3431 43.6336 31.4905 45.0845 31.4905C46.5353 31.4905 47.7579 30.3432 47.7579 28.8716C47.7579 27.4001 46.5353 26.2528 45.0845 26.2528C43.6336 26.2528 42.4111 27.4001 42.4111 28.8716ZM45.0845 29.7405C44.549 29.7405 44.1611 29.3263 44.1611 28.8716C44.1611 28.417 44.549 28.0028 45.0845 28.0028C45.62 28.0028 46.0079 28.417 46.0079 28.8716C46.0079 29.3262 45.62 29.7405 45.0845 29.7405Z" fill="#0A0A26"/>
<path fill-rule="evenodd" clip-rule="evenodd" d="M8.24219 28.8716C8.24219 30.3431 9.46476 31.4905 10.9155 31.4905C12.3665 31.4905 13.589 30.3431 13.589 28.8716C13.589 27.4001 12.3665 26.2528 10.9155 26.2528C9.46476 26.2528 8.24219 27.4001 8.24219 28.8716ZM10.9155 29.7405C10.3801 29.7405 9.99219 29.3263 9.99219 28.8716C9.99219 28.417 10.3801 28.0028 10.9155 28.0028C11.4512 28.0028 11.839 28.417 11.839 28.8716C11.839 29.3263 11.4512 29.7405 10.9155 29.7405Z" fill="#0A0A26"/>
</svg>
