<svg width="56" height="56" viewBox="0 0 56 56" fill="none" xmlns="http://www.w3.org/2000/svg">
<circle opacity="0.1" cx="28" cy="28" r="28" fill="#0A0A26"/>
<path fill-rule="evenodd" clip-rule="evenodd" d="M52.05 25.3437V27.2937C53.2687 27.9437 54 29.5687 54 30.7062C54 31.1937 53.5938 31.5187 53.1875 31.5187H52.05V46.0624C52.05 46.5499 51.6437 46.8749 51.2375 46.8749H42.3813H40.025H37.5063H33.9312H31.4125H28.0812H24.9937H19.6313H16.5437H11.1813H8.09375H4.7625C4.275 46.8749 3.95 46.4687 3.95 46.0624V40.8624V31.5187H2.8125C2.325 31.5187 2 31.1124 2 30.7062C2 29.5687 2.73125 27.9437 3.7875 27.2124V18.2749C3.7875 17.7874 4.1125 17.4624 4.51875 17.4624C4.7625 16.1624 5.575 15.1062 6.55 14.7812V12.9937C6.55 12.5062 6.875 12.1812 7.3625 12.1812C7.85 12.1812 8.175 12.5874 8.175 12.9937V14.8624C9.23125 15.1874 9.9625 16.2437 10.2063 17.5437C10.6125 17.6249 10.9375 17.9499 10.9375 18.3562V20.6312C11.1 20.5499 11.2625 20.5499 11.425 20.5499C12.5625 20.5499 13.4563 21.4437 13.4563 22.5812V24.5312H14.025V22.5812C14.025 21.6874 14.5938 20.9562 15.325 20.6312V18.2749C15.325 17.7874 15.7312 17.4624 16.1375 17.4624H17.6C17.8438 14.8624 19.875 12.8312 22.3938 12.5062V11.5312C21.9062 11.2874 21.5813 10.7187 21.5813 10.1499C21.5813 9.25615 22.3125 8.5249 23.2063 8.5249C24.1 8.5249 24.8313 9.25615 24.8313 10.1499C24.8313 10.7187 24.5063 11.2874 24.0188 11.5312V12.5062C26.5375 12.9124 28.4875 14.9437 28.8125 17.4624H30.1938C30.6813 17.4624 31.0063 17.8687 31.0063 18.2749V20.6312C31.7375 20.9562 32.3062 21.6874 32.3062 22.5812V24.5312H32.875V22.6624C32.875 21.5249 33.9313 20.5499 35.0688 20.5499C36.2062 20.5499 37.1 21.4437 37.1 22.5812V24.5312H37.6688V22.6624C37.6688 21.5249 38.5625 20.6312 39.7 20.6312C40.35 20.6312 40.9188 20.9562 41.325 21.4437H41.5688V21.2812C41.5688 19.6562 42.625 18.3562 44.0875 18.0312V16.8124C43.6 16.4874 43.275 15.9999 43.275 15.4312C43.275 14.6187 43.925 13.8874 44.8188 13.8874C45.6313 13.8874 46.3625 14.5374 46.3625 15.4312C46.3625 15.9999 46.0375 16.5687 45.55 16.8124V17.9499C47.0125 18.3562 48.0688 19.6562 48.0688 21.1999V21.3624H48.7188C49.2062 21.3624 49.5312 21.7687 49.5312 22.1749V24.5312H51.2375C51.725 24.5312 52.05 24.9374 52.05 25.3437ZM44.8188 19.4937C43.925 19.4937 43.1125 20.2249 43.1125 21.1999H43.0312V21.3624H46.525V21.1999C46.525 20.3062 45.7938 19.4937 44.8188 19.4937ZM42.3 22.9874H41.65V24.6124H47.9875V22.9874H47.3375H42.3ZM39.6187 22.1749C39.375 22.1749 39.1313 22.4187 39.1313 22.6624V24.5312H40.1063V22.6624C40.1063 22.4187 39.8625 22.1749 39.6187 22.1749ZM34.9062 22.1749C34.6625 22.1749 34.4188 22.4187 34.4188 22.6624V24.5312H35.3937V22.6624C35.3937 22.4187 35.15 22.1749 34.9062 22.1749ZM30.1938 22.1749C29.95 22.1749 29.7062 22.4187 29.7062 22.6624V24.5312H30.6812V22.6624C30.6812 22.4187 30.4375 22.1749 30.1938 22.1749ZM27.1875 17.6249C26.9438 15.6749 25.2375 14.2124 23.2063 14.2124C21.175 14.2124 19.55 15.6749 19.1438 17.6249H27.1875ZM29.4625 19.1687H16.95V20.6312C17.6812 20.9562 18.25 21.6874 18.25 22.5812V24.5312H18.9V22.5812C18.9 21.4437 19.7937 20.5499 20.9312 20.5499C22.0687 20.5499 22.9625 21.4437 22.9625 22.5812V24.5312H23.5312V22.5812C23.5312 21.4437 24.425 20.5499 25.5625 20.5499C26.7 20.5499 27.5938 21.4437 27.5938 22.5812V24.5312H28.1625V22.6624C28.1625 21.7687 28.7312 21.0374 29.4625 20.7124V19.1687ZM26.05 24.5312V22.6624C26.05 22.3374 25.8062 22.1749 25.5625 22.0937C25.3188 22.0937 25.075 22.3374 25.075 22.5812V24.5312H26.05ZM21.3375 24.5312V22.6624C21.3375 22.3374 21.175 22.1749 20.85 22.0937C20.6063 22.0937 20.3625 22.3374 20.3625 22.5812V24.5312H21.3375ZM16.2188 22.1749C15.975 22.1749 15.7312 22.4187 15.7312 22.6624V24.5312H16.7063V22.6624C16.7063 22.4187 16.4625 22.1749 16.2188 22.1749ZM11.5062 22.1749C11.2625 22.1749 11.0188 22.4187 11.0188 22.6624V24.5312H11.9938V22.6624C11.9938 22.4187 11.75 22.1749 11.5062 22.1749ZM12.8063 26.1562H11.0188V27.1312H50.5875V26.1562H48.8813H41H38.4H36.2875H33.6875H31.575H28.975H26.8625H24.2625H22.15H19.55H17.4375H14.9187H12.8063ZM8.6625 17.5437C8.41875 16.8937 7.93125 16.3249 7.44375 16.3249C6.95625 16.3249 6.46875 16.8937 6.30625 17.5437H8.6625ZM9.39375 19.1687H5.49375V27.1312H9.39375V25.3437V22.6624V19.1687ZM8.825 45.3312H10.2875V44.8437C10.2875 44.4374 9.9625 44.1124 9.55625 44.1124C9.15 44.1124 8.825 44.4374 8.825 44.8437V45.3312ZM17.3562 44.8437V45.3312H18.8188V44.8437C18.8188 44.4374 18.4937 44.1124 18.0875 44.1124C17.6812 44.1124 17.3562 44.4374 17.3562 44.8437ZM25.8062 44.8437V45.3312H27.2688V44.8437C27.2688 44.4374 26.9438 44.1124 26.5375 44.1124C26.1313 44.1124 25.8062 44.4374 25.8062 44.8437ZM28.8125 45.3312H30.6V41.6749H5.49375V45.3312H7.0375V44.8437C7.0375 43.5437 8.09375 42.4874 9.39375 42.4874C10.6938 42.4874 11.75 43.5437 11.75 44.8437V45.3312H15.5688V44.8437C15.5688 43.5437 16.625 42.4874 17.925 42.4874C19.225 42.4874 20.2812 43.5437 20.2812 44.8437V45.3312H24.1V44.8437C24.1 43.5437 25.1562 42.4874 26.4563 42.4874C27.7563 42.4874 28.8125 43.5437 28.8125 44.8437V45.3312ZM34.6625 41.1874V45.3312H36.6125V41.1874C36.6125 40.6999 36.2063 40.2124 35.6375 40.2124C35.15 40.2124 34.6625 40.6187 34.6625 41.1874ZM38.3188 45.3312H39.2938V34.1187H32.1437V40.8624V45.3312H33.1187V41.1874C33.1187 39.7249 34.2562 38.5874 35.7188 38.5874C37.1813 38.5874 38.3188 39.7249 38.3188 41.1874V45.3312ZM40.8375 45.3312H41.65H41.7313V31.5187H27.1875V36.4749C27.1875 36.9624 26.7812 37.2874 26.375 37.2874H12.8063C12.3188 37.2874 11.9938 36.8812 11.9938 36.4749V31.5187H5.49375V40.0499H30.5187V33.3062C30.5187 32.8187 30.925 32.4937 31.3312 32.4937H40.025C40.5125 32.4937 40.8375 32.8999 40.8375 33.3062V45.3312ZM13.6188 31.5187V35.7437H25.5625V31.5187H13.6188ZM43.275 45.3312H50.5063V31.5187H43.275V45.3312ZM42.4625 29.9749H51.3188H52.1313C51.8875 29.3249 51.4813 28.7562 51.075 28.7562H10.125H4.7625C4.4375 28.7562 3.95 29.3249 3.70625 29.9749H4.68125H12.8063H26.375H42.4625ZM7.28125 33.4686H10.0437C10.45 33.4686 10.8562 33.7936 10.8562 34.2811V37.6123C10.8562 38.0998 10.45 38.4248 10.0437 38.4248H7.28125C6.79375 38.4248 6.46875 38.0186 6.46875 37.6123V34.2811C6.46875 33.7936 6.875 33.4686 7.28125 33.4686ZM8.09375 35.0936V36.7998H9.23125H9.3125V35.0936H8.09375ZM48.2313 37.5311H45.4688C45.0625 37.5311 44.6563 37.2061 44.6563 36.7186V33.3874C44.6563 32.8999 45.0625 32.5749 45.4688 32.5749H48.2313C48.7188 32.5749 49.0438 32.9811 49.0438 33.3874V36.7186C49.0438 37.2061 48.6375 37.5311 48.2313 37.5311ZM47.5 34.1999H46.2813V35.9873H47.5V34.1999ZM48.2313 44.1936H45.4688C45.0625 44.1936 44.6563 43.8686 44.6563 43.3811V40.0498C44.6563 39.5623 45.0625 39.2373 45.4688 39.2373H48.2313C48.7188 39.2373 49.0438 39.6436 49.0438 40.0498V43.3811C49.0438 43.8686 48.6375 44.1936 48.2313 44.1936ZM47.5 40.8623H46.2813V42.6498H47.5V40.8623Z" fill="black"/>
</svg>
