<svg width="20" height="20" viewBox="0 0 20 20" fill="none" xmlns="http://www.w3.org/2000/svg">
<path d="M13.75 2.5C13.0223 2.5 12.3046 2.66943 11.6537 2.99487C11.0028 3.32032 10.4366 3.79283 10 4.375C9.40971 3.58794 8.58673 3.00656 7.64766 2.71322C6.70859 2.41987 5.70102 2.42943 4.76768 2.74055C3.83434 3.05166 3.02255 3.64855 2.4473 4.44667C1.87205 5.24479 1.5625 6.20368 1.5625 7.1875C1.5625 12.8047 9.36719 17.2344 9.69531 17.4219C9.78829 17.4741 9.89335 17.5011 10 17.5C10.1067 17.5018 10.212 17.4748 10.3047 17.4219C11.7419 16.5816 13.09 15.5974 14.3281 14.4844C17.0547 12.0312 18.4375 9.57812 18.4375 7.1875C18.4375 5.9443 17.9436 4.75201 17.0646 3.87294C16.1855 2.99386 14.9932 2.5 13.75 2.5Z" fill="#DF3A4D"/>
</svg>
