<svg width="24" height="24" viewBox="0 0 24 24" fill="none" xmlns="http://www.w3.org/2000/svg">
<g clip-path="url(#clip0_5252_81401)">
<path d="M12.3637 18.0009L11.4318 18.9328C10.5856 19.7654 9.44467 20.2298 8.25756 20.225C7.07044 20.2202 5.93332 19.7464 5.0939 18.907C4.25447 18.0676 3.78075 16.9305 3.77592 15.7433C3.77108 14.5562 4.23553 13.4153 5.06809 12.5691L7.3284 10.3134C8.13917 9.50102 9.22972 9.02912 10.377 8.99426C11.5242 8.95941 12.6414 9.36424 13.5 10.1259" stroke="#4040FF" stroke-width="1.5" stroke-linecap="round" stroke-linejoin="round"/>
<path d="M11.6363 5.99948L12.5681 5.0676C13.4144 4.23504 14.5553 3.77059 15.7424 3.77543C16.9295 3.78026 18.0666 4.25399 18.9061 5.09341C19.7455 5.93284 20.2192 7.06995 20.224 8.25707C20.2289 9.44418 19.7644 10.5851 18.9319 11.4314L16.6716 13.6917C15.8602 14.5034 14.7693 14.9745 13.6221 15.0085C12.4749 15.0424 11.358 14.6368 10.5 13.8745" stroke="#4040FF" stroke-width="1.5" stroke-linecap="round" stroke-linejoin="round"/>
</g>
<defs>
<clipPath id="clip0_5252_81401">
<rect width="24" height="24" fill="white"/>
</clipPath>
</defs>
</svg>
