<svg width="215" height="215" viewBox="0 0 215 215" fill="none" xmlns="http://www.w3.org/2000/svg">
<path d="M94.5182 188.202C131.228 188.202 160.988 186.348 160.988 184.062C160.988 181.775 131.228 179.921 94.5182 179.921C57.8082 179.921 28.0488 181.775 28.0488 184.062C28.0488 186.348 57.8082 188.202 94.5182 188.202Z" fill="#4040FF"/>
<path opacity="0.8" d="M94.5182 188.202C131.228 188.202 160.988 186.348 160.988 184.062C160.988 181.775 131.228 179.921 94.5182 179.921C57.8082 179.921 28.0488 181.775 28.0488 184.062C28.0488 186.348 57.8082 188.202 94.5182 188.202Z" fill="white"/>
<path d="M144.467 26.5999H77.6322C73.018 26.5999 69.2773 30.3405 69.2773 34.9548V176.055C69.2773 180.669 73.018 184.41 77.6322 184.41H144.467C149.081 184.41 152.822 180.669 152.822 176.055V34.9548C152.822 30.3405 149.081 26.5999 144.467 26.5999Z" fill="white"/>
<path d="M149.107 43.929H72.9883V167.081H149.107V43.929Z" fill="white" stroke="#F3F3F4" stroke-width="1.33739" stroke-miterlimit="10"/>
<path d="M122.716 93.7967C129.159 87.3534 129.159 76.9068 122.716 70.4635C116.273 64.0202 105.826 64.0202 99.3829 70.4635C92.9396 76.9068 92.9396 87.3535 99.3829 93.7967C105.826 100.24 116.273 100.24 122.716 93.7967Z" fill="#4040FF"/>
<path d="M132.711 159.337H89.3928C89.2953 159.337 89.1987 159.318 89.1085 159.281C89.0183 159.245 88.9362 159.19 88.8671 159.121C88.7979 159.053 88.7431 158.971 88.7056 158.881C88.6682 158.791 88.6489 158.694 88.6489 158.597C88.6484 158.499 88.6672 158.402 88.7044 158.312C88.7416 158.221 88.7964 158.139 88.8655 158.07C88.9347 158 89.017 157.946 89.1075 157.908C89.198 157.871 89.295 157.852 89.3928 157.853H132.711C132.809 157.853 132.905 157.872 132.995 157.91C133.085 157.947 133.167 158.002 133.236 158.071C133.304 158.14 133.359 158.222 133.396 158.313C133.432 158.403 133.451 158.499 133.451 158.597C133.451 158.793 133.373 158.981 133.234 159.12C133.095 159.259 132.907 159.337 132.711 159.337Z" fill="#4040FF"/>
<path d="M134.122 107.904H87.9782C87.0259 107.904 86.2539 108.676 86.2539 109.629V115.068C86.2539 116.02 87.0259 116.792 87.9782 116.792H134.122C135.074 116.792 135.846 116.02 135.846 115.068V109.629C135.846 108.676 135.074 107.904 134.122 107.904Z" fill="#4040FF"/>
<path d="M134.122 124.528H87.9782C87.0259 124.528 86.2539 125.3 86.2539 126.252V131.692C86.2539 132.644 87.0259 133.416 87.9782 133.416H134.122C135.074 133.416 135.846 132.644 135.846 131.692V126.252C135.846 125.3 135.074 124.528 134.122 124.528Z" fill="#4040FF"/>
<path d="M119.265 90.3603L114.41 87.5653V85.2562C115.113 84.4057 115.622 83.4123 115.902 82.3451C116.069 82.4044 116.245 82.435 116.422 82.4354C117.024 82.4354 117.407 80.5692 117.472 79.2362C118.173 77.7527 117.218 76.8841 117.218 76.8841C117.218 76.8841 117.614 76.4885 117.876 74.9018C118.138 73.3151 116.951 73.9773 116.027 72.5239C115.102 71.0705 114.44 69.4881 111.404 69.4881C110.568 69.4606 109.742 69.6854 109.035 70.1332C108.328 70.5811 107.772 71.2313 107.44 71.9993C106.684 72.002 105.931 72.09 105.195 72.2616C104.266 72.5239 104.004 75.564 104.795 76.7551C105.149 77.406 105.338 78.134 105.346 78.875C105.135 78.617 104.916 78.5482 104.795 79.133C104.533 80.4531 105.591 82.3021 105.591 82.3021L106.137 82.1473C106.412 83.2878 106.943 84.3509 107.689 85.2562V87.5653L102.834 90.3603C102.268 90.6876 101.797 91.1583 101.469 91.7251C101.142 92.2919 100.969 92.9349 100.968 93.5896V95.1892C103.856 97.4197 107.401 98.6297 111.05 98.6297C114.698 98.6297 118.244 97.4197 121.131 95.1892V93.5896C121.131 92.9348 120.959 92.2914 120.631 91.7245C120.304 91.1575 119.832 90.687 119.265 90.3603Z" fill="#F3F3F4"/>
<path d="M92.5359 131.206C92.4245 131.204 92.3182 131.16 92.2392 131.081C92.1969 131.043 92.1631 130.997 92.1401 130.945C92.1171 130.893 92.1054 130.837 92.1059 130.78C92.1072 130.703 92.1295 130.627 92.1704 130.561L92.9444 129.323L91.4351 129.37C91.3782 129.373 91.3212 129.365 91.2678 129.345C91.2145 129.325 91.166 129.294 91.1255 129.254C91.0553 129.175 91.0166 129.073 91.0166 128.968C91.0166 128.862 91.0553 128.761 91.1255 128.682C91.1651 128.64 91.2133 128.608 91.2668 128.587C91.3204 128.566 91.3778 128.558 91.4351 128.561L92.9229 128.617L92.1575 127.383C92.1158 127.316 92.0935 127.239 92.093 127.16C92.0925 127.103 92.1042 127.047 92.1272 126.995C92.1502 126.943 92.184 126.896 92.2263 126.859C92.3053 126.78 92.4116 126.736 92.523 126.734C92.5962 126.734 92.6679 126.756 92.7295 126.795C92.7912 126.835 92.8403 126.891 92.8713 126.958L93.6066 128.286L94.3333 126.966C94.3677 126.896 94.4208 126.836 94.4868 126.794C94.5527 126.751 94.629 126.728 94.7074 126.725C94.7617 126.726 94.8154 126.737 94.865 126.759C94.9146 126.782 94.959 126.814 94.9955 126.854C95.0744 126.936 95.1177 127.046 95.1159 127.16C95.1156 127.234 95.0964 127.306 95.06 127.37L94.2817 128.617L95.791 128.561C95.8482 128.558 95.9057 128.566 95.9592 128.587C96.0127 128.608 96.0609 128.64 96.1006 128.682C96.1739 128.758 96.2141 128.86 96.2124 128.966C96.2121 129.072 96.1722 129.175 96.1006 129.254C96.0601 129.294 96.0115 129.325 95.9582 129.345C95.9048 129.365 95.8478 129.373 95.791 129.37L94.2731 129.323L95.0299 130.548C95.0723 130.616 95.0946 130.695 95.0944 130.776C95.0944 130.89 95.0491 130.999 94.9684 131.08C94.8878 131.161 94.7784 131.206 94.6644 131.206C94.5906 131.205 94.5188 131.182 94.4577 131.141C94.3966 131.1 94.3488 131.042 94.3204 130.974L93.6023 129.684L92.8885 130.974C92.8568 131.041 92.8071 131.099 92.7449 131.14C92.6827 131.181 92.6103 131.203 92.5359 131.206Z" fill="#F3F3F4"/>
<path d="M99.5104 131.206C99.3991 131.204 99.2928 131.16 99.2137 131.081C99.1714 131.043 99.1377 130.997 99.1147 130.945C99.0917 130.893 99.08 130.837 99.0804 130.78C99.0818 130.703 99.1041 130.627 99.145 130.561L99.9189 129.323L98.4139 129.37C98.3565 129.372 98.2992 129.364 98.2452 129.344C98.1913 129.324 98.142 129.293 98.1 129.254C98.043 129.195 98.0049 129.12 97.9909 129.039C97.9769 128.959 97.9875 128.875 98.0213 128.801C98.0552 128.726 98.1107 128.663 98.1808 128.621C98.2508 128.578 98.332 128.557 98.4139 128.561L99.8975 128.617L99.132 127.383C99.0904 127.316 99.0681 127.239 99.0675 127.16C99.0671 127.103 99.0788 127.047 99.1018 126.995C99.1248 126.943 99.1585 126.896 99.2008 126.859C99.2799 126.78 99.3862 126.736 99.4975 126.734C99.5708 126.734 99.6424 126.756 99.7041 126.795C99.7658 126.835 99.8149 126.891 99.8458 126.958L100.581 128.286L101.308 126.966C101.342 126.896 101.395 126.836 101.461 126.794C101.527 126.751 101.604 126.728 101.682 126.725C101.736 126.725 101.79 126.737 101.84 126.759C101.89 126.781 101.934 126.814 101.97 126.854C102.01 126.895 102.041 126.942 102.063 126.995C102.084 127.047 102.095 127.103 102.095 127.16C102.093 127.234 102.072 127.306 102.035 127.37L101.256 128.617L102.77 128.57C102.826 128.566 102.883 128.575 102.936 128.596C102.989 128.617 103.036 128.649 103.075 128.69C103.148 128.767 103.189 128.869 103.187 128.974C103.187 129.081 103.147 129.183 103.075 129.262C103.035 129.302 102.988 129.333 102.935 129.353C102.882 129.373 102.826 129.382 102.77 129.378L101.248 129.331L102.004 130.557C102.047 130.625 102.069 130.704 102.069 130.785C102.069 130.899 102.024 131.008 101.943 131.089C101.862 131.169 101.753 131.215 101.639 131.215C101.565 131.214 101.493 131.191 101.432 131.15C101.371 131.109 101.323 131.05 101.295 130.982L100.577 129.692L99.8631 130.982C99.8302 131.048 99.78 131.104 99.7179 131.143C99.6557 131.183 99.584 131.204 99.5104 131.206Z" fill="#F3F3F4"/>
<path d="M106.489 131.206C106.377 131.205 106.269 131.161 106.188 131.081C106.146 131.043 106.112 130.997 106.089 130.945C106.066 130.893 106.055 130.837 106.055 130.78C106.056 130.703 106.079 130.627 106.12 130.561L106.894 129.323L105.389 129.37C105.308 129.373 105.227 129.352 105.158 129.31C105.089 129.267 105.034 129.205 105.001 129.131C104.967 129.057 104.956 128.975 104.969 128.895C104.982 128.815 105.019 128.741 105.075 128.682C105.115 128.64 105.164 128.608 105.219 128.587C105.273 128.567 105.331 128.558 105.389 128.561L106.872 128.617L106.107 127.383C106.065 127.316 106.043 127.239 106.042 127.16C106.044 127.103 106.056 127.048 106.079 126.996C106.102 126.944 106.135 126.898 106.176 126.859C106.256 126.779 106.364 126.734 106.477 126.734C106.549 126.735 106.62 126.757 106.681 126.796C106.741 126.836 106.79 126.892 106.821 126.958L107.556 128.286L108.283 126.966C108.317 126.896 108.37 126.836 108.436 126.794C108.502 126.751 108.578 126.728 108.657 126.725C108.711 126.725 108.765 126.737 108.815 126.759C108.864 126.781 108.909 126.814 108.945 126.854C108.985 126.895 109.016 126.942 109.038 126.995C109.059 127.047 109.07 127.103 109.069 127.16C109.068 127.234 109.047 127.306 109.009 127.37L108.231 128.617L109.745 128.561C109.8 128.556 109.856 128.562 109.909 128.58C109.962 128.598 110.011 128.627 110.052 128.666C110.092 128.704 110.124 128.751 110.146 128.802C110.167 128.854 110.177 128.91 110.175 128.966C110.175 129.072 110.137 129.174 110.067 129.254C110.027 129.294 109.978 129.325 109.925 129.345C109.871 129.365 109.814 129.373 109.757 129.37L108.24 129.323L108.992 130.548C109.034 130.616 109.057 130.695 109.057 130.776C109.055 130.832 109.043 130.888 109.02 130.94C108.997 130.991 108.964 131.038 108.923 131.077C108.886 131.117 108.841 131.149 108.79 131.172C108.74 131.194 108.686 131.205 108.631 131.206C108.558 131.205 108.487 131.182 108.426 131.141C108.366 131.099 108.319 131.041 108.291 130.974L107.569 129.684L106.855 130.974C106.823 131.043 106.771 131.102 106.706 131.144C106.642 131.185 106.566 131.206 106.489 131.206Z" fill="#F3F3F4"/>
<path d="M113.464 131.206C113.351 131.205 113.243 131.161 113.163 131.081C113.082 131.002 113.036 130.894 113.034 130.78C113.033 130.703 113.054 130.627 113.094 130.561L113.868 129.323L112.363 129.37C112.306 129.372 112.248 129.364 112.194 129.344C112.141 129.324 112.091 129.293 112.049 129.254C111.979 129.175 111.94 129.073 111.94 128.968C111.94 128.862 111.979 128.761 112.049 128.682C112.091 128.642 112.14 128.61 112.194 128.59C112.248 128.569 112.305 128.559 112.363 128.561L113.851 128.617L113.09 127.383C113.048 127.316 113.026 127.239 113.025 127.16C113.027 127.103 113.039 127.048 113.062 126.996C113.085 126.944 113.118 126.898 113.159 126.859C113.239 126.779 113.347 126.734 113.46 126.734C113.533 126.734 113.605 126.756 113.666 126.795C113.728 126.835 113.777 126.891 113.808 126.958L114.539 128.286L115.266 126.966C115.3 126.896 115.353 126.836 115.419 126.794C115.485 126.751 115.561 126.728 115.64 126.725C115.694 126.725 115.748 126.737 115.798 126.759C115.847 126.781 115.892 126.814 115.928 126.854C115.968 126.895 115.999 126.942 116.021 126.995C116.042 127.047 116.053 127.103 116.053 127.16C116.051 127.234 116.03 127.306 115.992 127.37L115.214 128.617L116.728 128.561C116.783 128.556 116.84 128.562 116.892 128.58C116.945 128.598 116.994 128.627 117.035 128.666C117.075 128.704 117.107 128.751 117.129 128.802C117.15 128.854 117.16 128.91 117.158 128.966C117.159 129.072 117.12 129.174 117.05 129.254C117.01 129.294 116.961 129.325 116.908 129.345C116.854 129.365 116.797 129.373 116.741 129.37L115.223 129.323L115.975 130.548C116.018 130.616 116.04 130.695 116.04 130.776C116.04 130.833 116.028 130.889 116.005 130.941C115.982 130.993 115.949 131.039 115.906 131.077C115.869 131.117 115.824 131.149 115.773 131.172C115.723 131.194 115.669 131.205 115.614 131.206C115.541 131.205 115.47 131.182 115.409 131.141C115.349 131.099 115.302 131.041 115.274 130.974L114.552 129.684L113.838 130.974C113.805 131.045 113.752 131.105 113.686 131.146C113.619 131.187 113.542 131.208 113.464 131.206Z" fill="#F3F3F4"/>
<path d="M120.439 131.206C120.326 131.205 120.218 131.161 120.138 131.081C120.071 131.014 120.029 130.926 120.017 130.832C120.005 130.738 120.025 130.643 120.073 130.561L120.843 129.323L119.338 129.37C119.28 129.372 119.223 129.364 119.169 129.344C119.115 129.324 119.066 129.293 119.024 129.254C118.954 129.175 118.915 129.073 118.915 128.968C118.915 128.862 118.954 128.761 119.024 128.682C119.065 128.642 119.115 128.61 119.169 128.59C119.223 128.569 119.28 128.559 119.338 128.561L120.826 128.617L120.06 127.383C120.019 127.316 119.996 127.239 119.996 127.16C119.997 127.046 120.044 126.938 120.125 126.859C120.205 126.779 120.313 126.734 120.426 126.734C120.499 126.734 120.571 126.756 120.632 126.795C120.694 126.835 120.743 126.891 120.774 126.958L121.505 128.286L122.232 126.966C122.266 126.896 122.319 126.836 122.385 126.794C122.451 126.751 122.527 126.728 122.606 126.725C122.661 126.725 122.715 126.736 122.766 126.759C122.816 126.781 122.861 126.813 122.898 126.854C122.977 126.936 123.02 127.046 123.019 127.16C123.017 127.234 122.996 127.306 122.958 127.37L122.18 128.617L123.694 128.561C123.749 128.556 123.806 128.562 123.858 128.58C123.911 128.598 123.96 128.627 124.001 128.666C124.041 128.704 124.073 128.751 124.095 128.802C124.116 128.854 124.126 128.91 124.124 128.966C124.125 129.072 124.086 129.174 124.016 129.254C123.976 129.294 123.927 129.325 123.874 129.345C123.82 129.365 123.763 129.373 123.707 129.37L122.189 129.323L122.941 130.548C122.984 130.616 123.006 130.695 123.006 130.776C123.006 130.833 122.994 130.889 122.971 130.941C122.948 130.993 122.915 131.039 122.872 131.077C122.835 131.117 122.79 131.149 122.739 131.172C122.689 131.194 122.635 131.205 122.58 131.206C122.507 131.205 122.436 131.182 122.375 131.141C122.315 131.099 122.268 131.041 122.24 130.974L121.518 129.684L120.804 130.974C120.772 131.043 120.72 131.102 120.655 131.144C120.591 131.185 120.515 131.206 120.439 131.206Z" fill="#F3F3F4"/>
<path d="M127.413 131.206C127.302 131.204 127.195 131.16 127.116 131.081C127.074 131.043 127.04 130.997 127.017 130.945C126.994 130.893 126.983 130.837 126.983 130.78C126.984 130.703 127.007 130.627 127.048 130.561L127.817 129.323L126.312 129.37C126.257 129.374 126.201 129.367 126.149 129.348C126.097 129.33 126.049 129.3 126.008 129.262C125.968 129.224 125.936 129.178 125.914 129.127C125.892 129.076 125.882 129.021 125.882 128.966C125.882 128.913 125.892 128.861 125.912 128.812C125.932 128.763 125.961 128.719 125.998 128.682C126.038 128.64 126.086 128.608 126.14 128.587C126.193 128.566 126.251 128.558 126.308 128.561L127.796 128.617L127.03 127.383C126.989 127.316 126.966 127.239 126.966 127.16C126.968 127.046 127.014 126.938 127.095 126.859C127.175 126.779 127.283 126.734 127.396 126.734C127.469 126.734 127.541 126.756 127.603 126.795C127.664 126.835 127.713 126.891 127.744 126.958L128.475 128.286L129.206 126.966C129.24 126.896 129.293 126.837 129.358 126.795C129.423 126.752 129.498 126.728 129.576 126.725C129.631 126.725 129.686 126.736 129.736 126.759C129.786 126.781 129.832 126.813 129.868 126.854C129.947 126.936 129.991 127.046 129.989 127.16C129.989 127.234 129.969 127.306 129.933 127.37L129.155 128.617L130.664 128.561C130.721 128.558 130.779 128.566 130.832 128.587C130.886 128.608 130.934 128.64 130.974 128.682C131.047 128.758 131.087 128.86 131.085 128.966C131.085 129.072 131.045 129.175 130.974 129.254C130.933 129.294 130.885 129.325 130.831 129.345C130.778 129.365 130.721 129.373 130.664 129.37L129.146 129.323L129.899 130.548C129.941 130.616 129.963 130.695 129.963 130.776C129.961 130.889 129.915 130.998 129.834 131.077C129.756 131.157 129.649 131.203 129.537 131.206C129.464 131.205 129.393 131.182 129.333 131.141C129.272 131.099 129.225 131.041 129.198 130.974L128.475 129.684L127.761 130.974C127.731 131.041 127.682 131.098 127.62 131.139C127.559 131.18 127.487 131.203 127.413 131.206Z" fill="#F3F3F4"/>
<g style="mix-blend-mode:multiply">
<path d="M149.107 44.0923H72.9883V48.861H149.107V44.0923Z" fill="#4040FF"/>
</g>
<path d="M119.325 35.3074H102.77C102.471 35.3074 102.185 35.1887 101.974 34.9774C101.762 34.7661 101.644 34.4796 101.644 34.1808C101.644 33.882 101.762 33.5955 101.974 33.3842C102.185 33.1729 102.471 33.0542 102.77 33.0542H119.325C119.624 33.0542 119.911 33.1729 120.122 33.3842C120.333 33.5955 120.452 33.882 120.452 34.1808C120.452 34.4796 120.333 34.7661 120.122 34.9774C119.911 35.1887 119.624 35.3074 119.325 35.3074Z" fill="#4040FF" stroke="#F3F3F4" stroke-width="1.33739" stroke-linecap="round" stroke-linejoin="round"/>
<path d="M115.563 174.038C115.564 173.145 115.299 172.271 114.804 171.528C114.308 170.785 113.603 170.206 112.778 169.864C111.952 169.521 111.044 169.432 110.168 169.606C109.292 169.78 108.487 170.21 107.855 170.841C107.223 171.473 106.793 172.278 106.619 173.154C106.445 174.03 106.535 174.939 106.877 175.764C107.219 176.589 107.799 177.294 108.542 177.79C109.285 178.286 110.159 178.55 111.052 178.549C112.248 178.548 113.395 178.072 114.24 177.227C115.086 176.381 115.562 175.234 115.563 174.038Z" fill="#4040FF"/>
<path d="M113.339 171.751H108.764V176.326H113.339V171.751Z" fill="#4040FF" stroke="#F3F3F4" stroke-width="1.33739" stroke-linecap="round" stroke-linejoin="round"/>
<path d="M165.55 122.12C165.55 122.12 159.556 106.889 164.892 105.079C170.448 103.191 170.203 113.249 169.988 118.151C169.536 128.626 168.379 130.574 167.515 128.015L165.55 122.12ZM163.748 134.001C165.395 136.151 165.86 133.923 162.888 123.866C161.495 119.136 158.468 109.568 153.824 113.159C149.365 116.599 159.977 129.069 159.977 129.069L163.748 134.001ZM160.566 142.73C162.136 144.123 162.166 142.364 158.438 135.102C156.688 131.7 152.985 124.816 149.954 128.222C147.043 131.507 156.963 139.492 156.963 139.492L160.566 142.73ZM157.126 153.11C158.696 154.508 158.726 152.745 154.998 145.486C153.248 142.085 149.545 135.196 146.514 138.606C143.62 141.9 153.51 149.885 153.51 149.885L157.126 153.11ZM167.059 131.98C164.548 132.96 166.543 134.027 177.031 133.997C181.95 133.997 191.995 133.773 189.854 128.308C187.802 123.057 172.864 129.744 172.864 129.744L167.059 131.98ZM164.2 138.963C161.542 139.423 163.288 140.868 173.574 142.923C178.394 143.891 188.28 145.675 187.269 139.913C186.302 134.358 170.332 137.944 170.332 137.944L164.2 138.963ZM161.001 147.49C158.739 147.817 160.184 149.077 168.831 151.055C172.886 151.983 181.206 153.725 180.484 148.81C179.796 144.08 166.208 146.755 166.208 146.755L161.001 147.49ZM158.571 155.389C156.357 155.952 157.926 157.053 166.741 158.102C170.869 158.593 179.327 159.444 178.093 154.632C176.902 150.014 163.675 154.103 163.675 154.103L158.571 155.389ZM171.531 123.41C170.241 126.3 172.92 125.861 182.028 117.915C186.293 114.186 194.85 106.386 188.073 102.503C181.567 98.771 174.571 116.779 174.571 116.779L171.531 123.41ZM158.906 165.679C157.543 166.474 158.881 166.784 165.133 165.537C168.065 164.957 174.03 163.667 172.013 161.121C170.061 158.67 162.063 163.83 162.063 163.83L158.906 165.679Z" fill="#4040FF"/>
<path opacity="0.3" d="M165.55 122.12C165.55 122.12 159.556 106.889 164.892 105.079C170.448 103.191 170.203 113.249 169.988 118.151C169.536 128.626 168.379 130.574 167.515 128.015L165.55 122.12ZM163.748 134.001C165.395 136.151 165.86 133.923 162.888 123.866C161.495 119.136 158.468 109.568 153.824 113.159C149.365 116.599 159.977 129.069 159.977 129.069L163.748 134.001ZM160.566 142.73C162.136 144.123 162.166 142.364 158.438 135.102C156.688 131.7 152.985 124.816 149.954 128.222C147.043 131.507 156.963 139.492 156.963 139.492L160.566 142.73ZM157.126 153.11C158.696 154.508 158.726 152.745 154.998 145.486C153.248 142.085 149.545 135.196 146.514 138.606C143.62 141.9 153.51 149.885 153.51 149.885L157.126 153.11ZM167.059 131.98C164.548 132.96 166.543 134.027 177.031 133.997C181.95 133.997 191.995 133.773 189.854 128.308C187.802 123.057 172.864 129.744 172.864 129.744L167.059 131.98ZM164.2 138.963C161.542 139.423 163.288 140.868 173.574 142.923C178.394 143.891 188.28 145.675 187.269 139.913C186.302 134.358 170.332 137.944 170.332 137.944L164.2 138.963ZM161.001 147.49C158.739 147.817 160.184 149.077 168.831 151.055C172.886 151.983 181.206 153.725 180.484 148.81C179.796 144.08 166.208 146.755 166.208 146.755L161.001 147.49ZM158.571 155.389C156.357 155.952 157.926 157.053 166.741 158.102C170.869 158.593 179.327 159.444 178.093 154.632C176.902 150.014 163.675 154.103 163.675 154.103L158.571 155.389ZM171.531 123.41C170.241 126.3 172.92 125.861 182.028 117.915C186.293 114.186 194.85 106.386 188.073 102.503C181.567 98.771 174.571 116.779 174.571 116.779L171.531 123.41ZM158.906 165.679C157.543 166.474 158.881 166.784 165.133 165.537C168.065 164.957 174.03 163.667 172.013 161.121C170.061 158.67 162.063 163.83 162.063 163.83L158.906 165.679Z" fill="white"/>
<path d="M168.194 129.211L167.149 111.826L168.194 129.211ZM164.888 134.947L158.283 119.996L164.888 134.947ZM181.933 130.6L166.105 132.87L181.933 130.6ZM161.465 143.005L152.895 132.01L161.465 143.005ZM162.97 139.634L174.778 140.227L162.97 139.634ZM160.175 148.066L169.205 148.961L160.175 148.066ZM157.995 153.424L153.51 146.677L157.995 153.424ZM157.479 155.806L168.095 155.905L157.479 155.806ZM155.329 175.724C155.4 175.718 155.466 175.685 155.513 175.631C155.559 175.577 155.583 175.507 155.578 175.436C154.903 165.296 158.825 148.69 165.116 135.059C169.136 126.347 184.896 109.224 185.063 109.052C185.114 109.002 185.142 108.933 185.142 108.861C185.142 108.789 185.114 108.72 185.063 108.67C185.038 108.645 185.009 108.625 184.976 108.611C184.944 108.598 184.909 108.591 184.874 108.591C184.839 108.591 184.804 108.598 184.772 108.611C184.739 108.625 184.71 108.645 184.685 108.67C184.526 108.842 168.702 126.029 164.647 134.818C158.24 148.78 154.37 165.086 155.058 175.47C155.063 175.539 155.094 175.603 155.144 175.649C155.194 175.696 155.26 175.723 155.329 175.724ZM168.19 129.477C168.261 129.473 168.328 129.441 168.375 129.387C168.423 129.334 168.447 129.265 168.444 129.193L167.416 111.8C167.414 111.765 167.406 111.73 167.39 111.698C167.375 111.666 167.354 111.637 167.327 111.614C167.301 111.59 167.27 111.572 167.237 111.56C167.203 111.549 167.168 111.544 167.132 111.546C167.061 111.551 166.995 111.583 166.947 111.636C166.9 111.689 166.875 111.759 166.879 111.83L167.923 129.215C167.927 129.283 167.956 129.348 168.006 129.395C168.056 129.442 168.121 129.469 168.19 129.469V129.477ZM164.982 135.192C165.047 135.163 165.097 135.11 165.123 135.044C165.149 134.978 165.147 134.904 165.12 134.839L158.511 119.888C158.482 119.823 158.429 119.772 158.363 119.746C158.297 119.721 158.223 119.722 158.158 119.751C158.093 119.779 158.042 119.832 158.016 119.899C157.99 119.965 157.992 120.038 158.021 120.103L164.625 135.054C164.646 135.102 164.68 135.143 164.724 135.172C164.767 135.201 164.818 135.217 164.87 135.218C164.915 135.22 164.959 135.211 164.999 135.192H164.982ZM166.126 133.128L181.946 130.866C181.984 130.865 182.022 130.857 182.056 130.84C182.091 130.824 182.121 130.8 182.146 130.771C182.171 130.742 182.189 130.708 182.2 130.672C182.211 130.635 182.214 130.596 182.208 130.559C182.203 130.521 182.19 130.484 182.17 130.452C182.15 130.42 182.123 130.392 182.091 130.37C182.059 130.349 182.024 130.335 181.986 130.328C181.948 130.322 181.91 130.323 181.873 130.333L166.053 132.595C165.982 132.599 165.916 132.632 165.869 132.685C165.823 132.738 165.799 132.808 165.804 132.879C165.808 132.949 165.841 133.015 165.894 133.062C165.947 133.109 166.017 133.133 166.087 133.128H166.126ZM161.615 143.22C161.671 143.176 161.708 143.111 161.717 143.041C161.726 142.97 161.706 142.898 161.663 142.842L153.088 131.825C153.044 131.768 152.98 131.731 152.908 131.722C152.837 131.712 152.765 131.732 152.708 131.776C152.651 131.82 152.614 131.884 152.604 131.956C152.595 132.027 152.614 132.099 152.658 132.156L161.25 143.19C161.275 143.222 161.307 143.248 161.343 143.266C161.38 143.284 161.42 143.293 161.461 143.293C161.525 143.29 161.586 143.264 161.633 143.22H161.615ZM175.014 140.24C175.016 140.169 174.991 140.1 174.942 140.048C174.894 139.995 174.827 139.964 174.756 139.961L162.97 139.363C162.904 139.368 162.841 139.396 162.795 139.444C162.748 139.491 162.721 139.554 162.718 139.62C162.715 139.687 162.736 139.752 162.778 139.803C162.819 139.855 162.879 139.89 162.944 139.9L174.752 140.498C174.823 140.501 174.892 140.475 174.944 140.427C174.997 140.378 175.028 140.311 175.031 140.24H175.014ZM169.454 148.986C169.458 148.951 169.455 148.915 169.445 148.881C169.436 148.847 169.419 148.815 169.396 148.787C169.374 148.76 169.346 148.737 169.315 148.72C169.283 148.703 169.249 148.693 169.213 148.69L160.183 147.8C160.148 147.796 160.113 147.799 160.079 147.81C160.046 147.82 160.014 147.837 159.987 147.859C159.96 147.881 159.937 147.909 159.921 147.94C159.904 147.971 159.894 148.005 159.891 148.04C159.885 148.111 159.907 148.181 159.952 148.236C159.997 148.29 160.061 148.325 160.132 148.333L169.162 149.227H169.188C169.257 149.232 169.325 149.209 169.378 149.165C169.432 149.12 169.465 149.056 169.471 148.986H169.454ZM158.124 153.648C158.183 153.608 158.225 153.547 158.24 153.477C158.254 153.406 158.24 153.333 158.201 153.273L153.738 146.527C153.697 146.469 153.635 146.429 153.565 146.415C153.496 146.401 153.423 146.415 153.364 146.454C153.304 146.493 153.262 146.555 153.248 146.625C153.233 146.695 153.247 146.768 153.286 146.828L157.75 153.574C157.775 153.611 157.809 153.642 157.849 153.663C157.889 153.683 157.933 153.695 157.978 153.695C158.036 153.698 158.093 153.681 158.141 153.648H158.124ZM168.366 155.905C168.365 155.834 168.337 155.767 168.287 155.716C168.238 155.666 168.17 155.636 168.1 155.634L157.483 155.535C157.412 155.535 157.344 155.563 157.294 155.613C157.245 155.663 157.216 155.731 157.216 155.802C157.215 155.837 157.221 155.873 157.234 155.906C157.247 155.939 157.267 155.969 157.292 155.995C157.317 156.02 157.346 156.04 157.379 156.053C157.412 156.067 157.447 156.073 157.483 156.073L168.1 156.172C168.136 156.173 168.172 156.168 168.206 156.155C168.24 156.143 168.272 156.123 168.298 156.099C168.325 156.074 168.346 156.044 168.36 156.01C168.375 155.977 168.383 155.941 168.384 155.905H168.366ZM154.12 171.781C154.142 171.733 155.952 166.745 161.396 165.554C161.466 165.539 161.527 165.496 161.566 165.436C161.605 165.375 161.618 165.302 161.602 165.232C161.585 165.163 161.542 165.104 161.482 165.066C161.422 165.028 161.349 165.015 161.28 165.03C155.539 166.285 153.635 171.553 153.613 171.604C153.591 171.672 153.596 171.746 153.627 171.81C153.659 171.875 153.714 171.924 153.781 171.948H153.867C153.924 171.953 153.981 171.94 154.03 171.909C154.079 171.879 154.117 171.834 154.138 171.781H154.12ZM155.329 175.724C155.4 175.718 155.466 175.685 155.513 175.631C155.559 175.577 155.583 175.507 155.578 175.436C154.903 165.296 158.825 148.69 165.116 135.059C169.136 126.347 184.896 109.224 185.063 109.052C185.114 109.002 185.142 108.933 185.142 108.861C185.142 108.789 185.114 108.72 185.063 108.67C185.038 108.645 185.009 108.625 184.976 108.611C184.944 108.598 184.909 108.591 184.874 108.591C184.839 108.591 184.804 108.598 184.772 108.611C184.739 108.625 184.71 108.645 184.685 108.67C184.526 108.842 168.702 126.029 164.647 134.818C158.24 148.78 154.37 165.086 155.058 175.47C155.063 175.539 155.094 175.603 155.144 175.649C155.194 175.696 155.26 175.723 155.329 175.724ZM168.19 129.477C168.261 129.473 168.328 129.441 168.375 129.387C168.423 129.334 168.447 129.265 168.444 129.193L167.416 111.8C167.414 111.765 167.406 111.73 167.39 111.698C167.375 111.666 167.354 111.637 167.327 111.614C167.301 111.59 167.27 111.572 167.237 111.56C167.203 111.549 167.168 111.544 167.132 111.546C167.061 111.551 166.995 111.583 166.947 111.636C166.9 111.689 166.875 111.759 166.879 111.83L167.923 129.215C167.927 129.283 167.956 129.348 168.006 129.395C168.056 129.442 168.121 129.469 168.19 129.469V129.477ZM164.982 135.192C165.047 135.163 165.097 135.11 165.123 135.044C165.149 134.978 165.147 134.904 165.12 134.839L158.511 119.888C158.482 119.823 158.429 119.772 158.363 119.746C158.297 119.721 158.223 119.722 158.158 119.751C158.093 119.779 158.042 119.832 158.016 119.899C157.99 119.965 157.992 120.038 158.021 120.103L164.625 135.054C164.646 135.102 164.68 135.143 164.724 135.172C164.767 135.201 164.818 135.217 164.87 135.218C164.915 135.22 164.959 135.211 164.999 135.192H164.982ZM166.126 133.128L181.946 130.866C181.984 130.865 182.022 130.857 182.056 130.84C182.091 130.824 182.121 130.8 182.146 130.771C182.171 130.742 182.189 130.708 182.2 130.672C182.211 130.635 182.214 130.596 182.208 130.559C182.203 130.521 182.19 130.484 182.17 130.452C182.15 130.42 182.123 130.392 182.091 130.37C182.059 130.349 182.024 130.335 181.986 130.328C181.948 130.322 181.91 130.323 181.873 130.333L166.053 132.595C165.982 132.599 165.916 132.632 165.869 132.685C165.823 132.738 165.799 132.808 165.804 132.879C165.808 132.949 165.841 133.015 165.894 133.062C165.947 133.109 166.017 133.133 166.087 133.128H166.126ZM161.615 143.22C161.671 143.176 161.708 143.111 161.717 143.041C161.726 142.97 161.706 142.898 161.663 142.842L153.088 131.825C153.067 131.797 153.04 131.773 153.009 131.755C152.978 131.738 152.944 131.726 152.908 131.722C152.873 131.717 152.837 131.719 152.803 131.729C152.768 131.738 152.736 131.754 152.708 131.776C152.68 131.797 152.656 131.824 152.638 131.855C152.62 131.886 152.609 131.92 152.604 131.956C152.6 131.991 152.602 132.027 152.611 132.061C152.621 132.096 152.637 132.128 152.658 132.156L161.25 143.19C161.275 143.222 161.307 143.248 161.343 143.266C161.38 143.284 161.42 143.293 161.461 143.293C161.525 143.29 161.586 143.264 161.633 143.22H161.615ZM175.014 140.24C175.016 140.169 174.991 140.1 174.942 140.048C174.894 139.995 174.827 139.964 174.756 139.961L162.97 139.363C162.904 139.368 162.841 139.396 162.795 139.444C162.748 139.491 162.721 139.554 162.718 139.62C162.715 139.687 162.736 139.752 162.778 139.803C162.819 139.855 162.879 139.89 162.944 139.9L174.752 140.498C174.823 140.501 174.892 140.475 174.944 140.427C174.997 140.378 175.028 140.311 175.031 140.24H175.014ZM169.454 148.986C169.458 148.951 169.455 148.915 169.445 148.881C169.436 148.847 169.419 148.815 169.396 148.787C169.374 148.76 169.346 148.737 169.315 148.72C169.283 148.703 169.249 148.693 169.213 148.69L160.183 147.8C160.148 147.796 160.113 147.799 160.079 147.81C160.046 147.82 160.014 147.837 159.987 147.859C159.96 147.881 159.937 147.909 159.921 147.94C159.904 147.971 159.894 148.005 159.891 148.04C159.885 148.111 159.907 148.181 159.952 148.236C159.997 148.29 160.061 148.325 160.132 148.333L169.162 149.227H169.188C169.257 149.232 169.325 149.209 169.378 149.165C169.432 149.12 169.465 149.056 169.471 148.986H169.454ZM158.124 153.648C158.183 153.608 158.225 153.547 158.24 153.477C158.254 153.406 158.24 153.333 158.201 153.273L153.738 146.527C153.697 146.469 153.635 146.429 153.565 146.415C153.496 146.401 153.423 146.415 153.364 146.454C153.304 146.493 153.262 146.555 153.248 146.625C153.233 146.695 153.247 146.768 153.286 146.828L157.75 153.574C157.775 153.611 157.809 153.642 157.849 153.663C157.889 153.683 157.933 153.695 157.978 153.695C158.036 153.698 158.093 153.681 158.141 153.648H158.124ZM168.366 155.905C168.365 155.834 168.337 155.767 168.287 155.716C168.238 155.666 168.17 155.636 168.1 155.634L157.483 155.535C157.412 155.535 157.344 155.563 157.294 155.613C157.245 155.663 157.216 155.731 157.216 155.802C157.215 155.837 157.221 155.873 157.234 155.906C157.247 155.939 157.267 155.969 157.292 155.995C157.317 156.02 157.346 156.04 157.379 156.053C157.412 156.067 157.447 156.073 157.483 156.073L168.1 156.172C168.136 156.173 168.172 156.168 168.206 156.155C168.24 156.143 168.272 156.123 168.298 156.099C168.325 156.074 168.346 156.044 168.36 156.01C168.375 155.977 168.383 155.941 168.384 155.905H168.366ZM154.12 171.781C154.142 171.733 155.952 166.745 161.396 165.554C161.466 165.539 161.527 165.496 161.566 165.436C161.605 165.375 161.618 165.302 161.602 165.232C161.585 165.163 161.542 165.104 161.482 165.066C161.422 165.028 161.349 165.015 161.28 165.03C155.539 166.285 153.635 171.553 153.613 171.604C153.591 171.672 153.596 171.746 153.627 171.81C153.659 171.875 153.714 171.924 153.781 171.948H153.867C153.924 171.953 153.981 171.94 154.03 171.909C154.079 171.879 154.117 171.834 154.138 171.781H154.12Z" fill="#4040FF"/>
<path opacity="0.2" d="M168.194 129.211L167.149 111.826L168.194 129.211ZM164.888 134.947L158.283 119.996L164.888 134.947ZM181.933 130.6L166.105 132.87L181.933 130.6ZM161.465 143.005L152.895 132.01L161.465 143.005ZM162.97 139.634L174.778 140.227L162.97 139.634ZM160.175 148.066L169.205 148.961L160.175 148.066ZM157.995 153.424L153.51 146.677L157.995 153.424ZM157.479 155.806L168.095 155.905L157.479 155.806ZM155.329 175.724C155.4 175.718 155.466 175.685 155.513 175.631C155.559 175.577 155.583 175.507 155.578 175.436C154.903 165.296 158.825 148.69 165.116 135.059C169.136 126.347 184.896 109.224 185.063 109.052C185.114 109.002 185.142 108.933 185.142 108.861C185.142 108.789 185.114 108.72 185.063 108.67C185.038 108.645 185.009 108.625 184.976 108.611C184.944 108.598 184.909 108.591 184.874 108.591C184.839 108.591 184.804 108.598 184.772 108.611C184.739 108.625 184.71 108.645 184.685 108.67C184.526 108.842 168.702 126.029 164.647 134.818C158.24 148.78 154.37 165.086 155.058 175.47C155.063 175.539 155.094 175.603 155.144 175.649C155.194 175.696 155.26 175.723 155.329 175.724ZM168.19 129.477C168.261 129.473 168.328 129.441 168.375 129.387C168.423 129.334 168.447 129.265 168.444 129.193L167.416 111.8C167.414 111.765 167.406 111.73 167.39 111.698C167.375 111.666 167.354 111.637 167.327 111.614C167.301 111.59 167.27 111.572 167.237 111.56C167.203 111.549 167.168 111.544 167.132 111.546C167.061 111.551 166.995 111.583 166.947 111.636C166.9 111.689 166.875 111.759 166.879 111.83L167.923 129.215C167.927 129.283 167.956 129.348 168.006 129.395C168.056 129.442 168.121 129.469 168.19 129.469V129.477ZM164.982 135.192C165.047 135.163 165.097 135.11 165.123 135.044C165.149 134.978 165.147 134.904 165.12 134.839L158.511 119.888C158.482 119.823 158.429 119.772 158.363 119.746C158.297 119.721 158.223 119.722 158.158 119.751C158.093 119.779 158.042 119.832 158.016 119.899C157.99 119.965 157.992 120.038 158.021 120.103L164.625 135.054C164.646 135.102 164.68 135.143 164.724 135.172C164.767 135.201 164.818 135.217 164.87 135.218C164.915 135.22 164.959 135.211 164.999 135.192H164.982ZM166.126 133.128L181.946 130.866C181.984 130.865 182.022 130.857 182.056 130.84C182.091 130.824 182.121 130.8 182.146 130.771C182.171 130.742 182.189 130.708 182.2 130.672C182.211 130.635 182.214 130.596 182.208 130.559C182.203 130.521 182.19 130.484 182.17 130.452C182.15 130.42 182.123 130.392 182.091 130.37C182.059 130.349 182.024 130.335 181.986 130.328C181.948 130.322 181.91 130.323 181.873 130.333L166.053 132.595C165.982 132.599 165.916 132.632 165.869 132.685C165.823 132.738 165.799 132.808 165.804 132.879C165.808 132.949 165.841 133.015 165.894 133.062C165.947 133.109 166.017 133.133 166.087 133.128H166.126ZM161.615 143.22C161.671 143.176 161.708 143.111 161.717 143.041C161.726 142.97 161.706 142.898 161.663 142.842L153.088 131.825C153.044 131.768 152.98 131.731 152.908 131.722C152.837 131.712 152.765 131.732 152.708 131.776C152.651 131.82 152.614 131.884 152.604 131.956C152.595 132.027 152.614 132.099 152.658 132.156L161.25 143.19C161.275 143.222 161.307 143.248 161.343 143.266C161.38 143.284 161.42 143.293 161.461 143.293C161.525 143.29 161.586 143.264 161.633 143.22H161.615ZM175.014 140.24C175.016 140.169 174.991 140.1 174.942 140.048C174.894 139.995 174.827 139.964 174.756 139.961L162.97 139.363C162.904 139.368 162.841 139.396 162.795 139.444C162.748 139.491 162.721 139.554 162.718 139.62C162.715 139.687 162.736 139.752 162.778 139.803C162.819 139.855 162.879 139.89 162.944 139.9L174.752 140.498C174.823 140.501 174.892 140.475 174.944 140.427C174.997 140.378 175.028 140.311 175.031 140.24H175.014ZM169.454 148.986C169.458 148.951 169.455 148.915 169.445 148.881C169.436 148.847 169.419 148.815 169.396 148.787C169.374 148.76 169.346 148.737 169.315 148.72C169.283 148.703 169.249 148.693 169.213 148.69L160.183 147.8C160.148 147.796 160.113 147.799 160.079 147.81C160.046 147.82 160.014 147.837 159.987 147.859C159.96 147.881 159.937 147.909 159.921 147.94C159.904 147.971 159.894 148.005 159.891 148.04C159.885 148.111 159.907 148.181 159.952 148.236C159.997 148.29 160.061 148.325 160.132 148.333L169.162 149.227H169.188C169.257 149.232 169.325 149.209 169.378 149.165C169.432 149.12 169.465 149.056 169.471 148.986H169.454ZM158.124 153.648C158.183 153.608 158.225 153.547 158.24 153.477C158.254 153.406 158.24 153.333 158.201 153.273L153.738 146.527C153.697 146.469 153.635 146.429 153.565 146.415C153.496 146.401 153.423 146.415 153.364 146.454C153.304 146.493 153.262 146.555 153.248 146.625C153.233 146.695 153.247 146.768 153.286 146.828L157.75 153.574C157.775 153.611 157.809 153.642 157.849 153.663C157.889 153.683 157.933 153.695 157.978 153.695C158.036 153.698 158.093 153.681 158.141 153.648H158.124ZM168.366 155.905C168.365 155.834 168.337 155.767 168.287 155.716C168.238 155.666 168.17 155.636 168.1 155.634L157.483 155.535C157.412 155.535 157.344 155.563 157.294 155.613C157.245 155.663 157.216 155.731 157.216 155.802C157.215 155.837 157.221 155.873 157.234 155.906C157.247 155.939 157.267 155.969 157.292 155.995C157.317 156.02 157.346 156.04 157.379 156.053C157.412 156.067 157.447 156.073 157.483 156.073L168.1 156.172C168.136 156.173 168.172 156.168 168.206 156.155C168.24 156.143 168.272 156.123 168.298 156.099C168.325 156.074 168.346 156.044 168.36 156.01C168.375 155.977 168.383 155.941 168.384 155.905H168.366ZM154.12 171.781C154.142 171.733 155.952 166.745 161.396 165.554C161.466 165.539 161.527 165.496 161.566 165.436C161.605 165.375 161.618 165.302 161.602 165.232C161.585 165.163 161.542 165.104 161.482 165.066C161.422 165.028 161.349 165.015 161.28 165.03C155.539 166.285 153.635 171.553 153.613 171.604C153.591 171.672 153.596 171.746 153.627 171.81C153.659 171.875 153.714 171.924 153.781 171.948H153.867C153.924 171.953 153.981 171.94 154.03 171.909C154.079 171.879 154.117 171.834 154.138 171.781H154.12ZM155.329 175.724C155.4 175.718 155.466 175.685 155.513 175.631C155.559 175.577 155.583 175.507 155.578 175.436C154.903 165.296 158.825 148.69 165.116 135.059C169.136 126.347 184.896 109.224 185.063 109.052C185.114 109.002 185.142 108.933 185.142 108.861C185.142 108.789 185.114 108.72 185.063 108.67C185.038 108.645 185.009 108.625 184.976 108.611C184.944 108.598 184.909 108.591 184.874 108.591C184.839 108.591 184.804 108.598 184.772 108.611C184.739 108.625 184.71 108.645 184.685 108.67C184.526 108.842 168.702 126.029 164.647 134.818C158.24 148.78 154.37 165.086 155.058 175.47C155.063 175.539 155.094 175.603 155.144 175.649C155.194 175.696 155.26 175.723 155.329 175.724ZM168.19 129.477C168.261 129.473 168.328 129.441 168.375 129.387C168.423 129.334 168.447 129.265 168.444 129.193L167.416 111.8C167.414 111.765 167.406 111.73 167.39 111.698C167.375 111.666 167.354 111.637 167.327 111.614C167.301 111.59 167.27 111.572 167.237 111.56C167.203 111.549 167.168 111.544 167.132 111.546C167.061 111.551 166.995 111.583 166.947 111.636C166.9 111.689 166.875 111.759 166.879 111.83L167.923 129.215C167.927 129.283 167.956 129.348 168.006 129.395C168.056 129.442 168.121 129.469 168.19 129.469V129.477ZM164.982 135.192C165.047 135.163 165.097 135.11 165.123 135.044C165.149 134.978 165.147 134.904 165.12 134.839L158.511 119.888C158.482 119.823 158.429 119.772 158.363 119.746C158.297 119.721 158.223 119.722 158.158 119.751C158.093 119.779 158.042 119.832 158.016 119.899C157.99 119.965 157.992 120.038 158.021 120.103L164.625 135.054C164.646 135.102 164.68 135.143 164.724 135.172C164.767 135.201 164.818 135.217 164.87 135.218C164.915 135.22 164.959 135.211 164.999 135.192H164.982ZM166.126 133.128L181.946 130.866C181.984 130.865 182.022 130.857 182.056 130.84C182.091 130.824 182.121 130.8 182.146 130.771C182.171 130.742 182.189 130.708 182.2 130.672C182.211 130.635 182.214 130.596 182.208 130.559C182.203 130.521 182.19 130.484 182.17 130.452C182.15 130.42 182.123 130.392 182.091 130.37C182.059 130.349 182.024 130.335 181.986 130.328C181.948 130.322 181.91 130.323 181.873 130.333L166.053 132.595C165.982 132.599 165.916 132.632 165.869 132.685C165.823 132.738 165.799 132.808 165.804 132.879C165.808 132.949 165.841 133.015 165.894 133.062C165.947 133.109 166.017 133.133 166.087 133.128H166.126ZM161.615 143.22C161.671 143.176 161.708 143.111 161.717 143.041C161.726 142.97 161.706 142.898 161.663 142.842L153.088 131.825C153.067 131.797 153.04 131.773 153.009 131.755C152.978 131.738 152.944 131.726 152.908 131.722C152.873 131.717 152.837 131.719 152.803 131.729C152.768 131.738 152.736 131.754 152.708 131.776C152.68 131.797 152.656 131.824 152.638 131.855C152.62 131.886 152.609 131.92 152.604 131.956C152.6 131.991 152.602 132.027 152.611 132.061C152.621 132.096 152.637 132.128 152.658 132.156L161.25 143.19C161.275 143.222 161.307 143.248 161.343 143.266C161.38 143.284 161.42 143.293 161.461 143.293C161.525 143.29 161.586 143.264 161.633 143.22H161.615ZM175.014 140.24C175.016 140.169 174.991 140.1 174.942 140.048C174.894 139.995 174.827 139.964 174.756 139.961L162.97 139.363C162.904 139.368 162.841 139.396 162.795 139.444C162.748 139.491 162.721 139.554 162.718 139.62C162.715 139.687 162.736 139.752 162.778 139.803C162.819 139.855 162.879 139.89 162.944 139.9L174.752 140.498C174.823 140.501 174.892 140.475 174.944 140.427C174.997 140.378 175.028 140.311 175.031 140.24H175.014ZM169.454 148.986C169.458 148.951 169.455 148.915 169.445 148.881C169.436 148.847 169.419 148.815 169.396 148.787C169.374 148.76 169.346 148.737 169.315 148.72C169.283 148.703 169.249 148.693 169.213 148.69L160.183 147.8C160.148 147.796 160.113 147.799 160.079 147.81C160.046 147.82 160.014 147.837 159.987 147.859C159.96 147.881 159.937 147.909 159.921 147.94C159.904 147.971 159.894 148.005 159.891 148.04C159.885 148.111 159.907 148.181 159.952 148.236C159.997 148.29 160.061 148.325 160.132 148.333L169.162 149.227H169.188C169.257 149.232 169.325 149.209 169.378 149.165C169.432 149.12 169.465 149.056 169.471 148.986H169.454ZM158.124 153.648C158.183 153.608 158.225 153.547 158.24 153.477C158.254 153.406 158.24 153.333 158.201 153.273L153.738 146.527C153.697 146.469 153.635 146.429 153.565 146.415C153.496 146.401 153.423 146.415 153.364 146.454C153.304 146.493 153.262 146.555 153.248 146.625C153.233 146.695 153.247 146.768 153.286 146.828L157.75 153.574C157.775 153.611 157.809 153.642 157.849 153.663C157.889 153.683 157.933 153.695 157.978 153.695C158.036 153.698 158.093 153.681 158.141 153.648H158.124ZM168.366 155.905C168.365 155.834 168.337 155.767 168.287 155.716C168.238 155.666 168.17 155.636 168.1 155.634L157.483 155.535C157.412 155.535 157.344 155.563 157.294 155.613C157.245 155.663 157.216 155.731 157.216 155.802C157.215 155.837 157.221 155.873 157.234 155.906C157.247 155.939 157.267 155.969 157.292 155.995C157.317 156.02 157.346 156.04 157.379 156.053C157.412 156.067 157.447 156.073 157.483 156.073L168.1 156.172C168.136 156.173 168.172 156.168 168.206 156.155C168.24 156.143 168.272 156.123 168.298 156.099C168.325 156.074 168.346 156.044 168.36 156.01C168.375 155.977 168.383 155.941 168.384 155.905H168.366ZM154.12 171.781C154.142 171.733 155.952 166.745 161.396 165.554C161.466 165.539 161.527 165.496 161.566 165.436C161.605 165.375 161.618 165.302 161.602 165.232C161.585 165.163 161.542 165.104 161.482 165.066C161.422 165.028 161.349 165.015 161.28 165.03C155.539 166.285 153.635 171.553 153.613 171.604C153.591 171.672 153.596 171.746 153.627 171.81C153.659 171.875 153.714 171.924 153.781 171.948H153.867C153.924 171.953 153.981 171.94 154.03 171.909C154.079 171.879 154.117 171.834 154.138 171.781H154.12Z" fill="black"/>
<path d="M162.351 168.143H150.177V170.663H151.239L153.437 184.41H159.091L161.288 170.663H162.351V168.143Z" fill="#4040FF"/>
<path opacity="0.3" d="M162.351 168.143H150.177V170.663H151.239L153.437 184.41H159.091L161.288 170.663H162.351V168.143Z" fill="white"/>
<path d="M52.7521 91.947L38.5922 87.3245L37.3323 83.9963L34.4556 83.906L29.2354 82.917L29.8632 83.9963L36.4336 88.765L38.0547 89.5734L52.8639 97.3091L52.7521 91.947Z" fill="white" stroke="#263238" stroke-width="1.00396" stroke-miterlimit="10"/>
<path d="M37.3324 83.9964L35.9822 83.188L33.2861 84.177L33.7333 84.7145L37.3324 83.9964Z" fill="white" stroke="#263238" stroke-width="1.00396" stroke-linejoin="round"/>
<path d="M52.7521 91.947L38.5922 87.3245L37.3323 83.9963L34.4556 83.906L29.2354 82.917L29.8632 83.9963L36.4336 88.765L38.0547 89.5734L52.8639 97.3091L52.7521 91.947Z" fill="white"/>
<mask id="mask0_820_44475" style="mask-type:luminance" maskUnits="userSpaceOnUse" x="29" y="82" width="24" height="16">
<path d="M52.7521 91.947L38.5922 87.3245L37.3323 83.9963L34.4556 83.906L29.2354 82.917L29.8632 83.9963L36.4336 88.765L38.0547 89.5734L52.8639 97.3091L52.7521 91.947Z" fill="white"/>
</mask>
<g mask="url(#mask0_820_44475)">
<path opacity="0.5" d="M52.7521 91.947L38.5922 87.3245L37.3323 83.9963L34.4556 83.906L29.2354 82.917L29.8632 83.9963L36.4336 88.765L38.0547 89.5734L52.8639 97.3091L52.7521 91.947Z" fill="#4040FF" stroke="#263238" stroke-width="1.00396" stroke-miterlimit="10"/>
</g>
<path d="M52.7521 91.947L38.5922 87.3245L37.3323 83.9963L34.4556 83.906L29.2354 82.917L29.8632 83.9963L36.4336 88.765L38.0547 89.5734L52.8639 97.3091L52.7521 91.947Z" stroke="#263238" stroke-width="1.00396" stroke-miterlimit="10"/>
<path d="M37.3324 83.9964L35.9822 83.188L33.2861 84.177L33.7333 84.7145L37.3324 83.9964Z" fill="white"/>
<mask id="mask1_820_44475" style="mask-type:luminance" maskUnits="userSpaceOnUse" x="33" y="83" width="5" height="2">
<path d="M37.3324 83.9964L35.9822 83.188L33.2861 84.177L33.7333 84.7145L37.3324 83.9964Z" fill="white"/>
</mask>
<g mask="url(#mask1_820_44475)">
<path opacity="0.5" d="M37.3324 83.9964L35.9822 83.188L33.2861 84.177L33.7333 84.7145L37.3324 83.9964Z" fill="#4040FF" stroke="#263238" stroke-width="1.00396" stroke-linejoin="round"/>
</g>
<path d="M37.3324 83.9964L35.9822 83.188L33.2861 84.177L33.7333 84.7145L37.3324 83.9964Z" stroke="#263238" stroke-width="1.00396" stroke-linejoin="round"/>
<path d="M55.7579 61.9458C55.7579 61.9458 55.5386 63.8808 56.0847 65.1235C56.6308 66.3662 59.6623 70.5759 59.6623 70.5759L54.0035 75.1124C54.0035 75.1124 51.6557 70.3824 51.2085 69.617C50.7613 68.8516 50.2238 65.5578 51.6815 63.1971C53.1392 60.8364 55.2376 60.2 55.7579 61.9458Z" fill="white"/>
<mask id="mask2_820_44475" style="mask-type:luminance" maskUnits="userSpaceOnUse" x="50" y="60" width="10" height="16">
<path d="M55.7579 61.9458C55.7579 61.9458 55.5386 63.8808 56.0847 65.1235C56.6308 66.3662 59.6623 70.5759 59.6623 70.5759L54.0035 75.1124C54.0035 75.1124 51.6557 70.3824 51.2085 69.617C50.7613 68.8516 50.2238 65.5578 51.6815 63.1971C53.1392 60.8364 55.2376 60.2 55.7579 61.9458Z" fill="white"/>
</mask>
<g mask="url(#mask2_820_44475)">
<g style="mix-blend-mode:multiply" opacity="0.5">
<path d="M52.8514 68.1636L55.3066 73.2548L53.9995 75.1167L51.5312 70.7092L52.8514 68.1636Z" fill="#4040FF"/>
</g>
</g>
<path d="M55.7579 61.9458C55.7579 61.9458 55.5386 63.8808 56.0847 65.1235C56.6308 66.3662 59.6623 70.5759 59.6623 70.5759L54.0035 75.1124C54.0035 75.1124 51.6557 70.3824 51.2085 69.617C50.7613 68.8516 50.2238 65.5578 51.6815 63.1971C53.1392 60.8364 55.2376 60.2 55.7579 61.9458Z" stroke="#263238" stroke-width="1.00396" stroke-miterlimit="10"/>
<path d="M57.5122 58.4028C57.1639 56.2528 54.7 51.8797 50.7913 52.0474C48.2543 52.1592 47.0675 52.6709 45.9667 53.2944C45.0694 53.8231 44.233 54.4489 43.4727 55.1606C41.5635 57.4525 40.8927 58.0803 41.2625 59.8347C41.2322 60.5345 41.3418 61.2333 41.585 61.8901C42.1698 63.451 42.5697 64.4701 43.0771 65.214C42.9223 65.9407 42.5181 67.8585 42.4966 68.2971C42.4751 68.7357 43.7866 68.4304 44.4488 68.2627C45.6786 71.0147 47.9318 72.9239 48.6327 73.1432C49.8539 73.5259 51.7846 71.5178 52.808 69.9612C53.8314 68.4046 53.0574 66.6545 53.0617 65.9579C53.066 65.2613 55.3622 63.7305 56.2136 63.2446C57.065 62.7587 57.8562 60.5485 57.5122 58.4028Z" fill="white"/>
<mask id="mask3_820_44475" style="mask-type:luminance" maskUnits="userSpaceOnUse" x="41" y="52" width="17" height="22">
<path d="M57.5122 58.4028C57.1639 56.2528 54.7 51.8797 50.7913 52.0474C48.2543 52.1592 47.0675 52.6709 45.9667 53.2944C45.0694 53.8231 44.233 54.4489 43.4727 55.1606C41.5635 57.4525 40.8927 58.0803 41.2625 59.8347C41.2322 60.5345 41.3418 61.2333 41.585 61.8901C42.1698 63.451 42.5697 64.4701 43.0771 65.214C42.9223 65.9407 42.5181 67.8585 42.4966 68.2971C42.4751 68.7357 43.7866 68.4304 44.4488 68.2627C45.6786 71.0147 47.9318 72.9239 48.6327 73.1432C49.8539 73.5259 51.7846 71.5178 52.808 69.9612C53.8314 68.4046 53.0574 66.6545 53.0617 65.9579C53.066 65.2613 55.3622 63.7305 56.2136 63.2446C57.065 62.7587 57.8562 60.5485 57.5122 58.4028Z" fill="white"/>
</mask>
<g mask="url(#mask3_820_44475)">
<g style="mix-blend-mode:multiply" opacity="0.5">
<path d="M41.2795 59.8347C41.2492 60.5344 41.3588 61.2332 41.602 61.8901C42.1868 63.451 42.5867 64.4701 43.0941 65.214C42.9393 65.9407 42.5351 67.8585 42.5136 68.2971C42.4921 68.7357 43.8036 68.4304 44.4658 68.2627C45.6956 71.0147 47.9488 72.9239 48.6497 73.1432C49.8709 73.5259 51.8016 71.5178 52.825 69.9612C53.0807 69.5725 53.2467 69.1319 53.3109 68.6712C53.255 68.4691 53.2163 68.3444 53.2163 68.3444C53.2163 68.3444 52.6401 70.5589 51.4963 70.2708C50.3525 69.9827 48.6024 67.6908 47.6263 66.8996C46.6502 66.1084 47.0501 65.0678 46.8566 63.8896C46.6631 62.7114 43.7735 61.6751 43.58 61C43.3865 60.3249 44.0616 57.5299 44.0616 57.5299C44.0616 57.5299 45.1581 56.0679 44.9216 56.6699C44.7545 57.1918 44.6939 57.7421 44.7433 58.2879C44.7928 58.8338 44.9514 59.3641 45.2097 59.8476C45.391 60.229 45.6785 60.55 46.0378 60.772C46.3971 60.9939 46.8128 61.1074 47.235 61.0989L48.2842 55.9002L46.0697 54.0684L43.4897 55.1434C41.5633 57.4525 40.9054 58.0803 41.2795 59.8347Z" fill="#4040FF"/>
</g>
</g>
<path d="M57.5122 58.4028C57.1639 56.2528 54.7 51.8797 50.7913 52.0474C48.2543 52.1592 47.0675 52.6709 45.9667 53.2944C45.0694 53.8231 44.233 54.4489 43.4727 55.1606C41.5635 57.4525 40.8927 58.0803 41.2625 59.8347C41.2322 60.5345 41.3418 61.2333 41.585 61.8901C42.1698 63.451 42.5697 64.4701 43.0771 65.214C42.9223 65.9407 42.5181 67.8585 42.4966 68.2971C42.4751 68.7357 43.7866 68.4304 44.4488 68.2627C45.6786 71.0147 47.9318 72.9239 48.6327 73.1432C49.8539 73.5259 51.7846 71.5178 52.808 69.9612C53.8314 68.4046 53.0574 66.6545 53.0617 65.9579C53.066 65.2613 55.3622 63.7305 56.2136 63.2446C57.065 62.7587 57.8562 60.5485 57.5122 58.4028Z" stroke="#263238" stroke-miterlimit="10"/>
<path d="M43.6104 63.9153L44.0404 65.1451C44.0404 65.1451 44.9649 65.4504 46.0915 64.2206" stroke="#263238" stroke-miterlimit="10" stroke-linecap="round"/>
<path d="M46.7881 69.66C46.7881 69.66 47.8115 69.5568 48.2243 68.1206" stroke="#263238" stroke-miterlimit="10" stroke-linecap="round"/>
<path d="M42.8921 62.8876C42.8921 62.8876 43.1974 61.9631 45.0421 61.9631" stroke="#263238" stroke-miterlimit="10" stroke-linecap="round"/>
<path d="M52.348 50.3359C51.0076 50.1432 49.6559 50.0397 48.3017 50.0263C48.3017 50.0263 44.2511 47.6914 40.3596 50.1811C36.4681 52.6708 38.3386 57.031 38.3386 58.1189C38.3386 59.2068 37.0916 59.2111 37.8699 60.6129C38.6482 62.0147 41.2798 61.2407 41.2798 61.2407C41.3076 60.712 41.4473 60.1952 41.6897 59.7245C41.9321 59.2538 42.2717 58.8399 42.6859 58.5102C44.0877 57.4223 45.2057 57.1858 45.6701 57.4997C45.6701 57.4997 45.3605 59.8346 45.8249 60.7677C45.8249 60.7677 47.3815 61.546 47.8502 61.546C48.3189 61.546 47.5449 62.2039 49.0972 62.7887C49.38 62.8903 49.6825 62.9249 49.981 62.8898C50.2794 62.8547 50.5657 62.751 50.8172 62.5866C51.0451 61.6406 51.5439 60.2173 52.4727 60.5484C53.8358 61.0343 55.0785 64.3883 53.2338 65.5321C55.4526 65.9363 58.1401 62.0104 58.2992 58.4328C58.4583 54.8552 54.6528 50.7401 52.348 50.3359Z" fill="#263238"/>
<path d="M45.7388 55.9646C45.7388 55.9646 46.8826 55.3497 48.2844 56.6655C49.6862 57.9813 52.4124 59.74 56.0244 58.7725" stroke="white" stroke-width="0.5" stroke-linecap="round" stroke-linejoin="round"/>
<path d="M45.5796 54.9112C45.5796 54.9112 46.3665 53.6814 47.6823 53.6814C48.9981 53.6814 52.0726 55.5261 54.5279 55.5261" stroke="white" stroke-width="0.5" stroke-linecap="round" stroke-linejoin="round"/>
<path d="M44.6852 57.2804C44.6852 57.2804 43.1931 55.44 41.7913 56.9321C40.3895 58.4242 41.2796 59.8346 41.2796 59.8346" stroke="white" stroke-width="0.5" stroke-linecap="round" stroke-linejoin="round"/>
<path d="M38.7212 58.5103C39.5762 57.7392 40.1078 56.673 40.209 55.5261C40.3853 53.5954 43.0212 51.927 44.6853 53.5094" stroke="white" stroke-width="0.5" stroke-linecap="round" stroke-linejoin="round"/>
<path d="M41.439 51.4882C41.439 51.4882 44.0749 48.9426 46.2679 52.1891" stroke="white" stroke-width="0.5" stroke-linecap="round" stroke-linejoin="round"/>
<path d="M62.8914 176.648C62.8914 176.648 64.5125 179.168 64.3319 180.789L64.1556 182.41C64.1556 182.41 58.2087 184.04 56.9488 184.04C55.6889 184.04 49.0196 183.408 49.0196 183.408L48.7315 182.264C48.7114 182.18 48.7209 182.091 48.7585 182.013C48.796 181.934 48.8594 181.871 48.9379 181.834L54.8848 179.061L56.7596 177.01L62.8914 176.648Z" fill="white" stroke="#263238" stroke-width="1.00396" stroke-miterlimit="10"/>
<path d="M57.8521 182.772C59.4646 182.896 62.5262 181.912 64.3021 181.284L64.1774 182.411C64.1774 182.411 58.209 184.04 56.9491 184.04C55.6892 184.04 49.0199 183.408 49.0199 183.408L48.8135 182.591C49.8799 182.595 55.7193 182.608 57.8521 182.772Z" fill="#4040FF" stroke="#263238" stroke-width="1.00396" stroke-miterlimit="10"/>
<path d="M54.8938 179.061L46.2379 182.827C46.2379 182.827 45.4983 184.681 46.2379 185.051C46.9775 185.42 63.1025 185.051 63.1025 185.051C63.1025 185.051 64.2162 182.122 62.4575 180.157C60.6988 178.192 54.8938 179.061 54.8938 179.061Z" fill="white" stroke="#263238" stroke-width="1.00396" stroke-miterlimit="10"/>
<path d="M63.1022 185.051C63.1022 185.051 46.9772 185.42 46.2376 185.051C45.8807 184.87 45.8678 184.35 45.9495 183.855H63.386C63.329 184.262 63.234 184.662 63.1022 185.051Z" fill="#4040FF" stroke="#263238" stroke-width="1.00396" stroke-miterlimit="10"/>
<path d="M50.8001 113.61C50.8001 113.61 48.5383 123.634 47.6826 129.903C46.8269 136.173 46.3238 148.733 46.5044 150.173C46.685 151.614 55.6892 175.75 55.6892 175.75L56.5879 177.9L62.8917 176.64C62.8917 176.64 60.0107 167.455 58.9314 162.411C57.8521 157.367 55.4914 149.081 55.4914 147.641C55.4914 146.2 61.0814 118.689 61.4813 116.883C61.8812 115.077 63.6958 112.303 63.6958 112.303L51.6257 112.058L50.8001 113.61Z" fill="#4040FF" stroke="#263238" stroke-width="1.00396" stroke-miterlimit="10"/>
<path d="M50.8 113.61C50.8 113.61 49.4756 122.765 50.0217 129.129C50.5678 135.493 51.7417 149.042 51.7417 151.059C51.7417 153.076 54.9968 165.12 55.1817 168.904C55.4698 174.369 55.0656 177.074 55.0656 177.074L54.8721 179.056C54.8721 179.056 58.669 179.598 59.4989 179.835C60.4574 180.082 61.4466 180.189 62.4358 180.153C62.4358 180.153 63.8161 174.077 63.8161 168.9C63.8161 163.723 62.668 153.067 62.0961 148.75C61.5242 144.433 63.3259 127.779 64.3493 124.67C65.3727 121.561 67.6087 114.978 66.1037 111.615C64.5987 108.253 50.8 113.61 50.8 113.61Z" fill="#4040FF" stroke="#263238" stroke-width="1.00396" stroke-miterlimit="10"/>
<path d="M67.7766 109.93L67.639 114.023C67.639 114.023 65.188 114.509 61.8856 115.081C59.1594 115.554 52.3138 114.956 50.009 114.733C49.799 114.714 49.6048 114.613 49.4687 114.452C49.3326 114.291 49.2656 114.083 49.2823 113.873L49.5059 110.175L67.7766 109.93Z" fill="#263238"/>
<path d="M58.1958 69.1226C58.1958 69.1226 54.3258 73.3065 52.8681 75.908C51.4104 78.5095 50.8342 82.4956 50.2881 85.6346C49.742 88.7736 51.2212 96.1438 50.8041 99.5279L49.484 110.188C49.484 110.188 49.2002 110.91 50.1505 111.701C51.1008 112.492 55.7405 112.78 59.933 112.991C61.4638 113.069 66.0347 112.084 66.7829 112.037C67.6859 111.981 67.716 110.833 67.7547 109.93C67.9353 105.685 68.7007 94.3722 69.2038 89.4444C70.2401 79.3953 64.5684 69.6945 58.1958 69.1226Z" fill="white" stroke="#263238" stroke-width="1.00396" stroke-miterlimit="10"/>
<g style="mix-blend-mode:multiply">
<path d="M68.7308 95.1592C68.9028 92.9275 69.0749 90.9022 69.2254 89.4445C69.2684 89.0145 69.2941 88.5845 69.3156 88.1545L59.0343 89.8745L50.2021 86.8645C50.2031 88.6921 50.3065 90.5181 50.5117 92.3341L59.1762 94.7593L68.7308 95.1592Z" fill="#4040FF"/>
</g>
<g style="mix-blend-mode:multiply">
<path d="M57.8133 69.5439C57.2285 70.1932 56.0675 71.5134 54.9624 72.9151L61.4898 79.55L63.6398 78.69L57.8133 69.5439Z" fill="#4040FF"/>
</g>
<path d="M58.1958 69.1226C58.1958 69.1226 54.3258 73.3065 52.8681 75.908C52.4359 76.6986 52.0858 77.5314 51.8232 78.3934L59.6062 69.4021C59.1464 69.2628 58.674 69.1692 58.1958 69.1226Z" fill="#263238"/>
<g style="mix-blend-mode:multiply">
<path d="M50.5894 83.9404L59.0346 86.7182L69.2901 85.54C69.1293 82.9852 68.5617 80.4725 67.6088 78.0967L59.3399 81.412L51.9482 78.0623C51.3437 79.9835 50.8894 81.9488 50.5894 83.9404Z" fill="#4040FF"/>
</g>
<g style="mix-blend-mode:multiply">
<path d="M65.1278 105.685C60.8444 106.405 56.4494 106.045 52.3396 104.641L50.2799 103.935L49.6392 109.095L51.987 109.753C56.4502 111.001 61.1151 111.36 65.7169 110.811L67.6132 110.583C67.7118 110.374 67.7674 110.147 67.7766 109.917C67.8282 108.768 67.9185 107.1 68.0346 105.187L65.1278 105.685Z" fill="#4040FF"/>
</g>
<g style="mix-blend-mode:multiply">
<path d="M66.2757 98.6593C61.9922 99.3813 57.5961 99.0207 53.4875 97.6101L50.8645 96.7114C50.9296 97.6483 50.9166 98.5889 50.8258 99.5236L50.5205 102.005L53.1349 102.736C57.5965 103.985 62.2599 104.346 66.8605 103.798L68.1505 103.643C68.258 101.923 68.3827 100.091 68.516 98.2809L66.2757 98.6593Z" fill="#4040FF"/>
</g>
<path d="M25.9338 80.4754L34.248 87.1602L34.6064 86.7145L26.2922 80.0297L25.9338 80.4754Z" fill="#263238"/>
<path d="M62.1994 73.7622C62.1994 73.7622 65.2481 75.8391 65.3169 80.7454C65.347 82.8954 65.1234 84.9035 64.6289 88.4252C64.1344 91.9469 61.0642 103.415 58.6734 104.808C56.2826 106.201 52.5717 103.57 52.5717 103.57L34.6235 91.6545L30.2848 88.15L28.1348 84.0908L28.8099 82.8008L34.1032 86.86L31.2523 84.2241L31.8113 83.5146L32.8433 84.2327L35.8533 85.3593L36.5112 89.6593L37.44 90.2957L54.6099 96.5694C54.6099 96.5694 54.3949 87.3287 54.554 85.5614C54.7131 83.7941 54.9324 79.3522 56.8244 76.1315" fill="white"/>
<mask id="mask4_820_44475" style="mask-type:luminance" maskUnits="userSpaceOnUse" x="28" y="73" width="38" height="33">
<path d="M62.1994 73.7622C62.1994 73.7622 65.2481 75.8391 65.3169 80.7454C65.347 82.8954 65.1234 84.9035 64.6289 88.4252C64.1344 91.9469 61.0642 103.415 58.6734 104.808C56.2826 106.201 52.5717 103.57 52.5717 103.57L34.6235 91.6545L30.2848 88.15L28.1348 84.0908L28.8099 82.8008L34.1032 86.86L31.2523 84.2241L31.8113 83.5146L32.8433 84.2327L35.8533 85.3593L36.5112 89.6593L37.44 90.2957L54.6099 96.5694C54.6099 96.5694 54.3949 87.3287 54.554 85.5614C54.7131 83.7941 54.9324 79.3522 56.8244 76.1315" fill="white"/>
</mask>
<g mask="url(#mask4_820_44475)">
<g style="mix-blend-mode:multiply" opacity="0.5">
<path d="M54.4892 89.5862C54.4892 92.7768 54.5967 96.5694 54.5967 96.5694L37.444 90.3215L36.5152 89.6851L35.8573 85.3851L32.8473 84.2585L31.8196 83.5275L31.2606 84.237L34.1029 86.86L28.8096 82.8008L28.1689 84.0693L30.3189 88.1285L34.6576 91.6545L35.7498 92.3812L59.4643 100.022L54.4892 89.5862Z" fill="#4040FF"/>
</g>
</g>
<path d="M62.1994 73.7622C62.1994 73.7622 65.2481 75.8391 65.3169 80.7454C65.347 82.8954 65.1234 84.9035 64.6289 88.4252C64.1344 91.9469 61.0642 103.415 58.6734 104.808C56.2826 106.201 52.5717 103.57 52.5717 103.57L34.6235 91.6545L30.2848 88.15L28.1348 84.0908L28.8099 82.8008L34.1032 86.86L31.2523 84.2241L31.8113 83.5146L32.8433 84.2327L35.8533 85.3593L36.5112 89.6593L37.44 90.2957L54.6099 96.5694C54.6099 96.5694 54.3949 87.3287 54.554 85.5614C54.7131 83.7941 54.9324 79.3522 56.8244 76.1315" stroke="#263238" stroke-width="1.00396" stroke-miterlimit="10"/>
<path d="M54.61 96.5694L61.1632 101.299L62.8617 98.2894C62.8617 98.2894 64.0356 97.3649 64.2076 96.6683C64.3796 95.9717 64.1603 94.8408 64.3366 94.1442C64.5129 93.4476 65.3901 92.794 65.4718 91.1084C65.5535 89.4228 65.4718 88.0167 65.4718 88.0167C65.4718 88.0167 66.8908 82.1816 66.736 79.6446C66.5812 77.1076 64.1345 72.6227 62.1737 72.5238C60.2129 72.4249 57.663 72.7216 55.685 75.7144C53.707 78.7072 54.1112 87.4448 53.8016 87.9909C53.492 88.537 53.922 91.2331 53.922 91.2331C53.7501 91.3613 53.6076 91.5246 53.5038 91.7122C53.4 91.8998 53.3373 92.1073 53.32 92.321C53.2856 93.0219 54.0424 94.7462 54.0424 94.7462L54.61 96.5694Z" fill="white" stroke="#263238" stroke-width="1.00396" stroke-miterlimit="10"/>
<g style="mix-blend-mode:multiply">
<path d="M53.9732 85.7463C53.9867 86.4967 53.9306 87.2467 53.8055 87.9866C53.5303 88.4768 53.8442 90.6913 53.913 91.1428C57.5989 92.2877 61.4964 92.5817 65.3123 92.0028C65.3943 91.7038 65.4433 91.3967 65.4585 91.0869C65.5445 89.4056 65.4585 87.9952 65.4585 87.9952C65.4585 87.9952 65.5832 87.4749 65.7552 86.6837C61.8033 86.9349 57.8357 86.6193 53.9732 85.7463Z" fill="#4040FF"/>
</g>
<g style="mix-blend-mode:multiply">
<path d="M55.4179 76.1919C54.803 77.426 54.459 79.2793 54.2612 81.1584C58.1648 82.6482 62.3736 83.1604 66.5205 82.6505C66.686 81.656 66.7594 80.6484 66.7398 79.6405C66.6654 78.8438 66.4771 78.0618 66.1808 77.3185C62.5599 77.403 58.9429 77.0244 55.4179 76.1919Z" fill="#4040FF"/>
</g>
<path d="M54.042 94.7937L54.5967 96.5696L61.1499 101.3L62.8484 98.2896C62.8484 98.2896 64.0223 97.3651 64.1943 96.6685C64.225 96.5474 64.2437 96.4235 64.2502 96.2987C60.7968 96.2391 57.3656 95.7332 54.042 94.7937Z" fill="#263238"/>
<path d="M58.7851 179.779C58.7851 179.779 58.9313 176.055 59.6451 170.611C60.3589 165.167 58.6432 157.436 58.3551 156.146C58.067 154.856 58.5013 151.992 58.2132 150.986C57.9251 149.98 56.5319 145.688 57.3532 140.709C58.1745 135.73 58.841 122.567 58.841 122.567C58.841 122.567 56.7727 120.886 56.1664 118.697C55.5601 116.509 56.0245 115.821 56.0245 115.821" stroke="#263238" stroke-width="1.00396" stroke-miterlimit="10"/>
<path d="M59.7437 116.023L58.9482 120.426" stroke="#263238" stroke-width="1.00396" stroke-miterlimit="10"/>
</svg>
