<svg width="24" height="24" viewBox="0 0 24 24" fill="none" xmlns="http://www.w3.org/2000/svg">
<path d="M8.20792 20.25H3.75V18.5216H8.20792V20.25Z" stroke="#C2C2C9" stroke-miterlimit="10" stroke-linecap="round" stroke-linejoin="round"/>
<path d="M7.75747 11.4545C7.75747 12.4946 6.91436 13.3376 5.87436 13.3376C4.83432 13.3376 3.99121 12.4946 3.99121 11.4545C3.99121 10.4145 4.83432 9.57139 5.87436 9.57139C6.91436 9.57139 7.75747 10.4145 7.75747 11.4545Z" stroke="#C2C2C9" stroke-miterlimit="10" stroke-linecap="round" stroke-linejoin="round"/>
<path d="M8.20792 18.5217H3.75L4.66404 12.8973C4.99119 13.1726 5.41341 13.3378 5.87394 13.3378C6.35482 13.3378 6.79351 13.1576 7.12636 12.8609L8.20792 18.5217Z" stroke="#C2C2C9" stroke-miterlimit="10" stroke-linecap="round" stroke-linejoin="round"/>
<path d="M12.2703 5.97249L7.74994 11.293C7.66771 10.3284 6.85931 9.57144 5.87361 9.57144C5.86428 9.57144 5.85499 9.57144 5.8457 9.5718L10.8015 4.65319C10.7851 4.7309 10.7768 4.81011 10.7769 4.88953C10.7769 5.51841 11.287 6.02863 11.9163 6.02863C12.04 6.02863 12.1587 6.00894 12.2703 5.97249Z" stroke="#C2C2C9" stroke-miterlimit="10" stroke-linecap="round" stroke-linejoin="round"/>
<path d="M17.8616 4.05575V5.48267H12.889C12.9984 5.30418 13.0561 5.09885 13.0557 4.88954C13.0557 4.56024 12.9158 4.26348 12.6924 4.05575H17.8616Z" stroke="#C2C2C9" stroke-miterlimit="10" stroke-linecap="round" stroke-linejoin="round"/>
<path d="M18.8886 20.25H13.4355L14.1109 14.3816H18.2132L18.8886 20.25Z" stroke="#C2C2C9" stroke-miterlimit="10" stroke-linecap="round" stroke-linejoin="round"/>
<path d="M12.6865 14.3816H19.6372" stroke="#C2C2C9" stroke-miterlimit="10" stroke-linecap="round" stroke-linejoin="round"/>
<path d="M17.2696 14.3816H15.0537V12.1799H17.2696V14.3816Z" stroke="#C2C2C9" stroke-miterlimit="10" stroke-linecap="round" stroke-linejoin="round"/>
<path d="M15.4307 5.48266V7.81469L16.1285 9.29517L16.792 7.81469V5.48266H15.4307Z" stroke="#C2C2C9" stroke-miterlimit="10" stroke-linecap="round" stroke-linejoin="round"/>
<path d="M16.1279 9.2953V10.4573" stroke="#C2C2C9" stroke-miterlimit="10" stroke-linecap="round" stroke-linejoin="round"/>
<path d="M13.056 4.88923C13.056 5.51847 12.5459 6.02856 11.9167 6.02856C11.2874 6.02856 10.7773 5.51847 10.7773 4.88923C10.7773 4.25998 11.2874 3.74989 11.9167 3.74989C12.5459 3.74989 13.056 4.25998 13.056 4.88923Z" stroke="#C2C2C9" stroke-miterlimit="10" stroke-linecap="round" stroke-linejoin="round"/>
<path d="M6.57161 11.4547C6.57161 11.8401 6.25915 12.1526 5.87368 12.1526C5.48824 12.1526 5.17578 11.8401 5.17578 11.4547C5.17578 11.0692 5.48824 10.7567 5.87368 10.7567C6.25915 10.7567 6.57161 11.0692 6.57161 11.4547Z" stroke="#C2C2C9" stroke-miterlimit="10" stroke-linecap="round" stroke-linejoin="round"/>
<path d="M5.89648 13.3378V15.2861" stroke="#C2C2C9" stroke-miterlimit="10" stroke-linecap="round" stroke-linejoin="round"/>
</svg>
