<svg width="24" height="24" viewBox="0 0 24 24" fill="none" xmlns="http://www.w3.org/2000/svg">
<rect x="0.5" y="0.5" width="23" height="23" rx="11.5" fill="white" stroke="#DF3A4D"/>
<path d="M18.5 10.5V13.5C18.5 13.7652 18.3946 14.0196 18.2071 14.2071C18.0196 14.3946 17.7652 14.5 17.5 14.5H14.5V17.5C14.5 17.7652 14.3946 18.0196 14.2071 18.2071C14.0196 18.3946 13.7652 18.5 13.5 18.5H10.5C10.2348 18.5 9.98043 18.3946 9.79289 18.2071C9.60536 18.0196 9.5 17.7652 9.5 17.5V14.5H6.5C6.23478 14.5 5.98043 14.3946 5.79289 14.2071C5.60536 14.0196 5.5 13.7652 5.5 13.5V10.5C5.5 10.2348 5.60536 9.98043 5.79289 9.79289C5.98043 9.60536 6.23478 9.5 6.5 9.5H9.5V6.5C9.5 6.23478 9.60536 5.98043 9.79289 5.79289C9.98043 5.60536 10.2348 5.5 10.5 5.5H13.5C13.7652 5.5 14.0196 5.60536 14.2071 5.79289C14.3946 5.98043 14.5 6.23478 14.5 6.5V9.5H17.5C17.7652 9.5 18.0196 9.60536 18.2071 9.79289C18.3946 9.98043 18.5 10.2348 18.5 10.5Z" fill="#DF3A4D"/>
</svg>
