<svg width="56" height="56" viewBox="0 0 56 56" fill="none" xmlns="http://www.w3.org/2000/svg">
<circle opacity="0.1" cx="28" cy="28" r="28" fill="#0A0A26"/>
<g clip-path="url(#clip0_4390_51662)">
<path d="M31.7334 17.7333H31.6093L31.0194 13.6043C30.9216 12.9383 30.5882 12.3294 30.0798 11.8883C29.5713 11.4471 28.9215 11.2029 28.2484 11.2H27.0668V0.933336C27.0668 0.685801 26.9684 0.448404 26.7934 0.27337C26.6184 0.098336 26.381 2.8909e-06 26.1334 2.8909e-06C25.8859 2.8909e-06 25.6485 0.098336 25.4735 0.27337C25.2984 0.448404 25.2001 0.685801 25.2001 0.933336V11.2H24.0185C23.3454 11.2029 22.6956 11.4471 22.1871 11.8883C21.6787 12.3294 21.3453 12.9383 21.2474 13.6043L20.6576 17.7333H20.5334C19.7908 17.7333 19.0786 18.0283 18.5535 18.5534C18.0284 19.0785 17.7334 19.7907 17.7334 20.5333V42C17.7334 42.7426 18.0284 43.4548 18.5535 43.9799C19.0786 44.505 19.7908 44.8 20.5334 44.8H23.3334V50.4H19.6001C19.105 50.4 18.6302 50.5967 18.2802 50.9467C17.9301 51.2968 17.7334 51.7716 17.7334 52.2667V54.1333C17.7334 54.6284 17.9301 55.1032 18.2802 55.4533C18.6302 55.8033 19.105 56 19.6001 56H32.6668C33.1618 56 33.6366 55.8033 33.9867 55.4533C34.3368 55.1032 34.5334 54.6284 34.5334 54.1333V52.2667C34.5334 51.7716 34.3368 51.2968 33.9867 50.9467C33.6366 50.5967 33.1618 50.4 32.6668 50.4H28.9334V44.8H31.7334C32.4761 44.8 33.1882 44.505 33.7133 43.9799C34.2384 43.4548 34.5334 42.7426 34.5334 42V20.5333C34.5334 19.7907 34.2384 19.0785 33.7133 18.5534C33.1882 18.0283 32.4761 17.7333 31.7334 17.7333ZM23.0954 13.8675C23.1273 13.6453 23.2382 13.4421 23.4077 13.295C23.5772 13.1479 23.7941 13.0669 24.0185 13.0667H28.2484C28.473 13.0669 28.6899 13.1481 28.8595 13.2954C29.029 13.4426 29.1398 13.6461 29.1714 13.8684L29.724 17.7333H22.5429L23.0954 13.8675ZM20.5334 19.6H31.7334C31.981 19.6 32.2184 19.6983 32.3934 19.8734C32.5684 20.0484 32.6668 20.2858 32.6668 20.5333V29.8667H19.6001V20.5333C19.6001 20.2858 19.6984 20.0484 19.8735 19.8734C20.0485 19.6983 20.2859 19.6 20.5334 19.6ZM32.6668 33.6H19.6001V31.7333H32.6668V33.6ZM19.6001 42V35.4667H25.2001V42.9333H20.5334C20.2859 42.9333 20.0485 42.835 19.8735 42.66C19.6984 42.4849 19.6001 42.2475 19.6001 42ZM32.6668 54.1333H19.6001V52.2667H32.6668V54.1333ZM27.0668 50.4H25.2001V44.8H27.0668V50.4ZM31.7334 42.9333H27.0668V35.4667H32.6668V42C32.6668 42.2475 32.5684 42.4849 32.3934 42.66C32.2184 42.835 31.981 42.9333 31.7334 42.9333ZM17.7334 3.73334C17.7334 2.74319 17.3401 1.79361 16.64 1.09347C15.9398 0.393335 14.9903 2.8909e-06 14.0001 2.8909e-06H3.73344C2.82595 -0.00112701 1.94924 0.32899 1.26787 0.928394C0.586494 1.5278 0.14731 2.35527 0.0327471 3.25551C-0.0818161 4.15575 0.136118 5.06685 0.645645 5.8178C1.15517 6.56876 1.92126 7.10794 2.80011 7.33414V49.9333C2.80011 51.5423 3.43928 53.0854 4.577 54.2231C5.71472 55.3608 7.2578 56 8.86678 56C10.4758 56 12.0188 55.3608 13.1566 54.2231C14.2943 53.0854 14.9334 51.5423 14.9334 49.9333V7.33414C15.7325 7.12782 16.4407 6.66256 16.9473 6.01107C17.4539 5.35959 17.7304 4.5586 17.7334 3.73334ZM8.86678 54.1333C7.75325 54.1321 6.68568 53.6892 5.89829 52.9018C5.11091 52.1144 4.66801 51.0469 4.66678 49.9333V27.0667H13.0668V49.9333C13.0655 51.0469 12.6226 52.1144 11.8353 52.9018C11.0479 53.6892 9.98031 54.1321 8.86678 54.1333ZM14.0001 5.6H9.33345C9.08591 5.6 8.84851 5.69834 8.67348 5.87337C8.49845 6.0484 8.40011 6.2858 8.40011 6.53334C8.40011 6.78087 8.49845 7.01827 8.67348 7.1933C8.84851 7.36834 9.08591 7.46667 9.33345 7.46667H13.0668V25.2H4.66678V7.46667H5.60011C5.84765 7.46667 6.08504 7.36834 6.26008 7.1933C6.43511 7.01827 6.53345 6.78087 6.53345 6.53334C6.53345 6.2858 6.43511 6.0484 6.26008 5.87337C6.08504 5.69834 5.84765 5.6 5.60011 5.6H3.73344C3.23837 5.6 2.76358 5.40334 2.41351 5.05327C2.06344 4.7032 1.86678 4.22841 1.86678 3.73334C1.86678 3.23827 2.06344 2.76347 2.41351 2.4134C2.76358 2.06334 3.23837 1.86667 3.73344 1.86667H14.0001C14.4952 1.86667 14.97 2.06334 15.32 2.4134C15.6701 2.76347 15.8668 3.23827 15.8668 3.73334C15.8668 4.22841 15.6701 4.7032 15.32 5.05327C14.97 5.40334 14.4952 5.6 14.0001 5.6Z" fill="#0A0A26"/>
<path d="M8.86654 50.4009C8.74277 50.4009 8.62407 50.3517 8.53655 50.2642C8.44904 50.1767 8.39987 50.058 8.39987 49.9342V47.6009C8.39987 47.3534 8.30154 47.116 8.1265 46.9409C7.95147 46.7659 7.71407 46.6676 7.46654 46.6676C7.219 46.6676 6.9816 46.7659 6.80657 46.9409C6.63154 47.116 6.5332 47.3534 6.5332 47.6009V49.9342C6.5332 50.5531 6.77904 51.1466 7.21662 51.5842C7.65421 52.0218 8.2477 52.2676 8.86654 52.2676C9.11407 52.2676 9.35147 52.1693 9.5265 51.9942C9.70154 51.8192 9.79987 51.5818 9.79987 51.3342C9.79987 51.0867 9.70154 50.8493 9.5265 50.6743C9.35147 50.4992 9.11407 50.4009 8.86654 50.4009ZM53.2381 17.7342H53.3035C53.7845 17.7196 54.2401 17.5149 54.5706 17.1651C54.901 16.8152 55.0794 16.3487 55.0665 15.8676V14.0009C55.105 13.0527 54.7667 12.1278 54.1254 11.4282C53.4841 10.7287 52.592 10.3114 51.644 10.2676H41.6891C40.7411 10.3114 39.849 10.7287 39.2077 11.4282C38.5664 12.1278 38.228 13.0527 38.2665 14.0009V15.8676C38.2537 16.3487 38.4321 16.8152 38.7625 17.1651C39.093 17.5149 39.5486 17.7196 40.0296 17.7342H40.0949C40.0106 18.8817 39.6032 19.9819 38.9199 20.9076C37.8933 22.2826 37.3369 23.9517 37.3332 25.6676V52.2676C37.3332 53.2577 37.7265 54.2073 38.4267 54.9074C39.1268 55.6076 40.0764 56.0009 41.0665 56.0009H52.2665C53.2567 56.0009 54.2063 55.6076 54.9064 54.9074C55.6065 54.2073 55.9999 53.2577 55.9999 52.2676V25.6676C55.9961 23.9517 55.4398 22.2826 54.4132 20.9076C53.7295 19.9821 53.322 18.8818 53.2381 17.7342ZM40.1332 14.0009C40.0965 13.548 40.2389 13.0988 40.5298 12.7497C40.8207 12.4007 41.237 12.1797 41.6891 12.1342H51.644C52.0961 12.1797 52.5124 12.4007 52.8033 12.7497C53.0942 13.0988 53.2366 13.548 53.1999 14.0009L53.1905 15.8676H51.3332V14.9342C51.3332 14.6867 51.2349 14.4493 51.0598 14.2743C50.8848 14.0992 50.6474 14.0009 50.3999 14.0009C50.1523 14.0009 49.9149 14.0992 49.7399 14.2743C49.5649 14.4493 49.4665 14.6867 49.4665 14.9342V15.8676H47.5999V14.9342C47.5999 14.6867 47.5015 14.4493 47.3265 14.2743C47.1515 14.0992 46.9141 14.0009 46.6665 14.0009C46.419 14.0009 46.1816 14.0992 46.0066 14.2743C45.8315 14.4493 45.7332 14.6867 45.7332 14.9342V15.8676H43.8665V14.9342C43.8665 14.6867 43.7682 14.4493 43.5932 14.2743C43.4181 14.0992 43.1807 14.0009 42.9332 14.0009C42.6857 14.0009 42.4483 14.0992 42.2732 14.2743C42.0982 14.4493 41.9999 14.6867 41.9999 14.9342V15.8676H40.1332V14.0009ZM40.4132 22.0276C41.3444 20.7802 41.891 19.288 41.9859 17.7342H51.3472C51.442 19.288 51.9886 20.7802 52.9199 22.0276C53.7048 23.0791 54.1303 24.3554 54.1332 25.6676V28.0009H39.1999V25.6676C39.2028 24.3554 39.6283 23.0791 40.4132 22.0276ZM54.1332 46.6676H42.9332V42.0009C42.9332 41.7534 42.8349 41.516 42.6598 41.3409C42.4848 41.1659 42.2474 41.0676 41.9999 41.0676C41.7523 41.0676 41.5149 41.1659 41.3399 41.3409C41.1649 41.516 41.0665 41.7534 41.0665 42.0009V46.6676H39.1999V29.8676H41.0665V38.2676C41.0665 38.5151 41.1649 38.7525 41.3399 38.9275C41.5149 39.1026 41.7523 39.2009 41.9999 39.2009C42.2474 39.2009 42.4848 39.1026 42.6598 38.9275C42.8349 38.7525 42.9332 38.5151 42.9332 38.2676V29.8676H54.1332V46.6676ZM52.2665 54.1342H41.0665C40.5715 54.1342 40.0967 53.9376 39.7466 53.5875C39.3965 53.2374 39.1999 52.7627 39.1999 52.2676V48.5342H54.1332V52.2676C54.1332 52.7627 53.9365 53.2374 53.5865 53.5875C53.2364 53.9376 52.7616 54.1342 52.2665 54.1342Z" fill="#0A0A26"/>
</g>
<defs>
<clipPath id="clip0_4390_51662">
<rect width="56" height="56" fill="white"/>
</clipPath>
</defs>
</svg>
