<svg width="24" height="24" viewBox="0 0 24 24" fill="none" xmlns="http://www.w3.org/2000/svg">
<g clip-path="url(#clip0_4220_15463)">
<path opacity="0.2" d="M12.0001 3C10.1794 2.99989 8.40146 3.55199 6.90109 4.58339C5.40072 5.61479 4.24845 7.077 3.59643 8.77693C2.94441 10.4769 2.8233 12.3346 3.24909 14.1048C3.67488 15.875 4.62755 17.4744 5.98131 18.6919C6.54593 17.5809 7.40713 16.6478 8.46946 15.9962C9.53179 15.3446 10.7538 14.9998 12.0001 15C11.2584 15 10.5334 14.7801 9.91667 14.368C9.29998 13.956 8.81934 13.3703 8.53551 12.6851C8.25168 11.9998 8.17742 11.2458 8.32211 10.5184C8.46681 9.79098 8.82396 9.1228 9.34841 8.59835C9.87285 8.0739 10.541 7.71675 11.2685 7.57205C11.9959 7.42736 12.7499 7.50162 13.4351 7.78545C14.1203 8.06928 14.706 8.54993 15.1181 9.16661C15.5301 9.7833 15.7501 10.5083 15.7501 11.25C15.7501 12.2446 15.355 13.1984 14.6517 13.9017C13.9484 14.6049 12.9946 15 12.0001 15C13.2462 14.9997 14.4682 15.3443 15.5305 15.9958C16.5928 16.6473 17.4541 17.5801 18.0188 18.6909C19.3722 17.4734 20.3246 15.874 20.7502 14.104C21.1758 12.334 21.0546 10.4765 20.4026 8.77676C19.7506 7.07704 18.5985 5.61499 17.0983 4.58363C15.5982 3.55228 13.8205 3.0001 12.0001 3Z" fill="#47475C"/>
<path d="M5.9812 18.6909C6.54549 17.5794 7.40654 16.6459 8.4689 15.9938C9.53126 15.3418 10.7534 14.9966 12 14.9966C13.2465 14.9966 14.4686 15.3418 15.531 15.9938C16.5934 16.6459 17.4544 17.5794 18.0187 18.6909" stroke="#47475C" stroke-width="1.5" stroke-linecap="round" stroke-linejoin="round"/>
<path d="M12 21C16.9706 21 21 16.9706 21 12C21 7.02944 16.9706 3 12 3C7.02944 3 3 7.02944 3 12C3 16.9706 7.02944 21 12 21Z" stroke="#47475C" stroke-width="1.5" stroke-linecap="round" stroke-linejoin="round"/>
<path d="M12 15C14.0711 15 15.75 13.3211 15.75 11.25C15.75 9.17893 14.0711 7.5 12 7.5C9.92893 7.5 8.25 9.17893 8.25 11.25C8.25 13.3211 9.92893 15 12 15Z" stroke="#47475C" stroke-width="1.5" stroke-linecap="round" stroke-linejoin="round"/>
</g>
<defs>
<clipPath id="clip0_4220_15463">
<rect width="24" height="24" fill="white"/>
</clipPath>
</defs>
</svg>
