<svg width="16" height="16" viewBox="0 0 16 16" fill="none" xmlns="http://www.w3.org/2000/svg">
<path d="M10.3932 14.1632C10.3587 14.263 10.2936 14.3493 10.2071 14.4098C10.1206 14.4702 10.0172 14.5018 9.91166 14.4999C9.80615 14.498 9.70393 14.4628 9.61964 14.3993C9.53534 14.3358 9.4733 14.2473 9.44238 14.1463L7.97022 9.36003C7.94625 9.28193 7.90352 9.21089 7.84576 9.15312C7.78801 9.09536 7.71699 9.05262 7.6389 9.02864L2.85359 7.5593C2.75269 7.52838 2.66415 7.46632 2.60065 7.38201C2.53716 7.2977 2.50195 7.19546 2.50008 7.08992C2.4982 6.98438 2.52976 6.88096 2.59023 6.79445C2.65069 6.70794 2.73697 6.64278 2.83671 6.60829L13.8389 2.52664C13.9271 2.49662 14.022 2.49186 14.1128 2.51292C14.2037 2.53398 14.2868 2.58001 14.3528 2.64581C14.4189 2.71161 14.4652 2.79457 14.4866 2.88532C14.508 2.97607 14.5037 3.071 14.474 3.1594L10.3932 14.1632Z" stroke="#4040FF" stroke-width="1.5" stroke-linecap="round" stroke-linejoin="round"/>
</svg>
