<svg width="32" height="32" viewBox="0 0 32 32" fill="none" xmlns="http://www.w3.org/2000/svg">
<path d="M3 12.7499H6.25V21.2499H4C3.80109 21.2499 3.61032 21.3289 3.46967 21.4696C3.32902 21.6102 3.25 21.801 3.25 21.9999C3.25 22.1988 3.32902 22.3896 3.46967 22.5302C3.61032 22.6709 3.80109 22.7499 4 22.7499H28C28.1989 22.7499 28.3897 22.6709 28.5303 22.5302C28.671 22.3896 28.75 22.1988 28.75 21.9999C28.75 21.801 28.671 21.6102 28.5303 21.4696C28.3897 21.3289 28.1989 21.2499 28 21.2499H25.75V12.7499H29C29.1633 12.7498 29.322 12.6964 29.4522 12.5978C29.5823 12.4993 29.6768 12.361 29.7212 12.2039C29.7656 12.0468 29.7575 11.8795 29.6982 11.7274C29.6389 11.5753 29.5315 11.4467 29.3925 11.3611L16.3925 3.36115C16.2744 3.28863 16.1386 3.25024 16 3.25024C15.8614 3.25024 15.7256 3.28863 15.6075 3.36115L2.6075 11.3611C2.46846 11.4467 2.36114 11.5753 2.30182 11.7274C2.2425 11.8795 2.23443 12.0468 2.27883 12.2039C2.32323 12.361 2.41768 12.4993 2.54784 12.5978C2.67799 12.6964 2.83675 12.7498 3 12.7499ZM7.75 12.7499H12.25V21.2499H7.75V12.7499ZM18.25 12.7499V21.2499H13.75V12.7499H18.25ZM24.25 21.2499H19.75V12.7499H24.25V21.2499ZM16 4.8749L26.35 11.2499H5.65L16 4.8749ZM30.75 25.9999C30.75 26.1988 30.671 26.3896 30.5303 26.5302C30.3897 26.6709 30.1989 26.7499 30 26.7499H2C1.80109 26.7499 1.61032 26.6709 1.46967 26.5302C1.32902 26.3896 1.25 26.1988 1.25 25.9999C1.25 25.801 1.32902 25.6102 1.46967 25.4696C1.61032 25.3289 1.80109 25.2499 2 25.2499H30C30.1989 25.2499 30.3897 25.3289 30.5303 25.4696C30.671 25.6102 30.75 25.801 30.75 25.9999Z" fill="#47475C"/>
</svg>
