<svg width="32" height="32" viewBox="0 0 32 32" fill="none" xmlns="http://www.w3.org/2000/svg">
<circle opacity="0.1" cx="16" cy="16" r="16" fill="#4040FF"/>
<g clip-path="url(#clip0_2119_80325)">
<path d="M11.7998 23.8C11.7998 23.3226 11.9894 22.8648 12.327 22.5272C12.6646 22.1896 13.1224 22 13.5998 22H18.3998C18.8772 22 19.335 22.1896 19.6726 22.5272C20.0102 22.8648 20.1998 23.3226 20.1998 23.8" stroke="#4040FF" stroke-width="1.5" stroke-linecap="round" stroke-linejoin="round"/>
<path d="M16 19V23.8" stroke="#4040FF" stroke-width="1.5" stroke-linecap="round" stroke-linejoin="round"/>
<path d="M7.59985 16H9.39985C9.39985 16.7956 9.71592 17.5587 10.2785 18.1213C10.8411 18.6839 11.6042 19 12.3999 19H19.5999C20.3955 19 21.1586 18.6839 21.7212 18.1213C22.2838 17.5587 22.5999 16.7956 22.5999 16H24.3999" stroke="#4040FF" stroke-width="1.5" stroke-linecap="round" stroke-linejoin="round"/>
<path d="M13.4288 8.20117C13.2844 8.20117 13.1448 8.25328 13.0357 8.34793C12.9265 8.44258 12.8552 8.57342 12.8348 8.71642L11.8058 15.9164C11.7937 16.0015 11.8 16.0882 11.8242 16.1707C11.8485 16.2531 11.8902 16.3294 11.9466 16.3943C12.0029 16.4593 12.0725 16.5113 12.1507 16.547C12.2289 16.5827 12.3139 16.6012 12.3998 16.6012H19.5998C19.6858 16.6012 19.7707 16.5827 19.8489 16.547C19.9271 16.5113 19.9967 16.4593 20.0531 16.3943C20.1094 16.3294 20.1511 16.2531 20.1754 16.1707C20.1997 16.0882 20.206 16.0015 20.1938 15.9164L19.1648 8.71642C19.1444 8.57342 19.0731 8.44258 18.964 8.34793C18.8549 8.25328 18.7153 8.20117 18.5708 8.20117H13.4288Z" stroke="#4040FF" stroke-width="1.5" stroke-linecap="round" stroke-linejoin="round"/>
</g>
<defs>
<clipPath id="clip0_2119_80325">
<rect width="19.2" height="19.2" fill="white" transform="translate(6.3999 6.40039)"/>
</clipPath>
</defs>
</svg>
