<svg width="56" height="56" viewBox="0 0 56 56" fill="none" xmlns="http://www.w3.org/2000/svg">
<circle opacity="0.1" cx="28" cy="28" r="28" fill="#0A0A26"/>
<g clip-path="url(#clip0_4390_51827)">
<path d="M50.1515 37.2062L46.5013 36.334V35.0518C48.5175 33.8607 49.8736 31.666 49.8736 29.1594V24.3199C49.8736 20.5483 46.8051 17.4799 43.0335 17.4799H42.2771C40.2634 17.4799 38.4506 18.355 37.1978 19.7444C35.9845 15.8173 32.3202 12.9557 27.9999 12.9557C23.6796 12.9557 20.0153 15.817 18.802 19.7444C17.5493 18.355 15.7365 17.4799 13.7228 17.4799H12.9663C9.19476 17.4799 6.12614 20.5483 6.12614 24.3199V29.1594C6.12614 31.6659 7.48228 33.8607 9.4985 35.0518V36.334L5.84822 37.2062C2.40575 38.0287 0.00146484 41.0749 0.00146484 44.6142V47.9066C0.00146484 48.5105 0.491246 49.0002 1.09511 49.0002H9.92845C9.87253 49.4362 9.84451 49.8753 9.84456 50.3149V53.8125H3.2825C2.67853 53.8125 2.18886 54.3023 2.18886 54.9061C2.18886 55.5101 2.67864 55.9998 3.2825 55.9998H52.7172C53.3211 55.9998 53.8108 55.51 53.8108 54.9061C53.8108 54.3022 53.321 53.8125 52.7172 53.8125H46.1551V50.3202C46.1551 49.8736 46.1263 49.433 46.0705 49.0003H54.9045C55.5085 49.0003 55.9982 48.5105 55.9982 47.9067V44.6143C55.9983 41.0749 53.5939 38.0286 50.1515 37.2062ZM37.6245 24.3199C37.6244 21.7544 39.7116 19.6672 42.2772 19.6672H43.0336C45.5992 19.6672 47.6864 21.7544 47.6864 24.3199V24.6003C46.1105 24.5824 44.5726 24.1138 43.2544 23.2501C43.0764 23.1335 42.8683 23.0714 42.6555 23.0714C42.4428 23.0714 42.2347 23.1335 42.0567 23.2501C40.7385 24.1139 39.2006 24.5825 37.6246 24.6003V24.3199H37.6245ZM37.6244 28.2673V26.7879C39.3952 26.7708 41.1191 26.3097 42.6553 25.4445C44.1915 26.3098 45.9155 26.7708 47.6862 26.7879V29.1595C47.6862 31.7251 45.599 33.8123 43.0334 33.8123H42.277C39.7114 33.8123 37.6242 31.7251 37.6242 29.1595V28.2673H37.6244ZM39.722 40.8559C39.2725 40.6784 38.8111 40.5328 38.3411 40.42L34.8652 39.5895C35.1242 39.4828 35.3911 39.3963 35.6635 39.3308L39.1183 38.5028L39.722 40.8559ZM38.8166 35.0561V36.326L35.1537 37.2037C34.3669 37.392 33.6152 37.7048 32.9271 38.1302V36.5318C34.4299 35.6318 35.6609 34.3415 36.4892 32.798C37.0743 33.7251 37.8722 34.4993 38.8166 35.0561ZM35.4371 28.2673C35.4371 32.3681 32.1008 35.7044 28 35.7044C23.8992 35.7044 20.563 32.3681 20.563 28.2673V25.0635H21.765C24.8355 25.0635 27.7608 24.0837 30.1658 22.3044L30.4165 22.679C30.9066 23.4133 31.5705 24.0152 32.3492 24.4311C33.1279 24.8471 33.9973 25.0643 34.8802 25.0635H35.4372L35.4371 28.2673ZM20.5628 22.58C20.5628 18.4793 23.899 15.1431 27.9998 15.1431C32.1006 15.1431 35.4369 18.4793 35.4369 22.5801V22.8761H34.8798C34.3566 22.8766 33.8413 22.7479 33.3798 22.5013C32.9183 22.2548 32.5248 21.8981 32.2343 21.4629L31.8298 20.8582C32.16 20.5237 32.4736 20.1732 32.7693 19.8078C33.1491 19.338 33.076 18.6494 32.6062 18.2698C32.1367 17.89 31.4479 17.963 31.0681 18.433C28.7862 21.2566 25.3954 22.876 21.7649 22.876H20.5628V22.58ZM19.5106 32.798C20.3407 34.345 21.5754 35.6376 23.0828 36.5378V38.1363C22.3918 37.7078 21.6366 37.393 20.8459 37.2038L17.1832 36.3261V35.0562C18.1275 34.4993 18.9254 33.7251 19.5106 32.798ZM21.1225 39.5847L17.6514 40.4165C17.1844 40.5289 16.7259 40.6738 16.2791 40.8501L16.8814 38.5031L20.3361 39.331C20.6057 39.3956 20.8684 39.4809 21.1225 39.5847ZM8.31364 24.3199C8.31353 21.7544 10.4007 19.6672 12.9663 19.6672H13.7228C16.2884 19.6672 18.3756 21.7544 18.3756 24.3199V24.6003C16.7996 24.5824 15.2618 24.1138 13.9435 23.2501C13.7655 23.1335 13.5574 23.0714 13.3447 23.0714C13.1319 23.0714 12.9238 23.1335 12.7458 23.2501C11.4276 24.114 9.8897 24.5825 8.31375 24.6003L8.31364 24.3199ZM8.31353 29.1595V26.7879C10.0843 26.7708 11.8083 26.3097 13.3444 25.4445C14.8806 26.3098 16.6046 26.7708 18.3754 26.7879V29.1595C18.3754 31.7251 16.2882 33.8123 13.7226 33.8123H12.9661C10.4007 33.8123 8.31353 31.7251 8.31353 29.1595ZM10.4617 46.8133H2.18886V44.6143C2.18886 42.0914 3.90265 39.9199 6.35637 39.3339L9.80004 38.5112L11.427 44.8529C11.0354 45.4696 10.7117 46.1269 10.4617 46.8133ZM11.686 35.8776C12.108 35.9584 12.5366 35.9992 12.9662 35.9996H13.7227C14.1579 35.9996 14.583 35.957 14.9958 35.8789V37.0503L13.6253 42.3917C13.465 42.52 13.3086 42.6531 13.1564 42.7909L11.686 37.0591V35.8776ZM12.0321 53.8126V50.3152C12.0321 47.663 13.3199 45.2746 15.3719 43.8114L25.3732 53.8126H12.0321ZM17.4157 42.7617C17.6606 42.6771 17.9094 42.6043 18.1612 42.5436L23.3845 41.2919L25.9517 51.2976L17.4157 42.7617ZM25.27 39.8394V37.497C26.1562 37.7594 27.0756 37.8925 27.9998 37.892C28.9514 37.892 29.8708 37.7525 30.7397 37.4941V39.852L28.0066 50.5052L25.27 39.8394ZM32.6254 41.3035L37.833 42.5475C38.0923 42.61 38.3484 42.6852 38.6003 42.7728L30.0567 51.3166L32.6254 41.3035ZM43.9677 53.8126H30.654L40.6406 43.8259C42.6852 45.2895 43.9677 47.6731 43.9677 50.3203V53.8126ZM44.314 37.0593L42.8424 42.795C42.691 42.658 42.5355 42.5256 42.3761 42.398L41.0041 37.0506V35.8792C41.4237 35.959 41.85 35.9994 42.2772 35.9998H43.0336C43.4714 35.9998 43.899 35.9568 44.314 35.8778V37.0593ZM53.8109 46.813H45.5365C45.2864 46.1279 44.963 45.4717 44.5719 44.856L46.1996 38.511L49.6433 39.3338C52.0971 39.9199 53.8108 42.0914 53.8108 44.6142V46.813H53.8109ZM27.9998 0C27.396 0 26.9062 0.489781 26.9062 1.09364V5.77642C26.9062 6.3805 27.3959 6.87006 27.9998 6.87006C28.6038 6.87006 29.0935 6.38028 29.0935 5.77642V1.09364C29.0936 0.489781 28.6038 0 27.9998 0ZM28.773 8.80633C28.5674 8.60199 28.2897 8.48685 27.9998 8.48586C27.711 8.48586 27.43 8.60289 27.2265 8.80633C27.022 9.0118 26.9069 9.2897 26.9061 9.57961C26.9061 9.86727 27.023 10.1495 27.2265 10.3529C27.43 10.5563 27.7122 10.6734 27.9998 10.6734C28.2875 10.6734 28.5697 10.5563 28.773 10.3529C28.9772 10.1472 29.0924 9.86946 29.0936 9.57961C29.0936 9.29086 28.9765 9.00977 28.773 8.80633ZM20.7269 9.0545L16.6745 5.00292C16.2474 4.57581 15.5549 4.57603 15.1277 5.00314C14.7007 5.43025 14.7008 6.1227 15.1279 6.54992L19.1805 10.6015C19.2819 10.7032 19.4025 10.7838 19.5352 10.8388C19.6679 10.8937 19.8101 10.9219 19.9538 10.9218C20.0974 10.9219 20.2397 10.8937 20.3725 10.8387C20.5052 10.7837 20.6258 10.703 20.7273 10.6013C21.1542 10.1743 21.154 9.48172 20.7269 9.0545ZM41.0355 4.83295C40.6084 4.40617 39.9161 4.40595 39.4887 4.83295L35.1894 9.13216C34.7623 9.55927 34.7623 10.2517 35.1894 10.6789C35.4031 10.8925 35.683 10.9993 35.9629 10.9993C36.2428 10.9993 36.5227 10.8924 36.7363 10.6789L41.0356 6.37973C41.4626 5.95262 41.4626 5.26006 41.0355 4.83295Z" fill="#0A0A26"/>
</g>
<defs>
<clipPath id="clip0_4390_51827">
<rect width="56" height="56" fill="white"/>
</clipPath>
</defs>
</svg>
