<svg width="48" height="48" viewBox="0 0 48 48" fill="none" xmlns="http://www.w3.org/2000/svg">
<g opacity="0.2">
<path d="M44.5715 33.133C44.4032 33.3197 44.2283 33.5042 44.0461 33.6836C41.6146 36.0739 37.5678 37.7104 33.6336 38.4519C31.8954 38.7729 30.1377 38.953 28.375 38.991C16.7911 39.2727 12.5349 32.8801 8.80284 31.2321C5.07074 29.584 -0.654953 26.7693 0.0612554 20.8558C0.606528 16.3592 4.42873 12.0643 11.4093 10.1042C12.1778 9.88802 12.9855 9.70137 13.8322 9.54428C15.5242 9.23906 17.2338 9.06327 18.9483 9.01823C24.2255 8.86113 28.5108 9.71218 32.7027 11.856C33.6773 12.3547 34.646 12.9168 35.9108 12.978C36.8297 13.0227 37.6996 12.8022 36.7403 12.2077C35.6139 11.5087 36.9138 10.1352 39.7807 11.0893C44.5675 12.684 46.5386 16.1243 47.4662 19.6221C48.6031 23.9142 48.0512 29.2554 44.5715 33.133Z" fill="#4040FF"/>
<path opacity="0.7" d="M44.5715 33.133C44.4032 33.3197 44.2283 33.5042 44.0461 33.6836C41.6146 36.0739 37.5678 37.7104 33.6336 38.4519C31.8954 38.7729 30.1377 38.953 28.375 38.991C16.7911 39.2727 12.5349 32.8801 8.80284 31.2321C5.07074 29.584 -0.654953 26.7693 0.0612554 20.8558C0.606528 16.3592 4.42873 12.0643 11.4093 10.1042C12.1778 9.88802 12.9855 9.70137 13.8322 9.54428C15.5242 9.23906 17.2338 9.06327 18.9483 9.01823C24.2255 8.86113 28.5108 9.71218 32.7027 11.856C33.6773 12.3547 34.646 12.9168 35.9108 12.978C36.8297 13.0227 37.6996 12.8022 36.7403 12.2077C35.6139 11.5087 36.9138 10.1352 39.7807 11.0893C44.5675 12.684 46.5386 16.1243 47.4662 19.6221C48.6031 23.9142 48.0512 29.2554 44.5715 33.133Z" fill="white"/>
</g>
<path d="M35.8127 11.625H24.5053C23.8636 10.2249 22.7623 9.08636 21.3843 8.39837C20.0064 7.71039 18.4345 7.51433 16.9298 7.84276C15.425 8.17118 14.0779 9.00433 13.1119 10.2039C12.1459 11.4035 11.6191 12.8973 11.6191 14.4375C11.6191 15.9777 12.1459 17.4715 13.1119 18.6711C14.0779 19.8707 15.425 20.7038 16.9298 21.0323C18.4345 21.3607 20.0064 21.1646 21.3843 20.4766C22.7623 19.7887 23.8636 18.6501 24.5053 17.25H29.0627L30.7502 15.5625L32.4377 17.25L34.1252 15.5625L35.8127 17.25L38.6252 14.4375L35.8127 11.625Z" fill="#FFB74D"/>
<path d="M16.125 16.6875C17.3676 16.6875 18.375 15.6801 18.375 14.4375C18.375 13.1949 17.3676 12.1875 16.125 12.1875C14.8824 12.1875 13.875 13.1949 13.875 14.4375C13.875 15.6801 14.8824 16.6875 16.125 16.6875Z" fill="#EEEEEE"/>
<path d="M19.2671 36.142L11.8579 28.7327C11.6469 28.5218 11.3608 28.4033 11.0625 28.4033C10.7642 28.4033 10.4781 28.5218 10.2671 28.7327L7.6875 31.3123L16.6875 40.3123L19.2671 37.7327C19.478 37.5217 19.5965 37.2356 19.5965 36.9373C19.5965 36.639 19.478 36.3529 19.2671 36.142Z" fill="#EF5350"/>
<path d="M19.2694 37.7308L16.6875 40.3127L7.6875 31.3127L9.60562 29.3945C9.50133 29.4986 9.41859 29.6222 9.36214 29.7583C9.30568 29.8944 9.27663 30.0403 9.27663 30.1877C9.27663 30.335 9.30568 30.4809 9.36214 30.617C9.41859 30.7531 9.50133 30.8767 9.60562 30.9808L14.2069 35.582C14.311 35.6863 14.4346 35.7691 14.5707 35.8255C14.7068 35.882 14.8527 35.911 15 35.911C15.1473 35.911 15.2932 35.882 15.4293 35.8255C15.5654 35.7691 15.689 35.6863 15.7931 35.582L17.25 34.1252L19.2694 36.1445C19.3737 36.2486 19.4564 36.3722 19.5129 36.5083C19.5693 36.6444 19.5984 36.7903 19.5984 36.9377C19.5984 37.085 19.5693 37.2309 19.5129 37.367C19.4564 37.5031 19.3737 37.6267 19.2694 37.7308Z" fill="#E53935"/>
<path d="M39.6881 22.3745C39.2872 21.9746 38.7441 21.75 38.1778 21.75C37.6116 21.75 37.0684 21.9746 36.6675 22.3745L31.245 27.4032L31.2422 27.4043C31.1236 26.9154 30.8444 26.4804 30.4491 26.1692C30.0539 25.8579 29.5656 25.6883 29.0625 25.6876H17.8924C16.4007 25.6878 14.9702 26.2804 13.9155 27.3352L12.1875 29.0626L18.9375 35.8126L19.4044 35.3457C19.8268 34.9241 20.3994 34.6874 20.9963 34.6876H30.1256C31.0152 34.6876 31.892 34.4766 32.6841 34.0717C33.4762 33.6669 34.1609 33.0798 34.6819 32.3588L39.8906 25.1588C40.1962 24.7475 40.3439 24.2401 40.3067 23.729C40.2696 23.218 40.05 22.7372 39.6881 22.3745Z" fill="#FFCCBC"/>
<path d="M40.3125 23.8816C40.3124 24.3414 40.1645 24.789 39.8906 25.1584L34.6819 32.3584C34.1609 33.0795 33.4762 33.6665 32.6841 34.0714C31.892 34.4762 31.0152 34.6873 30.1256 34.6872H20.9962C20.3994 34.687 19.8268 34.9237 19.4044 35.3453L18.9375 35.8122L17.25 34.1247L17.7169 33.6578C18.1393 33.2362 18.7119 32.9995 19.3087 32.9997H28.4381C29.3277 32.9998 30.2045 32.7887 30.9966 32.3839C31.7887 31.979 32.4734 31.392 32.9944 30.6709L38.2031 23.4709C38.477 23.1015 38.6249 22.6539 38.625 22.1941C38.6258 22.0581 38.6126 21.9223 38.5856 21.7891C39.0718 21.8828 39.5101 22.143 39.8253 22.5248C40.1404 22.9067 40.3127 23.3864 40.3125 23.8816Z" fill="#FFAB91"/>
<path d="M29.5688 25.7441C29.6047 25.9105 29.6236 26.0802 29.625 26.2504C29.6251 26.5459 29.5669 26.8385 29.4539 27.1115C29.3408 27.3845 29.1751 27.6326 28.9662 27.8415C28.7572 28.0505 28.5091 28.2162 28.2361 28.3293C27.9631 28.4423 27.6705 28.5005 27.375 28.5004H23.7188C23.495 28.5004 23.2804 28.5893 23.1221 28.7475C22.9639 28.9058 22.875 29.1204 22.875 29.3441C22.875 29.5679 22.9639 29.7825 23.1221 29.9408C23.2804 30.099 23.495 30.1879 23.7188 30.1879H29.0625C29.6155 30.1882 30.1493 29.9849 30.5619 29.6168C30.9746 29.2487 31.2373 28.7415 31.2999 28.1921C31.3625 27.6426 31.2206 27.0894 30.9013 26.6379C30.582 26.1864 30.1077 25.8682 29.5688 25.7441Z" fill="#FFAB91"/>
<path d="M11.9788 16.6296C11.5935 15.4694 11.5218 14.228 11.7712 13.0312C12.0664 14.419 12.7914 15.6784 13.8433 16.6305C14.8953 17.5826 16.2205 18.1788 17.6307 18.3346C19.041 18.4903 20.4644 18.1975 21.6987 17.4979C22.933 16.7983 23.9154 15.7274 24.5062 14.4375H34.8804C35.176 14.4375 35.4686 14.3793 35.7416 14.2662C36.0147 14.1531 36.2628 13.9873 36.4717 13.7783L37.2187 13.0312L38.625 14.4375L35.8125 17.25L34.125 15.5625L32.4375 17.25L30.75 15.5625L29.0625 17.25H24.5062C23.9431 18.4766 23.0254 19.5064 21.8716 20.2066C20.7177 20.9068 19.3806 21.2454 18.0326 21.1786C16.6845 21.1119 15.3874 20.6428 14.3084 19.832C13.2294 19.0212 12.418 17.9058 11.9788 16.6296Z" fill="#FFA726"/>
</svg>
