<svg width="32" height="32" viewBox="0 0 32 32" fill="none" xmlns="http://www.w3.org/2000/svg">
<circle opacity="0.1" cx="16" cy="16" r="16" fill="#E98315"/>
<path fill-rule="evenodd" clip-rule="evenodd" d="M1.14258 23.2037C1.14258 27.4641 4.5964 30.918 8.85688 30.918C13.1174 30.918 16.5712 27.4641 16.5712 23.2037C16.5712 18.9432 13.1174 15.4894 8.85688 15.4894C4.5964 15.4894 1.14258 18.9432 1.14258 23.2037ZM8.85688 29.7751C5.22758 29.7751 2.28544 26.833 2.28544 23.2037C2.28544 19.5744 5.22758 16.6322 8.85688 16.6322C12.4862 16.6322 15.4283 19.5744 15.4283 23.2037C15.4283 26.833 12.4862 29.7751 8.85688 29.7751Z" fill="#E98315"/>
<path fill-rule="evenodd" clip-rule="evenodd" d="M8.28564 30.3465C8.28564 30.6621 8.54148 30.918 8.85707 30.918H28.5C29.8018 30.918 30.8571 29.8626 30.8571 28.5608V7.60856C30.8571 7.45702 30.7969 7.31168 30.6898 7.20452L24.7376 1.25195C24.6305 1.14477 24.4851 1.08456 24.3335 1.08456H10.6428C9.34101 1.08456 8.28564 2.13993 8.28564 3.44171V16.0608C8.28564 16.3764 8.54148 16.6322 8.85707 16.6322C9.17266 16.6322 9.4285 16.3764 9.4285 16.0608V3.44171C9.4285 2.77111 9.97219 2.22742 10.6428 2.22742H24.0968L29.7143 7.84525V28.5608C29.7143 29.2314 29.1706 29.7751 28.5 29.7751H8.85707C8.54148 29.7751 8.28564 30.0309 8.28564 30.3465Z" fill="#E98315"/>
<path fill-rule="evenodd" clip-rule="evenodd" d="M24.9046 7.03683V3.03541L28.906 7.03683H24.9046ZM23.7617 7.60826C23.7617 7.92385 24.0176 8.17969 24.3331 8.17969H30.2855C30.5167 8.17969 30.725 8.04046 30.8135 7.82694C30.9019 7.61341 30.853 7.36763 30.6896 7.2042L24.7372 1.2518C24.5738 1.08838 24.328 1.03949 24.1145 1.12793C23.9009 1.21638 23.7617 1.42474 23.7617 1.65586V7.60826Z" fill="#E98315"/>
<path fill-rule="evenodd" clip-rule="evenodd" d="M13.0093 17.8465C13.0093 18.1621 13.2651 18.418 13.5807 18.418H26.1187C26.4343 18.418 26.6901 18.1621 26.6901 17.8465C26.6901 17.5309 26.4343 17.2751 26.1187 17.2751H13.5807C13.2651 17.2751 13.0093 17.5309 13.0093 17.8465Z" fill="#E98315"/>
<path fill-rule="evenodd" clip-rule="evenodd" d="M12.4521 12.4891C12.4521 12.8047 12.708 13.0605 13.0236 13.0605H26.1188C26.4344 13.0605 26.6903 12.8047 26.6903 12.4891C26.6903 12.1735 26.4344 11.9177 26.1188 11.9177H13.0236C12.708 11.9177 12.4521 12.1735 12.4521 12.4891Z" fill="#E98315"/>
<path fill-rule="evenodd" clip-rule="evenodd" d="M15.4282 23.204C15.4282 23.5196 15.6841 23.7754 15.9997 23.7754H26.1187C26.4343 23.7754 26.6902 23.5196 26.6902 23.204C26.6902 22.8884 26.4343 22.6325 26.1187 22.6325H15.9997C15.6841 22.6325 15.4282 22.8884 15.4282 23.204Z" fill="#E98315"/>
<path fill-rule="evenodd" clip-rule="evenodd" d="M8.28564 23.204C8.28564 23.5196 8.54148 23.7754 8.85707 23.7754H11.238C11.5536 23.7754 11.8095 23.5196 11.8095 23.204C11.8095 22.8884 11.5536 22.6325 11.238 22.6325H9.4285V19.6325C9.4285 19.3169 9.17266 19.0611 8.85707 19.0611C8.54148 19.0611 8.28564 19.3169 8.28564 19.6325V23.204Z" fill="#E98315"/>
</svg>
