<svg width="24" height="24" viewBox="0 0 24 24" fill="none" xmlns="http://www.w3.org/2000/svg">
<circle opacity="0.1" cx="12" cy="12" r="12" fill="#4040FF"/>
<path d="M14.208 5.8125C15.1621 6.06856 16.0321 6.57107 16.7306 7.26959C17.4291 7.96812 17.9316 8.83809 18.1877 9.79219" stroke="#4040FF" stroke-width="1.5" stroke-linecap="round" stroke-linejoin="round"/>
<path d="M13.624 7.98438C14.1979 8.13677 14.7212 8.43816 15.141 8.85799C15.5609 9.27782 15.8622 9.80117 16.0146 10.375" stroke="#4040FF" stroke-width="1.5" stroke-linecap="round" stroke-linejoin="round"/>
<path d="M9.50391 11.7748C10.0827 12.9702 11.0493 13.9342 12.2461 14.51C12.3344 14.5518 12.432 14.5699 12.5294 14.5625C12.6268 14.5551 12.7206 14.5225 12.8016 14.4678L14.5594 13.2936C14.637 13.2409 14.7268 13.2088 14.8202 13.2002C14.9137 13.1916 15.0078 13.2068 15.0938 13.2444L18.3844 14.6577C18.4968 14.7045 18.5908 14.7869 18.6518 14.8924C18.7128 14.9978 18.7374 15.1204 18.7219 15.2412C18.6176 16.0553 18.2202 16.8034 17.6042 17.3457C16.9882 17.8879 16.1957 18.1872 15.375 18.1873C12.8389 18.1873 10.4066 17.1799 8.61329 15.3865C6.81997 13.5932 5.8125 11.161 5.8125 8.62484C5.81268 7.80415 6.1119 7.01165 6.65416 6.39562C7.19642 5.7796 7.94456 5.38226 8.75859 5.27796C8.87942 5.26244 9.00199 5.28707 9.10745 5.34806C9.2129 5.40904 9.29538 5.503 9.34219 5.61546L10.7555 8.91312C10.7922 8.99774 10.8076 9.0901 10.8002 9.18206C10.7929 9.27402 10.763 9.36276 10.7133 9.44046L9.53906 11.2264C9.48679 11.3072 9.4561 11.4 9.44995 11.496C9.44379 11.5921 9.46237 11.688 9.50391 11.7748Z" stroke="#4040FF" stroke-width="1.5" stroke-linecap="round" stroke-linejoin="round"/>
</svg>
