<svg width="32" height="32" viewBox="0 0 32 32" fill="none" xmlns="http://www.w3.org/2000/svg">
<path d="M20.0678 17.835C20.2063 17.7428 20.3656 17.6867 20.5312 17.6716C20.6969 17.6565 20.8637 17.683 21.0165 17.7487L26.9115 20.39C27.1102 20.4749 27.276 20.6218 27.3842 20.8089C27.4924 20.9959 27.537 21.2129 27.5115 21.4275C27.3173 22.8788 26.6026 24.2101 25.5004 25.174C24.3981 26.1379 22.9833 26.6686 21.519 26.6675C17.0104 26.6675 12.6863 24.8764 9.49823 21.6883C6.31011 18.5001 4.51904 14.1761 4.51904 9.66745C4.51792 8.20321 5.04864 6.78839 6.0125 5.68612C6.97635 4.58385 8.30773 3.86915 9.75904 3.67495C9.97359 3.64947 10.1906 3.69415 10.3776 3.80231C10.5647 3.91047 10.7116 4.07629 10.7965 4.27495L13.4378 10.175C13.5027 10.3265 13.5291 10.4917 13.5147 10.6559C13.5003 10.8202 13.4456 10.9783 13.3553 11.1162L10.684 14.2925C10.5893 14.4354 10.5333 14.6005 10.5214 14.7717C10.5096 14.9428 10.5424 15.114 10.6165 15.2687C11.6503 17.385 13.8378 19.5462 15.9603 20.57C16.1158 20.6438 16.2878 20.6758 16.4595 20.6629C16.6311 20.65 16.7964 20.5925 16.939 20.4962L20.0678 17.835Z" stroke="#0A0A26" stroke-width="1.5" stroke-linecap="round" stroke-linejoin="round"/>
</svg>
