<svg width="65" height="64" viewBox="0 0 65 64" fill="none" xmlns="http://www.w3.org/2000/svg">
<path d="M16.9411 39.7726H20.3256C20.0467 40.5713 19.494 41.2455 18.7655 41.6757C18.0371 42.1059 17.1799 42.2643 16.3458 42.1228C15.5117 41.9814 14.7546 41.5492 14.2087 40.9029C13.6628 40.2567 13.3633 39.438 13.3633 38.592C13.3633 37.746 13.6628 36.9273 14.2087 36.281C14.7546 35.6347 15.5117 35.2026 16.3458 35.0612C17.1799 34.9197 18.0371 35.0781 18.7655 35.5083C19.494 35.9385 20.0467 36.6127 20.3256 37.4114H16.9411C16.628 37.4114 16.3277 37.5357 16.1063 37.7572C15.8848 37.9786 15.7605 38.2789 15.7605 38.592C15.7605 38.9051 15.8848 39.2054 16.1063 39.4268C16.3277 39.6482 16.628 39.7726 16.9411 39.7726ZM51.6515 38.592C51.6532 39.169 51.5156 39.738 51.2506 40.2506C50.9856 40.7632 50.6008 41.2043 50.129 41.5366C49.6572 41.8689 49.1123 42.0825 48.5403 42.1593C47.9684 42.2361 47.3864 42.1739 46.8436 41.978C46.3009 41.782 45.8133 41.4581 45.4224 41.0336C45.0315 40.6091 44.7487 40.0967 44.5979 39.5396C44.4472 38.9826 44.433 38.3974 44.5566 37.8338C44.6801 37.2701 44.9377 36.7445 45.3076 36.3016C46.1794 37.599 47.1393 38.835 48.1805 40.0009C48.286 40.1161 48.4135 40.209 48.5555 40.2743C48.6974 40.3395 48.851 40.3758 49.0071 40.3809C49.1633 40.3861 49.3189 40.36 49.4648 40.3042C49.6108 40.2484 49.7441 40.164 49.857 40.056C50.0829 39.8401 50.2146 39.5438 50.2235 39.2314C50.2323 38.919 50.1176 38.6157 49.9042 38.3873C48.9762 37.3459 48.1215 36.2413 47.3462 35.0816C47.8669 34.9767 48.4044 34.9885 48.92 35.1161C49.4356 35.2437 49.9165 35.484 50.3282 35.8197C50.7399 36.1553 51.072 36.578 51.3009 37.0574C51.5297 37.5367 51.6494 38.0608 51.6515 38.592Z" fill="#4040FF" fill-opacity="0.3"/>
<path d="M48.0627 30.1623C46.9205 30.162 45.7902 30.395 44.7412 30.8471C45.4732 32.2009 46.2052 33.3894 46.8742 34.389C47.2606 34.278 47.6608 34.2223 48.0627 34.2237C48.9275 34.2245 49.7726 34.4817 50.4912 34.9627C51.2098 35.4438 51.7695 36.1272 52.0997 36.9264C52.43 37.7256 52.5157 38.6048 52.3463 39.4528C52.1768 40.3008 51.7597 41.0795 51.1477 41.6904C50.5356 42.3013 49.7562 42.717 48.9079 42.885C48.0596 43.0529 47.1806 42.9655 46.382 42.6339C45.5834 42.3022 44.901 41.7412 44.4212 41.0218C43.9414 40.3023 43.6858 39.4568 43.6865 38.592C43.6854 37.4897 44.1048 36.4284 44.8593 35.6247C44.1824 34.6094 43.4504 33.4209 42.7184 32.075C41.1821 33.335 40.1399 35.0971 39.7758 37.0504C39.4116 39.0037 39.7489 41.0229 40.728 42.7519C41.7072 44.4809 43.2654 45.8087 45.1279 46.501C46.9903 47.1934 49.0375 47.2059 50.9083 46.5364C52.7791 45.8669 54.3534 44.5583 55.3537 42.8414C56.3539 41.1245 56.7158 39.1096 56.3756 37.152C56.0354 35.1943 55.0149 33.4196 53.4941 32.1409C51.9732 30.8621 50.0497 30.1614 48.0627 30.1623ZM46.709 22.016V24.6921C46.7101 24.933 46.6365 25.1683 46.4984 25.3656C46.3603 25.563 46.1643 25.7126 45.9376 25.794C44.8528 26.1709 43.7091 26.3495 42.561 26.3214C41.8333 24.6322 41.2181 22.8969 40.7192 21.1266C42.1439 20.4655 44.269 19.8909 46.1659 21.0322C46.3344 21.1345 46.4732 21.2791 46.5685 21.4517C46.6637 21.6243 46.7122 21.8189 46.709 22.016ZM25.5379 38.1985C25.5694 38.4599 25.5694 38.7241 25.5379 38.9856H16.9414C16.837 38.9856 16.7369 38.9441 16.6631 38.8703C16.5893 38.7965 16.5479 38.6964 16.5479 38.592C16.5479 38.4876 16.5893 38.3875 16.6631 38.3137C16.7369 38.2399 16.837 38.1985 16.9414 38.1985H25.5379Z" fill="#4040FF" fill-opacity="0.3"/>
<path d="M49.3141 39.4894C49.2772 39.5252 49.2336 39.5531 49.1857 39.5717C49.1378 39.5903 49.0867 39.5992 49.0353 39.5977C48.984 39.5962 48.9334 39.5845 48.8867 39.5632C48.84 39.5419 48.798 39.5115 48.7632 39.4737C45.945 36.2001 43.6148 32.5364 41.8447 28.5962C40.7506 29.029 37.0749 31.0125 37.3504 38.0884C37.3624 38.315 37.3176 38.5409 37.22 38.7458C37.1224 38.9506 36.9751 39.1278 36.7916 39.2612C35.2852 40.2845 33.4961 40.8102 31.6755 40.7645C29.7602 40.7278 27.8712 40.3105 26.1187 39.5366C26.1502 39.2218 26.1659 38.907 26.1659 38.5921C26.164 37.3593 25.9151 36.1394 25.4338 35.0044C24.9525 33.8693 24.2487 32.8423 23.3638 31.9839C22.479 31.1254 21.4311 30.453 20.282 30.0063C19.133 29.5597 17.906 29.3478 16.6737 29.3832C16.6445 29.1089 16.5411 28.8477 16.3746 28.6276C16.2336 28.4514 16.0584 28.3054 15.8596 28.1986C15.6608 28.0917 15.4424 28.0262 15.2176 28.0058C13.3026 28.1558 11.3767 27.9394 9.54271 27.3683C9.384 27.31 9.2422 27.2134 9.12998 27.0869C9.01776 26.9605 8.93863 26.8082 8.89964 26.6437C8.86066 26.4792 8.86305 26.3076 8.90659 26.1442C8.95013 25.9809 9.03348 25.8308 9.14917 25.7076C10.8571 23.9917 13.3286 23.2282 17.1538 23.2282C18.6886 23.2629 20.1634 23.8306 21.3254 24.8339C21.8483 25.5195 22.3068 26.252 22.6949 27.022C22.7667 27.1417 22.8681 27.2408 22.9895 27.3098C23.1108 27.3788 23.248 27.4152 23.3875 27.4155C24.6311 27.4391 27.0711 27.4155 28.3147 27.3919C28.4817 27.3913 28.6441 27.3375 28.7785 27.2385C28.9129 27.1394 29.0123 27.0002 29.0624 26.841C29.4332 25.4447 30.3114 24.237 31.5254 23.4538C32.7394 22.6707 34.2018 22.3686 35.6267 22.6064C36.3036 22.7245 38.4287 23.0787 39.1292 22.5356C39.1948 22.4839 39.2494 22.4198 39.29 22.3468C39.3305 22.2738 39.3561 22.1935 39.3654 22.1106C38.9561 20.7725 38.594 19.3715 38.2949 17.9154C38.2649 17.7675 38.182 17.6356 38.0618 17.5443C37.9416 17.453 37.7922 17.4087 37.6416 17.4195C36.111 17.5391 34.667 18.1777 33.5488 19.2298C33.4736 19.3019 33.3735 19.3421 33.2694 19.3421C33.1653 19.3421 33.0651 19.3019 32.99 19.2298C32.9531 19.1933 32.9238 19.1497 32.9038 19.1018C32.8839 19.0538 32.8736 19.0024 32.8736 18.9504C32.8736 18.8985 32.8839 18.847 32.9038 18.7991C32.9238 18.7511 32.9531 18.7076 32.99 18.671C34.235 17.4877 35.8503 16.7704 37.5629 16.6403C37.9078 16.6055 38.2532 16.7009 38.5313 16.9077C38.8095 17.1144 39.0003 17.4177 39.0663 17.758C40.483 25.7312 46.1878 35.5461 49.3299 38.9306C49.3657 38.9682 49.3938 39.0125 49.4124 39.0611C49.4311 39.1096 49.4399 39.1613 49.4385 39.2133C49.437 39.2652 49.4253 39.3164 49.4039 39.3638C49.3826 39.4112 49.3521 39.4539 49.3141 39.4894Z" fill="#4040FF" fill-opacity="0.7"/>
<path d="M16.9411 42.9685C16.1275 42.9681 15.3301 42.7407 14.6387 42.3118C13.9472 41.883 13.3892 41.2697 13.0273 40.5409C12.6654 39.8122 12.5141 38.9969 12.5902 38.1869C12.6664 37.3768 12.9672 36.6041 13.4586 35.9556C13.95 35.3071 14.6126 34.8086 15.3719 34.5162C16.1311 34.2238 16.9569 34.149 17.7564 34.3003C18.5558 34.4516 19.2972 34.823 19.8971 35.3727C20.497 35.9223 20.9316 36.6285 21.152 37.4117H25.2921C24.9933 35.2974 23.904 33.375 22.2437 32.0321C20.5835 30.6893 18.4759 30.0258 16.3458 30.1756C14.2157 30.3253 12.2216 31.2772 10.7656 32.8391C9.30962 34.4011 8.5 36.457 8.5 38.5924C8.5 40.7277 9.30962 42.7836 10.7656 44.3456C12.2216 45.9075 14.2157 46.8594 16.3458 47.0091C18.4759 47.1589 20.5835 46.4954 22.2437 45.1526C23.904 43.8097 24.9933 41.8873 25.2921 39.773H21.152C20.8931 40.691 20.3419 41.4997 19.582 42.0763C18.8221 42.653 17.895 42.9662 16.9411 42.9685Z" fill="#4040FF" fill-opacity="0.3"/>
</svg>
