<svg width="65" height="64" viewBox="0 0 65 64" fill="none" xmlns="http://www.w3.org/2000/svg">
<path d="M46.0333 34.6806C45.9684 34.6476 45.904 34.6128 45.8402 34.5763C45.7811 34.5997 45.722 34.6215 45.6663 34.6406C45.4471 34.7113 45.2208 34.758 44.9915 34.7797C45.9924 37.7537 47.3185 42.9955 45.6411 46.2991C44.9733 47.6139 43.8863 48.5122 42.4106 48.9678C41.8578 49.1428 41.2817 49.2331 40.7019 49.2357C35.6166 49.2357 32.4765 41.9312 31.2487 38.3659L28.6686 39.1311C29.2321 41.1781 30.4686 44.8704 32.6513 47.753C34.7879 50.5774 37.3209 51.9992 40.2036 51.9992C40.9456 51.9963 41.6849 51.9088 42.4071 51.7383C44.668 51.2166 46.3298 50.0548 47.342 48.2861C49.569 44.3956 48.2316 38.4068 47.2098 35.118C46.8014 35.0203 46.4064 34.8734 46.0333 34.6806ZM37.8653 31.6884C38.0002 30.3346 37.8903 28.9675 37.541 27.6526C37.5279 27.61 36.2627 23.4117 34.7913 19.8003C34.5305 19.669 33.373 19.1281 32.5304 19.5394C32.0521 19.7725 31.7478 20.2812 31.6156 21.0534C31.7504 21.4508 31.9087 21.856 32.0921 22.3221C32.743 23.9367 33.2925 25.5904 33.7374 27.2735C34.3652 29.6066 34.3365 31.2249 33.6504 32.3658C32.7287 33.891 30.7199 34.3432 28.3947 34.8658C27.9964 34.9528 27.5834 35.0484 27.1651 35.1484C25.3346 35.5884 23.5998 35.2267 21.9989 34.0736C20.8386 33.2261 19.9301 32.0795 19.3702 30.7562C18.6632 29.1309 17.3727 26.0457 16.5344 23.6117C15.7388 22.9578 15.0196 22.7169 14.3953 22.896C13.4657 23.163 12.99 24.2952 12.8892 24.563L16.5414 33.7302C17.8988 36.5902 20.118 38.3763 23.1363 39.0407C24.4962 39.3399 25.8992 39.3882 27.2764 39.1833L33.3939 37.3624C36.0401 36.4354 37.547 34.5223 37.8653 31.6884Z" fill="#4040FF" fill-opacity="0.7"/>
<path d="M15.7879 14.9768C15.8105 14.971 15.8339 14.9698 15.8569 14.9732C15.8799 14.9766 15.902 14.9847 15.9219 14.9968C17.9497 16.2272 17.0741 17.8664 17.0645 17.8821C17.0429 17.9211 17.0071 17.9504 16.9645 17.9638C16.3314 18.1621 15.8488 18.4768 15.5219 18.8995C16.0532 19.4603 16.6454 19.7003 17.1245 19.5438H17.1297C18.041 19.2377 18.3471 17.656 17.8149 16.0116C17.4671 14.9324 16.8088 14.0402 16.1036 13.682C15.781 13.5159 15.4636 13.4785 15.1871 13.5654C14.5488 13.7741 14.187 14.635 14.2436 15.7516C14.71 15.4065 15.2325 15.1444 15.7879 14.9768Z" fill="#4040FF" fill-opacity="0.3"/>
<path d="M18.1508 15.9018C18.569 17.1923 18.5047 18.4236 18.0534 19.1836C19.9508 18.314 20.6291 16.9975 20.0691 15.2705C19.9238 14.8253 19.5473 14.0096 18.6412 13.5505C17.9655 13.207 17.1299 13.1296 16.149 13.3157C16.1881 13.3331 16.2272 13.3496 16.2655 13.3696C17.0586 13.7748 17.7638 14.7209 18.1508 15.9018ZM42.2886 29.9343C41.6677 27.9951 41.7243 26.0446 42.3156 24.4933C40.3868 25.1959 39.5138 27.8847 40.3703 30.5578C40.8695 32.1169 41.8982 33.4213 43.1208 34.0483C43.9087 34.4517 44.7148 34.5518 45.4617 34.3404C44.0339 33.3996 42.8956 31.8265 42.2886 29.9343ZM32.3858 19.2219C32.8206 19.0106 33.3093 19.0045 33.7458 19.0775C33.1867 17.4705 31.951 15.0366 29.4849 14.4209C29.5192 14.6179 29.5416 14.8169 29.5518 15.0166C29.5822 15.5966 29.498 16.177 29.304 16.7244C30.2675 17.174 31.1232 18.1497 31.8519 19.6323C32 19.4605 32.1817 19.3209 32.3858 19.2219ZM14.3072 22.5619C14.5267 22.4998 14.7557 22.4783 14.9829 22.4985C14.6646 21.4915 14.4498 20.1689 14.9829 19.1071C15.3211 18.4297 15.9298 17.9401 16.789 17.6523C16.9072 17.3836 17.282 16.261 15.8072 15.3322C15.4594 15.4435 13.8768 16.0279 13.0393 17.6732C12.2811 19.161 12.3245 21.0837 13.1559 23.3915C13.4333 23.0437 13.8115 22.7054 14.3072 22.5619ZM28.4214 12.8252C27.9866 12.2904 27.4457 12 26.8822 12H26.804C24.0778 12.133 22.7465 13.2557 22.8465 15.3392C22.8682 15.7862 23.0074 16.6375 23.703 17.314C24.437 18.0288 25.5805 18.3575 27.104 18.281C27.8953 18.2427 28.5649 17.6358 28.9301 16.7531C29.1464 16.207 29.2419 15.6205 29.2101 15.034C29.1649 14.1844 28.8866 13.4 28.4214 12.8252Z" fill="#4040FF" fill-opacity="0.3"/>
<path d="M48.4915 22.2219C47.8619 21.8878 47.1616 21.7089 46.4489 21.7002C46.0559 21.6999 45.6653 21.7615 45.2914 21.8828C42.6827 22.7272 41.487 26.2925 42.6201 29.8308C43.2697 31.8587 44.6088 33.557 46.201 34.3735C46.5798 34.5708 46.983 34.717 47.4002 34.8083H47.4054C48.0672 34.9536 48.7557 34.9215 49.4011 34.7152C52.0098 33.8709 53.2055 30.3056 52.0725 26.7673C51.4229 24.7368 50.0837 23.0385 48.4915 22.2219ZM48.2019 33.4787C48.1764 33.5171 48.1367 33.5437 48.0916 33.5529C48.0464 33.562 47.9995 33.5528 47.9611 33.5274C46.5428 32.5856 45.3888 30.9812 44.794 29.1264C44.1993 27.2716 44.2062 25.2681 44.8219 23.6646C44.8296 23.6426 44.8417 23.6225 44.8574 23.6053C44.873 23.5881 44.892 23.5742 44.9131 23.5645C44.9343 23.5548 44.9571 23.5494 44.9804 23.5486C45.0036 23.5479 45.0268 23.5519 45.0485 23.5602C45.0702 23.5686 45.09 23.5813 45.1067 23.5974C45.1235 23.6136 45.1368 23.633 45.1459 23.6544C45.155 23.6758 45.1597 23.6988 45.1598 23.722C45.1598 23.7453 45.1552 23.7684 45.1462 23.7898C44.5584 25.3203 44.5514 27.2264 45.1254 29.0203C45.6958 30.8012 46.8002 32.3387 48.1532 33.2378C48.1916 33.2633 48.2183 33.303 48.2274 33.3482C48.2365 33.3933 48.2274 33.4403 48.2019 33.4787Z" fill="#4040FF" fill-opacity="0.3"/>
</svg>
