<svg width="65" height="64" viewBox="0 0 65 64" fill="none" xmlns="http://www.w3.org/2000/svg">
<path d="M19.5476 32.9521C18.5681 32.9521 17.6106 33.2426 16.7962 33.7868C15.9818 34.3309 15.347 35.1044 14.9722 36.0093C14.5974 36.9143 14.4993 37.91 14.6904 38.8707C14.8815 39.8314 15.3531 40.7138 16.0457 41.4064C16.7383 42.099 17.6208 42.5707 18.5814 42.7617C19.5421 42.9528 20.5379 42.8548 21.4428 42.4799C22.3477 42.1051 23.1212 41.4703 23.6653 40.6559C24.2095 39.8415 24.5 38.884 24.5 37.9045C24.4985 36.5915 23.9762 35.3327 23.0478 34.4043C22.1194 33.4759 20.8606 32.9536 19.5476 32.9521ZM19.5476 40.1902C19.0955 40.1902 18.6536 40.0562 18.2777 39.805C17.9018 39.5539 17.6089 39.1969 17.4359 38.7792C17.2629 38.3616 17.2176 37.902 17.3058 37.4586C17.394 37.0152 17.6117 36.6079 17.9314 36.2883C18.251 35.9686 18.6583 35.7509 19.1017 35.6627C19.5451 35.5745 20.0046 35.6198 20.4223 35.7928C20.84 35.9658 21.1969 36.2588 21.4481 36.6347C21.6993 37.0105 21.8333 37.4525 21.8333 37.9045C21.8333 38.5107 21.5925 39.0921 21.1638 39.5208C20.7352 39.9494 20.1538 40.1902 19.5476 40.1902ZM46.9761 32.9521C45.9967 32.9521 45.0392 33.2426 44.2247 33.7868C43.4103 34.3309 42.7756 35.1044 42.4007 36.0093C42.0259 36.9143 41.9278 37.91 42.1189 38.8707C42.31 39.8314 42.7817 40.7138 43.4743 41.4064C44.1669 42.099 45.0493 42.5707 46.01 42.7617C46.9706 42.9528 47.9664 42.8548 48.8713 42.4799C49.7763 42.1051 50.5497 41.4703 51.0939 40.6559C51.6381 39.8415 51.9285 38.884 51.9285 37.9045C51.927 36.5915 51.4048 35.3327 50.4764 34.4043C49.5479 33.4759 48.2891 32.9536 46.9761 32.9521ZM46.9761 40.1902C46.5241 40.1902 46.0822 40.0562 45.7063 39.805C45.3304 39.5539 45.0374 39.1969 44.8644 38.7792C44.6914 38.3616 44.6462 37.902 44.7343 37.4586C44.8225 37.0152 45.0402 36.6079 45.3599 36.2883C45.6796 35.9686 46.0868 35.7509 46.5302 35.6627C46.9736 35.5745 47.4332 35.6198 47.8508 35.7928C48.2685 35.9658 48.6255 36.2588 48.8766 36.6347C49.1278 37.0105 49.2619 37.4525 49.2619 37.9045C49.2619 38.5107 49.021 39.0921 48.5924 39.5208C48.1637 39.9494 47.5823 40.1902 46.9761 40.1902Z" fill="#4040FF" fill-opacity="0.3"/>
<path d="M53.5857 28.861L44.6904 27.2381L37.1176 20.9548C36.3671 20.3383 35.4261 20.0009 34.4548 20H23.2981C22.6694 19.9985 22.0485 20.1392 21.4818 20.4116C20.9151 20.6839 20.4174 21.0809 20.0258 21.5728L15.1888 27.2381H11.9286C11.0196 27.2391 10.1481 27.6007 9.50532 28.2434C8.86256 28.8862 8.50101 29.7577 8.5 30.6667V34.8571C8.50124 35.9681 8.94313 37.0333 9.72873 37.8189C10.5143 38.6045 11.5795 39.0464 12.6905 39.0476H13.5614C13.3924 38.166 13.4202 37.2579 13.6428 36.3882C13.8654 35.5185 14.2774 34.7088 14.8493 34.0168C15.4212 33.3248 16.1389 32.7677 16.9511 32.3853C17.7633 32.0029 18.6499 31.8046 19.5476 31.8046C20.4453 31.8046 21.332 32.0029 22.1441 32.3853C22.9563 32.7677 23.674 33.3248 24.2459 34.0168C24.8178 34.7088 25.2298 35.5185 25.4524 36.3882C25.6751 37.2579 25.7028 38.166 25.5338 39.0476H40.99C40.8209 38.166 40.8487 37.2579 41.0713 36.3882C41.294 35.5185 41.706 34.7088 42.2779 34.0168C42.8498 33.3248 43.5674 32.7677 44.3796 32.3853C45.1918 32.0029 46.0784 31.8046 46.9762 31.8046C47.8739 31.8046 48.7605 32.0029 49.5727 32.3853C50.3849 32.7677 51.1026 33.3248 51.6744 34.0168C52.2463 34.7088 52.6583 35.5185 52.881 36.3882C53.1036 37.2579 53.1314 38.166 52.9623 39.0476H53.0714C53.9804 39.0466 54.8519 38.6851 55.4946 38.0423C56.1374 37.3995 56.4989 36.528 56.5 35.619V32.2507C56.5041 31.4294 56.2115 30.6342 55.6761 30.0114C55.1406 29.3886 54.3983 28.9801 53.5857 28.861ZM25.2619 26.0952C25.2619 26.3983 25.1415 26.689 24.9272 26.9034C24.7128 27.1177 24.4221 27.2381 24.119 27.2381H19.0948C18.9855 27.2382 18.8785 27.2069 18.7865 27.148C18.6944 27.0891 18.6212 27.0051 18.5755 26.9059C18.5297 26.8066 18.5134 26.6964 18.5284 26.5882C18.5434 26.4799 18.5892 26.3783 18.6602 26.2952L21.9855 22.4C22.0929 22.2745 22.2262 22.1737 22.3762 22.1047C22.5263 22.0356 22.6895 21.9999 22.8547 22H24.119C24.4221 22 24.7128 22.1204 24.9272 22.3347C25.1415 22.5491 25.2619 22.8398 25.2619 23.1429V26.0952ZM30.9762 31.4286H29.4524C29.1493 31.4286 28.8586 31.3082 28.6442 31.0938C28.4299 30.8795 28.3095 30.5888 28.3095 30.2857C28.3095 29.9826 28.4299 29.6919 28.6442 29.4776C28.8586 29.2633 29.1493 29.1429 29.4524 29.1429H30.9762C31.2793 29.1429 31.57 29.2633 31.7843 29.4776C31.9986 29.6919 32.119 29.9826 32.119 30.2857C32.119 30.5888 31.9986 30.8795 31.7843 31.0938C31.57 31.3082 31.2793 31.4286 30.9762 31.4286ZM39.9742 27.2661L29.0687 27.2408C28.7661 27.2401 28.4761 27.1193 28.2623 26.9051C28.0486 26.6908 27.9286 26.4006 27.9286 26.0979V23.1429C27.9286 22.8398 28.049 22.5491 28.2633 22.3347C28.4776 22.1204 28.7683 22 29.0714 22H34.5522C34.809 22 35.0584 22.0866 35.2601 22.2457L40.3294 26.2457C40.4228 26.3193 40.491 26.4202 40.5244 26.5344C40.5577 26.6485 40.5546 26.7702 40.5155 26.8826C40.4764 26.9949 40.4033 27.0922 40.3062 27.1609C40.2092 27.2297 40.0931 27.2665 39.9742 27.2661Z" fill="#4040FF" fill-opacity="0.7"/>
</svg>
