<svg width="65" height="64" viewBox="0 0 65 64" fill="none" xmlns="http://www.w3.org/2000/svg">
<path d="M47.2719 22.3214C50.1161 22.3214 52.4217 20.0109 52.4217 17.1607C52.4217 14.3105 50.1161 12 47.2719 12C44.4277 12 42.1221 14.3105 42.1221 17.1607C42.1221 20.0109 44.4277 22.3214 47.2719 22.3214Z" fill="#4040FF" fill-opacity="0.3"/>
<path d="M40.5779 40.9344H43.8907V44.2542H40.5779V40.9344ZM34.5475 22.8783C35.1901 22.307 36.017 21.9925 36.8759 21.9925C37.7348 21.9925 38.5618 22.3071 39.2043 22.8783L40.1277 23.699V20.7665C40.1277 15.9391 36.2086 12.0117 31.3912 12.0117C27.1716 12.0117 23.6411 15.0252 22.8301 19.0174C24.1566 21.0364 26.4812 24.9829 27.4755 29.165L34.5475 22.8783Z" fill="#4040FF" fill-opacity="0.3"/>
<path d="M51.3303 49.6409H49.7149V38.4889L50.4762 39.1656C50.6896 39.356 50.9658 39.4611 51.2519 39.4608C51.4174 39.461 51.5811 39.426 51.7321 39.358C51.883 39.29 52.0177 39.1906 52.1273 39.0665C52.5559 38.5823 52.5117 37.8415 52.0284 37.412L48.5998 34.3641V28.2899C48.5998 27.6426 48.0761 27.1179 47.4302 27.1179C46.7842 27.1179 46.2606 27.6426 46.2606 28.2899V32.2847L37.6518 24.6319C37.438 24.4417 37.1618 24.3366 36.8757 24.3366C36.5895 24.3366 36.3134 24.4417 36.0996 24.6319L21.723 37.4119C21.2398 37.8414 21.1956 38.5822 21.6242 39.0664C22.0529 39.5507 22.7922 39.595 23.2753 39.1654L24.0365 38.4887V49.6407H20.2619V44.5274C20.7615 44.3744 21.2422 44.1232 21.6975 43.7787V41.7117C20.9919 41.5455 20.355 41.1649 19.8744 40.6221C18.5906 39.1718 18.7235 36.9451 20.1707 35.6585L25.4497 30.9657C24.5611 25.2849 20.2373 19.362 20.033 19.0849C19.8125 18.7859 19.4634 18.6094 19.0923 18.6094C18.7212 18.6094 18.3722 18.7859 18.1516 19.0849C17.9239 19.3937 12.5752 26.7195 12.5752 32.904C12.5752 35.9225 13.1759 38.7787 14.2667 40.9465C15.2289 42.8588 16.4994 44.0923 17.9227 44.5275V49.6409H13.6696C13.0237 49.6409 12.5 50.1656 12.5 50.8129C12.5 51.4602 13.0237 51.9849 13.6696 51.9999H51.3304C51.9763 51.9849 52.5 51.4602 52.5 50.8129C52.5 50.1656 51.9763 49.6409 51.3303 49.6409ZM38.2385 39.7625C38.2385 39.1152 38.7622 38.5904 39.4082 38.5904H45.0603C45.7062 38.5904 46.2299 39.1152 46.2299 39.7625V45.4264C46.2299 46.0737 45.7062 46.5985 45.0603 46.5985H39.4082C38.7622 46.5985 38.2385 46.0737 38.2385 45.4264V39.7625ZM31.8339 49.6409V40.9345H29.4947V49.6409H27.1556V39.7625C27.1556 39.1151 27.6793 38.5904 28.3252 38.5904H33.0036C33.6495 38.5904 34.1732 39.1152 34.1732 39.7625V49.6409H31.8339Z" fill="#4040FF" fill-opacity="0.7"/>
</svg>
