<svg width="65" height="64" viewBox="0 0 65 64" fill="none" xmlns="http://www.w3.org/2000/svg">
<path d="M13.0227 28.2709C13.1673 28.2896 13.3137 28.255 13.4346 28.1736C13.5555 28.0923 13.6427 27.9696 13.6798 27.8287C13.8156 27.3129 14.2984 25.8396 14.9024 25.185C15.6999 24.4164 16.7637 23.9859 17.8713 23.9834H17.8918C18.9908 23.9807 20.0466 24.411 20.8307 25.181C21.6018 25.9783 22.0342 27.0431 22.0373 28.1523C22.0373 28.3114 22.1005 28.464 22.213 28.5766C22.3256 28.6891 22.4782 28.7523 22.6373 28.7523C22.7964 28.7523 22.949 28.6891 23.0616 28.5766C23.1741 28.464 23.2373 28.3114 23.2373 28.1523C23.2288 27.6005 23.3317 27.0527 23.5396 26.5415C23.7476 26.0304 24.0565 25.5664 24.4478 25.1773C24.8391 24.7881 25.3048 24.4819 25.8171 24.2768C26.3294 24.0716 26.8778 23.9719 27.4295 23.9834C28.5285 23.9807 29.5843 24.411 30.3684 25.181C31.1395 25.9783 31.5719 27.0431 31.575 28.1523V33.6072C31.575 33.7663 31.6382 33.9189 31.7507 34.0315C31.8633 34.144 32.0159 34.2072 32.175 34.2072C32.3341 34.2072 32.4867 34.144 32.5993 34.0315C32.7118 33.9189 32.775 33.7663 32.775 33.6072V28.1523C32.7666 27.6023 32.8688 27.0562 33.0755 26.5465C33.2822 26.0367 33.5893 25.5737 33.9784 25.1849C34.3675 24.7961 34.8307 24.4895 35.3406 24.2832C35.8506 24.0768 36.3967 23.9751 36.9467 23.9839H36.9667C38.0657 23.9812 39.1216 24.4114 39.9058 25.1815C40.6768 25.9789 41.1092 27.0437 41.1123 28.1529C41.1123 28.312 41.1755 28.4646 41.288 28.5772C41.4006 28.6897 41.5532 28.7529 41.7123 28.7529C41.8714 28.7529 42.024 28.6897 42.1366 28.5772C42.2491 28.4646 42.3123 28.312 42.3123 28.1529C42.3038 27.6029 42.406 27.0567 42.6127 26.5469C42.8194 26.0371 43.1264 25.5741 43.5155 25.1852C43.9046 24.7963 44.3679 24.4896 44.8778 24.2833C45.3878 24.077 45.934 23.9752 46.484 23.984C47.59 23.9753 48.6543 24.4059 49.4432 25.1812C50.0471 25.8312 50.5332 27.3112 50.6698 27.8287C50.7071 27.9695 50.7943 28.0919 50.9152 28.1731C51.0361 28.2543 51.1824 28.2888 51.3268 28.2701C51.4712 28.2514 51.6039 28.1808 51.7002 28.0715C51.7964 27.9622 51.8496 27.8216 51.8498 27.676V27.6509C51.8436 16.8124 43.0243 8 32.1873 8H32.15C26.935 8.00353 21.935 10.0785 18.25 13.7685C14.5649 17.4586 12.4966 22.4613 12.5 27.6763C12.5001 27.822 12.5532 27.9626 12.6494 28.072C12.7455 28.1814 12.8782 28.2521 13.0227 28.2709Z" fill="#4040FF" fill-opacity="0.7"/>
<path d="M25.519 33.8728H25.5206C25.7987 33.8727 26.074 33.8178 26.3308 33.7113C26.5877 33.6048 26.821 33.4488 27.0176 33.2521C27.2141 33.0554 27.37 32.822 27.4763 32.565C27.5826 32.3081 27.6373 32.0328 27.6372 31.7547C27.6371 31.4767 27.5822 31.2014 27.4757 30.9445C27.3692 30.6877 27.2132 30.4543 27.0165 30.2578C26.8198 30.0613 26.5864 29.9054 26.3294 29.7991C26.0725 29.6928 25.7972 29.6381 25.5191 29.6382H25.5176C25.2396 29.6383 24.9643 29.6931 24.7074 29.7996C24.4506 29.9061 24.2172 30.0621 24.0207 30.2588C23.8241 30.4555 23.6683 30.689 23.5619 30.9459C23.4556 31.2028 23.4009 31.4781 23.401 31.7562C23.4011 32.0342 23.456 32.3095 23.5625 32.5664C23.669 32.8232 23.825 33.0566 24.0217 33.2531C24.2183 33.4497 24.4518 33.6056 24.7087 33.7119C24.9656 33.8182 25.241 33.8729 25.519 33.8728ZM38.7861 35.6417H38.7876C39.0669 35.6435 39.3438 35.5901 39.6023 35.4844C39.8608 35.3788 40.0959 35.2231 40.294 35.0262C40.4921 34.8294 40.6492 34.5953 40.7565 34.3374C40.8637 34.0795 40.9189 33.803 40.9188 33.5237C40.9187 33.2445 40.8633 32.968 40.7559 32.7102C40.6485 32.4524 40.4912 32.2184 40.293 32.0216C40.0948 31.8249 39.8596 31.6693 39.601 31.5639C39.3424 31.4584 39.0655 31.4052 38.7862 31.4072H38.7849C38.5057 31.4054 38.2288 31.4588 37.9703 31.5644C37.7118 31.6701 37.4767 31.8258 37.2786 32.0227C37.0805 32.2195 36.9234 32.4537 36.8161 32.7115C36.7089 32.9694 36.6538 33.2459 36.6539 33.5252C36.654 33.8045 36.7093 34.0809 36.8167 34.3387C36.9241 34.5965 37.0815 34.8305 37.2797 35.0273C37.4779 35.224 37.7131 35.3795 37.9717 35.485C38.2303 35.5904 38.5072 35.6437 38.7864 35.6417H38.7861ZM42.0969 33.85C42.3109 33.8466 42.5149 33.7593 42.665 33.6068C42.8151 33.4543 42.8993 33.249 42.8993 33.035C42.8993 32.821 42.8151 32.6156 42.665 32.4632C42.5149 32.3107 42.3109 32.2233 42.0969 32.22H41.8402C42.0172 32.6313 42.1084 33.0744 42.1082 33.5222C42.1082 33.6324 42.103 33.7417 42.0925 33.8502L42.0969 33.85ZM20.7113 40.4241L20.713 44.4277L22.0486 44.4268C22.202 44.4268 22.3496 44.4855 22.461 44.5909C22.5724 44.6963 22.6392 44.8404 22.6477 44.9936L23.2574 56H27.8665L28.1423 50.649C28.0231 50.6092 27.9193 50.5329 27.8458 50.4309C27.7722 50.329 27.7325 50.2065 27.7323 50.0808L27.7303 47.5219C27.7332 46.414 28.1747 45.3524 28.9581 44.5691C29.7415 43.7858 30.8032 43.3446 31.911 43.3419L32.7827 43.3394H32.7858C33.8939 43.3395 34.9566 43.779 35.7411 44.5615C36.5256 45.344 36.9678 46.4057 36.9707 47.5137L36.9727 50.0726C36.9727 50.2317 36.9095 50.3843 36.797 50.4968C36.6845 50.6094 36.5319 50.6726 36.3727 50.6726H36.1885L36.5205 56H41.1361L41.7038 45.8727C41.7124 45.7197 41.7792 45.5757 41.8905 45.4704C42.0018 45.3651 42.1492 45.3063 42.3024 45.3062L43.6382 45.3053L43.6365 42.186C43.6341 41.3841 43.3139 40.6158 42.746 40.0496C42.1782 39.4834 41.409 39.1653 40.6071 39.1652H40.6049L37.0057 39.1678C36.3168 39.1664 35.6486 39.4027 35.1136 39.8368C35.0616 39.8787 35.0111 39.9231 34.9616 39.9685C34.9535 40.6548 34.6751 41.3102 34.1869 41.7926C33.6987 42.275 33.04 42.5454 32.3536 42.5453H32.3516C31.919 42.5457 31.4931 42.4385 31.1123 42.2333C30.7315 42.0281 30.4076 41.7314 30.17 41.3699C29.9324 41.0085 29.7884 40.5935 29.751 40.1626C29.7136 39.7316 29.7841 39.2981 29.9559 38.9011C29.9224 38.8437 29.8869 38.7874 29.8496 38.7323C29.5722 38.3215 29.1984 37.985 28.7608 37.7521C28.3233 37.5192 27.8353 37.397 27.3396 37.3963H27.3374L23.7382 37.3989C22.9365 37.4014 22.1682 37.7208 21.6011 38.2876C21.034 38.8543 20.714 39.6223 20.7109 40.4241H20.7113Z" fill="#4040FF" fill-opacity="0.3"/>
<path d="M32.7873 44.5391H32.7848L31.9131 44.5416C31.1232 44.5438 30.3663 44.8582 29.8075 45.4164C29.2486 45.9746 28.9333 46.7312 28.9302 47.521L28.9317 49.48L30.2431 49.4791C30.3922 49.4791 30.5359 49.5346 30.6463 49.6348C30.7567 49.735 30.8259 49.8727 30.8403 50.0211L31.4203 56.0001H33.3211L33.8634 50.0201C33.8769 49.871 33.9457 49.7324 34.0561 49.6314C34.1666 49.5304 34.3109 49.4744 34.4606 49.4743L35.7718 49.4734L35.7703 47.5146C35.768 46.7248 35.4528 45.9682 34.8936 45.4104C34.3345 44.8527 33.577 44.5394 32.7873 44.5391ZM32.3527 41.3454C32.5384 41.3469 32.7227 41.3116 32.8947 41.2415C33.0668 41.1715 33.2233 41.068 33.3552 40.9371C33.487 40.8063 33.5917 40.6506 33.6631 40.4791C33.7345 40.3076 33.7712 40.1236 33.7711 39.9378C33.7711 39.7521 33.7342 39.5681 33.6627 39.3967C33.5912 39.2252 33.4864 39.0696 33.3544 38.9388C33.2225 38.8081 33.0659 38.7047 32.8938 38.6348C32.7217 38.5648 32.5374 38.5297 32.3517 38.5313H32.3507C32.1649 38.5298 31.9807 38.5651 31.8086 38.6352C31.6365 38.7052 31.4801 38.8087 31.3482 38.9395C31.2163 39.0704 31.1116 39.226 31.0402 39.3976C30.9688 39.5691 30.9321 39.753 30.9322 39.9388C30.9322 40.1246 30.9691 40.3085 31.0406 40.48C31.1121 40.6514 31.2169 40.8071 31.3488 40.9378C31.4808 41.0686 31.6373 41.1719 31.8094 41.2419C31.9815 41.3118 32.1658 41.347 32.3516 41.3454H32.3527Z" fill="#4040FF" fill-opacity="0.3"/>
</svg>
