<svg width="65" height="64" viewBox="0 0 65 64" fill="none" xmlns="http://www.w3.org/2000/svg">
<path d="M45.3906 20.2813C45.3906 15.7585 41.7102 12 37.1875 12C35.4251 12 33.7783 12.7541 32.5 14.1114C31.2216 12.7541 29.5748 12 27.8125 12C23.2898 12 19.6094 15.7585 19.6094 20.2813C19.6094 24.8303 22.9476 27.1786 26.8134 29.8988C28.4076 31.0203 30.0567 32.1808 31.7321 33.6342L32.4988 34.3002L33.2667 33.6353C35.1607 31.9965 36.962 30.7137 38.5505 29.5818C42.3716 26.8616 45.3906 24.7124 45.3906 20.2813ZM36.0156 23.7969H33.6719V26.1406H31.3281V23.7969H28.9844V21.4531H31.3281V19.1094H33.6719V21.4531H36.0156V23.7969Z" fill="#4040FF" fill-opacity="0.3"/>
<path d="M51.085 22.7188C48.6943 22.7188 48.0772 33.8281 48.0303 34.0626C47.7922 35.6904 46.6455 38.1001 44.7089 39.551L39.6331 43.2364L38.2278 41.3596L43.3036 37.6753C45.3143 36.1678 46.2307 33.5937 43.7178 33.5937C41.4671 33.5937 37.2602 36.1995 36.013 37.2331C35.2776 37.8429 34.6857 38.6074 34.2795 39.4722C33.8733 40.3369 33.6628 41.2806 33.6631 42.2359V52.0001H40.6943C40.6943 50.875 41.3037 49.6484 42.2411 48.4766C43.2256 47.1875 44.6318 45.875 46.0849 44.5391C48.8505 41.9375 51.7177 39.2656 52.0928 36.547C52.3154 34.7207 52.5004 31.5885 52.4911 28.797C52.481 25.6708 52.2161 22.8198 51.085 22.7188ZM28.6944 37.0157C25.3896 34.7422 22.882 33.5937 21.2648 33.5937C18.7518 33.5937 19.6682 36.1678 21.6789 37.6753L26.7548 41.3596L25.3495 43.2364L20.2736 39.551C18.3369 38.1001 17.1902 35.6904 16.9521 34.0626C16.9052 33.8281 16.2881 22.7188 13.8974 22.7188C12.5849 22.8359 12.4443 26.6563 12.5146 30.3125C12.5616 32.9844 12.7725 35.5859 12.8896 36.547C13.2646 39.2656 16.1318 41.9376 18.8975 44.5391C20.3506 45.875 21.7568 47.1875 22.7412 48.4766C23.6786 49.6484 24.288 50.875 24.288 52.0001H31.3193V42.2827C31.3193 41.2615 31.0823 40.2543 30.6268 39.3403C30.1713 38.4263 29.5098 37.6305 28.6944 37.0157Z" fill="#4040FF" fill-opacity="0.7"/>
</svg>
