<svg width="40" height="40" viewBox="0 0 40 40" fill="none" xmlns="http://www.w3.org/2000/svg">
<circle opacity="0.1" cx="20" cy="20" r="20" fill="#4040FF"/>
<g clip-path="url(#clip0_2665_74921)">
<path d="M22.25 18.5H26" stroke="#4040FF" stroke-width="1.5" stroke-linecap="round" stroke-linejoin="round"/>
<path d="M22.25 21.5H26" stroke="#4040FF" stroke-width="1.5" stroke-linecap="round" stroke-linejoin="round"/>
<path d="M28.25 12.5H11.75C11.3358 12.5 11 12.8358 11 13.25V26.75C11 27.1642 11.3358 27.5 11.75 27.5H28.25C28.6642 27.5 29 27.1642 29 26.75V13.25C29 12.8358 28.6642 12.5 28.25 12.5Z" stroke="#4040FF" stroke-width="1.5" stroke-linecap="round" stroke-linejoin="round"/>
<path d="M17 21.5C18.2426 21.5 19.25 20.4926 19.25 19.25C19.25 18.0074 18.2426 17 17 17C15.7574 17 14.75 18.0074 14.75 19.25C14.75 20.4926 15.7574 21.5 17 21.5Z" stroke="#4040FF" stroke-width="1.5" stroke-linecap="round" stroke-linejoin="round"/>
<path d="M14 23.75C14.3328 22.4562 15.6022 21.5 17 21.5C18.3978 21.5 19.6681 22.4553 20 23.75" stroke="#4040FF" stroke-width="1.5" stroke-linecap="round" stroke-linejoin="round"/>
</g>
<defs>
<clipPath id="clip0_2665_74921">
<rect width="24" height="24" fill="white" transform="translate(8 8)"/>
</clipPath>
</defs>
</svg>
