<svg width="48" height="48" viewBox="0 0 48 48" fill="none" xmlns="http://www.w3.org/2000/svg">
<g opacity="0.2">
<path d="M44.5715 33.133C44.4032 33.3197 44.2283 33.5042 44.0461 33.6836C41.6146 36.0739 37.5678 37.7104 33.6336 38.4519C31.8954 38.7729 30.1377 38.953 28.375 38.991C16.7911 39.2727 12.5349 32.8801 8.80284 31.2321C5.07074 29.584 -0.654953 26.7693 0.0612554 20.8558C0.606528 16.3592 4.42873 12.0643 11.4093 10.1042C12.1778 9.88802 12.9855 9.70137 13.8322 9.54428C15.5242 9.23906 17.2338 9.06327 18.9483 9.01823C24.2255 8.86113 28.5108 9.71218 32.7027 11.856C33.6773 12.3547 34.646 12.9168 35.9108 12.978C36.8297 13.0227 37.6996 12.8022 36.7403 12.2077C35.6139 11.5087 36.9138 10.1352 39.7807 11.0893C44.5675 12.684 46.5386 16.1243 47.4662 19.6221C48.6031 23.9142 48.0512 29.2554 44.5715 33.133Z" fill="#4040FF"/>
<path opacity="0.7" d="M44.5715 33.133C44.4032 33.3197 44.2283 33.5042 44.0461 33.6836C41.6146 36.0739 37.5678 37.7104 33.6336 38.4519C31.8954 38.7729 30.1377 38.953 28.375 38.991C16.7911 39.2727 12.5349 32.8801 8.80284 31.2321C5.07074 29.584 -0.654953 26.7693 0.0612554 20.8558C0.606528 16.3592 4.42873 12.0643 11.4093 10.1042C12.1778 9.88802 12.9855 9.70137 13.8322 9.54428C15.5242 9.23906 17.2338 9.06327 18.9483 9.01823C24.2255 8.86113 28.5108 9.71218 32.7027 11.856C33.6773 12.3547 34.646 12.9168 35.9108 12.978C36.8297 13.0227 37.6996 12.8022 36.7403 12.2077C35.6139 11.5087 36.9138 10.1352 39.7807 11.0893C44.5675 12.684 46.5386 16.1243 47.4662 19.6221C48.6031 23.9142 48.0512 29.2554 44.5715 33.133Z" fill="white"/>
</g>
<g clip-path="url(#clip0_3950_21369)">
<path d="M36.4131 17.0553L23.4141 8.4082L10.415 17.0553V39.3433H36.419V17.0553H36.4131Z" fill="#E1EFFB"/>
<path d="M36.413 17.0553L23.414 8.4082L20.7461 10.183L33.1619 18.442H33.1677V39.3434H36.4189V17.0553H36.413Z" fill="#CCDFED"/>
<path d="M7.9841 20.527L23.1973 10.4071C23.2624 10.3637 23.3388 10.3406 23.417 10.3406C23.4952 10.3406 23.5717 10.3637 23.6368 10.4071L38.8499 20.5269C39.0594 20.6663 39.3054 20.7407 39.5571 20.7407C39.8087 20.7407 40.0548 20.6663 40.2643 20.5269C41.0239 20.0217 41.0239 18.9059 40.2643 18.4007L23.6368 7.33988C23.5717 7.29656 23.4952 7.27344 23.417 7.27344C23.3388 7.27344 23.2624 7.29656 23.1973 7.33988L6.56969 18.4007C5.8101 18.9059 5.8101 20.0217 6.56969 20.5269C6.7792 20.6663 7.02523 20.7407 7.27688 20.7407C7.52853 20.7407 7.77457 20.6664 7.9841 20.527Z" fill="#FF4C4C"/>
<path d="M23.4169 19.3817C24.9688 19.3817 26.2269 18.1236 26.2269 16.5717C26.2269 15.0198 24.9688 13.7617 23.4169 13.7617C21.865 13.7617 20.6069 15.0198 20.6069 16.5717C20.6069 18.1236 21.865 19.3817 23.4169 19.3817Z" fill="#FFB125"/>
<path d="M26.2269 16.5727C26.2269 16.3906 26.2089 16.2127 26.1758 16.0402H23.9471V13.8133C23.7754 13.7805 23.5982 13.7627 23.4169 13.7627C23.2356 13.7627 23.0584 13.7806 22.8867 13.8133V16.0402H20.658C20.6241 16.2157 20.607 16.394 20.6069 16.5727C20.6069 16.7532 20.6247 16.9296 20.6572 17.1006H22.8867V19.332C23.0585 19.3648 23.2356 19.3826 23.417 19.3826C23.5983 19.3826 23.7754 19.3648 23.9472 19.332V17.1006H26.1767C26.2099 16.9266 26.2267 16.7498 26.2269 16.5727Z" fill="#FF901D"/>
<path d="M18.9297 27.1895H27.9037V40.7274H18.9297V27.1895Z" fill="#FFB125"/>
<path d="M23.417 27.1895H27.9041V40.7274H23.417V27.1895Z" fill="#FF901D"/>
<path d="M38.9812 38.5889H7.85273C7.26203 38.5889 6.7832 39.0677 6.7832 39.6584C6.7832 40.2491 7.26203 40.7279 7.85273 40.7279H38.9812C39.5719 40.7279 40.0507 40.2491 40.0507 39.6584C40.0507 39.0677 39.5719 38.5889 38.9812 38.5889Z" fill="#2D5871"/>
<path d="M40.7596 19.8917C40.7679 19.8682 40.7763 19.8448 40.7832 19.821C40.7871 19.8076 40.7898 19.794 40.7932 19.7806C40.7992 19.7566 40.8056 19.7328 40.8103 19.7086C40.8129 19.6952 40.8143 19.6815 40.8163 19.668C40.821 19.6368 40.8258 19.6056 40.828 19.5741C40.8302 19.5429 40.833 19.5118 40.8334 19.4806C40.8335 19.4674 40.8326 19.4544 40.8323 19.4413C40.8321 19.4151 40.8311 19.3889 40.8293 19.3628C40.8283 19.3501 40.8263 19.3374 40.825 19.3247C40.8223 19.2982 40.8188 19.2718 40.8146 19.2455C40.8125 19.2334 40.8096 19.2214 40.8072 19.2092C40.8021 19.1825 40.796 19.156 40.7891 19.1296C40.786 19.1181 40.7823 19.1067 40.7788 19.0952C40.771 19.0686 40.7623 19.0422 40.7528 19.0162C40.7487 19.0052 40.7442 18.9944 40.7397 18.9835C40.7252 18.9465 40.7086 18.9103 40.69 18.8751C40.6767 18.8496 40.6627 18.8245 40.6476 18.7997C40.6446 18.7948 40.6423 18.7896 40.6392 18.7848L40.6386 18.7855C40.5427 18.6321 40.415 18.5009 40.2642 18.4009L38.6029 17.2958L38.4169 17.5815C38.0918 18.0807 37.4218 18.2188 36.9258 17.8888L23.6369 9.04887C23.5718 9.00554 23.4954 8.98242 23.4172 8.98242C23.339 8.98242 23.2625 9.00554 23.1974 9.04887L7.98424 19.1688C7.77472 19.3082 7.52868 19.3825 7.27704 19.3825C7.02539 19.3825 6.77936 19.3082 6.56983 19.1688C6.41897 19.069 6.29114 18.9381 6.19486 18.7849C5.84336 19.3448 5.96845 20.1285 6.57131 20.5283C7.00612 20.8167 7.57678 20.7983 8.01117 20.5093L23.1974 10.4074C23.2625 10.364 23.339 10.3409 23.4172 10.3409C23.4954 10.3409 23.5718 10.364 23.6369 10.4074L38.85 20.5272C39.0595 20.6666 39.3056 20.741 39.5572 20.741C39.8089 20.741 40.0549 20.6666 40.2644 20.5272C40.2973 20.5054 40.3282 20.482 40.3582 20.4578C40.3687 20.4495 40.3788 20.4408 40.3889 20.4323C40.4079 20.4159 40.4264 20.3991 40.4441 20.3819C40.4549 20.3716 40.466 20.3614 40.4764 20.3508C40.4979 20.3286 40.5185 20.3058 40.538 20.2825L40.5391 20.2808C40.6026 20.2048 40.6567 20.1216 40.7006 20.0329L40.7033 20.0287C40.708 20.0192 40.7116 20.0092 40.716 19.9995C40.7265 19.9768 40.7369 19.9543 40.7458 19.9311C40.7509 19.9181 40.755 19.9048 40.7596 19.8917Z" fill="#F33939"/>
<path d="M40.0438 39.5388C40.0429 39.5309 40.0413 39.5233 40.0402 39.5155C40.0359 39.4833 40.0305 39.4515 40.0234 39.4203C40.0221 39.4148 40.0205 39.4094 40.0192 39.4039C40.0109 39.3699 40.001 39.3364 39.9894 39.3035L39.9871 39.2971C39.9743 39.2614 39.9596 39.2263 39.943 39.1921V39.192C39.7698 38.8348 39.4048 38.5879 38.9812 38.5879H36.7995V39.0652C36.7995 39.4689 36.4723 39.7961 36.0686 39.7961H7.85273C7.4291 39.7961 7.06411 39.5492 6.89093 39.192C6.80028 39.3776 6.76573 39.5857 6.79151 39.7907C6.85887 40.3311 7.33671 40.7269 7.88142 40.7269H38.9812C39.5719 40.7269 40.0507 40.2481 40.0507 39.6574C40.0507 39.6173 40.0481 39.5778 40.0438 39.5388Z" fill="#1D4859"/>
<path d="M30.3157 40.7276H27.4556V20.7514C27.4556 19.9616 28.0958 19.3213 28.8857 19.3213C29.6755 19.3213 30.3157 19.9616 30.3157 20.7514V40.7276Z" fill="#FF6D3A"/>
<path d="M28.8859 19.3213C28.6347 19.3213 28.388 19.3878 28.1709 19.5142C28.5979 19.7615 28.8859 20.2223 28.8859 20.7514V40.7276H30.316V20.7514C30.316 19.9616 29.6757 19.3213 28.8859 19.3213Z" fill="#ED5729"/>
<path d="M41.1014 33.6374H16.6699C16.1737 33.6374 15.7715 33.2352 15.7715 32.739V23.4072C15.7715 22.911 16.1737 22.5088 16.6699 22.5088H41.1014C41.5976 22.5088 41.9998 22.911 41.9998 23.4072V32.739C41.9998 33.2352 41.5976 33.6374 41.1014 33.6374Z" fill="#61AFF6"/>
<path d="M41.1014 22.5088H38.7486V31.3723C38.7486 31.8685 38.3464 32.2707 37.8502 32.2707H15.7715V32.7391C15.7715 33.2353 16.1737 33.6375 16.6699 33.6375H41.1014C41.5976 33.6375 41.9998 33.2352 41.9998 32.7391V23.4072C41.9998 22.911 41.5976 22.5088 41.1014 22.5088Z" fill="#55A2F0"/>
<path d="M22.8877 28.404C23.4639 28.2273 23.8941 27.7509 23.8941 26.8674C23.8941 25.6458 23.0798 25.2617 22.0733 25.2617H20.5522C20.3601 25.2617 20.2295 25.4078 20.2295 25.569V30.5628C20.2295 30.7703 20.483 30.8778 20.7289 30.8778C20.9823 30.8778 21.2282 30.7702 21.2282 30.5628V28.5575H21.8736L22.9646 30.678C23.0414 30.8317 23.1721 30.9162 23.3103 30.9162C23.6022 30.9162 23.9326 30.6474 23.9326 30.3938C23.9326 30.3631 23.9249 30.3092 23.8942 30.2708L22.8877 28.404ZM22.0732 27.7741H21.2281V26.1376H22.0732C22.5727 26.1376 22.8952 26.3528 22.8952 26.9596C22.8953 27.5666 22.5727 27.7741 22.0732 27.7741ZM27.9348 26.1376C28.1346 26.1376 28.2498 25.9301 28.2498 25.692C28.2498 25.4845 28.1499 25.2618 27.9348 25.2618H25.1997C24.9769 25.2618 24.7618 25.3694 24.7618 25.5768V30.5629C24.7618 30.7703 24.977 30.8779 25.1997 30.8779H27.9348C28.15 30.8779 28.2498 30.655 28.2498 30.4476C28.2498 30.2094 28.1345 30.002 27.9348 30.002H25.7606V28.4578H26.9284C27.1435 28.4578 27.2434 28.2504 27.2434 28.0737C27.2434 27.8662 27.1281 27.6741 26.9284 27.6741H25.7606V26.1376H27.9348ZM32.2139 25.2618C31.9604 25.2618 31.7145 25.354 31.7145 25.5691V28.6575L30.2317 25.7919C29.9936 25.3386 29.8476 25.2618 29.4865 25.2618C29.233 25.2618 28.9871 25.3617 28.9871 25.5768V30.5629C28.9871 30.7703 29.233 30.8779 29.4865 30.8779C29.7324 30.8779 29.9858 30.7703 29.9858 30.5629V27.4744L31.6377 30.5629C31.7683 30.801 31.9757 30.8779 32.2139 30.8779C32.4598 30.8779 32.7133 30.7703 32.7133 30.5629V25.5691C32.7133 25.3539 32.4597 25.2618 32.2139 25.2618ZM36.9845 25.2618H33.7346C33.5195 25.2618 33.4196 25.4923 33.4196 25.7074C33.4196 25.9532 33.5349 26.1607 33.7346 26.1607H34.864V30.5629C34.864 30.7703 35.1099 30.8779 35.3634 30.8779C35.6093 30.8779 35.8628 30.7703 35.8628 30.5629V26.1607H36.9845C37.1842 26.1607 37.2994 25.9455 37.2994 25.7074C37.2995 25.4923 37.1996 25.2618 36.9845 25.2618Z" fill="white"/>
</g>
<defs>
<clipPath id="clip0_3950_21369">
<rect width="36" height="36" fill="white" transform="translate(6 6)"/>
</clipPath>
</defs>
</svg>
