<svg width="32" height="32" viewBox="0 0 32 32" fill="none" xmlns="http://www.w3.org/2000/svg">
<circle opacity="0.1" cx="16" cy="16" r="16" fill="#3A8247"/>
<path d="M14.2263 6.17188C13.8367 5.61636 13.0114 4.77093 11.6628 4.92155C10.5206 5.04911 9.66851 4.68256 9.12744 4.31973" stroke="#3A8247" stroke-miterlimit="10" stroke-linecap="round" stroke-linejoin="round"/>
<path d="M14.1092 6.76043C14.1092 6.76043 10.929 6.5318 9.74316 8.55859" stroke="#3A8247" stroke-miterlimit="10" stroke-linecap="round" stroke-linejoin="round"/>
<path d="M19.9935 7.73309C18.2853 8.16446 16.5978 8.16452 14.8893 7.73309C14.2947 7.58289 13.9576 6.91426 14.1716 6.30644L14.1787 6.28613C14.3582 5.77651 14.867 5.49055 15.3657 5.61577C16.7644 5.96692 18.1179 5.96704 19.517 5.61577C20.0157 5.49055 20.5246 5.77657 20.704 6.28613L20.7111 6.3065C20.9252 6.91432 20.5881 7.58289 19.9935 7.73309Z" stroke="#3A8247" stroke-miterlimit="10" stroke-linecap="round" stroke-linejoin="round"/>
<path d="M19.993 5.61914C20.7991 4.44868 22.1486 2.25455 21.5407 1.46742C21.2526 1.09446 21.0069 1.60102 20.4111 1.60102C19.711 1.60102 19.711 1.14299 19.011 1.14299C18.311 1.14299 18.311 1.60102 17.611 1.60102C16.9111 1.60102 16.9111 1.14299 16.2112 1.14299C15.5112 1.14299 15.5112 1.60102 14.8113 1.60102C14.2148 1.60102 13.9701 1.08787 13.6801 1.46107C13.0767 2.23778 14.3784 4.40872 15.1739 5.58894" stroke="#3A8247" stroke-miterlimit="10" stroke-linecap="round" stroke-linejoin="round"/>
<path d="M22.4721 8.68359C21.9137 8.18614 21.3057 7.69407 20.6455 7.20992" stroke="#3A8247" stroke-miterlimit="10" stroke-linecap="round" stroke-linejoin="round"/>
<path d="M14.3315 7.35868C8.7754 11.5192 7.03882 16.2553 7.60524 19.9414" stroke="#3A8247" stroke-miterlimit="10" stroke-linecap="round" stroke-linejoin="round"/>
<path d="M26.2873 23.3105C28.5033 20.1954 28.4502 15.0425 23.9707 10.1563" stroke="#3A8247" stroke-miterlimit="10" stroke-linecap="round" stroke-linejoin="round"/>
<mask id="path-9-inside-1_4982_80377" fill="white">
<path d="M19.3391 23.4134L19.3389 23.4453L19.36 23.436C19.3531 23.4284 19.3461 23.4209 19.3391 23.4134Z"/>
</mask>
<path d="M19.3391 23.4134L18.3391 23.4059L18.3582 20.8713L20.0748 22.7361L19.3391 23.4134ZM19.3389 23.4453L19.7409 24.3609L18.3273 24.9817L18.3389 23.4378L19.3389 23.4453ZM19.36 23.436L20.1039 22.7677L21.0276 23.7959L19.7621 24.3516L19.36 23.436ZM20.3391 23.4209L20.3388 23.4528L18.3389 23.4378L18.3391 23.4059L20.3391 23.4209ZM18.9368 22.5297L18.958 22.5204L19.7621 24.3516L19.7409 24.3609L18.9368 22.5297ZM18.6161 24.1043C18.6186 24.1071 18.6199 24.1085 18.6174 24.1058C18.6168 24.1052 18.6162 24.1045 18.6153 24.1035C18.6145 24.1027 18.6134 24.1015 18.6123 24.1003C18.61 24.0979 18.6069 24.0945 18.6034 24.0907L20.0748 22.7361C20.0748 22.736 20.0751 22.7364 20.0764 22.7378C20.077 22.7384 20.0776 22.7391 20.0786 22.7401C20.0795 22.7411 20.0806 22.7423 20.0818 22.7436C20.0863 22.7484 20.0945 22.7573 20.1039 22.7677L18.6161 24.1043Z" fill="#3A8247" mask="url(#path-9-inside-1_4982_80377)"/>
<path d="M14.8579 26.1055H19.9397" stroke="#3A8247" stroke-miterlimit="10" stroke-linecap="round" stroke-linejoin="round"/>
<path d="M5.33203 28.7087L10.4376 30.609C10.9901 30.8146 11.5748 30.9199 12.1644 30.9199H18.8686C19.8068 30.9199 20.7257 30.6533 21.5182 30.1511L29.9124 24.8321C30.4662 24.3403 30.5689 23.5138 30.1522 22.9015C29.6964 22.2315 28.9422 22.1151 28.1124 22.5074L19.9397 26.106L19.9494 24.78C19.8411 23.6917 19.0032 22.8182 17.9202 22.6649L12.9433 22.092C11.7953 21.9295 11.2215 21.5448 10.2207 20.9593C8.85426 20.1599 7.29972 19.7387 5.71667 19.7387H5.33203" stroke="#3A8247" stroke-miterlimit="10" stroke-linecap="round" stroke-linejoin="round"/>
<path d="M5.33193 23.5575V29.4832C5.33193 29.9552 4.94933 30.3379 4.47734 30.3379H2.41472C1.94272 30.3379 1.56006 29.9552 1.56006 29.4832V19.0186C1.56006 18.5466 1.94272 18.1641 2.41472 18.1641H4.47734C4.94933 18.1641 5.33193 18.5466 5.33193 19.0186V21.4569" stroke="#3A8247" stroke-miterlimit="10" stroke-linecap="round" stroke-linejoin="round"/>
<path d="M19.185 12.0429C19.185 12.0429 18.2885 11.216 16.9065 11.6322C15.6376 12.0145 15.3225 13.7508 16.1847 14.4271C16.6799 14.8154 17.4249 15.1347 18.4289 15.4896C20.6762 16.2839 19.8454 19.4532 17.5596 19.4684C16.6675 19.4742 16.2505 19.4177 15.4668 18.905" stroke="#3A8247" stroke-miterlimit="10" stroke-linecap="round" stroke-linejoin="round"/>
<path d="M17.5591 10.4452V20.625" stroke="#3A8247" stroke-miterlimit="10" stroke-linecap="round" stroke-linejoin="round"/>
</svg>
