<svg width="375" height="281" viewBox="0 0 375 281" fill="none" xmlns="http://www.w3.org/2000/svg">
<mask id="mask0_758_38832" style="mask-type:alpha" maskUnits="userSpaceOnUse" x="0" y="0" width="375" height="281">
<rect width="375" height="281" fill="#D9D9D9"/>
</mask>
<g mask="url(#mask0_758_38832)">
<path d="M194.899 68.5752H166.166V31.688H187.502L194.899 38.716V68.5752Z" fill="#EBEBEB"/>
<path d="M187.501 31.688L194.899 38.716H187.501V31.688Z" fill="#DBDBDB"/>
<path d="M168.971 38.8279H184.948V37.8815H168.971V38.8279Z" fill="#DBDBDB"/>
<path d="M168.971 41.2192H184.948V40.2728H168.971V41.2192Z" fill="#DBDBDB"/>
<path d="M168.971 43.6104H184.948V42.664H168.971V43.6104Z" fill="#DBDBDB"/>
<path d="M168.971 46.0015H192.379V45.0551H168.971V46.0015Z" fill="#DBDBDB"/>
<path d="M168.971 48.3928H192.379V47.4464H168.971V48.3928Z" fill="#DBDBDB"/>
<path d="M168.971 50.7783H192.379V49.8319H168.971V50.7783Z" fill="#DBDBDB"/>
<path d="M168.971 53.1697H192.379V52.2233H168.971V53.1697Z" fill="#DBDBDB"/>
<path d="M168.971 55.5608H192.379V54.6144H168.971V55.5608Z" fill="#DBDBDB"/>
<path d="M168.971 57.9519H192.379V57.0055H168.971V57.9519Z" fill="#DBDBDB"/>
<path d="M168.971 60.3433H192.379V59.3969H168.971V60.3433Z" fill="#DBDBDB"/>
<path d="M168.971 62.7344H192.379V61.788H168.971V62.7344Z" fill="#DBDBDB"/>
<path d="M168.971 65.1255H192.379V64.1791H168.971V65.1255Z" fill="#DBDBDB"/>
<path d="M196.842 71.9347C199.411 70.8637 200.626 67.9127 199.555 65.3435C198.484 62.7743 195.533 61.5597 192.963 62.6308C190.394 63.7018 189.18 66.6528 190.251 69.222C191.322 71.7912 194.273 73.0058 196.842 71.9347Z" fill="#C7C7C7"/>
<path d="M197.397 66.0049H192.402V70.5409H197.397V66.0049Z" fill="white"/>
<path d="M196.899 67.4049H196.4V65.4001C196.413 65.1964 196.383 64.9923 196.314 64.8004C196.245 64.6085 196.137 64.4328 195.997 64.2842C195.857 64.1356 195.688 64.0171 195.501 63.9362C195.314 63.8552 195.112 63.8134 194.908 63.8134C194.704 63.8134 194.502 63.8552 194.314 63.9362C194.127 64.0171 193.958 64.1356 193.819 64.2842C193.679 64.4328 193.571 64.6085 193.502 64.8004C193.432 64.9923 193.403 65.1964 193.415 65.4001V67.4217H192.906V65.4001C192.906 64.8699 193.116 64.3614 193.491 63.9864C193.866 63.6115 194.375 63.4009 194.905 63.4009C195.435 63.4009 195.944 63.6115 196.319 63.9864C196.694 64.3614 196.904 64.8699 196.904 65.4001L196.899 67.4049Z" fill="white"/>
<path d="M195.112 68.3288L195.319 69.32H194.435L194.642 68.3288C194.579 68.2886 194.527 68.2332 194.49 68.1676C194.454 68.1021 194.435 68.0285 194.435 67.9536C194.435 67.8363 194.481 67.7238 194.564 67.6408C194.647 67.5578 194.76 67.5112 194.877 67.5112C194.994 67.5112 195.107 67.5578 195.19 67.6408C195.273 67.7238 195.319 67.8363 195.319 67.9536C195.319 68.0285 195.3 68.1021 195.264 68.1676C195.227 68.2332 195.175 68.2886 195.112 68.3288Z" fill="#C7C7C7"/>
<path d="M232.296 83.5889L232.369 112.289C232.37 112.671 232.297 113.049 232.152 113.402C232.007 113.755 231.795 114.076 231.526 114.347C231.257 114.618 230.937 114.834 230.585 114.981C230.233 115.128 229.855 115.205 229.474 115.206L183.957 115.324C183.575 115.325 183.197 115.25 182.844 115.105C182.491 114.96 182.171 114.746 181.9 114.477C181.63 114.207 181.415 113.887 181.268 113.535C181.122 113.183 181.046 112.805 181.045 112.423L180.972 83.7233C180.971 83.3684 181.039 83.0166 181.174 82.6882C181.309 82.3598 181.507 82.0612 181.757 81.8094C182.007 81.5576 182.304 81.3577 182.632 81.221C182.96 81.0844 183.311 81.0136 183.666 81.0129L229.586 80.8953C229.941 80.8938 230.292 80.9624 230.621 81.097C230.949 81.2316 231.248 81.4297 231.5 81.6799C231.751 81.9301 231.951 82.2275 232.088 82.5551C232.225 82.8826 232.295 83.2339 232.296 83.5889Z" fill="#EBEBEB"/>
<path d="M224.96 108.268C224.961 108.796 224.806 109.313 224.513 109.753C224.22 110.193 223.804 110.536 223.316 110.739C222.829 110.942 222.292 110.996 221.773 110.894C221.255 110.792 220.778 110.539 220.404 110.166C220.03 109.793 219.774 109.318 219.67 108.8C219.566 108.282 219.618 107.745 219.819 107.256C220.02 106.768 220.362 106.35 220.8 106.056C221.239 105.761 221.755 105.603 222.283 105.602C222.634 105.602 222.982 105.67 223.306 105.803C223.63 105.937 223.925 106.133 224.174 106.381C224.422 106.628 224.62 106.922 224.755 107.246C224.89 107.57 224.959 107.917 224.96 108.268Z" fill="#DBDBDB"/>
<path d="M228.253 108.257C228.254 108.785 228.099 109.301 227.806 109.741C227.514 110.181 227.098 110.524 226.611 110.727C226.123 110.931 225.586 110.985 225.068 110.884C224.55 110.782 224.074 110.529 223.699 110.157C223.324 109.785 223.069 109.31 222.964 108.792C222.859 108.275 222.91 107.738 223.11 107.249C223.311 106.76 223.651 106.342 224.089 106.047C224.527 105.752 225.043 105.593 225.571 105.591C225.922 105.59 226.27 105.657 226.595 105.791C226.92 105.924 227.216 106.12 227.465 106.368C227.714 106.615 227.912 106.909 228.047 107.234C228.182 107.558 228.252 107.905 228.253 108.257Z" fill="#FDC920"/>
<path d="M192.568 85.9148L187.64 85.9277C186.341 85.9311 185.29 86.9869 185.294 88.2858L185.299 90.2402C185.302 91.5392 186.358 92.5895 187.657 92.5861L192.585 92.5732C193.884 92.5698 194.934 91.514 194.931 90.215L194.926 88.2606C194.922 86.9617 193.867 85.9114 192.568 85.9148Z" fill="#FDC920"/>
<path d="M226.377 89.4801H222.02C221.78 89.4808 221.542 89.4342 221.32 89.3427C221.098 89.2513 220.896 89.117 220.726 88.9474C220.556 88.7778 220.421 88.5763 220.328 88.3544C220.236 88.1326 220.189 87.8947 220.189 87.6545C220.188 87.415 220.235 87.1778 220.326 86.9563C220.417 86.7348 220.551 86.5335 220.72 86.3639C220.889 86.1943 221.09 86.0598 221.311 85.968C221.532 85.8762 221.769 85.8289 222.009 85.8289H226.366C226.606 85.8274 226.844 85.8734 227.066 85.9642C227.288 86.055 227.49 86.1888 227.66 86.358C227.83 86.5271 227.965 86.7283 228.057 86.9498C228.15 87.1714 228.197 87.4089 228.197 87.6489C228.198 87.8886 228.151 88.1262 228.06 88.348C227.969 88.5697 227.835 88.7714 227.666 88.9414C227.497 89.1115 227.296 89.2466 227.075 89.339C226.854 89.4314 226.617 89.4794 226.377 89.4801Z" fill="white"/>
<path d="M209.711 105.901L185.34 105.965L185.343 107.163L209.714 107.099L209.711 105.901Z" fill="#DBDBDB"/>
<path d="M202.606 108.585L185.353 108.63L185.356 109.829L202.609 109.784L202.606 108.585Z" fill="#DBDBDB"/>
<path d="M218.512 85.8468L206.354 85.8787L206.358 87.0771L218.515 87.0452L218.512 85.8468Z" fill="#DBDBDB"/>
<path d="M186.421 99.5264H186.253V101.346H186.421V99.5264Z" fill="#C7C7C7"/>
<path d="M187.244 100.355H185.424V100.523H187.244V100.355Z" fill="#C7C7C7"/>
<path d="M186.922 99.7311L185.631 101.022L185.75 101.141L187.041 99.8499L186.922 99.7311Z" fill="#C7C7C7"/>
<path d="M185.755 99.7367L185.636 99.8555L186.927 101.146L187.046 101.028L185.755 99.7367Z" fill="#C7C7C7"/>
<path d="M188.61 99.5264H188.442V101.346H188.61V99.5264Z" fill="#C7C7C7"/>
<path d="M189.439 100.355H187.619V100.523H189.439V100.355Z" fill="#C7C7C7"/>
<path d="M189.114 99.7341L187.827 101.021L187.945 101.14L189.232 99.8529L189.114 99.7341Z" fill="#C7C7C7"/>
<path d="M187.941 99.7301L187.822 99.8489L189.109 101.136L189.228 101.017L187.941 99.7301Z" fill="#C7C7C7"/>
<path d="M190.806 99.5264H190.638V101.346H190.806V99.5264Z" fill="#C7C7C7"/>
<path d="M191.629 100.355H189.809V100.523H191.629V100.355Z" fill="#C7C7C7"/>
<path d="M190.134 101.139L190.016 101.022L191.304 99.7336L191.427 99.8512L190.134 101.139Z" fill="#C7C7C7"/>
<path d="M191.304 101.139L190.016 99.8512L190.134 99.7336L191.427 101.022L191.304 101.139Z" fill="#C7C7C7"/>
<path d="M192.995 99.5264H192.827V101.346H192.995V99.5264Z" fill="#C7C7C7"/>
<path d="M193.824 100.355H192.004V100.523H193.824V100.355Z" fill="#C7C7C7"/>
<path d="M192.329 101.139L192.211 101.022L193.499 99.7336L193.617 99.8512L192.329 101.139Z" fill="#C7C7C7"/>
<path d="M193.499 101.139L192.211 99.8512L192.329 99.7336L193.617 101.022L193.499 101.139Z" fill="#C7C7C7"/>
<path d="M197.783 99.5264H197.615V101.346H197.783V99.5264Z" fill="#C7C7C7"/>
<path d="M198.607 100.355H196.787V100.523H198.607V100.355Z" fill="#C7C7C7"/>
<path d="M197.117 101.139L196.994 101.022L198.282 99.7336L198.405 99.8512L197.117 101.139Z" fill="#C7C7C7"/>
<path d="M198.282 101.139L196.994 99.8512L197.117 99.7336L198.405 101.022L198.282 101.139Z" fill="#C7C7C7"/>
<path d="M199.973 99.5264H199.805V101.346H199.973V99.5264Z" fill="#C7C7C7"/>
<path d="M200.801 100.355H198.981V100.523H200.801V100.355Z" fill="#C7C7C7"/>
<path d="M199.307 101.139L199.189 101.022L200.477 99.7336L200.595 99.8512L199.307 101.139Z" fill="#C7C7C7"/>
<path d="M200.477 101.139L199.189 99.8512L199.307 99.7336L200.595 101.022L200.477 101.139Z" fill="#C7C7C7"/>
<path d="M202.168 99.5264H202V101.346H202.168V99.5264Z" fill="#C7C7C7"/>
<path d="M202.991 100.355H201.171V100.523H202.991V100.355Z" fill="#C7C7C7"/>
<path d="M201.502 101.139L201.378 101.022L202.666 99.7336L202.79 99.8512L201.502 101.139Z" fill="#C7C7C7"/>
<path d="M202.666 101.139L201.378 99.8512L201.502 99.7336L202.79 101.022L202.666 101.139Z" fill="#C7C7C7"/>
<path d="M204.363 99.5264H204.195V101.346H204.363V99.5264Z" fill="#C7C7C7"/>
<path d="M205.186 100.355H203.366V100.523H205.186V100.355Z" fill="#C7C7C7"/>
<path d="M203.691 101.139L203.574 101.022L204.862 99.7336L204.979 99.8512L203.691 101.139Z" fill="#C7C7C7"/>
<path d="M204.862 101.139L203.574 99.8512L203.691 99.7336L204.979 101.022L204.862 101.139Z" fill="#C7C7C7"/>
<path d="M209.146 99.5264H208.978V101.346H209.146V99.5264Z" fill="#C7C7C7"/>
<path d="M209.974 100.355H208.154V100.523H209.974V100.355Z" fill="#C7C7C7"/>
<path d="M208.479 101.139L208.362 101.022L209.65 99.7336L209.767 99.8512L208.479 101.139Z" fill="#C7C7C7"/>
<path d="M209.65 101.139L208.362 99.8512L208.479 99.7336L209.767 101.022L209.65 101.139Z" fill="#C7C7C7"/>
<path d="M211.341 99.5264H211.173V101.346H211.341V99.5264Z" fill="#C7C7C7"/>
<path d="M212.164 100.355H210.344V100.523H212.164V100.355Z" fill="#C7C7C7"/>
<path d="M210.669 101.139L210.551 101.022L211.839 99.7336L211.962 99.8512L210.669 101.139Z" fill="#C7C7C7"/>
<path d="M211.839 101.139L210.551 99.8512L210.669 99.7336L211.962 101.022L211.839 101.139Z" fill="#C7C7C7"/>
<path d="M213.53 99.5264H213.362V101.346H213.53V99.5264Z" fill="#C7C7C7"/>
<path d="M214.359 100.355H212.539V100.523H214.359V100.355Z" fill="#C7C7C7"/>
<path d="M212.864 101.139L212.747 101.022L214.035 99.7336L214.152 99.8512L212.864 101.139Z" fill="#C7C7C7"/>
<path d="M214.035 101.139L212.747 99.8512L212.864 99.7336L214.152 101.022L214.035 101.139Z" fill="#C7C7C7"/>
<path d="M215.726 99.5264H215.558V101.346H215.726V99.5264Z" fill="#C7C7C7"/>
<path d="M216.549 100.355H214.729V100.523H216.549V100.355Z" fill="#C7C7C7"/>
<path d="M215.054 101.139L214.936 101.022L216.224 99.7336L216.347 99.8512L215.054 101.139Z" fill="#C7C7C7"/>
<path d="M216.224 101.139L214.936 99.8512L215.054 99.7336L216.347 101.022L216.224 101.139Z" fill="#C7C7C7"/>
<path d="M220.508 99.5264H220.34V101.346H220.508V99.5264Z" fill="#C7C7C7"/>
<path d="M221.337 100.355H219.517V100.523H221.337V100.355Z" fill="#C7C7C7"/>
<path d="M219.842 101.139L219.724 101.022L221.012 99.7336L221.13 99.8512L219.842 101.139Z" fill="#C7C7C7"/>
<path d="M221.012 101.139L219.724 99.8512L219.842 99.7336L221.13 101.022L221.012 101.139Z" fill="#C7C7C7"/>
<path d="M222.703 99.5264H222.535V101.346H222.703V99.5264Z" fill="#C7C7C7"/>
<path d="M223.527 100.355H221.707V100.523H223.527V100.355Z" fill="#C7C7C7"/>
<path d="M222.037 101.139L221.914 101.022L223.207 99.7336L223.325 99.8512L222.037 101.139Z" fill="#C7C7C7"/>
<path d="M223.207 101.139L221.914 99.8512L222.037 99.7336L223.325 101.022L223.207 101.139Z" fill="#C7C7C7"/>
<path d="M224.898 99.5264H224.73V101.346H224.898V99.5264Z" fill="#C7C7C7"/>
<path d="M225.722 100.355H223.902V100.523H225.722V100.355Z" fill="#C7C7C7"/>
<path d="M224.226 101.139L224.109 101.022L225.397 99.7336L225.514 99.8512L224.226 101.139Z" fill="#C7C7C7"/>
<path d="M225.397 101.139L224.109 99.8512L224.226 99.7336L225.514 101.022L225.397 101.139Z" fill="#C7C7C7"/>
<path d="M227.088 99.5264H226.92V101.346H227.088V99.5264Z" fill="#C7C7C7"/>
<path d="M227.911 100.355H226.091V100.523H227.911V100.355Z" fill="#C7C7C7"/>
<path d="M226.422 101.139L226.298 101.022L227.586 99.7336L227.71 99.8512L226.422 101.139Z" fill="#C7C7C7"/>
<path d="M227.586 101.139L226.298 99.8512L226.422 99.7336L227.71 101.022L227.586 101.139Z" fill="#C7C7C7"/>
<path d="M237.332 115.982C237.779 113.235 235.914 110.645 233.166 110.198C230.419 109.751 227.829 111.616 227.383 114.364C226.936 117.111 228.8 119.701 231.548 120.148C234.295 120.595 236.885 118.73 237.332 115.982Z" fill="#C7C7C7"/>
<path d="M234.866 113.907H229.871V118.443H234.866V113.907Z" fill="white"/>
<path d="M234.368 115.307H233.864V113.28C233.841 112.9 233.673 112.543 233.396 112.282C233.119 112.021 232.752 111.876 232.372 111.876C231.991 111.876 231.625 112.021 231.347 112.282C231.07 112.543 230.903 112.9 230.879 113.28V115.307H230.37V113.28C230.37 112.75 230.58 112.241 230.955 111.866C231.33 111.491 231.839 111.281 232.369 111.281C232.899 111.281 233.408 111.491 233.782 111.866C234.157 112.241 234.368 112.75 234.368 113.28V115.307Z" fill="white"/>
<path d="M232.582 116.231L232.789 117.222H231.904L232.111 116.231C232.048 116.191 231.996 116.136 231.96 116.07C231.924 116.004 231.905 115.931 231.904 115.856C231.904 115.739 231.951 115.626 232.034 115.543C232.117 115.46 232.229 115.414 232.347 115.414C232.464 115.414 232.577 115.46 232.66 115.543C232.742 115.626 232.789 115.739 232.789 115.856C232.789 115.931 232.769 116.004 232.733 116.07C232.697 116.136 232.645 116.191 232.582 116.231Z" fill="#C7C7C7"/>
<path d="M113.427 66.8294L147.422 72.5183L151.549 47.8572L117.553 42.1684L113.427 66.8294Z" fill="#EBEBEB"/>
<path d="M115.072 65.6514L146.245 70.8679L149.898 49.0347L118.725 43.8182L115.072 65.6514Z" fill="white"/>
<path d="M121.36 50.6327C121.275 51.1427 121.344 51.6665 121.556 52.1377C121.769 52.6089 122.117 53.0065 122.556 53.2802C122.994 53.5539 123.504 53.6914 124.021 53.6753C124.538 53.6593 125.038 53.4904 125.459 53.19C125.88 52.8896 126.202 52.4712 126.386 51.9877C126.569 51.5042 126.604 50.9772 126.488 50.4734C126.372 49.9696 126.109 49.5115 125.732 49.1571C125.356 48.8027 124.883 48.5679 124.373 48.4823C123.688 48.3689 122.987 48.5315 122.422 48.9347C121.857 49.3378 121.475 49.9484 121.36 50.6327Z" fill="#DBDBDB"/>
<path d="M129.704 63.2664L147.042 66.1728L140.339 52.968L129.704 63.2664Z" fill="#DBDBDB"/>
<path d="M122.911 62.1353L137.219 64.5321L131.345 55.6841L122.911 62.1353Z" fill="#EBEBEB"/>
<path d="M147.043 66.1594L115.87 60.9429L115.082 65.6486L146.255 70.8652L147.043 66.1594Z" fill="#EBEBEB"/>
<path d="M103.664 74.6233H138.132V49.6193H103.664V74.6233Z" fill="#EBEBEB"/>
<path d="M105.092 73.1841H136.698V51.0473H105.092V73.1841Z" fill="white"/>
<path d="M108.782 57.3415C108.781 57.8601 108.934 58.3674 109.221 58.7991C109.508 59.2308 109.917 59.5676 110.396 59.7668C110.875 59.966 111.402 60.0187 111.911 59.9182C112.42 59.8177 112.887 59.5686 113.254 59.2023C113.621 58.836 113.871 58.369 113.973 57.8605C114.075 57.3519 114.023 56.8247 113.825 56.3455C113.627 55.8663 113.291 55.4566 112.86 55.1684C112.429 54.8802 111.922 54.7263 111.403 54.7263C110.709 54.7263 110.043 55.0017 109.552 55.492C109.06 55.9822 108.784 56.6474 108.782 57.3415Z" fill="#DBDBDB"/>
<path d="M119.125 68.4239H136.704L127.912 56.5071L119.125 68.4239Z" fill="#DBDBDB"/>
<path d="M112.232 68.4296H126.747L119.49 60.668L112.232 68.4296Z" fill="#EBEBEB"/>
<path d="M136.699 68.4185H105.092V73.1897H136.699V68.4185Z" fill="#EBEBEB"/>
<path d="M157.06 168.222H107.646V236.603H157.06V168.222Z" fill="#EBEBEB"/>
<path d="M159.457 165.685H105.254V168.222H159.457V165.685Z" fill="#DBDBDB"/>
<path d="M176.498 165.685H159.451V168.222H176.498V165.685Z" fill="#EBEBEB"/>
<path d="M173.804 168.222H157.06V236.603H173.804V168.222Z" fill="#DBDBDB"/>
<path d="M151.746 199.878H112.96V177.96H151.746V199.878ZM113.106 199.738H151.6V178.089H113.1L113.106 199.738Z" fill="#C7C7C7"/>
<path d="M134.492 184.361H126.943V188.701H134.492V184.361Z" fill="#C7C7C7"/>
<path d="M136.794 188.443H129.105V184.618H136.794V188.443ZM129.245 188.303H136.654V184.758H129.245V188.303Z" fill="#C7C7C7"/>
<path d="M151.746 227.408H112.96V205.479H151.746V227.408ZM113.106 227.268H151.6V205.619H113.1L113.106 227.268Z" fill="#C7C7C7"/>
<path d="M134.492 211.89H126.943V216.23H134.492V211.89Z" fill="#C7C7C7"/>
<path d="M136.794 215.973H129.105V212.148H136.794V215.973ZM129.245 215.833H136.654V212.288H129.245V215.833Z" fill="#C7C7C7"/>
<path d="M76.8623 236.626L104.65 236.486L132.431 236.441L188 236.346L243.569 236.435L271.35 236.486L299.137 236.626L271.35 236.76L243.569 236.81L188 236.906L132.431 236.81L104.65 236.76L76.8623 236.626Z" fill="#263238"/>
<path d="M105.848 261.198C119.543 261.198 130.645 259.067 130.645 256.438C130.645 253.81 119.543 251.678 105.848 251.678C92.1532 251.678 81.0513 253.81 81.0513 256.438C81.0513 259.067 92.1532 261.198 105.848 261.198Z" fill="#EBEBEB"/>
<path d="M198.063 265.566C251.575 265.566 294.954 261.312 294.954 256.063C294.954 250.815 251.575 246.56 198.063 246.56C144.552 246.56 101.172 250.815 101.172 256.063C101.172 261.312 144.552 265.566 198.063 265.566Z" fill="#EBEBEB"/>
<path d="M224.753 173.172L223.123 182.961L212.063 242.673H210.282L218.324 182.961L219.511 173.172H224.753Z" fill="#C7C7C7"/>
<path d="M219.511 173.172H224.753L223.123 182.961H218.324L219.511 173.172Z" fill="#A6A6A6"/>
<path d="M259.478 242.673H257.697L246.637 182.961L245.008 173.172H250.249L251.437 182.961L259.478 242.673Z" fill="#C7C7C7"/>
<path d="M250.249 173.172L251.437 182.961H246.637L245.008 173.172H250.249Z" fill="#A6A6A6"/>
<path d="M292.647 242.673H290.861L279.807 182.961L278.171 173.172H283.413L284.606 182.961L292.647 242.673Z" fill="#C7C7C7"/>
<path d="M284.606 182.961H279.807L278.171 173.172H283.413L284.606 182.961Z" fill="#A6A6A6"/>
<path d="M289.819 177.77H208.793V169.235H239.123L254.92 80.7439H297.928L289.819 177.77Z" fill="#C7C7C7"/>
<path d="M289.472 169.235H208.793V177.77H289.775L289.472 169.235Z" fill="#DBDBDB"/>
<path d="M289.819 177.77H285.401L293.722 80.7439H297.928L289.819 177.77Z" fill="#DBDBDB"/>
<path d="M290.822 68.3567C289.573 66.9847 284.46 63.1487 280.042 61.0767C277.902 60.0519 271.44 57.7727 270.522 59.3575C269.603 60.9423 271.446 61.7767 271.446 61.7767C271.446 61.7767 268.567 61.2167 267.8 62.8967C267.033 64.5767 269.917 65.7807 269.917 65.7807C269.917 65.7807 266.926 65.4279 266.277 67.1527C265.627 68.8775 268.735 69.6055 268.735 69.6055C268.735 69.6055 266.014 69.1575 266.081 70.8039C266.159 72.7863 271.266 73.0439 273.579 74.3039C274.106 74.5839 283.816 80.8055 283.816 80.8055L290.822 68.3567Z" fill="#EB9481"/>
<path d="M268.774 69.6224C272.532 69.824 274.145 70.5688 277.174 72.7136C277.236 72.7528 277.309 72.6744 277.253 72.624C274.486 70.2552 272.599 69.0344 268.785 69.4376C268.589 69.46 268.595 69.6112 268.774 69.6224Z" fill="#263238"/>
<path d="M269.76 65.6968C273.646 66.2568 275.399 67.0352 278.72 69.0568C278.77 69.0568 278.821 69.0064 278.776 68.9728C275.674 66.7328 273.77 65.5512 269.816 65.512C269.654 65.5008 269.598 65.6688 269.76 65.6968Z" fill="#263238"/>
<path d="M271.765 61.8104C275.489 62.6168 277.449 63.3952 280.428 65.764C280.501 65.82 280.591 65.7248 280.523 65.6632C277.723 62.9472 275.282 61.956 271.804 61.6984C271.563 61.6816 271.53 61.76 271.765 61.8104Z" fill="#263238"/>
<path d="M285.44 82.9112C285.44 82.9112 280.758 82.312 278.759 81.5952C276.76 80.8784 270.32 75.48 271.401 74.0128C272.806 72.1256 277.152 74.5112 279.129 75.956C279.129 75.956 282.377 71.588 285.849 72.624C289.321 73.66 285.44 82.9112 285.44 82.9112Z" fill="#EB9481"/>
<path d="M271.955 73.6208C274.481 72.8256 276.95 74.892 278.972 76.152C279.001 76.1721 279.035 76.1847 279.07 76.1889C279.105 76.1931 279.141 76.1886 279.174 76.176C279.207 76.1633 279.236 76.1428 279.26 76.1162C279.283 76.0895 279.3 76.0577 279.308 76.0232C280.792 74.2816 283.39 72.26 285.793 72.4952C285.808 72.4952 285.822 72.4893 285.832 72.4788C285.843 72.4683 285.849 72.4541 285.849 72.4392C285.849 72.4244 285.843 72.4101 285.832 72.3996C285.822 72.3891 285.808 72.3832 285.793 72.3832C283.25 71.784 280.534 73.5648 279.028 75.5752C276.978 74.248 274.408 72.288 271.927 73.5984C271.933 73.604 271.944 73.6264 271.955 73.6208Z" fill="#263238"/>
<path d="M245.865 63.6192C247.545 62.8744 254.069 60.892 258.958 60.7632C261.326 60.7016 268.158 61.2448 268.349 63.0648C268.539 64.8848 266.523 64.9016 266.523 64.9016C266.523 64.9016 269.374 65.5624 269.396 67.4048C269.418 69.2472 266.288 69.18 266.288 69.18C266.288 69.18 269.166 70.0704 269.06 71.9128C268.954 73.7552 265.812 73.156 265.812 73.156C265.812 73.156 268.483 73.8504 267.755 75.3288C266.876 77.1096 262.099 75.2728 259.478 75.4744C258.885 75.5192 247.489 77.2552 247.489 77.2552L245.865 63.6192Z" fill="#EB9481"/>
<path d="M265.767 73.1784C262.251 71.84 260.475 71.8624 256.847 72.6184C256.774 72.6184 256.735 72.5344 256.807 72.512C260.302 71.4704 262.519 71.1232 265.84 73.044C266.003 73.1056 265.935 73.24 265.767 73.1784Z" fill="#263238"/>
<path d="M266.445 69.1855C262.67 68.1103 260.75 68.1159 256.891 68.6255C256.835 68.6255 256.818 68.5415 256.891 68.5303C260.638 67.7351 262.855 67.4103 266.49 69.0119C266.635 69.0567 266.618 69.2359 266.445 69.1855Z" fill="#263238"/>
<path d="M266.21 64.8399C262.48 64.0615 260.375 63.9775 256.69 64.9295C256.681 64.9324 256.672 64.9337 256.663 64.9332C256.654 64.9327 256.646 64.9304 256.638 64.9265C256.63 64.9226 256.622 64.9171 256.616 64.9104C256.61 64.9038 256.606 64.896 256.603 64.8875C256.6 64.879 256.599 64.8701 256.599 64.8612C256.6 64.8522 256.602 64.8435 256.606 64.8354C256.61 64.8273 256.615 64.8201 256.622 64.8142C256.629 64.8082 256.636 64.8036 256.645 64.8007C260.313 63.4623 262.939 63.5463 266.227 64.7223C266.445 64.7895 266.445 64.8735 266.21 64.8399Z" fill="#263238"/>
<path d="M245.12 78.543C245.12 78.543 249.639 79.8982 251.751 80.055C253.862 80.2118 261.971 77.9046 261.573 76.135C261.052 73.839 256.113 74.2534 253.733 74.7742C253.733 74.7742 252.54 69.4598 248.934 68.9894C245.327 68.519 245.12 78.543 245.12 78.543Z" fill="#EB9481"/>
<path d="M261.231 75.5415C259.249 73.7831 256.152 74.6679 253.795 74.9815C253.76 74.9884 253.724 74.9867 253.69 74.9766C253.656 74.9665 253.625 74.9482 253.599 74.9234C253.574 74.8986 253.555 74.8679 253.544 74.8341C253.533 74.8004 253.531 74.7644 253.537 74.7295C252.893 72.5399 251.342 69.6335 249.057 68.8719C248.99 68.8719 249.012 68.7487 249.057 68.7655C251.627 69.2471 253.386 71.9743 253.94 74.4271C256.354 74.0463 259.501 73.3071 261.22 75.5023C261.259 75.5359 261.248 75.5527 261.231 75.5415Z" fill="#263238"/>
<path d="M258.745 97.9976C245.932 94.5368 225.755 82.9504 227.609 77.3728C229.407 71.952 236.972 66.2848 246.649 63.272C248.06 62.8296 247.769 65.792 248.424 70.9552C248.743 73.3968 253.027 79.9768 250.961 79.96C249.881 79.9928 248.817 80.2303 247.825 80.66C247.069 80.9512 256.158 87.0216 261.237 90.8296C268.08 95.9368 264.216 99.4704 258.745 97.9976Z" fill="#EB9481"/>
<path d="M240.248 94.0664L254.45 85.1736C254.45 85.1736 262.978 90.3592 265.09 93.232C267.201 96.1048 265.538 99.2128 258.93 99.2184C251.33 99.224 240.248 94.0664 240.248 94.0664Z" fill="#FDC920"/>
<g opacity="0.1">
<path d="M258.084 87.5144H250.72L252.03 86.6968H256.857L258.084 87.5144Z" fill="black"/>
<path d="M261.83 90.2024H246.419L247.724 89.3848H260.749L261.83 90.2024Z" fill="black"/>
<path d="M264.804 92.8847H242.135L243.44 92.0671H264.026C264.322 92.3527 264.586 92.6271 264.804 92.8847Z" fill="black"/>
<path d="M265.941 95.5727H243.832C243.054 95.2703 242.37 95.0127 241.816 94.7551H265.84C265.914 95.0212 265.948 95.2967 265.941 95.5727Z" fill="black"/>
<path d="M265.134 97.4431C264.808 97.7735 264.43 98.0479 264.014 98.2551H252.12C251.123 98.0087 250.137 97.7343 249.18 97.4431H265.134Z" fill="black"/>
</g>
<path d="M244 95.1583C249.718 91.6639 255.379 87.7215 256.32 86.9543C256.359 86.9207 256.32 86.8591 256.264 86.8815C251.997 89.3669 247.883 92.1065 243.944 95.0855C243.935 95.0929 243.928 95.1039 243.927 95.116C243.925 95.128 243.928 95.1402 243.936 95.1499C243.943 95.1595 243.954 95.1659 243.966 95.1674C243.978 95.169 243.991 95.1657 244 95.1583Z" fill="#263238"/>
<path d="M258.919 99.2184C256.128 99.1295 253.361 98.6797 250.687 97.88C254.399 95.388 258.812 92.448 262.043 90.3704C263.169 91.1979 264.19 92.1587 265.084 93.232C267.19 96.0992 265.532 99.2128 258.919 99.2184Z" fill="#263238"/>
<path d="M211.929 254.053C213.508 254.204 256.41 243.973 257.759 242.595C257.927 242.438 257.082 238.541 255.844 233.221V233.114C255.066 229.754 242.572 202.482 242.572 202.482L214.763 210.233L227.396 235.528C227.396 235.528 222.16 239.308 217.68 242.92C214.908 245.126 212.517 247.103 212.013 247.747C210.663 249.41 210.361 253.913 211.929 254.053Z" fill="#EB9481"/>
<path d="M211.934 254.047C213.502 254.198 256.404 243.967 257.765 242.595C257.927 242.438 257.082 238.541 255.844 233.221V233.12C255.564 231.866 253.638 227.279 251.364 222.032C246.789 223.258 230.381 227.694 224.422 229.536L227.418 235.534C227.418 235.534 222.16 239.314 217.68 242.92C214.908 245.121 212.517 247.103 212.013 247.742C210.663 249.41 210.355 253.918 211.934 254.047Z" fill="#EBEBEB"/>
<path d="M211.789 254.254C213.413 254.394 256.342 244.062 257.709 242.634C258.235 242.074 257.289 235.321 254.937 228.142L227.267 234.862C227.267 234.862 213.138 246.062 211.783 247.775C210.428 249.489 210.17 254.12 211.789 254.254Z" fill="#FDC920"/>
<path d="M211.991 252.39C219.147 250.48 248.183 243.43 255.396 242.114C255.458 242.114 255.469 242.142 255.396 242.158C248.351 244.202 219.259 250.995 212.007 252.507C211.867 252.541 211.839 252.44 211.991 252.39Z" fill="#263238"/>
<path d="M214.191 245.546C214.987 245.332 215.818 245.285 216.632 245.409C217.447 245.532 218.227 245.823 218.923 246.263C220.178 247.048 221.084 248.285 221.454 249.718C221.454 249.763 221.387 249.786 221.37 249.718C220.782 248.352 219.766 247.214 218.476 246.473C217.186 245.733 215.69 245.432 214.214 245.614C214.207 245.611 214.201 245.608 214.196 245.603C214.192 245.598 214.188 245.592 214.186 245.585C214.184 245.579 214.183 245.572 214.184 245.565C214.185 245.559 214.187 245.552 214.191 245.546Z" fill="#263238"/>
<path d="M225.206 236.099C228.079 235.366 231.663 235.578 234.021 237.505C234.11 237.583 234.021 237.706 233.909 237.684C231.071 236.971 228.165 236.564 225.24 236.469C225.197 236.463 225.158 236.443 225.128 236.412C225.098 236.381 225.08 236.34 225.076 236.297C225.072 236.254 225.083 236.211 225.107 236.175C225.13 236.139 225.165 236.113 225.206 236.099Z" fill="#263238"/>
<path d="M223.191 237.505C226.063 236.771 229.647 236.984 232.005 238.91C232.095 238.983 232.005 239.112 231.893 239.089C229.056 238.379 226.152 237.974 223.23 237.88C223.205 237.882 223.18 237.88 223.156 237.873C223.133 237.866 223.111 237.854 223.091 237.839C223.072 237.823 223.056 237.804 223.044 237.782C223.032 237.76 223.025 237.737 223.023 237.712C223.02 237.687 223.022 237.662 223.029 237.639C223.036 237.615 223.048 237.593 223.064 237.573C223.079 237.554 223.098 237.538 223.12 237.526C223.142 237.515 223.166 237.507 223.191 237.505Z" fill="#263238"/>
<path d="M221.175 238.905C224.047 238.171 227.631 238.384 229.989 240.31C230.079 240.383 229.989 240.512 229.877 240.49C227.041 239.775 224.137 239.367 221.214 239.274C221.171 239.269 221.131 239.25 221.1 239.219C221.07 239.189 221.051 239.148 221.046 239.105C221.041 239.062 221.052 239.019 221.075 238.982C221.098 238.946 221.133 238.919 221.175 238.905Z" fill="#263238"/>
<path d="M219.164 240.31C222.031 239.577 225.615 239.789 227.973 241.71C228.062 241.789 227.973 241.918 227.861 241.895C225.024 241.183 222.12 240.776 219.197 240.68C219.148 240.684 219.1 240.669 219.062 240.638C219.024 240.606 219 240.561 218.996 240.512C218.991 240.463 219.007 240.414 219.038 240.376C219.07 240.338 219.115 240.315 219.164 240.31Z" fill="#263238"/>
<path d="M251.919 235.718C255.155 234.951 256.354 239.974 253.117 240.758C249.88 241.542 248.682 236.486 251.919 235.718Z" fill="#263238"/>
<path d="M221.488 233.333C223.526 234.962 226.198 235.657 228.589 236.581C228.644 236.597 228.702 236.599 228.758 236.589C228.814 236.578 228.867 236.554 228.912 236.519C228.957 236.484 228.994 236.439 229.018 236.388C229.043 236.336 229.055 236.279 229.054 236.222C229.066 236.222 229.077 236.219 229.088 236.214C229.099 236.208 229.108 236.2 229.114 236.19C229.121 236.18 229.125 236.168 229.126 236.157C229.127 236.145 229.125 236.133 229.121 236.121C228.275 233.534 226.76 231.216 224.73 229.401C223.532 228.36 221.41 227.621 220.25 229.183C219.142 230.639 220.301 232.381 221.488 233.333ZM220.782 230.975C220.312 227.772 223.722 229.502 224.574 230.303C225.119 230.828 225.628 231.389 226.097 231.983C227.044 233.23 227.928 234.523 228.746 235.858C227.598 235.332 226.416 234.906 225.251 234.425C223.84 233.859 221.04 232.745 220.782 230.975Z" fill="#263238"/>
<path d="M238.91 231.821C238.232 229.995 235.986 230.102 234.542 230.762C232.08 231.934 229.97 233.735 228.426 235.982C228.42 235.992 228.415 236.003 228.414 236.015C228.412 236.027 228.413 236.039 228.417 236.05C228.421 236.061 228.427 236.072 228.436 236.08C228.444 236.089 228.454 236.095 228.466 236.099C228.448 236.153 228.443 236.211 228.452 236.267C228.461 236.324 228.483 236.377 228.516 236.423C228.549 236.47 228.593 236.508 228.644 236.534C228.694 236.56 228.75 236.574 228.807 236.575C231.361 236.362 234.122 236.452 236.535 235.455C237.946 234.884 239.554 233.546 238.91 231.821ZM232.615 235.461C231.361 235.595 230.106 235.668 228.858 235.847C230.02 234.797 231.235 233.806 232.498 232.879C233.113 232.434 233.76 232.035 234.435 231.686C235.477 231.16 239.234 230.466 237.879 233.406C237.134 235.024 234.11 235.298 232.615 235.461Z" fill="#263238"/>
<path d="M224.915 232.235L254.444 224.328C254.444 224.328 228.494 170.518 230.588 167.555C231.635 166.077 259.311 164.828 267.895 157.094C279.045 147.054 270.931 132.454 270.931 132.454H239.985C239.985 132.454 240.545 138.911 239.369 139.919C238.596 140.591 201.849 144.786 198.17 157.341C193.662 172.735 224.915 232.235 224.915 232.235Z" fill="#263238"/>
<path d="M224.4 227.906C225.183 227.543 225.992 227.236 226.819 226.988C227.676 226.691 228.538 226.394 229.395 226.109C231.075 225.549 232.8 225.022 234.514 224.53C237.969 223.533 241.424 222.558 244.907 221.651C246.722 221.181 250.602 220.156 250.849 220.19C250.961 220.19 250.989 220.402 250.888 220.442C247.528 221.662 244.112 222.71 240.702 223.774C237.291 224.838 233.881 225.874 230.426 226.764C229.468 227.01 228.505 227.234 227.547 227.47C226.545 227.766 225.523 227.99 224.49 228.142C224.4 228.147 224.288 227.957 224.4 227.906Z" fill="#455A64"/>
<path d="M225.223 165.147C225.834 164.587 226.763 164.509 227.536 164.352L240.859 161.72C245.014 160.897 249.197 160.146 253.33 159.217C256.751 158.449 260.223 157.453 263.147 155.493C266.007 153.567 268.08 150.677 268.987 147.35C269.934 144.041 269.9 140.513 269.475 137.125C269.368 136.296 269.189 135.473 269.01 134.655C269.01 134.593 269.099 134.571 269.111 134.655C270.432 140.961 270.751 148.319 266.154 153.51C263.914 156.041 260.772 157.587 257.558 158.617C253.923 159.788 250.115 160.404 246.358 161.143L233.035 163.775C230.896 164.195 228.723 164.542 226.607 165.052C226.177 165.12 225.777 165.315 225.459 165.612C225.311 165.841 225.221 166.102 225.196 166.373C225.172 166.644 225.214 166.917 225.319 167.169C225.565 168.21 225.879 169.246 226.209 170.265C228.897 178.52 247.724 217.602 248.234 218.504C248.29 218.599 248.139 218.677 248.083 218.582C243.771 211.403 229.737 181.23 226.803 173.435C226.031 171.44 225.39 169.397 224.882 167.32C224.703 166.569 224.591 165.729 225.223 165.147Z" fill="#455A64"/>
<path d="M136.362 255.128C137.829 255.716 181.873 257.967 183.565 257.01C183.766 256.909 184.052 252.927 184.354 247.49L184.578 242.349C184.657 240.613 207.331 215.34 207.331 215.34L175.719 213.43L156.388 241.705C156.388 241.705 150.301 243.861 144.986 246.045C141.693 247.4 138.849 248.604 138.16 249.08C136.48 250.318 134.889 254.557 136.362 255.128Z" fill="#EB9481"/>
<path d="M190.358 234.75C187.065 238.67 184.607 241.766 184.584 242.338L184.355 247.478C184.052 252.927 183.767 256.909 183.565 256.998C181.885 257.956 137.83 255.705 136.357 255.122C134.884 254.54 136.447 250.306 138.183 249.069C138.849 248.598 141.699 247.389 144.975 246.028C150.284 243.85 156.371 241.694 156.371 241.694L161.971 233.529L190.358 234.75Z" fill="#EBEBEB"/>
<path d="M136.166 255.285C137.684 255.878 181.79 258.017 183.526 257.037C184.186 256.668 185.206 249.903 184.937 242.354L156.5 241.005C156.5 241.005 139.795 247.769 138.02 249.046C136.245 250.323 134.654 254.68 136.166 255.285Z" fill="#FDC920"/>
<path d="M136.889 253.56C144.292 253.733 174.129 255.15 181.431 255.889C181.493 255.889 181.493 255.934 181.431 255.934C174.09 255.934 144.264 254.254 136.883 253.694C136.727 253.661 136.732 253.56 136.889 253.56Z" fill="#263238"/>
<path d="M140.921 247.602C141.745 247.619 142.556 247.808 143.303 248.156C144.05 248.504 144.717 249.004 145.261 249.623C146.247 250.728 146.768 252.17 146.717 253.65C146.717 253.694 146.633 253.689 146.627 253.65C146.447 252.174 145.794 250.796 144.765 249.723C143.736 248.65 142.387 247.939 140.921 247.697C140.908 247.697 140.896 247.692 140.887 247.683C140.878 247.674 140.873 247.662 140.873 247.649C140.873 247.637 140.878 247.624 140.887 247.616C140.896 247.607 140.908 247.602 140.921 247.602Z" fill="#263238"/>
<path d="M154.148 241.632C157.105 241.733 160.487 242.948 162.206 245.457C162.274 245.552 162.134 245.647 162.05 245.597C159.527 244.116 156.854 242.908 154.075 241.996C154.036 241.978 154.004 241.948 153.984 241.909C153.964 241.871 153.958 241.827 153.967 241.785C153.975 241.743 153.998 241.704 154.031 241.677C154.064 241.649 154.105 241.633 154.148 241.632Z" fill="#263238"/>
<path d="M151.818 242.41C154.781 242.517 158.157 243.726 159.882 246.235C159.944 246.33 159.809 246.426 159.72 246.375C157.2 244.894 154.528 243.687 151.751 242.774C151.703 242.765 151.66 242.738 151.632 242.697C151.604 242.657 151.594 242.607 151.603 242.559C151.612 242.51 151.639 242.468 151.68 242.44C151.72 242.412 151.77 242.401 151.818 242.41Z" fill="#263238"/>
<path d="M149.489 243.194C152.451 243.295 155.834 244.505 157.553 247.014C157.62 247.114 157.48 247.204 157.396 247.159C154.875 245.674 152.202 244.465 149.422 243.553C149.381 243.538 149.346 243.509 149.325 243.471C149.303 243.433 149.295 243.388 149.303 243.345C149.312 243.302 149.335 243.263 149.369 243.236C149.403 243.208 149.445 243.193 149.489 243.194Z" fill="#263238"/>
<path d="M147.159 243.973C150.121 244.073 153.504 245.283 155.223 247.797C155.29 247.893 155.15 247.988 155.066 247.937C152.553 246.456 149.889 245.247 147.12 244.331C147.08 244.317 147.046 244.291 147.024 244.255C147.001 244.22 146.992 244.178 146.996 244.136C147.001 244.094 147.019 244.056 147.049 244.026C147.079 243.996 147.117 243.977 147.159 243.973Z" fill="#263238"/>
<path d="M179.891 248.772C183.212 248.94 182.949 254.103 179.622 253.929C176.296 253.756 176.565 248.598 179.891 248.772Z" fill="#263238"/>
<path d="M151.354 237.93C152.855 240.07 155.223 241.481 157.262 243.043C157.31 243.077 157.366 243.098 157.425 243.105C157.483 243.112 157.543 243.105 157.598 243.084C157.653 243.063 157.702 243.029 157.741 242.985C157.78 242.941 157.808 242.888 157.822 242.83C157.833 242.833 157.845 242.833 157.857 242.83C157.869 242.827 157.879 242.822 157.889 242.814C157.898 242.807 157.905 242.797 157.91 242.786C157.915 242.776 157.917 242.764 157.917 242.752C157.822 240.034 157.015 237.388 155.576 235.08C154.719 233.747 152.888 232.437 151.331 233.607C149.775 234.778 150.48 236.682 151.354 237.93ZM151.354 235.472C151.807 232.269 154.591 234.878 155.184 235.892C155.56 236.55 155.889 237.233 156.17 237.936C156.73 239.404 157.216 240.899 157.626 242.416C156.674 241.587 155.655 240.848 154.675 240.058C153.487 239.101 151.091 237.236 151.337 235.472H151.354Z" fill="#263238"/>
<path d="M168.501 241.374C168.361 239.431 166.177 238.905 164.581 239.134C161.889 239.571 159.36 240.706 157.245 242.427C157.236 242.435 157.228 242.444 157.223 242.455C157.218 242.465 157.215 242.477 157.215 242.489C157.215 242.501 157.218 242.512 157.223 242.523C157.228 242.534 157.236 242.543 157.245 242.55C157.21 242.597 157.187 242.652 157.178 242.71C157.17 242.768 157.175 242.827 157.194 242.882C157.214 242.938 157.246 242.987 157.289 243.027C157.332 243.067 157.384 243.095 157.441 243.11C159.955 243.631 162.576 244.494 165.169 244.23C166.72 244.04 168.63 243.211 168.501 241.374ZM161.439 243.099C160.196 242.875 158.97 242.59 157.721 242.416C159.132 241.733 160.577 241.122 162.05 240.585C162.765 240.335 163.496 240.135 164.239 239.986C165.393 239.773 169.195 240.165 167.067 242.606C165.897 243.95 162.918 243.368 161.439 243.099Z" fill="#263238"/>
<path d="M155.039 235.78L190.358 240.12C190.358 240.12 225.285 198.333 228.107 195.55C236.855 186.926 268.215 172.03 277.572 158.198C285.972 145.76 277.466 132.471 277.466 132.471H242.981C243.865 136.145 245.041 139.742 246.498 143.229C246.498 143.229 217.854 164.794 202.588 180.189C192.749 190.118 155.039 235.78 155.039 235.78Z" fill="#263238"/>
<path d="M240.365 141C241.373 141.194 242.361 141.479 243.317 141.851C244.313 142.198 245.299 142.602 246.268 143.033C248.166 143.906 250.015 144.882 251.806 145.956C251.862 145.99 251.806 146.068 251.756 146.04C249.863 145.127 247.914 144.315 245.96 143.537L243.16 142.417C242.19 142.08 241.239 141.693 240.309 141.258C240.169 141.224 240.231 141 240.365 141Z" fill="#455A64"/>
<path d="M242.18 132.46C242.622 134.022 243.014 135.596 243.507 137.142C243.737 137.847 243.961 138.57 244.252 139.258C244.498 139.818 244.862 140.49 245.546 140.602C246.33 140.731 246.537 140.042 246.453 139.415C246.334 138.695 246.179 137.981 245.988 137.276C245.803 136.464 244.868 132.522 244.868 132.499C244.868 132.477 244.868 132.426 244.907 132.382C244.916 132.373 244.928 132.369 244.941 132.369C244.953 132.369 244.965 132.373 244.974 132.382C245.126 132.46 246.094 135.49 246.296 136.24C246.498 136.99 246.716 137.746 246.923 138.48C247.136 139.034 247.208 139.633 247.13 140.222C247.067 140.502 246.915 140.754 246.697 140.941C246.479 141.129 246.207 141.242 245.921 141.263C245.949 141.314 245.982 141.358 246.01 141.414C246.083 141.566 246.139 141.728 246.201 141.885C246.262 142.042 246.324 142.21 246.38 142.372C246.402 142.451 246.419 142.532 246.43 142.613C246.43 142.708 246.43 142.798 246.43 142.887C246.443 142.919 246.442 142.955 246.429 142.986C246.415 143.018 246.39 143.043 246.358 143.055C246.326 143.068 246.29 143.067 246.259 143.054C246.227 143.04 246.202 143.014 246.19 142.982C246.145 142.904 246.083 142.842 246.033 142.764C245.985 142.683 245.945 142.596 245.915 142.506C245.859 142.35 245.809 142.193 245.764 142.036C245.719 141.879 245.663 141.717 245.63 141.56C245.611 141.464 245.598 141.367 245.59 141.269C245.261 141.249 244.943 141.138 244.672 140.95C244.219 140.583 243.879 140.096 243.692 139.544C243.434 138.894 243.233 138.222 243.026 137.556C242.495 135.913 242.111 134.227 241.878 132.516C241.87 132.476 241.879 132.434 241.902 132.401C241.925 132.367 241.961 132.344 242.001 132.337C242.041 132.329 242.082 132.338 242.116 132.361C242.149 132.384 242.173 132.42 242.18 132.46Z" fill="#455A64"/>
<path d="M262.783 135.702C262.951 136.475 263.063 137.259 263.264 138.032C263.466 138.805 263.69 139.533 263.964 140.272C264.206 140.984 264.55 141.657 264.983 142.271C265.431 142.85 265.961 143.359 266.557 143.783C267.693 144.631 268.961 145.288 270.309 145.726C270.987 145.958 271.679 146.145 272.381 146.286C272.745 146.354 273.109 146.41 273.501 146.443C273.805 146.446 274.105 146.507 274.386 146.622C274.413 146.638 274.435 146.661 274.45 146.688C274.465 146.715 274.473 146.745 274.473 146.776C274.473 146.807 274.465 146.838 274.45 146.865C274.435 146.892 274.413 146.915 274.386 146.93C273.86 147.104 273.299 147.139 272.756 147.031C270.963 146.903 269.221 146.373 267.66 145.48C266.608 144.923 265.661 144.188 264.86 143.307C264.099 142.38 263.56 141.289 263.287 140.121C262.883 138.698 262.678 137.226 262.676 135.747C262.68 135.737 262.686 135.728 262.693 135.72C262.701 135.712 262.71 135.706 262.72 135.701C262.73 135.697 262.74 135.695 262.751 135.695C262.762 135.695 262.773 135.698 262.783 135.702Z" fill="#455A64"/>
<path d="M162.8 230.6C163.753 230.576 164.707 230.613 165.656 230.712C166.658 230.779 167.655 230.841 168.652 230.919C170.617 231.082 172.572 231.261 174.532 231.479C178.452 231.927 182.417 232.392 186.342 232.935C188.392 233.221 192.788 233.809 193.023 233.938C193.047 233.953 193.065 233.976 193.075 234.002C193.085 234.029 193.086 234.058 193.079 234.085C193.071 234.112 193.055 234.137 193.033 234.154C193.011 234.172 192.984 234.183 192.956 234.184C189.036 233.977 185.116 233.596 181.196 233.226C177.276 232.857 173.356 232.47 169.436 231.927C168.361 231.776 167.285 231.597 166.205 231.434C165.058 231.314 163.921 231.117 162.8 230.846C162.693 230.802 162.671 230.6 162.8 230.6Z" fill="#455A64"/>
<path d="M238.831 187.48C237 188.656 235.23 189.922 233.455 191.176C231.76 192.279 230.133 193.484 228.583 194.782C227.819 195.502 227.099 196.266 226.427 197.073L224.322 199.509C222.916 201.127 221.522 202.762 220.138 204.403C219.354 205.325 218.576 206.259 217.803 207.203C216.997 208.172 216.246 209.191 215.434 210.16C215.425 210.172 215.42 210.187 215.421 210.203C215.422 210.218 215.429 210.233 215.44 210.243C215.452 210.254 215.467 210.26 215.482 210.26C215.498 210.26 215.513 210.254 215.524 210.244C216.958 208.626 218.481 207.074 219.914 205.45C221.348 203.826 222.782 202.202 224.198 200.556C225.615 198.91 226.881 197.325 228.337 195.818C229.826 194.411 231.442 193.143 233.164 192.033C235.124 190.633 237.084 189.233 239.005 187.771C239.167 187.648 239.016 187.379 238.831 187.48Z" fill="#455A64"/>
<path d="M245.943 143.47C240.052 147.602 233.959 152.222 228.421 156.809C222.882 161.395 217.4 166.077 212.046 170.893C210.553 172.237 209.06 173.599 207.566 174.981C206.077 176.37 204.621 178.111 203.131 179.5C203.053 179.573 203.176 179.69 203.254 179.618C205.948 177.204 208.731 174.578 211.458 172.203C214.185 169.829 216.89 167.499 219.617 165.164C225.098 160.471 230.648 155.859 236.266 151.326C239.38 148.801 242.986 146.247 246.066 143.643C246.184 143.559 246.044 143.391 245.943 143.47Z" fill="#455A64"/>
<path d="M276.419 136.52C276.083 135.529 275.724 134.543 275.355 133.558C275.355 133.502 275.243 133.558 275.265 133.586C276.654 137.685 278.065 141.885 278.222 146.253C278.319 148.345 278.015 150.436 277.326 152.413C276.606 154.302 275.539 156.04 274.179 157.537C271.435 160.634 267.946 163.075 264.659 165.545C261.075 168.229 257.433 170.842 253.733 173.385C250.048 175.916 246.268 178.33 242.449 180.665C238.63 183 234.766 185.106 230.969 187.385C229.128 188.473 227.405 189.749 225.828 191.193C224.238 192.682 222.815 194.334 221.382 195.975C218.313 199.481 215.274 203.013 212.265 206.57C206.221 213.664 200.298 220.864 194.496 228.17C193.787 229.058 193.078 229.952 192.368 230.852C192.335 230.897 192.368 230.958 192.43 230.914C198.403 223.6 204.442 216.339 210.546 209.13C213.577 205.546 216.626 201.98 219.691 198.434C222.631 195.04 225.459 191.439 229.211 188.914C231.019 187.682 232.951 186.634 234.85 185.554C236.84 184.434 238.811 183.28 240.763 182.093C244.657 179.752 248.488 177.325 252.255 174.813C256.001 172.304 259.697 169.734 263.326 167.051C265.133 165.715 266.929 164.352 268.713 162.963C270.257 161.796 271.735 160.545 273.143 159.217C274.535 157.901 275.73 156.392 276.693 154.737C277.661 152.986 278.262 151.055 278.457 149.064C278.883 144.791 277.768 140.518 276.419 136.52Z" fill="#455A64"/>
<path d="M237.403 138.53C238.019 139.706 281.083 149.663 281.386 149.467C282.136 148.907 284.606 109.472 273.243 91.8319C271.244 88.7239 266.383 88.1471 263.88 88.7967C262.631 89.1215 257.496 93.4951 255.144 97.8687C252.792 102.242 237.022 137.78 237.403 138.53Z" fill="#FDC920"/>
<g opacity="0.1">
<path d="M271.648 90.2024H261.73C262.122 89.8776 262.486 89.6032 262.805 89.3848H270.169C270.693 89.598 271.189 89.8725 271.648 90.2024Z" fill="black"/>
<path d="M273.887 92.8847H258.874C259.137 92.5991 259.406 92.3247 259.669 92.0671H273.389C273.562 92.3359 273.725 92.6047 273.887 92.8847Z" fill="black"/>
<path d="M275.31 95.5727H256.617C256.819 95.2927 257.032 95.0127 257.244 94.7551H274.907C275.047 95.0239 275.176 95.2983 275.31 95.5727Z" fill="black"/>
<path d="M276.48 98.2551H254.948L255.144 97.8687C255.223 97.7287 255.301 97.5831 255.385 97.4431H276.139C276.251 97.7119 276.363 97.9807 276.48 98.2551Z" fill="black"/>
<path d="M277.444 100.943H253.644C253.784 100.652 253.912 100.383 254.03 100.125H277.164C277.259 100.394 277.354 100.68 277.444 100.943Z" fill="black"/>
<path d="M278.272 103.631H252.4L252.776 102.813H278.032C278.116 103.082 278.194 103.357 278.272 103.631Z" fill="black"/>
<path d="M278.978 106.314H251.174C251.297 106.034 251.42 105.754 251.543 105.496H278.776L278.978 106.314Z" fill="black"/>
<path d="M279.588 109.002H249.953C250.076 108.727 250.205 108.442 250.323 108.184H279.409C279.471 108.453 279.532 108.727 279.588 109.002Z" fill="black"/>
<path d="M280.103 111.69H248.743C248.866 111.415 248.984 111.13 249.107 110.872H279.952C280.008 111.141 280.058 111.415 280.103 111.69Z" fill="black"/>
<path d="M280.557 114.372H247.551C247.674 114.098 247.792 113.812 247.915 113.554H280.4L280.557 114.372Z" fill="black"/>
<path d="M280.96 117.06H246.358C246.476 116.791 246.599 116.5 246.716 116.242H280.826C280.865 116.517 280.899 116.786 280.96 117.06Z" fill="black"/>
<path d="M281.257 119.72H245.176C245.294 119.446 245.411 119.16 245.535 118.902H281.162C281.195 119.199 281.223 119.468 281.257 119.72Z" fill="black"/>
<path d="M281.52 122.43H244C244.112 122.162 244.235 121.87 244.353 121.613H281.442C281.47 121.887 281.52 122.156 281.52 122.43Z" fill="black"/>
<path d="M281.733 125.118H242.83C242.942 124.85 243.065 124.558 243.182 124.301H281.671C281.694 124.575 281.716 124.844 281.733 125.118Z" fill="black"/>
<path d="M281.901 127.801H241.67L242.018 126.983H281.856C281.873 127.258 281.884 127.56 281.901 127.801Z" fill="black"/>
<path d="M282.018 130.489H240.522L240.87 129.671H281.99C282.002 129.946 282.013 130.22 282.018 130.489Z" fill="black"/>
<path d="M282.08 133.16H239.397L239.739 132.342H282.08V133.16Z" fill="black"/>
<path d="M282.136 135.859H238.311C238.406 135.602 238.518 135.327 238.63 135.042H282.131C282.136 135.316 282.136 135.59 282.136 135.859Z" fill="black"/>
<path d="M282.136 137.729C282.136 138.004 282.136 138.289 282.136 138.547H237.415C237.432 138.27 237.5 137.998 237.616 137.746L282.136 137.729Z" fill="black"/>
<path d="M282.08 140.44C282.08 140.72 282.08 141 282.08 141.258H246.24C245.12 140.972 244.107 140.698 243.16 140.44H282.08Z" fill="black"/>
<path d="M282.013 143.1C282.013 143.38 282.013 143.66 281.979 143.917H257.048C255.928 143.643 254.808 143.357 253.688 143.1H282.013Z" fill="black"/>
<path d="M281.867 145.782C281.867 146.068 281.828 146.342 281.806 146.6H268.366L264.866 145.782H281.867Z" fill="black"/>
<path d="M281.61 148.47C281.583 148.746 281.534 149.02 281.464 149.288H280.344C279.504 149.12 278.199 148.834 276.559 148.47H281.61Z" fill="black"/>
</g>
<path d="M271.3 100.904C279.045 100.277 291.88 97.4992 298.863 93.624C303.052 91.2832 303.685 88.1416 303.903 85.9464C304.463 80.268 294.999 71.0504 290.027 67.612C289.371 67.1584 288.419 70.496 285.407 74.2424C282.859 77.4176 278.054 81.0016 278.776 81.612C279.84 82.508 284.774 85.9072 284.539 86.316C284.135 87.016 279.56 88.9592 272.706 92.28C263.511 96.7152 265.84 101.352 271.3 100.904Z" fill="#EB9481"/>
<path d="M291.673 98.7144L278.39 88.5C278.39 88.5 269.402 92.8456 267.033 95.5C264.664 98.1544 266.014 101.408 272.599 102.052C280.148 102.786 291.673 98.7144 291.673 98.7144Z" fill="#FDC920"/>
<path d="M288.33 99.0336C283.29 94.5928 277.886 90.3368 276.872 89.6536C276.827 89.6256 276.782 89.6928 276.816 89.7264C280.445 93.0808 284.273 96.2132 288.279 99.1064C288.318 99.1344 288.369 99.0672 288.33 99.0336Z" fill="#263238"/>
<path d="M280.282 101.016C279.28 101.187 278.326 101.569 277.482 102.136C277.082 102.435 276.722 102.785 276.413 103.177C276.253 103.366 276.11 103.568 275.987 103.782C275.862 103.985 275.755 104.199 275.668 104.421C275.668 104.471 275.724 104.499 275.752 104.465C275.914 104.303 276.049 104.113 276.217 103.95C276.385 103.788 276.536 103.614 276.71 103.457C277.062 103.125 277.436 102.816 277.83 102.533C278.571 101.925 279.415 101.455 280.322 101.145C280.33 101.142 280.338 101.138 280.345 101.132C280.352 101.127 280.357 101.12 280.361 101.112C280.366 101.104 280.368 101.096 280.369 101.087C280.37 101.078 280.369 101.069 280.366 101.061C280.364 101.052 280.36 101.044 280.354 101.037C280.348 101.031 280.341 101.025 280.334 101.021C280.326 101.017 280.317 101.014 280.309 101.013C280.3 101.012 280.291 101.013 280.282 101.016Z" fill="#263238"/>
<g opacity="0.1">
<path d="M280.602 90.2024H275.069C275.629 89.9 276.189 89.6424 276.626 89.3848H279.538L280.602 90.2024Z" fill="black"/>
<path d="M284.091 92.8847H270.432C270.858 92.6103 271.306 92.3247 271.754 92.0671H283.027L284.091 92.8847Z" fill="black"/>
<path d="M287.585 95.5727H266.96L267.022 95.4999C267.266 95.234 267.527 94.9852 267.806 94.7551H286.515L287.585 95.5727Z" fill="black"/>
<path d="M291.074 98.2551H265.963C265.932 97.9843 265.944 97.7104 265.997 97.4431H290.021L291.074 98.2551Z" fill="black"/>
<path d="M287.041 100.12C286.045 100.389 284.93 100.68 283.749 100.937H268.214C267.771 100.72 267.359 100.445 266.988 100.12H287.041Z" fill="black"/>
</g>
<path d="M262.726 96.0822C264.966 97.0118 269.497 94.1446 271.541 91.5462C271.675 91.367 272.173 83.3926 272.437 81.819C272.487 81.4998 262.183 82.5694 262.183 82.5694C262.418 84.6266 262.399 86.7048 262.127 88.7574C262.088 88.987 260.581 95.1806 262.726 96.0822Z" fill="#EB9481"/>
<path d="M261.954 89.3903C261.954 89.4239 261.954 89.4575 261.92 89.4967H261.97C262.283 89.5955 262.603 89.6667 262.928 89.7095C268.304 90.4823 271.205 84.1991 272.129 81.7519C270.449 81.7015 262.183 82.5583 262.183 82.5583C262.418 84.6155 262.399 86.6937 262.127 88.7463C262.127 88.8247 262.099 88.8975 262.088 88.9647C262.056 89.1104 262.011 89.2529 261.954 89.3903Z" fill="#263238"/>
<path d="M260.834 64.207C260.834 64.207 257.474 65.5622 256.824 68.9558C256.174 72.3494 256.914 75.9222 257.205 76.1014C257.496 76.2806 260.834 64.207 260.834 64.207Z" fill="#263238"/>
<path d="M273.786 69.2807C274.856 72.8255 272.969 83.0511 270.426 85.3303C266.77 88.6287 260.794 88.9311 257.994 84.5351C255.278 80.2791 257.994 66.9959 260.794 64.9351C264.961 61.8831 272.196 64.0503 273.786 69.2807Z" fill="#EB9481"/>
<path d="M257.283 73.1782C257.069 74.1169 256.938 75.0726 256.891 76.0342C256.824 77.0254 256.813 78.0166 256.819 79.0078C256.819 79.0638 256.908 79.0582 256.908 79.0078C256.908 78.0334 256.975 77.059 257.059 76.0902C257.143 75.1214 257.3 74.1582 257.351 73.1894C257.356 73.1446 257.295 73.1446 257.283 73.1782Z" fill="#263238"/>
<path d="M263.6 75.4798C263.6 75.4518 263.65 75.519 263.645 75.547C263.499 76.2358 263.449 77.0422 264.031 77.3838C264.031 77.3838 264.031 77.4286 264.031 77.423C263.286 77.1598 263.365 76.0846 263.6 75.4798Z" fill="#263238"/>
<path d="M264.362 74.8472C265.482 74.9648 265.168 77.1992 264.127 77.0872C263.085 76.9752 263.415 74.752 264.362 74.8472Z" fill="#263238"/>
<path d="M259.769 75.0262C259.769 74.9982 259.708 75.0262 259.708 75.0766C259.629 75.7766 259.428 76.5606 258.767 76.7062V76.7454C259.551 76.7398 259.809 75.6982 259.769 75.0262Z" fill="#263238"/>
<path d="M259.249 74.2143C258.129 73.9735 257.748 76.1966 258.767 76.4206C259.786 76.6446 260.173 74.4159 259.249 74.2143Z" fill="#263238"/>
<path d="M265.386 73.9454C265.104 73.8193 264.829 73.6772 264.563 73.5198C264.252 73.4098 263.984 73.2015 263.802 72.9262C263.763 72.8286 263.758 72.721 263.786 72.6199C263.814 72.5188 263.875 72.4297 263.958 72.3662C264.145 72.2662 264.355 72.2176 264.566 72.2254C264.778 72.2333 264.984 72.2974 265.162 72.411C265.558 72.5848 265.873 72.9005 266.047 73.2958C266.08 73.3876 266.087 73.487 266.065 73.5821C266.043 73.6773 265.995 73.7643 265.925 73.8327C265.856 73.9011 265.768 73.9481 265.672 73.9681C265.577 73.9881 265.478 73.9802 265.386 73.9454Z" fill="#263238"/>
<path d="M258.56 72.9655C258.868 72.9467 259.174 72.9111 259.478 72.8591C259.809 72.8668 260.133 72.7666 260.402 72.5735C260.467 72.4968 260.507 72.4018 260.516 72.3015C260.525 72.2012 260.503 72.1006 260.453 72.0135C260.316 71.8567 260.141 71.7384 259.944 71.6706C259.748 71.6028 259.537 71.5878 259.333 71.6271C258.899 71.6498 258.49 71.8335 258.185 72.1423C258.127 72.2158 258.091 72.3037 258.08 72.3964C258.069 72.4891 258.083 72.583 258.122 72.6679C258.161 72.7529 258.222 72.8255 258.299 72.878C258.376 72.9305 258.467 72.9608 258.56 72.9655Z" fill="#263238"/>
<path d="M263.544 81.9984C263.353 82.1384 263.157 82.34 262.9 82.3288C262.643 82.2849 262.397 82.1897 262.177 82.0488C262.177 82.0488 262.133 82.0488 262.144 82.0768C262.223 82.2281 262.342 82.355 262.488 82.4438C262.634 82.5326 262.802 82.58 262.973 82.5808C263.122 82.5611 263.262 82.4972 263.375 82.3974C263.487 82.2977 263.568 82.1665 263.605 82.0208C263.6 82.004 263.566 81.9816 263.544 81.9984Z" fill="#263238"/>
<path d="M263.102 79.8199C262.888 80.0709 262.624 80.2747 262.327 80.4183C262.03 80.562 261.706 80.6423 261.377 80.6543C261.091 80.6672 260.804 80.6408 260.526 80.5759L260.363 80.5311C260.313 80.5214 260.264 80.5063 260.218 80.4863C260.181 80.4759 260.149 80.4528 260.127 80.421C260.106 80.3893 260.096 80.3509 260.1 80.3127C260.098 80.2904 260.098 80.2678 260.1 80.2455V80.1839C260.156 79.6239 260.324 78.8399 260.324 78.8399C260.117 78.9127 259.058 79.2207 259.114 78.9463C259.511 76.5468 260.151 74.1939 261.024 71.9239C261.052 71.8511 261.17 71.8847 261.153 71.9575C260.794 74.1975 260.033 76.3199 259.658 78.5431C260.035 78.4259 260.427 78.3637 260.822 78.3583C260.895 78.3919 260.475 79.9095 260.464 80.1559C260.895 80.262 261.343 80.28 261.78 80.2088C262.218 80.1376 262.637 79.9787 263.012 79.7415C263.102 79.7191 263.152 79.7751 263.102 79.8199Z" fill="#263238"/>
<path d="M260.878 80.3464C261.116 80.7685 261.46 81.1216 261.875 81.3712C262.106 81.5025 262.373 81.5574 262.637 81.528C263.197 81.4608 263.298 80.968 263.253 80.5032C263.232 80.2645 263.181 80.0294 263.102 79.8032C262.437 80.216 261.658 80.4063 260.878 80.3464Z" fill="#263238"/>
<path d="M261.875 81.3711C262.106 81.5023 262.373 81.5572 262.637 81.5279C263.197 81.4607 263.298 80.9679 263.253 80.5031C262.959 80.4722 262.664 80.541 262.414 80.6984C262.164 80.8559 261.974 81.0928 261.875 81.3711Z" fill="#FF98B9"/>
<path d="M272.958 77.5744C271.787 77.7424 271.026 74.1808 270.863 72.8256C270.718 71.6384 270.914 67.9648 270.897 67.7072C270.88 67.4496 265.521 70.1488 262.827 68.8832C260.134 67.6176 258.65 64.7896 258.795 63.6024C258.941 62.4152 262.911 59.968 265.963 60.2872C269.015 60.6064 272.515 65.0976 272.515 65.0976C272.108 64.4566 271.753 63.7843 271.451 63.0872C271.524 62.9584 273.355 64.0448 273.501 65.4952C273.501 65.4952 273.383 63.6864 273.54 63.6752C273.697 63.664 274.979 65.4056 274.459 66.4752C274.459 66.4752 275.976 68.2728 275.881 69.9696C275.786 71.6664 274.335 77.3784 272.958 77.5744Z" fill="#263238"/>
<path d="M260.917 67.9815C261.683 68.5599 262.53 69.0205 263.432 69.3479C264.456 69.6056 265.527 69.6056 266.551 69.3479C267.578 69.1205 268.561 68.7291 269.463 68.1887C270.258 67.7183 270.992 67.1135 271.826 66.7159C272.033 66.6151 272.213 66.9175 272.067 67.0743C270.533 68.6514 268.532 69.6922 266.361 70.0423C265.353 70.2066 264.32 70.1055 263.364 69.749C262.408 69.3926 261.56 68.793 260.906 68.0095C260.906 68.0095 260.906 67.9703 260.917 67.9815Z" fill="#263238"/>
<path d="M264.037 78.784C263.27 78.5754 262.618 78.072 262.221 77.3837C261.824 76.6955 261.716 75.8782 261.92 75.1104C262.066 74.5691 262.36 74.0795 262.771 73.6972C263.181 73.315 263.69 73.0556 264.24 72.9484C264.79 72.8412 265.36 72.8905 265.883 73.0908C266.407 73.291 266.864 73.6342 267.202 74.0813C267.541 74.5283 267.747 75.0613 267.797 75.6197C267.847 76.1781 267.74 76.7393 267.487 77.2398C267.235 77.7402 266.847 78.1596 266.367 78.4505C265.888 78.7413 265.337 78.8918 264.776 78.8848C264.526 78.8844 264.278 78.8505 264.037 78.784ZM262.307 75.2112C262.173 75.7074 262.189 76.2321 262.353 76.719C262.517 77.2059 262.822 77.6332 263.229 77.9468C263.636 78.2605 264.127 78.4463 264.64 78.481C265.153 78.5156 265.664 78.3974 266.11 78.1413C266.555 77.8853 266.915 77.5029 267.143 77.0424C267.371 76.582 267.458 76.0642 267.392 75.5546C267.326 75.045 267.11 74.5664 266.772 74.1793C266.434 73.7922 265.989 73.5141 265.493 73.38C265.282 73.3259 265.066 73.2959 264.849 73.2904C264.272 73.2839 263.71 73.4689 263.25 73.8166C262.789 74.1642 262.458 74.6547 262.307 75.2112Z" fill="#FDC920"/>
<path d="M257.765 77.9439C256.544 77.7815 255.727 76.3199 255.939 74.6791C256.021 73.9359 256.337 73.2379 256.841 72.6855C257.041 72.4335 257.303 72.2376 257.601 72.1168C257.9 71.996 258.224 71.9545 258.543 71.9962C258.862 72.0379 259.165 72.1615 259.422 72.3549C259.679 72.5483 259.882 72.8049 260.011 73.0999C260.352 73.7656 260.475 74.5218 260.363 75.2615C260.162 76.8127 259.109 77.9719 257.961 77.9551L257.765 77.9439ZM257.132 72.9599C256.688 73.4536 256.409 74.0746 256.337 74.7351C256.152 76.1519 256.813 77.4119 257.815 77.5351C258.818 77.6583 259.781 76.6167 259.971 75.1943C260.067 74.5388 259.958 73.8697 259.658 73.2791C259.549 73.0466 259.386 72.8438 259.182 72.6879C258.979 72.5319 258.74 72.4273 258.487 72.3831H258.336C258.106 72.3898 257.881 72.4446 257.673 72.544C257.466 72.6433 257.282 72.785 257.132 72.9599Z" fill="#FDC920"/>
<path d="M261.976 75.48L262.273 75.2056C261.87 74.7688 260.895 74.1248 260.066 74.808L260.318 75.116C261.063 74.4888 261.92 75.4296 261.976 75.48Z" fill="#FDC920"/>
<path d="M275.119 77.9664L275.5 77.832C275.433 77.6528 274.85 76.1072 273.982 75.844C273.114 75.5808 267.777 75.4072 267.548 75.396V75.7992C269.093 75.8552 273.254 76.04 273.876 76.2304C274.497 76.4208 274.968 77.5408 275.119 77.9664Z" fill="#FDC920"/>
<path d="M271.58 77.6135C271.58 77.6135 273.966 74.3599 275.45 75.2167C276.934 76.0735 275.086 80.8167 273.311 81.4495C273.088 81.5443 272.849 81.5931 272.607 81.5928C272.365 81.5926 272.125 81.5434 271.903 81.4482C271.681 81.3529 271.48 81.2136 271.313 81.0387C271.146 80.8638 271.016 80.6568 270.931 80.4303L271.58 77.6135Z" fill="#EB9481"/>
<path d="M274.889 76.5664V76.6112C273.646 77.0872 272.969 78.2184 272.487 79.4112C272.561 79.2891 272.661 79.1846 272.78 79.1051C272.899 79.0255 273.033 78.9726 273.175 78.9503C273.316 78.9279 273.46 78.9365 273.598 78.9755C273.735 79.0144 273.863 79.0829 273.971 79.176C274.005 79.176 273.971 79.2488 273.937 79.2376C273.722 79.1664 273.489 79.1626 273.271 79.2266C273.053 79.2906 272.86 79.4195 272.717 79.596C272.485 79.8989 272.282 80.2233 272.112 80.5648C272.056 80.6768 271.854 80.6096 271.899 80.4864C271.921 78.84 273.193 76.6896 274.889 76.5664Z" fill="#263238"/>
<path d="M275.713 75.256C275.544 75.132 275.348 75.0518 275.14 75.0225C274.933 74.9932 274.722 75.0157 274.526 75.088C274.47 75.088 274.464 75.1384 274.526 75.1216C274.761 75.0517 275.012 75.0517 275.248 75.1216C275.444 75.1832 275.998 75.4128 275.993 76.572C275.908 77.4875 275.655 78.3796 275.248 79.204C275.248 79.232 275.282 79.26 275.298 79.232C275.569 78.716 275.787 78.1738 275.948 77.6136C276.105 76.9864 276.312 75.7656 275.713 75.256Z" fill="#263238"/>
<path d="M272.375 92.3191C271.978 92.7615 271.625 93.2263 271.205 93.6463C270.782 94.0727 270.337 94.4764 269.872 94.8559C268.972 95.5926 267.996 96.2309 266.96 96.7599C265.89 97.397 264.644 97.6756 263.404 97.5551C262.842 97.4595 262.316 97.2123 261.884 96.8403C261.452 96.4683 261.129 95.9856 260.951 95.4439C260.43 94.0439 260.783 92.5543 261.125 91.0871C261.125 91.0367 261.058 91.0143 261.041 91.0871C260.654 92.5935 260.363 93.8311 260.626 95.2479C260.712 95.8008 260.935 96.3235 261.275 96.7685C261.614 97.2134 262.059 97.5666 262.57 97.7959C265.05 98.8263 267.694 97.0399 269.53 95.5111C270.068 95.0621 270.579 94.5815 271.059 94.0719C271.574 93.5535 272.042 92.9914 272.459 92.3919C272.476 92.3247 272.409 92.2799 272.375 92.3191Z" fill="#263238"/>
<path d="M292.871 146.712H92.0889V153.852H292.871V146.712Z" fill="#37474F"/>
<path d="M292.871 151.063H92.0889V153.852H292.871V151.063Z" fill="#455A64"/>
<path d="M99.2902 254.036H96.4062L104.806 153.852H112.17L99.2902 254.036Z" fill="#455A64"/>
<path d="M112.171 153.852L111.308 160.555H104.247L104.807 153.852H112.171Z" fill="#263238"/>
<path d="M285.67 254.036H288.554L280.154 153.852H272.79L285.67 254.036Z" fill="#455A64"/>
<path d="M272.79 153.852L273.652 160.555H280.714L280.154 153.852H272.79Z" fill="#263238"/>
<path d="M216.185 146.707H247.203V144.293L216.185 143.291V146.707Z" fill="#455A64"/>
<path d="M191.802 146.662H212.27C214.018 146.662 211.486 141.689 205.114 139.785C198.741 137.881 189.798 144.797 191.802 146.662Z" fill="#37474F"/>
<path d="M199.833 146.662C199.5 145.615 199.053 144.609 198.5 143.66C198.227 143.196 197.908 142.761 197.548 142.361C197.176 141.957 196.774 141.582 196.344 141.241C196.899 141.404 197.412 141.682 197.851 142.058C198.296 142.435 198.674 142.884 198.971 143.386C199.27 143.883 199.498 144.421 199.648 144.982C199.805 145.527 199.868 146.095 199.833 146.662Z" fill="#263238"/>
<path d="M197.408 141.93C196.333 142.63 195.257 143.257 194.249 143.979C193.745 144.329 193.269 144.718 192.827 145.144C192.373 145.565 192.023 146.084 191.802 146.662C191.816 145.997 192.064 145.359 192.502 144.858C192.909 144.347 193.388 143.898 193.925 143.526C194.455 143.155 195.017 142.833 195.605 142.562C196.182 142.288 196.786 142.076 197.408 141.93Z" fill="#263238"/>
<path d="M177.119 137.035H226.864L218.957 100.002H169.207L177.119 137.035Z" fill="#455A64"/>
<path d="M175.282 137.035H225.027L217.114 100.002H167.37L175.282 137.035Z" fill="#37474F"/>
<path d="M202.112 123.758H203.277L201.507 115.453H200.342L202.112 123.758Z" fill="#263238"/>
<path d="M199.81 123.758H200.975L199.206 115.453H198.035L199.81 123.758Z" fill="#263238"/>
<path d="M197.509 123.758H198.673L196.904 115.453H195.733L197.509 123.758Z" fill="#263238"/>
<path d="M195.207 123.758H196.372L194.603 115.453H193.432L195.207 123.758Z" fill="#263238"/>
<path d="M192.9 123.758H194.07L192.301 115.453H191.13L192.9 123.758Z" fill="#263238"/>
<path d="M190.598 123.758H191.769L189.993 115.453H188.829L190.598 123.758Z" fill="#263238"/>
<path d="M188.297 123.758H189.467L187.692 115.453H186.527L188.297 123.758Z" fill="#263238"/>
<path d="M189.35 146.712H213.816V144.808L189.35 144.019V146.712Z" fill="#455A64"/>
<path d="M182.697 146.706H195.834L203.747 125.953H190.61L182.697 146.706Z" fill="#455A64"/>
<path d="M180.535 146.706H193.673L201.58 125.953H188.448L180.535 146.706Z" fill="#263238"/>
<path d="M178.144 70.2496C178.144 70.2496 175.12 94.66 170.08 100.154C164.066 106.739 159.703 105.754 157.273 109.175C154.848 105.77 150.48 106.739 144.46 100.148C139.42 94.6544 136.407 70.244 136.407 70.244C149.612 63.8376 157.273 56.6528 157.273 56.6528C157.508 56.8824 165.141 63.944 178.144 70.2496Z" fill="#FDC920"/>
<path opacity="0.2" d="M157.273 56.664V109.175C154.848 105.77 150.48 106.739 144.46 100.148C139.42 94.6544 136.407 70.244 136.407 70.244C149.612 63.8376 157.273 56.6528 157.273 56.6528V56.664Z" fill="black"/>
<path opacity="0.1" d="M178.144 70.2497C178.144 70.2497 175.12 94.6601 170.08 100.154C164.066 106.739 159.703 105.754 157.273 109.175V56.6641C157.508 56.8825 165.141 63.9441 178.144 70.2497Z" fill="black"/>
<path d="M174.902 72.2154C174.902 72.2154 172.32 92.8402 168.098 97.477C163.013 103.077 159.323 102.231 157.267 105.104C155.218 102.231 151.527 103.055 146.443 97.477C142.209 92.8346 139.639 72.2154 139.639 72.2154C150.794 66.8002 157.267 60.7354 157.267 60.7354C157.267 60.7354 163.752 66.8002 174.902 72.2154Z" fill="#FDC920"/>
<path d="M162.559 79.9937H151.981V89.5921H162.559V79.9937Z" fill="white"/>
<path d="M161.501 82.9503H160.425V78.6663C160.391 77.8524 160.044 77.0832 159.456 76.5194C158.868 75.9557 158.084 75.6409 157.27 75.6409C156.455 75.6409 155.672 75.9557 155.084 76.5194C154.496 77.0832 154.149 77.8524 154.114 78.6663V82.9503H153.039V78.6663C153.079 77.5709 153.542 76.5336 154.331 75.7727C155.12 75.0118 156.174 74.5867 157.27 74.5867C158.366 74.5867 159.419 75.0118 160.209 75.7727C160.998 76.5336 161.461 77.5709 161.501 78.6663V82.9503Z" fill="white"/>
<path d="M157.721 84.9104L158.163 87.0104H156.282L156.724 84.9104C156.551 84.8021 156.418 84.6404 156.344 84.4497C156.271 84.259 156.262 84.0496 156.318 83.8532C156.374 83.6568 156.493 83.4841 156.656 83.3611C156.819 83.2381 157.018 83.1716 157.223 83.1716C157.427 83.1716 157.626 83.2381 157.789 83.3611C157.952 83.4841 158.071 83.6568 158.127 83.8532C158.183 84.0496 158.174 84.259 158.101 84.4497C158.028 84.6404 157.894 84.8021 157.721 84.9104Z" fill="#37474F"/>
<path d="M122.721 137.578H92.0889V111.673L107.399 101.946L122.721 111.673V137.578Z" fill="#FDC920"/>
<path opacity="0.2" d="M122.721 137.578H92.0889V111.673L107.399 101.946L122.721 111.673V137.578Z" fill="black"/>
<path d="M120.99 133.457H93.8135V98.5745H113.99L120.99 105.222V133.457Z" fill="#EBEBEB"/>
<path d="M113.99 98.5745L120.99 105.222H113.99V98.5745Z" fill="#DBDBDB"/>
<path d="M96.4679 105.323H111.577V104.427H96.4679V105.323Z" fill="#DBDBDB"/>
<path d="M96.4679 107.585H111.577V106.689H96.4679V107.585Z" fill="#DBDBDB"/>
<path d="M96.4679 109.842H111.577V108.946H96.4679V109.842Z" fill="#DBDBDB"/>
<path d="M96.4682 112.11H118.605V111.214H96.4682V112.11Z" fill="#DBDBDB"/>
<path d="M96.4682 114.366H118.605V113.47H96.4682V114.366Z" fill="#DBDBDB"/>
<path d="M96.4682 116.629H118.605V115.733H96.4682V116.629Z" fill="#DBDBDB"/>
<path d="M96.4682 118.886H118.605V117.99H96.4682V118.886Z" fill="#DBDBDB"/>
<path d="M96.4682 121.154H118.605V120.258H96.4682V121.154Z" fill="#DBDBDB"/>
<path d="M96.4682 123.41H118.605V122.514H96.4682V123.41Z" fill="#DBDBDB"/>
<path d="M96.4682 125.673H118.605V124.777H96.4682V125.673Z" fill="#DBDBDB"/>
<path d="M96.4682 127.93H118.605V127.034H96.4682V127.93Z" fill="#DBDBDB"/>
<path d="M96.4682 130.192H118.605V129.296H96.4682V130.192Z" fill="#DBDBDB"/>
<path d="M122.721 118.158V137.579H92.0889V118.158C93.4049 118.903 94.6985 119.681 96.0089 120.448C97.3193 121.215 98.6017 121.999 99.8897 122.795C101.327 123.668 102.761 124.553 104.19 125.449H104.241L104.202 125.483L107.416 127.493C108.486 126.821 109.555 126.143 110.63 125.483L110.591 125.449H110.636C112.07 124.559 113.498 123.674 114.937 122.795C116.225 122.007 117.518 121.227 118.818 120.454C120.111 119.681 121.405 118.903 122.721 118.158Z" fill="#FDC920"/>
<path d="M122.721 118.158C121.483 119.026 120.223 119.838 118.974 120.711C117.726 121.585 116.46 122.391 115.194 123.215C113.929 124.038 112.546 124.934 111.224 125.785L111.106 125.869L107.578 128.109L107.399 128.215L107.231 128.109C106.055 127.362 104.881 126.616 103.709 125.869C103.666 125.846 103.625 125.82 103.586 125.791C102.253 124.939 100.931 124.111 99.6097 123.215C98.2881 122.319 97.0897 121.535 95.8353 120.717C94.5809 119.899 93.3265 119.037 92.0889 118.163C93.4049 118.908 94.6985 119.687 96.0089 120.454C97.3193 121.221 98.6017 122.005 99.8897 122.8C101.327 123.674 102.761 124.559 104.19 125.455L107.405 127.465C108.474 126.793 109.544 126.115 110.619 125.455C112.053 124.564 113.481 123.679 114.92 122.8C116.208 122.012 117.502 121.232 118.801 120.459C120.111 119.681 121.405 118.903 122.721 118.158Z" fill="white"/>
<path d="M104.23 125.421L104.19 125.455L103.709 125.863C102.942 126.513 102.152 127.135 101.351 127.739C100.377 128.484 99.38 129.195 98.3776 129.901C97.3752 130.606 96.356 131.29 95.32 131.95C94.284 132.611 93.2424 133.261 92.1616 133.854C93.0912 133.043 94.06 132.281 95.0344 131.542C96.0088 130.802 97.0112 130.08 98.008 129.375C99.0048 128.669 100.035 127.986 101.066 127.325C101.889 126.765 102.746 126.272 103.586 125.785L104.179 125.449L104.23 125.421Z" fill="white"/>
<path d="M122.642 133.854C121.562 133.261 120.514 132.611 119.484 131.95C118.454 131.29 117.44 130.595 116.426 129.901C115.413 129.206 114.427 128.484 113.447 127.739C112.652 127.135 111.868 126.518 111.106 125.869C110.938 125.729 110.776 125.595 110.619 125.455L110.58 125.421H110.625L111.224 125.762C112.081 126.25 112.904 126.77 113.738 127.302C114.774 127.963 115.788 128.652 116.796 129.352C117.804 130.052 118.795 130.775 119.77 131.519C120.744 132.264 121.713 133.043 122.642 133.854Z" fill="white"/>
<path d="M122.643 142.546C125.426 142.546 127.683 140.289 127.683 137.506C127.683 134.722 125.426 132.466 122.643 132.466C119.859 132.466 117.603 134.722 117.603 137.506C117.603 140.289 119.859 142.546 122.643 142.546Z" fill="#37474F"/>
<path d="M125.14 136.234H120.145V140.77H125.14V136.234Z" fill="white"/>
<path d="M124.642 137.64H124.16V135.613C124.137 135.233 123.969 134.876 123.692 134.615C123.415 134.354 123.048 134.209 122.668 134.209C122.287 134.209 121.921 134.354 121.643 134.615C121.366 134.876 121.199 135.233 121.175 135.613V137.64H120.671V135.613C120.657 135.342 120.698 135.071 120.792 134.816C120.886 134.561 121.03 134.328 121.217 134.131C121.404 133.934 121.629 133.777 121.878 133.67C122.128 133.563 122.396 133.508 122.668 133.508C122.939 133.508 123.208 133.563 123.457 133.67C123.706 133.777 123.931 133.934 124.118 134.131C124.305 134.328 124.45 134.561 124.544 134.816C124.637 135.071 124.678 135.342 124.664 135.613L124.642 137.64Z" fill="white"/>
<path d="M122.855 138.558L123.068 139.55H122.178L122.385 138.558C122.322 138.518 122.27 138.462 122.234 138.397C122.198 138.331 122.179 138.258 122.178 138.183C122.176 138.105 122.195 138.027 122.233 137.958C122.271 137.889 122.327 137.831 122.394 137.79C122.462 137.75 122.539 137.727 122.617 137.726C122.696 137.724 122.774 137.744 122.843 137.782C122.912 137.82 122.969 137.876 123.01 137.943C123.05 138.011 123.072 138.088 123.074 138.167C123.075 138.245 123.055 138.323 123.017 138.392C122.979 138.461 122.923 138.518 122.855 138.558Z" fill="#37474F"/>
<path d="M145.53 86.5288H94.1104V94.324H145.53V86.5288Z" fill="white"/>
<path d="M145.804 94.604H93.8301V86.2488H145.804V94.604ZM94.3901 94.044H145.244V86.8088H94.3901V94.044Z" fill="#EBEBEB"/>
<path d="M92.7382 95.4665C95.5218 95.4665 97.7782 93.21 97.7782 90.4265C97.7782 87.643 95.5218 85.3865 92.7382 85.3865C89.9547 85.3865 87.6982 87.643 87.6982 90.4265C87.6982 93.21 89.9547 95.4665 92.7382 95.4665Z" fill="#37474F"/>
<path d="M95.2359 89.1497H90.2407V93.6857H95.2359V89.1497Z" fill="white"/>
<path d="M94.7377 90.5496H94.2281V88.528C94.2281 88.1329 94.0711 87.7541 93.7918 87.4747C93.5124 87.1954 93.1335 87.0384 92.7385 87.0384C92.3434 87.0384 91.9645 87.1954 91.6852 87.4747C91.4058 87.7541 91.2489 88.1329 91.2489 88.528V90.5496H90.7393V88.528C90.7393 87.9978 90.9499 87.4893 91.3248 87.1144C91.6997 86.7394 92.2082 86.5288 92.7385 86.5288C93.2687 86.5288 93.7772 86.7394 94.1521 87.1144C94.527 87.4893 94.7377 87.9978 94.7377 88.528V90.5496Z" fill="white"/>
<path d="M92.9513 91.4736L93.1585 92.4704H92.2681L92.4809 91.4736C92.4156 91.4353 92.3615 91.3804 92.3242 91.3145C92.2868 91.2487 92.2675 91.1741 92.2681 91.0984C92.2804 90.989 92.3326 90.8879 92.4147 90.8144C92.4968 90.741 92.6031 90.7004 92.7133 90.7004C92.8234 90.7004 92.9297 90.741 93.0119 90.8144C93.094 90.8879 93.1462 90.989 93.1585 91.0984C93.1586 91.1734 93.1396 91.2472 93.1033 91.3128C93.0671 91.3784 93.0148 91.4338 92.9513 91.4736Z" fill="#37474F"/>
<path d="M103.025 88.7688H102.465V92.336H103.025V88.7688Z" fill="#37474F"/>
<path d="M104.526 90.2698H100.959V90.8298H104.526V90.2698Z" fill="#37474F"/>
<path d="M103.807 89.0906L101.284 91.613L101.68 92.009L104.203 89.4866L103.807 89.0906Z" fill="#37474F"/>
<path d="M101.685 89.0906L101.289 89.4866L103.811 92.009L104.207 91.613L101.685 89.0906Z" fill="#37474F"/>
<path d="M109.079 88.7688H108.519V92.336H109.079V88.7688Z" fill="#37474F"/>
<path d="M110.585 90.2698H107.018V90.8298H110.585V90.2698Z" fill="#37474F"/>
<path d="M109.867 89.0902L107.344 91.6125L107.74 92.0085L110.263 89.4861L109.867 89.0902Z" fill="#37474F"/>
<path d="M107.74 89.094L107.344 89.49L109.867 92.0124L110.263 91.6164L107.74 89.094Z" fill="#37474F"/>
<path d="M115.138 88.7688H114.578V92.336H115.138V88.7688Z" fill="#37474F"/>
<path d="M116.639 90.2698H113.072V90.8298H116.639V90.2698Z" fill="#37474F"/>
<path d="M115.916 89.0936L113.394 91.616L113.79 92.0119L116.312 89.4896L115.916 89.0936Z" fill="#37474F"/>
<path d="M113.794 89.0935L113.398 89.4895L115.921 92.0119L116.317 91.6159L113.794 89.0935Z" fill="#37474F"/>
<path d="M121.197 88.7688H120.637V92.336H121.197V88.7688Z" fill="#37474F"/>
<path d="M122.698 90.2698H119.131V90.8298H122.698V90.2698Z" fill="#37474F"/>
<path d="M121.976 89.0931L119.454 91.6155L119.85 92.0115L122.372 89.4891L121.976 89.0931Z" fill="#37474F"/>
<path d="M119.854 89.093L119.458 89.489L121.98 92.0114L122.376 91.6154L119.854 89.093Z" fill="#37474F"/>
<path d="M127.251 88.7688H126.691V92.336H127.251V88.7688Z" fill="#37474F"/>
<path d="M128.758 90.2698H125.19V90.8298H128.758V90.2698Z" fill="#37474F"/>
<path d="M128.036 89.0926L125.514 91.615L125.91 92.011L128.432 89.4886L128.036 89.0926Z" fill="#37474F"/>
<path d="M125.91 89.0965L125.514 89.4924L128.036 92.0148L128.432 91.6189L125.91 89.0965Z" fill="#37474F"/>
<path d="M133.31 88.7688H132.75V92.336H133.31V88.7688Z" fill="#37474F"/>
<path d="M134.811 90.2698H131.244V90.8298H134.811V90.2698Z" fill="#37474F"/>
<path d="M134.092 89.0904L131.569 91.6128L131.965 92.0088L134.488 89.4864L134.092 89.0904Z" fill="#37474F"/>
<path d="M131.969 89.0903L131.573 89.4863L134.096 92.0087L134.492 91.6127L131.969 89.0903Z" fill="#37474F"/>
<path d="M102.068 210.39C102.068 210.39 89.6528 207.59 82.8488 201.306C76.0448 195.023 72.248 183.806 72.248 183.806C76.9658 184.717 81.6169 185.944 86.1696 187.48C87.2896 188.667 89.3952 191.114 90.3808 193.433C90.4966 192.017 90.5078 190.594 90.4144 189.177C92.0023 189.866 93.4888 190.768 94.8328 191.859C100.472 196.782 102.068 210.39 102.068 210.39Z" fill="#FDC920"/>
<path d="M79.9983 189.266C78.3183 188.09 76.5823 186.965 74.8967 185.783C74.8806 185.767 74.8703 185.746 74.8675 185.724C74.8647 185.702 74.8694 185.679 74.8811 185.66C74.8927 185.64 74.9105 185.625 74.9316 185.617C74.9527 185.609 74.976 185.608 74.9975 185.615C78.1951 187.525 81.3535 189.569 84.3999 191.708C85.4639 192.453 86.5111 193.231 87.5415 194.021L87.3287 193.651C86.9535 193.03 86.5615 192.419 86.1695 191.809C85.391 190.563 84.5086 189.384 83.5319 188.286C83.4983 188.247 83.5319 188.191 83.5935 188.23C84.5623 189.35 85.5255 190.47 86.3935 191.63C86.8135 192.19 87.1999 192.75 87.5695 193.371C87.7655 193.679 87.9503 193.993 88.1295 194.306L88.3143 194.626C89.9215 195.886 91.4839 197.202 92.9735 198.59C93.8975 199.453 94.7823 200.338 95.6391 201.256C95.1631 199.755 94.7431 198.238 94.1831 196.776C94.1831 196.726 94.2503 196.709 94.2671 196.776C94.8271 198.327 95.3871 199.884 95.8183 201.48C96.7703 202.503 97.6757 203.569 98.5343 204.678C98.5343 204.61 98.5343 204.543 98.4895 204.476C98.3495 203.916 98.2039 203.306 98.0471 202.729C97.7447 201.609 97.4143 200.489 97.0335 199.369C96.3149 197.08 95.1754 194.945 93.6735 193.074C93.6399 193.03 93.6735 192.974 93.7351 193.013C96.1599 195.886 97.5823 199.33 98.4895 202.942C98.6183 203.474 98.7471 204 98.8647 204.532C98.9319 204.812 99.0047 205.092 99.0551 205.389C99.4303 205.898 99.7943 206.408 100.175 206.934C102.291 210.17 104.053 213.625 105.428 217.238C106.982 221.295 108.311 225.434 109.41 229.637C109.41 229.721 109.309 229.749 109.281 229.67C106.85 222.39 104.375 215.038 100.214 208.547C99.3375 207.177 98.3917 205.852 97.3807 204.577C95.3245 204.445 93.2947 204.042 91.3439 203.378C89.2138 202.66 87.182 201.678 85.2959 200.455C84.2285 199.73 83.1987 198.95 82.2103 198.12C82.2044 198.117 82.1992 198.113 82.1951 198.107C82.1911 198.102 82.1883 198.096 82.187 198.089C82.1856 198.082 82.1858 198.076 82.1874 198.069C82.1891 198.063 82.1922 198.057 82.1965 198.051C82.2008 198.046 82.2061 198.042 82.2122 198.039C82.2183 198.037 82.225 198.035 82.2317 198.035C82.2384 198.035 82.245 198.037 82.251 198.04C82.257 198.043 82.2622 198.047 82.2663 198.053C83.9995 199.447 85.9134 200.6 87.9559 201.48C89.9626 202.4 92.0613 203.104 94.2167 203.58C95.1351 203.782 96.0647 203.927 97.0167 204.056C95.8681 202.637 94.6475 201.279 93.3599 199.985C92.9399 199.57 92.5087 199.167 92.0775 198.764C90.6297 197.751 89.0927 196.872 87.4855 196.138C85.4527 195.152 83.4535 194.11 81.4375 193.086C80.3175 192.526 79.1975 191.915 78.0271 191.361C77.9823 191.333 78.0271 191.266 78.0719 191.288C80.1159 192.274 82.1879 193.192 84.2319 194.138C86.1751 195.023 88.1519 195.914 89.9943 196.938L90.2295 197.078C88.5458 195.615 86.8117 194.213 85.0271 192.873C83.3639 191.652 81.6951 190.437 79.9983 189.266Z" fill="#263238"/>
<path d="M80.704 195.662C81.712 196.104 82.7424 196.496 83.7392 196.967C84.736 197.437 85.7384 198.008 86.7184 198.585C86.7576 198.613 86.7184 198.669 86.6736 198.652C85.688 198.176 84.6856 197.734 83.7056 197.241C82.7256 196.748 81.7064 196.194 80.676 195.746C80.6312 195.723 80.6536 195.639 80.704 195.662Z" fill="#263238"/>
<path d="M142.394 147.832C140.1 150.791 138.802 154.4 138.687 158.142C138.642 159.262 138.821 160.802 138.95 162.622C134.319 165.08 130.847 169.56 130.847 169.56C133.479 167.981 137.085 167.32 139.034 167.6C138.97 168.846 138.811 170.086 138.558 171.307C137.701 171.257 136.038 171.374 133.294 172.349C134.925 172.332 136.541 172.652 138.043 173.29C135.831 180.334 129.251 187.564 111.09 190.65C109.16 182.012 110.297 172.972 114.304 165.08C119.747 154.367 142.394 147.832 142.394 147.832Z" fill="#FDC920"/>
<path d="M104.801 220.755C105.114 217.746 105.506 214.746 105.977 211.756C106.897 205.773 108.119 199.841 109.639 193.982C110.351 191.231 111.226 188.525 112.26 185.878C112.209 185.395 112.188 184.909 112.198 184.422C112.198 183.862 112.198 183.258 112.198 182.681C112.198 181.516 112.254 180.353 112.366 179.192C112.552 176.895 112.926 174.618 113.486 172.382C113.817 171.089 114.203 169.818 114.606 168.535C114.606 168.485 114.701 168.507 114.685 168.535C114.085 170.768 113.638 173.04 113.346 175.334C113.022 177.595 112.819 179.872 112.736 182.154C112.736 182.776 112.702 183.398 112.702 184.025C112.702 184.288 112.702 184.557 112.702 184.826C113.592 182.663 114.613 180.557 115.76 178.52C117.606 175.274 119.683 172.166 121.976 169.218C121.982 168.875 122.033 168.535 122.127 168.205C122.211 167.796 122.301 167.393 122.39 166.99C122.575 166.161 122.782 165.31 123.012 164.514C123.46 162.868 124.059 161.278 124.574 159.654C124.574 159.598 124.669 159.626 124.653 159.654C124.171 161.261 123.852 162.93 123.488 164.565C123.303 165.377 123.129 166.189 122.928 167.001C122.838 167.404 122.749 167.807 122.665 168.216V168.306C123.398 167.382 124.149 166.463 124.905 165.567C128.371 161.502 132.185 157.727 136.004 154.026C136.474 153.566 136.956 153.118 137.432 152.665C137.44 152.66 137.451 152.657 137.461 152.659C137.471 152.66 137.48 152.664 137.487 152.671C137.494 152.678 137.499 152.688 137.5 152.698C137.501 152.708 137.499 152.718 137.493 152.726C133.837 156.546 130.213 160.404 126.82 164.442C126.013 165.405 125.213 166.374 124.429 167.359C124.843 167.079 125.257 166.799 125.666 166.542C126.725 165.847 127.794 165.175 128.897 164.559C130.001 163.943 131.109 163.338 132.257 162.773C133.405 162.207 134.671 161.726 135.791 161.093C135.841 161.065 135.881 161.143 135.836 161.166C134.687 161.696 133.579 162.31 132.521 163.002C131.401 163.658 130.281 164.318 129.222 165.007C128.164 165.696 127.083 166.351 126.025 167.04C125.14 167.6 124.272 168.238 123.353 168.77C121.247 171.475 119.305 174.302 117.535 177.238C116.435 179.087 115.431 180.991 114.528 182.944L115.177 182.664L116.857 181.925C117.927 181.449 119.002 180.984 120.072 180.519C122.11 179.634 124.177 178.839 126.176 177.848C127.302 177.319 128.391 176.715 129.435 176.039C129.48 176.006 129.519 176.078 129.48 176.112C125.756 178.677 121.578 180.486 117.457 182.311L115.67 183.101C115.177 183.319 114.685 183.56 114.181 183.75C112.962 186.476 111.935 189.282 111.106 192.15C109.493 197.935 108.185 203.801 107.186 209.723C106.145 215.654 105.439 221.629 104.896 227.643C104.823 228.394 104.756 229.138 104.672 229.883C104.672 229.946 104.647 230.005 104.603 230.05C104.559 230.094 104.499 230.118 104.437 230.118C104.374 230.118 104.314 230.094 104.27 230.05C104.226 230.005 104.201 229.946 104.201 229.883C104.173 226.831 104.481 223.779 104.801 220.755Z" fill="#263238"/>
<path d="M115.85 170.596C116.186 168.748 116.678 166.945 117.177 165.136C117.177 165.08 117.266 165.108 117.255 165.136C116.796 166.911 116.466 168.72 116.135 170.523C115.805 172.326 115.491 174.202 115.234 176.05C115.234 176.078 115.183 176.084 115.183 176.05C115.305 174.221 115.527 172.401 115.85 170.596Z" fill="#263238"/>
<path d="M123.678 175.603C124.942 174.764 126.263 174.015 127.632 173.363C128.293 173.021 128.965 172.696 129.631 172.371C130.298 172.047 131.042 171.755 131.726 171.414C131.735 171.411 131.745 171.412 131.753 171.416C131.762 171.419 131.77 171.426 131.775 171.434C131.78 171.442 131.782 171.451 131.781 171.461C131.78 171.47 131.777 171.479 131.77 171.487C131.104 171.817 130.477 172.22 129.822 172.579C129.166 172.937 128.483 173.318 127.806 173.699C126.478 174.41 125.174 175.199 123.779 175.782C123.755 175.795 123.727 175.798 123.701 175.791C123.675 175.784 123.653 175.766 123.639 175.743C123.626 175.719 123.622 175.691 123.63 175.664C123.637 175.638 123.655 175.616 123.678 175.603Z" fill="#263238"/>
<path opacity="0.1" d="M101.844 188.886C101.844 188.886 90.3527 186.142 85.0831 178.436C80.0431 171.078 78.4135 158.534 78.2847 157.43C78.4919 158.438 80.8663 169.403 88.6839 174.51C94.6703 178.425 100.455 181.639 101.844 188.886Z" fill="#263238"/>
<path d="M101.844 188.886C101.844 188.886 90.3528 186.142 85.0832 178.436C80.0432 171.078 78.4136 158.534 78.2848 157.43C78.2827 157.404 78.2827 157.378 78.2848 157.352C78.2848 157.352 83.7952 165.192 89.5856 167.18C95.376 169.168 103.502 176.084 101.844 188.886Z" fill="#FDC920"/>
<path d="M80.3118 161.67C81.3326 163.779 82.512 165.809 83.8398 167.74C85.1798 169.574 86.7686 171.211 88.5606 172.606C90.123 173.844 91.775 174.97 93.3542 176.179L93.315 176.123C93.0182 175.686 92.7046 175.255 92.3742 174.841C91.719 174.001 91.0022 173.206 90.2742 172.422C88.8518 170.87 87.3902 169.353 86.1134 167.678C85.4005 166.754 84.7832 165.76 84.271 164.71C84.271 164.66 84.327 164.632 84.3494 164.71C86.2142 168.591 89.9494 171.078 92.5926 174.354C92.9697 174.821 93.3229 175.307 93.651 175.81C93.9135 176.172 94.1351 176.563 94.3118 176.974C95.7661 178.139 97.0814 179.468 98.2318 180.934C98.1327 180.177 97.9792 179.428 97.7726 178.694C97.5043 177.672 97.0933 176.694 96.5518 175.787C96.5518 175.742 96.5966 175.692 96.6246 175.737C97.1807 176.647 97.6298 177.619 97.963 178.632C98.2098 179.432 98.3566 180.26 98.3998 181.096C98.9673 181.867 99.4854 182.673 99.951 183.51C99.9006 183.263 99.8558 183.017 99.8054 182.77C99.5814 181.65 99.3294 180.486 99.0326 179.36C98.4908 177.071 97.5587 174.893 96.2774 172.92C96.2751 172.911 96.2758 172.901 96.2794 172.892C96.2829 172.883 96.2892 172.876 96.2974 172.871C96.3055 172.866 96.315 172.864 96.3245 172.864C96.334 172.865 96.343 172.869 96.3502 172.875C97.6665 174.828 98.6962 176.959 99.4078 179.203C99.7774 180.323 100.069 181.477 100.326 182.636C100.455 183.196 100.567 183.756 100.673 184.316C100.729 184.607 100.797 184.91 100.841 185.212C101.983 187.712 102.87 190.319 103.49 192.996C104.621 197.78 105.44 202.632 105.943 207.522C106.534 212.641 106.797 217.793 106.733 222.945C106.733 223.589 106.688 224.233 106.649 224.882C106.649 225.045 106.391 225.073 106.385 224.882C106.273 222.334 106.206 219.786 106.055 217.238C105.904 214.69 105.68 212.148 105.411 209.606C104.887 204.617 104.087 199.661 103.014 194.76C102.085 190.56 100.875 186.332 98.579 182.653C97.4376 180.823 96.0424 179.163 94.435 177.725C92.8278 176.28 91.075 175.014 89.395 173.676C87.6745 172.369 86.1127 170.866 84.7414 169.196C83.3202 167.345 82.0806 165.36 81.0398 163.271C80.771 162.75 80.4798 162.235 80.2166 161.714C80.211 161.67 80.2838 161.625 80.3118 161.67Z" fill="#263238"/>
<path d="M82.2945 163.355C83.0442 164.905 83.8992 166.402 84.8537 167.835C84.8537 167.869 84.8201 167.902 84.7977 167.869C83.8129 166.45 82.9475 164.951 82.2105 163.389C82.1881 163.333 82.2665 163.305 82.2945 163.355Z" fill="#263238"/>
<path d="M143.995 183.806C143.995 183.806 144.18 200.13 134.419 204.84C124.658 209.55 119.422 205.63 112.792 207.209C113.05 206.822 117.782 200.018 125.314 198.142C133.064 196.199 141.649 190.605 143.995 183.806Z" fill="#FDC920"/>
<path opacity="0.1" d="M143.995 183.806C143.995 183.806 144.18 200.13 134.419 204.84C124.658 209.55 119.422 205.63 112.792 207.209C116.297 205.543 120.043 204.439 123.891 203.938C130.057 203.16 141.811 199.173 143.995 183.806Z" fill="black"/>
<path d="M112.148 207.5C113.309 206.441 114.616 205.555 116.029 204.868C116.242 204.767 116.455 204.689 116.667 204.599C116.77 204.468 116.88 204.343 116.998 204.224C117.287 203.916 117.594 203.624 117.916 203.35C118.526 202.821 119.182 202.346 119.876 201.934C121.495 200.982 123.27 200.315 124.916 199.436C124.921 199.433 124.926 199.432 124.932 199.431C124.937 199.431 124.942 199.431 124.948 199.433C124.953 199.434 124.958 199.437 124.962 199.44C124.966 199.444 124.97 199.448 124.972 199.453C124.975 199.458 124.976 199.463 124.977 199.468C124.977 199.474 124.977 199.479 124.975 199.484C124.974 199.489 124.971 199.494 124.968 199.499C124.964 199.503 124.96 199.506 124.955 199.509C124.138 199.934 123.348 200.399 122.553 200.864C121.758 201.329 120.991 201.749 120.235 202.23C119.555 202.665 118.91 203.15 118.303 203.681C118.135 203.832 117.967 203.994 117.804 204.162C118.883 203.796 119.985 203.502 121.103 203.283C122.889 202.925 124.692 202.667 126.479 202.286C127.353 202.101 128.217 201.867 129.066 201.586C129.878 200.937 130.684 200.287 131.451 199.582C132.383 198.733 133.228 197.795 133.977 196.782C134.011 196.737 134.083 196.782 134.05 196.826C132.866 198.429 131.524 199.909 130.046 201.245C130.466 201.082 130.886 200.914 131.295 200.724C134.647 199.22 137.524 196.829 139.616 193.808C139.65 193.763 139.723 193.808 139.689 193.847C137.917 196.441 135.629 198.641 132.969 200.31C131.633 201.143 130.205 201.818 128.713 202.32C126.984 202.859 125.219 203.277 123.432 203.569C121.68 203.856 119.951 204.268 118.258 204.801C116.701 205.328 115.238 206.099 113.923 207.086C111.431 209.021 109.425 211.512 108.066 214.36C106.218 218.062 105.339 222.2 104.846 226.294C104.846 226.467 104.555 226.467 104.566 226.294C105.025 219.4 106.862 212.266 112.148 207.5Z" fill="#263238"/>
<path d="M123.477 202.174C123.987 201.414 124.675 200.789 125.482 200.354C126.408 199.875 127.222 199.203 127.867 198.383C127.901 198.339 127.974 198.383 127.94 198.428C127.355 199.176 126.642 199.815 125.834 200.315C124.947 200.784 124.165 201.43 123.538 202.214C123.51 202.253 123.449 202.214 123.477 202.174Z" fill="#263238"/>
<path d="M118.297 219.546L117.855 228.522L116.494 255.946H96.0146L94.6538 228.522L94.2114 219.546H118.297Z" fill="#37474F"/>
<path d="M118.297 219.546L117.855 228.522H94.6538L94.2114 219.546H118.297Z" fill="#263238"/>
<path d="M119.73 215.799H92.772V224.362H119.73V215.799Z" fill="#37474F"/>
</g>
</svg>
