<svg width="375" height="281" viewBox="0 0 375 281" fill="none" xmlns="http://www.w3.org/2000/svg">
<mask id="mask0_758_38804" style="mask-type:alpha" maskUnits="userSpaceOnUse" x="0" y="0" width="375" height="281">
<rect width="375" height="281" fill="#D9D9D9"/>
</mask>
<g mask="url(#mask0_758_38804)">
<path d="M302.565 139.566C299.882 162.308 289.5 188.74 268.763 200.887C237.437 219.238 240.08 247.467 178.911 259.72C169.994 261.554 160.904 262.412 151.802 262.279C147.348 262.203 142.903 261.84 138.496 261.193C99.632 255.537 73.48 228.523 63.8872 195.914C51.2592 153.029 76.4704 124.95 93.1808 108.038C109.891 91.1265 122.133 38.4137 182.148 25.8753C191.304 23.9274 200.654 23.0404 210.014 23.2321C231.366 23.7529 254.657 30.7641 270.774 45.4025C271.983 46.5225 273.159 47.6425 274.307 48.8129C296.707 71.8065 306.227 108.57 302.565 139.566Z" fill="#FDC920"/>
<path opacity="0.7" d="M302.565 139.566C299.882 162.308 289.5 188.74 268.763 200.887C237.437 219.238 240.08 247.467 178.911 259.72C169.994 261.554 160.904 262.412 151.802 262.279C147.348 262.203 142.903 261.84 138.496 261.193C99.632 255.537 73.48 228.523 63.8872 195.914C51.2592 153.029 76.4704 124.95 93.1808 108.038C109.891 91.1265 122.133 38.4137 182.148 25.8753C191.304 23.9274 200.654 23.0404 210.014 23.2321C231.366 23.7529 254.657 30.7641 270.774 45.4025C271.983 46.5225 273.159 47.6425 274.307 48.8129C296.707 71.8065 306.227 108.57 302.565 139.566Z" fill="white"/>
<path d="M284.886 237.656V174.46" stroke="#263238" stroke-linecap="round" stroke-linejoin="round"/>
<path d="M279.762 237.656V206.318" stroke="#263238" stroke-linecap="round" stroke-linejoin="round"/>
<path d="M286.487 184.82C286.487 184.82 281.324 184.232 279.207 180.144C277.091 176.056 276.889 165.511 284.931 153.824C292.972 142.137 297.189 142.013 298.589 151.55C299.989 161.087 299.787 174.936 296.495 180.183C293.202 185.43 286.487 184.82 286.487 184.82Z" fill="white" stroke="#263238" stroke-linecap="round" stroke-linejoin="round"/>
<path d="M288.318 162.806C289.27 159.558 290.407 156.646 291.729 154.653" stroke="#263238" stroke-linecap="round" stroke-linejoin="round"/>
<path d="M284.32 184.12C285.029 177.693 286.151 171.318 287.68 165.035" stroke="#263238" stroke-linecap="round" stroke-linejoin="round"/>
<path d="M289.562 205.333C289.562 205.333 286.247 202.762 286.516 199.066C286.784 195.37 291.04 188.006 301.462 183.336C311.883 178.666 314.857 180.323 311.833 187.48C308.809 194.637 302.873 204.106 298.393 206.346C293.913 208.586 289.562 205.333 289.562 205.333Z" fill="white" stroke="#263238" stroke-linecap="round" stroke-linejoin="round"/>
<path d="M300.04 190.918C302.056 189.082 304.06 187.558 305.802 186.729" stroke="#263238" stroke-linecap="round" stroke-linejoin="round"/>
<path d="M298.701 192.184C295.012 195.877 291.567 199.806 288.386 203.944C288.386 203.944 285.714 207.539 284.925 214.679" stroke="#263238" stroke-linecap="round" stroke-linejoin="round"/>
<path d="M287.68 226.68C287.68 226.68 285.76 225.19 285.916 223.051C286.073 220.912 288.537 216.645 294.58 213.934C300.622 211.224 302.336 212.193 300.583 216.342C298.83 220.492 295.392 225.974 292.804 227.268C290.217 228.561 287.68 226.68 287.68 226.68Z" fill="white" stroke="#263238" stroke-linecap="round" stroke-linejoin="round"/>
<path d="M293.734 218.353C294.733 217.388 295.864 216.572 297.094 215.928" stroke="#263238" stroke-linecap="round" stroke-linejoin="round"/>
<path d="M292.961 219.086C290.825 221.223 288.829 223.496 286.986 225.89C286.986 225.89 285.435 227.973 284.976 232.112" stroke="#263238" stroke-linecap="round" stroke-linejoin="round"/>
<path d="M280.204 196.787C280.204 196.787 283.514 194.217 283.251 190.521C282.987 186.825 278.726 179.461 268.299 174.79C257.871 170.12 254.909 171.778 257.933 178.934C260.957 186.091 266.893 195.561 271.373 197.801C275.853 200.041 280.204 196.787 280.204 196.787Z" fill="white" stroke="#263238" stroke-linecap="round" stroke-linejoin="round"/>
<path d="M269.726 182.373C268.01 180.712 266.068 179.302 263.958 178.184" stroke="#263238" stroke-linecap="round" stroke-linejoin="round"/>
<path d="M271.065 183.638C274.751 187.332 278.195 191.261 281.375 195.398C281.375 195.398 284.046 198.993 284.841 206.133" stroke="#263238" stroke-linecap="round" stroke-linejoin="round"/>
<path d="M278.575 225.33C278.575 225.33 281.935 225.437 283.615 223.415C285.295 221.394 286.303 215.749 282.103 208.855C277.903 201.962 275.22 201.48 273.54 206.52C271.86 211.56 270.88 218.946 272.56 222.032C274.24 225.118 278.575 225.33 278.575 225.33Z" fill="white" stroke="#263238" stroke-linecap="round" stroke-linejoin="round"/>
<path d="M279.101 220.189C279.151 220.878 279.185 221.567 279.202 222.25" stroke="#263238" stroke-linecap="round" stroke-linejoin="round"/>
<path d="M276.525 206.189C277.667 210.248 278.48 214.393 278.955 218.582" stroke="#263238" stroke-linecap="round" stroke-linejoin="round"/>
<path d="M61.9385 184.512H139.448V26.312" stroke="#263238" stroke-linecap="round" stroke-linejoin="round"/>
<path d="M221.701 184.512H144.191V26.312" stroke="#263238" stroke-linecap="round" stroke-linejoin="round"/>
<path d="M175.826 184.512H253.335V26.312" stroke="#263238" stroke-linecap="round" stroke-linejoin="round"/>
<path d="M237.521 63.4568L210.428 93.3944" stroke="#263238" stroke-linecap="round" stroke-linejoin="round"/>
<path d="M222.49 86.6184L214.975 94.9232" stroke="#263238" stroke-linecap="round" stroke-linejoin="round"/>
<path d="M162.778 55.5945L148.145 71.7617" stroke="#263238" stroke-linecap="round" stroke-linejoin="round"/>
<path d="M166.731 51.6575L176.621 40.7319" stroke="#263238" stroke-linecap="round" stroke-linejoin="round"/>
<path d="M136.284 151.735L126.792 162.224" stroke="#263238" stroke-linecap="round" stroke-linejoin="round"/>
<path d="M133.12 137.752L115.519 157.201" stroke="#263238" stroke-linecap="round" stroke-linejoin="round"/>
<path d="M311.65 76.5353C317.401 62.1475 310.401 45.8211 296.013 40.0693C281.625 34.3175 265.299 41.3184 259.547 55.7062C253.795 70.094 260.796 86.4203 275.184 92.1721C289.572 97.9239 305.898 90.9231 311.65 76.5353Z" stroke="#263238" stroke-linecap="round" stroke-linejoin="round"/>
<path d="M285.608 90.6168C299.133 90.6168 310.097 79.6528 310.097 66.128C310.097 52.6032 299.133 41.6392 285.608 41.6392C272.083 41.6392 261.119 52.6032 261.119 66.128C261.119 79.6528 272.083 90.6168 285.608 90.6168Z" stroke="#263238" stroke-linecap="round" stroke-linejoin="round"/>
<path d="M285.608 67.8024C286.533 67.8024 287.282 67.0528 287.282 66.128C287.282 65.2033 286.533 64.4536 285.608 64.4536C284.683 64.4536 283.934 65.2033 283.934 66.128C283.934 67.0528 284.683 67.8024 285.608 67.8024Z" stroke="#263238" stroke-linecap="round" stroke-linejoin="round"/>
<path d="M285.608 67.8022V76.0286" stroke="#263238" stroke-linecap="round" stroke-linejoin="round"/>
<path d="M283.933 66.1279H263.964" stroke="#263238" stroke-linecap="round" stroke-linejoin="round"/>
<path d="M158.191 133.843L148.962 119.518C154.586 110.428 156.492 99.5201 154.286 89.0607C152.079 78.6014 145.929 69.3937 137.112 63.3493C128.295 57.305 117.49 54.8885 106.938 56.6014C96.3866 58.3144 86.9002 64.0253 80.4485 72.5483C73.9967 81.0714 71.0753 91.7518 72.2908 102.372C73.5063 112.992 78.7653 122.737 86.9759 129.581C95.1866 136.426 105.718 139.846 116.384 139.131C127.049 138.416 137.03 133.62 144.253 125.74L158.191 133.843Z" fill="#263238" stroke="#263238" stroke-linecap="round" stroke-linejoin="round"/>
<path d="M159.07 130.36L149.836 116.035C155.449 106.948 157.347 96.0488 155.136 85.5993C152.925 75.1498 146.775 65.9534 137.962 59.9192C129.149 53.885 118.35 51.4768 107.808 53.1945C97.2666 54.9122 87.7912 60.6238 81.3497 69.1436C74.9081 77.6634 71.9951 88.3367 73.2156 98.9475C74.4361 109.558 79.6962 119.292 87.9039 126.126C96.1116 132.961 106.636 136.372 117.293 135.652C127.949 134.931 137.919 130.134 145.132 122.257L159.07 130.36Z" fill="white" stroke="#263238" stroke-linecap="round" stroke-linejoin="round"/>
<path d="M85.3182 100.12V96.2393L91.6798 86.4617C92.1614 85.7393 92.615 85.0337 93.0462 84.3561C93.461 83.6997 93.8135 83.006 94.099 82.284C94.3733 81.581 94.512 80.8323 94.5078 80.0777C94.555 79.4725 94.3929 78.8696 94.0486 78.3697C93.8977 78.1864 93.7065 78.0404 93.4899 77.9433C93.2732 77.8462 93.0371 77.8004 92.7998 77.8097C92.5481 77.7952 92.2959 77.8314 92.0584 77.916C91.8208 78.0007 91.6026 78.132 91.4166 78.3024C91.0687 78.6659 90.835 79.1235 90.7446 79.6185C90.6157 80.224 90.5537 80.8418 90.5598 81.4608V82.7601H85.251V81.3488C85.2314 79.917 85.4881 78.4947 86.007 77.1601C86.4803 75.9557 87.3209 74.931 88.4094 74.2313C89.7107 73.4645 91.207 73.0928 92.7158 73.1617C95.1089 73.1617 96.9121 73.7814 98.1254 75.0208C99.3388 76.2603 99.9473 77.987 99.951 80.2008C99.9612 81.2219 99.7886 82.2366 99.4414 83.1968C99.0913 84.136 98.6387 85.0337 98.0918 85.8736C97.5318 86.7416 96.9382 87.6433 96.2998 88.5897L91.4334 95.8697H99.2286V100.12H85.3182Z" fill="#263238" stroke="#263238" stroke-linecap="round" stroke-linejoin="round"/>
<path d="M109.359 100.12V94.156H101.167V90.1128L108.11 73.5032H114.489V90.0792H116.953V94.156H114.489V100.12H109.359ZM105.344 90.04H109.359V78.9968L105.344 90.04Z" fill="#263238" stroke="#263238" stroke-linecap="round" stroke-linejoin="round"/>
<path d="M118.997 100.12L127.15 73.4807H130.045L121.858 100.12H118.997Z" fill="#263238" stroke="#263238" stroke-linecap="round" stroke-linejoin="round"/>
<path d="M133.596 100.12L139.386 77.6583H132.106V73.4807H144.734V77.2607L138.961 100.12H133.596Z" fill="#263238" stroke="#263238" stroke-linecap="round" stroke-linejoin="round"/>
<path d="M90.4928 117.189C89.8398 117.213 89.1933 117.052 88.628 116.724C88.1308 116.411 87.7403 115.954 87.508 115.414C87.2425 114.788 87.0871 114.121 87.0488 113.442L88.1688 113.106C88.2178 113.629 88.3211 114.145 88.4768 114.646C88.5984 115.07 88.8418 115.447 89.1768 115.733C89.5504 116.022 90.016 116.165 90.4872 116.136C91.0066 116.166 91.5177 115.996 91.9152 115.66C92.1007 115.456 92.2418 115.216 92.3295 114.955C92.4173 114.694 92.4497 114.417 92.4248 114.142C92.4355 113.585 92.2795 113.037 91.9768 112.569C91.6176 112.056 91.2025 111.585 90.7392 111.163L88.32 108.834C87.9243 108.46 87.5998 108.018 87.3624 107.529C87.1571 107.065 87.054 106.563 87.06 106.056C87.034 105.65 87.0967 105.244 87.2437 104.865C87.3907 104.486 87.6185 104.143 87.9112 103.861C88.5353 103.333 89.3348 103.06 90.1512 103.094C90.5971 103.089 91.0409 103.153 91.4672 103.284C91.8476 103.4 92.1936 103.608 92.4752 103.889C92.7694 104.197 92.993 104.566 93.1304 104.97C93.3028 105.492 93.4119 106.034 93.4552 106.582L92.3352 106.874C92.3033 106.368 92.2092 105.867 92.0552 105.384C91.9387 105.008 91.7053 104.678 91.3888 104.443C91.0174 104.206 90.5802 104.092 90.14 104.118C89.6375 104.096 89.1433 104.253 88.7456 104.561C88.5528 104.732 88.402 104.945 88.3049 105.184C88.2078 105.423 88.167 105.681 88.1856 105.938C88.1812 106.29 88.2538 106.638 88.3984 106.958C88.6075 107.339 88.8846 107.679 89.216 107.96L91.6464 110.256C92.1875 110.754 92.6635 111.319 93.0632 111.936C93.46 112.568 93.6661 113.301 93.6568 114.047C93.6776 114.651 93.5385 115.25 93.2536 115.783C92.9981 116.24 92.6067 116.606 92.1336 116.83C91.6209 117.073 91.0598 117.195 90.4928 117.189Z" fill="#263238" stroke="#263238" stroke-linecap="round" stroke-linejoin="round"/>
<path d="M95.376 117.021V103.234H100.36V104.236H96.6864V109.41H99.6824V110.362H96.6864V116.046H100.399V117.021H95.376Z" fill="#263238" stroke="#263238" stroke-linecap="round" stroke-linejoin="round"/>
<path d="M102.169 117.021V103.234H105.283C105.984 103.2 106.683 103.342 107.315 103.648C107.799 103.916 108.175 104.344 108.379 104.858C108.61 105.458 108.72 106.097 108.704 106.739C108.708 107.226 108.649 107.712 108.531 108.184C108.438 108.609 108.246 109.006 107.971 109.343C107.668 109.679 107.258 109.901 106.811 109.97L108.923 117.021H107.663L105.641 110.245H103.44V117.021H102.169ZM103.44 109.293H105.193C105.659 109.319 106.124 109.219 106.537 109.002C106.857 108.808 107.098 108.506 107.215 108.15C107.366 107.696 107.436 107.218 107.422 106.739C107.469 106.073 107.315 105.407 106.979 104.83C106.683 104.41 106.1 104.202 105.227 104.202H103.44V109.293Z" fill="#263238" stroke="#263238" stroke-linecap="round" stroke-linejoin="round"/>
<path d="M110.916 117.021V103.234H112.21V117.021H110.916Z" fill="#263238" stroke="#263238" stroke-linecap="round" stroke-linejoin="round"/>
<path d="M117.093 117.021L113.861 103.234H115.105L117.709 114.68L120.156 103.262H121.36L118.246 117.049L117.093 117.021Z" fill="#263238" stroke="#263238" stroke-linecap="round" stroke-linejoin="round"/>
<path d="M123.04 117.021V103.234H124.334V117.021H123.04Z" fill="#263238" stroke="#263238" stroke-linecap="round" stroke-linejoin="round"/>
<path d="M129.961 117.189C129.202 117.243 128.447 117.046 127.811 116.629C127.301 116.239 126.933 115.692 126.764 115.072C126.561 114.366 126.463 113.634 126.472 112.899V107.4C126.462 106.643 126.562 105.888 126.769 105.16C126.945 104.551 127.32 104.019 127.833 103.648C128.467 103.244 129.211 103.049 129.961 103.088C130.644 103.052 131.321 103.218 131.91 103.564C132.386 103.893 132.742 104.369 132.924 104.919C133.14 105.592 133.244 106.296 133.232 107.002V107.837H132V107.042C132.007 106.521 131.958 106.001 131.854 105.49C131.784 105.097 131.575 104.741 131.266 104.488C130.883 104.223 130.421 104.096 129.956 104.13C129.463 104.096 128.973 104.23 128.567 104.51C128.243 104.791 128.022 105.171 127.94 105.591C127.826 106.123 127.771 106.666 127.777 107.21V113.084C127.767 113.65 127.833 114.215 127.973 114.764C128.067 115.177 128.303 115.543 128.64 115.8C129.031 116.046 129.488 116.166 129.95 116.142C130.417 116.173 130.881 116.04 131.26 115.766C131.57 115.494 131.777 115.125 131.848 114.719C131.951 114.201 132 113.674 131.994 113.146V112.244H133.22V113.062C133.231 113.787 133.135 114.509 132.935 115.206C132.779 115.787 132.431 116.298 131.949 116.657C131.36 117.04 130.664 117.226 129.961 117.189Z" fill="#263238" stroke="#263238" stroke-linecap="round" stroke-linejoin="round"/>
<path d="M135.237 117.021V103.234H140.226V104.236H136.547V109.41H139.543V110.362H136.547V116.046H140.26V117.021H135.237Z" fill="#263238" stroke="#263238" stroke-linecap="round" stroke-linejoin="round"/>
<path d="M233.181 180.295H263.18C263.18 180.295 246.94 220.229 250.003 238.065H219.601C219.601 238.065 225.274 192.458 233.181 180.295Z" fill="#263238" stroke="#263238" stroke-linecap="round" stroke-linejoin="round"/>
<path d="M207.225 122.974C207.225 122.974 207.522 128.378 217.585 131.53C227.648 134.683 237.863 131.53 243.569 136.01C249.275 140.49 249.124 147.423 247.17 150.878C245.215 154.334 242.063 157.783 251.375 161.838C260.688 165.892 255.127 177.758 251.224 182.115C247.321 186.472 240.584 188.572 233.052 187.071C225.52 185.57 216.683 167.398 207.074 157.783C197.464 148.168 196.288 130.433 202.42 125.348C208.552 120.263 207.225 122.974 207.225 122.974Z" fill="#263238" stroke="#263238" stroke-linecap="round" stroke-linejoin="round"/>
<path d="M205.679 103.536C205.679 103.536 209.823 101.727 210.887 105.216C211.951 108.705 212.265 118.292 212.265 118.292L210.025 117.76C210.025 117.76 210.557 106.919 208.11 105.216C205.663 103.514 203.753 107.344 203.753 107.344L205.679 103.536Z" fill="#A6A6A6" stroke="#263238" stroke-linecap="round" stroke-linejoin="round"/>
<path d="M159.16 220.173L173.317 212.602C173.317 212.602 172.337 197.745 172.477 197.185C172.617 196.625 176.162 167.555 176.162 167.555L166.451 196.345L159.16 220.173Z" fill="#263238" stroke="#263238" stroke-linecap="round" stroke-linejoin="round"/>
<path d="M221.746 152.626C221.746 152.626 235.746 160.253 237.627 161.026C239.509 161.799 238.4 171.526 238.4 177.882C238.4 184.238 228.88 237.914 228.88 237.914H158.376C158.376 237.914 170.287 219.652 170.606 214.886C170.926 210.121 168.859 206.307 168.54 201.704C168.221 197.101 175.053 168.983 176.162 167.544C177.27 166.105 182.042 162.465 182.042 162.465L198.875 147.72L206.659 145.973L221.746 152.626Z" fill="#FDC920" stroke="#263238" stroke-linecap="round" stroke-linejoin="round"/>
<path d="M175.019 220.05L172.667 224.888" stroke="#263238" stroke-linecap="round" stroke-linejoin="round"/>
<path d="M177.276 206.15C177.276 206.15 173.782 208.53 175.529 209.802C177.276 211.073 178.071 213.772 178.071 213.772L175.831 218.134" stroke="#263238" stroke-linecap="round" stroke-linejoin="round"/>
<path d="M193.734 217.72C194.681 217.793 195.678 217.849 196.719 217.877" stroke="#263238" stroke-linecap="round" stroke-linejoin="round"/>
<path d="M178.698 213.8C178.698 213.8 182.501 216.342 190.783 217.429" stroke="#263238" stroke-linecap="round" stroke-linejoin="round"/>
<path d="M169.223 112.25C168.554 112.577 167.995 113.093 167.618 113.736C167.24 114.378 167.06 115.118 167.101 115.862C167.101 118.628 169.341 124.043 169.341 124.043L170.618 123.623C170.618 123.623 168.282 117.99 168.602 115.968C168.705 115.379 168.969 114.829 169.364 114.38C169.759 113.93 170.27 113.598 170.842 113.42L170.416 112.037L169.223 112.25Z" fill="#A6A6A6" stroke="#263238" stroke-linecap="round" stroke-linejoin="round"/>
<path d="M174.694 126.479C175.254 129.279 174.297 131.805 172.594 132.135C170.892 132.466 169.078 130.455 168.54 127.655C168.002 124.855 168.938 122.324 170.64 121.999C172.342 121.674 174.157 123.685 174.694 126.479Z" fill="white" stroke="#263238" stroke-linecap="round" stroke-linejoin="round"/>
<path d="M179.863 125.578C180.921 129.15 179.684 132.673 177.097 133.418C174.509 134.162 171.553 131.911 170.489 128.338C169.425 124.766 170.668 121.243 173.255 120.498C175.842 119.754 178.805 122.005 179.863 125.578Z" fill="#263238" stroke="#263238" stroke-linecap="round" stroke-linejoin="round"/>
<path d="M189.456 145.054L191.97 153.23L183.705 163.646L182.327 171.694C182.327 171.694 180.955 194.654 181.739 198.193C182.523 201.732 182.523 202.706 182.523 202.706C182.523 202.706 199.603 182.882 208.042 170.714C216.481 158.545 218.441 151.08 218.441 151.08L210.198 146.6L206.278 128.344L189.456 145.054Z" fill="white" stroke="#263238" stroke-linecap="round" stroke-linejoin="round"/>
<path d="M202.493 137.142L191.971 153.23L189.036 143.761L202.493 137.142Z" fill="#263238" stroke="#263238" stroke-linecap="round" stroke-linejoin="round"/>
<path d="M182.4 171.24L182.322 171.694C182.322 171.694 180.95 194.654 181.734 198.193C182.518 201.732 182.518 202.706 182.518 202.706C182.518 202.706 199.598 182.882 208.037 170.714C208.698 169.762 209.314 168.838 209.902 167.942C199.334 171.559 188.56 171.621 182.4 171.24Z" fill="white" stroke="#263238" stroke-linecap="round" stroke-linejoin="round"/>
<path d="M178.262 94.9288C178.262 94.9288 170.394 99.7112 169.542 106.935C168.691 114.159 171.67 121.921 172.841 125.001C174.011 128.081 178.049 140.093 180.171 142.434C182.294 144.774 189.204 148.274 190.374 148.913C191.545 149.551 193.667 149.338 195.476 148.062C197.285 146.785 204.722 137.758 205.892 135.63C207.062 133.502 207.27 128.826 207.27 128.826C207.27 128.826 207.057 119.474 206.637 113.42C206.217 107.366 206.53 101.514 201.535 96.4128C196.54 91.3112 183.15 91.2048 178.262 94.9288Z" fill="white" stroke="#263238" stroke-linecap="round" stroke-linejoin="round"/>
<path d="M206.637 113.42C206.211 107.361 206.53 101.514 201.535 96.4128C196.54 91.3112 183.15 91.2048 178.261 94.9288C178.261 94.9288 170.393 99.7112 169.542 106.935C169.049 111.135 169.85 115.503 170.83 119.042C172.639 117.922 178.743 114.182 185.592 109.382C193.773 103.642 196.433 94.716 196.433 94.716C196.433 94.716 197.385 94.184 197.178 95.3544C196.971 96.5248 193.773 103.43 192.609 104.494L191.438 105.552C191.438 105.552 192.396 105.339 196.753 110.547C201.109 115.755 203.551 117.883 204.828 118.522C205.506 118.767 206.218 118.905 206.939 118.93C206.855 117.021 206.754 115.094 206.637 113.42Z" fill="#263238" stroke="#263238" stroke-linecap="round" stroke-linejoin="round"/>
<path d="M193.55 124.687C193.684 125.466 193.398 126.171 192.906 126.255C192.413 126.339 191.909 125.779 191.786 125.001C191.662 124.222 191.937 123.517 192.43 123.427C192.922 123.338 193.41 123.909 193.55 124.687Z" fill="#263238" stroke="#263238" stroke-linecap="round" stroke-linejoin="round"/>
<path d="M181.644 126.384C181.784 127.168 181.499 127.868 181.006 127.958C180.513 128.047 180.003 127.482 179.886 126.698C179.768 125.914 180.031 125.219 180.524 125.13C181.017 125.04 181.51 125.606 181.644 126.384Z" fill="#263238" stroke="#263238" stroke-linecap="round" stroke-linejoin="round"/>
<path d="M188.672 119.899C188.672 119.899 192.183 117.138 195.392 119.367" stroke="#263238" stroke-linecap="round" stroke-linejoin="round"/>
<path d="M181.554 121.4C181.554 121.4 177.41 119.378 174.538 122.996" stroke="#263238" stroke-linecap="round" stroke-linejoin="round"/>
<path d="M182.299 121.495C182.299 121.495 185.167 122.878 185.379 125.533" stroke="#263238" stroke-linecap="round" stroke-linejoin="round"/>
<path d="M185.486 132.869C185.486 132.869 186.656 133.714 188.672 133.082" stroke="#263238" stroke-linecap="round" stroke-linejoin="round"/>
<path d="M184.64 137.332C187.022 137.229 189.365 136.688 191.551 135.736C195.269 134.14 196.759 131.911 196.759 131.911" stroke="#263238" stroke-linecap="round" stroke-linejoin="round"/>
<path d="M186.443 137.226C187.293 137.977 188.389 138.392 189.523 138.39C191.439 138.39 193.135 134.991 193.135 134.991C193.135 134.991 188.247 137.119 186.443 137.226Z" stroke="#263238" stroke-linecap="round" stroke-linejoin="round"/>
<path d="M208.547 129.358C211.247 129.358 213.435 126.336 213.435 122.61C213.435 118.883 211.247 115.862 208.547 115.862C205.847 115.862 203.658 118.883 203.658 122.61C203.658 126.336 205.847 129.358 208.547 129.358Z" fill="#263238" stroke="#263238" stroke-linecap="round" stroke-linejoin="round"/>
<path d="M210.618 126.597C212.35 126.597 213.754 124.29 213.754 121.445C213.754 118.599 212.35 116.293 210.618 116.293C208.886 116.293 207.482 118.599 207.482 121.445C207.482 124.29 208.886 126.597 210.618 126.597Z" fill="white" stroke="#263238" stroke-linecap="round" stroke-linejoin="round"/>
<path d="M172.594 129.8C172.594 129.8 172.628 140.843 175.495 141.801C178.362 142.758 186.23 140.843 186.23 140.843" stroke="#263238" stroke-width="2" stroke-linecap="round" stroke-linejoin="round"/>
<path d="M190.268 140.798C190.268 141.65 189.221 142.338 187.927 142.338C186.634 142.338 185.592 141.65 185.592 140.798C185.592 139.947 186.639 139.258 187.927 139.258C189.215 139.258 190.268 139.947 190.268 140.798Z" fill="#263238" stroke="#263238" stroke-linecap="round" stroke-linejoin="round"/>
<path d="M190.934 153.74C190.934 153.74 187.574 159.614 185.217 177.086C182.859 194.558 184.422 198.047 184.422 198.047L181.062 200.114C181.062 200.114 174.078 199.318 176.458 182.804C178.838 166.29 180.16 163.585 180.16 163.585L190.934 153.74Z" fill="#FDC920" stroke="#263238" stroke-linecap="round" stroke-linejoin="round"/>
<path d="M212.214 147.72C212.214 147.72 204.593 165.825 196.652 177.103C188.711 188.382 177.92 204.56 177.92 204.56C177.92 204.56 183.638 201.861 195.711 192.8C207.785 183.739 220.01 162.941 221.281 160.88C222.552 158.819 224.456 154.054 224.456 154.054L212.214 147.72Z" fill="#FDC920" stroke="#263238" stroke-linecap="round" stroke-linejoin="round"/>
<path d="M146.241 228.158C144.378 229.292 142.424 230.27 140.4 231.082C136.827 232.543 136.48 232.286 137.639 233.518C138.798 234.75 144.785 232.543 146.409 231.894C148.033 231.244 151.118 230.27 151.118 230.27C151.118 230.27 154.854 232.381 157.127 233.03C159.401 233.68 162.167 232.706 162.167 232.706C162.167 232.706 162.33 230.107 160.381 228.646C158.432 227.184 154.221 223.774 152.748 223.936C151.275 224.098 146.241 228.158 146.241 228.158Z" fill="white" stroke="#263238" stroke-linecap="round" stroke-linejoin="round"/>
<path d="M145.266 224.261C145.266 224.261 143.318 223.774 142.018 224.748C140.719 225.722 139.258 228.808 139.095 229.62C138.933 230.432 139.258 230.919 140.557 229.782C141.856 228.646 144.13 227.022 144.13 227.022L146.078 226.372L145.266 224.261Z" fill="white" stroke="#263238" stroke-linecap="round" stroke-linejoin="round"/>
<path d="M150.301 222.799C150.301 222.799 146.381 221.5 145.591 222.637C144.802 223.774 142.018 230.27 142.83 230.757C143.642 231.244 144.779 230.27 146.241 228.158C147.702 226.047 148.514 224.91 148.514 224.91L150.463 224.586L150.301 222.799Z" fill="white" stroke="#263238" stroke-linecap="round" stroke-linejoin="round"/>
<path d="M157.262 224.255C157.262 224.255 152.183 220.285 150.911 221.237C149.64 222.189 145.513 228.382 145.037 229.637C144.561 230.891 146.784 230.275 148.526 228.685C150.267 227.094 152.339 225.325 152.339 225.325L156.31 227.391L157.262 224.255Z" fill="white" stroke="#263238" stroke-linecap="round" stroke-linejoin="round"/>
<path d="M175.529 227.274C175.529 227.274 168.859 226.954 166.16 226.002C163.461 225.05 158.057 222.984 156.472 223.141C154.887 223.298 148.845 229.178 147.573 230.449C146.302 231.72 146.453 232.062 147.702 232.218C148.951 232.375 152.02 230.292 153.453 229.178C154.34 228.495 155.298 227.909 156.309 227.43C157.449 229.071 158.725 230.612 160.123 232.039C161.708 233.467 165.521 234.576 166.949 234.419C167.858 234.316 168.759 234.157 169.649 233.943L175.053 233.786L175.529 227.274Z" fill="white" stroke="#263238" stroke-linecap="round" stroke-linejoin="round"/>
<path d="M221.902 181.37C221.902 181.37 216.028 188.197 216.347 190.582C216.666 192.968 216.823 195.342 216.823 195.342L212.534 221.231C212.534 221.231 208.882 219.484 208.882 220.912V222.346L174.56 225.84L174.241 237.908L228.874 238.065C228.874 238.065 231.574 235.052 231.893 233.938C232.212 232.823 238.243 213.61 239.834 193.438C241.424 173.267 240.629 164.218 239.834 162.638C239.038 161.059 229.67 158.035 229.67 158.035" fill="#FDC920"/>
<path d="M221.902 181.37C221.902 181.37 216.028 188.197 216.347 190.582C216.666 192.968 216.823 195.342 216.823 195.342L212.534 221.231C212.534 221.231 208.882 219.484 208.882 220.912V222.346L174.56 225.84L174.241 237.908L228.874 238.065C228.874 238.065 231.574 235.052 231.893 233.938C232.212 232.823 238.243 213.61 239.834 193.438C241.424 173.267 240.629 164.218 239.834 162.638C239.038 161.059 229.67 158.035 229.67 158.035" stroke="#263238" stroke-linecap="round" stroke-linejoin="round"/>
<path d="M213.805 221.08C213.805 221.08 218.884 224.412 221.902 225.207L213.805 221.08Z" fill="white"/>
<path d="M213.805 221.08C213.805 221.08 218.884 224.412 221.902 225.207" stroke="#263238" stroke-linecap="round" stroke-linejoin="round"/>
<path d="M166.16 188.863L170.08 176.28C171.67 174.723 173.061 172.975 174.224 171.078C175.904 168.238 175.904 162.913 175.641 161.967C175.378 161.02 179.074 156.764 180.121 155.247C181.168 153.729 181.773 150.985 180.356 148.974C178.939 146.964 178.228 150.279 177.282 151.814C176.335 153.348 173.02 154.888 173.02 154.888L169.52 157.733C169.52 157.733 163.724 162.818 163.36 163.529C162.996 164.24 162.296 166.486 162.296 166.486L162.772 173.346L159.698 185.29L166.16 188.863Z" fill="white" stroke="#263238" stroke-linecap="round" stroke-linejoin="round"/>
<path d="M167.129 153.595C167.129 153.595 169.968 149.115 170.797 147.681C171.626 146.247 172.925 140.586 173.754 140.961C174.583 141.336 175.434 143.201 175.176 145.693C174.919 148.185 171.979 153.852 171.979 153.852L167.129 153.595Z" stroke="#263238" stroke-linecap="round" stroke-linejoin="round"/>
<path d="M160.269 181.746L162.755 173.346L161.68 159.861L164.99 153.477L174.095 152.295C174.095 152.295 179.656 155.252 180.132 155.252C180.608 155.252 180.132 156.551 179.068 156.786C178.004 157.022 175.988 156.434 175.988 156.434L179.421 158.674C179.421 158.674 179.186 159.738 178.357 159.973C177.539 160.138 176.705 160.219 175.871 160.214C175.871 160.214 178.827 162.106 178.111 162.454C177.409 162.776 176.643 162.937 175.871 162.924H173.631L171.855 162.689L169.134 163.753C169.134 163.753 171.027 168.602 170.909 170.971C170.791 173.34 167.835 174.891 167.835 174.891" fill="white"/>
<path d="M160.269 181.746L162.755 173.346L161.68 159.861L164.99 153.477L174.095 152.295C174.095 152.295 179.656 155.252 180.132 155.252C180.608 155.252 180.132 156.551 179.068 156.786C178.004 157.022 175.988 156.434 175.988 156.434L179.421 158.674C179.421 158.674 179.186 159.738 178.357 159.973C177.539 160.138 176.705 160.219 175.871 160.214C175.871 160.214 178.827 162.106 178.111 162.454C177.409 162.776 176.643 162.937 175.871 162.924H173.631L171.855 162.689L169.134 163.753C169.134 163.753 171.027 168.602 170.909 170.971C170.791 173.34 167.835 174.891 167.835 174.891" stroke="#263238" stroke-linecap="round" stroke-linejoin="round"/>
<path d="M175.999 156.434C175.999 156.434 174.107 154.894 173.043 154.894C171.979 154.894 165.477 156.075 165.477 156.075" stroke="#263238" stroke-linecap="round" stroke-linejoin="round"/>
<path d="M175.882 160.219C175.882 160.219 172.807 158.539 171.861 158.539C170.915 158.539 163.461 160.432 163.461 160.432" stroke="#263238" stroke-linecap="round" stroke-linejoin="round"/>
<path d="M160.42 179.108L170.024 185.576C170.024 185.576 165.745 208.536 165.325 210.502C164.905 212.467 161.825 217.647 160.285 219.193C158.745 220.738 156.925 220.453 152.72 219.333C148.514 218.213 144.88 214.853 145.009 210.502C145.137 206.15 160.42 179.108 160.42 179.108Z" fill="#FDC920" stroke="#263238" stroke-linecap="round" stroke-linejoin="round"/>
<path d="M110.781 234.755H107.993V235.612H110.781V234.755Z" fill="white" stroke="#263238" stroke-linecap="round" stroke-linejoin="round"/>
<path d="M114.646 234.755H111.857V235.612H114.646V234.755Z" fill="white" stroke="#263238" stroke-linecap="round" stroke-linejoin="round"/>
<path d="M118.51 234.755H115.721V235.612H118.51V234.755Z" fill="white" stroke="#263238" stroke-linecap="round" stroke-linejoin="round"/>
<path d="M122.379 234.755H119.59V235.612H122.379V234.755Z" fill="white" stroke="#263238" stroke-linecap="round" stroke-linejoin="round"/>
<path d="M126.243 234.755H123.455V235.612H126.243V234.755Z" fill="white" stroke="#263238" stroke-linecap="round" stroke-linejoin="round"/>
<path d="M130.107 234.755H127.318V235.612H130.107V234.755Z" fill="white" stroke="#263238" stroke-linecap="round" stroke-linejoin="round"/>
<path d="M133.971 234.755H131.183V235.612H133.971V234.755Z" fill="white" stroke="#263238" stroke-linecap="round" stroke-linejoin="round"/>
<path d="M137.835 234.755H135.046V235.612H137.835V234.755Z" fill="white" stroke="#263238" stroke-linecap="round" stroke-linejoin="round"/>
<path d="M141.699 234.755H138.91V235.612H141.699V234.755Z" fill="white" stroke="#263238" stroke-linecap="round" stroke-linejoin="round"/>
<path d="M145.563 234.755H142.774V235.612H145.563V234.755Z" fill="white" stroke="#263238" stroke-linecap="round" stroke-linejoin="round"/>
<path d="M149.433 234.755H146.644V235.612H149.433V234.755Z" fill="white" stroke="#263238" stroke-linecap="round" stroke-linejoin="round"/>
<path d="M153.297 234.755H150.508V235.612H153.297V234.755Z" fill="white" stroke="#263238" stroke-linecap="round" stroke-linejoin="round"/>
<path d="M157.161 234.755H154.372V235.612H157.161V234.755Z" fill="white" stroke="#263238" stroke-linecap="round" stroke-linejoin="round"/>
<path d="M161.025 234.755H158.236V235.612H161.025V234.755Z" fill="white" stroke="#263238" stroke-linecap="round" stroke-linejoin="round"/>
<path d="M164.889 234.755H162.1V235.612H164.889V234.755Z" fill="white" stroke="#263238" stroke-linecap="round" stroke-linejoin="round"/>
<path d="M168.753 234.755H165.964V235.612H168.753V234.755Z" fill="white" stroke="#263238" stroke-linecap="round" stroke-linejoin="round"/>
<path d="M175.49 235.433H106.391V237.863H175.49V235.433Z" fill="white" stroke="#263238" stroke-linecap="round" stroke-linejoin="round"/>
<path d="M175.484 235.433H148.996V237.863H175.484V235.433Z" fill="white" stroke="#263238" stroke-linecap="round" stroke-linejoin="round"/>
<path d="M127.951 214.147H73.6256L62.7168 156.378H117.042L127.951 214.147Z" fill="#263238" stroke="white" stroke-linecap="round" stroke-linejoin="round"/>
<path d="M126.299 212.686H73.5976L63.2432 157.839H115.939L126.299 212.686Z" fill="#263238" stroke="white" stroke-linecap="round" stroke-linejoin="round"/>
<path d="M116.152 208.318H76.9686L69.2686 167.544H108.452L116.152 208.318Z" fill="#263238" stroke="white" stroke-linecap="round" stroke-linejoin="round"/>
<path d="M69.2688 167.544L63.2432 157.839" stroke="#263238" stroke-linecap="round" stroke-linejoin="round"/>
<path d="M108.452 167.544L115.939 157.839" stroke="white" stroke-linecap="round" stroke-linejoin="round"/>
<path d="M116.152 208.318L126.299 212.686" stroke="white" stroke-linecap="round" stroke-linejoin="round"/>
<path d="M76.9689 208.318L73.5977 212.686" stroke="#263238" stroke-linecap="round" stroke-linejoin="round"/>
<path d="M92.9008 196.104H83.98L89.6584 191.042H98.5792L92.9008 196.104Z" fill="#263238" stroke="white" stroke-linecap="round" stroke-linejoin="round"/>
<path d="M122.497 234.823H89.8599V238.065H122.497V234.823Z" fill="#263238" stroke="white" stroke-linecap="round" stroke-linejoin="round"/>
<path d="M103.849 238.065H94.928L83.98 225.627H92.9008L103.849 238.065Z" fill="#263238" stroke="white" stroke-linecap="round" stroke-linejoin="round"/>
<path d="M92.9008 196.311H83.98V225.499H92.9008V196.311Z" fill="#263238" stroke="white" stroke-linecap="round" stroke-linejoin="round"/>
<path d="M223.51 232.515C224.784 234.828 226.721 236.708 229.071 237.914L223.51 232.515Z" fill="white"/>
<path d="M223.51 232.515C224.784 234.828 226.721 236.708 229.071 237.914" stroke="#263238" stroke-linecap="round" stroke-linejoin="round"/>
<path d="M55.8735 238.065H311.351" stroke="#263238" stroke-linecap="round" stroke-linejoin="round"/>
</g>
</svg>
