<svg width="241" height="64" viewBox="0 0 241 64" fill="none" xmlns="http://www.w3.org/2000/svg">
<g clip-path="url(#clip0_758_38794)">
<path d="M74.334 5.27026C71.785 7.85985 69.1461 10.3481 66.7401 13.039C64.1993 15.8778 62.0424 18.9942 61.2846 22.8503C60.7516 25.5634 60.2798 28.2949 59.5914 30.9716C58.3905 35.6401 57.1302 40.2965 55.7332 44.9103C54.1462 50.1503 50.9272 54.2008 46.0253 56.7722C41.3705 59.2138 36.634 61.5056 31.92 63.8358C31.5973 63.9938 31.0969 64.0648 30.7823 63.931C25.0184 61.4954 19.3833 58.8147 14.1709 55.3214C11.0704 53.2424 8.97276 50.4137 7.55119 47.04C7.01606 45.7715 6.54834 44.4747 5.92334 42.8557C8.29261 42.8557 10.429 42.7361 12.5471 42.88C17.4797 43.2164 22.018 44.6611 25.8007 47.9842C28.0903 49.9963 29.6855 52.4765 30.8089 55.2768C30.8967 55.4956 30.9825 55.7124 31.0744 55.9292C31.0866 55.9556 31.1234 55.9718 31.2827 56.1015C36.6013 46.1788 42.8513 36.8964 50.0204 28.2341C57.1731 19.592 64.8488 11.4869 74.332 5.27229L74.334 5.27026Z" fill="white"/>
<path fill-rule="evenodd" clip-rule="evenodd" d="M6.01415 42.7984C6.01441 42.7993 6.01468 42.8002 6.01494 42.8011H6.00881C6.01059 42.8002 6.01237 42.7993 6.01415 42.7984ZM6.01415 42.7984C6.49846 42.5551 6.95721 42.3119 7.40164 42.0762C8.33638 41.5806 9.20775 41.1186 10.1203 40.7606C16.885 38.1062 23.5067 38.7566 29.9936 41.7555C30.6623 42.065 30.9948 42.223 31.2717 42.155C31.5497 42.0868 31.7718 41.791 32.2219 41.1922C37.9021 33.6423 43.8845 26.3497 50.6532 19.7177C55.5286 14.9397 60.6307 10.4252 66.5478 6.95215C68.6336 5.72785 70.8191 4.66964 72.8641 3.67946C73.7467 3.25208 74.6032 2.83738 75.4142 2.42747C75.2808 2.46196 75.1169 2.5033 74.9304 2.55035C74.3717 2.69129 73.6099 2.88347 72.855 3.09614C67.567 4.58343 62.7345 7.01294 58.2206 10.0949C58.1451 10.1467 58.0708 10.1998 57.9969 10.2527C57.4546 10.6407 56.9322 11.0144 56.1107 10.7291C47.8142 7.8579 39.7015 4.56925 32.0422 0.257328C31.4274 -0.0871394 30.9577 -0.0851131 30.3531 0.263407C25.347 3.15085 20.0998 5.55605 14.7098 7.63906C11.999 8.68536 9.25393 9.6464 6.50951 10.6072C5.46974 10.9712 4.43007 11.3352 3.3924 11.7038C1.10074 12.5183 -0.363715 14.6439 0.0795025 16.7674C1.546 23.7966 3.04109 30.8217 4.58112 37.8387C4.83188 38.9797 5.1816 40.0998 5.5354 41.2328C5.69715 41.7509 5.85976 42.2716 6.01415 42.7984ZM28.0042 35.4555C26.9557 35.4555 25.9975 35.2044 25.1298 34.7023C24.2982 34.2001 23.6293 33.5365 23.1231 32.7115C22.6169 31.8865 22.3638 30.9719 22.3638 29.9675C22.3638 28.9632 22.6169 28.0664 23.1231 27.2773C23.6293 26.4523 24.2982 25.7887 25.1298 25.2866C25.9975 24.7844 26.9557 24.5333 28.0042 24.5333C29.0166 24.5333 29.9385 24.7844 30.7701 25.2866C31.6379 25.7887 32.3248 26.4523 32.831 27.2773C33.3372 28.0664 33.5903 28.9632 33.5903 29.9675C33.5903 30.9719 33.3372 31.8865 32.831 32.7115C32.3248 33.5365 31.6379 34.2001 30.7701 34.7023C29.9385 35.2044 29.0166 35.4555 28.0042 35.4555Z" fill="#FDC920"/>
</g>
<path d="M82.79 52.5802C82.79 46.5542 82.79 40.4564 82.79 34.2868C82.79 28.1173 82.79 22.0195 82.79 15.9934C85.0317 15.9934 87.2734 15.9934 89.5151 15.9934C91.7929 15.9934 94.0346 15.9934 96.2401 15.9934C98.7349 15.9934 100.922 16.4418 102.802 17.3385C104.683 18.1994 106.147 19.419 107.195 20.9972C108.244 22.5396 108.768 24.3689 108.768 26.4852C108.768 27.9917 108.479 29.3548 107.9 30.5743C107.322 31.7939 106.454 32.8162 105.297 33.6412C106.816 34.5379 107.973 35.7037 108.768 37.1384C109.564 38.5374 109.961 40.0977 109.961 41.8194C109.961 43.9716 109.401 45.8547 108.28 47.4688C107.195 49.083 105.659 50.3384 103.67 51.2351C101.718 52.1319 99.4219 52.5802 96.7825 52.5802C94.4685 52.5802 92.1364 52.5802 89.7863 52.5802C87.4361 52.5802 85.104 52.5802 82.79 52.5802ZM99.2772 27.3999C99.2772 26.4673 98.988 25.714 98.4095 25.1401C97.831 24.5303 97.0717 24.2255 96.1317 24.2255C95.4808 24.2255 94.812 24.2255 94.125 24.2255C93.4742 24.2255 92.8234 24.2255 92.1726 24.2255C92.1726 25.2298 92.1726 26.27 92.1726 27.3461C92.1726 28.3863 92.1726 29.4265 92.1726 30.4667C92.8234 30.4667 93.4742 30.4667 94.125 30.4667C94.812 30.4667 95.4808 30.4667 96.1317 30.4667C97.0717 30.4667 97.831 30.1977 98.4095 29.6597C98.988 29.0858 99.2772 28.3325 99.2772 27.3999ZM100.47 40.9585C100.47 39.9542 100.127 39.1651 99.4399 38.5912C98.7891 37.9814 97.8852 37.6765 96.7282 37.6765C95.969 37.6765 95.2097 37.6765 94.4504 37.6765C93.6911 37.6765 92.9318 37.6765 92.1726 37.6765C92.1726 38.7884 92.1726 39.9004 92.1726 41.0123C92.1726 42.1243 92.1726 43.2362 92.1726 44.3482C92.9318 44.3482 93.6911 44.3482 94.4504 44.3482C95.2097 44.3482 95.969 44.3482 96.7282 44.3482C97.8852 44.3482 98.7891 44.0433 99.4399 43.4335C100.127 42.8237 100.47 41.9987 100.47 40.9585Z" fill="white"/>
<path d="M114.826 52.5802C114.826 47.9889 114.826 43.3618 114.826 38.6988C114.826 33.9999 114.826 29.3548 114.826 24.7635C116.309 24.7635 117.809 24.7635 119.328 24.7635C120.846 24.7635 122.329 24.7635 123.775 24.7635C123.775 29.3548 123.775 33.9999 123.775 38.6988C123.775 43.3618 123.775 47.9889 123.775 52.5802C122.329 52.5802 120.846 52.5802 119.328 52.5802C117.809 52.5802 116.309 52.5802 114.826 52.5802Z" fill="white"/>
<path d="M130.02 52.5802C130.02 47.9889 130.02 43.3618 130.02 38.6988C130.02 33.9999 130.02 29.3548 130.02 24.7635C131.503 24.7635 133.003 24.7635 134.522 24.7635C136.04 24.7635 137.523 24.7635 138.969 24.7635C138.969 25.0146 138.969 25.2477 138.969 25.463C138.969 25.6782 138.969 25.9113 138.969 26.1624C139.909 25.4809 140.958 24.9608 142.115 24.6021C143.272 24.2075 144.465 24.0102 145.694 24.0102C147.032 24.0102 148.261 24.2434 149.382 24.7097C150.503 25.1401 151.461 25.7858 152.256 26.6466C153.413 25.8216 154.715 25.176 156.161 24.7097C157.644 24.2434 159.162 24.0102 160.717 24.0102C162.923 24.0102 164.821 24.4586 166.412 25.3553C168.039 26.2521 169.286 27.5254 170.154 29.1754C171.058 30.8254 171.51 32.8162 171.51 35.1477C171.51 38.0172 171.51 40.9227 171.51 43.864C171.51 46.8052 171.51 49.7107 171.51 52.5802C170.063 52.5802 168.581 52.5802 167.062 52.5802C165.544 52.5802 164.043 52.5802 162.561 52.5802C162.561 49.89 162.561 47.1639 162.561 44.402C162.561 41.6401 162.561 38.914 162.561 36.2238C162.561 35.0042 162.272 34.0178 161.693 33.2645C161.151 32.4754 160.265 32.0809 159.036 32.0809C157.843 32.0809 156.903 32.4575 156.216 33.2107C155.565 33.9281 155.239 34.9325 155.239 36.2238C155.239 38.914 155.239 41.6401 155.239 44.402C155.239 47.1639 155.239 49.89 155.239 52.5802C153.793 52.5802 152.311 52.5802 150.792 52.5802C149.274 52.5802 147.773 52.5802 146.291 52.5802C146.291 49.89 146.291 47.1639 146.291 44.402C146.291 41.6401 146.291 38.914 146.291 36.2238C146.291 35.0042 146.001 34.0178 145.423 33.2645C144.881 32.4754 143.995 32.0809 142.765 32.0809C141.572 32.0809 140.632 32.4575 139.945 33.2107C139.294 33.9281 138.969 34.9325 138.969 36.2238C138.969 38.914 138.969 41.6401 138.969 44.402C138.969 47.1639 138.969 49.89 138.969 52.5802C137.523 52.5802 136.04 52.5802 134.522 52.5802C133.003 52.5802 131.503 52.5802 130.02 52.5802Z" fill="white"/>
<path d="M195.762 52.5802C195.762 52.2933 195.762 52.0243 195.762 51.7732C195.762 51.4862 195.762 51.2172 195.762 50.9661C194.859 51.7194 193.828 52.2933 192.671 52.6878C191.55 53.1183 190.339 53.3335 189.037 53.3335C187.193 53.3335 185.458 52.9927 183.831 52.3112C182.204 51.5938 180.758 50.5895 179.492 49.2982C178.263 47.971 177.287 46.4107 176.564 44.6172C175.877 42.8237 175.533 40.833 175.533 38.645C175.533 36.4211 175.877 34.4124 176.564 32.6189C177.287 30.8254 178.263 29.301 179.492 28.0455C180.758 26.7542 182.204 25.7678 183.831 25.0863C185.458 24.3689 187.175 24.0102 188.983 24.0102C190.285 24.0102 191.514 24.2255 192.671 24.6559C193.828 25.0505 194.859 25.6064 195.762 26.3238C195.762 26.0369 195.762 25.7678 195.762 25.5168C195.762 25.2657 195.762 25.0146 195.762 24.7635C197.245 24.7635 198.745 24.7635 200.264 24.7635C201.782 24.7635 203.265 24.7635 204.711 24.7635C204.711 29.3548 204.711 33.9999 204.711 38.6988C204.711 43.3618 204.711 47.9889 204.711 52.5802C203.265 52.5802 201.782 52.5802 200.264 52.5802C198.745 52.5802 197.245 52.5802 195.762 52.5802ZM190.231 45.4781C191.966 45.4781 193.358 44.8504 194.407 43.5949C195.455 42.3395 195.979 40.6895 195.979 38.645C195.979 36.6004 195.455 34.9683 194.407 33.7488C193.358 32.4934 191.966 31.8656 190.231 31.8656C188.459 31.8656 187.049 32.4754 186 33.695C184.988 34.9145 184.482 36.5645 184.482 38.645C184.482 40.7254 184.988 42.3933 186 43.6487C187.049 44.8683 188.459 45.4781 190.231 45.4781Z" fill="white"/>
<path d="M241 50.6433C237.24 52.1498 233.733 53.0107 230.479 53.2259C227.261 53.477 224.35 53.19 221.747 52.365C219.144 51.5041 216.92 50.2128 215.076 48.4911C213.232 46.7694 211.822 44.7248 210.846 42.3574C209.87 39.9901 209.382 37.4075 209.382 34.6096C209.382 31.8477 209.834 29.301 210.737 26.9695C211.641 24.6021 212.961 22.5575 214.697 20.8358C216.468 19.1141 218.601 17.769 221.096 16.8005C223.591 15.832 226.429 15.3657 229.611 15.4016C232.793 15.4016 236.282 15.9755 240.078 17.1233C240.078 18.6298 240.078 20.1543 240.078 21.6967C240.078 23.2032 240.078 24.7097 240.078 26.2162C237.077 25.0325 234.293 24.351 231.726 24.1717C229.195 23.9923 226.972 24.2613 225.055 24.9787C223.175 25.6961 221.693 26.8439 220.608 28.4222C219.56 29.9646 219.035 31.9015 219.035 34.233C219.035 36.2776 219.415 38.089 220.174 39.6672C220.97 41.2455 222.072 42.483 223.482 43.3797C224.893 44.2765 226.502 44.7248 228.309 44.7248C228.924 44.7248 229.539 44.7069 230.153 44.671C230.768 44.5993 231.365 44.4917 231.943 44.3482C231.943 43.4156 231.943 42.465 231.943 41.4966C231.943 40.5281 231.943 39.5776 231.943 38.645C230.931 38.645 229.918 38.645 228.906 38.645C227.894 38.645 226.881 38.645 225.869 38.645C225.869 37.3178 225.869 35.9906 225.869 34.6635C225.869 33.3004 225.869 31.9553 225.869 30.6281C228.364 30.6281 230.876 30.6281 233.407 30.6281C235.974 30.6281 238.505 30.6281 241 30.6281C241 33.9281 241 37.264 241 40.6357C241 44.0074 241 47.3433 241 50.6433Z" fill="white"/>
<path d="M116.453 20.8357C117.321 21.3379 118.279 21.589 119.328 21.589C120.34 21.589 121.262 21.3379 122.094 20.8357C122.962 20.3336 123.649 19.67 124.155 18.845C124.661 18.02 124.914 17.1053 124.914 16.101C124.914 15.0966 124.661 14.1999 124.155 13.4108C123.649 12.5858 122.962 11.9222 122.094 11.42C121.262 10.9178 120.34 10.6667 119.328 10.6667C118.279 10.6667 117.321 10.9178 116.453 11.42C115.622 11.9222 114.953 12.5858 114.447 13.4108C113.941 14.1999 113.688 15.0966 113.688 16.101C113.688 17.1053 113.941 18.02 114.447 18.845C114.953 19.67 115.622 20.3336 116.453 20.8357Z" fill="#FDC920"/>
<defs>
<clipPath id="clip0_758_38794">
<rect width="75.4164" height="64" fill="white"/>
</clipPath>
</defs>
</svg>
