<svg width="32" height="32" viewBox="0 0 32 32" fill="none" xmlns="http://www.w3.org/2000/svg">
<circle opacity="0.1" cx="16" cy="16" r="16" fill="#3A8247"/>
<g clip-path="url(#clip0_4981_79989)">
<path d="M31.0755 24.9434L28.23 24.5084L26.9525 21.7874C26.9121 21.7015 26.8481 21.6288 26.768 21.578C26.6879 21.5271 26.5949 21.5001 26.5 21.5001C26.4051 21.5001 26.3121 21.5271 26.232 21.578C26.1519 21.6288 26.0879 21.7015 26.0475 21.7874L24.77 24.5089L21.9245 24.9434C21.8336 24.9572 21.7483 24.9959 21.6779 25.055C21.6076 25.1142 21.5549 25.1917 21.5257 25.2789C21.4965 25.366 21.4919 25.4596 21.5124 25.5492C21.533 25.6388 21.5778 25.7211 21.642 25.7869L23.716 27.9119L23.225 30.9194C23.21 31.0119 23.2213 31.1068 23.2576 31.1933C23.2939 31.2797 23.3538 31.3542 23.4305 31.4082C23.5071 31.4622 23.5974 31.4936 23.6911 31.4988C23.7847 31.5039 23.8779 31.4826 23.96 31.4374L26.5 30.0339L29.04 31.4374C29.1221 31.4826 29.2153 31.5039 29.3089 31.4988C29.4026 31.4936 29.4929 31.4622 29.5695 31.4082C29.6462 31.3542 29.7061 31.2797 29.7424 31.1933C29.7787 31.1068 29.79 31.0119 29.775 30.9194L29.284 27.9119L31.358 25.7869C31.4222 25.7211 31.467 25.6388 31.4876 25.5492C31.5081 25.4596 31.5035 25.366 31.4743 25.2789C31.4451 25.1917 31.3924 25.1142 31.3221 25.055C31.2517 24.9959 31.1664 24.9572 31.0755 24.9434ZM28.392 27.3944C28.3373 27.4504 28.2966 27.5185 28.273 27.5932C28.2495 27.6679 28.2438 27.7471 28.2565 27.8244L28.622 30.0644L26.742 29.0249C26.668 28.9838 26.5848 28.9623 26.5002 28.9623C26.4157 28.9623 26.3325 28.9838 26.2585 29.0249L24.378 30.0639L24.7435 27.8239C24.7561 27.7467 24.7504 27.6676 24.7268 27.593C24.7033 27.5184 24.6626 27.4504 24.608 27.3944L23.038 25.7844L25.185 25.4569C25.2661 25.4443 25.3429 25.4121 25.4087 25.3629C25.4744 25.3137 25.5271 25.2492 25.562 25.1749L26.5 23.1769L27.438 25.1749C27.4729 25.2492 27.5256 25.3137 27.5913 25.3629C27.6571 25.4121 27.7339 25.4443 27.815 25.4569L29.9625 25.7849L28.392 27.3944ZM20.9635 7.45986L20.1285 0.935358C20.1167 0.844728 20.0803 0.75907 20.0232 0.687695C19.9661 0.61632 19.8905 0.561958 19.8047 0.530516C19.7189 0.499075 19.6261 0.491758 19.5364 0.509361C19.4467 0.526963 19.3636 0.568812 19.296 0.630358C18.7174 1.15648 17.9994 1.50456 17.228 1.63286C16.3735 1.76588 15.4989 1.62259 14.7315 1.22386C14.6505 1.18161 14.5594 1.16238 14.4682 1.16827C14.377 1.17415 14.2891 1.20493 14.2142 1.25724C14.1392 1.30956 14.0801 1.38142 14.0431 1.46501C14.0061 1.54859 13.9928 1.64072 14.0045 1.73136L14.426 4.97336C14.4363 5.0531 14.4657 5.12919 14.5116 5.19517C14.5576 5.26115 14.6188 5.31507 14.69 5.35236C15.4118 5.72596 16.2122 5.92221 17.025 5.92486C17.2872 5.92484 17.5491 5.90394 17.808 5.86236C18.4683 5.75667 19.1005 5.51857 19.6665 5.16236L19.9765 7.62386C19.782 7.74148 19.6211 7.90717 19.5092 8.10499C19.3973 8.3028 19.3382 8.52608 19.3375 8.75336V12.2359L18.3465 12.4734C18.4462 12.2189 18.4982 11.9482 18.5 11.6749C18.5019 11.3077 18.4139 10.9457 18.2437 10.6204C18.0735 10.2951 17.8263 10.0163 17.5236 9.80851C17.2209 9.6007 16.872 9.4701 16.5073 9.42813C16.1425 9.38616 15.773 9.43408 15.4311 9.56771C15.0891 9.70135 14.785 9.91664 14.5454 10.1948C14.3058 10.4729 14.1378 10.8055 14.0563 11.1635C13.9747 11.5215 13.982 11.894 14.0774 12.2485C14.1729 12.603 14.3537 12.9288 14.604 13.1974L14.421 13.2244C13.9968 13.2307 13.5824 13.3537 13.2234 13.5799C12.8644 13.806 12.5745 14.1265 12.3855 14.5064L11.3395 16.6854L9.832 14.1729C9.54057 13.6885 9.13603 13.2821 8.65306 12.9885C8.17009 12.6948 7.6231 12.5227 7.059 12.4869C7.31225 12.1448 7.46384 11.7383 7.49635 11.3139C7.52886 10.8896 7.44097 10.4646 7.24278 10.088C7.04459 9.71138 6.74415 9.39832 6.37598 9.18481C6.00782 8.97131 5.58688 8.86602 5.16155 8.88106C4.73623 8.8961 4.32378 9.03085 3.97161 9.26982C3.61944 9.5088 3.34186 9.84229 3.17076 10.232C2.99967 10.6217 2.942 11.0517 3.0044 11.4727C3.0668 11.8937 3.24673 12.2886 3.5235 12.6119C2.80983 12.7593 2.16895 13.1486 1.70915 13.714C1.24936 14.2793 0.998868 14.9861 1 15.7149V19.4249C1.0007 19.7753 1.1241 20.1145 1.34879 20.3835C1.57347 20.6525 1.88525 20.8343 2.23 20.8974L1.09 25.4999H0.5V26.4999H21V25.4999H20.5235V21.3944C20.5235 20.9638 20.4027 20.5418 20.175 20.1764L19.163 18.5514V15.7474L21.442 14.0774C21.6142 13.9546 21.7547 13.7925 21.8517 13.6046C21.9488 13.4167 21.9996 13.2084 22 12.9969V8.75386C21.999 8.45285 21.896 8.16106 21.7077 7.9262C21.5195 7.69133 21.2571 7.52728 20.9635 7.46086V7.45986ZM17.65 4.87486C16.8813 4.99536 16.0942 4.89154 15.383 4.57586L15.107 2.45386C15.844 2.68463 16.6244 2.74145 17.387 2.61986C18.048 2.51118 18.6808 2.27204 19.2485 1.91636L19.5245 4.03786C18.9815 4.47291 18.3364 4.76112 17.65 4.87486ZM16.25 10.4249C16.4972 10.4249 16.7389 10.4982 16.9445 10.6355C17.15 10.7729 17.3102 10.9681 17.4049 11.1965C17.4995 11.4249 17.5242 11.6762 17.476 11.9187C17.4277 12.1612 17.3087 12.3839 17.1339 12.5587C16.9591 12.7336 16.7363 12.8526 16.4939 12.9008C16.2514 12.9491 16.0001 12.9243 15.7716 12.8297C15.5432 12.7351 15.348 12.5749 15.2107 12.3693C15.0733 12.1638 15 11.9221 15 11.6749C15.0004 11.3435 15.1322 11.0257 15.3666 10.7914C15.6009 10.5571 15.9186 10.4253 16.25 10.4249ZM5.24 9.87336C5.49307 9.87018 5.74137 9.94234 5.95332 10.0806C6.16527 10.219 6.33131 10.4172 6.43031 10.6501C6.52932 10.883 6.55682 11.1401 6.50933 11.3887C6.46184 11.6373 6.34149 11.8662 6.16359 12.0462C5.98569 12.2262 5.75828 12.3492 5.51027 12.3997C5.26225 12.4501 5.00484 12.4256 4.77077 12.3294C4.53669 12.2332 4.33653 12.0695 4.19572 11.8592C4.05491 11.6489 3.97982 11.4014 3.98 11.1484C3.9784 10.8123 4.11016 10.4894 4.34637 10.2503C4.58259 10.0113 4.90396 9.87574 5.24 9.87336ZM4.348 25.4999L5.46 21.7559L6.572 25.4999H4.348ZM7.616 25.4999L5.9395 19.8574C5.90893 19.7539 5.84571 19.6631 5.75929 19.5985C5.67287 19.534 5.56788 19.4991 5.46 19.4991C5.35212 19.4991 5.24713 19.534 5.16071 19.5985C5.07429 19.6631 5.01107 19.7539 4.9805 19.8574L3.3045 25.4999H2.1205L3.7455 18.9414C3.75519 18.9021 3.76006 18.8618 3.76 18.8214V14.9249H2.76V18.7604L2.4725 19.9194C2.34537 19.913 2.22552 19.8581 2.13763 19.766C2.04973 19.6739 2.00048 19.5516 2 19.4244V15.7144C1.99915 15.4307 2.05421 15.1496 2.16206 14.8873C2.2699 14.6249 2.4284 14.3864 2.62849 14.1853C2.82859 13.9842 3.06636 13.8245 3.3282 13.7154C3.59005 13.6063 3.87083 13.5499 4.1545 13.5494L6.7595 13.4744C7.20346 13.4599 7.64317 13.5648 8.03277 13.7782C8.42237 13.9915 8.74758 14.3055 8.9745 14.6874L10.8215 17.7654L10.418 18.6064L8.0795 14.9979C8.02082 14.9074 7.93445 14.8383 7.83329 14.8009C7.73212 14.7635 7.62159 14.7599 7.51817 14.7905C7.41475 14.8211 7.324 14.8843 7.25945 14.9707C7.1949 15.0571 7.16001 15.162 7.16 15.2699V18.8199C7.16011 18.8603 7.16514 18.9006 7.175 18.9399L8.8 25.4999H7.616ZM9.83 25.4999L8.16 18.7589V16.9609L10.009 19.8134C10.0154 20.0644 10.0995 20.3073 10.2496 20.5086C10.3998 20.7099 10.6087 20.8597 10.8475 20.9374C11.0975 21.0145 11.365 21.0144 11.6149 20.9369C11.8648 20.8595 12.0855 20.7084 12.248 20.5034C12.2604 20.4866 12.2718 20.469 12.282 20.4509L13.6285 18.0824V19.0499L11.0395 25.4999H9.83ZM17.256 25.4999H14.435L16.6415 20.9314L17.1505 21.4854C17.2182 21.5595 17.2557 21.6564 17.2555 21.7569L17.256 25.4999ZM21 12.9964C20.9996 13.0497 20.9863 13.1022 20.9614 13.1494C20.9364 13.1966 20.9004 13.237 20.8565 13.2674L18.3675 15.0904C18.3041 15.1368 18.2525 15.1976 18.217 15.2677C18.1815 15.3378 18.163 15.4153 18.163 15.4939V18.6949C18.1632 18.7882 18.1896 18.8797 18.239 18.9589L19.326 20.7049C19.4549 20.9117 19.5234 21.1506 19.5235 21.3944V25.4999H18.256V21.7569C18.2564 21.4056 18.1245 21.0672 17.8865 20.8089L16.88 19.7124C16.8248 19.6522 16.7558 19.6066 16.6789 19.5793C16.602 19.552 16.5196 19.5439 16.4388 19.5558C16.3581 19.5677 16.2815 19.5992 16.2157 19.6474C16.15 19.6957 16.097 19.7594 16.0615 19.8329L13.325 25.4999H12.1175L14.5925 19.3329C14.6165 19.2736 14.6289 19.2103 14.629 19.1464V15.5314H13.629V16.0594L11.433 19.9219C11.3982 19.9532 11.3564 19.9759 11.3111 19.9881C11.2659 20.0002 11.2184 20.0015 11.1725 19.9919C11.1374 19.9804 11.1054 19.9613 11.0786 19.936C11.0518 19.9107 11.0309 19.8797 11.0175 19.8454C11.0039 19.8076 10.9991 19.7673 11.0035 19.7275C11.0078 19.6876 11.0211 19.6493 11.0425 19.6154L13.2825 14.9484C13.392 14.7301 13.5602 14.5466 13.7682 14.4187C13.9762 14.2907 14.2158 14.2232 14.46 14.2239C14.4841 14.2239 14.5081 14.2222 14.532 14.2189L16.6285 13.9109L19.684 13.1809C19.7037 13.1762 19.723 13.1704 19.742 13.1634C19.9165 13.0981 20.067 12.9812 20.1735 12.8283C20.2799 12.6754 20.3373 12.4937 20.338 12.3074V8.75336C20.3413 8.66773 20.3777 8.58672 20.4394 8.52732C20.5012 8.46791 20.5836 8.43473 20.6693 8.43473C20.7549 8.43473 20.8373 8.46791 20.8991 8.52732C20.9608 8.58672 20.9972 8.66773 21.0005 8.75336L21 12.9964ZM4.5 27.4999H21.5V28.4999H4.5V27.4999ZM9 29.4999H22.5V30.4999H9V29.4999ZM7 29.4999H8V30.4999H7V29.4999ZM2.5 27.4999H3.5V28.4999H2.5V27.4999Z" fill="#3A8247"/>
</g>
<defs>
<clipPath id="clip0_4981_79989">
<rect width="32" height="32" fill="white"/>
</clipPath>
</defs>
</svg>
