<svg width="32" height="32" viewBox="0 0 32 32" fill="none" xmlns="http://www.w3.org/2000/svg">
<circle opacity="0.1" cx="16" cy="16" r="16" fill="#4040FF"/>
<g clip-path="url(#clip0_4981_79957)">
<path d="M15.9559 7.52196H15.9595C17.5436 7.52094 18.8272 6.2361 18.8262 4.65172C18.8252 3.06753 17.5403 1.7839 15.9559 1.78492H15.9547C14.3705 1.78543 13.0867 3.06976 13.0869 4.65421C13.0872 6.23833 14.3718 7.52247 15.9559 7.52196ZM15.9572 2.80484H15.9582C16.9791 2.80459 17.807 3.63206 17.8073 4.65293C17.8075 5.67387 16.9801 6.50179 15.9592 6.50204H15.9572C15.9567 6.50204 15.9565 6.49261 15.9559 6.4928C14.942 6.48636 14.1233 5.6624 14.1235 4.64821C14.1238 3.63403 14.9433 2.81058 15.9572 2.80484ZM22.6235 5.67336H22.6626C24.2293 5.66291 25.4908 4.38425 25.4801 2.81759C25.4696 1.251 24.191 -0.0104526 22.6242 6.52981e-05H22.6229C21.0565 0.000320278 19.7866 1.2705 19.7866 2.83697C19.7868 4.40369 21.057 5.67361 22.6235 5.67336ZM22.6258 1.01998H22.6265C22.8674 1.01975 23.1061 1.067 23.3288 1.15903C23.5514 1.25106 23.7538 1.38606 23.9243 1.55633C24.0948 1.7267 24.2299 1.92899 24.3222 2.15164C24.4144 2.37429 24.4618 2.61294 24.4617 2.85392C24.4628 3.09118 24.4168 3.3263 24.3263 3.54562C24.2358 3.76494 24.1026 3.96409 23.9345 4.1315C23.7664 4.29893 23.5668 4.4313 23.3471 4.5209C23.1274 4.6105 22.8921 4.65555 22.6549 4.65344H22.6243C21.621 4.65319 20.808 3.83942 20.8083 2.8362C20.8085 1.83273 21.6223 1.01973 22.6255 1.01998H22.6258Z" fill="#4040FF"/>
<path d="M5.23801 14.2789H11.3797V15.6222C11.3838 15.7587 11.4413 15.8881 11.5398 15.9826C11.6384 16.0771 11.7701 16.1291 11.9066 16.1275H20.0074C20.073 16.1276 20.1379 16.1145 20.1983 16.0889C20.2587 16.0633 20.3132 16.0258 20.3587 15.9786C20.4043 15.9314 20.4399 15.8755 20.4633 15.8143C20.4867 15.7531 20.4976 15.6878 20.4952 15.6222V14.2789H26.7007C26.7651 14.2813 26.8293 14.2705 26.8894 14.2471C26.9494 14.2236 27.004 14.1881 27.0497 14.1426C27.0955 14.0973 27.1314 14.0429 27.1553 13.9831C27.1792 13.9232 27.1905 13.859 27.1884 13.7946V10.0565C27.1911 9.53938 27.0914 9.02682 26.895 8.54841C26.6986 8.07 26.4093 7.63522 26.044 7.26917C25.6786 6.90309 25.2443 6.61302 24.7662 6.4157C24.288 6.21839 23.7756 6.11772 23.2583 6.11953H22.0572C21.3003 6.11967 20.559 6.33399 19.9189 6.73771C19.2787 7.14143 18.7659 7.71806 18.4396 8.40096C17.8646 8.08155 17.2189 7.91086 16.5611 7.90438H15.3585C14.7025 7.91096 14.0584 8.08055 13.4842 8.3979C13.1613 7.71581 12.6513 7.13952 12.0135 6.73615C11.3756 6.33278 10.6364 6.11893 9.8817 6.11953H8.68967C8.17273 6.11651 7.66032 6.21586 7.18197 6.41185C6.70363 6.60784 6.26881 6.89659 5.90261 7.26145C5.53637 7.6263 5.24598 8.06004 5.0482 8.53766C4.85041 9.01529 4.74914 9.52734 4.75023 10.0443V13.7945C4.74821 13.859 4.75948 13.9231 4.78334 13.983C4.80721 14.0429 4.84315 14.0973 4.88894 14.1426C4.93466 14.1881 4.98924 14.2236 5.0493 14.2471C5.10935 14.2705 5.17359 14.2813 5.23801 14.2789ZM22.0572 7.13944H23.2534C23.637 7.13699 24.0173 7.21075 24.3721 7.35646C24.727 7.50216 25.0494 7.7169 25.3206 7.98822C25.5918 8.25953 25.8064 8.58201 25.9519 8.93694C26.0975 9.29187 26.1711 9.67217 26.1685 10.0558V13.259H20.4952V11.8842C20.4991 11.3645 20.4 10.8492 20.2035 10.368C20.0071 9.8868 19.7171 9.44935 19.3506 9.08092C19.3249 9.0553 19.3042 9.04682 19.2781 9.02215C19.7335 7.88622 20.8336 7.14117 22.0572 7.13944ZM15.3593 8.9243H16.5602C16.9455 8.92473 17.3268 9.00196 17.6819 9.15147C18.0369 9.30098 18.3586 9.51977 18.6281 9.79506C18.9001 10.0701 19.115 10.3962 19.2604 10.7546C19.4058 11.113 19.4788 11.4967 19.4753 11.8835V15.1076H12.3996V11.8728C12.4093 10.2441 13.7305 8.92806 15.3593 8.9243ZM5.77015 10.0453C5.76894 9.66214 5.84376 9.28253 5.99029 8.92846C6.13681 8.5744 6.35212 8.25293 6.62376 7.98266C6.89539 7.71239 7.21794 7.4987 7.57274 7.35396C7.92753 7.20922 8.30752 7.13631 8.69069 7.13944H9.88042C11.096 7.13919 12.1877 7.88424 12.6299 9.01673C12.2374 9.38104 11.924 9.82207 11.7089 10.3125C11.4938 10.8029 11.3818 11.3323 11.3797 11.8678V13.259H5.77015V10.0453ZM9.28734 5.67331H9.2888C10.8602 5.67331 12.1145 4.43628 12.1446 2.83985V2.84087C12.1409 1.26726 10.8613 -0.00521104 9.28734 1.60464e-05H9.28606C7.71016 -0.000238933 6.4322 1.27689 6.4322 2.85286C6.43306 3.22593 6.50775 3.59514 6.65197 3.93921C6.79618 4.28328 7.00707 4.59541 7.27248 4.85759C7.53789 5.11978 7.85257 5.32684 8.19838 5.46684C8.54419 5.60684 8.91428 5.67701 9.28734 5.67331ZM7.98898 1.55182C8.15956 1.38142 8.36233 1.24665 8.58547 1.15533C8.80862 1.06402 9.0477 1.018 9.2888 1.01993H9.28982C9.53037 1.0182 9.76886 1.0642 9.9915 1.15528C10.2141 1.24636 10.4165 1.38071 10.5868 1.55055C10.7572 1.71701 10.8926 1.91586 10.9849 2.13541C11.0773 2.35496 11.1248 2.59076 11.1247 2.82895C11.1028 3.86162 10.2973 4.65339 9.28887 4.65339H9.28759C9.0474 4.65493 8.80928 4.609 8.58689 4.51824C8.3645 4.42748 8.16224 4.29367 7.99172 4.1245C7.82119 3.9554 7.68575 3.75426 7.5932 3.53265C7.50066 3.31104 7.45282 3.07332 7.45244 2.83316C7.45168 2.59456 7.49877 2.35823 7.59093 2.13815C7.68309 1.91806 7.81844 1.71869 7.98898 1.55182ZM21.8425 21.1155C21.7949 21.0689 21.7385 21.0323 21.6766 21.0077C21.6147 20.983 21.5486 20.971 21.482 20.9721H21.4815L18.6441 20.9693C18.5775 20.9691 18.5114 20.982 18.4497 21.0073C18.388 21.0326 18.3319 21.0698 18.2846 21.1168C18.2374 21.1638 18.1998 21.2197 18.1741 21.2812C18.1484 21.3427 18.1351 21.4087 18.1349 21.4754L18.126 26.0119C18.1237 27.2026 17.1616 28.1686 15.9708 28.1753H15.9681C14.7811 28.1688 13.8232 27.2031 13.8262 26.0162L13.8314 23.4724C13.8331 23.4544 13.8339 23.4365 13.8339 23.4186C13.8339 23.4034 13.8329 23.3877 13.8316 23.3725L13.8351 21.4835C13.8353 21.4164 13.8223 21.35 13.7968 21.288C13.7713 21.2259 13.7338 21.1695 13.6864 21.122C13.639 21.0745 13.5827 21.0368 13.5207 21.0111C13.4587 20.9853 13.3923 20.9721 13.3251 20.9721H13.3239L10.4868 20.9806C10.3521 20.981 10.2231 21.0348 10.1281 21.1303C10.0331 21.2257 9.97973 21.3548 9.9798 21.4895L9.97725 23.4245V23.4258L9.97087 26.0172C9.96925 26.803 10.1228 27.5815 10.4227 28.3079C10.7226 29.0343 11.1629 29.6943 11.7185 30.2502C12.274 30.806 12.9339 31.2467 13.6601 31.547C14.3863 31.8472 15.1647 32.0012 15.9506 32H15.9693C19.2793 32 21.978 29.3 21.9854 25.9898L21.9886 23.6315C21.9926 23.5968 21.9926 23.5618 21.9886 23.5271L21.9916 21.4733C21.9918 21.4068 21.9787 21.3408 21.9531 21.2794C21.9275 21.2179 21.8899 21.1622 21.8425 21.1155H21.8425ZM20.9713 21.9803L20.9698 23.0722L19.1516 23.0757L19.1538 21.9826L20.9713 21.9803ZM12.8142 21.9937L12.8124 22.9096L10.9953 22.9131L10.9972 21.999L12.8142 21.9937ZM15.9665 30.98H15.9511C15.2989 30.9814 14.6529 30.8539 14.0502 30.6049C13.4474 30.3559 12.8998 29.9903 12.4387 29.5291C11.9776 29.0678 11.6122 28.5201 11.3634 27.9172C11.1146 27.3144 10.9874 26.6683 10.9889 26.0162L10.9932 23.9317L12.8104 23.929L12.8062 26.0092C12.7994 27.7622 14.215 29.1887 15.968 29.1952H15.972C17.7247 29.1864 19.142 27.7649 19.1458 26.0119L19.1496 24.1008L20.9682 24.0943L20.9655 25.989C20.9553 28.7442 18.722 30.974 15.9665 30.98ZM11.7156 19.8884C11.9987 19.8829 12.2255 19.6519 12.2255 19.3685L12.2308 17.5931C12.231 17.5262 12.218 17.46 12.1926 17.3982C12.1671 17.3363 12.1297 17.2801 12.0825 17.2328C12.0353 17.1855 11.9792 17.1479 11.9174 17.1223C11.8557 17.0967 11.7894 17.0836 11.7226 17.0836H11.7208C11.6544 17.0828 11.5885 17.0951 11.5269 17.1199C11.4653 17.1446 11.4092 17.1813 11.3618 17.2278C11.3143 17.2744 11.2766 17.3298 11.2507 17.391C11.2248 17.4522 11.2112 17.5179 11.2108 17.5844L11.2054 19.3692C11.2039 19.6524 11.4308 19.8842 11.7139 19.8884H11.7156Z" fill="#4040FF"/>
<path d="M13.9527 20.8348L15.2084 19.579C15.4076 19.3799 15.4076 19.0571 15.2084 18.8579C15.0093 18.6587 14.6862 18.6587 14.4873 18.8579L13.2313 20.1137C13.1358 20.2094 13.0821 20.3391 13.0821 20.4743C13.0821 20.6095 13.1358 20.7391 13.2313 20.8348C13.327 20.9305 13.4567 20.9842 13.592 20.9842C13.7273 20.9842 13.857 20.9305 13.9527 20.8348ZM10.5069 20.5101C10.7061 20.3112 10.7061 19.9882 10.5069 19.789L9.25123 18.5332C9.15527 18.4393 9.02612 18.387 8.89184 18.3878C8.75756 18.3885 8.629 18.4422 8.5341 18.5372C8.43917 18.6322 8.38551 18.7607 8.38477 18.895C8.38403 19.0293 8.43627 19.1584 8.53014 19.2544L9.78586 20.5101C9.83319 20.5575 9.8894 20.5951 9.95126 20.6207C10.0131 20.6463 10.0794 20.6595 10.1464 20.6595C10.2134 20.6595 10.2797 20.6463 10.3415 20.6207C10.4034 20.5951 10.4596 20.5575 10.5069 20.5101V20.5101ZM20.1703 19.8253C20.2364 19.8268 20.3022 19.8151 20.3638 19.7909C20.4254 19.7667 20.4815 19.7305 20.529 19.6844C20.5765 19.6383 20.6143 19.5832 20.6402 19.5223C20.6662 19.4614 20.6798 19.396 20.6802 19.3298L20.6832 17.5726C20.6829 17.5068 20.6693 17.4418 20.6433 17.3813C20.6173 17.3209 20.5794 17.2662 20.532 17.2207C20.4845 17.1752 20.4283 17.1396 20.3668 17.1162C20.3054 17.0928 20.2398 17.0819 20.174 17.0843H20.173C20.107 17.0826 20.0413 17.094 19.9797 17.118C19.9181 17.1419 19.862 17.1779 19.8145 17.2239C19.767 17.2698 19.7291 17.3247 19.7031 17.3855C19.6771 17.4462 19.6635 17.5115 19.6631 17.5776L19.6603 19.336C19.6606 19.4019 19.6741 19.4671 19.7 19.5276C19.7259 19.5882 19.7638 19.6429 19.8113 19.6886C19.8588 19.7342 19.915 19.7698 19.9765 19.7933C20.038 19.8168 20.1037 19.8277 20.1695 19.8253H20.1703ZM23.5446 19.4072C23.6384 19.3112 23.6905 19.1821 23.6898 19.0478C23.689 18.9136 23.6354 18.7851 23.5405 18.6901C23.4456 18.5952 23.317 18.5416 23.1828 18.5409C23.0485 18.5401 22.9194 18.5923 22.8234 18.6862L21.565 19.9445C21.5175 19.9919 21.4797 20.0481 21.4539 20.11C21.4281 20.172 21.4148 20.2384 21.4147 20.3055C21.4146 20.3726 21.4277 20.439 21.4534 20.501C21.479 20.563 21.5166 20.6194 21.5641 20.6668C21.6115 20.7143 21.6678 20.7519 21.7298 20.7775C21.7918 20.8032 21.8583 20.8163 21.9254 20.8162C21.9925 20.8162 22.0589 20.8028 22.1209 20.7771C22.1828 20.7513 22.239 20.7135 22.2864 20.6659L23.5446 19.4072ZM18.6387 20.649C18.7395 20.649 18.8381 20.6191 18.9219 20.5631C19.0058 20.507 19.0711 20.4274 19.1097 20.3342C19.1483 20.2411 19.1584 20.1385 19.1387 20.0396C19.1191 19.9407 19.0705 19.8499 18.9992 19.7785L17.7435 18.5228C17.6476 18.4281 17.5182 18.3751 17.3835 18.3756C17.2487 18.376 17.1196 18.4298 17.0244 18.5251C16.9292 18.6203 16.8755 18.7493 16.8751 18.884C16.8746 19.0187 16.9275 19.1481 17.0221 19.2439L18.2781 20.4997C18.3254 20.5472 18.3816 20.5848 18.4435 20.6104C18.5054 20.6361 18.5717 20.6492 18.6387 20.649Z" fill="#4040FF"/>
</g>
<defs>
<clipPath id="clip0_4981_79957">
<rect width="32" height="32" fill="white"/>
</clipPath>
</defs>
</svg>
