<svg width="104" height="48" viewBox="0 0 104 48" fill="none" xmlns="http://www.w3.org/2000/svg">
<rect x="0.5" y="0.5" width="103" height="47" rx="7.5" fill="#0086FE" fill-opacity="0.1" stroke="#0086FE"/>
<path d="M45.9385 24.1307C46.1385 25.032 44.826 25.7993 43.051 26.0551C43.051 25.6532 43.201 24.5692 44.251 24.0455C44.9885 23.6923 45.851 23.7045 45.9385 24.1307ZM48.0259 27.3705C47.8009 27.3705 46.5009 28.7711 44.8385 28.8929C43.6635 28.9782 43.0385 28.1622 43.0385 27.6263C46.6509 27.1269 48.1384 25.7506 48.1384 23.9968C48.1384 22.8154 47.1009 21.5852 45.3885 21.5852C41.6385 21.5852 40.6511 25.1051 40.5261 27.541C40.4386 28.6128 39.8011 28.7711 39.3136 28.7468C38.8136 28.7224 38.4511 28.2961 38.5386 27.5288L39.2761 22.6936C39.2886 22.6083 39.4761 21.6339 38.7636 21.6096C38.0136 21.573 37.0261 21.9141 36.8512 22.9615C36.6887 23.9846 36.6137 24.5692 36.4762 25.3974C36.3762 26.0917 36.2387 26.7981 36.1762 27.4679C36.0387 28.1013 35.8137 28.4179 35.1262 28.4179C34.2512 28.3327 34.2762 27.5897 34.3637 26.9564L34.9762 22.7057C34.9887 22.6205 35.1762 21.6339 34.4637 21.6096C33.7137 21.573 32.7262 21.9263 32.5512 22.9737C32.5137 23.2295 32.4762 23.4609 32.4387 23.6801V23.6679C32.2638 24.8859 31.6763 25.4218 31.0013 25.2878C30.3263 25.1416 30.6638 23.3391 30.6763 23.3147C30.9013 21.8045 30.3513 21.2686 29.0013 21.8288C28.2888 22.1211 27.5514 22.8884 27.0639 23.4609L27.1764 22.6936C27.1889 22.6083 27.3764 21.6339 26.6639 21.6096C25.9139 21.573 24.9264 21.9141 24.7514 22.9615C24.7514 22.998 24.7389 23.0346 24.7389 23.0711C24.7389 23.0711 24.6514 23.5218 24.5389 23.9115C24.4889 24.0698 24.4389 24.2282 24.4014 24.3378C24.2514 24.7641 24.0889 25.1782 23.9139 25.5801C23.7264 25.982 23.5389 26.3718 23.3139 26.7493C23.2014 26.932 23.089 27.1147 22.964 27.2852C22.839 27.4558 22.714 27.6263 22.5765 27.7724C22.314 28.0769 22.014 28.3327 21.714 28.5154C21.664 28.5519 21.614 28.5763 21.564 28.6006C20.114 29.2096 19.8515 27.8455 19.814 27.6506C19.8015 27.5532 19.789 27.4436 19.789 27.334C19.7765 27.1634 19.7765 26.9808 19.789 26.7859C19.789 26.6032 19.8015 26.4083 19.8265 26.2134C19.864 25.8237 19.9265 25.4218 20.014 25.0199C20.089 24.6545 20.1765 24.3013 20.2765 23.9359C21.1265 24.0333 21.9265 24.1064 22.214 24.1186C22.9015 24.1673 23.2889 23.8263 23.3514 23.4487C23.4014 23.1564 23.3639 23.3147 23.4889 22.6205C23.6764 21.5974 23.4514 21.5974 22.589 21.5974C22.589 21.5974 21.9765 21.5974 21.1015 21.5974C21.1265 21.5487 21.139 21.5 21.164 21.4391C21.489 20.6718 21.9015 19.9775 22.3265 19.2102C22.864 18.2237 22.7265 17.9923 22.064 17.4442C20.014 15.9705 18.9765 18.6012 18.739 19.0153C18.5515 19.4294 18.3766 19.8436 18.1891 20.3307C18.0266 20.7448 17.8766 21.1711 17.7516 21.5974H15.5891C14.9391 21.5974 15.0016 22.182 15.0016 22.182C15.0016 22.7301 16.3391 23.2173 17.2391 23.473C17.1641 23.8263 17.1016 24.1916 17.0516 24.5449C16.9766 25.032 16.9391 25.5314 16.9141 26.0429C16.9016 26.5545 16.9141 27.0782 16.9891 27.6263C17.0266 27.8942 17.0891 28.1743 17.1766 28.4667C17.2266 28.6128 17.2766 28.759 17.3266 28.9051C17.3891 29.0513 17.4641 29.1974 17.5391 29.3436C17.7016 29.6359 17.9266 29.9282 18.2141 30.184C18.5016 30.4397 18.8515 30.6468 19.214 30.7808C19.4015 30.8417 19.5765 30.8904 19.764 30.9147C19.939 30.9391 20.164 30.9513 20.3265 30.9513C20.6515 30.9513 20.989 30.9026 21.3015 30.8173C21.614 30.7321 21.914 30.5859 22.1765 30.4276C22.439 30.257 22.6765 30.0744 22.8765 29.8673C23.2764 29.4654 23.5639 29.0147 23.8014 28.5641C23.8514 28.4667 23.9014 28.357 23.9514 28.2596C23.8639 29.1853 23.9139 30.0135 24.2639 30.4397C24.9514 31.2558 25.9014 30.9878 26.0014 30.3423C26.0889 29.7699 26.2639 28.6372 26.4014 27.7846C26.5639 26.9077 26.7389 26.384 27.0639 25.6654C27.4514 24.825 28.5388 24.1186 28.5138 25.1051C28.4513 27.9917 30.6763 28.0404 31.9638 26.7615C31.7763 28.0282 31.7263 29.2096 32.4137 30.0256C33.7637 31.609 35.7762 30.8295 36.8262 30.1353C37.7636 31.3776 40.2011 31.1096 41.2636 29.8551C42.026 30.8782 43.451 30.9878 44.501 30.9513C47.5134 30.793 49.3884 27.3705 48.0259 27.3705Z" fill="#0086FE"/>
<path d="M54.1884 21.6094C55.3134 21.6094 56.2508 22.0235 56.8633 22.6325L55.6258 24.2767C55.1884 23.9113 54.7759 23.753 54.3509 23.753C53.0384 23.753 52.2134 24.7395 52.2134 26.2985C52.2134 27.8453 53.0759 28.844 54.2634 28.844C54.9259 28.844 55.4633 28.5395 55.9008 28.1985L56.9883 29.8793C56.1008 30.6344 54.9384 30.9998 53.9509 30.9998C51.4009 30.9998 49.4385 29.2825 49.4385 26.3107C49.4385 23.3267 51.6634 21.6094 54.1884 21.6094Z" fill="#0086FE"/>
<path d="M61.1057 28.9239C61.7307 28.9239 62.1432 28.6316 62.6181 28.1688V26.5976C60.6807 26.8534 60.0557 27.3893 60.0557 28.0713C60.0557 28.656 60.4682 28.9239 61.1057 28.9239ZM62.6181 25.0143C62.5681 24.2226 62.1557 23.7111 61.1807 23.7111C60.4057 23.7111 59.6307 24.0156 58.7432 24.5271L57.7808 22.7732C58.9432 22.0912 60.2557 21.604 61.6932 21.604C64.0306 21.604 65.3181 22.9072 65.3181 25.6354V30.7508H63.1056L62.9056 29.8374H62.8556C62.0807 30.5072 61.2182 30.9701 60.1807 30.9701C58.5182 30.9701 57.4683 29.7765 57.4683 28.2662C57.4808 26.4027 59.0057 25.3797 62.6181 25.0143Z" fill="#0086FE"/>
<path d="M66.6128 30.7684H69.3252V18.1382H66.6128M70.6877 30.7684H73.4001V18.1382H70.6877M80.4125 25.3728C80.4125 24.3497 79.975 23.6312 78.8875 23.6312C78.0375 23.6312 77.3001 24.1914 77.1126 25.3728H80.4125ZM78.8375 21.6093C81.4375 21.6093 82.7249 23.4606 82.7249 25.8965C82.7249 26.3594 82.6749 26.7978 82.6124 27.0171H77.1376C77.3751 28.369 78.3 28.9658 79.5125 28.9658C80.2 28.9658 80.825 28.7709 81.4875 28.369L82.3874 29.9767C81.45 30.61 80.225 30.9876 79.1375 30.9876C76.5251 30.9876 74.5126 29.2581 74.5126 26.2985C74.5251 23.3997 76.6376 21.6093 78.8375 21.6093ZM83.8374 21.8286H86.0499L86.2374 23.3997H86.3124C86.9748 22.194 87.9748 21.6215 88.9123 21.6215C89.4248 21.6215 89.7373 21.6946 89.9998 21.8042L89.5623 24.094C89.2248 24.0087 88.9498 23.9478 88.5623 23.9478C87.8748 23.9478 87.0373 24.3863 86.5499 25.5921V30.7805H83.8374C83.8374 30.7684 83.8374 21.8286 83.8374 21.8286Z" fill="#0086FE"/>
</svg>
