<svg width="32" height="32" viewBox="0 0 32 32" fill="none" xmlns="http://www.w3.org/2000/svg">
<g clip-path="url(#clip0_2058_37875)">
<mask id="mask0_2058_37875" style="mask-type:luminance" maskUnits="userSpaceOnUse" x="-3" y="6" width="38" height="19">
<path d="M-2.67871 6.31286H34.68V24.9922H-2.67871V6.31286Z" fill="white"/>
</mask>
<g mask="url(#mask0_2058_37875)">
<path d="M0.259356 19.7112H0.498901L0.276306 20.6409C0.243271 20.7789 0.249498 20.8827 0.295158 20.952C0.340646 21.0214 0.425308 21.056 0.549059 21.056C0.672031 21.056 0.772865 21.0214 0.851646 20.952C0.930515 20.8827 0.986466 20.7789 1.0195 20.6409L1.24201 19.7112H1.48467L1.25662 20.6639C1.20707 20.871 1.11878 21.0259 0.992347 21.1287C0.865829 21.2316 0.699963 21.283 0.49475 21.283C0.289364 21.283 0.148491 21.2317 0.0717844 21.1292C-0.00500836 21.0268 -0.0184125 20.8717 0.0313125 20.6639L0.259356 19.7112Z" fill="#696A6A"/>
<path d="M1.45215 21.2421L1.83317 19.6505L2.55717 20.5864C2.57654 20.6128 2.59608 20.6411 2.61537 20.6711C2.63465 20.7011 2.65437 20.7348 2.67461 20.7725L2.92877 19.7111H3.15301L2.77224 21.3015L2.03302 20.3489C2.01322 20.3232 1.9948 20.296 1.97759 20.2674C1.96021 20.2388 1.94456 20.2088 1.9302 20.1775L1.67535 21.2421H1.45215Z" fill="#696A6A"/>
<path d="M3.13379 21.2422L3.50028 19.7112H3.74277L3.37636 21.2422H3.13379Z" fill="#696A6A"/>
<path d="M3.72461 21.2422L4.0911 19.7112H4.92389L4.8733 19.9224H4.28309L4.19168 20.3041H4.78189L4.72966 20.5226H4.13936L3.96718 21.2422H3.72461Z" fill="#696A6A"/>
<path d="M4.8252 21.2422L5.19169 19.7112H5.43418L5.06777 21.2422H4.8252Z" fill="#696A6A"/>
<path d="M5.41602 21.2422L5.78251 19.7112H6.6153L6.56471 19.9224H5.97449L5.88257 20.3061H6.47278L6.42055 20.5248H5.83033L5.71186 21.0194H6.30207L6.2488 21.2422H5.41602Z" fill="#696A6A"/>
<path d="M6.82371 21.0173H7.02762C7.1397 21.0173 7.22566 21.0096 7.28541 20.9943C7.34517 20.9789 7.4 20.9531 7.45024 20.9169C7.51847 20.8675 7.57546 20.8059 7.6213 20.7323C7.66704 20.6588 7.70172 20.5731 7.72507 20.4755C7.74833 20.3778 7.75473 20.2924 7.74418 20.219C7.73354 20.1453 7.70604 20.0838 7.66151 20.0343C7.62804 19.9981 7.58385 19.9722 7.52868 19.9568C7.47342 19.9416 7.38348 19.9339 7.25843 19.9339H7.17074H7.08305L6.82371 21.0173ZM6.52734 21.2422L6.89384 19.7111H7.22099C7.43372 19.7111 7.58074 19.722 7.6622 19.7439C7.74349 19.766 7.81068 19.8028 7.86352 19.8544C7.93366 19.922 7.97828 20.0088 7.99748 20.1147C8.01659 20.2207 8.00984 20.3417 7.97733 20.4776C7.94481 20.6136 7.8937 20.734 7.824 20.8389C7.75447 20.9439 7.66825 21.0305 7.56569 21.0988C7.48812 21.1504 7.40493 21.1872 7.31655 21.2092C7.22791 21.2311 7.09577 21.2422 6.9197 21.2422H6.8544H6.52734Z" fill="#696A6A"/>
<path d="M9.15798 20.3512H9.22024C9.35471 20.3512 9.44802 20.3361 9.50008 20.3061C9.55223 20.2762 9.58725 20.2232 9.60542 20.1472C9.62496 20.0656 9.61484 20.0081 9.57489 19.9747C9.53494 19.9412 9.45088 19.9243 9.32246 19.9243H9.26019L9.15798 20.3512ZM9.0939 20.5549L8.92941 21.2422H8.70215L9.06873 19.7112H9.43566C9.54436 19.7112 9.62297 19.7172 9.6714 19.7294C9.71965 19.7415 9.75952 19.7617 9.791 19.7896C9.82931 19.8252 9.85447 19.8731 9.86658 19.9333C9.8786 19.9937 9.87601 20.0601 9.85871 20.1325C9.84124 20.2051 9.81201 20.272 9.77085 20.3334C9.72968 20.3947 9.68143 20.4429 9.62626 20.4776C9.58146 20.5056 9.53208 20.5255 9.47795 20.5372C9.42372 20.5491 9.34235 20.5549 9.23364 20.5549H9.18582H9.0939Z" fill="#696A6A"/>
<path d="M10.1588 20.6409H10.5747L10.5052 20.2915C10.5019 20.2693 10.4988 20.2437 10.4962 20.2147C10.4936 20.1858 10.4919 20.1535 10.4908 20.118C10.4747 20.1514 10.4585 20.1827 10.4424 20.2116C10.4263 20.2405 10.4106 20.2671 10.3952 20.2915L10.1588 20.6409ZM10.6856 21.2422L10.6107 20.8479H10.0194L9.75175 21.2422H9.49707L10.6006 19.6506L10.9414 21.2422H10.6856Z" fill="#696A6A"/>
<path d="M11.2885 21.2422L11.4561 20.5415L11.1523 19.7112H11.4072L11.5957 20.2309C11.6 20.2442 11.6052 20.2616 11.6112 20.2832C11.6173 20.3048 11.6231 20.3281 11.6287 20.3533C11.6439 20.3289 11.6595 20.3057 11.6752 20.2842C11.6908 20.2626 11.7067 20.2428 11.7227 20.2246L12.1666 19.7112H12.4092L11.6966 20.5415L11.529 21.2422H11.2885Z" fill="#696A6A"/>
<path d="M13.6033 20.486C13.6034 20.4742 13.6069 20.4415 13.6136 20.3878C13.6188 20.3432 13.6229 20.3062 13.6258 20.2769C13.6114 20.3118 13.5944 20.3467 13.5748 20.3815C13.5552 20.4163 13.5327 20.4519 13.507 20.4882L12.9213 21.304L12.7302 20.4715C12.722 20.4373 12.7158 20.4041 12.7117 20.3722C12.7075 20.3401 12.7047 20.3083 12.7033 20.2769C12.695 20.309 12.6844 20.3426 12.6715 20.3779C12.6587 20.4131 12.6433 20.4499 12.6252 20.4882L12.2846 21.2422H12.0615L12.7962 19.6463L13.0053 20.6126C13.0083 20.628 13.0127 20.6535 13.0181 20.689C13.0234 20.7245 13.0297 20.7685 13.0371 20.8207C13.0618 20.7768 13.0974 20.7211 13.1443 20.6535C13.1568 20.6353 13.1663 20.6214 13.1727 20.6116L13.834 19.6463L13.8128 21.2422H13.5874L13.6033 20.486Z" fill="#696A6A"/>
<path d="M14.0068 21.2422L14.3734 19.7112H15.2062L15.1556 19.9224H14.5653L14.4735 20.3061H15.0637L15.0115 20.5248H14.4212L14.3028 21.0194H14.893L14.8395 21.2422H14.0068Z" fill="#696A6A"/>
<path d="M15.1172 21.2421L15.4982 19.6505L16.2222 20.5864C16.2416 20.6128 16.2611 20.6411 16.2804 20.6711C16.2997 20.7011 16.3194 20.7348 16.3396 20.7725L16.5938 19.7111H16.8181L16.4373 21.3015L15.6981 20.3489C15.6783 20.3232 15.6598 20.296 15.6426 20.2674C15.6252 20.2388 15.6096 20.2088 15.5952 20.1775L15.3404 21.2421H15.1172Z" fill="#696A6A"/>
<path d="M17.5923 19.9224L17.2764 21.2422H17.0338L17.3496 19.9224H16.9531L17.0037 19.7112H18.0373L17.9868 19.9224H17.5923Z" fill="#696A6A"/>
<path d="M17.8438 20.9357L18.0595 20.8438C18.0616 20.9121 18.0827 20.9642 18.123 21.0001C18.1633 21.0361 18.2215 21.054 18.2978 21.054C18.3698 21.054 18.432 21.0334 18.4843 20.9922C18.5366 20.9511 18.5711 20.8961 18.5876 20.827C18.6091 20.737 18.5554 20.6569 18.427 20.5865C18.409 20.5761 18.3952 20.5684 18.3857 20.5635C18.2408 20.4812 18.149 20.4068 18.1102 20.3402C18.0716 20.2736 18.0636 20.1922 18.0866 20.096C18.1165 19.9713 18.182 19.8702 18.2831 19.7928C18.3842 19.7154 18.5016 19.6766 18.6356 19.6766C18.7457 19.6766 18.8326 19.6984 18.8962 19.742C18.9598 19.7857 18.9961 19.8482 19.0051 19.9297L18.7916 20.0301C18.7731 19.9821 18.7487 19.9469 18.7184 19.9245C18.6881 19.9022 18.6497 19.891 18.6036 19.891C18.5384 19.891 18.4824 19.9086 18.4356 19.9432C18.389 19.9782 18.3585 20.0249 18.3444 20.0835C18.3225 20.1755 18.3862 20.2612 18.5357 20.3407C18.5472 20.3469 18.5562 20.3519 18.5627 20.3554C18.6935 20.425 18.7786 20.4932 18.8176 20.5598C18.8567 20.6265 18.8644 20.7096 18.8405 20.8092C18.8058 20.9543 18.7338 21.0695 18.6243 21.1549C18.5148 21.2402 18.3842 21.283 18.2328 21.283C18.1056 21.283 18.0086 21.253 17.9419 21.193C17.8749 21.1331 17.8422 21.0474 17.8438 20.9357Z" fill="#696A6A"/>
<path d="M19.6367 21.2422L20.0032 19.7112H20.2458L19.8793 21.2422H19.6367Z" fill="#696A6A"/>
<path d="M20.2275 21.2421L20.6086 19.6505L21.3326 20.5864C21.3519 20.6128 21.3715 20.6411 21.3908 20.6711C21.41 20.7011 21.4298 20.7348 21.45 20.7725L21.7042 19.7111H21.9284L21.5476 21.3015L20.8084 20.3489C20.7886 20.3232 20.7701 20.296 20.7529 20.2674C20.7356 20.2388 20.7199 20.2088 20.7055 20.1775L20.4507 21.2421H20.2275Z" fill="#696A6A"/>
<path d="M22.7026 19.9224L22.3866 21.2422H22.1442L22.46 19.9224H22.0635L22.1141 19.7112H23.1477L23.0972 19.9224H22.7026Z" fill="#696A6A"/>
<path d="M22.9668 21.2422L23.3333 19.7112H24.1661L24.1156 19.9224H23.5254L23.4334 20.3061H24.0236L23.9713 20.5248H23.3811L23.2627 21.0194H23.8529L23.7996 21.2422H22.9668Z" fill="#696A6A"/>
<path d="M24.531 20.3637H24.5749C24.7033 20.3637 24.7923 20.3484 24.8417 20.3177C24.8912 20.287 24.9254 20.2327 24.9439 20.1545C24.9642 20.0702 24.9559 20.0107 24.9188 19.9763C24.882 19.9416 24.8024 19.9244 24.6801 19.9244H24.6362L24.531 20.3637ZM24.4694 20.5571L24.3054 21.2422H24.0781L24.4447 19.7112H24.7831C24.8823 19.7112 24.9577 19.7177 25.0092 19.7311C25.0607 19.7443 25.1022 19.7662 25.1336 19.797C25.171 19.8338 25.1952 19.8817 25.2064 19.9403C25.2174 19.9987 25.2145 20.0629 25.1979 20.1325C25.1686 20.2552 25.1167 20.3513 25.0424 20.4207C24.968 20.49 24.8727 20.5318 24.7565 20.5456L25.1037 21.2422H24.8294L24.4969 20.5571H24.4694Z" fill="#696A6A"/>
<path d="M25.2471 21.2422L25.6136 19.7112H26.4464L26.3958 19.9224H25.8055L25.7141 20.3041H26.3044L26.2521 20.5226H25.6619L25.4896 21.2422H25.2471Z" fill="#696A6A"/>
<path d="M26.7272 20.6409H27.1431L27.0737 20.2915C27.0703 20.2693 27.0673 20.2437 27.0646 20.2147C27.0621 20.1858 27.0604 20.1535 27.0592 20.118C27.0431 20.1514 27.0269 20.1827 27.0108 20.2116C26.9947 20.2405 26.979 20.2671 26.9636 20.2915L26.7272 20.6409ZM27.2541 21.2422L27.1791 20.8479H26.5878L26.3202 21.2422H26.0654L27.169 19.6506L27.5099 21.2422H27.2541Z" fill="#696A6A"/>
<path d="M29.0895 20.0835C29.0353 20.0236 28.9736 19.9786 28.9042 19.9486C28.835 19.9188 28.7582 19.9036 28.6739 19.9036C28.5109 19.9036 28.3653 19.9573 28.2374 20.0647C28.1093 20.1721 28.0249 20.3111 27.984 20.482C27.9445 20.6473 27.9617 20.7835 28.0355 20.8908C28.1094 20.9982 28.2222 21.052 28.3736 21.052C28.4621 21.052 28.5499 21.0359 28.6374 21.0038C28.725 20.9717 28.8132 20.9233 28.9021 20.8584L28.8347 21.1398C28.758 21.1878 28.6783 21.2238 28.5959 21.2474C28.5134 21.2711 28.4274 21.283 28.3377 21.283C28.2235 21.283 28.1225 21.2638 28.0349 21.2255C27.9473 21.1871 27.8756 21.1308 27.8201 21.056C27.765 20.9829 27.7296 20.8967 27.7145 20.7972C27.6991 20.6979 27.7049 20.5921 27.7317 20.4797C27.7586 20.3676 27.8034 20.2622 27.8661 20.1635C27.9287 20.0648 28.0061 19.9782 28.098 19.9036C28.1902 19.8283 28.2888 19.7714 28.3937 19.7326C28.4988 19.694 28.6072 19.6745 28.7186 19.6745C28.8063 19.6745 28.8868 19.6877 28.96 19.7139C29.0332 19.7399 29.1009 19.7794 29.1631 19.8326L29.0895 20.0835Z" fill="#696A6A"/>
<path d="M29.1133 21.2422L29.4798 19.7112H30.3126L30.262 19.9224H29.6718L29.5799 20.3061H30.1701L30.1178 20.5248H29.5276L29.4092 21.0194H29.9994L29.9461 21.2422H29.1133Z" fill="#696A6A"/>
<path d="M24.6881 18.377H23.0205L25.3397 10.0011H27.0073L24.6881 18.377Z" fill="#66686C"/>
<path d="M23.8227 10.2661C23.7071 10.1067 23.5288 10.0263 23.2866 10.0263H14.1168L13.6626 11.6668H15.3311V11.6658H22.0045L21.519 13.4189H14.8454L14.846 13.4153H13.1782L11.7939 18.4126H13.4626L14.3916 15.0584H21.8932C22.1275 15.0584 22.348 14.9785 22.5554 14.8187C22.7623 14.6587 22.8985 14.4615 22.9638 14.2259L23.8927 10.8711C23.9605 10.6276 23.9371 10.4256 23.8227 10.2661Z" fill="#66686C"/>
<path d="M10.8224 17.8542C10.7303 18.1859 10.4283 18.4153 10.0841 18.4153H1.48024C1.24579 18.4153 1.07154 18.3354 0.956957 18.1757C0.842459 18.0159 0.8179 17.8182 0.883364 17.5828L2.98271 10.0257H4.65183L2.77672 16.7753H9.45337L11.3285 10.0257H12.9973L10.8224 17.8542Z" fill="#66686C"/>
<path d="M29.8875 10.0169L31.9988 14.2157L27.5605 18.4133L29.8875 10.0169Z" fill="#27803B"/>
<path d="M28.4075 10.0169L30.5172 14.2157L26.0771 18.4133L28.4075 10.0169Z" fill="#E9661C"/>
</g>
</g>
<defs>
<clipPath id="clip0_2058_37875">
<rect width="32" height="11.3052" fill="white" transform="translate(0 10)"/>
</clipPath>
</defs>
</svg>
