<svg width="24" height="24" viewBox="0 0 24 24" fill="none" xmlns="http://www.w3.org/2000/svg">
<g clip-path="url(#clip0_5467_4217)">
<path d="M12 15C14.0711 15 15.75 13.3211 15.75 11.25C15.75 9.17893 14.0711 7.5 12 7.5C9.92893 7.5 8.25 9.17893 8.25 11.25C8.25 13.3211 9.92893 15 12 15Z" stroke="#3A8247" stroke-width="1.5" stroke-linecap="round" stroke-linejoin="round"/>
<path d="M5.98145 18.6904C6.54574 17.5789 7.40678 16.6454 8.46914 15.9933C9.5315 15.3413 10.7537 14.9961 12.0002 14.9961C13.2467 14.9961 14.4689 15.3413 15.5312 15.9933C16.5936 16.6454 17.4547 17.5789 18.0189 18.6904" stroke="#3A8247" stroke-width="1.5" stroke-linecap="round" stroke-linejoin="round"/>
<path d="M16.5 5.25H21" stroke="#3A8247" stroke-width="1.5" stroke-linecap="round" stroke-linejoin="round"/>
<path d="M18.75 3V7.5" stroke="#3A8247" stroke-width="1.5" stroke-linecap="round" stroke-linejoin="round"/>
<path d="M20.8754 10.5C21.1918 12.38 20.9026 14.312 20.0494 16.0169C19.1962 17.7217 17.8233 19.1114 16.1288 19.9851C14.4343 20.8588 12.5061 21.1714 10.6224 20.8777C8.73867 20.584 6.99705 19.6992 5.64899 18.3512C4.30092 17.0031 3.41617 15.2615 3.12249 13.3778C2.8288 11.4941 3.14138 9.56581 4.01508 7.87135C4.88879 6.17689 6.27841 4.80395 7.9833 3.95076C9.68818 3.09758 11.6201 2.80832 13.5001 3.12473" stroke="#3A8247" stroke-width="1.5" stroke-linecap="round" stroke-linejoin="round"/>
</g>
<defs>
<clipPath id="clip0_5467_4217">
<rect width="24" height="24" fill="white"/>
</clipPath>
</defs>
</svg>
