<svg width="32" height="32" viewBox="0 0 32 32" fill="none" xmlns="http://www.w3.org/2000/svg">
<circle opacity="0.1" cx="16" cy="16" r="16" fill="#E98315"/>
<g clip-path="url(#clip0_4982_80387)">
<path d="M15.9502 0.9375C24.269 0.9375 31.0127 7.68119 31.0127 16C31.0127 24.3188 24.269 31.0625 15.9502 31.0625" stroke="#E98315" stroke-miterlimit="10" stroke-linecap="round" stroke-linejoin="round"/>
<path d="M15.9502 6.58594V16L23.4814 23.5312" stroke="#E98315" stroke-miterlimit="10" stroke-linecap="round" stroke-linejoin="round"/>
<path d="M10.5029 1.95359C10.5029 1.95359 10.8663 1.80816 11.2677 1.68272C11.6691 1.55728 12.1347 1.42578 12.1347 1.42578M5.92869 4.75091C5.92869 4.75091 6.21807 4.48741 6.55019 4.22934C6.88232 3.97128 7.27232 3.68503 7.27232 3.68503M2.62375 8.97297C2.62375 8.97297 2.80257 8.62478 3.02325 8.26678C3.24394 7.90872 3.509 7.50403 3.509 7.50403M1.00669 14.085C1.00669 14.085 1.05225 13.6963 1.13357 13.2837C1.21488 12.871 1.32144 12.3991 1.32144 12.3991M1.28238 19.4397C1.28238 19.4397 1.18888 19.0597 1.12057 18.6447C1.05225 18.2297 0.986816 17.7503 0.986816 17.7503M3.41582 24.3587C3.41582 24.3587 3.19513 24.0355 2.98582 23.6707C2.77644 23.3058 2.54732 22.8798 2.54732 22.8798M7.13682 28.2191C7.13682 28.2191 6.81694 27.9936 6.49307 27.7252C6.16919 27.4568 5.80538 27.138 5.80538 27.138M11.9741 30.5318C11.9741 30.5318 11.5955 30.4327 11.1982 30.2947C10.8009 30.1567 10.3484 29.9855 10.3484 29.9855" stroke="#E98315" stroke-miterlimit="10" stroke-linecap="round" stroke-linejoin="round" stroke-dasharray="30 57"/>
</g>
<defs>
<clipPath id="clip0_4982_80387">
<rect width="32" height="32" fill="white"/>
</clipPath>
</defs>
</svg>
