<svg width="24" height="24" viewBox="0 0 24 24" fill="none" xmlns="http://www.w3.org/2000/svg">
<circle opacity="0.1" cx="12" cy="12" r="12" fill="#3A8247"/>
<g clip-path="url(#clip0_5249_81134)">
<path d="M8.0625 10.3125C8.0625 9.71576 8.29955 9.14347 8.72151 8.72151C9.14347 8.29955 9.71576 8.0625 10.3125 8.0625L11.4375 10.3125L10.5713 11.6112C10.9149 12.4322 11.5678 13.0851 12.3888 13.4288L13.6875 12.5625L15.9375 13.6875C15.9375 14.2842 15.7004 14.8565 15.2785 15.2785C14.8565 15.7004 14.2842 15.9375 13.6875 15.9375C12.1957 15.9375 10.7649 15.3449 9.71002 14.29C8.65513 13.2351 8.0625 11.8043 8.0625 10.3125Z" stroke="#3A8247" stroke-width="1.5" stroke-linecap="round" stroke-linejoin="round"/>
<path d="M8.62041 17.8441C10.0383 18.6647 11.7062 18.9416 13.3132 18.6233C14.9202 18.305 16.3566 17.4131 17.3545 16.1139C18.3525 14.8148 18.844 13.197 18.7372 11.5623C18.6305 9.92753 17.9329 8.38739 16.7746 7.22899C15.6162 6.07059 14.076 5.37301 12.4413 5.2663C10.8065 5.15958 9.18878 5.65103 7.88962 6.649C6.59046 7.64697 5.69857 9.08335 5.38024 10.6903C5.06191 12.2973 5.33887 13.9653 6.15948 15.3831L5.27987 18.0093C5.24681 18.1084 5.24202 18.2148 5.26601 18.3165C5.29001 18.4181 5.34185 18.5111 5.41573 18.585C5.48961 18.6589 5.5826 18.7107 5.68428 18.7347C5.78596 18.7587 5.89232 18.7539 5.99143 18.7209L8.62041 17.8441Z" stroke="#3A8247" stroke-width="1.5" stroke-linecap="round" stroke-linejoin="round"/>
</g>
<defs>
<clipPath id="clip0_5249_81134">
<rect width="18" height="18" fill="white" transform="translate(3 3)"/>
</clipPath>
</defs>
</svg>
