<svg width="51" height="12" viewBox="0 0 51 12" fill="none" xmlns="http://www.w3.org/2000/svg">
<path d="M2.25586 1.04688L4.33398 5.58594L6.41211 1.04688H8.64746L5.37305 7.37695V11H3.29492V7.37695L0.0136719 1.04688H2.25586ZM12.9609 9.33203V6.03711C12.9609 5.80013 12.9222 5.59733 12.8447 5.42871C12.7673 5.25553 12.6465 5.12109 12.4824 5.02539C12.3229 4.92969 12.1156 4.88184 11.8604 4.88184C11.6416 4.88184 11.4525 4.92057 11.293 4.99805C11.1335 5.07096 11.0104 5.17806 10.9238 5.31934C10.8372 5.45605 10.7939 5.61784 10.7939 5.80469H8.8252C8.8252 5.49023 8.89811 5.19173 9.04395 4.90918C9.18978 4.62663 9.40169 4.37826 9.67969 4.16406C9.95768 3.94531 10.2881 3.77441 10.6709 3.65137C11.0583 3.52832 11.4912 3.4668 11.9697 3.4668C12.5439 3.4668 13.0544 3.5625 13.501 3.75391C13.9476 3.94531 14.2985 4.23242 14.5537 4.61523C14.8135 4.99805 14.9434 5.47656 14.9434 6.05078V9.21582C14.9434 9.62142 14.9684 9.9541 15.0186 10.2139C15.0687 10.4691 15.1416 10.6924 15.2373 10.8838V11H13.248C13.1523 10.7995 13.0794 10.5488 13.0293 10.248C12.9837 9.94271 12.9609 9.63737 12.9609 9.33203ZM13.2207 6.49512L13.2344 7.60938H12.1338C11.874 7.60938 11.6484 7.639 11.457 7.69824C11.2656 7.75749 11.1084 7.8418 10.9854 7.95117C10.8623 8.05599 10.7712 8.17904 10.7119 8.32031C10.6572 8.46159 10.6299 8.61654 10.6299 8.78516C10.6299 8.95378 10.6686 9.10645 10.7461 9.24316C10.8236 9.37533 10.9352 9.48014 11.0811 9.55762C11.2269 9.63053 11.3978 9.66699 11.5938 9.66699C11.89 9.66699 12.1475 9.60775 12.3662 9.48926C12.585 9.37077 12.7536 9.22493 12.8721 9.05176C12.9951 8.87858 13.0589 8.71452 13.0635 8.55957L13.583 9.39355C13.5101 9.5804 13.4098 9.77409 13.2822 9.97461C13.1592 10.1751 13.002 10.3643 12.8105 10.542C12.6191 10.7152 12.389 10.8587 12.1201 10.9727C11.8512 11.082 11.5322 11.1367 11.1631 11.1367C10.6937 11.1367 10.2676 11.0433 9.88477 10.8564C9.50651 10.665 9.20573 10.403 8.98242 10.0703C8.76367 9.73307 8.6543 9.35026 8.6543 8.92188C8.6543 8.53451 8.72721 8.19043 8.87305 7.88965C9.01888 7.58887 9.23307 7.33594 9.51562 7.13086C9.80273 6.92122 10.1605 6.764 10.5889 6.65918C11.0173 6.5498 11.514 6.49512 12.0791 6.49512H13.2207ZM18.4297 5.13477V11H16.4541V3.60352H18.3066L18.4297 5.13477ZM18.1562 7.04199H17.6094C17.6094 6.52702 17.6709 6.05306 17.7939 5.62012C17.9215 5.18262 18.1061 4.80436 18.3477 4.48535C18.5938 4.16178 18.8968 3.91113 19.2568 3.7334C19.6169 3.55566 20.0339 3.4668 20.5078 3.4668C20.8359 3.4668 21.1367 3.51693 21.4102 3.61719C21.6836 3.71289 21.9183 3.86556 22.1143 4.0752C22.3148 4.28027 22.4697 4.54915 22.5791 4.88184C22.6885 5.20996 22.7432 5.60417 22.7432 6.06445V11H20.7744V6.2832C20.7744 5.94596 20.7288 5.6862 20.6377 5.50391C20.5465 5.32161 20.4167 5.19401 20.248 5.12109C20.084 5.04818 19.8857 5.01172 19.6533 5.01172C19.3981 5.01172 19.1748 5.06413 18.9834 5.16895C18.7965 5.27376 18.6416 5.4196 18.5186 5.60645C18.3955 5.78874 18.3044 6.00293 18.2451 6.24902C18.1859 6.49512 18.1562 6.75944 18.1562 7.04199ZM22.5586 6.81641L21.8545 6.90527C21.8545 6.4222 21.9137 5.97331 22.0322 5.55859C22.1553 5.14388 22.3353 4.7793 22.5723 4.46484C22.8138 4.15039 23.1123 3.90658 23.4678 3.7334C23.8232 3.55566 24.2334 3.4668 24.6982 3.4668C25.0537 3.4668 25.3773 3.51921 25.6689 3.62402C25.9606 3.72428 26.209 3.88607 26.4141 4.10938C26.6237 4.32812 26.7832 4.61523 26.8926 4.9707C27.0065 5.32617 27.0635 5.76139 27.0635 6.27637V11H25.0879V6.27637C25.0879 5.93457 25.0423 5.6748 24.9512 5.49707C24.8646 5.31478 24.737 5.18945 24.5684 5.12109C24.4043 5.04818 24.2083 5.01172 23.9805 5.01172C23.7435 5.01172 23.5361 5.05957 23.3584 5.15527C23.1807 5.24642 23.0326 5.37402 22.9141 5.53809C22.7956 5.70215 22.7067 5.89355 22.6475 6.1123C22.5882 6.3265 22.5586 6.5612 22.5586 6.81641ZM32.5801 9.33203V6.03711C32.5801 5.80013 32.5413 5.59733 32.4639 5.42871C32.3864 5.25553 32.2656 5.12109 32.1016 5.02539C31.9421 4.92969 31.7347 4.88184 31.4795 4.88184C31.2607 4.88184 31.0716 4.92057 30.9121 4.99805C30.7526 5.07096 30.6296 5.17806 30.543 5.31934C30.4564 5.45605 30.4131 5.61784 30.4131 5.80469H28.4443C28.4443 5.49023 28.5173 5.19173 28.6631 4.90918C28.8089 4.62663 29.0208 4.37826 29.2988 4.16406C29.5768 3.94531 29.9072 3.77441 30.29 3.65137C30.6774 3.52832 31.1104 3.4668 31.5889 3.4668C32.1631 3.4668 32.6735 3.5625 33.1201 3.75391C33.5667 3.94531 33.9176 4.23242 34.1729 4.61523C34.4326 4.99805 34.5625 5.47656 34.5625 6.05078V9.21582C34.5625 9.62142 34.5876 9.9541 34.6377 10.2139C34.6878 10.4691 34.7607 10.6924 34.8564 10.8838V11H32.8672C32.7715 10.7995 32.6986 10.5488 32.6484 10.248C32.6029 9.94271 32.5801 9.63737 32.5801 9.33203ZM32.8398 6.49512L32.8535 7.60938H31.7529C31.4932 7.60938 31.2676 7.639 31.0762 7.69824C30.8848 7.75749 30.7275 7.8418 30.6045 7.95117C30.4814 8.05599 30.3903 8.17904 30.3311 8.32031C30.2764 8.46159 30.249 8.61654 30.249 8.78516C30.249 8.95378 30.2878 9.10645 30.3652 9.24316C30.4427 9.37533 30.5544 9.48014 30.7002 9.55762C30.846 9.63053 31.0169 9.66699 31.2129 9.66699C31.5091 9.66699 31.7666 9.60775 31.9854 9.48926C32.2041 9.37077 32.3727 9.22493 32.4912 9.05176C32.6143 8.87858 32.6781 8.71452 32.6826 8.55957L33.2021 9.39355C33.1292 9.5804 33.029 9.77409 32.9014 9.97461C32.7783 10.1751 32.6211 10.3643 32.4297 10.542C32.2383 10.7152 32.0081 10.8587 31.7393 10.9727C31.4704 11.082 31.1514 11.1367 30.7822 11.1367C30.3128 11.1367 29.8867 11.0433 29.5039 10.8564C29.1257 10.665 28.8249 10.403 28.6016 10.0703C28.3828 9.73307 28.2734 9.35026 28.2734 8.92188C28.2734 8.53451 28.3464 8.19043 28.4922 7.88965C28.638 7.58887 28.8522 7.33594 29.1348 7.13086C29.4219 6.92122 29.7796 6.764 30.208 6.65918C30.6364 6.5498 31.1331 6.49512 31.6982 6.49512H32.8398ZM38.001 0.5V11H36.0322V0.5H38.001ZM37.7207 7.04199H37.1807C37.1852 6.52702 37.2536 6.05306 37.3857 5.62012C37.5179 5.18262 37.707 4.80436 37.9531 4.48535C38.1992 4.16178 38.4932 3.91113 38.835 3.7334C39.1813 3.55566 39.5641 3.4668 39.9834 3.4668C40.348 3.4668 40.6784 3.51921 40.9746 3.62402C41.2754 3.72428 41.5329 3.88835 41.7471 4.11621C41.9658 4.33952 42.1344 4.63346 42.2529 4.99805C42.3714 5.36263 42.4307 5.80469 42.4307 6.32422V11H40.4482V6.31055C40.4482 5.98242 40.4004 5.72493 40.3047 5.53809C40.2135 5.34668 40.0791 5.21224 39.9014 5.13477C39.7282 5.05273 39.514 5.01172 39.2588 5.01172C38.9762 5.01172 38.7347 5.06413 38.5342 5.16895C38.3382 5.27376 38.181 5.4196 38.0625 5.60645C37.944 5.78874 37.8574 6.00293 37.8027 6.24902C37.748 6.49512 37.7207 6.75944 37.7207 7.04199ZM47.9199 9.33203V6.03711C47.9199 5.80013 47.8812 5.59733 47.8037 5.42871C47.7262 5.25553 47.6055 5.12109 47.4414 5.02539C47.2819 4.92969 47.0745 4.88184 46.8193 4.88184C46.6006 4.88184 46.4115 4.92057 46.252 4.99805C46.0924 5.07096 45.9694 5.17806 45.8828 5.31934C45.7962 5.45605 45.7529 5.61784 45.7529 5.80469H43.7842C43.7842 5.49023 43.8571 5.19173 44.0029 4.90918C44.1488 4.62663 44.3607 4.37826 44.6387 4.16406C44.9167 3.94531 45.2471 3.77441 45.6299 3.65137C46.0173 3.52832 46.4502 3.4668 46.9287 3.4668C47.5029 3.4668 48.0133 3.5625 48.46 3.75391C48.9066 3.94531 49.2575 4.23242 49.5127 4.61523C49.7725 4.99805 49.9023 5.47656 49.9023 6.05078V9.21582C49.9023 9.62142 49.9274 9.9541 49.9775 10.2139C50.0277 10.4691 50.1006 10.6924 50.1963 10.8838V11H48.207C48.1113 10.7995 48.0384 10.5488 47.9883 10.248C47.9427 9.94271 47.9199 9.63737 47.9199 9.33203ZM48.1797 6.49512L48.1934 7.60938H47.0928C46.833 7.60938 46.6074 7.639 46.416 7.69824C46.2246 7.75749 46.0674 7.8418 45.9443 7.95117C45.8213 8.05599 45.7301 8.17904 45.6709 8.32031C45.6162 8.46159 45.5889 8.61654 45.5889 8.78516C45.5889 8.95378 45.6276 9.10645 45.7051 9.24316C45.7826 9.37533 45.8942 9.48014 46.04 9.55762C46.1859 9.63053 46.3568 9.66699 46.5527 9.66699C46.849 9.66699 47.1064 9.60775 47.3252 9.48926C47.5439 9.37077 47.7126 9.22493 47.8311 9.05176C47.9541 8.87858 48.0179 8.71452 48.0225 8.55957L48.542 9.39355C48.4691 9.5804 48.3688 9.77409 48.2412 9.97461C48.1182 10.1751 47.9609 10.3643 47.7695 10.542C47.5781 10.7152 47.348 10.8587 47.0791 10.9727C46.8102 11.082 46.4912 11.1367 46.1221 11.1367C45.6527 11.1367 45.2266 11.0433 44.8438 10.8564C44.4655 10.665 44.1647 10.403 43.9414 10.0703C43.7227 9.73307 43.6133 9.35026 43.6133 8.92188C43.6133 8.53451 43.6862 8.19043 43.832 7.88965C43.9779 7.58887 44.1921 7.33594 44.4746 7.13086C44.7617 6.92122 45.1195 6.764 45.5479 6.65918C45.9762 6.5498 46.473 6.49512 47.0381 6.49512H48.1797Z" fill="#47475C"/>
</svg>
